<?xml version="1.0" encoding="UTF-8"?>
<svg version="1.1" xmlns="http://www.w3.org/2000/svg" width="368" height="265">
<path d="M0 0 C121.44 0 242.88 0 368 0 C368 87.45 368 174.9 368 265 C246.56 265 125.12 265 0 265 C0 177.55 0 90.1 0 0 Z " fill="#FEFEFE" transform="translate(0,0)"/>
<path d="M0 0 C3.53909608 2.55568669 6.85208733 5.36291197 10.12109375 8.25390625 C12.23140046 9.95732676 12.23140046 9.95732676 14.63671875 9.41796875 C15.48363281 9.06025391 15.48363281 9.06025391 16.34765625 8.6953125 C16.34765625 8.0353125 16.34765625 7.3753125 16.34765625 6.6953125 C17.00765625 6.6953125 17.66765625 6.6953125 18.34765625 6.6953125 C18.34765625 6.0353125 18.34765625 5.3753125 18.34765625 4.6953125 C20.02734375 3.40625 20.02734375 3.40625 22.22265625 2.0703125 C23.30160156 1.40128906 23.30160156 1.40128906 24.40234375 0.71875 C26.34765625 -0.3046875 26.34765625 -0.3046875 28.34765625 -0.3046875 C28.34765625 -0.9646875 28.34765625 -1.6246875 28.34765625 -2.3046875 C30.22149528 -3.09909822 32.09678511 -3.89008724 33.97265625 -4.6796875 C35.53886719 -5.34097656 35.53886719 -5.34097656 37.13671875 -6.015625 C38.19632813 -6.44101562 39.2559375 -6.86640625 40.34765625 -7.3046875 C41.25773438 -7.67722656 42.1678125 -8.04976562 43.10546875 -8.43359375 C60.73509921 -13.1702294 77.20874196 -7.65029014 92.47265625 1.0078125 C94.79296875 2.43359375 94.79296875 2.43359375 96.34765625 3.6953125 C96.34765625 4.3553125 96.34765625 5.0153125 96.34765625 5.6953125 C96.9509375 5.96859375 97.55421875 6.241875 98.17578125 6.5234375 C106.61188857 11.07529397 112.34852869 23.17612645 115.5234375 31.94140625 C121.03647617 53.70615132 116.54294205 74.73958587 107.34765625 94.6953125 C106.68765625 94.6953125 106.02765625 94.6953125 105.34765625 94.6953125 C105.08082031 95.41332031 104.81398438 96.13132812 104.5390625 96.87109375 C99.71682924 108.30215818 91.00412297 117.07843328 82.34765625 125.6953125 C81.47367188 126.58089844 80.5996875 127.46648437 79.69921875 128.37890625 C69.68491169 138.49364333 69.68491169 138.49364333 64.34765625 142.6953125 C63.68765625 142.6953125 63.02765625 142.6953125 62.34765625 142.6953125 C62.34765625 143.3553125 62.34765625 144.0153125 62.34765625 144.6953125 C60.09357717 146.65512538 57.83440015 148.49932014 55.47265625 150.3203125 C54.49619141 151.09375 54.49619141 151.09375 53.5 151.8828125 C48.60830026 155.6953125 48.60830026 155.6953125 46.34765625 155.6953125 C46.34765625 156.3553125 46.34765625 157.0153125 46.34765625 157.6953125 C44.484375 159.09765625 44.484375 159.09765625 42.03515625 160.6328125 C38.82450204 162.62394203 38.82450204 162.62394203 35.98046875 165.078125 C33.42922288 167.60495703 30.46217434 169.57010761 27.53515625 171.6328125 C26.93123047 172.06271484 26.32730469 172.49261719 25.70507812 172.93554688 C24.50208951 173.78890478 23.29360273 174.63456781 22.07958984 175.47216797 C20.45783224 176.61750284 18.89394847 177.84357195 17.3359375 179.07421875 C14.34765625 180.6953125 14.34765625 180.6953125 10.93359375 180.765625 C6.50386386 179.44346161 3.57109172 177.40082047 -0.02734375 174.5703125 C-0.6829126 174.07184814 -1.33848145 173.57338379 -2.01391602 173.05981445 C-3.90396541 171.6180774 -5.77966426 170.15950235 -7.65234375 168.6953125 C-8.54050781 168.01082031 -9.42867188 167.32632813 -10.34375 166.62109375 C-11.7969822 165.49641839 -13.24526717 164.36530872 -14.6875 163.2265625 C-16.60418655 161.73284257 -18.55954978 160.30817634 -20.52734375 158.8828125 C-24.95616789 155.59207265 -28.92380896 151.83026085 -32.97265625 148.08984375 C-35.79436205 145.56840694 -38.70081613 143.30904434 -41.80078125 141.14453125 C-44.29779537 139.19011724 -46.4341967 136.95994766 -48.65234375 134.6953125 C-49.52632812 133.83292969 -50.4003125 132.97054687 -51.30078125 132.08203125 C-69.25966553 114.3032504 -92.45018724 88.62256002 -92.65234375 61.6953125 C-92.66990723 61.04272461 -92.6874707 60.39013672 -92.70556641 59.71777344 C-93.17584269 42.10726488 -93.17584269 42.10726488 -90.65234375 34.6953125 C-90.33394531 33.69371094 -90.01554687 32.69210938 -89.6875 31.66015625 C-84.12826356 15.65629378 -73.32799252 3.89994421 -58.65234375 -4.3046875 C-39.53922203 -13.47367057 -17.6972994 -11.28609077 0 0 Z " fill="#347FC0" transform="translate(171.65234375,55.3046875)"/>
<path d="M0 0 C3.0697213 2.54104708 5.27377449 5.53202067 7.58984375 8.75390625 C10.13153716 12.08620353 12.56174947 13.43656864 16.609375 14.24609375 C20.26906628 13.51415549 21.61369345 11.47945926 24.109375 8.74609375 C25.28344267 7.70983989 26.47159627 6.68937102 27.671875 5.68359375 C29.6132564 4.05466644 31.33482514 2.49882585 33.046875 0.62109375 C36.06875295 -2.12606802 39.39098336 -3.62082884 43.109375 -5.25390625 C43.91375 -5.6303125 44.718125 -6.00671875 45.546875 -6.39453125 C56.96410178 -11.21966876 68.13037284 -10.12292156 79.6953125 -6.32421875 C82.109375 -5.25390625 82.109375 -5.25390625 83.109375 -3.25390625 C83.975625 -2.84140625 84.841875 -2.42890625 85.734375 -2.00390625 C93.30063885 1.91934167 99.27153152 8.09373714 103.109375 15.74609375 C103.30078125 19.05859375 103.30078125 19.05859375 103.109375 21.74609375 C103.769375 21.74609375 104.429375 21.74609375 105.109375 21.74609375 C110.7758556 34.56313321 109.60313571 49.51420202 104.734375 62.30859375 C103.12892203 66.3843833 101.54504523 70.09258841 99.109375 73.74609375 C97.31234741 74.1068573 97.31234741 74.1068573 95.11865234 74.08666992 C94.29795258 74.08644333 93.47725281 74.08621674 92.63168335 74.08598328 C91.74518097 74.07049942 90.85867859 74.05501556 89.9453125 74.0390625 C89.03810455 74.03481766 88.13089661 74.03057281 87.19619751 74.02619934 C84.29195768 74.00937508 81.3884059 73.97171635 78.484375 73.93359375 C76.51823917 73.91855174 74.55209249 73.9048625 72.5859375 73.89257812 C67.76015061 73.85945932 62.93487955 73.80765161 58.109375 73.74609375 C57.63741699 72.79710205 57.16545898 71.84811035 56.67919922 70.87036133 C56.04920108 69.60625891 55.41915284 68.34218146 54.7890625 67.078125 C54.47928467 66.45490356 54.16950684 65.83168213 53.8503418 65.1895752 C50.22161297 56.95203559 50.22161297 56.95203559 45.109375 49.74609375 C41.7802791 48.99426722 41.7802791 48.99426722 38.109375 49.74609375 C34.6807619 53.17470685 32.99527564 57.88993336 31.26171875 62.33984375 C29.06565646 67.89649236 26.72493138 73.38485224 24.359375 78.87109375 C23.74255859 80.30582031 23.74255859 80.30582031 23.11328125 81.76953125 C22.11309889 84.09553673 21.11178281 86.42104669 20.109375 88.74609375 C19.449375 88.74609375 18.789375 88.74609375 18.109375 88.74609375 C15.52321552 82.13247642 12.97238713 75.53063683 10.78515625 68.7734375 C10.13473172 66.82216391 9.41707155 64.91288275 8.671875 62.99609375 C7.32494474 59.48144759 6.24445846 55.9159936 5.171875 52.30859375 C2.9950095 44.13487019 2.9950095 44.13487019 -0.890625 36.74609375 C-4.51239084 35.52341667 -4.51239084 35.52341667 -7.890625 35.74609375 C-8.385625 36.73609375 -8.385625 36.73609375 -8.890625 37.74609375 C-9.550625 37.74609375 -10.210625 37.74609375 -10.890625 37.74609375 C-11.138125 38.52984375 -11.385625 39.31359375 -11.640625 40.12109375 C-14.38392027 48.07665004 -17.69405279 55.53791 -21.62109375 62.984375 C-22.82902153 65.6120825 -23.46009275 67.89835631 -23.890625 70.74609375 C-24.550625 70.74609375 -25.210625 70.74609375 -25.890625 70.74609375 C-25.890625 71.40609375 -25.890625 72.06609375 -25.890625 72.74609375 C-39.750625 72.74609375 -53.610625 72.74609375 -67.890625 72.74609375 C-74.47181969 54.88285102 -79.9473829 38.35724167 -72.375 20.08984375 C-68.90069919 12.72313692 -65.02835188 5.17640699 -57.890625 0.74609375 C-57.230625 0.74609375 -56.570625 0.74609375 -55.890625 0.74609375 C-55.890625 0.08609375 -55.890625 -0.57390625 -55.890625 -1.25390625 C-37.06214214 -11.58710834 -18.30098305 -11.82194375 0 0 Z " fill="#FCFEFE" transform="translate(167.890625,68.25390625)"/>
<path d="M0 0 C0.66 0 1.32 0 2 0 C5.54609569 8.92599499 8.67660082 17.90115514 11.5625 27.0625 C14.8553278 37.44627046 14.8553278 37.44627046 18.21484375 47.80859375 C18.69425415 49.27317017 18.69425415 49.27317017 19.18334961 50.76733398 C19.80079586 52.94118763 19.80079586 52.94118763 21 54 C24.66344611 54.13568319 27.50615721 54.16461426 31 53 C31.72683286 50.99255686 32.43371532 48.97626541 33.0546875 46.93359375 C35.70374489 38.71275864 39.03822186 30.5627542 43.0546875 22.91796875 C44.95759615 19.05710864 46.45362454 15.01399587 48 11 C48.66 11 49.32 11 50 11 C52.18704889 15.2785471 54.23750979 19.5259864 56 24 C58.13086442 26.13086442 62.89166935 25.25960872 65.84765625 25.31640625 C67.17729652 25.3475779 67.17729652 25.3475779 68.53379822 25.37937927 C71.376617 25.444974 74.21953117 25.50380552 77.0625 25.5625 C78.98503606 25.6056758 80.90756234 25.64928978 82.83007812 25.69335938 C87.55328668 25.80066543 92.27659153 25.90190451 97 26 C95.23588404 29.75868176 92.88457437 32.55398375 90.0625 35.5625 C89.58176025 36.07973633 89.10102051 36.59697266 88.60571289 37.12988281 C77.71368187 48.77680707 77.71368187 48.77680707 73 53 C72.34 53 71.68 53 71 53 C71 53.66 71 54.32 71 55 C65.52380952 60 65.52380952 60 63 60 C63 60.66 63 61.32 63 62 C61.11549324 63.58820066 59.23813233 65.05282461 57.25 66.5 C56.71117187 66.90347656 56.17234375 67.30695313 55.6171875 67.72265625 C52.85197831 69.76621329 50.14376045 71.59599048 47 73 C47 73.66 47 74.32 47 75 C41.58823529 79 41.58823529 79 39 79 C39 79.66 39 80.32 39 81 C33.58823529 85 33.58823529 85 31 85 C31 85.66 31 86.32 31 87 C29.36368108 88.04892238 27.69514137 89.04906703 26 90 C25.67 90.33 25.34 90.66 25 91 C21.46998971 91.49027921 20.20365346 91.13576897 17.1875 89.125 C16.1046875 88.073125 16.1046875 88.073125 15 87 C15 86.34 15 85.68 15 85 C14.28972656 84.7525 13.57945312 84.505 12.84765625 84.25 C9.65249407 82.84745968 7.21270296 81.11444035 4.4375 79 C3.91937744 78.60554688 3.40125488 78.21109375 2.86743164 77.8046875 C-1.89602955 74.14634931 -6.51010019 70.3143385 -11.09375 66.43359375 C-12.88111851 64.93691286 -14.68969401 63.46463567 -16.53125 62.03515625 C-23.07117625 56.93845447 -28.9348978 51.27814671 -34.8125 45.4375 C-35.62533447 44.6338501 -36.43816895 43.8302002 -37.27563477 43.00219727 C-50 30.2122628 -50 30.2122628 -50 26 C-37.13 25.67 -24.26 25.34 -11 25 C-6.16571488 15.46495438 -6.16571488 15.46495438 -2.125 5.75 C-1.71507812 4.65171875 -1.30515625 3.5534375 -0.8828125 2.421875 C-0.59148437 1.62265625 -0.30015625 0.8234375 0 0 Z " fill="#FAFDFD" transform="translate(161,129)"/>
<path d="M0 0 C0.66 0.33 1.32 0.66 2 1 C1.66226563 1.65484375 1.32453125 2.3096875 0.9765625 2.984375 C-6.21787123 17.70593304 -6.65223338 32.43908145 -2 48 C0.475 54.435 0.475 54.435 3 61 C17.19 61 31.38 61 46 61 C46 61.66 46 62.32 46 63 C43.62609164 64.18695418 42.19755049 64.12075833 39.55029297 64.11352539 C38.62948944 64.11344986 37.70868591 64.11337433 36.75997925 64.11329651 C35.26617233 64.10555458 35.26617233 64.10555458 33.7421875 64.09765625 C32.72399933 64.0962413 31.70581116 64.09482635 30.6567688 64.09336853 C27.39614965 64.087759 24.13559849 64.07520488 20.875 64.0625 C18.66796974 64.05748623 16.46093841 64.05292311 14.25390625 64.04882812 C8.83591419 64.03778648 3.41796195 64.02103905 -2 64 C-2.33 64.99 -2.66 65.98 -3 67 C-3.99 67 -4.98 67 -6 67 C-2.93167567 73.90372975 1.17421499 79.22265175 6 85 C7.5625 86.9375 9.125 88.875 10.6875 90.8125 C13.609423 94.42884711 16.67127581 97.75289077 20 101 C20.33 100.34 20.66 99.68 21 99 C20.34 99 19.68 99 19 99 C19 98.34 19 97.68 19 97 C19.99 96.34 20.98 95.68 22 95 C22.33 94.34 22.66 93.68 23 93 C23.86625 93.4640625 23.86625 93.4640625 24.75 93.9375 C26.87302068 95.07060517 26.87302068 95.07060517 28.85546875 95.28515625 C31.91040643 96.30346881 33.37120016 98.16068815 35.5625 100.5 C40.090778 105.19699179 44.79488247 109.19270663 49.9453125 113.1875 C50.62335938 113.785625 51.30140625 114.38375 52 115 C52 115.66 52 116.32 52 117 C51.34 117 50.68 117 50 117 C50 116.34 50 115.68 50 115 C49.42765625 114.731875 48.8553125 114.46375 48.265625 114.1875 C45.92115366 112.95867364 43.87595062 111.57477824 41.75 110 C41.04359375 109.484375 40.3371875 108.96875 39.609375 108.4375 C39.07828125 107.963125 38.5471875 107.48875 38 107 C38 106.34 38 105.68 38 105 C37.4225 104.731875 36.845 104.46375 36.25 104.1875 C33.96587952 102.98199197 32.04568469 101.56864477 30 100 C29.94589313 101.77049689 29.90715881 103.54146849 29.875 105.3125 C29.85179687 106.29863281 29.82859375 107.28476563 29.8046875 108.30078125 C29.79317361 111.22406527 29.79317361 111.22406527 32 114 C26.96977486 112.52272199 24.1580865 109.54655787 20.625 105.875 C20.0470166 105.28315918 19.4690332 104.69131836 18.87353516 104.08154297 C17.23836382 102.39753304 15.61650038 100.70191651 14 99 C13.33484375 98.30390625 12.6696875 97.6078125 11.984375 96.890625 C-0.99083327 82.65568777 -18.31162162 60.68601534 -18.375 40.5 C-18.25125 39.345 -18.1275 38.19 -18 37 C-15.8508083 40.22378756 -14.975006 42.98414648 -13.875 46.6875 C-13.34519531 48.45673828 -13.34519531 48.45673828 -12.8046875 50.26171875 C-12.53914063 51.16535156 -12.27359375 52.06898438 -12 53 C-12 51.35 -12 49.7 -12 48 C-9.03 47.505 -9.03 47.505 -6 47 C-6.2165625 45.56720703 -6.2165625 45.56720703 -6.4375 44.10546875 C-8.13630432 32.27282477 -8.55373897 21.78824151 -6 10 C-5.34 10 -4.68 10 -4 10 C-3.79503906 9.36191406 -3.59007813 8.72382812 -3.37890625 8.06640625 C-3.10949219 7.24011719 -2.84007813 6.41382812 -2.5625 5.5625 C-2.16224609 4.32693359 -2.16224609 4.32693359 -1.75390625 3.06640625 C-1 1 -1 1 0 0 Z " fill="#347BB9" transform="translate(98,80)"/>
<path d="M0 0 C6.75 0.75 6.75 0.75 9 3 C10.0490714 5.44880735 11.0175862 7.87825555 11.9375 10.375 C12.20473877 11.09018799 12.47197754 11.80537598 12.74731445 12.54223633 C14.65688646 17.76834134 16.12794143 22.99628972 17.26171875 28.44921875 C18.0956888 31.33060734 19.45743722 33.43422975 21 36 C21.79068346 38.20809595 22.51849626 40.43954492 23.1875 42.6875 C23.53167969 43.82574219 23.87585938 44.96398437 24.23046875 46.13671875 C25 49 25 49 25 51 C24.34 51 23.68 51 23 51 C22.505 49.02 22.505 49.02 22 47 C20.35 47.33 18.7 47.66 17 48 C17.33 47.01 17.66 46.02 18 45 C18.41740592 39.78242596 17.49764438 35.9128416 15.65625 31.11328125 C15 29 15 29 15 25 C13.68 25.33 12.36 25.66 11 26 C10.505 25.01 10.505 25.01 10 24 C8.33358994 24.990755 8.33358994 24.990755 7 27 C6.72654521 29.71846235 6.86508715 32.25677199 7 35 C7.66 35 8.32 35 9 35 C10.0373997 38.24494693 11.05197239 41.49659404 12.0625 44.75 C12.35705078 45.67039063 12.65160156 46.59078125 12.95507812 47.5390625 C13.22900391 48.42851562 13.50292969 49.31796875 13.78515625 50.234375 C14.04176025 51.05131836 14.29836426 51.86826172 14.56274414 52.70996094 C15.03411697 55.17868071 14.79786936 56.6419054 14 59 C4.43170103 33.86726804 4.43170103 33.86726804 3 26 C2.34 26 1.68 26 1 26 C0.82984375 26.53367188 0.6596875 27.06734375 0.484375 27.6171875 C-2.1454912 35.70262721 -5.19495395 43.38990789 -9 51 C-22.53 51 -36.06 51 -50 51 C-50 50.67 -50 50.34 -50 50 C-37.13 49.67 -24.26 49.34 -11 49 C-6.89908749 40.79817497 -4.75332742 34.92098255 -4 26 C-4.99 26.495 -4.99 26.495 -6 27 C-6 26.34 -6 25.68 -6 25 C-6.99 25.33 -7.98 25.66 -9 26 C-11.21373782 18.67763644 -8.07058987 12.70276254 -5 6 C-4.34 5.01 -3.68 4.02 -3 3 C-2.34 3 -1.68 3 -1 3 C-0.67 2.01 -0.34 1.02 0 0 Z " fill="#347FBE" transform="translate(160,103)"/>
<path d="M0 0 C0.66 0 1.32 0 2 0 C4.18704889 4.2785471 6.23750979 8.5259864 8 13 C10.13086442 15.13086442 14.89166935 14.25960872 17.84765625 14.31640625 C19.17729652 14.3475779 19.17729652 14.3475779 20.53379822 14.37937927 C23.376617 14.444974 26.21953117 14.50380552 29.0625 14.5625 C30.98503606 14.6056758 32.90756234 14.64928978 34.83007812 14.69335938 C39.55328668 14.80066543 44.27659153 14.90190451 49 15 C47.44805246 18.32759923 45.69378051 20.48580485 43 23 C43 21.35 43 19.7 43 18 C41.68394775 18.00785522 41.68394775 18.00785522 40.34130859 18.01586914 C37.06493463 18.03298097 33.78860865 18.04548412 30.51220703 18.05493164 C29.09813687 18.0599392 27.68407184 18.06674718 26.27001953 18.07543945 C24.22947927 18.08766256 22.18900788 18.0932642 20.1484375 18.09765625 C18.31031494 18.10551147 18.31031494 18.10551147 16.43505859 18.11352539 C13.17574309 18.00580814 10.17838764 17.72760755 7 17 C4.97189187 14.29585583 4.54945191 11.29671144 4 8 C2.68 7.67 1.36 7.34 0 7 C-1.485 9.475 -1.485 9.475 -3 12 C-4 10 -4 10 -3.22265625 7.6171875 C-2.83980469 6.71226562 -2.45695313 5.80734375 -2.0625 4.875 C-1.68222656 3.96492187 -1.30195313 3.05484375 -0.91015625 2.1171875 C-0.60980469 1.41851562 -0.30945313 0.71984375 0 0 Z " fill="#D5EEF9" transform="translate(209,140)"/>
<path d="M0 0 C0.33 0 0.66 0 1 0 C0.07021792 8.05811138 0.07021792 8.05811138 -2 11 C-2.62261719 11.29519531 -3.24523437 11.59039062 -3.88671875 11.89453125 C-6.23757332 13.12427588 -7.33760459 14.32298067 -9 16.375 C-12.1969315 20.15193635 -15.56763329 23.68939331 -19.0625 27.1875 C-19.55685547 27.68620605 -20.05121094 28.18491211 -20.56054688 28.69873047 C-29.89581905 38 -29.89581905 38 -33 38 C-33 38.66 -33 39.32 -33 40 C-36 42 -36 42 -39 42 C-39.20625 42.804375 -39.4125 43.60875 -39.625 44.4375 C-40.07875 45.283125 -40.5325 46.12875 -41 47 C-44.125 47.8125 -44.125 47.8125 -47 48 C-45.33333333 46.33333333 -43.66666667 44.66666667 -42 43 C-41.443125 42.401875 -40.88625 41.80375 -40.3125 41.1875 C-39 40 -39 40 -37 40 C-37 39.34 -37 38.68 -37 38 C-33.53846154 35 -33.53846154 35 -31 35 C-30.67 34.01 -30.34 33.02 -30 32 C-28.3984375 30.421875 -28.3984375 30.421875 -26.375 28.75 C-22.84629906 25.77345191 -19.61490259 22.63902483 -16.4453125 19.28515625 C-15 18 -15 18 -13 18 C-12.66162109 17.19949219 -12.66162109 17.19949219 -12.31640625 16.3828125 C-10.56997065 13.2216086 -8.28137135 10.60012341 -5.9375 7.875 C-2.63589453 4.16892732 -2.63589453 4.16892732 0 0 Z " fill="#EFFBFC" transform="translate(271,160)"/>
<path d="M0 0 C0.59167969 0.20625 1.18335938 0.4125 1.79296875 0.625 C-3.95703125 4.625 -3.95703125 4.625 -6.20703125 4.625 C-6.24828125 5.346875 -6.28953125 6.06875 -6.33203125 6.8125 C-7.61435486 10.93425447 -9.68813838 12.16177499 -13.20703125 14.625 C-14.19703125 14.625 -15.18703125 14.625 -16.20703125 14.625 C-16.45453125 15.140625 -16.70203125 15.65625 -16.95703125 16.1875 C-18.20703125 18.625 -18.20703125 18.625 -20.08203125 21.6875 C-24.51146216 29.42247636 -26.76640541 37.88646692 -28.20703125 46.625 C-28.53703125 46.625 -28.86703125 46.625 -29.20703125 46.625 C-29.53703125 51.905 -29.86703125 57.185 -30.20703125 62.625 C-30.53703125 62.625 -30.86703125 62.625 -31.20703125 62.625 C-31.59510531 42.6391861 -31.59510531 42.6391861 -29.20703125 35.625 C-28.88863281 34.62339844 -28.57023437 33.62179688 -28.2421875 32.58984375 C-25.28095119 24.06507255 -12.05287099 -2.04792144 0 0 Z " fill="#417CAE" transform="translate(110.20703125,54.375)"/>
<path d="M0 0 C2.25154987 3.3773248 3.24021273 6.71902292 4.375 10.5625 C11.39946459 33.54838083 24.56297292 49.87612309 41 67 C40.34 67.66 39.68 68.32 39 69 C22.41237244 52.86613733 2.54919456 29.90881923 -0.3671875 5.98828125 C-0.375 3.5 -0.375 3.5 0 0 Z " fill="#3E78A7" transform="translate(80,117)"/>
<path d="M0 0 C2 2 2 2 2 4.3125 C0.6330999 7.98604401 -1.69709073 10.03730684 -5 12 C-8.61865234 12.56762695 -8.61865234 12.56762695 -12.5859375 12.48828125 C-13.28772125 12.48120651 -13.989505 12.47413177 -14.71255493 12.46684265 C-16.93449591 12.43905097 -19.15383265 12.37635434 -21.375 12.3125 C-22.88928628 12.28739686 -24.40361243 12.26458722 -25.91796875 12.24414062 C-29.6128126 12.18927846 -33.30615175 12.10311808 -37 12 C-36.01 13.485 -36.01 13.485 -35 15 C-34.875 17.6875 -34.875 17.6875 -35 20 C-40.80205656 14.35475578 -40.80205656 14.35475578 -43 11 C-43 10.34 -43 9.68 -43 9 C-30.13 8.67 -17.26 8.34 -4 8 C-2.68 5.36 -1.36 2.72 0 0 Z " fill="#D0ECFC" transform="translate(154,146)"/>
<path d="M0 0 C0.66 0.33 1.32 0.66 2 1 C2 0.34 2 -0.32 2 -1 C18.8929385 -1.3690205 18.8929385 -1.3690205 26 1 C22.31707379 2.20015755 18.96865096 1.96283307 15.125 1.8125 C5.3232682 1.62293707 -3.6100666 3.86300569 -12 9 C-12.66 9 -13.32 9 -14 9 C-14 9.66 -14 10.32 -14 11 C-15.44322002 11.90620792 -16.88672967 12.81195939 -18.33203125 13.71484375 C-21.26012331 15.97091468 -22.98989416 18.92572048 -25 22 C-25.625 20.1875 -25.625 20.1875 -26 18 C-25.01 16.515 -25.01 16.515 -24 15 C-23.34 15 -22.68 15 -22 15 C-22 14.34 -22 13.68 -22 13 C-21.34 13 -20.68 13 -20 13 C-20 12.34 -20 11.68 -20 11 C-17.76953125 9.34375 -17.76953125 9.34375 -14.8125 7.5 C-13.36810547 6.58734375 -13.36810547 6.58734375 -11.89453125 5.65625 C-9.30373304 4.17379596 -6.79817831 3.02309993 -4 2 C-5.32 1.67 -6.64 1.34 -8 1 C-4.92477747 -0.86709939 -3.39885889 -1.24624826 0 0 Z " fill="#427BAC" transform="translate(126,58)"/>
<path d="M0 0 C10.30030255 0.59424822 19.66715138 5.07085772 28 11 C28 11.66 28 12.32 28 13 C28.60199219 13.27070312 29.20398438 13.54140625 29.82421875 13.8203125 C36.9919064 17.70656325 41.63766012 26.92082435 45 34 C44.505 34.99 44.505 34.99 44 36 C43.34 36 42.68 36 42 36 C42 34.68 42 33.36 42 32 C40.68 31.67 39.36 31.34 38 31 C37.773125 29.9275 37.54625 28.855 37.3125 27.75 C35.84835637 23.56673248 34.46911543 22.55619031 31 20 C31 19.01 31 18.02 31 17 C30.34 17 29.68 17 29 17 C27.375 15.625 27.375 15.625 26 14 C26 13.34 26 12.68 26 12 C24.35 11.34 22.7 10.68 21 10 C21 9.34 21 8.68 21 8 C20.29875 7.896875 19.5975 7.79375 18.875 7.6875 C16 7 16 7 13.3125 5.625 C9.0187013 3.51860818 4.59614051 2.28074271 0 1 C0 0.67 0 0.34 0 0 Z " fill="#3E78AB" transform="translate(240,48)"/>
<path d="M0 0 C1.8723158 3.15953291 2.38924987 5.33996994 2 9 C0.90625 12.11328125 0.90625 12.11328125 -0.5 15.3125 C-0.9640625 16.38113281 -1.428125 17.44976562 -1.90625 18.55078125 C-2.2671875 19.35902344 -2.628125 20.16726562 -3 21 C-3.99 20.34 -4.98 19.68 -6 19 C-7.99760089 18.71192287 -7.99760089 18.71192287 -10.19604492 18.77294922 C-11.45701241 18.77317581 -11.45701241 18.77317581 -12.74345398 18.77340698 C-14.09827629 18.78889084 -14.09827629 18.78889084 -15.48046875 18.8046875 C-16.40845779 18.8075174 -17.33644684 18.81034729 -18.29255676 18.81326294 C-21.25766879 18.82446164 -24.22247921 18.84956565 -27.1875 18.875 C-29.19726126 18.8850302 -31.20702726 18.89415598 -33.21679688 18.90234375 C-38.14464753 18.92439996 -43.07227262 18.95892771 -48 19 C-48 18.67 -48 18.34 -48 18 C-34.47 18 -20.94 18 -7 18 C-7 17.34 -7 16.68 -7 16 C-6.34 16 -5.68 16 -5 16 C-4.9175 15.030625 -4.835 14.06125 -4.75 13.0625 C-4.1000875 8.32880899 -2.07694677 4.26015593 0 0 Z " fill="#6097C4" transform="translate(149,123)"/>
<path d="M0 0 C0.99 0.33 1.98 0.66 3 1 C-0.51741877 6.12956903 -4.2230712 10.29187514 -8.9921875 14.28125 C-10.9535925 15.96027373 -12.75781326 17.71734943 -14.5625 19.5625 C-17.84776575 22.89297583 -21.19605018 26.25995171 -25 29 C-25.66 29 -26.32 29 -27 29 C-27 29.66 -27 30.32 -27 31 C-28.96147874 32.38938077 -30.96166576 33.7260411 -33 35 C-33 32 -33 32 -31.3125 30.203125 C-30.1678125 29.23632812 -30.1678125 29.23632812 -29 28.25 C-28.18273437 27.55261719 -27.36546875 26.85523438 -26.5234375 26.13671875 C-25.69070312 25.43160156 -24.85796875 24.72648437 -24 24 C-21.90637205 22.11861268 -19.81533666 20.23442962 -17.7265625 18.34765625 C-16 17 -16 17 -13 16 C-13 15.01 -13 14.02 -13 13 C-11.125 10.8125 -11.125 10.8125 -9 9 C-8.34 9 -7.68 9 -7 9 C-7 8.34 -7 7.68 -7 7 C-5.01739574 5.31267723 -3.0167658 3.64633943 -1 2 C-0.67 1.34 -0.34 0.68 0 0 Z " fill="#407BAB" transform="translate(261,169)"/>
<path d="M0 0 C2.88801945 2.57831227 3.52736783 4.39268521 3.875 8.2890625 C4.04058013 11.88008148 4.1433303 15.46824226 4.1875 19.0625 C4.20063232 19.73498779 4.21376465 20.40747559 4.22729492 21.1003418 C4.23477433 25.80718841 3.45414133 29.58010008 2 34 C1.34 34 0.68 34 0 34 C0 36.31 0 38.62 0 41 C-1.485 41.495 -1.485 41.495 -3 42 C-2.5470559 38.37644724 -2.03917302 35.12820261 -0.96875 31.625 C0.58895762 25.51322996 0.21095625 19.26158192 0.125 13 C0.11597656 11.74832031 0.10695313 10.49664062 0.09765625 9.20703125 C0.07422716 6.1378199 0.04142147 3.06901244 0 0 Z " fill="#D8F0FA" transform="translate(288,93)"/>
<path d="M0 0 C0.99 0.33 1.98 0.66 3 1 C2.67 1.99 2.34 2.98 2 4 C-11.53 4 -25.06 4 -39 4 C-39 3.01 -39 2.02 -39 1 C-10.64207904 0.79361047 -10.64207904 0.79361047 0 2 C0 1.34 0 0.68 0 0 Z " fill="#D6EFFA" transform="translate(265,138)"/>
<path d="M0 0 C0.66 0 1.32 0 2 0 C1.39883072 5.73928798 -0.73136918 10.57323198 -3 15.8125 C-3.36867187 16.68326172 -3.73734375 17.55402344 -4.1171875 18.45117188 C-6.85048895 24.85048895 -6.85048895 24.85048895 -8 26 C-11.02977804 26.08871273 -14.03667022 26.1151935 -17.06640625 26.09765625 C-17.97502914 26.0962413 -18.88365204 26.09482635 -19.81980896 26.09336853 C-22.73407221 26.08775193 -25.64825981 26.07519665 -28.5625 26.0625 C-30.53320202 26.05748714 -32.50390524 26.05292386 -34.47460938 26.04882812 C-39.31643559 26.03777711 -44.15820495 26.02050138 -49 26 C-49 25.67 -49 25.34 -49 25 C-36.13 24.67 -23.26 24.34 -10 24 C-6.88802129 17.9149829 -6.88802129 17.9149829 -4.296875 11.71875 C-3.91015625 10.67460937 -3.91015625 10.67460937 -3.515625 9.609375 C-3.26296875 8.91328125 -3.0103125 8.2171875 -2.75 7.5 C-2.481875 6.77296875 -2.21375 6.0459375 -1.9375 5.296875 C-1.28756176 3.53275692 -0.6431775 1.76659419 0 0 Z " fill="#2F6FA5" transform="translate(159,128)"/>
<path d="M0 0 C0.66 0.33 1.32 0.66 2 1 C1.66226563 1.65484375 1.32453125 2.3096875 0.9765625 2.984375 C-5.8151545 16.88187684 -5.87142596 30.89491902 -4 46 C-4.66 46 -5.32 46 -6 46 C-8.05985202 33.4017979 -8.71036989 22.51126103 -6 10 C-5.34 10 -4.68 10 -4 10 C-3.79503906 9.36191406 -3.59007813 8.72382812 -3.37890625 8.06640625 C-3.10949219 7.24011719 -2.84007813 6.41382812 -2.5625 5.5625 C-2.16224609 4.32693359 -2.16224609 4.32693359 -1.75390625 3.06640625 C-1 1 -1 1 0 0 Z " fill="#356FA0" transform="translate(98,80)"/>
<path d="M0 0 C5.73488351 2.86744176 6.43003193 11.12578727 9 17 C29.295 17.495 29.295 17.495 50 18 C50 18.33 50 18.66 50 19 C35.81 19 21.62 19 7 19 C0 6 0 6 0 0 Z " fill="#578CB9" transform="translate(217,124)"/>
<path d="M0 0 C1.29899776 3.89699329 1.06017591 7.56988071 1 11.625 C0.95569976 22.07779513 1.48714321 29.64777494 5.94140625 39.30078125 C7 42 7 42 7 46 C6.01 46 5.02 46 4 46 C3.67 42.7 3.34 39.4 3 36 C2.34 36 1.68 36 1 36 C0.86722656 35.04738281 0.73445313 34.09476563 0.59765625 33.11328125 C0.42105469 31.85902344 0.24445313 30.60476562 0.0625 29.3125 C-0.11152344 28.07113281 -0.28554687 26.82976562 -0.46484375 25.55078125 C-0.92183689 22.16780964 -0.92183689 22.16780964 -1.58984375 19.55859375 C-2.17179872 15.9283032 -1.88729634 12.39591918 -1.625 8.75 C-1.58117187 8.0178125 -1.53734375 7.285625 -1.4921875 6.53125 C-1.13225446 1.13225446 -1.13225446 1.13225446 0 0 Z " fill="#DEF8FC" transform="translate(79,96)"/>
<path d="M0 0 C0.66 0.33 1.32 0.66 2 1 C-1.52468675 4.93935578 -4.06867596 6.35622532 -9 8 C-11.7486489 10.42142879 -13.91804197 12.89152614 -16.125 15.8125 C-17.053125 16.8953125 -17.053125 16.8953125 -18 18 C-18.99 18 -19.98 18 -21 18 C-19.13916819 13.43250373 -15.96311877 10.11420254 -11.6875 7.6875 C-10.8521875 7.3471875 -10.8521875 7.3471875 -10 7 C-10 6.34 -10 5.68 -10 5 C-8.38007835 4.13624104 -6.75388139 3.28424146 -5.125 2.4375 C-4.22007813 1.96183594 -3.31515625 1.48617187 -2.3828125 0.99609375 C-1.59648438 0.66738281 -0.81015625 0.33867188 0 0 Z " fill="#CFE8F4" transform="translate(122,62)"/>
<path d="M0 0 C1.32970606 2.65941212 0.78286673 3.98811384 0.1875 6.875 C0.01605469 7.73867187 -0.15539062 8.60234375 -0.33203125 9.4921875 C-0.97596212 11.90975251 -1.70950877 13.86037514 -3 16 C-3.66 16.33 -4.32 16.66 -5 17 C-6.13102526 19.34038186 -6.13102526 19.34038186 -7.125 22.0625 C-7.47820312 22.98160156 -7.83140625 23.90070313 -8.1953125 24.84765625 C-8.46085938 25.55792969 -8.72640625 26.26820313 -9 27 C-10.32 26.67 -11.64 26.34 -13 26 C-12.67 24.68 -12.34 23.36 -12 22 C-12 22.99 -12 23.98 -12 25 C-11.34 25 -10.68 25 -10 25 C-9.87238281 24.27006836 -9.74476563 23.54013672 -9.61328125 22.78808594 C-9.03106594 20.14123129 -8.24274481 17.88054028 -7.1875 15.390625 C-6.65769531 14.13572266 -6.65769531 14.13572266 -6.1171875 12.85546875 C-5.74851563 11.99566406 -5.37984375 11.13585937 -5 10.25 C-4.44699219 8.93708984 -4.44699219 8.93708984 -3.8828125 7.59765625 C-1.13923518 1.13923518 -1.13923518 1.13923518 0 0 Z " fill="#4A85B3" transform="translate(198,132)"/>
<path d="M0 0 C1.32 0 2.64 0 4 0 C4 0.66 4 1.32 4 2 C2.48828125 3.19140625 2.48828125 3.19140625 0.3125 4.5625 C-2.62181543 6.43655565 -5.50376064 8.34359318 -8.31640625 10.39453125 C-8.88464111 10.80437256 -9.45287598 11.21421387 -10.03833008 11.63647461 C-11.1629749 12.450242 -12.28155879 13.27246477 -13.39331055 14.10375977 C-16.71738756 16.48218099 -18.89898752 17.50123486 -23 17 C-23.66 15.68 -24.32 14.36 -25 13 C-24.26523438 13.20882812 -23.53046875 13.41765625 -22.7734375 13.6328125 C-19.48638012 14.06800038 -18.42325203 13.56203281 -15.625 11.875 C-14.46677734 11.18470703 -14.46677734 11.18470703 -13.28515625 10.48046875 C-11.16292849 9.10555538 -9.10590779 7.67632948 -7.0625 6.1875 C-4 4 -4 4 -2 4 C-2 3.34 -2 2.68 -2 2 C-1.34 1.34 -0.68 0.68 0 0 Z " fill="#4580B0" transform="translate(204,219)"/>
<path d="M0 0 C0.66 0.99 1.32 1.98 2 3 C1.01 3.33 0.02 3.66 -1 4 C-1.6837045 5.32467746 -2.34964186 6.65863633 -3 8 C-3.99 8.66 -4.98 9.32 -6 10 C-7.03013277 11.64821244 -8.03114628 13.31503702 -9 15 C-11 17 -11 17 -14.125 17.125 C-15.548125 17.063125 -15.548125 17.063125 -17 17 C-15.625 15 -15.625 15 -14 13 C-13.34 13 -12.68 13 -12 13 C-12 12.34 -12 11.68 -12 11 C-10.390625 9.4140625 -10.390625 9.4140625 -8.25 7.625 C-5.3756268 5.18382134 -2.61456008 2.72350008 0 0 Z " fill="#3379B4" transform="translate(244,171)"/>
<path d="M0 0 C0.33 0 0.66 0 1 0 C1.3690205 9.41002278 1.3690205 9.41002278 -1 14 C-1.66 14 -2.32 14 -3 14 C-3.28875 14.94875 -3.5775 15.8975 -3.875 16.875 C-5 20 -5 20 -7 22 C-9.68839385 22.26991906 -12.29141936 22.08737357 -15 22 C-15 21.67 -15 21.34 -15 21 C-13.741875 20.855625 -12.48375 20.71125 -11.1875 20.5625 C-8.94832904 20.08806087 -8.94832904 20.08806087 -7 19 C-5.75619807 16.90251851 -5.24033009 14.96113074 -4.65234375 12.59765625 C-3.93746605 9.75098756 -2.92787583 7.15068064 -1.8125 4.4375 C-1.29623047 3.16712891 -1.29623047 3.16712891 -0.76953125 1.87109375 C-0.51558594 1.25363281 -0.26164063 0.63617188 0 0 Z " fill="#D1EBF6" transform="translate(199,163)"/>
<path d="M0 0 C6.75 0.75 6.75 0.75 9 3 C11.46098819 8.49680574 13.66050826 13.89029855 13 20 C10.41992239 16.12988358 9.37139934 12.13439241 8 7.71484375 C7.17802464 4.89861216 7.17802464 4.89861216 5 3 C2.42938689 2.35232207 2.42938689 2.35232207 0 2 C-1.36736512 5.00820327 -2.0591255 7.44344128 -2.5 10.75 C-2.665 11.8225 -2.83 12.895 -3 14 C-3.99 14.495 -3.99 14.495 -5 15 C-5.05422947 13.5629191 -5.09289723 12.12524538 -5.125 10.6875 C-5.14820313 9.88699219 -5.17140625 9.08648437 -5.1953125 8.26171875 C-5 6 -5 6 -3 3 C-2.34 3 -1.68 3 -1 3 C-0.67 2.01 -0.34 1.02 0 0 Z " fill="#4780AE" transform="translate(160,103)"/>
<path d="M0 0 C0.66 0.33 1.32 0.66 2 1 C-0.83922046 5.69563383 -3.72322356 8.57857885 -8 12 C-8.33 12.66 -8.66 13.32 -9 14 C-12.0625 14.625 -12.0625 14.625 -15 15 C-12.87806464 10.9794909 -10.60619422 8.72663465 -7 6 C-6.29875 5.29875 -5.5975 4.5975 -4.875 3.875 C-3 2 -3 2 0 0 Z " fill="#E0F1F7" transform="translate(206,65)"/>
<path d="M0 0 C0.66 0 1.32 0 2 0 C2.33 2.64 2.66 5.28 3 8 C3.66 8 4.32 8 5 8 C6.0373997 11.24494693 7.05197239 14.49659404 8.0625 17.75 C8.35705078 18.67039063 8.65160156 19.59078125 8.95507812 20.5390625 C9.22900391 21.42851562 9.50292969 22.31796875 9.78515625 23.234375 C10.04176025 24.05131836 10.29836426 24.86826172 10.56274414 25.70996094 C11.03411697 28.17868071 10.79786936 29.6419054 10 32 C0 5.73333333 0 5.73333333 0 0 Z " fill="#3976A7" transform="translate(164,130)"/>
<path d="M0 0 C0.66 0.33 1.32 0.66 2 1 C2 0.34 2 -0.32 2 -1 C18.8929385 -1.3690205 18.8929385 -1.3690205 26 1 C22.3298994 2.15792475 18.87724396 2.11388663 15.046875 2.09765625 C14.38665344 2.0962413 13.72643188 2.09482635 13.04620361 2.09336853 C10.94742206 2.08779245 8.84874905 2.07524447 6.75 2.0625 C5.32291821 2.0574819 3.89583475 2.05291954 2.46875 2.04882812 C-1.02086832 2.03783088 -4.51042356 2.0205828 -8 2 C-6.14886877 -1.70226246 -3.42622337 -1.10523334 0 0 Z " fill="#3173AC" transform="translate(126,58)"/>
<path d="M0 0 C0.33 0.66 0.66 1.32 1 2 C-0.61594832 4.04119788 -2.2856382 6.04072937 -4 8 C-4.66 8 -5.32 8 -6 8 C-6 8.66 -6 9.32 -6 10 C-9 12 -9 12 -12 12 C-12.20625 12.804375 -12.4125 13.60875 -12.625 14.4375 C-13.07875 15.283125 -13.5325 16.12875 -14 17 C-17.125 17.8125 -17.125 17.8125 -20 18 C-18.33333333 16.33333333 -16.66666667 14.66666667 -15 13 C-14.443125 12.401875 -13.88625 11.80375 -13.3125 11.1875 C-12 10 -12 10 -10 10 C-10 9.34 -10 8.68 -10 8 C-6.53846154 5 -6.53846154 5 -4 5 C-3.67 4.01 -3.34 3.02 -3 2 C-2.01 1.34 -1.02 0.68 0 0 Z " fill="#D0E9F6" transform="translate(244,190)"/>
<path d="M0 0 C5.23498004 4.42064981 10.30854361 8.99439112 15.3515625 13.6328125 C17.97507236 16.03649298 17.97507236 16.03649298 20.8359375 18.1796875 C21.55007812 18.78039062 22.26421875 19.38109375 23 20 C23 20.66 23 21.32 23 22 C22.34 22 21.68 22 21 22 C21 21.34 21 20.68 21 20 C20.42765625 19.731875 19.8553125 19.46375 19.265625 19.1875 C16.92115366 17.95867364 14.87595062 16.57477824 12.75 15 C12.04359375 14.484375 11.3371875 13.96875 10.609375 13.4375 C9.81273437 12.7259375 9.81273437 12.7259375 9 12 C9 11.34 9 10.68 9 10 C8.443125 9.79375 7.88625 9.5875 7.3125 9.375 C4.02987629 7.42316968 2.29326754 5.05769006 0 2 C0 1.34 0 0.68 0 0 Z " fill="#3D78A7" transform="translate(127,175)"/>
<path d="M0 0 C1.55420014 3.93794268 0.36285892 6.38207355 -1.1875 10.1875 C-1.6515625 11.33089844 -2.115625 12.47429687 -2.59375 13.65234375 C-3.0578125 14.75707031 -3.521875 15.86179688 -4 17 C-4.3815625 17.92941406 -4.763125 18.85882813 -5.15625 19.81640625 C-7.7165224 25.8582612 -7.7165224 25.8582612 -10 27 C-11.99960012 27.039992 -14.00047242 27.04346799 -16 27 C-15.401875 26.71125 -14.80375 26.4225 -14.1875 26.125 C-9.90924372 23.92475391 -8.54213956 22.50688867 -6.9921875 18.02734375 C-6.64542969 17.04572266 -6.29867187 16.06410156 -5.94140625 15.05273438 C-5.58949219 14.02470703 -5.23757812 12.99667969 -4.875 11.9375 C-4.16631599 9.9041611 -3.45549418 7.8715656 -2.7421875 5.83984375 C-2.4313623 4.93613037 -2.12053711 4.03241699 -1.80029297 3.10131836 C-1 1 -1 1 0 0 Z " fill="#3D76A8" transform="translate(200,156)"/>
<path d="M0 0 C2.30471162 3.45706743 3.32983833 6.93900164 4.5 10.875 C6.15357642 16.4122616 6.15357642 16.4122616 8.1484375 21.83203125 C9.13500786 24.34371267 9.15284656 26.32518513 9 29 C6.00283082 25.49880237 4.41489222 21.57761818 2.8125 17.3125 C2.54421387 16.60222656 2.27592773 15.89195312 1.99951172 15.16015625 C0.11207804 9.90649958 -0.60068271 5.60637196 0 0 Z " fill="#4A81B0" transform="translate(80,117)"/>
<path d="M0 0 C0.66 0 1.32 0 2 0 C4.18489201 4.27432758 6.28362648 8.51102311 8 13 C8.33 13.66 8.66 14.32 9 15 C7.0625 14.3125 7.0625 14.3125 5 13 C4.25 10.375 4.25 10.375 4 8 C2.68 7.67 1.36 7.34 0 7 C-1.485 9.475 -1.485 9.475 -3 12 C-4 10 -4 10 -3.22265625 7.6171875 C-2.83980469 6.71226562 -2.45695313 5.80734375 -2.0625 4.875 C-1.68222656 3.96492187 -1.30195313 3.05484375 -0.91015625 2.1171875 C-0.60980469 1.41851562 -0.30945313 0.71984375 0 0 Z " fill="#CCE9F5" transform="translate(209,140)"/>
<path d="M0 0 C2.63490775 0.986735 3.76773898 1.50017429 4.9765625 4.1015625 C5.19054687 4.93429688 5.40453125 5.76703125 5.625 6.625 C5.86089844 7.511875 6.09679687 8.39875 6.33984375 9.3125 C6.55769531 10.199375 6.77554688 11.08625 7 12 C7.20753906 12.804375 7.41507813 13.60875 7.62890625 14.4375 C8.1013908 16.28778915 8.55303612 18.14338079 9 20 C8.34 20 7.68 20 7 20 C6.67 18.68 6.34 17.36 6 16 C4.35 16.33 2.7 16.66 1 17 C1.33 16.01 1.66 15.02 2 14 C2.29883521 8.82018961 1.5872287 4.86088791 0 0 Z " fill="#407FB3" transform="translate(176,134)"/>
<path d="M0 0 C6.29266927 3.14633463 11.31666398 10.70651649 14.4375 16.8125 C15 19 15 19 14 22 C13.62488281 21.34773438 13.24976563 20.69546875 12.86328125 20.0234375 C8.61752683 12.77250173 4.02169839 6.84964987 -2 1 C-1.34 0.67 -0.68 0.34 0 0 Z " fill="#447CAC" transform="translate(258,66)"/>
<path d="M0 0 C0 0.33 0 0.66 0 1 C-4.08359816 0.86105043 -8.16679956 0.71265062 -12.25 0.5625 C-13.40886719 0.52318359 -14.56773437 0.48386719 -15.76171875 0.44335938 C-16.87675781 0.40146484 -17.99179688 0.35957031 -19.140625 0.31640625 C-20.16704102 0.27974854 -21.19345703 0.24309082 -22.25097656 0.20532227 C-24.63610887 0.02717872 -26.71299499 -0.32777363 -29 -1 C-18.79880635 -4.07960563 -10.00161819 -3.64484134 0 0 Z " fill="#D1ECFA" transform="translate(154,62)"/>
<path d="M0 0 C0.66 0.33 1.32 0.66 2 1 C0.64474464 5.21775732 -0.90200114 9.29421322 -2.625 13.375 C-3.07101563 14.43460938 -3.51703125 15.49421875 -3.9765625 16.5859375 C-4.31429687 17.38257813 -4.65203125 18.17921875 -5 19 C-5.66 19 -6.32 19 -7 19 C-7.66 16.69 -8.32 14.38 -9 12 C-8.01 12 -7.02 12 -6 12 C-3.32964195 8.32825768 -1.7194628 4.17583822 0 0 Z " fill="#DAF2FB" transform="translate(193,138)"/>
<path d="M0 0 C1.32 0.33 2.64 0.66 4 1 C-1.28 6.28 -6.56 11.56 -12 17 C-12.33 16.01 -12.66 15.02 -13 14 C-12.34 14 -11.68 14 -11 14 C-11 13.34 -11 12.68 -11 12 C-10.34 12 -9.68 12 -9 12 C-8.79375 11.278125 -8.5875 10.55625 -8.375 9.8125 C-6.54877291 6.0770355 -4.25713193 4.56412513 -1 2 C-0.67 1.34 -0.34 0.68 0 0 Z " fill="#E1F4FB" transform="translate(248,163)"/>
<path d="M0 0 C3.32366742 3.05099404 5.54224226 6.23449516 7.8125 10.125 C8.43769531 11.17945312 9.06289063 12.23390625 9.70703125 13.3203125 C10.13371094 14.20460938 10.56039063 15.08890625 11 16 C10.67 16.66 10.34 17.32 10 18 C9.34 18 8.68 18 8 18 C8 16.68 8 15.36 8 14 C7.38640625 13.94714844 6.7728125 13.89429687 6.140625 13.83984375 C4 13 4 13 2.734375 10.56640625 C2.24710937 9.07947266 2.24710937 9.07947266 1.75 7.5625 C1.41484375 6.57378906 1.0796875 5.58507812 0.734375 4.56640625 C0 2 0 2 0 0 Z " fill="#4C86B4" transform="translate(274,66)"/>
<path d="M0 0 C0.66 0.99 1.32 1.98 2 3 C1.401875 3.556875 0.80375 4.11375 0.1875 4.6875 C-2.09887454 6.88082005 -2.09887454 6.88082005 -3.3125 9.625 C-5.67187629 12.94560367 -8.11854673 13.19441536 -12 14 C-8 9.33333333 -4 4.66666667 0 0 Z " fill="#4A84B5" transform="translate(257,157)"/>
<path d="M0 0 C0.99 0 1.98 0 3 0 C1.64475824 5.42096702 -0.36634013 10.0778687 -3 15 C-3.99 14.01 -4.98 13.02 -6 12 C-5.34 10.35 -4.68 8.7 -4 7 C-3.34 7 -2.68 7 -2 7 C-2.061875 5.824375 -2.061875 5.824375 -2.125 4.625 C-2 2 -2 2 0 0 Z " fill="#DAF1F9" transform="translate(150,115)"/>
<path d="M0 0 C5.28 0 10.56 0 16 0 C16 0.33 16 0.66 16 1 C10.555 1.495 10.555 1.495 5 2 C5.99 3.485 5.99 3.485 7 5 C7.125 7.6875 7.125 7.6875 7 10 C4.66666667 7.66666667 2.33333333 5.33333333 0 3 C0 2.01 0 1.02 0 0 Z " fill="#ECFDFF" transform="translate(112,156)"/>
<path d="M0 0 C0.66 0.33 1.32 0.66 2 1 C1.66226563 1.65484375 1.32453125 2.3096875 0.9765625 2.984375 C-2.41570373 9.92577527 -4.10424762 16.3393117 -5 24 C-5.33 24 -5.66 24 -6 24 C-7.33257403 14.58997722 -7.33257403 14.58997722 -6 10 C-5.34 10 -4.68 10 -4 10 C-3.79503906 9.36191406 -3.59007813 8.72382812 -3.37890625 8.06640625 C-3.10949219 7.24011719 -2.84007813 6.41382812 -2.5625 5.5625 C-2.16224609 4.32693359 -2.16224609 4.32693359 -1.75390625 3.06640625 C-1 1 -1 1 0 0 Z " fill="#3A73A3" transform="translate(98,80)"/>
<path d="M0 0 C2.8176295 0.35917035 3.85379148 0.84215768 5.81640625 2.9609375 C6.39261719 3.75757812 6.96882812 4.55421875 7.5625 5.375 C9.57168693 8.12252957 11.51959419 10.66283951 14 13 C10.59687262 11.94124926 7.98646769 10.99097846 5 9 C5 8.34 5 7.68 5 7 C4.34 7 3.68 7 3 7 C2.67 5.68 2.34 4.36 2 3 C1.34 3 0.68 3 0 3 C0 2.01 0 1.02 0 0 Z " fill="#D4EDF5" transform="translate(166,69)"/>
<path d="M0 0 C2.3145363 3.47180445 3.44955764 6.99795123 4.6875 10.9375 C4.92533203 11.65357422 5.16316406 12.36964844 5.40820312 13.10742188 C6.58772664 16.83969715 7.18041207 19.26865804 6 23 C6 22.01 6 21.02 6 20 C5.34 20 4.68 20 4 20 C3.67 16.7 3.34 13.4 3 10 C2.01 10.33 1.02 10.66 0 11 C-1.37432457 7.18243176 -0.67975039 3.92744671 0 0 Z " fill="#CDE8F3" transform="translate(172,157)"/>
<path d="M0 0 C1.32 0.33 2.64 0.66 4 1 C-2.15034169 9.44646925 -2.15034169 9.44646925 -6 13 C-6.35281338 8.8029908 -5.64185432 6.93477927 -3 3.6875 C-2.443125 2.99011719 -1.88625 2.29273437 -1.3125 1.57421875 C-0.6628125 0.79498047 -0.6628125 0.79498047 0 0 Z " fill="#DEF3FA" transform="translate(92,64)"/>
<path d="M0 0 C0.99 0.495 0.99 0.495 2 1 C3.32227764 5.34937867 3.11479353 9.81123392 3.0625 14.3125 C3.05798828 15.05306641 3.05347656 15.79363281 3.04882812 16.55664062 C3.03712175 18.37112899 3.01918898 20.18557534 3 22 C1.38364512 19.13026116 0.7266582 16.95535797 0.5859375 13.671875 C0.54726563 12.87265625 0.50859375 12.0734375 0.46875 11.25 C0.4378125 10.425 0.406875 9.6 0.375 8.75 C0.33632813 7.90953125 0.29765625 7.0690625 0.2578125 6.203125 C0.16384164 4.13576618 0.08084436 2.06791373 0 0 Z " fill="#3370A3" transform="translate(286,92)"/>
<path d="M0 0 C2.39591038 -0.02712351 4.79150957 -0.0468982 7.1875 -0.0625 C7.86103516 -0.07087891 8.53457031 -0.07925781 9.22851562 -0.08789062 C12.95434131 -0.10606538 16.3788042 0.10700608 20 1 C20 1.33 20 1.66 20 2 C15.35646957 2.58965466 10.74282331 3.09804145 6.0625 3.25 C4.96615234 3.28867187 4.96615234 3.28867187 3.84765625 3.328125 C3.23792969 3.21984375 2.62820312 3.1115625 2 3 C1.34 2.01 0.68 1.02 0 0 Z " fill="#C8E4F4" transform="translate(222,59)"/>
<path d="M0 0 C0.99 0.33 1.98 0.66 3 1 C3.91397824 6.68697571 3.91397824 11.31302429 3 17 C2.67 15.68 2.34 14.36 2 13 C1.01 13.33 0.02 13.66 -1 14 C-1.33 13.34 -1.66 12.68 -2 12 C-1.34 11.67 -0.68 11.34 0 11 C0 7.37 0 3.74 0 0 Z " fill="#3C7EB5" transform="translate(283,83)"/>
<path d="M0 0 C1.17219543 0.78345715 2.33763668 1.57702836 3.5 2.375 C4.47453125 3.03628906 4.47453125 3.03628906 5.46875 3.7109375 C5.9740625 4.13632813 6.479375 4.56171875 7 5 C7 5.66 7 6.32 7 7 C7.556875 7.226875 8.11375 7.45375 8.6875 7.6875 C11.63246684 9.35896766 13.68156544 11.55276352 16 14 C13.61435923 13.42415568 11.33317216 12.77772405 9 12 C9 11.34 9 10.68 9 10 C8.01 9.67 7.02 9.34 6 9 C5.67 8.01 5.34 7.02 5 6 C4.34 5.690625 3.68 5.38125 3 5.0625 C2.34 4.711875 1.68 4.36125 1 4 C0.375 1.93359375 0.375 1.93359375 0 0 Z " fill="#D0EAF7" transform="translate(121,188)"/>
<path d="M0 0 C1.22419163 3.93795909 0.48320272 6.16112237 -1 10 C-1.66 10 -2.32 10 -3 10 C-3.12375 10.804375 -3.2475 11.60875 -3.375 12.4375 C-3.58125 13.283125 -3.7875 14.12875 -4 15 C-4.99 15.495 -4.99 15.495 -6 16 C-5.52412884 9.97229862 -2.80277043 5.23321711 0 0 Z " fill="#D2EDF8" transform="translate(100,80)"/>
<path d="M0 0 C-3.75 3 -3.75 3 -6 3 C-6 3.66 -6 4.32 -6 5 C-9.96 6.98 -9.96 6.98 -14 9 C-12.8 4.2 -12.8 4.2 -10 2 C-6.53361143 0.26680571 -3.86029048 -0.22058803 0 0 Z " fill="#DFF5FB" transform="translate(206,50)"/>
<path d="M0 0 C0.66 0.33 1.32 0.66 2 1 C0.4422692 4.82352106 -1.91595258 7.29205593 -5 10 C-5.99 10 -6.98 10 -8 10 C-8 9.67 -8 9.34 -8 9 C-8.66 8.67 -9.32 8.34 -10 8 C-8.71283353 6.99421411 -7.42011342 5.99553202 -6.125 5 C-5.40570313 4.443125 -4.68640625 3.88625 -3.9453125 3.3125 C-2 2 -2 2 0 2 C0 1.34 0 0.68 0 0 Z " fill="#CDE8F4" transform="translate(218,211)"/>
<path d="M0 0 C0.66 0.33 1.32 0.66 2 1 C-1.63 4.63 -5.26 8.26 -9 12 C-9.66 11.67 -10.32 11.34 -11 11 C-8.0530627 5.80777714 -5.36704345 2.75232998 0 0 Z " fill="#E1F5FB" transform="translate(255,181)"/>
<path d="M0 0 C0.763125 0.103125 1.52625 0.20625 2.3125 0.3125 C2.6425 2.2925 2.9725 4.2725 3.3125 6.3125 C2.3225 6.9725 1.3325 7.6325 0.3125 8.3125 C-0.0175 7.3225 -0.3475 6.3325 -0.6875 5.3125 C-1.6775 5.8075 -1.6775 5.8075 -2.6875 6.3125 C-2.6875 7.9625 -2.6875 9.6125 -2.6875 11.3125 C-4.6875 10.3125 -4.6875 10.3125 -5.5 8.0625 C-5.79759314 3.6978006 -4.60801248 0.5358154 0 0 Z " fill="#3784C8" transform="translate(89.6875,122.6875)"/>
<path d="M0 0 C1.125 3.75 1.125 3.75 0 6 C0.66 6 1.32 6 2 6 C1.67 7.65 1.34 9.3 1 11 C0.67 11 0.34 11 0 11 C-0.33 16.28 -0.66 21.56 -1 27 C-1.33 27 -1.66 27 -2 27 C-2.3690205 7.99544419 -2.3690205 7.99544419 0 0 Z " fill="#578AB1" transform="translate(81,90)"/>
<path d="M0 0 C1.17175781 0.14888672 1.17175781 0.14888672 2.3671875 0.30078125 C4.78647324 0.6580779 7.17679665 1.08629279 9.5625 1.625 C9.5625 1.955 9.5625 2.285 9.5625 2.625 C3.2925 2.625 -2.9775 2.625 -9.4375 2.625 C-8.4375 0.625 -8.4375 0.625 -6.65234375 -0.0234375 C-4.2828308 -0.39955067 -2.37575847 -0.30468999 0 0 Z " fill="#DEF5FD" transform="translate(228.4375,43.375)"/>
<path d="M0 0 C0.33 0.66 0.66 1.32 1 2 C-0.66666667 3.66666667 -2.33333333 5.33333333 -4 7 C-4.680625 7.78375 -5.36125 8.5675 -6.0625 9.375 C-6.701875 9.91125 -7.34125 10.4475 -8 11 C-10.12109375 10.6015625 -10.12109375 10.6015625 -12 10 C-10.75160501 8.894019 -9.50120766 7.79029799 -8.25 6.6875 C-7.55390625 6.07261719 -6.8578125 5.45773438 -6.140625 4.82421875 C-4.14885494 3.12685266 -2.11101085 1.54522191 0 0 Z " fill="#4E84B1" transform="translate(222,191)"/>
<path d="M0 0 C2.77529116 3.27087887 4.93814659 6.55397384 6.98046875 10.296875 C8.09466283 12.26061453 8.09466283 12.26061453 10.3125 14.75 C10.869375 15.4925 11.42625 16.235 12 17 C11.67 17.99 11.34 18.98 11 20 C0 6.12714777 0 6.12714777 0 0 Z " fill="#3973A0" transform="translate(89,144)"/>
<path d="M0 0 C-2.04791862 2.04791862 -3.14820414 2.56265691 -5.8125 3.5 C-6.87404297 3.88091797 -6.87404297 3.88091797 -7.95703125 4.26953125 C-8.63121094 4.51058594 -9.30539063 4.75164063 -10 5 C-11.66905395 5.66066719 -13.3369416 6.32438252 -15 7 C-14.6875 5.125 -14.6875 5.125 -14 3 C-9.25294723 -0.16470185 -5.68228705 -0.10927475 0 0 Z " fill="#D3ECF7" transform="translate(122,48)"/>
<path d="M0 0 C0.33 0 0.66 0 1 0 C1.34548714 6.33393082 0.29342747 11.10261508 -2 17 C-2.33 17 -2.66 17 -3 17 C-3 12.71 -3 8.42 -3 4 C-2.34 4.66 -1.68 5.32 -1 6 C-0.67 4.02 -0.34 2.04 0 0 Z " fill="#3171A8" transform="translate(287,116)"/>
<path d="M0 0 C3.9252025 3.70090521 6.94580156 7.54959656 10 12 C8.68 12.33 7.36 12.66 6 13 C5.731875 12.21625 5.46375 11.4325 5.1875 10.625 C4.15185568 7.71885077 4.15185568 7.71885077 1 6 C0.3125 2.875 0.3125 2.875 0 0 Z " fill="#CAE4F1" transform="translate(98,162)"/>
<path d="M0 0 C0.66 0.33 1.32 0.66 2 1 C4.87910588 1.23274209 7.74146495 1.41972757 10.625 1.5625 C11.42679688 1.60568359 12.22859375 1.64886719 13.0546875 1.69335938 C15.0362511 1.79951457 17.01810271 1.90026855 19 2 C19 2.33 19 2.66 19 3 C17.04707031 3.09087891 17.04707031 3.09087891 15.0546875 3.18359375 C13.32811601 3.26804562 11.601554 3.35269126 9.875 3.4375 C9.0190625 3.47681641 8.163125 3.51613281 7.28125 3.55664062 C2.78278208 3.78156402 -1.56806207 4.13540883 -6 5 C-2.25 1.125 -2.25 1.125 0 0 Z " fill="#DAF1FC" transform="translate(128,43)"/>
<path d="M0 0 C4.45549507 1.36140127 6.25434405 3.30756614 9 7 C9.66 7.33 10.32 7.66 11 8 C11 8.66 11 9.32 11 10 C7.6989701 9.40114059 5.78574977 8.30314403 3.25 6.125 C2.63640625 5.61195313 2.0228125 5.09890625 1.390625 4.5703125 C0 3 0 3 0 0 Z " fill="#437FAC" transform="translate(133,196)"/>
<path d="M0 0 C0.33 0.66 0.66 1.32 1 2 C-1.14712285 6.96522159 -4.6252119 9.11098899 -9 12 C-9.66 11.67 -10.32 11.34 -11 11 C-9.37660195 9.29115995 -7.70680947 7.62553283 -6 6 C-5.34 6 -4.68 6 -4 6 C-3.71125 5.38125 -3.4225 4.7625 -3.125 4.125 C-2 2 -2 2 0 0 Z " fill="#CEEAF6" transform="translate(262,172)"/>
<path d="M0 0 C0.66 0.99 1.32 1.98 2 3 C1.01 3.33 0.02 3.66 -1 4 C-1.6837045 5.32467746 -2.34964186 6.65863633 -3 8 C-3.99 8.66 -4.98 9.32 -6 10 C-6.99 9.67 -7.98 9.34 -9 9 C-6.03 6.03 -3.06 3.06 0 0 Z " fill="#4F87B6" transform="translate(244,171)"/>
<path d="M0 0 C2.49936244 2.49936244 3.03723753 4.64808008 4.125 8 C4.47820312 9.0725 4.83140625 10.145 5.1953125 11.25 C6 14 6 14 6 16 C5.34 16 4.68 16 4 16 C4 15.01 4 14.02 4 13 C3.34 13 2.68 13 2 13 C0.54815522 8.46298506 -0.23509196 4.81938524 0 0 Z " fill="#C9E7F5" transform="translate(166,140)"/>
<path d="M0 0 C-0.66 0 -1.32 0 -2 0 C-2 0.66 -2 1.32 -2 2 C-7.47619048 7 -7.47619048 7 -10 7 C-10 7.66 -10 8.32 -10 9 C-10.66 9 -11.32 9 -12 9 C-12 8.01 -12 7.02 -12 6 C-11.01 6 -10.02 6 -9 6 C-8.7525 5.21625 -8.505 4.4325 -8.25 3.625 C-7 1 -7 1 -5.0625 -0.375 C-3 -1 -3 -1 0 0 Z " fill="#DAF1FA" transform="translate(234,182)"/>
<path d="M0 0 C3.29730597 4.12163246 6.79339998 8.5724498 7.25 13.9375 C7.1675 14.618125 7.085 15.29875 7 16 C3.65122404 13.7674827 3.22158318 12.76378186 1.8125 9.125 C1.46832031 8.26132813 1.12414062 7.39765625 0.76953125 6.5078125 C0 4 0 4 0 0 Z " fill="#427FB0" transform="translate(211,138)"/>
<path d="M0 0 C1.49765696 4.86738514 1.58630841 8.68080608 -0.5 13.375 C-0.995 14.24125 -1.49 15.1075 -2 16 C-2.99 16 -3.98 16 -5 16 C-4.80664062 15.43152344 -4.61328125 14.86304688 -4.4140625 14.27734375 C-2.81863577 9.54635062 -1.33099414 4.81205575 0 0 Z " fill="#6094BA" transform="translate(274,122)"/>
<path d="M0 0 C4.80444022 1.45589098 8.67962729 4.26904357 12 8 C12.703125 10.1953125 12.703125 10.1953125 13 12 C9.41823572 10.67342064 7.57740325 8.48593042 5.23828125 5.53125 C3.62988354 3.54231655 1.84086449 1.77268432 0 0 Z " fill="#3F79A8" transform="translate(170,56)"/>
<path d="M0 0 C0.99 0.33 1.98 0.66 3 1 C2.09373216 2.2989839 1.17450463 3.58893167 0.25 4.875 C-0.51570313 5.95394531 -0.51570313 5.95394531 -1.296875 7.0546875 C-3.07503547 9.08570565 -4.52701607 9.97855012 -7 11 C-7 9.68 -7 8.36 -7 7 C-5.05874656 5.26526288 -3.05727132 3.5954349 -1 2 C-0.67 1.34 -0.34 0.68 0 0 Z " fill="#487FAE" transform="translate(261,169)"/>
<path d="M0 0 C11.52164009 -0.3690205 11.52164009 -0.3690205 17 2 C17 2.33 17 2.66 17 3 C10.93107371 3.25287193 5.83799592 2.69832609 0 1 C0 0.67 0 0.34 0 0 Z " fill="#DFF3FA" transform="translate(233,61)"/>
<path d="M0 0 C3.25 -0.3125 3.25 -0.3125 7 0 C9.5 2.3125 9.5 2.3125 11 5 C10.67 5.99 10.34 6.98 10 8 C9.484375 7.195625 8.96875 6.39125 8.4375 5.5625 C5.36794243 2.33552922 3.35131541 2.25103743 -1 2 C-0.67 1.34 -0.34 0.68 0 0 Z " fill="#4A7EAC" transform="translate(206,117)"/>
<path d="M0 0 C1.67180274 0.94934513 3.33733936 1.90973313 5 2.875 C5.928125 3.40867188 6.85625 3.94234375 7.8125 4.4921875 C8.8953125 5.23855469 8.8953125 5.23855469 10 6 C10 6.66 10 7.32 10 8 C10.99 8.33 11.98 8.66 13 9 C10 10 10 10 7.3125 8.6875 C6.549375 8.130625 5.78625 7.57375 5 7 C5 6.34 5 5.68 5 5 C4.360625 4.731875 3.72125 4.46375 3.0625 4.1875 C1 3 1 3 0 0 Z " fill="#4C81AC" transform="translate(166,208)"/>
<path d="M0 0 C3.3 0 6.6 0 10 0 C10.33 1.32 10.66 2.64 11 4 C10.1646875 3.505 10.1646875 3.505 9.3125 3 C6.69715478 1.8690399 4.8193354 1.84337026 2 2 C1.67 2.66 1.34 3.32 1 4 C0.34 4 -0.32 4 -1 4 C-1.33 4.99 -1.66 5.98 -2 7 C-2.33 5.68 -2.66 4.36 -3 3 C-2.01 3 -1.02 3 0 3 C0 2.01 0 1.02 0 0 Z " fill="#C6E2F4" transform="translate(158,102)"/>
<path d="M0 0 C0 0.33 0 0.66 0 1 C-1.093125 1.268125 -2.18625 1.53625 -3.3125 1.8125 C-6.61692663 2.87663739 -7.94960422 3.34654664 -10 6 C-9.67 3.69 -9.34 1.38 -9 -1 C-5.23375329 -2.25541557 -3.62811066 -1.37061958 0 0 Z " fill="#DDF1F8" transform="translate(212,116)"/>
<path d="M0 0 C0.66 0.33 1.32 0.66 2 1 C0.66667905 4.99996286 -1.4957827 5.83782337 -5 8 C-5.99 7.34 -6.98 6.68 -8 6 C-5.36 4.02 -2.72 2.04 0 0 Z " fill="#D4ECF7" transform="translate(196,228)"/>
<path d="M0 0 C0.66 0 1.32 0 2 0 C2.33 0.99 2.66 1.98 3 3 C3.66 3.33 4.32 3.66 5 4 C5 4.99 5 5.98 5 7 C6.65 7 8.3 7 10 7 C10 7.33 10 7.66 10 8 C6.6875 8.25 6.6875 8.25 3 8 C1.0625 6.25 1.0625 6.25 0 4 C0 2.68 0 1.36 0 0 Z " fill="#6495BA" transform="translate(179,176)"/>
<path d="M0 0 C0.66 0 1.32 0 2 0 C1.45660208 4.56454251 0.20536179 7.9728176 -2 12 C-2.33 12 -2.66 12 -3 12 C-2.49202991 7.6822542 -1.80317221 3.96697886 0 0 Z " fill="#4B82B3" transform="translate(204,146)"/>
<path d="M0 0 C-0.66 1.32 -1.32 2.64 -2 4 C-2.66 4 -3.32 4 -4 4 C-4.268125 4.598125 -4.53625 5.19625 -4.8125 5.8125 C-5.98493467 7.97224808 -7.19369282 9.35790256 -9 11 C-9.66 10.67 -10.32 10.34 -11 10 C-10.06409496 8.8944811 -9.12620142 7.79064547 -8.1875 6.6875 C-7.66542969 6.07261719 -7.14335937 5.45773438 -6.60546875 4.82421875 C-2.35974304 0 -2.35974304 0 0 0 Z " fill="#C7E6F4" transform="translate(202,69)"/>
<path d="M0 0 C1.32 0.33 2.64 0.66 4 1 C2.5433323 2.14795006 1.08461063 3.29329419 -0.375 4.4375 C-1.18710938 5.07558594 -1.99921875 5.71367188 -2.8359375 6.37109375 C-5 8 -5 8 -7 9 C-6.67 7.35 -6.34 5.7 -6 4 C-4.35 3.67 -2.7 3.34 -1 3 C-0.67 2.01 -0.34 1.02 0 0 Z " fill="#D6F0F9" transform="translate(103,55)"/>
<path d="M0 0 C3.13269705 3.13269705 3.05494397 5.97328423 3.0625 10.25 C3.041875 11.4875 3.02125 12.725 3 14 C2.67 14 2.34 14 2 14 C1.87625 13.21625 1.7525 12.4325 1.625 11.625 C1.20882007 8.85942178 1.20882007 8.85942178 -1 7 C-0.625 3.375 -0.625 3.375 0 0 Z " fill="#D9EFF9" transform="translate(273,94)"/>
<path d="M0 0 C0.68359375 1.703125 0.68359375 1.703125 1 4 C-0.21484375 6.359375 -0.21484375 6.359375 -1.9375 8.75 C-2.50339844 9.54921875 -3.06929688 10.3484375 -3.65234375 11.171875 C-4.09707031 11.77515625 -4.54179687 12.3784375 -5 13 C-5.33 12.34 -5.66 11.68 -6 11 C-4.78515625 8.3984375 -4.78515625 8.3984375 -3.0625 5.375 C-2.21365234 3.87066406 -2.21365234 3.87066406 -1.34765625 2.3359375 C-0.90292969 1.56507813 -0.45820313 0.79421875 0 0 Z " fill="#3F79AB" transform="translate(277,146)"/>
<path d="M0 0 C1.9451 2.91765 2.45276317 4.62537285 3 8 C1.35 7.67 -0.3 7.34 -2 7 C-1.125 1.125 -1.125 1.125 0 0 Z " fill="#3F7CB1" transform="translate(94,125)"/>
<path d="M0 0 C1.9375 0.625 1.9375 0.625 4 2 C4.875 5 4.875 5 5 8 C4.34 8.66 3.68 9.32 3 10 C0 3.375 0 3.375 0 0 Z " fill="#E0F4FB" transform="translate(96,128)"/>
<path d="M0 0 C3.95602172 4.85511756 5.29212746 8.71925967 5 15 C3.25050228 12.37575342 2.34610019 10.44272784 1.375 7.5 C0.98441406 6.33984375 0.98441406 6.33984375 0.5859375 5.15625 C0 3 0 3 0 0 Z " fill="#3C75A2" transform="translate(168,108)"/>
<path d="M0 0 C5.35152885 0.32433508 8.28280043 3.49704824 12 7 C10.140625 7.61328125 10.140625 7.61328125 8 8 C5.75 6.1875 5.75 6.1875 4 4 C4 3.34 4 2.68 4 2 C2.68 1.34 1.36 0.68 0 0 Z " fill="#3F78A8" transform="translate(166,68)"/>
<path d="M0 0 C0.721875 0.185625 1.44375 0.37125 2.1875 0.5625 C5.12826973 1.01995307 7.14103058 0.73516357 10 0 C9.67 0.99 9.34 1.98 9 3 C6.69 3.33 4.38 3.66 2 4 C1.34 2.68 0.68 1.36 0 0 Z " fill="#407AAA" transform="translate(179,232)"/>
<path d="M0 0 C1.32 0.66 2.64 1.32 4 2 C-1.75 6 -1.75 6 -4 6 C-4 6.66 -4 7.32 -4 8 C-4.66 7.67 -5.32 7.34 -6 7 C-4.77065985 3.31197956 -3.06140622 2.27643027 0 0 Z " fill="#D5ECF5" transform="translate(196,208)"/>
<path d="M0 0 C1.32 0.33 2.64 0.66 4 1 C0.7 3.31 -2.6 5.62 -6 8 C-6.66 7.67 -7.32 7.34 -8 7 C-6.1875 5 -6.1875 5 -4 3 C-3.01 3 -2.02 3 -1 3 C-0.67 2.01 -0.34 1.02 0 0 Z " fill="#427AAA" transform="translate(224,204)"/>
<path d="M0 0 C6.52307692 1.47692308 6.52307692 1.47692308 8.9375 4.125 C9.288125 4.74375 9.63875 5.3625 10 6 C9.67 6.66 9.34 7.32 9 8 C7.49712782 6.85793642 5.99776716 5.71125043 4.5 4.5625 C3.6646875 3.92441406 2.829375 3.28632813 1.96875 2.62890625 C1.3190625 2.09136719 0.669375 1.55382812 0 1 C0 0.67 0 0.34 0 0 Z " fill="#D1EBF5" transform="translate(144,190)"/>
<path d="M0 0 C0.33 0.99 0.66 1.98 1 3 C-0.40445835 5.2636564 -2.1967913 7.0208685 -4 9 C-4.33 7.68 -4.66 6.36 -5 5 C-4.34 5 -3.68 5 -3 5 C-3 3.68 -3 2.36 -3 1 C-2.01 0.67 -1.02 0.34 0 0 Z " fill="#427DAC" transform="translate(269,160)"/>
<path d="M0 0 C2 1 2 1 2.8515625 2.9609375 C3.10679687 3.75757813 3.36203125 4.55421875 3.625 5.375 C3.88539063 6.16648438 4.14578125 6.95796875 4.4140625 7.7734375 C5 10 5 10 5 13 C4.34 13 3.68 13 3 13 C2.49487756 11.39743892 1.99608373 9.79288208 1.5 8.1875 C1.2215625 7.29417969 0.943125 6.40085938 0.65625 5.48046875 C0 3 0 3 0 0 Z " fill="#4780AB" transform="translate(175,163)"/>
<path d="M0 0 C1.62580966 0.11398665 3.25067157 0.24155659 4.875 0.375 C5.77992188 0.44460937 6.68484375 0.51421875 7.6171875 0.5859375 C10 1 10 1 12 3 C9.36 3.33 6.72 3.66 4 4 C4 3.34 4 2.68 4 2 C2.68 1.34 1.36 0.68 0 0 Z " fill="#3274AB" transform="translate(148,48)"/>
<path d="M0 0 C2.64 0 5.28 0 8 0 C8 0.66 8 1.32 8 2 C9.32 1.67 10.64 1.34 12 1 C12.33 2.32 12.66 3.64 13 5 C11.58208592 4.54554036 10.16571954 4.08625056 8.75 3.625 C7.96109375 3.36976562 7.1721875 3.11453125 6.359375 2.8515625 C4.13372042 2.04826333 2.09068328 1.10288338 0 0 Z " fill="#C3E1F2" transform="translate(154,48)"/>
<path d="M0 0 C7.57142857 4.14285714 7.57142857 4.14285714 10 7 C8.35 7 6.7 7 5 7 C4.67 6.01 4.34 5.02 4 4 C3.01 4 2.02 4 1 4 C0.67 2.68 0.34 1.36 0 0 Z " fill="#DEF2FB" transform="translate(171,229)"/>
<path d="M0 0 C-0.33 0.99 -0.66 1.98 -1 3 C-1.66 3 -2.32 3 -3 3 C-4.63676257 4.9600281 -4.63676257 4.9600281 -6 7 C-7.32 6.67 -8.64 6.34 -10 6 C-8.71283353 4.99421411 -7.42011342 3.99553202 -6.125 3 C-5.40570313 2.443125 -4.68640625 1.88625 -3.9453125 1.3125 C-2 0 -2 0 0 0 Z " fill="#D0E9F6" transform="translate(208,221)"/>
<path d="M0 0 C1.12894876 0.93274109 2.25300876 1.87140122 3.375 2.8125 C4.00148437 3.33457031 4.62796875 3.85664063 5.2734375 4.39453125 C7 6 7 6 9 9 C6.66471585 8.82701599 5.30822418 8.29774631 3.62109375 6.66796875 C0 2.42788462 0 2.42788462 0 0 Z " fill="#477EA9" transform="translate(127,175)"/>
<path d="M0 0 C0.33 0 0.66 0 1 0 C1.4375 2.125 1.4375 2.125 1 5 C-1.12689146 7.276147 -3.5023433 9.1458722 -6 11 C-6.66 10.67 -7.32 10.34 -8 10 C-7.50628906 9.44570312 -7.01257813 8.89140625 -6.50390625 8.3203125 C-5.86324219 7.59585938 -5.22257812 6.87140625 -4.5625 6.125 C-3.92441406 5.40570313 -3.28632813 4.68640625 -2.62890625 3.9453125 C-0.94985535 2.09249509 -0.94985535 2.09249509 0 0 Z " fill="#CEE9F5" transform="translate(271,160)"/>
<path d="M0 0 C2.78633115 4.17949673 4 6.93375326 4 12 C3.01 12 2.02 12 1 12 C0.67 8.04 0.34 4.08 0 0 Z " fill="#C1DDEF" transform="translate(82,130)"/>
<path d="M0 0 C-0.75 6.75 -0.75 6.75 -3 9 C-3.66 7.35 -4.32 5.7 -5 4 C-1.125 0 -1.125 0 0 0 Z " fill="#E4F6FB" transform="translate(149,121)"/>
<path d="M0 0 C3.63 0.33 7.26 0.66 11 1 C11 1.66 11 2.32 11 3 C11.99 3.33 12.98 3.66 14 4 C12 5 12 5 9.1796875 4.22265625 C8.08914062 3.83980469 6.99859375 3.45695312 5.875 3.0625 C4.77929688 2.68222656 3.68359375 2.30195312 2.5546875 1.91015625 C1.71164063 1.60980469 0.86859375 1.30945312 0 1 C0 0.67 0 0.34 0 0 Z " fill="#AED2EA" transform="translate(242,47)"/>
<path d="M0 0 C4.79280002 0.80904103 6.13520113 3.25984591 9 7 C6 7 6 7 4.39453125 5.46875 C3.87246094 4.8190625 3.35039063 4.169375 2.8125 3.5 C2.28269531 2.8503125 1.75289063 2.200625 1.20703125 1.53125 C0.80871094 1.0259375 0.41039063 0.520625 0 0 Z " fill="#447FAD" transform="translate(112,178)"/>
<path d="M0 0 C5.875 1.875 5.875 1.875 7 3 C7.04063832 4.66617115 7.042721 6.33388095 7 8 C4.35247996 5.42215154 2.05567935 3.08351902 0 0 Z " fill="#D4EEF7" transform="translate(112,158)"/>
<path d="M0 0 C3.05882701 1.52941351 3.68951234 3.94219546 5 7 C4.67 7.66 4.34 8.32 4 9 C1 8 1 8 -0.25 6.1875 C-1.11637742 3.66056586 -0.88492145 2.47778006 0 0 Z " fill="#C9E3EF" transform="translate(90,149)"/>
<path d="M0 0 C0.66 0.66 1.32 1.32 2 2 C1.625 4.625 1.625 4.625 1 7 C-0.32 7.33 -1.64 7.66 -3 8 C-2.01 5.36 -1.02 2.72 0 0 Z " fill="#CFE8F4" transform="translate(154,146)"/>
<path d="M0 0 C-1.44077046 3.36179774 -3.24750021 5.59156268 -6 8 C-6.66 8 -7.32 8 -8 8 C-8 7.34 -8 6.68 -8 6 C-7 5 -6 4 -5 3 C-5 2.34 -5 1.68 -5 1 C-2 0 -2 0 0 0 Z " fill="#3373A7" transform="translate(198,70)"/>
<path d="M0 0 C0.66 0 1.32 0 2 0 C2 0.99 2 1.98 2 3 C3.65 3.33 5.3 3.66 7 4 C6.67 5.32 6.34 6.64 6 8 C3.69 6.35 1.38 4.7 -1 3 C-0.67 2.01 -0.34 1.02 0 0 Z " fill="#DDF2F8" transform="translate(169,51)"/>
<path d="M0 0 C-2.42130331 2.42130331 -3.80111377 2.52840504 -7.125 3.125 C-8.49011719 3.37636719 -8.49011719 3.37636719 -9.8828125 3.6328125 C-10.58148438 3.75398438 -11.28015625 3.87515625 -12 4 C-12 3.34 -12 2.68 -12 2 C-7.8803623 0.70756464 -4.33168317 -0.26252625 0 0 Z " fill="#D9F1FC" transform="translate(218,46)"/>
<path d="M0 0 C3 1 3 1 4 3 C4.04022391 5.3329866 4.04320247 7.66706666 4 10 C3.34 9.67 2.68 9.34 2 9 C1.3671875 6.93359375 1.3671875 6.93359375 0.875 4.4375 C0.70742187 3.61121094 0.53984375 2.78492187 0.3671875 1.93359375 C0.24601563 1.29550781 0.12484375 0.65742187 0 0 Z " fill="#B7D7EB" transform="translate(175,125)"/>
<path d="M0 0 C0.99 0 1.98 0 3 0 C3.66 3.63 4.32 7.26 5 11 C3 10 3 10 2.1484375 7.71484375 C1.89320313 6.79832031 1.63796875 5.88179688 1.375 4.9375 C1.11460937 4.01839844 0.85421875 3.09929687 0.5859375 2.15234375 C0.39257812 1.44207031 0.19921875 0.73179688 0 0 Z " fill="#DDF5FC" transform="translate(172,115)"/>
<path d="M0 0 C7.625 0.875 7.625 0.875 11 2 C10.34 2.66 9.68 3.32 9 4 C5.5 3.8125 5.5 3.8125 2 3 C1.34 2.01 0.68 1.02 0 0 Z " fill="#3E76A3" transform="translate(178,79)"/>
<path d="M0 0 C3.375 0.6875 3.375 0.6875 7 2 C8.4375 4.625 8.4375 4.625 9 7 C5.18315774 5.44499019 2.80804268 2.96404505 0 0 Z " fill="#C3E1F2" transform="translate(154,198)"/>
<path d="M0 0 C2.64752004 2.57784846 4.94432065 4.91648098 7 8 C5.35 7.67 3.7 7.34 2 7 C1.34 4.69 0.68 2.38 0 0 Z " fill="#CFE6F4" transform="translate(110,176)"/>
<path d="M0 0 C1.9375 0.5625 1.9375 0.5625 4 2 C4.75 5.625 4.75 5.625 5 9 C1.13892543 6.42595029 1.05680308 4.38979741 0 0 Z " fill="#508BB8" transform="translate(176,134)"/>
<path d="M0 0 C0.33 0 0.66 0 1 0 C1 3.3 1 6.6 1 10 C0.01 10.33 -0.98 10.66 -2 11 C-1 3.57142857 -1 3.57142857 0 0 Z " fill="#BEDCEE" transform="translate(287,124)"/>
<path d="M0 0 C0.66 0.33 1.32 0.66 2 1 C1.67 5.29 1.34 9.58 1 14 C0.67 14 0.34 14 0 14 C-1.33257403 4.58997722 -1.33257403 4.58997722 0 0 Z " fill="#437EAD" transform="translate(92,90)"/>
<path d="M0 0 C1.37562854 1.28965176 2.70766393 2.62689293 4 4 C4 4.66 4 5.32 4 6 C3.01 6.33 2.02 6.66 1 7 C-1 4 -1 4 -0.625 1.8125 C-0.41875 1.214375 -0.2125 0.61625 0 0 Z " fill="#D5ECF5" transform="translate(267,80)"/>
<path d="M0 0 C-2.64 1.65 -5.28 3.3 -8 5 C-8 4.01 -8 3.02 -8 2 C-4.90310319 -1.09689681 -4.48560889 -1.12140222 0 0 Z " fill="#3E75A6" transform="translate(112,55)"/>
<path d="M0 0 C0.99 0.33 1.98 0.66 3 1 C-2.75 6 -2.75 6 -5 6 C-3.63016497 2.83884224 -3.0109362 2.0072908 0 0 Z " fill="#D8F0FA" transform="translate(219,191)"/>
<path d="M0 0 C0.144375 0.61875 0.28875 1.2375 0.4375 1.875 C0.93152225 4.03258322 0.93152225 4.03258322 2 6 C0.68 6.33 -0.64 6.66 -2 7 C-2 7.99 -2 8.98 -2 10 C-2.66 10 -3.32 10 -4 10 C-2.66666667 6.66666667 -1.33333333 3.33333333 0 0 Z " fill="#C8E2F3" transform="translate(204,152)"/>
<path d="M0 0 C2 4 2 4 1.125 6.75 C0.75375 7.4925 0.3825 8.235 0 9 C-0.66 9 -1.32 9 -2 9 C-1.34 6.03 -0.68 3.06 0 0 Z " fill="#5189BB" transform="translate(145,132)"/>
<path d="M0 0 C0.66 0 1.32 0 2 0 C1.01 2.97 0.02 5.94 -1 9 C-1.66 7.68 -2.32 6.36 -3 5 C-1.75 2.25 -1.75 2.25 0 0 Z " fill="#E2F7FC" transform="translate(270,130)"/>
<path d="M0 0 C0.66 0.33 1.32 0.66 2 1 C1.01 4.3 0.02 7.6 -1 11 C-1.33 11 -1.66 11 -2 11 C-1.85892253 9.54119891 -1.71197585 8.08296449 -1.5625 6.625 C-1.48128906 5.81289062 -1.40007812 5.00078125 -1.31640625 4.1640625 C-1 2 -1 2 0 0 Z " fill="#D6EFF8" transform="translate(200,121)"/>
<path d="M0 0 C0.99 0.33 1.98 0.66 3 1 C3.98248524 5.0527516 4.08159574 8.83861737 4 13 C3.67 13 3.34 13 3 13 C2.01 8.71 1.02 4.42 0 0 Z " fill="#D0EDF9" transform="translate(284,80)"/>
<path d="M0 0 C0.33 1.32 0.66 2.64 1 4 C-1.90600261 5.25664978 -3.79604584 6 -7 6 C-5.625 4.5 -5.625 4.5 -4 3 C-3.34 3 -2.68 3 -2 3 C-2 2.34 -2 1.68 -2 1 C-1.34 0.67 -0.68 0.34 0 0 Z " fill="#568AB4" transform="translate(234,181)"/>
<path d="M0 0 C0.6875 1.625 0.6875 1.625 1 4 C-0.4375 7.25 -0.4375 7.25 -2 10 C-2.99 9.67 -3.98 9.34 -5 9 C-4.360625 8.071875 -3.72125 7.14375 -3.0625 6.1875 C-0.91377907 3.15780057 -0.91377907 3.15780057 0 0 Z " fill="#3770A2" transform="translate(153,144)"/>
<path d="M0 0 C0.66 0 1.32 0 2 0 C1.34 2.97 0.68 5.94 0 9 C-0.66 9 -1.32 9 -2 9 C-1.125 1.125 -1.125 1.125 0 0 Z " fill="#DAF3FB" transform="translate(144,130)"/>
<path d="M0 0 C0.99 0 1.98 0 3 0 C4.125 6.625 4.125 6.625 3 10 C2.67 8.02 2.34 6.04 2 4 C1.34 4 0.68 4 0 4 C0 2.68 0 1.36 0 0 Z " fill="#80AECE" transform="translate(271,86)"/>
<path d="M0 0 C-2.97 1.65 -5.94 3.3 -9 5 C-6.64389875 0.2877975 -5.23968794 -1.74656265 0 0 Z " fill="#3C79A9" transform="translate(208,65)"/>
<path d="M0 0 C0.66 0.33 1.32 0.66 2 1 C0.37633534 4.24732932 -2.75387839 4.70155136 -6 6 C-6 5.01 -6 4.02 -6 3 C-4.03533587 1.93224776 -2.03144641 0.93446535 0 0 Z " fill="#4077A6" transform="translate(200,54)"/>
<path d="M0 0 C1.65 0 3.3 0 5 0 C5.33 1.65 5.66 3.3 6 5 C1.125 2.25 1.125 2.25 0 0 Z " fill="#CCE8F5" transform="translate(136,183)"/>
<path d="M0 0 C0.66 0 1.32 0 2 0 C1.67 1.98 1.34 3.96 1 6 C0.34 6 -0.32 6 -1 6 C-1.625 4.125 -1.625 4.125 -2 2 C-1.34 1.34 -0.68 0.68 0 0 Z " fill="#377AAF" transform="translate(206,140)"/>
<path d="M0 0 C0.66 0.33 1.32 0.66 2 1 C1.01 1.66 0.02 2.32 -1 3 C-0.67 2.01 -0.34 1.02 0 0 Z M-4 3 C-3.01 3.33 -2.02 3.66 -1 4 C-1.99 5.485 -1.99 5.485 -3 7 C-3.99 7 -4.98 7 -6 7 C-5.34 5.68 -4.68 4.36 -4 3 Z " fill="#D8F0F9" transform="translate(107,73)"/>
<path d="M0 0 C2.76276177 0.52268466 5.3260876 1.10869587 8 2 C8 2.66 8 3.32 8 4 C5.125 3.6875 5.125 3.6875 2 3 C1.34 2.01 0.68 1.02 0 0 Z " fill="#3F77A6" transform="translate(160,51)"/>
<path d="M0 0 C-0.99 0 -1.98 0 -3 0 C-3 0.66 -3 1.32 -3 2 C-2.34 2.33 -1.68 2.66 -1 3 C-3.31 3.33 -5.62 3.66 -8 4 C-7.01 3.34 -6.02 2.68 -5 2 C-5.33 1.34 -5.66 0.68 -6 0 C-3.50907189 -1.24546405 -2.58919267 -0.7767578 0 0 Z " fill="#4D8CC0" transform="translate(128,48)"/>
</svg>
