<?xml version="1.0" encoding="UTF-8"?>
<svg version="1.1" xmlns="http://www.w3.org/2000/svg" width="512" height="512">
<path d="M0 0 C1.50246409 -0.00458296 3.00492611 -0.00989462 4.50738525 -0.0158844 C7.63359164 -0.02473603 10.75954154 -0.02248618 13.88574219 -0.01245117 C17.04877204 -0.00327237 20.21106303 -0.01016567 23.37402344 -0.03295898 C60.90459891 -0.30210673 92.16541913 6.68159058 120.140625 33.30859375 C136.23953913 50.29998499 147.69606723 72.07598304 150.890625 95.43359375 C151.00019531 96.19027344 151.10976563 96.94695312 151.22265625 97.7265625 C153.97966564 120.26051926 150.03590231 143.18862483 140.3425293 163.71118164 C135.86613959 173.54039662 135.03679708 182.0420214 135.27319336 192.78833008 C135.32859035 195.39297362 135.33471596 197.99443258 135.33398438 200.59960938 C135.34871578 202.28257941 135.36619458 203.96552814 135.38671875 205.6484375 C135.39005722 206.41316879 135.39339569 207.17790009 135.39683533 207.96580505 C135.59522379 215.55107122 137.70211972 221.61540644 142.828125 227.37109375 C150.97272814 237.11766846 152.69267845 246.94235398 151.890625 259.43359375 C150.66838135 268.22753321 148.07758288 275.23302568 142.890625 282.43359375 C142.21193359 283.38685547 142.21193359 283.38685547 141.51953125 284.359375 C138.66036159 288.01230847 135.72341795 290.20695612 131.765625 292.62109375 C126.51407377 296.1064282 125.32460828 299.52445656 123.76171875 305.484375 C122.69028712 309.11186772 120.99774997 311.83486714 118.84375 314.91015625 C117.71382844 316.41667377 117.71382844 316.41667377 117.890625 318.43359375 C118.98739035 319.56573863 120.09156142 320.69111025 121.21875 321.79296875 C141.99943544 342.18523017 151.83822535 369.15708819 152.12890625 398.0625 C152.136978 398.8552684 152.14504974 399.6480368 152.15336609 400.46482849 C152.16709362 402.13286224 152.17786553 403.80092274 152.18579102 405.46899414 C152.19726163 407.14128107 152.2176348 408.81353282 152.24731445 410.4855957 C152.61288317 431.17596815 148.7053671 449.06674946 133.890625 464.43359375 C122.8862565 474.0054409 110.10420814 479.8377127 95.453125 479.62890625 C94.68758301 479.62607635 93.92204102 479.62324646 93.13330078 479.62033081 C90.71890776 479.60925023 88.30490346 479.58416976 85.890625 479.55859375 C84.24089082 479.54854823 82.59115076 479.53942515 80.94140625 479.53125 C76.92433232 479.50935087 72.90754427 479.474907 68.890625 479.43359375 C68.91020264 480.38548584 68.92978027 481.33737793 68.94995117 482.31811523 C68.97279175 484.19865601 68.97279175 484.19865601 68.99609375 486.1171875 C69.01567139 487.35782959 69.03524902 488.59847168 69.05541992 489.87670898 C68.7623414 496.20242898 66.54051567 500.47977585 62.515625 505.24609375 C56.64661995 510.13693129 52.45172406 512.54251754 44.80200195 512.6105957 C43.54672195 512.62343094 42.29144196 512.63626617 40.99812317 512.64949036 C39.62505489 512.65766005 38.25198213 512.66510334 36.87890625 512.671875 C35.8388849 512.67798829 35.8388849 512.67798829 34.77785301 512.68422508 C31.10524165 512.70507303 27.43266747 512.71937807 23.76000977 512.72875977 C19.98171617 512.73979882 16.20401563 512.77417241 12.42593098 512.81393147 C9.5081021 512.84018528 6.59041239 512.84845948 3.67247581 512.85204124 C2.28071289 512.85688764 0.88895536 512.86844575 -0.50269127 512.88707924 C-9.65873352 513.00201696 -16.10813182 512.64703049 -23.31640625 506.57421875 C-29.14311654 499.71259397 -31.27254415 494.74269971 -31.17578125 485.6640625 C-31.16619385 484.49641357 -31.15660645 483.32876465 -31.14672852 482.12573242 C-31.12823853 480.79312378 -31.12823853 480.79312378 -31.109375 479.43359375 C-32.10155029 479.45454102 -33.09372559 479.47548828 -34.1159668 479.49707031 C-37.86011849 479.5704497 -41.60420926 479.61574211 -45.34887695 479.65332031 C-46.95771026 479.67321613 -48.56647342 479.70034304 -50.17504883 479.73535156 C-67.51592484 480.1028117 -79.97303 476.07618346 -94.296875 466.24609375 C-107.07129225 453.4716765 -113.4053046 439.25037821 -113.4453125 421.34765625 C-113.4519693 420.29186371 -113.4586261 419.23607117 -113.46548462 418.14828491 C-113.47557506 415.91772185 -113.48030276 413.68712883 -113.47998047 411.45654297 C-113.48431717 408.10331018 -113.52057567 404.75143477 -113.55859375 401.3984375 C-113.71808256 371.11241118 -104.97924739 343.56961385 -83.33984375 321.625 C-82.60378906 320.90183594 -81.86773437 320.17867188 -81.109375 319.43359375 C-82.18063579 316.48762657 -83.36305226 314.03262002 -85.046875 311.37109375 C-87.00751242 308.12000043 -87.64663346 305.08654645 -88.359375 301.37109375 C-89.36814031 296.92587517 -90.26211166 294.68671856 -93.984375 291.99609375 C-95.35619171 291.13682394 -96.73097184 290.28225766 -98.109375 289.43359375 C-107.00420986 281.1452249 -112.92143103 271.63737597 -113.4453125 259.2890625 C-113.46901002 257.39984334 -113.48179918 255.51045978 -113.484375 253.62109375 C-113.50886719 252.68716797 -113.53335938 251.75324219 -113.55859375 250.79101562 C-113.59658488 241.66681352 -111.19400288 234.1275606 -105.046875 227.24609375 C-99.38420201 220.86607639 -97.63960389 215.08252447 -97.4296875 206.765625 C-97.40371994 205.94073578 -97.37775238 205.11584656 -97.35099792 204.26596069 C-97.28472554 201.59231219 -97.25339098 198.92048023 -97.234375 196.24609375 C-97.22514008 195.33397125 -97.21590515 194.42184875 -97.20639038 193.48208618 C-97.14399247 176.69299919 -100.50916369 164.42079111 -107.83447266 149.36083984 C-116.6724409 129.06837733 -115.86738628 100.28365289 -109.109375 79.43359375 C-108.78791504 78.41120605 -108.78791504 78.41120605 -108.45996094 77.36816406 C-103.87735559 63.14007496 -96.92223924 50.74746973 -87.109375 39.43359375 C-86.44550781 38.62535156 -85.78164062 37.81710938 -85.09765625 36.984375 C-73.20793661 22.9848345 -57.7528572 13.09171091 -40.671875 6.62109375 C-39.58289917 6.2039209 -39.58289917 6.2039209 -38.47192383 5.77832031 C-25.85663324 1.25010802 -13.3076418 -0.03641715 0 0 Z M-75.109375 52.43359375 C-90.95942982 71.45994924 -98.12303905 96.95649555 -96.109375 121.43359375 C-95.65261785 124.98239823 -95.04596414 128.48496229 -94.359375 131.99609375 C-94.20259277 132.80433594 -94.04581055 133.61257812 -93.88427734 134.4453125 C-92.65267073 140.16998063 -90.62330946 145.14693747 -88.109375 150.43359375 C-83.489375 147.79359375 -78.869375 145.15359375 -74.109375 142.43359375 C-74.934375 140.80421875 -75.759375 139.17484375 -76.609375 137.49609375 C-80.43628972 128.28315091 -80.91073195 117.43794872 -77.609375 107.93359375 C-72.34953158 97.21439561 -63.17263221 91.16210612 -53.109375 85.43359375 C-52.119375 85.10359375 -51.129375 84.77359375 -50.109375 84.43359375 C-49.8825 85.11421875 -49.655625 85.79484375 -49.421875 86.49609375 C-48.02374953 89.6252317 -46.29846599 92.07282752 -44.23046875 94.78515625 C-43.109375 96.43359375 -43.109375 96.43359375 -42.109375 99.43359375 C-42.81964844 99.68625 -43.52992187 99.93890625 -44.26171875 100.19921875 C-51.49409566 103.33424084 -58.47775133 108.33542022 -62.109375 115.43359375 C-64.16497281 121.60038718 -63.1628833 126.10329325 -60.375 131.734375 C-58.86126945 133.76669842 -57.42651373 134.47460986 -55.109375 135.43359375 C-54.47322266 134.68916016 -54.47322266 134.68916016 -53.82421875 133.9296875 C-51.93900456 131.7461537 -50.02968116 129.58631792 -48.109375 127.43359375 C-47.6040625 126.85996094 -47.09875 126.28632812 -46.578125 125.6953125 C-40.89842389 119.62440749 -33.92089269 115.12891177 -27.109375 110.43359375 C-28.099375 107.46359375 -29.089375 104.49359375 -30.109375 101.43359375 C-28.38081041 100.95225965 -26.65149429 100.47362404 -24.921875 99.99609375 C-23.95894531 99.72925781 -22.99601562 99.46242188 -22.00390625 99.1875 C-19.38273803 98.50479357 -16.77044 97.9346718 -14.109375 97.43359375 C-13.85285156 98.03945312 -13.59632812 98.6453125 -13.33203125 99.26953125 C-6.80227885 113.56023516 4.37639265 122.91134373 18.890625 128.43359375 C19.550625 128.43359375 20.210625 128.43359375 20.890625 128.43359375 C21.43338792 119.88507776 19.62464053 113.02771161 13.890625 106.43359375 C15.36783922 102.98157736 17.32856501 100.78397439 20.015625 98.18359375 C20.74007812 97.4771875 21.46453125 96.77078125 22.2109375 96.04296875 C22.76523438 95.511875 23.31953125 94.98078125 23.890625 94.43359375 C27.51080892 95.87698605 28.92874251 97.53909223 30.890625 100.87109375 C31.41785156 101.76570313 31.94507813 102.6603125 32.48828125 103.58203125 C33.87205425 106.39583151 34.57250121 108.96506049 35.328125 111.99609375 C37.59999717 118.99106859 43.51541798 121.57243354 49.65234375 124.8515625 C52.43969872 126.50675332 52.43969872 126.50675332 53.890625 126.43359375 C54.50298017 119.23842054 52.18082605 113.78710244 48.140625 107.87109375 C47.521875 107.15953125 47.521875 107.15953125 46.890625 106.43359375 C48.36783922 102.98157736 50.32856501 100.78397439 53.015625 98.18359375 C53.74007812 97.4771875 54.46453125 96.77078125 55.2109375 96.04296875 C56.04238281 95.24632813 56.04238281 95.24632813 56.890625 94.43359375 C62.37147311 96.63065786 64.40390684 101.32427119 66.890625 106.43359375 C67.54894416 108.54850885 68.17441157 110.67394702 68.765625 112.80859375 C69.9931325 116.91031375 69.9931325 116.91031375 72.73828125 120.046875 C74.79802273 121.10562062 76.65226232 121.84586724 78.890625 122.43359375 C79.60734375 122.624375 80.3240625 122.81515625 81.0625 123.01171875 C85.11507897 123.6162471 89.11255894 123.53806483 93.203125 123.49609375 C94.03908203 123.49158203 94.87503906 123.48707031 95.73632812 123.48242188 C97.78779149 123.47069923 99.83921773 123.45276578 101.890625 123.43359375 C101.890625 129.04359375 101.890625 134.65359375 101.890625 140.43359375 C104.8296875 140.99046875 104.8296875 140.99046875 107.828125 141.55859375 C113.51202589 142.84165535 117.50151101 144.67146951 122.0859375 148.2265625 C123.94437888 149.71156633 123.94437888 149.71156633 126.890625 149.43359375 C135.9012154 123.94944304 137.28265805 98.61922357 125.890625 73.43359375 C122.01273389 65.39949398 117.68250052 58.21522015 111.890625 51.43359375 C111.25898438 50.64597656 110.62734375 49.85835937 109.9765625 49.046875 C95.04531614 31.23563168 72.00519917 19.61457886 48.890625 17.43359375 C44.54850829 17.26680276 40.20827598 17.24580276 35.86328125 17.23046875 C34.60156601 17.22476868 33.33985077 17.2190686 32.03990173 17.2131958 C29.37120981 17.20376678 26.70262968 17.19685991 24.03393555 17.19335938 C21.32936984 17.188993 18.62512642 17.17516561 15.9206543 17.15234375 C-21.13662713 16.86232039 -49.29896631 24.19350153 -75.109375 52.43359375 Z M-35.76025391 138.70776367 C-37.94917487 140.89933467 -40.06949304 143.1008406 -42.109375 145.43359375 C-43.15641602 146.55640747 -43.15641602 146.55640747 -44.22460938 147.7019043 C-47.65142736 152.97082052 -46.65932266 159.77608373 -46.60546875 165.81640625 C-46.60562399 167.23640009 -46.60711714 168.65639434 -46.60987854 170.0763855 C-46.6112604 173.05046364 -46.59875056 176.02405836 -46.57592773 178.99804688 C-46.54769892 182.77696478 -46.55024051 186.55507084 -46.56301785 190.33404732 C-46.57003906 193.26838891 -46.56211066 196.20254912 -46.54976082 199.13686752 C-46.54529745 200.52806778 -46.54486386 201.91928789 -46.54882622 203.31048965 C-46.57786541 222.49374444 -41.28637018 238.18251237 -27.74609375 251.87890625 C-22.75401321 256.71567762 -17.57804905 260.92577253 -11.90625 264.94140625 C-8.6076125 267.68070957 -6.89870123 270.24297298 -6.109375 274.43359375 C-5.96076692 276.82192522 -5.86159073 279.21350249 -5.79296875 281.60546875 C-5.77218765 282.28788635 -5.75140656 282.97030396 -5.72999573 283.67340088 C-5.66485448 285.84336731 -5.60578096 288.01344999 -5.546875 290.18359375 C-5.50365603 291.65886596 -5.46004068 293.13412662 -5.41601562 294.609375 C-5.30920982 298.21732541 -5.20784347 301.82540508 -5.109375 305.43359375 C-5.71958496 305.48185303 -6.32979492 305.5301123 -6.95849609 305.57983398 C-13.02043507 306.11450606 -18.81524599 307.1024885 -24.734375 308.49609375 C-25.54777344 308.68236328 -26.36117187 308.86863281 -27.19921875 309.06054688 C-29.17052697 309.51278817 -31.14014423 309.97239047 -33.109375 310.43359375 C-31.74397285 320.02597596 -24.36714724 328.41308673 -17.109375 334.43359375 C-2.5903188 345.21791555 13.34755705 348.5263767 31.09375 345.97265625 C42.92108767 343.03311326 52.40495221 337.05588739 60.890625 328.43359375 C61.47714844 327.84578125 62.06367188 327.25796875 62.66796875 326.65234375 C66.8387983 322.15251747 69.36506763 316.98758497 71.890625 311.43359375 C66.591104 309.11505331 61.3640763 307.81041956 55.703125 306.74609375 C55.01412109 306.61485107 54.32511719 306.4836084 53.61523438 306.34838867 C49.9851367 305.69344244 46.57118621 305.37773764 42.890625 305.43359375 C42.9600393 301.30708607 43.04825688 297.18142801 43.15307617 293.05566406 C43.18610167 291.65538305 43.21420155 290.25497606 43.23706055 288.85449219 C43.53632438 271.00053919 43.53632438 271.00053919 48.80078125 265.40234375 C49.86619141 264.6753125 49.86619141 264.6753125 50.953125 263.93359375 C51.7471875 263.36253906 52.54125 262.79148437 53.359375 262.203125 C54.1946875 261.61917969 55.03 261.03523437 55.890625 260.43359375 C71.07304026 249.25764918 81.27627057 234.09543462 84.41625977 215.28466797 C85.25971929 208.34306264 85.01295704 201.32097702 84.98828125 194.33984375 C84.98641342 192.78186082 84.98499124 191.22387729 84.98399353 189.66589355 C84.98019708 185.58889104 84.9703917 181.51192482 84.95928955 177.43493652 C84.94901331 173.26522309 84.94448266 169.09550373 84.93945312 164.92578125 C84.92876653 156.76170033 84.91119337 148.59765576 84.890625 140.43359375 C79.940625 139.44359375 74.990625 138.45359375 69.890625 137.43359375 C69.230625 139.51671875 68.570625 141.59984375 67.890625 143.74609375 C67.33375 145.50373047 67.33375 145.50373047 66.765625 147.296875 C65.75627728 150.37246051 65.75627728 150.37246051 65.890625 153.43359375 C56.38831888 148.38485227 47.14324685 142.92225337 37.890625 137.43359375 C36.15892904 140.59582115 35.1777274 143.70102097 34.265625 147.18359375 C34.00523437 148.1684375 33.74484375 149.15328125 33.4765625 150.16796875 C33.18652344 151.28945312 33.18652344 151.28945312 32.890625 152.43359375 C28.67143099 150.7240894 24.45847064 149.00024389 20.25024414 147.26391602 C18.82341405 146.67743545 17.39506508 146.09463403 15.96508789 145.51586914 C4.21638736 140.75622371 -6.25861219 135.4378735 -15.6484375 126.71875 C-19.94637974 122.93793985 -32.15774236 135.2137901 -35.76025391 138.70776367 Z M101.890625 157.43359375 C101.890625 167.99359375 101.890625 178.55359375 101.890625 189.43359375 C108.82226551 188.44335939 110.33038888 188.20111333 114.890625 183.43359375 C117.54832519 178.88978375 118.38769769 175.44874353 117.4609375 170.3515625 C115.72806742 164.52389668 112.0755295 161.29058194 106.890625 158.43359375 C105.240625 158.10359375 103.590625 157.77359375 101.890625 157.43359375 Z M-74.71484375 161.8984375 C-78.90263157 166.92132671 -79.52023364 170.20107572 -79.453125 176.6015625 C-78.93073443 180.90534844 -77.27523333 183.53224578 -74.109375 186.43359375 C-70.3307688 188.82414053 -68.62024011 189.43359375 -64.109375 189.43359375 C-64.109375 178.87359375 -64.109375 168.31359375 -64.109375 157.43359375 C-67.79734062 157.43359375 -72.02770065 159.4466646 -74.71484375 161.8984375 Z M-79.109375 203.43359375 C-79.16883301 204.01214111 -79.22829102 204.59068848 -79.28955078 205.18676758 C-80.79889463 219.15584215 -82.66067399 230.37605669 -92.8125 240.80078125 C-97.16526391 246.28106835 -96.62544949 252.80922779 -96.109375 259.43359375 C-94.8952148 267.01908963 -90.85474647 272.45941308 -85.109375 277.43359375 C-80.96339265 280.00949994 -76.73192032 281.89274531 -72.109375 283.43359375 C-72.08359375 284.50738281 -72.0578125 285.58117187 -72.03125 286.6875 C-71.81021374 297.23062153 -71.81021374 297.23062153 -67.109375 306.43359375 C-63.16543772 306.43359375 -60.6846416 304.64994029 -57.359375 302.74609375 C-46.54588962 296.76806761 -35.05450281 293.48816905 -23.109375 290.43359375 C-22.42993925 285.93147403 -22.18387315 281.91199436 -23.109375 277.43359375 C-26.27865124 273.93277974 -30.05250467 271.79505558 -34.109375 269.43359375 C-49.62519855 258.46498185 -59.20870596 237.70642785 -62.45996094 219.46679688 C-63.11229131 215.46764392 -63.64450014 211.45843134 -64.109375 207.43359375 C-64.94082031 207.22863281 -65.77226563 207.02367187 -66.62890625 206.8125 C-67.71558594 206.54308594 -68.80226563 206.27367187 -69.921875 205.99609375 C-71.00082031 205.72925781 -72.07976562 205.46242187 -73.19140625 205.1875 C-75.1834593 204.67281963 -77.15749024 204.084222 -79.109375 203.43359375 Z M109.27734375 205.6796875 C106.83200416 206.45211064 104.41174387 206.97399155 101.890625 207.43359375 C101.74367187 208.69171875 101.59671875 209.94984375 101.4453125 211.24609375 C98.54540845 234.13510389 90.37124547 255.17184541 71.7265625 270.01171875 C64.28884926 275.73448162 64.28884926 275.73448162 60.890625 277.43359375 C60.890625 281.72359375 60.890625 286.01359375 60.890625 290.43359375 C62.20933594 290.77390625 63.52804688 291.11421875 64.88671875 291.46484375 C76.91509298 294.6742107 87.82765587 298.74186919 98.890625 304.43359375 C100.22353559 305.10110523 101.55661347 305.7682852 102.890625 306.43359375 C103.70704754 305.16527682 104.51861605 303.89383444 105.328125 302.62109375 C105.78058594 301.91339844 106.23304688 301.20570313 106.69921875 300.4765625 C108.84939865 296.7895327 109.13790948 293.43395711 109.453125 289.24609375 C109.53691406 288.15941406 109.62070313 287.07273437 109.70703125 285.953125 C109.76761719 285.12167969 109.82820313 284.29023438 109.890625 283.43359375 C110.69886719 283.1190625 111.50710937 282.80453125 112.33984375 282.48046875 C113.40847656 282.0525 114.47710937 281.62453125 115.578125 281.18359375 C116.63386719 280.7659375 117.68960938 280.34828125 118.77734375 279.91796875 C124.09305782 277.38350031 127.22317632 274.46127395 130.140625 269.37109375 C130.89085937 268.08525391 130.89085937 268.08525391 131.65625 266.7734375 C135.00937633 260.4173531 135.24839761 251.20741846 133.27734375 244.27734375 C132.28671133 242.4968238 131.18076888 241.0132159 129.890625 239.43359375 C120.50584071 227.159731 118.42857239 218.55177027 117.890625 203.43359375 C114.81573624 203.43359375 112.15843555 204.6671476 109.27734375 205.6796875 Z M-70.421875 333.24609375 C-87.0205778 350.71554817 -96.18223353 373.21748806 -96.3125 397.296875 C-96.31820007 398.12889938 -96.32390015 398.96092377 -96.32977295 399.81816101 C-96.33917219 401.57041166 -96.3457366 403.32267959 -96.34960938 405.07495117 C-96.35930893 407.72802154 -96.39037794 410.38031418 -96.421875 413.03320312 C-96.51612435 427.91645416 -94.29873931 439.59373211 -84.109375 451.12109375 C-73.24159821 461.37969022 -60.54902252 462.43359375 -46.109375 462.43359375 C-46.109375 451.87359375 -46.109375 441.31359375 -46.109375 430.43359375 C-57.329375 430.43359375 -68.549375 430.43359375 -80.109375 430.43359375 C-80.109375 424.49359375 -80.109375 418.55359375 -80.109375 412.43359375 C-74.829375 412.43359375 -69.549375 412.43359375 -64.109375 412.43359375 C-64.109375 396.26359375 -64.109375 380.09359375 -64.109375 363.43359375 C-58.169375 363.43359375 -52.229375 363.43359375 -46.109375 363.43359375 C-46.109375 379.60359375 -46.109375 395.77359375 -46.109375 412.43359375 C-41.159375 412.43359375 -36.209375 412.43359375 -31.109375 412.43359375 C-31.1000293 411.12277832 -31.09068359 409.81196289 -31.08105469 408.46142578 C-31.04093276 403.55956064 -30.97511323 398.65830855 -30.90185547 393.75683594 C-30.87377403 391.64265874 -30.85249624 389.52837906 -30.83837891 387.4140625 C-30.81677102 384.36014824 -30.77003017 381.3074497 -30.71875 378.25390625 C-30.71752136 377.32119904 -30.71629272 376.38849182 -30.71502686 375.42752075 C-30.54955564 367.87356547 -29.03046226 360.67924626 -23.859375 354.93359375 C-23.281875 354.43859375 -22.704375 353.94359375 -22.109375 353.43359375 C-22.109375 352.77359375 -22.109375 352.11359375 -22.109375 351.43359375 C-23.85905911 349.89603316 -23.85905911 349.89603316 -26.109375 348.30859375 C-34.72638826 341.74453662 -40.63109187 334.78134775 -46.109375 325.43359375 C-46.54636719 324.68851562 -46.98335937 323.9434375 -47.43359375 323.17578125 C-48.34059188 321.60365116 -49.22793126 320.02019249 -50.109375 318.43359375 C-55.88321215 318.43359375 -66.52149944 329.49951849 -70.421875 333.24609375 Z M87.890625 318.43359375 C87.36275391 319.46806641 87.36275391 319.46806641 86.82421875 320.5234375 C83.39591354 327.04885394 79.57950544 332.75983432 74.890625 338.43359375 C73.97410156 339.66916016 73.97410156 339.66916016 73.0390625 340.9296875 C70.65061401 343.71331565 68.16330949 345.55399338 65.140625 347.62109375 C63.35597257 348.84278645 61.59510834 350.10233348 59.890625 351.43359375 C59.890625 352.09359375 59.890625 352.75359375 59.890625 353.43359375 C61.0353125 354.48546875 61.0353125 354.48546875 62.203125 355.55859375 C68.12942122 361.8983525 68.34763431 369.01600293 68.40234375 377.27734375 C68.42029495 378.28704224 68.43824615 379.29674072 68.45674133 380.33703613 C68.51056599 383.53584724 68.54465071 386.73451152 68.578125 389.93359375 C68.61132263 392.11330156 68.64581453 394.29299006 68.68164062 396.47265625 C68.76627651 401.79286234 68.83322022 407.11302699 68.890625 412.43359375 C74.170625 412.43359375 79.450625 412.43359375 84.890625 412.43359375 C84.890625 396.26359375 84.890625 380.09359375 84.890625 363.43359375 C90.500625 363.43359375 96.110625 363.43359375 101.890625 363.43359375 C101.890625 379.60359375 101.890625 395.77359375 101.890625 412.43359375 C107.500625 412.43359375 113.110625 412.43359375 118.890625 412.43359375 C118.890625 418.37359375 118.890625 424.31359375 118.890625 430.43359375 C102.390625 430.43359375 85.890625 430.43359375 68.890625 430.43359375 C68.890625 440.99359375 68.890625 451.55359375 68.890625 462.43359375 C73.5725 462.51609375 78.254375 462.59859375 83.078125 462.68359375 C84.52598389 462.72000977 85.97384277 462.75642578 87.46557617 462.79394531 C99.75458848 462.89748799 110.62394732 460.90218436 119.890625 452.43359375 C120.756875 451.67046875 121.623125 450.90734375 122.515625 450.12109375 C130.85013241 440.68994063 134.3683801 431.21896946 134.32421875 418.6484375 C134.3294606 417.74847549 134.33470245 416.84851349 134.34010315 415.92127991 C134.34648157 414.02801536 134.34524108 412.13471097 134.33666992 410.24145508 C134.32821628 407.40175447 134.35688919 404.56410932 134.38867188 401.72460938 C134.49243419 375.17969193 126.37539872 351.81842768 107.578125 332.62109375 C98.70524818 323.36119259 98.70524818 323.36119259 87.890625 318.43359375 Z M-11.3503418 365.84521484 C-14.10024921 369.89164349 -13.72863038 373.66934038 -13.59765625 378.44921875 C-13.59058151 379.42018494 -13.58350677 380.39115112 -13.57621765 381.39154053 C-13.54825133 384.48967869 -13.48550768 387.58600283 -13.421875 390.68359375 C-13.39679507 392.78513013 -13.37398137 394.88669487 -13.35351562 396.98828125 C-13.29841707 402.13741662 -13.21212793 407.28519775 -13.109375 412.43359375 C-12.18705078 412.81342407 -12.18705078 412.81342407 -11.24609375 413.20092773 C-10.43785156 413.54454346 -9.62960938 413.88815918 -8.796875 414.2421875 C-7.99636719 414.57790771 -7.19585937 414.91362793 -6.37109375 415.25952148 C-2.04762224 417.50386243 0.34973208 420.81091499 1.890625 425.43359375 C1.99068896 426.79792737 2.03880978 428.16648693 2.05175781 429.53442383 C2.06136536 430.35570267 2.0709729 431.17698151 2.08087158 432.02314758 C2.08512146 432.90754013 2.08937134 433.79193268 2.09375 434.703125 C2.09945007 435.616884 2.10515015 436.53064301 2.11102295 437.47209167 C2.12046918 439.40626875 2.12700543 441.3404619 2.13085938 443.2746582 C2.14055373 446.22440911 2.17157598 449.17345982 2.203125 452.12304688 C2.20965648 454.00390212 2.21490638 455.88476234 2.21875 457.765625 C2.2310968 458.64394485 2.2434436 459.52226471 2.25616455 460.42720032 C2.23347114 466.70897349 1.24368134 471.08053741 -3.359375 475.68359375 C-6.62308339 477.76049909 -9.35775366 478.55085932 -13.109375 479.43359375 C-13.24547413 481.1605405 -13.34186728 482.89064097 -13.421875 484.62109375 C-13.47988281 485.58402344 -13.53789063 486.54695313 -13.59765625 487.5390625 C-12.8834656 491.77278466 -11.58501931 492.89370995 -8.109375 495.43359375 C-4.07076034 496.17963533 -0.08137804 496.11016104 4.015625 496.0625 C5.19527832 496.06491196 6.37493164 496.06732391 7.59033203 496.06980896 C10.08173996 496.06883048 12.57316963 496.05543684 15.06445312 496.03051758 C18.87705374 495.99621585 22.68733604 496.00985957 26.5 496.02929688 C28.92188486 496.02239832 31.34376375 496.01272585 33.765625 496 C35.47516357 496.0074398 35.47516357 496.0074398 37.21923828 496.01502991 C43.44092436 495.95080496 43.44092436 495.95080496 49.0859375 493.58569336 C51.80135392 490.34754459 52.0180977 487.71031561 52.04452515 483.63346863 C52.05312561 482.64514542 52.06172607 481.6568222 52.07058716 480.6385498 C52.07484711 479.55537476 52.07910706 478.47219971 52.08349609 477.35620117 C52.09167358 476.21447952 52.09985107 475.07275787 52.10827637 473.8964386 C52.13313003 470.11065193 52.14964511 466.32490271 52.1640625 462.5390625 C52.17204802 460.60165915 52.17204802 460.60165915 52.18019485 458.62511635 C52.20142242 453.19748503 52.22055276 447.76986592 52.23181725 442.34220409 C52.24805457 434.57038155 52.28123413 426.79905905 52.33821809 419.02742499 C52.38161498 412.89943892 52.39756488 406.77164877 52.40394974 400.64351845 C52.41067464 398.03877513 52.42592855 395.43403944 52.44984055 392.8293972 C52.48138782 389.18559956 52.48154381 385.54306775 52.47412109 381.89916992 C52.49052643 380.82206757 52.50693176 379.74496521 52.52383423 378.63522339 C52.48247995 372.29708493 52.48247995 372.29708493 49.70022583 366.76353455 C46.57251693 364.16979366 45.3514857 363.68367204 41.35351562 363.68896484 C40.26889038 363.67650726 39.18426514 363.66404968 38.06677246 363.6512146 C36.9052063 363.66963409 35.74364014 363.68805359 34.546875 363.70703125 C33.34502563 363.70603424 32.14317627 363.70503723 30.90490723 363.70401001 C28.36638773 363.70868656 25.82785858 363.72811512 23.28955078 363.76123047 C19.40442975 363.80842605 15.52205367 363.8023499 11.63671875 363.7890625 C9.16925447 363.80021635 6.70180175 363.81443631 4.234375 363.83203125 C3.07280884 363.83020844 1.91124268 363.82838562 0.71447754 363.82650757 C-3.75307117 363.90503189 -7.22981338 364.0504958 -11.3503418 365.84521484 Z M-29.109375 433.43359375 C-30.54291506 437.73421394 -30.29368714 441.86664785 -30.296875 446.37109375 C-30.30912109 447.27794922 -30.32136719 448.18480469 -30.33398438 449.11914062 C-30.33591797 449.99505859 -30.33785156 450.87097656 -30.33984375 451.7734375 C-30.34395264 452.57128662 -30.34806152 453.36913574 -30.35229492 454.19116211 C-30.07358129 456.76401109 -29.55609997 458.28651783 -28.109375 460.43359375 C-23.36401901 463.17894974 -23.36401901 463.17894974 -14.109375 462.43359375 C-14.109375 451.87359375 -14.109375 441.31359375 -14.109375 430.43359375 C-24.47604167 429.33359375 -24.47604167 429.33359375 -29.109375 433.43359375 Z " fill="#586CEA" transform="translate(113.109375,-0.43359375)"/>
<path d="M0 0 C6.38945302 4.76977132 9.38969409 11.84161494 12.76953125 18.8359375 C13.27162109 19.85816406 13.77371094 20.88039062 14.29101562 21.93359375 C15.5204082 24.4392129 16.74213727 26.94826513 17.95703125 29.4609375 C18.83222318 29.46313734 18.83222318 29.46313734 19.72509575 29.46538162 C33.95731288 29.5025202 48.18929918 29.56162778 62.42132378 29.64484024 C69.30399819 29.68455878 76.18655946 29.71698753 83.06933594 29.73193359 C89.71548552 29.74638668 96.36131999 29.78157994 103.00732803 29.82924652 C105.5389208 29.84404783 108.07056366 29.85197779 110.60219955 29.85282135 C114.15688942 29.85519638 117.71061402 29.88232174 121.26513672 29.91503906 C122.30451889 29.9100087 123.34390106 29.90497833 124.41477966 29.89979553 C132.3290058 30.01199444 139.38536482 31.52481759 145.61328125 36.64453125 C146.22171875 37.38832031 146.83015625 38.13210937 147.45703125 38.8984375 C148.08609375 39.63964844 148.71515625 40.38085938 149.36328125 41.14453125 C153.11183033 46.59279008 153.25854628 51.36027573 153.26342773 57.77416992 C153.27175125 58.70493347 153.28007477 59.63569702 153.28865051 60.59466553 C153.31272425 63.66862183 153.32152054 66.74236569 153.328125 69.81640625 C153.33709504 71.96006838 153.34621695 74.10372988 153.35548401 76.24739075 C153.37197064 80.74217244 153.37967324 85.23687969 153.38256836 89.73168945 C153.38794426 95.47376 153.42559354 101.21512444 153.47131252 106.95699596 C153.50115146 111.38642387 153.50829345 115.81568337 153.50929451 120.24520302 C153.51348509 122.36098773 153.52587239 124.47677348 153.54681206 126.59245872 C153.74654889 148.52344366 153.74654889 148.52344366 147.95703125 155.4609375 C141.72618819 161.25859131 136.28693023 163.7270272 127.6875 163.65625 C127.00649734 163.6534201 126.32549469 163.65059021 125.62385559 163.64767456 C123.4638967 163.63654275 121.30436331 163.61145207 119.14453125 163.5859375 C117.67383414 163.57589861 116.20313049 163.56677435 114.73242188 163.55859375 C111.14048839 163.53662663 107.5488014 163.5021457 103.95703125 163.4609375 C103.9659137 164.23022079 103.97479614 164.99950409 103.98394775 165.792099 C104.06439502 173.07375143 104.1251475 180.35518565 104.16427994 187.63716793 C104.18507538 191.3801324 104.21324333 195.12272691 104.25878906 198.86547852 C104.30253749 202.48354749 104.32622871 206.10126264 104.33654022 209.71957588 C104.34388006 211.09378179 104.35821209 212.4679703 104.37995148 213.84202385 C104.52690803 223.52345831 103.30279782 230.00857716 98.26953125 238.2109375 C92.62272585 243.70512654 85.94379864 246.58974401 78.11016846 246.58119202 C76.6504789 246.58325401 76.6504789 246.58325401 75.16130066 246.58535767 C74.10034683 246.58176239 73.03939301 246.57816711 71.94628906 246.57446289 C70.82404434 246.57460892 69.70179962 246.57475494 68.54554749 246.5749054 C64.83373079 246.57420837 61.12196419 246.56642572 57.41015625 246.55859375 C54.83754504 246.55672883 52.26493347 246.55530527 49.69232178 246.55430603 C43.61152391 246.55087715 37.53074673 246.5429945 31.44995666 246.53295654 C24.52617709 246.52177534 17.60239667 246.51627989 10.67861032 246.51126111 C-3.5619257 246.50081135 -17.80244658 246.48322441 -32.04296875 246.4609375 C-32.5031414 247.86767982 -32.5031414 247.86767982 -32.97261047 249.30284119 C-34.60304134 254.11343388 -36.91641181 258.51118303 -39.23046875 263.0234375 C-39.68744141 263.95607422 -40.14441406 264.88871094 -40.61523438 265.84960938 C-43.64758141 271.75027913 -46.22895506 275.18175331 -52.04296875 278.4609375 C-57.66025953 280.16505942 -62.87915509 280.27387057 -68.23046875 277.8359375 C-72.97038338 275.19127 -75.93270298 271.96787706 -78.15861511 266.94184875 C-79.37787529 262.14270927 -79.32970859 257.57449501 -79.31762695 252.64135742 C-79.32273788 251.56253799 -79.32784882 250.48371857 -79.33311462 249.37220764 C-79.34699509 245.8118838 -79.34605477 242.25175391 -79.34375 238.69140625 C-79.34763817 236.21047392 -79.35197309 233.72954226 -79.35673523 231.24861145 C-79.36419443 226.0494267 -79.36390859 220.85030985 -79.35864258 215.65112305 C-79.35285273 209.00001289 -79.36976879 202.34928617 -79.39298725 195.6982069 C-79.40774588 190.5739836 -79.40859329 185.44982711 -79.40547752 180.32558632 C-79.4059898 177.87407187 -79.41120999 175.42255358 -79.42128944 172.9710598 C-79.43367548 169.53675803 -79.42684831 166.10299482 -79.4152832 162.66870117 C-79.42292694 161.66320221 -79.43057068 160.65770325 -79.43844604 159.62173462 C-79.36890803 150.24248878 -77.44860556 143.07909083 -70.94140625 136.1875 C-64.76134867 130.5669538 -58.6084205 129.32593544 -50.4296875 129.36328125 C-49.18251953 129.36650391 -47.93535156 129.36972656 -46.65039062 129.37304688 C-45.35681641 129.38142578 -44.06324219 129.38980469 -42.73046875 129.3984375 C-40.76110352 129.40520508 -40.76110352 129.40520508 -38.75195312 129.41210938 C-35.51557865 129.42387801 -32.27929697 129.4403199 -29.04296875 129.4609375 C-29.04665592 128.86017143 -29.05034309 128.25940536 -29.054142 127.64043427 C-29.14260627 113.00020787 -29.20873333 98.35999731 -29.25021744 83.71956635 C-29.27081383 76.63944378 -29.29887804 69.55949998 -29.34472656 62.47949219 C-29.38896102 55.64545501 -29.41211438 48.8116036 -29.42247772 41.97743225 C-29.42986209 39.3715574 -29.44428197 36.76569258 -29.46588898 34.15989685 C-29.49497261 30.50676612 -29.49892249 26.85439996 -29.49707031 23.20117188 C-29.51864197 21.58923447 -29.51864197 21.58923447 -29.54064941 19.94473267 C-29.50104921 12.71508351 -28.49864909 7.03029154 -23.26171875 1.62109375 C-22.69453125 1.25886719 -22.12734375 0.89664063 -21.54296875 0.5234375 C-20.97578125 0.14316406 -20.40859375 -0.23710938 -19.82421875 -0.62890625 C-13.17928332 -4.0242351 -6.44714077 -3.17606514 0 0 Z M-11.04296875 15.4609375 C-12.25059089 16.44868706 -12.25059089 16.44868706 -12.16601658 18.34874821 C-12.16509479 19.18112727 -12.16417299 20.01350634 -12.16322327 20.87110901 C-12.16459793 21.82328308 -12.1659726 22.77545715 -12.16738892 23.75648499 C-12.16379364 24.80952316 -12.16019836 25.86256134 -12.15649414 26.94750977 C-12.15664017 28.04980927 -12.15678619 29.15210876 -12.15693665 30.28781128 C-12.15623696 33.95100842 -12.14844199 37.61415544 -12.140625 41.27734375 C-12.13876102 43.80940218 -12.13733702 46.34146098 -12.13633728 48.8735199 C-12.13290221 54.86941999 -12.12501144 60.86529839 -12.11498779 66.86118978 C-12.10382552 73.68574808 -12.09831592 80.51030722 -12.09329236 87.33487236 C-12.08282879 101.37690414 -12.06523005 115.41891983 -12.04296875 129.4609375 C-10.88531509 129.46680374 -9.72766144 129.47266998 -8.53492737 129.47871399 C2.39649992 129.53602772 13.32772994 129.6088346 24.25895596 129.69665241 C29.87827039 129.74130244 35.49751321 129.7805705 41.11694336 129.80737305 C46.54412069 129.8334594 51.97102168 129.87389977 57.39802742 129.92412376 C59.4643312 129.9407564 61.53068274 129.95229304 63.59704399 129.95855141 C66.50045337 129.96823167 69.40316147 129.99633795 72.30639648 130.02856445 C73.15300842 130.02712936 73.99962036 130.02569427 74.87188721 130.0242157 C82.29464006 130.14007189 89.16116981 131.59241389 94.95703125 136.4609375 C95.61703125 136.4609375 96.27703125 136.4609375 96.95703125 136.4609375 C99.45703125 141.4609375 99.45703125 141.4609375 101.95703125 146.4609375 C106.51931666 146.57719686 111.08122053 146.64821158 115.64453125 146.7109375 C117.58489258 146.76121094 117.58489258 146.76121094 119.56445312 146.8125 C121.43520508 146.83183594 121.43520508 146.83183594 123.34375 146.8515625 C124.49061279 146.87250977 125.63747559 146.89345703 126.8190918 146.91503906 C130.6214554 146.36478649 132.23828334 145.11822559 134.95703125 142.4609375 C136.54951146 139.27597707 136.13123234 135.82633921 136.14990234 132.3269043 C136.15807983 131.48608307 136.16625732 130.64526184 136.17468262 129.77896118 C136.19954676 126.98936683 136.21605488 124.19982338 136.23046875 121.41015625 C136.23845427 119.98251922 136.23845427 119.98251922 136.2466011 118.52604103 C136.27333664 113.48880442 136.29271057 108.45159264 136.30712891 103.41430664 C136.32378123 98.2086286 136.36856272 93.00358311 136.41950035 87.79814434 C136.45313837 83.79784916 136.46470253 79.79770477 136.47035599 75.79728127 C136.4770776 73.87830583 136.49232326 71.95934063 136.5162468 70.04050255 C136.54782888 67.35419371 136.5479459 64.66959966 136.54052734 61.9831543 C136.55693268 61.19075851 136.57333801 60.39836273 136.59024048 59.58195496 C136.54887934 55.92234538 136.05347975 53.62216006 134.16746521 50.46951294 C129.25489986 47.39601626 124.69387844 47.75853878 119.0065918 47.80151367 C117.79641891 47.79102997 116.58624603 47.78054626 115.33940125 47.76974487 C112.02942501 47.74591088 108.7208139 47.74406311 105.4108541 47.75203872 C101.94875797 47.75516656 98.4868675 47.73012144 95.02485657 47.70808411 C88.47303208 47.67064937 81.92141514 47.65849648 75.36949426 47.6554597 C67.90871903 47.65076822 60.44815164 47.61784214 52.98746812 47.58256185 C37.64396357 47.5106367 22.30071006 47.47783911 6.95703125 47.4609375 C1.67703125 36.9009375 -3.60296875 26.3409375 -9.04296875 15.4609375 C-9.70296875 15.4609375 -10.36296875 15.4609375 -11.04296875 15.4609375 Z M-59.33074951 149.33953857 C-61.84382874 153.92091614 -61.70304074 157.88539067 -61.6105957 163.03442383 C-61.61132584 164.09829315 -61.61205597 165.16216248 -61.61280823 166.25827026 C-61.60932827 169.77035728 -61.57044524 173.28111376 -61.53125 176.79296875 C-61.52192339 179.22962215 -61.51480657 181.66628492 -61.5098114 184.10295105 C-61.49072995 190.51307101 -61.44161798 196.92262359 -61.3862915 203.33251953 C-61.33512454 209.8745964 -61.31230273 216.41676504 -61.28710938 222.95898438 C-61.23350143 235.79321067 -61.1491362 248.62704389 -61.04296875 261.4609375 C-57.46925796 260.26970057 -57.05383118 259.06727519 -55.41609192 255.82496643 C-55.10346909 255.18018845 -54.79084625 254.53541046 -54.46875 253.87109375 C-54.14005417 253.2113707 -53.81135834 252.55164764 -53.47270203 251.87193298 C-52.77974574 250.47627614 -52.09161573 249.07821417 -51.40795898 247.67797852 C-50.3589047 245.53047119 -49.29510736 243.39079556 -48.22851562 241.25195312 C-47.55771567 239.89626746 -46.88776473 238.54016129 -46.21875 237.18359375 C-45.74070671 236.21946312 -45.74070671 236.21946312 -45.25300598 235.2358551 C-43.58345601 231.99903808 -43.58345601 231.99903808 -43.04296875 228.4609375 C-42.40243938 228.46462467 -41.76191002 228.46831184 -41.10197067 228.47211075 C-25.52011048 228.56042871 -9.93833728 228.62663085 5.64371109 228.66818619 C13.17906937 228.68881595 20.71426064 228.71694421 28.24951172 228.76269531 C34.81686156 228.80255071 41.38409046 228.82836731 47.95155787 228.83729148 C51.42939777 228.84250852 54.90689163 228.85477836 58.38462067 228.88385773 C62.26592011 228.91604867 66.14688029 228.91689774 70.02832031 228.91503906 C71.18278152 228.92942017 72.33724274 228.94380127 73.52668762 228.95861816 C74.58395554 228.95311951 75.64122345 228.94762085 76.73052979 228.94195557 C77.6486356 228.94564274 78.56674141 228.94932991 79.51266861 228.95312881 C82.74935152 228.30139769 83.94193687 227.027274 85.95703125 224.4609375 C86.56384951 221.1431277 86.56384951 221.1431277 86.47460938 217.36914062 C86.48161865 216.66297104 86.48862793 215.95680145 86.49584961 215.22923279 C86.51342499 212.89981521 86.50180971 210.57161698 86.48828125 208.2421875 C86.49097633 206.62080655 86.49485888 204.99942718 86.49987793 203.37805176 C86.50577231 199.98185826 86.49721234 196.58608591 86.47851562 193.18994141 C86.45572564 188.83837615 86.46884911 184.48779767 86.49280548 180.13626862 C86.50726535 176.78876318 86.50265671 173.44149139 86.49229431 170.09397888 C86.48962752 168.48961775 86.49289513 166.88523534 86.50221252 165.28089905 C86.51238184 163.03760665 86.4968746 160.79590815 86.47460938 158.55273438 C86.471427 157.27684448 86.46824463 156.00095459 86.46496582 154.68640137 C85.85245905 150.79688768 85.00864561 149.86500058 81.95703125 147.4609375 C79.27086176 146.85998303 79.27086176 146.85998303 76.27064514 146.9462738 C75.11121902 146.93354935 73.95179291 146.92082489 72.75723267 146.90771484 C71.48906708 146.91424072 70.22090149 146.9207666 68.91430664 146.92749023 C67.56223102 146.92043118 66.21016331 146.91168621 64.85810852 146.90138245 C61.18857577 146.8788758 57.51947407 146.88183103 53.84989858 146.89070392 C50.78572964 146.89581351 47.72164173 146.88852145 44.65748113 146.88123184 C37.42823898 146.86422858 30.19920788 146.86780259 22.9699707 146.88452148 C15.51371356 146.90144252 8.05804185 146.88561 0.60184866 146.8532986 C-5.80169821 146.8266009 -12.20506286 146.81932716 -18.6086598 146.82781368 C-22.43241941 146.83274258 -26.25582678 146.83052989 -30.07954216 146.81002617 C-33.67572532 146.79166584 -37.27106671 146.79763054 -40.86720467 146.82222557 C-42.81402503 146.82961821 -44.7608902 146.81238038 -46.7076416 146.79440308 C-53.3212988 146.86064311 -53.3212988 146.86064311 -59.33074951 149.33953857 Z " fill="#556FE9" transform="translate(359.04296875,117.5390625)"/>
<path d="M0 0 C38.28 0 76.56 0 116 0 C116 5.94 116 11.88 116 18 C77.72 18 39.44 18 0 18 C0 12.06 0 6.12 0 0 Z " fill="#4B78E6" transform="translate(363,214)"/>
<path d="M0 0 C38.28 0 76.56 0 116 0 C116 5.94 116 11.88 116 18 C77.72 18 39.44 18 0 18 C0 12.06 0 6.12 0 0 Z " fill="#4180E3" transform="translate(363,181)"/>
<path d="M0 0 C3 3.44444444 3 3.44444444 3 6 C4.32338632 6.68620031 5.65949948 7.34786461 7 8 C7.7425 8.37125 8.485 8.7425 9.25 9.125 C14.58349921 10.82202248 19.1168786 10.66665997 24.1875 8.4375 C28.43592493 6.11636843 30.49058929 3.07779241 33 -1 C38.68502535 0.64566523 43.76681636 3.29032784 49 6 C46.85721274 13.66716067 42.01325928 19.45557049 35.2890625 23.71875 C25.76113989 28.52462299 15.41033384 29.65409237 4.9375 27.31640625 C-3.80436235 24.02454871 -9.87821271 18.8296591 -15.06640625 11.1484375 C-16 9 -16 9 -16.01953125 6.93359375 C-14.43707869 3.93239061 -12.13263088 3.14082763 -9.125 1.6875 C-8.05507812 1.15511719 -6.98515625 0.62273437 -5.8828125 0.07421875 C-3 -1 -3 -1 0 0 Z " fill="#5072E8" transform="translate(116,228)"/>
<path d="M0 0 C5.94 0 11.88 0 18 0 C18.0825 2.475 18.165 4.95 18.25 7.5 C18.5193379 13.16743637 19.17228321 17.16445512 22.125 22.08203125 C24.3019222 26.85376696 23.857436 32.37805097 22.2578125 37.26953125 C19.08269156 43.33007232 13.32781636 46.746128 7 49 C4.86328125 49.01953125 4.86328125 49.01953125 3 48 C1.296875 45.3828125 1.296875 45.3828125 -0.25 42.125 C-0.77078125 41.05507812 -1.2915625 39.98515625 -1.828125 38.8828125 C-3 36 -3 36 -3 33 C2.75 30 2.75 30 5 30 C4.6390625 29.34257812 4.278125 28.68515625 3.90625 28.0078125 C-0.79633188 18.36751965 -0.40351885 10.65289777 0 0 Z " fill="#4180E3" transform="translate(123,165)"/>
<path d="M0 0 C5.94 0 11.88 0 18 0 C18 5.61 18 11.22 18 17 C12.06 17 6.12 17 0 17 C0 11.39 0 5.78 0 0 Z " fill="#6363ED" transform="translate(412,297)"/>
<path d="M0 0 C5.94 0 11.88 0 18 0 C18 5.61 18 11.22 18 17 C12.06 17 6.12 17 0 17 C0 11.39 0 5.78 0 0 Z " fill="#6363ED" transform="translate(379,297)"/>
<path d="M0 0 C5.94 0 11.88 0 18 0 C18 5.61 18 11.22 18 17 C12.06 17 6.12 17 0 17 C0 11.39 0 5.78 0 0 Z " fill="#6363ED" transform="translate(346,297)"/>
<path d="M0 0 C5.94 0 11.88 0 18 0 C18 5.61 18 11.22 18 17 C12.06 17 6.12 17 0 17 C0 11.39 0 5.78 0 0 Z " fill="#6363ED" transform="translate(313,297)"/>
<path d="M0 0 C2.90398503 2.11912421 3.84245093 3.50634623 4.9375 6.9375 C5.0128328 10.62880732 4.24574926 12.1126081 2 15 C-1.51253146 17.34168764 -2.86469356 17.49623677 -7 17 C-9.69990662 15.20006226 -11.5418865 13.916227 -13 11 C-13.42576871 7.16808162 -13.30321315 5.47050317 -11.1875 2.1875 C-7.53637316 -1.46362684 -4.79503135 -1.27215117 0 0 Z " fill="#7B4FF4" transform="translate(128,380)"/>
<path d="M0 0 C3.06458538 2.04305692 3.82153128 3.44079802 4.9375 6.9375 C5.0128328 10.62880732 4.24574926 12.1126081 2 15 C-1.7205836 17.48038907 -3.59796571 17.46337203 -8 17 C-11.28573474 14.83833241 -11.90007665 13.36638562 -12.9375 9.5625 C-13.00698608 5.60179332 -12.43366566 4.06461602 -10 1 C-6.79729456 -0.60135272 -3.47536616 -0.48861584 0 0 Z " fill="#3C85E2" transform="translate(95,165)"/>
<path d="M0 0 C3 2.0625 3 2.0625 5 5 C5.625 8.5 5.625 8.5 5 12 C2.40783917 15.69186542 0.95850936 16.82883761 -3.5 17.625 C-7 17 -7 17 -9.9375 15 C-12.79117716 10.84919686 -12.7099846 8.9698922 -12 4 C-9.21741025 -0.63764958 -5.03817252 -1.13733003 0 0 Z " fill="#3C84E2" transform="translate(177,165)"/>
</svg>
