<?xml version="1.0" encoding="UTF-8"?>
<svg version="1.1" xmlns="http://www.w3.org/2000/svg" width="306" height="268">
<path d="M0 0 C100.98 0 201.96 0 306 0 C306 88.44 306 176.88 306 268 C205.02 268 104.04 268 0 268 C0 179.56 0 91.12 0 0 Z " fill="#FEFEFE" transform="translate(0,0)"/>
<path d="M0 0 C5.97279527 2.22317404 11.34224501 2.64569515 17.68823242 2.55078125 C18.65728516 2.54208008 19.62633789 2.53337891 20.62475586 2.52441406 C29.76990605 2.33727748 37.46643537 0.71713653 45.81323242 -3.01171875 C55.36013544 -7.01130412 67.27835817 -5.5235605 76.69213867 -1.671875 C88.61362988 4.18344245 93.63438668 14.03528489 97.87573242 26.17578125 C101.30410486 41.83340903 97.89118078 57.00678431 93.87573242 72.17578125 C93.21573242 72.17578125 92.55573242 72.17578125 91.87573242 72.17578125 C91.7287793 73.01496094 91.7287793 73.01496094 91.57885742 73.87109375 C90.36211925 80.39532775 88.6483095 86.70836795 86.77807617 93.07421875 C86.48030273 94.09773438 86.1825293 95.12125 85.87573242 96.17578125 C85.69647217 96.76037109 85.51721191 97.34496094 85.33251953 97.94726562 C84.7151075 100.95941799 84.70959829 103.85942523 84.66479492 106.93359375 C84.63914008 108.28671776 84.61266006 109.63982631 84.58544922 110.99291992 C84.57218597 111.69693939 84.55892273 112.40095886 84.54525757 113.12631226 C84.1005739 134.84327264 81.55019345 154.39071547 71.87573242 174.17578125 C71.21573242 174.17578125 70.55573242 174.17578125 69.87573242 174.17578125 C69.87573242 174.83578125 69.87573242 175.49578125 69.87573242 176.17578125 C68.22188009 177.52497657 66.55403043 178.85711853 64.87573242 180.17578125 C64.21573242 181.16578125 63.55573242 182.15578125 62.87573242 183.17578125 C57.60998354 184.20506361 52.10018297 184.43218387 47.34448242 181.74609375 C45.32330086 179.98887246 43.57951358 178.24046187 41.87573242 176.17578125 C41.35108398 175.55058594 40.82643555 174.92539063 40.28588867 174.28125 C35.46971156 167.09033736 34.47457664 157.29755033 33.00073242 148.92578125 C29.74550657 130.16654882 29.74550657 130.16654882 20.00073242 114.36328125 C17.29761439 112.85271529 15.92325613 112.56627651 12.87573242 113.17578125 C4.82145818 120.49784875 3.24257543 134.01437345 0.81323242 144.17578125 C-5.42739977 170.00564207 -5.42739977 170.00564207 -9.56176758 175.61328125 C-10.13797852 176.41636719 -10.71418945 177.21945313 -11.30786133 178.046875 C-13.99074529 181.1913304 -15.76077026 182.96498988 -19.92895508 183.609375 C-30.5686707 183.62291153 -30.5686707 183.62291153 -35.12426758 179.17578125 C-37.38285347 176.31023688 -39.2835197 173.32351 -41.12426758 170.17578125 C-41.56899414 169.43457031 -42.0137207 168.69335938 -42.47192383 167.9296875 C-50.27183886 153.78488745 -51.98981544 136.40594893 -52.32348633 120.54296875 C-52.33931259 119.85189026 -52.35513885 119.16081177 -52.3714447 118.4487915 C-52.44872586 114.95631519 -52.50365741 111.465956 -52.51953125 107.97265625 C-52.71845336 95.88055809 -55.51423621 85.7928461 -60.18286133 74.6796875 C-61.62279713 70.84981677 -62.5297099 66.9190149 -63.46801758 62.94140625 C-64.00406968 60.68232952 -64.59128894 58.46379725 -65.24926758 56.23828125 C-69.20055535 42.40877405 -67.43980687 26.97400013 -60.93676758 14.17578125 C-56.02019889 5.84033812 -50.24640025 -0.32104233 -41.12426758 -3.82421875 C-40.20516602 -4.17871094 -39.28606445 -4.53320312 -38.33911133 -4.8984375 C-25.37436559 -8.6319062 -12.14794913 -4.71342102 0 0 Z " fill="#FCFEFE" transform="translate(133.124267578125,47.82421875)"/>
<path d="M0 0 C5.97279527 2.22317404 11.34224501 2.64569515 17.68823242 2.55078125 C18.65728516 2.54208008 19.62633789 2.53337891 20.62475586 2.52441406 C29.76990605 2.33727748 37.46643537 0.71713653 45.81323242 -3.01171875 C55.36013544 -7.01130412 67.27835817 -5.5235605 76.69213867 -1.671875 C88.61362988 4.18344245 93.63438668 14.03528489 97.87573242 26.17578125 C101.30410486 41.83340903 97.89118078 57.00678431 93.87573242 72.17578125 C93.21573242 72.17578125 92.55573242 72.17578125 91.87573242 72.17578125 C91.7287793 73.01496094 91.7287793 73.01496094 91.57885742 73.87109375 C90.36211925 80.39532775 88.6483095 86.70836795 86.77807617 93.07421875 C86.48030273 94.09773438 86.1825293 95.12125 85.87573242 96.17578125 C85.69647217 96.76037109 85.51721191 97.34496094 85.33251953 97.94726562 C84.7151075 100.95941799 84.70959829 103.85942523 84.66479492 106.93359375 C84.63914008 108.28671776 84.61266006 109.63982631 84.58544922 110.99291992 C84.57218597 111.69693939 84.55892273 112.40095886 84.54525757 113.12631226 C84.1005739 134.84327264 81.55019345 154.39071547 71.87573242 174.17578125 C71.21573242 174.17578125 70.55573242 174.17578125 69.87573242 174.17578125 C69.87573242 174.83578125 69.87573242 175.49578125 69.87573242 176.17578125 C68.22188009 177.52497657 66.55403043 178.85711853 64.87573242 180.17578125 C64.21573242 181.16578125 63.55573242 182.15578125 62.87573242 183.17578125 C57.60998354 184.20506361 52.10018297 184.43218387 47.34448242 181.74609375 C45.32330086 179.98887246 43.57951358 178.24046187 41.87573242 176.17578125 C41.35108398 175.55058594 40.82643555 174.92539063 40.28588867 174.28125 C35.46971156 167.09033736 34.47457664 157.29755033 33.00073242 148.92578125 C29.74550657 130.16654882 29.74550657 130.16654882 20.00073242 114.36328125 C17.29761439 112.85271529 15.92325613 112.56627651 12.87573242 113.17578125 C4.82145818 120.49784875 3.24257543 134.01437345 0.81323242 144.17578125 C-5.42739977 170.00564207 -5.42739977 170.00564207 -9.56176758 175.61328125 C-10.13797852 176.41636719 -10.71418945 177.21945313 -11.30786133 178.046875 C-13.99074529 181.1913304 -15.76077026 182.96498988 -19.92895508 183.609375 C-30.5686707 183.62291153 -30.5686707 183.62291153 -35.12426758 179.17578125 C-37.38285347 176.31023688 -39.2835197 173.32351 -41.12426758 170.17578125 C-41.56899414 169.43457031 -42.0137207 168.69335938 -42.47192383 167.9296875 C-50.27183886 153.78488745 -51.98981544 136.40594893 -52.32348633 120.54296875 C-52.33931259 119.85189026 -52.35513885 119.16081177 -52.3714447 118.4487915 C-52.44872586 114.95631519 -52.50365741 111.465956 -52.51953125 107.97265625 C-52.71845336 95.88055809 -55.51423621 85.7928461 -60.18286133 74.6796875 C-61.62279713 70.84981677 -62.5297099 66.9190149 -63.46801758 62.94140625 C-64.00406968 60.68232952 -64.59128894 58.46379725 -65.24926758 56.23828125 C-69.20055535 42.40877405 -67.43980687 26.97400013 -60.93676758 14.17578125 C-56.02019889 5.84033812 -50.24640025 -0.32104233 -41.12426758 -3.82421875 C-40.20516602 -4.17871094 -39.28606445 -4.53320312 -38.33911133 -4.8984375 C-25.37436559 -8.6319062 -12.14794913 -4.71342102 0 0 Z M-46.77270508 17.11328125 C-54.15590347 28.38012735 -54.85160141 43.04156485 -52.40551758 55.9765625 C-51.43453932 59.43371492 -50.33941103 62.7968985 -49.12426758 66.17578125 C-48.7040332 67.34882812 -48.28379883 68.521875 -47.85083008 69.73046875 C-47.00426398 72.07520031 -46.15158643 74.41773608 -45.29223633 76.7578125 C-43.80955207 81.09677145 -42.71767568 85.47688627 -41.70239258 89.9453125 C-41.33667865 92.13239435 -41.33667865 92.13239435 -40.12426758 93.17578125 C-40.00140674 95.19670885 -39.94432628 97.22167225 -39.91333008 99.24609375 C-39.887146 100.52436035 -39.86096191 101.80262695 -39.83398438 103.11962891 C-39.81408951 104.14289276 -39.81408951 104.14289276 -39.79379272 105.18682861 C-39.22802761 137.87752843 -39.22802761 137.87752843 -28.12426758 168.17578125 C-25.45605771 170.33562175 -25.45605771 170.33562175 -23.18676758 170.23828125 C-19.91118225 168.5508585 -18.66147353 165.39145852 -17.12426758 162.17578125 C-15.94549564 158.61601939 -15.94549564 158.61601939 -15.12426758 154.86328125 C-14.96039551 154.17814453 -14.79652344 153.49300781 -14.62768555 152.78710938 C-13.75629924 149.10181942 -12.95785393 145.40437158 -12.19458008 141.6953125 C-10.61062664 134.06593675 -8.82768876 126.68341856 -6.12426758 119.36328125 C-5.88724121 118.71166016 -5.65021484 118.06003906 -5.40600586 117.38867188 C-3.66155745 112.8836605 -1.60381618 108.41555555 2.87573242 106.17578125 C2.87573242 105.51578125 2.87573242 104.85578125 2.87573242 104.17578125 C3.53573242 104.17578125 4.19573242 104.17578125 4.87573242 104.17578125 C4.87573242 103.51578125 4.87573242 102.85578125 4.87573242 102.17578125 C10.18354318 99.94091356 15.19949451 99.53996889 20.87573242 100.17578125 C24.37573242 101.67578125 24.37573242 101.67578125 26.87573242 103.17578125 C27.53573242 103.17578125 28.19573242 103.17578125 28.87573242 103.17578125 C29.14772461 103.76746094 29.4197168 104.35914063 29.69995117 104.96875 C30.84658495 107.12106922 32.09309147 108.65744664 33.68823242 110.48828125 C41.46796328 120.71578109 43.53478263 135.89290183 45.54760742 148.2578125 C46.87739741 156.23935199 48.61274881 163.16629041 52.87573242 170.17578125 C55.2682007 170.45760252 55.2682007 170.45760252 57.87573242 170.17578125 C60.1788859 167.94128546 61.44853267 165.03018076 62.87573242 162.17578125 C63.23795898 161.45132813 63.60018555 160.726875 63.97338867 159.98046875 C67.3555357 152.39314272 68.60331982 144.32894733 69.87573242 136.17578125 C70.06264648 135.01304687 70.24956055 133.8503125 70.44213867 132.65234375 C70.99454783 128.09676893 70.98641182 123.53944086 71.03956604 118.95559692 C71.20474681 105.21889826 71.64553286 93.06814993 76.87573242 80.17578125 C77.78071078 77.52457705 78.6135367 74.85290999 79.43823242 72.17578125 C79.64311279 71.51666748 79.84799316 70.85755371 80.05908203 70.1784668 C85.51443913 52.4751492 89.46209656 35.69382993 80.36401367 18.41015625 C77.10081041 13.51106893 72.36397455 11.00780501 66.87573242 9.17578125 C55.68021224 7.61836567 48.21621569 9.66709603 38.59448242 15.23046875 C28.92553669 20.61597851 15.15778892 21.2102167 4.61791992 18.265625 C0.96798106 16.61091511 -2.36957496 14.65532552 -5.74926758 12.5078125 C-12.37306042 8.63473363 -17.88160803 7.60374923 -25.43676758 7.55078125 C-26.28489014 7.54006592 -27.1330127 7.52935059 -28.00683594 7.51831055 C-36.17287046 7.70234971 -41.63040535 10.73352972 -46.77270508 17.11328125 Z " fill="#347FBF" transform="translate(133.124267578125,47.82421875)"/>
<path d="M0 0 C6.35132596 2.63805074 9.95232459 8.00428679 13.859375 13.44921875 C12.859375 15.44921875 12.859375 15.44921875 10.859375 16.44921875 C10.42625 15.50046875 9.993125 14.55171875 9.546875 13.57421875 C8.06635299 10.24879938 8.06635299 10.24879938 4.859375 8.44921875 C2.95091224 13.82615977 2.95091224 13.82615977 3.4765625 19.3359375 C4.18020042 20.59321302 4.90034897 21.84132773 5.6328125 23.08203125 C9.36740291 30.28955287 11.14710276 38.38256539 10.859375 46.44921875 C9.33930888 43.57467916 8.22552541 40.73688572 7.23828125 37.640625 C6.94244141 36.72861328 6.64660156 35.81660156 6.34179688 34.87695312 C5.73001713 32.97147353 5.12062932 31.06522426 4.51367188 29.15820312 C1.68201079 19.89764028 1.68201079 19.89764028 -5.140625 13.44921875 C-7.640625 12.78255208 -7.640625 12.78255208 -10.140625 13.44921875 C-18.19489924 20.77128625 -19.77378199 34.28781095 -22.203125 44.44921875 C-28.58541993 70.86541898 -28.58541993 70.86541898 -33.140625 76.44921875 C-33.800625 76.44921875 -34.460625 76.44921875 -35.140625 76.44921875 C-34.43728962 73.47199328 -33.55813963 70.59665332 -32.578125 67.69921875 C-32.30871094 66.9 -32.03929688 66.10078125 -31.76171875 65.27734375 C-31.55675781 64.6740625 -31.35179688 64.07078125 -31.140625 63.44921875 C-30.480625 63.44921875 -29.820625 63.44921875 -29.140625 63.44921875 C-29.01107422 62.60617188 -29.01107422 62.60617188 -28.87890625 61.74609375 C-26.67896337 48.58680239 -23.41353325 35.45043655 -18.9765625 22.8671875 C-18.24089304 20.73924641 -17.63558398 18.62879197 -17.078125 16.44921875 C-16.16433863 13.52510237 -15.14975337 11.73231917 -13.140625 9.44921875 C-13.800625 9.44921875 -14.460625 9.44921875 -15.140625 9.44921875 C-15.140625 10.10921875 -15.140625 10.76921875 -15.140625 11.44921875 C-17.140625 13.07421875 -17.140625 13.07421875 -19.140625 14.44921875 C-19.800625 13.78921875 -20.460625 13.12921875 -21.140625 12.44921875 C-23.24883297 12.76773645 -23.24883297 12.76773645 -25.140625 13.44921875 C-25.264375 14.15046875 -25.388125 14.85171875 -25.515625 15.57421875 C-27.25173611 23.56032986 -27.25173611 23.56032986 -30.140625 26.44921875 C-30.92079224 28.82388839 -31.62122045 31.16366838 -32.265625 33.57421875 C-32.44738281 34.23292969 -32.62914063 34.89164063 -32.81640625 35.5703125 C-33.26377937 37.19498331 -33.70299035 38.82189768 -34.140625 40.44921875 C-36.90329805 33.14786855 -31.58102132 23.10762462 -28.640625 16.38671875 C-26.86539408 12.68331394 -25.07461332 9.38320707 -22.140625 6.44921875 C-21.480625 6.44921875 -20.820625 6.44921875 -20.140625 6.44921875 C-20.140625 5.78921875 -20.140625 5.12921875 -20.140625 4.44921875 C-19.480625 4.44921875 -18.820625 4.44921875 -18.140625 4.44921875 C-18.140625 3.78921875 -18.140625 3.12921875 -18.140625 2.44921875 C-12.31569056 -1.22968722 -6.60118908 -1.69848113 0 0 Z " fill="#3981BF" transform="translate(156.140625,147.55078125)"/>
<path d="M0 0 C2.64 0 5.28 0 8 0 C8 0.33 8 0.66 8 1 C6.4221875 1.2475 6.4221875 1.2475 4.8125 1.5 C0.76201322 2.73063079 -0.81347176 4.58265438 -2.8203125 8.2421875 C-7.33941606 18.80671436 -9.66798939 30.35282263 -12.21289062 41.51635742 C-16.27143319 59.2036923 -16.27143319 59.2036923 -21 65 C-21.66 65 -22.32 65 -23 65 C-22.29666462 62.02277453 -21.41751463 59.14743457 -20.4375 56.25 C-20.16808594 55.45078125 -19.89867188 54.6515625 -19.62109375 53.828125 C-19.41613281 53.22484375 -19.21117188 52.6215625 -19 52 C-18.34 52 -17.68 52 -17 52 C-16.87044922 51.15695313 -16.87044922 51.15695313 -16.73828125 50.296875 C-10.13138664 10.77673479 -10.13138664 10.77673479 -2 2 C-1.34 2 -0.68 2 0 2 C0 1.34 0 0.68 0 0 Z " fill="#3F7BAD" transform="translate(144,159)"/>
<path d="M0 0 C0.66 0 1.32 0 2 0 C10.07563166 14.57071156 8.90874342 30.74761321 8.88989258 46.90576172 C8.78247635 49.91088851 8.78247635 49.91088851 10 52 C10.23029956 54.37123246 10.41119942 56.74741943 10.5625 59.125 C10.64628906 60.40632813 10.73007813 61.68765625 10.81640625 63.0078125 C10.87699219 63.99523437 10.93757813 64.98265625 11 66 C3.64166125 57.38296491 5.64980273 42.82869062 5.61914062 32.06884766 C5.57143413 22.0576405 4.14598142 13.55105094 1 4 C0.65154272 2.67053905 0.31064107 1.33880208 0 0 Z " fill="#4077A5" transform="translate(75,126)"/>
<path d="M0 0 C0.33 0 0.66 0 1 0 C1.23074219 1.01578125 1.46148437 2.0315625 1.69921875 3.078125 C4.76697555 18.07888385 4.76697555 18.07888385 12.6875 30.6875 C17.69070058 32.66990023 22.9122048 34.30770431 28.09375 32.11328125 C31.73260601 29.66938855 34.06610319 26.98155226 36 23 C36.75 24.6875 36.75 24.6875 37 27 C35.3125 29.5 35.3125 29.5 33 32 C32.42121094 32.69738281 31.84242188 33.39476562 31.24609375 34.11328125 C27.53406874 37.23138226 23.9467643 36.72111697 19.2734375 36.58984375 C14.09263992 35.65631101 11.27411573 32.96764764 8 29 C7.47921875 28.39542969 6.9584375 27.79085937 6.421875 27.16796875 C4.61336406 24.41048642 3.80304081 21.72295393 2.875 18.5625 C2.54242188 17.45003906 2.20984375 16.33757812 1.8671875 15.19140625 C0.44466734 9.95627576 -0.10675796 5.44465601 0 0 Z " fill="#457DAC" transform="translate(167,195)"/>
<path d="M0 0 C7.84319117 8.96364706 7.75838808 22.02543611 7.25292969 33.28808594 C6.4720727 41.66044061 4.14684218 49.88996109 2 58 C1.67 58 1.34 58 1 58 C0.83739228 53.60959148 0.96357371 49.8023453 1.98828125 45.52734375 C3.27419915 39.32656529 3.33073763 33.25136793 3.3125 26.9375 C3.32861328 25.81794922 3.34472656 24.69839844 3.36132812 23.54492188 C3.36487303 17.50085254 2.9195461 12.44826513 0.66357422 6.81298828 C-0.18498125 4.49460238 -0.23651023 2.44393908 0 0 Z " fill="#457FAD" transform="translate(225,62)"/>
<path d="M0 0 C2 3 2 3 1.609375 5.51953125 C1.32578125 6.60621094 1.0421875 7.69289062 0.75 8.8125 C-1.20255835 17.08887002 -1.67222368 25.4782151 -2.1875 33.9375 C-2.22983765 34.62872955 -2.27217529 35.31995911 -2.3157959 36.03213501 C-2.55723782 40.02071539 -2.784332 44.00994844 -3 48 C-3.66 48 -4.32 48 -5 48 C-5.82033329 15.48640551 -5.82033329 15.48640551 -1 3 C-0.67 2.01 -0.34 1.02 0 0 Z " fill="#E9FBFE" transform="translate(222,130)"/>
<path d="M0 0 C0 0.66 0 1.32 0 2 C-2.77765516 4.46902681 -5.57610974 5.65121394 -9 7 C-10.1135083 7.53415527 -10.1135083 7.53415527 -11.24951172 8.07910156 C-18.08022374 11.22461479 -23.71262369 11.34412177 -31.125 10.75 C-32.176875 10.68425781 -33.22875 10.61851563 -34.3125 10.55078125 C-36.8771021 10.3875793 -39.43835184 10.20370195 -42 10 C-42.66 8.68 -43.32 7.36 -44 6 C-43.360625 6.15855469 -42.72125 6.31710938 -42.0625 6.48046875 C-29.47773963 8.61538346 -15.41617041 8.05211375 -4.2734375 1.36328125 C-2 0 -2 0 0 0 Z " fill="#DDF2FA" transform="translate(180,60)"/>
<path d="M0 0 C0.85305168 2.90669462 1.07289715 5.31048873 0.87890625 8.328125 C0.83056641 9.12734375 0.78222656 9.9265625 0.73242188 10.75 C0.67634766 11.575 0.62027344 12.4 0.5625 13.25 C0.51029297 14.09046875 0.45808594 14.9309375 0.40429688 15.796875 C0.27504311 17.8649352 0.13825726 19.9325222 0 22 C0.66 22 1.32 22 2 22 C2.22127098 24.29045368 2.4266504 26.58244764 2.625 28.875 C2.74101563 30.15117188 2.85703125 31.42734375 2.9765625 32.7421875 C2.98429687 33.81726563 2.99203125 34.89234375 3 36 C2.34 36.66 1.68 37.32 1 38 C-1.33711194 30.90519588 -2.30019734 24.17927148 -2.3125 16.75 C-2.31765625 16.00637207 -2.3228125 15.26274414 -2.328125 14.49658203 C-2.2645649 9.38339897 -1.3965308 4.91845907 0 0 Z " fill="#D0EBF7" transform="translate(82,74)"/>
<path d="M0 0 C0.33 0 0.66 0 1 0 C0.88095895 4.83819585 0.75666534 9.67621904 0.62768555 14.51416016 C0.58460506 16.15702734 0.54291343 17.79993159 0.50268555 19.44287109 C0.44432515 21.81619397 0.38082725 24.18933479 0.31640625 26.5625 C0.29969376 27.28679199 0.28298126 28.01108398 0.26576233 28.75732422 C0.12887092 33.56252014 -0.34140418 38.23748503 -1 43 C-1.33 43 -1.66 43 -2 43 C-2 29.8 -2 16.6 -2 3 C-1.34 3 -0.68 3 0 3 C0 2.01 0 1.02 0 0 Z " fill="#4B80AD" transform="translate(206,141)"/>
<path d="M0 0 C0.33 0 0.66 0 1 0 C1.01981934 0.8343457 1.03963867 1.66869141 1.06005859 2.52832031 C1.15734193 6.43577818 1.26330106 10.34293264 1.375 14.25 C1.40468369 15.30411072 1.40468369 15.30411072 1.43496704 16.3795166 C1.71720133 26.03599066 2.23154477 35.61239089 3.51513672 45.19628906 C4.20184878 50.69722683 4.20184878 50.69722683 2 54 C0.26646795 47.2788143 -0.27151992 41.20125262 -0.1953125 34.27734375 C-0.1924826 33.29125626 -0.18965271 32.30516876 -0.18673706 31.28919983 C-0.17563505 28.17183763 -0.15054945 25.05477383 -0.125 21.9375 C-0.11495729 19.81055105 -0.10583371 17.68359756 -0.09765625 15.55664062 C-0.07572848 10.3709806 -0.04126846 5.18554071 0 0 Z " fill="#4B82AF" transform="translate(93,141)"/>
<path d="M0 0 C0.66 0 1.32 0 2 0 C3.35057194 9.96046803 3.72001962 20.06210885 2 30 C1.67 30.33 1.34 30.66 1 31 C1.061875 32.093125 1.12375 33.18625 1.1875 34.3125 C1 38 1 38 -1 40.4375 C-1.99 41.2109375 -1.99 41.2109375 -3 42 C-2.5279036 37.75113242 -1.93895651 33.66306792 -0.96875 29.5 C0.26120307 23.44424381 0.2222604 17.53233136 0.125 11.375 C0.11597656 10.27542969 0.10695312 9.17585938 0.09765625 8.04296875 C0.07434124 5.36174242 0.0416204 2.68099393 0 0 Z " fill="#E8FBFF" transform="translate(231,74)"/>
<path d="M0 0 C0.66 0.33 1.32 0.66 2 1 C2 1.99 2 2.98 2 4 C1.443125 4.226875 0.88625 4.45375 0.3125 4.6875 C-3.41015737 6.80035959 -6.49746372 9.21828045 -7.6875 13.4375 C-7.8421875 14.7059375 -7.8421875 14.7059375 -8 16 C-9.66666667 21.66666667 -9.66666667 21.66666667 -12 24 C-12.78016724 26.37466964 -13.48059545 28.71444963 -14.125 31.125 C-14.30675781 31.78371094 -14.48851563 32.44242188 -14.67578125 33.12109375 C-15.12315437 34.74576456 -15.56236535 36.37267893 -16 38 C-18.76267305 30.6986498 -13.44039632 20.65840587 -10.5 13.9375 C-8.72476908 10.23409519 -6.93398832 6.93398832 -4 4 C-3.34 4 -2.68 4 -2 4 C-2 3.34 -2 2.68 -2 2 C-1.34 2 -0.68 2 0 2 C0 1.34 0 0.68 0 0 Z " fill="#5A8DB7" transform="translate(138,150)"/>
<path d="M0 0 C2 1 2 1 3 3.625 C3.33 4.73875 3.66 5.8525 4 7 C4.34804687 8.17175781 4.69609375 9.34351563 5.0546875 10.55078125 C5.84176837 13.42265072 6.52580441 16.27236591 7.125 19.1875 C7.64446062 22.99847004 7.64446062 22.99847004 10 25 C10.59834554 26.52056618 11.13506656 28.06612088 11.625 29.625 C11.88539062 30.44226563 12.14578125 31.25953125 12.4140625 32.1015625 C12.60742188 32.72804687 12.80078125 33.35453125 13 34 C4.31071753 26.91984391 2.06600034 14.45696259 0 4 C0 2.68 0 1.36 0 0 Z " fill="#5086B2" transform="translate(83,188)"/>
<path d="M0 0 C0.33 0 0.66 0 1 0 C1.36179893 15.11515522 0.15817942 29.36320844 -4 44 C-4.33 44 -4.66 44 -5 44 C-5.17303612 38.89543451 -4.95792436 35.72205287 -3 31 C-1.94696133 24.57646408 -1.9283084 18.25297391 -2.12451172 11.76049805 C-2.20206776 7.4285152 -1.59582824 4.02399043 0 0 Z " fill="#D1ECF8" transform="translate(203,160)"/>
<path d="M0 0 C3.59835926 6.99595169 5.34455611 14.13423531 6.75 21.8125 C6.88978271 22.55395264 7.02956543 23.29540527 7.17358398 24.05932617 C7.80856451 27.71264447 8.06207343 30.45599249 7 34 C6.80664062 33.40832031 6.61328125 32.81664062 6.4140625 32.20703125 C6.15367187 31.41683594 5.89328125 30.62664062 5.625 29.8125 C5.24214844 28.64654297 5.24214844 28.64654297 4.8515625 27.45703125 C4.02807701 24.97762534 4.02807701 24.97762534 2.93359375 22.55859375 C1.89675996 19.71706181 1.62883611 17.26252592 1.4375 14.25 C1.48764046 10.81311556 1.48764046 10.81311556 0 8 C-0.14115161 5.32941149 -0.04247107 2.67567762 0 0 Z " fill="#C1DFF0" transform="translate(161,177)"/>
<path d="M0 0 C0 0.33 0 0.66 0 1 C-1.2375 0.9690625 -1.2375 0.9690625 -2.5 0.9375 C-11.13080366 1.09162149 -16.89685345 2.84758569 -24.31640625 7.1171875 C-28.96206318 9.7417442 -32.66180193 10.6212365 -38 11 C-37 9 -37 9 -34.890625 8.25390625 C-33.58351562 7.91166016 -33.58351562 7.91166016 -32.25 7.5625 C-27.73266744 6.28280239 -24.2642227 4.5933419 -20.41796875 1.88671875 C-13.84872917 -2.13780487 -7.38911474 -0.95477325 0 0 Z " fill="#4D85B6" transform="translate(198,56)"/>
<path d="M0 0 C0.66 0.33 1.32 0.66 2 1 C-1.08569675 4.81174305 -5.40334328 6.57947319 -10.13916016 7.34643555 C-16.87033991 8.00239865 -23.55147625 8.18330321 -30.3125 8.1875 C-31.37017578 8.19974609 -32.42785156 8.21199219 -33.51757812 8.22460938 C-35.04995117 8.22750977 -35.04995117 8.22750977 -36.61328125 8.23046875 C-37.52891846 8.23457764 -38.44455566 8.23868652 -39.38793945 8.24291992 C-42.24135221 7.9775544 -44.40327397 7.1830474 -47 6 C-43.25 4.875 -43.25 4.875 -41 6 C-27.90362218 7.02631315 -15.00926724 6.59104664 -2.875 1.25 C-1.92625 0.8375 -0.9775 0.425 0 0 Z " fill="#6C9EC5" transform="translate(181,44)"/>
<path d="M0 0 C0.66 0.99 1.32 1.98 2 3 C1.6891748 3.56823486 1.37834961 4.13646973 1.05810547 4.72192383 C-0.00859766 7.01851057 -0.49865859 8.96196565 -0.9296875 11.44921875 C-1.08566406 12.29806641 -1.24164063 13.14691406 -1.40234375 14.02148438 C-1.71385358 15.77855426 -2.02124553 17.53635991 -2.32421875 19.29492188 C-3.44067934 25.3174552 -5.26871725 30.51827053 -8 36 C-10.48987473 27.49829742 -5.92747687 17.10685902 -3 9 C-2.43362219 7.31379756 -1.87106492 5.6263066 -1.3125 3.9375 C-0.875 2.625 -0.4375 1.3125 0 0 Z " fill="#447CAB" transform="translate(126,171)"/>
<path d="M0 0 C4.49795931 0.8776506 6.84011367 3.48865914 9.4375 7.125 C9.994375 8.300625 9.994375 8.300625 10.5625 9.5 C10.2325 10.16 9.9025 10.82 9.5625 11.5 C3.8125 6.875 3.8125 6.875 1.5625 3.5 C0.5725 3.995 0.5725 3.995 -0.4375 4.5 C-0.4375 3.84 -0.4375 3.18 -0.4375 2.5 C-1.0975 2.5 -1.7575 2.5 -2.4375 2.5 C-3.0975 4.48 -3.7575 6.46 -4.4375 8.5 C-5.0975 8.5 -5.7575 8.5 -6.4375 8.5 C-6.4375 9.16 -6.4375 9.82 -6.4375 10.5 C-7.0975 10.5 -7.7575 10.5 -8.4375 10.5 C-7.05027037 5.41349135 -5.59853922 1.1484183 0 0 Z " fill="#DFF3F9" transform="translate(148.4375,159.5)"/>
<path d="M0 0 C0.66 0 1.32 0 2 0 C4.99382253 6.6432843 5.43037188 12.20016639 5.3125 19.4375 C5.31572266 20.42298828 5.31894531 21.40847656 5.32226562 22.42382812 C5.27744852 28.5719196 4.54469655 34.04891807 3 40 C1.17682207 36.64610678 0.86012115 35.27745777 1.875 31.5625 C3.98288765 22.28231933 3.56766374 13.12738862 1 4 C0.66394072 2.66735112 0.32983631 1.33420272 0 0 Z " fill="#3E77A6" transform="translate(215,70)"/>
<path d="M0 0 C0.66 0 1.32 0 2 0 C2.49115404 12.33342369 -0.12698104 23.34334099 -4 35 C-4.33 35 -4.66 35 -5 35 C-5.173358 29.88593909 -4.97022229 26.747436 -3 22 C-1.27595373 14.76576664 -0.54415813 7.40341454 0 0 Z " fill="#3C76A7" transform="translate(214,176)"/>
<path d="M0 0 C2 3 2 3 1.828125 5.41015625 C1.63734375 6.28542969 1.4465625 7.16070312 1.25 8.0625 C1.06953125 8.94035156 0.8890625 9.81820312 0.703125 10.72265625 C0 13 0 13 -2 15 C-3.12308871 19.89398922 -3.30406396 24.87574548 -3.5625 29.875 C-3.60568359 30.65875 -3.64886719 31.4425 -3.69335938 32.25 C-3.79853351 34.16650649 -3.89967925 36.08323333 -4 38 C-4.33 38 -4.66 38 -5 38 C-5.45476326 25.55717198 -5.01650969 14.85596234 -1 3 C-0.67 2.01 -0.34 1.02 0 0 Z " fill="#C8E5F4" transform="translate(222,130)"/>
<path d="M0 0 C2.52573937 1.26286969 2.61582638 2.08538665 3.5625 4.6875 C3.81128906 5.35136719 4.06007812 6.01523438 4.31640625 6.69921875 C5.77930923 11.62293222 6.13718528 16.3821837 6.125 21.5 C6.12757813 22.5828125 6.13015625 23.665625 6.1328125 24.78125 C6.00272728 27.93390353 5.5876874 30.90298066 5 34 C4.67 34 4.34 34 4 34 C3.8312433 31.125109 3.66492885 28.25011104 3.5 25.375 C3.45230469 24.56675781 3.40460938 23.75851563 3.35546875 22.92578125 C3.15937056 19.48005597 2.99948745 16.07389259 3.0234375 12.62109375 C2.99466727 9.40362303 2.23793541 6.95729015 1 4 C0.34 3.67 -0.32 3.34 -1 3 C-0.67 2.01 -0.34 1.02 0 0 Z " fill="#C6E3F2" transform="translate(213,68)"/>
<path d="M0 0 C0.33 0 0.66 0 1 0 C1 10.23 1 20.46 1 31 C-2.51601771 25.72597344 -2.18315 21.2410973 -2.1875 15.125 C-2.19974609 14.22652344 -2.21199219 13.32804687 -2.22460938 12.40234375 C-2.23472976 7.8346773 -2.19070769 4.13896552 0 0 Z " fill="#306E9F" transform="translate(80,76)"/>
<path d="M0 0 C4.78563673 4.10197434 6.49172566 10.05751618 8.1875 15.9375 C8.53167969 17.10152344 8.87585938 18.26554687 9.23046875 19.46484375 C10.01887543 23.08671202 10.13682913 26.30561338 10 30 C8.48776118 27.12620955 7.33758555 24.26998417 6.30859375 21.19140625 C5.85129883 19.82338867 5.85129883 19.82338867 5.38476562 18.42773438 C4.91586914 17.00944336 4.91586914 17.00944336 4.4375 15.5625 C4.12103516 14.62083984 3.80457031 13.67917969 3.47851562 12.70898438 C3.17494141 11.79568359 2.87136719 10.88238281 2.55859375 9.94140625 C2.28329834 9.11326416 2.00800293 8.28512207 1.72436523 7.43188477 C0.9912524 4.97063202 0.46385327 2.52461075 0 0 Z " fill="#3C76A7" transform="translate(157,164)"/>
<path d="M0 0 C1.11761719 -0.00193359 1.11761719 -0.00193359 2.2578125 -0.00390625 C3.02609375 -0.00003906 3.794375 0.00382812 4.5859375 0.0078125 C5.36195312 0.00394531 6.13796875 0.00007813 6.9375 -0.00390625 C12.70753484 0.00611117 12.70753484 0.00611117 14.9609375 1.1328125 C14.9609375 1.7928125 14.9609375 2.4528125 14.9609375 3.1328125 C15.9509375 3.4628125 16.9409375 3.7928125 17.9609375 4.1328125 C16.836875 3.96910156 15.7128125 3.80539063 14.5546875 3.63671875 C9.84373274 3.0478494 5.20219909 3.02011999 0.4609375 3.0703125 C-0.77269531 3.07708008 -0.77269531 3.07708008 -2.03125 3.08398438 C-4.03388646 3.09562761 -6.03648477 3.11355694 -8.0390625 3.1328125 C-8.0390625 2.4728125 -8.0390625 1.8128125 -8.0390625 1.1328125 C-5.29406407 0.36047011 -2.84886983 0.00473571 0 0 Z " fill="#D1EBF7" transform="translate(104.0390625,39.8671875)"/>
<path d="M0 0 C2 3 2 3 1.625 5.1875 C1.41875 5.785625 1.2125 6.38375 1 7 C0.34 7 -0.32 7 -1 7 C-1.33 8.32 -1.66 9.64 -2 11 C-5.31481265 12.10493755 -7.66131116 12.05432279 -11 11 C-11.66 10.01 -12.32 9.02 -13 8 C-12.67 7.01 -12.34 6.02 -12 5 C-11.67 5.99 -11.34 6.98 -11 8 C-8.03 8.495 -8.03 8.495 -5 9 C-4.360625 7.88625 -3.72125 6.7725 -3.0625 5.625 C-2.52302734 4.68527344 -2.52302734 4.68527344 -1.97265625 3.7265625 C-1.28280949 2.50201525 -0.62855462 1.25710923 0 0 Z " fill="#3C7AAD" transform="translate(116,208)"/>
<path d="M0 0 C3.15605609 3.15605609 3.09755251 7.517066 3.76757812 11.79492188 C4.57861888 16.59395307 5.92568338 20.59135492 8 25 C7.34 25.33 6.68 25.66 6 26 C1.2465056 17.7606097 -0.1686788 9.47412572 0 0 Z " fill="#3B75A7" transform="translate(177,190)"/>
<path d="M0 0 C0.99 0 1.98 0 3 0 C3 0.66 3 1.32 3 2 C2.34 2 1.68 2 1 2 C1 2.66 1 3.32 1 4 C0.236875 4.7425 -0.52625 5.485 -1.3125 6.25 C-4.02633951 9.02695205 -5.44202297 11.47405199 -7 15 C-7.33 15 -7.66 15 -8 15 C-8.4221879 10.35593314 -7.25871586 7.0501112 -5 3 C-2.3125 2.0625 -2.3125 2.0625 0 2 C0 1.34 0 0.68 0 0 Z " fill="#DFF2F8" transform="translate(135,150)"/>
<path d="M0 0 C0.75410156 0.00451172 1.50820312 0.00902344 2.28515625 0.01367188 C4.14847127 0.02546501 6.01174555 0.04340058 7.875 0.0625 C7.875 0.3925 7.875 0.7225 7.875 1.0625 C4.575 1.3925 1.275 1.7225 -2.125 2.0625 C-2.125 3.0525 -2.125 4.0425 -2.125 5.0625 C-2.72828125 5.05089844 -3.3315625 5.03929687 -3.953125 5.02734375 C-4.75234375 5.01832031 -5.5515625 5.00929688 -6.375 5 C-7.16390625 4.98839844 -7.9528125 4.97679687 -8.765625 4.96484375 C-11.03191002 5.05864694 -12.9538895 5.43008937 -15.125 6.0625 C-15.125 5.4025 -15.125 4.7425 -15.125 4.0625 C-13.475 3.7325 -11.825 3.4025 -10.125 3.0625 C-10.125 2.4025 -10.125 1.7425 -10.125 1.0625 C-6.93675432 -0.53162284 -3.49603338 -0.03924735 0 0 Z " fill="#4584B8" transform="translate(106.125,41.9375)"/>
<path d="M0 0 C1.10555457 3.4579752 0.98902656 6.39968291 0.6875 10 C0.60886719 11.03125 0.53023437 12.0625 0.44921875 13.125 C0.01769871 15.88672826 -0.43678221 17.69518742 -2 20 C-2.99 20.33 -3.98 20.66 -5 21 C-1.92482916 6.21867882 -1.92482916 6.21867882 0 0 Z " fill="#C9E6F3" transform="translate(132,197)"/>
<path d="M0 0 C3.1875 1.625 3.1875 1.625 6.1875 3.625 C-0.7425 2.965 -7.6725 2.305 -14.8125 1.625 C-14.8125 0.965 -14.8125 0.305 -14.8125 -0.375 C-9.71181543 -2.07522819 -4.93566426 -2.07486523 0 0 Z " fill="#D6EDF7" transform="translate(200.8125,41.375)"/>
<path d="M0 0 C2.64 0 5.28 0 8 0 C8 0.33 8 0.66 8 1 C6.4221875 1.2475 6.4221875 1.2475 4.8125 1.5 C0.58612055 2.71241592 -0.86031405 5.02180354 -2.93359375 8.7578125 C-4.5282731 12.11072806 -5.80691912 15.48355108 -7 19 C-8.318017 15.3817495 -7.67521057 13.42284315 -6.1875 9.9375 C-5.65189453 8.65166016 -5.65189453 8.65166016 -5.10546875 7.33984375 C-4 5 -4 5 -2 2 C-1.34 2 -0.68 2 0 2 C0 1.34 0 0.68 0 0 Z " fill="#3775A4" transform="translate(144,159)"/>
<path d="M0 0 C2.06298134 2.06298134 2.52716916 3.12265237 3.4375 5.8125 C4.62605485 9.14166639 6.05199978 12.03161872 8 15 C4.62453728 14.3972388 2.47676787 13.39420894 0 11 C-0.390625 8.30078125 -0.390625 8.30078125 -0.25 5.3125 C-0.21390625 4.31863281 -0.1778125 3.32476562 -0.140625 2.30078125 C-0.09421875 1.54152344 -0.0478125 0.78226563 0 0 Z " fill="#D1E8F3" transform="translate(169,211)"/>
<path d="M0 0 C0.66 0 1.32 0 2 0 C0.51708173 6.54955571 -1.62311735 12.72318367 -4 19 C-4.33 19 -4.66 19 -5 19 C-4.88529863 17.24929483 -4.75780972 15.49942464 -4.625 13.75 C-4.55539063 12.77546875 -4.48578125 11.8009375 -4.4140625 10.796875 C-4.01534751 8.10366811 -3.36492937 6.33036721 -2 4 C-1.34 4 -0.68 4 0 4 C0 2.68 0 1.36 0 0 Z " fill="#CFEAF6" transform="translate(212,114)"/>
<path d="M0 0 C2.72253668 5.44507336 -0.41183419 13.54068002 -2 19 C-2.43296522 21.99227077 -2.74047081 24.98809542 -3 28 C-3.33 28 -3.66 28 -4 28 C-4.38491906 21.27104457 -3.81456451 14.97181949 -2.5625 8.375 C-2.360802 7.30862305 -2.360802 7.30862305 -2.1550293 6.22070312 C-1.14123326 1.14123326 -1.14123326 1.14123326 0 0 Z " fill="#78A4C8" transform="translate(70,68)"/>
<path d="M0 0 C0 0.66 0 1.32 0 2 C-2.75834425 4.45186156 -5.57451735 5.70387143 -9 7 C-9.33 7.33 -9.66 7.66 -10 8 C-11.68608966 8.07205511 -13.37500659 8.08386068 -15.0625 8.0625 C-15.98160156 8.05347656 -16.90070313 8.04445313 -17.84765625 8.03515625 C-18.55792969 8.02355469 -19.26820313 8.01195313 -20 8 C-20 7.67 -20 7.34 -20 7 C-19.11957031 6.74605469 -18.23914063 6.49210937 -17.33203125 6.23046875 C-16.17058594 5.88628906 -15.00914062 5.54210937 -13.8125 5.1875 C-12.66394531 4.85105469 -11.51539063 4.51460938 -10.33203125 4.16796875 C-6.88108787 2.95831802 -3.59767887 0 0 0 Z " fill="#CCE7F5" transform="translate(180,60)"/>
<path d="M0 0 C0.66 0 1.32 0 2 0 C1.67 1.32 1.34 2.64 1 4 C-0.95825873 4.02694851 -2.91662226 4.04637218 -4.875 4.0625 C-5.96554688 4.07410156 -7.05609375 4.08570313 -8.1796875 4.09765625 C-11 4 -11 4 -13 3 C-13 2.34 -13 1.68 -13 1 C-11.71802734 1.01740234 -11.71802734 1.01740234 -10.41015625 1.03515625 C-8.75306641 1.04869141 -8.75306641 1.04869141 -7.0625 1.0625 C-5.40927734 1.07990234 -5.40927734 1.07990234 -3.72265625 1.09765625 C-1.08552366 1.31262571 -1.08552366 1.31262571 0 0 Z " fill="#5387B3" transform="translate(115,227)"/>
<path d="M0 0 C1.37344385 4.39844322 0.24307502 7.92504555 -0.9375 12.25 C-1.23043945 13.36761719 -1.23043945 13.36761719 -1.52929688 14.5078125 C-2.01104198 16.34079386 -2.50439225 18.17071818 -3 20 C-3.33 20 -3.66 20 -4 20 C-4.22857874 13.82837394 -3.79074848 7.94705358 -2 2 C-1.34 1.34 -0.68 0.68 0 0 Z " fill="#4E85B0" transform="translate(230,100)"/>
<path d="M0 0 C2.86328125 -0.36328125 2.86328125 -0.36328125 6.3125 -0.3125 C7.44300781 -0.30863281 8.57351562 -0.30476563 9.73828125 -0.30078125 C12.89449382 -0.00972931 15.1501454 0.65794839 18 2 C15.703463 3.1482685 14.41686833 3.11561175 11.8671875 3.09765625 C11.06152344 3.09443359 10.25585938 3.09121094 9.42578125 3.08789062 C8.58402344 3.07951172 7.74226562 3.07113281 6.875 3.0625 C6.02550781 3.05798828 5.17601562 3.05347656 4.30078125 3.04882812 C2.20049091 3.03702874 0.1002367 3.01909306 -2 3 C-1.34 2.01 -0.68 1.02 0 0 Z " fill="#497EAD" transform="translate(184,43)"/>
<path d="M0 0 C0.33 0 0.66 0 1 0 C1.09765625 6.15234375 1.09765625 6.15234375 1 8 C0.67 8.33 0.34 8.66 0 9 C0.061875 10.093125 0.12375 11.18625 0.1875 12.3125 C0 16 0 16 -2 18.4375 C-2.99 19.2109375 -2.99 19.2109375 -4 20 C-3.34034961 13.13963599 -1.7637236 6.65556077 0 0 Z " fill="#D6F0F9" transform="translate(232,96)"/>
<path d="M0 0 C5.73783544 0.44137196 10.29517116 2.82052619 15 6 C15.33 6.66 15.66 7.32 16 8 C11.85701333 7.40165275 8.81805623 5.99335715 5.1875 3.9375 C4.21167969 3.38964844 3.23585938 2.84179688 2.23046875 2.27734375 C1.49441406 1.85582031 0.75835937 1.43429688 0 1 C0 0.67 0 0.34 0 0 Z " fill="#477EAE" transform="translate(119,56)"/>
<path d="M0 0 C0.66 0 1.32 0 2 0 C2 0.66 2 1.32 2 2 C2.66 2 3.32 2 4 2 C3.67 3.98 3.34 5.96 3 8 C3.66 8 4.32 8 5 8 C5 12.29 5 16.58 5 21 C3.10278759 18.15418139 2.65208719 16.99746788 2.1484375 13.76953125 C2.01953125 12.96708984 1.890625 12.16464844 1.7578125 11.33789062 C1.63148438 10.50451172 1.50515625 9.67113281 1.375 8.8125 C1.2409375 7.96751953 1.106875 7.12253906 0.96875 6.25195312 C0.63924338 4.16900055 0.31875011 2.08462573 0 0 Z " fill="#C0DFF2" transform="translate(176,182)"/>
<path d="M0 0 C1.30009681 3.90029042 0.40794184 5.73511117 -0.8125 9.625 C-1.16957031 10.79289063 -1.52664062 11.96078125 -1.89453125 13.1640625 C-3 16 -3 16 -5 17 C-5.6267316 11.04604982 -3.48006962 6.28882316 -1 1 C-0.67 0.67 -0.34 0.34 0 0 Z " fill="#3B77A9" transform="translate(213,119)"/>
<path d="M0 0 C1.61147925 2.99274717 2.64053476 5.9195918 3.5625 9.1875 C4.28366788 12.37123845 4.28366788 12.37123845 6 15 C6.04063832 16.66617115 6.042721 18.33388095 6 20 C5.34 20 4.68 20 4 20 C3.32331051 17.79471728 2.65906502 15.58561391 2 13.375 C1.62875 12.14523438 1.2575 10.91546875 0.875 9.6484375 C0.06272281 6.26153174 -0.17041013 3.46145571 0 0 Z " fill="#3B78AC" transform="translate(69,102)"/>
<path d="M0 0 C0.33 0 0.66 0 1 0 C1.48389805 7.74236877 0.38869494 13.41695759 -4 20 C-3.42978625 13.04339229 -1.98697306 6.68572695 0 0 Z " fill="#D6EFFA" transform="translate(137,176)"/>
<path d="M0 0 C2.54141489 2.54141489 2.75651667 4.45615838 3.5625 7.9375 C4.28469543 11.01712092 4.9994349 13.9983047 6 17 C5.01 16.67 4.02 16.34 3 16 C2.67 13.36 2.34 10.72 2 8 C1.34 8 0.68 8 0 8 C0 5.36 0 2.72 0 0 Z " fill="#4880B0" transform="translate(86,120)"/>
<path d="M0 0 C3 0 3 0 5.1875 1.5 C7.81124472 5.11895823 7.29356276 7.59655862 7 12 C0 2.9 0 2.9 0 0 Z " fill="#D9EEF6" transform="translate(221,54)"/>
<path d="M0 0 C1.15135948 3.36257967 0.84143675 5.15773777 -0.4375 8.4375 C-1.43089383 11.15485532 -2 12.8931931 -2 15.8125 C-2 18.70731747 -3.11909695 19.88398407 -5 22 C-5.6875 20.4375 -5.6875 20.4375 -6 18 C-5.33419286 16.36877251 -4.65672766 14.74063949 -3.90234375 13.1484375 C-2.12839827 8.92475778 -1.12984026 4.43121748 0 0 Z " fill="#C1DEED" transform="translate(212,200)"/>
<path d="M0 0 C0.58265625 0.21527344 1.1653125 0.43054687 1.765625 0.65234375 C0.47626581 1.80077298 -0.81594079 2.94600602 -2.109375 4.08984375 C-2.82867187 4.72792969 -3.54796875 5.36601563 -4.2890625 6.0234375 C-6.234375 7.65234375 -6.234375 7.65234375 -8.234375 8.65234375 C-8.564375 7.33234375 -8.894375 6.01234375 -9.234375 4.65234375 C-8.16330383 3.78285058 -7.07691556 2.9322017 -5.984375 2.08984375 C-5.38109375 1.61417969 -4.7778125 1.13851562 -4.15625 0.6484375 C-2.234375 -0.34765625 -2.234375 -0.34765625 0 0 Z " fill="#E1F6FB" transform="translate(84.234375,47.34765625)"/>
<path d="M0 0 C0.66 0.33 1.32 0.66 2 1 C0.8553125 2.3303125 0.8553125 2.3303125 -0.3125 3.6875 C-2.50927111 6.31488818 -4.32560685 9.00371753 -6 12 C-6.71484375 10.265625 -6.71484375 10.265625 -7 8 C-5.56640625 5.859375 -5.56640625 5.859375 -3.5625 3.75 C-2.57443359 2.69039062 -2.57443359 2.69039062 -1.56640625 1.609375 C-1.04949219 1.07828125 -0.53257813 0.5471875 0 0 Z " fill="#C6E2F2" transform="translate(92,59)"/>
<path d="M0 0 C0.66 1.32 1.32 2.64 2 4 C-1.87564767 7.61139896 -1.87564767 7.61139896 -4 9 C-6.375 8.8125 -6.375 8.8125 -8 8 C-7.01 7.67 -6.02 7.34 -5 7 C-4.67 6.01 -4.34 5.02 -4 4 C-3.34 4 -2.68 4 -2 4 C-2 3.34 -2 2.68 -2 2 C-1.34 2 -0.68 2 0 2 C0 1.34 0 0.68 0 0 Z " fill="#D1ECF5" transform="translate(205,220)"/>
<path d="M0 0 C-0.598125 0.20625 -1.19625 0.4125 -1.8125 0.625 C-4.81018767 2.50926082 -5.61361776 4.81132084 -7 8 C-7.66 8 -8.32 8 -9 8 C-9 8.66 -9 9.32 -9 10 C-9.66 10 -10.32 10 -11 10 C-9.26873217 3.65201794 -7.20700882 -0.80077876 0 0 Z " fill="#C3E2F2" transform="translate(151,160)"/>
<path d="M0 0 C1 2 1 2 0.1875 4.6875 C-0.4003125 6.3271875 -0.4003125 6.3271875 -1 8 C-1.69456805 10.32610375 -2.34541147 12.66218382 -3 15 C-3.33 15 -3.66 15 -4 15 C-4.34650743 9.34037856 -3.48055609 5.96111218 -1 1 C-0.67 0.67 -0.34 0.34 0 0 Z " fill="#3B78AA" transform="translate(74,62)"/>
<path d="M0 0 C0.59425781 0.20882812 1.18851563 0.41765625 1.80078125 0.6328125 C1.25808594 1.03113281 0.71539062 1.42945313 0.15625 1.83984375 C-0.91689453 2.63455078 -0.91689453 2.63455078 -2.01171875 3.4453125 C-3.07326172 4.22841797 -3.07326172 4.22841797 -4.15625 5.02734375 C-5.98453268 6.46410127 -7.59818563 7.95097013 -9.19921875 9.6328125 C-8.99000232 5.97152498 -8.05063524 4.15332431 -5.38671875 1.7578125 C-2.19921875 -0.3671875 -2.19921875 -0.3671875 0 0 Z " fill="#4079AE" transform="translate(95.19921875,56.3671875)"/>
<path d="M0 0 C0.66 0.99 1.32 1.98 2 3 C1.70351562 3.54140625 1.40703125 4.0828125 1.1015625 4.640625 C-0.14093517 7.30186114 -0.88123126 9.91015574 -1.625 12.75 C-1.88539062 13.73484375 -2.14578125 14.7196875 -2.4140625 15.734375 C-2.70410156 16.85585937 -2.70410156 16.85585937 -3 18 C-4.63129887 13.93714243 -3.29968777 10.79897816 -2.0625 6.75 C-1.68222656 5.48671875 -1.30195312 4.2234375 -0.91015625 2.921875 C-0.60980469 1.95765625 -0.30945313 0.9934375 0 0 Z " fill="#3172A7" transform="translate(126,171)"/>
<path d="M0 0 C2.37948772 0.17625835 3.70225849 0.69719773 5.37890625 2.40234375 C6.62115486 3.90649092 7.81376056 5.45129851 9 7 C8 9 8 9 6 10 C5.566875 9.0925 5.13375 8.185 4.6875 7.25 C3.29482729 4.56781551 1.88887243 2.33860395 0 0 Z " fill="#447FAF" transform="translate(161,154)"/>
<path d="M0 0 C3.65866294 4.32387438 5 8.34923902 5 14 C4.34 14 3.68 14 3 14 C-0.44419134 4.58997722 -0.44419134 4.58997722 0 0 Z " fill="#437CA9" transform="translate(225,62)"/>
<path d="M0 0 C-9.41002278 4.59225513 -9.41002278 4.59225513 -14 4 C-13 2 -13 2 -10.8203125 1.11328125 C-9.93085938 0.84902344 -9.04140625 0.58476563 -8.125 0.3125 C-7.24070313 0.04050781 -6.35640625 -0.23148438 -5.4453125 -0.51171875 C-3 -1 -3 -1 0 0 Z " fill="#4781AF" transform="translate(174,63)"/>
<path d="M0 0 C1 2 1 2 0.22265625 4.6015625 C-0.16019531 5.59929687 -0.54304687 6.59703125 -0.9375 7.625 C-1.50791016 9.12933594 -1.50791016 9.12933594 -2.08984375 10.6640625 C-2.39019531 11.43492187 -2.69054687 12.20578125 -3 13 C-3.66 13 -4.32 13 -5 13 C-4.68950274 11.56206608 -4.3765224 10.1246682 -4.0625 8.6875 C-3.88847656 7.88699219 -3.71445313 7.08648437 -3.53515625 6.26171875 C-3 4 -3 4 -2 1 C-1.34 0.67 -0.68 0.34 0 0 Z " fill="#EFFDFD" transform="translate(214,203)"/>
<path d="M0 0 C2.45823172 3.68734758 3.01242616 6.69699971 4 11 C2.68 11 1.36 11 0 11 C0 7.37 0 3.74 0 0 Z " fill="#C8E3F1" transform="translate(76,130)"/>
<path d="M0 0 C2.95183101 2.95183101 3.08663988 5.95511947 4 10 C3.01 10.33 2.02 10.66 1 11 C-0.20272819 8.59454362 -0.10071472 7.05003047 -0.0625 4.375 C-0.05347656 3.55773437 -0.04445313 2.74046875 -0.03515625 1.8984375 C-0.02355469 1.27195312 -0.01195313 0.64546875 0 0 Z " fill="#D7ECF8" transform="translate(72,120)"/>
<path d="M0 0 C0.33 0 0.66 0 1 0 C0.03644647 9.41002278 0.03644647 9.41002278 -1 14 C-3 11 -3 11 -2.75 8.6875 C-1.93116583 5.75334421 -1.00329153 2.87610238 0 0 Z " fill="#DAF3FD" transform="translate(118,194)"/>
<path d="M0 0 C0.66 0 1.32 0 2 0 C1.49202991 4.3177458 0.80317221 8.03302114 -1 12 C-1.66 11.34 -2.32 10.68 -3 10 C-2.67 9.67 -2.34 9.34 -2 9 C-1.60851239 7.48834346 -1.26027543 5.96530368 -0.9375 4.4375 C-0.76089844 3.61121094 -0.58429688 2.78492187 -0.40234375 1.93359375 C-0.26957031 1.29550781 -0.13679687 0.65742187 0 0 Z " fill="#E0F7FE" transform="translate(215,102)"/>
<path d="M0 0 C5.4852071 0.60946746 5.4852071 0.60946746 7.8125 2.375 C9 4 9 4 10 7 C8.35 6.67 6.7 6.34 5 6 C5 4.68 5 3.36 5 2 C3.35 2 1.7 2 0 2 C0 1.34 0 0.68 0 0 Z " fill="#4D89BE" transform="translate(125,46)"/>
<path d="M0 0 C2.22825644 2.22825644 2.69239369 3.65761628 3.625 6.625 C3.88539062 7.44226563 4.14578125 8.25953125 4.4140625 9.1015625 C4.60742188 9.72804687 4.80078125 10.35453125 5 11 C2.66475218 8.74259377 0.81294927 6.7194239 -1 4 C-0.625 1.8125 -0.625 1.8125 0 0 Z " fill="#437BAB" transform="translate(91,211)"/>
<path d="M0 0 C2.85793316 2.85793316 2.40799941 5.14665584 2.625 9.125 C2.69976562 10.40632812 2.77453125 11.68765625 2.8515625 13.0078125 C2.92503906 14.48894531 2.92503906 14.48894531 3 16 C-0.13107836 12.61416198 -0.33550778 10.28890538 -0.1875 5.75 C-0.14689453 4.13351563 -0.14689453 4.13351563 -0.10546875 2.484375 C-0.07066406 1.66453125 -0.03585938 0.8446875 0 0 Z " fill="#387BB5" transform="translate(83,176)"/>
<path d="M0 0 C0.66666667 1.33333333 1.33333333 2.66666667 2 4 C2.391875 4.66 2.78375 5.32 3.1875 6 C4.17413108 8.42863035 3.86626039 9.57447091 3 12 C3 11.34 3 10.68 3 10 C2.34 10 1.68 10 1 10 C-0.60725635 6.78548731 -0.05748185 3.56387464 0 0 Z " fill="#5388B3" transform="translate(82,108)"/>
<path d="M0 0 C0.99 0 1.98 0 3 0 C3.33 3.96 3.66 7.92 4 12 C1.94116077 7.88232154 1.03834872 4.45006595 0 0 Z " fill="#DCF2FB" transform="translate(85,114)"/>
<path d="M0 0 C0.66 0 1.32 0 2 0 C2.33 1.65 2.66 3.3 3 5 C5.97 5.495 5.97 5.495 9 6 C8.67 6.66 8.34 7.32 8 8 C6.35 8 4.7 8 3 8 C2.01 5.36 1.02 2.72 0 0 Z " fill="#B7DCF2" transform="translate(183,210)"/>
<path d="M0 0 C1 3 1 3 0.22265625 5.04296875 C-0.16019531 5.75066406 -0.54304687 6.45835937 -0.9375 7.1875 C-1.31777344 7.90292969 -1.69804687 8.61835938 -2.08984375 9.35546875 C-2.54037109 10.16951172 -2.54037109 10.16951172 -3 11 C-3.33 11 -3.66 11 -4 11 C-4.25 5.375 -4.25 5.375 -2 2 C-1.34 2 -0.68 2 0 2 C0 1.34 0 0.68 0 0 Z " fill="#D5EFF9" transform="translate(196,205)"/>
<path d="M0 0 C1 2 1 2 0.375 4.5 C-1 7 -1 7 -6 9 C-4.02 6.03 -2.04 3.06 0 0 Z " fill="#BEDEEE" transform="translate(126,218)"/>
<path d="M0 0 C0.33 0.99 0.66 1.98 1 3 C1.66 3.33 2.32 3.66 3 4 C1.35 5.65 -0.3 7.3 -2 9 C-2.33 8.34 -2.66 7.68 -3 7 C-2.67 6.01 -2.34 5.02 -2 4 C-1.34 4 -0.68 4 0 4 C0 2.68 0 1.36 0 0 Z " fill="#CAE6F1" transform="translate(227,116)"/>
<path d="M0 0 C0.99 0 1.98 0 3 0 C1.25 5.75 1.25 5.75 -1 8 C-1.125 2.25 -1.125 2.25 0 0 Z " fill="#D7EFF8" transform="translate(113,208)"/>
<path d="M0 0 C0.66 0 1.32 0 2 0 C1.01 2.97 0.02 5.94 -1 9 C-1.33 9 -1.66 9 -2 9 C-2.25 3.375 -2.25 3.375 0 0 Z " fill="#D2ECF7" transform="translate(72,59)"/>
<path d="M0 0 C3.4375 1.25 3.4375 1.25 7 3 C7.9375 5.1875 7.9375 5.1875 8 7 C6.02 6.01 4.04 5.02 2 4 C2 3.34 2 2.68 2 2 C1.34 2 0.68 2 0 2 C0 1.34 0 0.68 0 0 Z " fill="#3F7BAB" transform="translate(209,47)"/>
<path d="M0 0 C2 2 2 2 2.1953125 3.9453125 C2.13020833 5.96354167 2.06510417 7.98177083 2 10 C-0.58787727 7.41212273 -0.62709152 5.57992139 -1 2 C-0.67 1.34 -0.34 0.68 0 0 Z " fill="#D4EDF9" transform="translate(101,200)"/>
<path d="M0 0 C0.33 0 0.66 0 1 0 C1.36923077 5.41538462 1.36923077 5.41538462 -0.5 8.375 C-0.995 8.91125 -1.49 9.4475 -2 10 C-3.39195915 5.82412255 -1.82323219 3.86525224 0 0 Z " fill="#4A83AB" transform="translate(197,205)"/>
</svg>
