<?xml version="1.0" encoding="UTF-8"?>
<svg version="1.1" xmlns="http://www.w3.org/2000/svg" width="401" height="307">
<path d="M0 0 C132.33 0 264.66 0 401 0 C401 101.31 401 202.62 401 307 C268.67 307 136.34 307 0 307 C0 205.69 0 104.38 0 0 Z " fill="#FDFEFE" transform="translate(0,0)"/>
<path d="M0 0 C9.05620474 5.86842067 16.1979772 12.53790849 19.53515625 23.109375 C21.88039757 35.20819002 18.69781575 44.7115768 12.86328125 55.23046875 C9.25179391 60.36832055 2.56009977 63.74546879 -3.046875 66.265625 C-4.696875 66.265625 -6.346875 66.265625 -8.046875 66.265625 C-8.046875 72.865625 -8.046875 79.465625 -8.046875 86.265625 C-4.97632812 86.23082031 -4.97632812 86.23082031 -1.84375 86.1953125 C0.14534011 86.18140278 2.13443144 86.16756509 4.12353516 86.15576172 C5.50279815 86.14572247 6.88203996 86.13208823 8.26123047 86.11474609 C10.2469764 86.09040746 12.2328795 86.08019245 14.21875 86.0703125 C15.41274414 86.05983887 16.60673828 86.04936523 17.83691406 86.03857422 C20.84345389 86.25763423 22.53888411 86.48423635 24.953125 88.265625 C25.86527379 92.12471605 26.21444731 94.48165808 24.953125 98.265625 C21.55360292 100.69948867 18.29346022 100.49668057 14.21875 100.4609375 C12.92324219 100.45449219 11.62773437 100.44804687 10.29296875 100.44140625 C8.92968481 100.42469693 7.56640356 100.40776706 6.203125 100.390625 C4.82422515 100.3805884 3.44531835 100.37146373 2.06640625 100.36328125 C-1.30486382 100.33970593 -4.67578136 100.3067977 -8.046875 100.265625 C-8.03116455 101.06782471 -8.0154541 101.87002441 -7.99926758 102.6965332 C-7.93698917 106.32365904 -7.89790636 109.95067249 -7.859375 113.578125 C-7.83423828 114.84076172 -7.80910156 116.10339844 -7.78320312 117.40429688 C-7.77353516 118.61279297 -7.76386719 119.82128906 -7.75390625 121.06640625 C-7.7381958 122.18184814 -7.72248535 123.29729004 -7.70629883 124.4465332 C-8.046875 127.265625 -8.046875 127.265625 -9.34643555 129.12963867 C-12.20607382 131.04003306 -14.72830996 130.62118554 -18.046875 130.265625 C-19.74731445 129.12963867 -19.74731445 129.12963867 -21.046875 127.265625 C-21.38745117 124.4465332 -21.38745117 124.4465332 -21.33984375 121.06640625 C-21.3253418 119.25366211 -21.3253418 119.25366211 -21.31054688 117.40429688 C-21.28541016 116.14166016 -21.26027344 114.87902344 -21.234375 113.578125 C-21.22083984 112.30388672 -21.20730469 111.02964844 -21.19335938 109.71679688 C-21.15795699 106.56598443 -21.1085729 103.41601455 -21.046875 100.265625 C-24.5477693 100.34736673 -28.04702993 100.46012768 -31.546875 100.578125 C-32.52914062 100.60068359 -33.51140625 100.62324219 -34.5234375 100.64648438 C-42.82861486 100.95100754 -49.8512484 102.2470163 -56.046875 108.265625 C-60.25909629 114.28308399 -60.63176839 120.0844339 -60.046875 127.265625 C-58.75792703 133.37174292 -55.6188957 138.07182499 -51.046875 142.265625 C-45.33596079 145.83494638 -39.71349027 146.37424913 -33.08984375 146.40625 C-31.97673828 146.42558594 -30.86363281 146.44492188 -29.71679688 146.46484375 C-27.40707467 146.4985245 -25.09707565 146.51691372 -22.78710938 146.51953125 C-15.25605648 146.68466686 -10.22534593 147.92459234 -4.046875 152.265625 C-3.11875 152.884375 -2.190625 153.503125 -1.234375 154.140625 C4.08744217 159.31039025 5.21223599 162.99621363 5.328125 170.328125 C5.27581879 175.06183669 4.63815201 178.83737402 2.953125 183.265625 C2.293125 183.265625 1.633125 183.265625 0.953125 183.265625 C0.746875 183.8225 0.540625 184.379375 0.328125 184.953125 C-2.51385213 189.73281381 -6.8472754 192.57481995 -12.046875 194.265625 C-15.39556521 194.62238618 -18.72243912 194.76793915 -22.0859375 194.921875 C-25.23042506 195.05934663 -25.23042506 195.05934663 -28.046875 197.265625 C-28.52139226 199.32250073 -28.52139226 199.32250073 -28.48828125 201.6953125 C-28.51470703 202.57316406 -28.54113281 203.45101562 -28.56835938 204.35546875 C-28.58866211 205.73412109 -28.58866211 205.73412109 -28.609375 207.140625 C-28.64393798 208.95070087 -28.68661429 210.76064409 -28.73828125 212.5703125 C-28.75060791 213.37452637 -28.76293457 214.17874023 -28.77563477 215.00732422 C-29.07656432 217.51281331 -29.71316365 219.13180464 -31.046875 221.265625 C-33.56741095 222.52589298 -34.9010848 222.18436945 -37.671875 221.828125 C-38.89777344 221.67537109 -38.89777344 221.67537109 -40.1484375 221.51953125 C-40.77492187 221.43574219 -41.40140625 221.35195313 -42.046875 221.265625 C-43.59200083 216.6302475 -43.35509894 211.99706549 -43.421875 207.140625 C-43.45925781 206.13257813 -43.49664062 205.12453125 -43.53515625 204.0859375 C-43.61677539 197.08482885 -42.50290676 191.81886302 -38.046875 186.265625 C-35.76219362 184.49335222 -33.71403811 183.47339697 -31.046875 182.265625 C-30.386875 181.935625 -29.726875 181.605625 -29.046875 181.265625 C-26.56761049 180.89790095 -24.09684689 180.56515125 -21.609375 180.265625 C-16.25690307 179.62705681 -16.25690307 179.62705681 -11.046875 178.265625 C-9.83218813 174.62156438 -9.12553223 171.01975301 -10.046875 167.265625 C-11.69972192 164.58023035 -12.33207596 163.66733942 -15.046875 162.265625 C-19.56343416 161.58914963 -24.04987391 161.65807533 -28.609375 161.703125 C-43.3788384 161.80519997 -54.83717944 159.39171666 -66.046875 149.265625 C-72.38302582 142.3616116 -75.0653748 131.42296177 -75.609375 122.265625 C-75.10204539 112.00065584 -70.52850399 101.32677484 -63.046875 94.265625 C-53.53006539 87.06581643 -44.65717605 85.95172148 -33.046875 86.140625 C-31.45552734 86.15416016 -31.45552734 86.15416016 -29.83203125 86.16796875 C-27.23688032 86.19134849 -24.64184695 86.22721259 -22.046875 86.265625 C-22.376875 79.995625 -22.706875 73.725625 -23.046875 67.265625 C-25.8621875 66.21375 -25.8621875 66.21375 -28.734375 65.140625 C-34.17268498 62.89117128 -36.73195082 61.0308285 -40.046875 56.265625 C-40.69140625 55.8428125 -41.3359375 55.42 -42 54.984375 C-47.11609725 50.68841548 -48.6544607 42.20705528 -49.50390625 35.83984375 C-49.77221683 27.54209061 -47.73517896 20.64223292 -44.046875 13.265625 C-43.386875 13.265625 -42.726875 13.265625 -42.046875 13.265625 C-41.964375 12.688125 -41.881875 12.110625 -41.796875 11.515625 C-39.90944373 5.8533312 -33.07598161 1.51254186 -27.984375 -1.234375 C-19.59729723 -4.536142 -7.9373727 -4.30193482 0 0 Z " fill="#3480C1" transform="translate(127.046875,48.734375)"/>
<path d="M0 0 C1.15883194 -0.0127597 2.31766388 -0.02551941 3.51161194 -0.03866577 C4.75228928 -0.04089142 5.99296661 -0.04311707 7.27124023 -0.04541016 C8.56368149 -0.05206696 9.85612274 -0.05872375 11.18772888 -0.06558228 C13.92206151 -0.07752845 16.65626813 -0.08126629 19.390625 -0.08007812 C22.85789632 -0.07987606 26.32433756 -0.10707109 29.79141331 -0.14162254 C33.138864 -0.16951902 36.48617537 -0.1680487 39.83374023 -0.17041016 C41.67350182 -0.19196671 41.67350182 -0.19196671 43.5504303 -0.21395874 C54.95658364 -0.15452509 65.09241841 2.70365434 75.01733398 8.29052734 C75.6322168 8.60892578 76.24709961 8.92732422 76.88061523 9.25537109 C80.95284171 11.42664388 83.89326179 13.91981787 87.01733398 17.29052734 C87.86295898 18.11552734 88.70858398 18.94052734 89.57983398 19.79052734 C97.19226335 27.59814721 101.88707342 36.46911287 105.82983398 46.54052734 C106.13187744 47.30905029 106.4339209 48.07757324 106.74511719 48.86938477 C113.29439848 66.11389136 112.01825579 89.26626529 104.57202148 106.00927734 C94.93611571 126.34636491 94.93611571 126.34636491 90.01733398 133.29052734 C89.35733398 133.29052734 88.69733398 133.29052734 88.01733398 133.29052734 C85.96010811 138.45868016 85.60220079 143.18275694 85.39233398 148.66552734 C85.35366211 149.49697266 85.31499023 150.32841797 85.27514648 151.18505859 C85.18159153 153.2198789 85.09840686 155.2551715 85.01733398 157.29052734 C85.67733398 157.29052734 86.33733398 157.29052734 87.01733398 157.29052734 C87.2899707 158.23412109 87.2899707 158.23412109 87.56811523 159.19677734 C88.79864539 163.3868903 90.05788988 167.4937504 91.70483398 171.54052734 C92.97005684 175.1554498 93.54426996 177.51415282 93.01733398 181.29052734 C91.95483398 183.22802734 91.95483398 183.22802734 90.01733398 184.29052734 C86.64233398 184.47802734 86.64233398 184.47802734 83.01733398 183.29052734 C72.91756972 172.38062156 72.1895895 154.67807776 72.50952148 140.72412109 C72.98185274 133.10217225 75.81839394 127.65008702 80.01733398 121.29052734 C80.65026367 120.28505859 81.28319336 119.27958984 81.93530273 118.24365234 C83.11006206 116.39008753 84.29899241 114.54538443 85.50561523 112.71240234 C87.4061752 109.6675776 88.75114832 106.64219529 90.01733398 103.29052734 C90.67733398 103.29052734 91.33733398 103.29052734 92.01733398 103.29052734 C92.50531443 100.94406817 92.97929054 98.59580667 93.43920898 96.24365234 C93.80892666 94.35509447 94.19298266 92.46925112 94.59545898 90.58740234 C97.96506136 73.35429305 96.98360178 55.28929519 88.20483398 39.72802734 C87.18272169 38.22066981 86.12012212 36.73990604 85.01733398 35.29052734 C84.45530273 34.53771484 83.89327148 33.78490234 83.31420898 33.00927734 C75.6758076 23.6377933 65.87316649 16.80925492 54.01733398 14.29052734 C49.45564644 13.88064947 44.92331313 13.86930524 40.34545898 13.89208984 C39.06427185 13.88921967 37.78308472 13.88634949 36.46307373 13.88339233 C33.77027353 13.87900258 31.07777459 13.88529462 28.38500977 13.89941406 C24.94641003 13.91657387 21.5085095 13.90660157 18.06993484 13.88869667 C14.76588756 13.87521814 11.46202608 13.88466573 8.15795898 13.89208984 C6.92974426 13.88601715 5.70152954 13.87994446 4.43609619 13.87368774 C-3.71523905 13.87156568 -3.71523905 13.87156568 -10.98266602 17.29052734 C-14.72715777 21.42917613 -15.56995359 24.71213449 -15.30688477 30.11865234 C-14.4998514 35.52480355 -11.34839887 39.18854042 -7.98266602 43.29052734 C-7.59336914 44.07298828 -7.20407227 44.85544922 -6.80297852 45.66162109 C-4.4234137 49.0982029 -1.42569801 50.78696717 2.14233398 52.79052734 C2.81377441 53.18071045 3.48521484 53.57089355 4.17700195 53.97290039 C7.80260113 56.07030035 11.46549042 58.09691168 15.14233398 60.10302734 C21.50008288 63.614023 26.95634272 68.210384 31.01733398 74.29052734 C31.70483398 78.10302734 31.70483398 78.10302734 31.01733398 81.29052734 C29.02305442 83.58025573 27.72530113 84.16314225 24.75952148 84.69677734 C20.74131139 84.10148696 18.59722722 81.61357906 15.82983398 78.85302734 C12.23864233 75.1493329 12.23864233 75.1493329 8.01733398 72.29052734 C8.01733398 71.63052734 8.01733398 70.97052734 8.01733398 70.29052734 C6.88295898 70.22865234 5.74858398 70.16677734 4.57983398 70.10302734 C-0.6298625 69.48792901 -4.60112587 67.03913239 -8.98266602 64.29052734 C-8.87825195 65.22058594 -8.87825195 65.22058594 -8.77172852 66.16943359 C-7.99492047 78.87579384 -14.28045482 89.89350741 -20.98266602 100.29052734 C-22.11335527 102.16210203 -23.23846675 104.03705909 -24.35766602 105.91552734 C-25.23266602 107.37386068 -26.10766602 108.83219401 -26.98266602 110.29052734 C-25.91016602 110.37302734 -24.83766602 110.45552734 -23.73266602 110.54052734 C-19.66951038 111.35315847 -18.3197043 111.92519221 -15.98266602 115.29052734 C-15.60766602 117.91552734 -15.60766602 117.91552734 -15.98266602 120.29052734 C-16.97266602 121.28052734 -16.97266602 121.28052734 -17.98266602 122.29052734 C-18.22479474 124.27181243 -18.22479474 124.27181243 -18.10766602 126.41552734 C-18.06641602 127.69427734 -18.02516602 128.97302734 -17.98266602 130.29052734 C-16.88954102 130.24927734 -15.79641602 130.20802734 -14.67016602 130.16552734 C-10.98266602 130.29052734 -10.98266602 130.29052734 -7.98266602 132.29052734 C-7.56579843 135.5559901 -7.37391418 137.46041121 -9.35766602 140.16552734 C-10.98266602 141.29052734 -10.98266602 141.29052734 -12.98266602 141.29052734 C-12.48766602 149.21052734 -12.48766602 149.21052734 -11.98266602 157.29052734 C-8.63699609 158.12694482 -6.61432334 158.37425904 -3.27954102 158.24755859 C-1.93182617 158.2156543 -1.93182617 158.2156543 -0.55688477 158.18310547 C1.31068683 158.13015219 3.17796165 158.06524462 5.04467773 157.98779297 C11.28935047 157.8675318 15.82705449 158.69143424 21.01733398 162.29052734 C22.85717773 164.07177734 22.85717773 164.07177734 23.95483398 165.79052734 C24.33510742 166.35771484 24.71538086 166.92490234 25.10717773 167.50927734 C27.65052924 172.48682363 27.23634667 177.9031337 27.26733398 183.35302734 C27.28795898 184.26375 27.30858398 185.17447266 27.32983398 186.11279297 C27.33756836 187.42473633 27.33756836 187.42473633 27.34545898 188.76318359 C27.35480469 189.55990479 27.36415039 190.35662598 27.3737793 191.17749023 C26.92405712 193.84348027 26.18609865 194.70999188 24.01733398 196.29052734 C20.45483398 196.66552734 20.45483398 196.66552734 17.01733398 196.29052734 C14.92988354 193.15935167 14.74079403 192.2210651 14.60327148 188.62255859 C14.54526367 187.28354492 14.54526367 187.28354492 14.48608398 185.91748047 C14.45514648 184.98871094 14.42420898 184.05994141 14.39233398 183.10302734 C14.33432617 181.6924707 14.33432617 181.6924707 14.27514648 180.25341797 C14.18090211 177.93265024 14.09529374 175.61188987 14.01733398 173.29052734 C11.04072711 172.29832505 9.31474845 172.22186255 6.22827148 172.33349609 C4.81481445 172.36540039 4.81481445 172.36540039 3.37280273 172.39794922 C1.40889077 172.45071487 -0.55473998 172.51552893 -2.51782227 172.59326172 C-9.0280253 172.71251238 -14.46420639 171.9742069 -19.98266602 168.29052734 C-25.11558937 162.1830096 -25.20749446 155.32191796 -25.41235352 147.69091797 C-25.52064755 143.81462607 -25.52064755 143.81462607 -27.48657227 140.62255859 C-28.22713867 139.96320313 -28.22713867 139.96320313 -28.98266602 139.29052734 C-29.42407227 137.05615234 -29.42407227 137.05615234 -29.54516602 134.54052734 C-29.85254244 130.17322059 -30.62778533 126.44549479 -31.98266602 122.29052734 C-33.30266602 121.96052734 -34.62266602 121.63052734 -35.98266602 121.29052734 C-35.98266602 120.63052734 -35.98266602 119.97052734 -35.98266602 119.29052734 C-36.60141602 119.02240234 -37.22016602 118.75427734 -37.85766602 118.47802734 C-39.98266602 117.29052734 -39.98266602 117.29052734 -41.98266602 114.29052734 C-42.31860352 112.23974609 -42.31860352 112.23974609 -42.35766602 109.97802734 C-42.38602539 109.23939453 -42.41438477 108.50076172 -42.44360352 107.73974609 C-41.41041167 102.24981991 -36.90599706 97.85077859 -33.54516602 93.54052734 C-25.53769344 82.7455602 -23.20013156 74.24632395 -21.65844727 61.02099609 C-21.3129107 58.100282 -20.93684419 56.18746392 -19.72875977 53.47021484 C-18.68806897 51.21293369 -18.68806897 51.21293369 -20.02954102 48.75537109 C-20.87258789 47.50433594 -20.87258789 47.50433594 -21.73266602 46.22802734 C-27.75076937 37.10244539 -28.31949311 29.1431113 -26.98266602 18.29052734 C-24.78493548 11.31294181 -20.42256093 7.24582417 -14.32641602 3.44677734 C-9.563105 1.09687724 -5.30475593 0.03990817 0 0 Z " fill="#347FC0" transform="translate(191.982666015625,74.70947265625)"/>
<path d="M0 0 C7.91514785 5.1290158 14.27161553 10.26637962 17.953125 19.265625 C17.623125 19.925625 17.293125 20.585625 16.953125 21.265625 C15.633125 20.935625 14.313125 20.605625 12.953125 20.265625 C12.64375 19.13125 12.334375 17.996875 12.015625 16.828125 C11.32387969 13.47787401 11.32387969 13.47787401 9.953125 12.265625 C9.685 12.905 9.416875 13.544375 9.140625 14.203125 C7.953125 16.265625 7.953125 16.265625 4.953125 17.265625 C5.06011719 18.4721875 5.16710937 19.67875 5.27734375 20.921875 C5.3993709 22.53638806 5.52041209 24.15097585 5.640625 25.765625 C5.71345703 26.55710937 5.78628906 27.34859375 5.86132812 28.1640625 C6.26235743 33.92001251 5.38803762 38.05618368 2.953125 43.265625 C2.65148437 44.02359375 2.34984375 44.7815625 2.0390625 45.5625 C-0.47821257 49.51045658 -4.8343078 51.52307712 -9.046875 53.265625 C-16.49362423 54.47294491 -23.16622102 53.18469033 -30.046875 50.265625 C-30.046875 51.915625 -30.046875 53.565625 -30.046875 55.265625 C-31.366875 55.925625 -32.686875 56.585625 -34.046875 57.265625 C-33.551875 57.719375 -33.056875 58.173125 -32.546875 58.640625 C-31.046875 60.265625 -31.046875 60.265625 -31.046875 62.265625 C-29.726875 62.595625 -28.406875 62.925625 -27.046875 63.265625 C-28.671875 64.015625 -28.671875 64.015625 -31.046875 64.265625 C-35.37965048 61.86877048 -38.65681775 58.84401876 -42.046875 55.265625 C-42.706875 54.605625 -43.366875 53.945625 -44.046875 53.265625 C-49.12907954 42.2233806 -51.2844602 31.86660086 -47.109375 20.078125 C-46.1610608 17.75662464 -45.16791164 15.50769827 -44.046875 13.265625 C-43.386875 13.265625 -42.726875 13.265625 -42.046875 13.265625 C-41.964375 12.688125 -41.881875 12.110625 -41.796875 11.515625 C-39.90944373 5.8533312 -33.07598161 1.51254186 -27.984375 -1.234375 C-19.59729723 -4.536142 -7.9373727 -4.30193482 0 0 Z " fill="#357FBF" transform="translate(127.046875,48.734375)"/>
<path d="M0 0 C0 0.66 0 1.32 0 2 C0.86625 2.144375 1.7325 2.28875 2.625 2.4375 C7.48226496 4.68623378 9.47944368 8.39403226 12 13 C14.19859998 19.59579995 12.73795329 24.90868189 10 31 C9.72671875 31.67160156 9.4534375 32.34320313 9.171875 33.03515625 C6.70510209 37.17111216 2.34194961 39.2216483 -2 41 C-7.69706331 41.80987665 -12.9370239 41.97539828 -18 39 C-18 38.34 -18 37.68 -18 37 C-18.7425 36.835 -19.485 36.67 -20.25 36.5 C-24.33004712 34.27451975 -25.54004061 31.31515092 -27 27 C-28.74475596 19.49873629 -27.98247299 13.80025762 -23.9296875 7.27734375 C-17.66484085 -1.16567806 -9.58085861 -0.38899727 0 0 Z " fill="#F7FBFC" transform="translate(120,61)"/>
<path d="M0 0 C2.34375 1.0234375 2.34375 1.0234375 4 2 C4 2.66 4 3.32 4 4 C4.5775 4.20625 5.155 4.4125 5.75 4.625 C8.90934187 6.55570892 10.70046856 8.57636132 12 12 C13.2980223 20.37164839 11.78356587 26.16973431 7 33 C6.39929688 33.90492188 5.79859375 34.80984375 5.1796875 35.7421875 C0.4017666 42.7991167 0.4017666 42.7991167 -2 44 C-4.12143022 44.14867166 -6.24855992 44.2213289 -8.375 44.25 C-10.08816406 44.28867188 -10.08816406 44.28867188 -11.8359375 44.328125 C-15.26826193 43.97218024 -16.64589165 43.49090883 -19 41 C-19.4375 37.4375 -19.4375 37.4375 -19 34 C-15.79619983 31.86413322 -14.98060033 31.76867825 -11.3125 31.875 C-10.10013672 31.90207031 -10.10013672 31.90207031 -8.86328125 31.9296875 C-8.24839844 31.95289063 -7.63351563 31.97609375 -7 32 C-6.70222656 31.39800781 -6.40445313 30.79601562 -6.09765625 30.17578125 C-5.24888189 28.49333528 -4.35265572 26.83478029 -3.4375 25.1875 C-1.8843174 21.7434864 -1.37427948 18.74279481 -1 15 C-3.95503567 13.32976245 -6.31316601 12.69963834 -9.6875 12.4375 C-13.90035587 12.09964413 -13.90035587 12.09964413 -15 11 C-15.34683394 7.32356025 -15.45864266 4.85176495 -13.6875 1.5625 C-9.39921062 -0.9306915 -4.84377645 -0.61259526 0 0 Z " fill="#377FBE" transform="translate(256,156)"/>
<path d="M0 0 C4.21749219 -0.07419134 8.43463811 -0.1286204 12.65258789 -0.16479492 C14.08722552 -0.17987589 15.52181708 -0.2003438 16.95629883 -0.22631836 C19.01915859 -0.26273437 21.08140858 -0.27973243 23.14453125 -0.29296875 C25.00621948 -0.31653442 25.00621948 -0.31653442 26.90551758 -0.34057617 C30 0 30 0 31.91503906 1.39501953 C33.32754994 3.48454394 33.26644694 4.58381535 32.9375 7.0625 C32.86402344 7.75472656 32.79054688 8.44695312 32.71484375 9.16015625 C32 11 32 11 30.3762207 12.1027832 C27.2402837 13.28685476 24.61544192 13.22469686 21.265625 13.1953125 C19.97011719 13.18886719 18.67460937 13.18242187 17.33984375 13.17578125 C15.97655981 13.15907193 14.61327856 13.14214206 13.25 13.125 C11.87110015 13.1149634 10.49219335 13.10583873 9.11328125 13.09765625 C5.74201118 13.07408093 2.37109364 13.0411727 -1 13 C-0.98428955 13.80219971 -0.9685791 14.60439941 -0.95239258 15.4309082 C-0.89011417 19.05803404 -0.85103136 22.68504749 -0.8125 26.3125 C-0.78736328 27.57513672 -0.76222656 28.83777344 -0.73632812 30.13867188 C-0.72666016 31.34716797 -0.71699219 32.55566406 -0.70703125 33.80078125 C-0.6913208 34.91622314 -0.67561035 36.03166504 -0.65942383 37.1809082 C-1 40 -1 40 -2.29956055 41.86401367 C-5.15919882 43.77440806 -7.68143496 43.35556054 -11 43 C-12.70043945 41.86401367 -12.70043945 41.86401367 -14 40 C-14.34057617 37.1809082 -14.34057617 37.1809082 -14.29296875 33.80078125 C-14.2784668 31.98803711 -14.2784668 31.98803711 -14.26367188 30.13867188 C-14.23853516 28.87603516 -14.21339844 27.61339844 -14.1875 26.3125 C-14.17396484 25.03826172 -14.16042969 23.76402344 -14.14648438 22.45117188 C-14.11108199 19.30035943 -14.0616979 16.15038955 -14 13 C-17.5008943 13.08174173 -21.00015493 13.19450268 -24.5 13.3125 C-25.97339844 13.34633789 -25.97339844 13.34633789 -27.4765625 13.38085938 C-37.76248778 13.75800997 -44.79019168 16.41072809 -52 24 C-51.67 22.02 -51.34 20.04 -51 18 C-50.34 18 -49.68 18 -49 18 C-49 17.34 -49 16.68 -49 16 C-47.56328432 15.35242375 -46.12559584 14.70700547 -44.6875 14.0625 C-43.88699219 13.70285156 -43.08648437 13.34320313 -42.26171875 12.97265625 C-38.44776539 11.33245869 -35.58099189 10.88052385 -31.45703125 10.90234375 C-30.38388672 10.90556641 -29.31074219 10.90878906 -28.20507812 10.91210938 C-27.08552734 10.92048828 -25.96597656 10.92886719 -24.8125 10.9375 C-23.11577148 10.94426758 -23.11577148 10.94426758 -21.38476562 10.95117188 C-18.58979073 10.96296502 -15.7949218 10.9794235 -13 11 C-11.92082774 14.23751678 -11.88574399 16.57751771 -11.90234375 19.98046875 C-11.90556641 21.14384766 -11.90878906 22.30722656 -11.91210938 23.50585938 C-11.92467773 25.32827148 -11.92467773 25.32827148 -11.9375 27.1875 C-11.94201172 28.41404297 -11.94652344 29.64058594 -11.95117188 30.90429688 C-11.96296935 33.93624668 -11.97943079 36.96809906 -12 40 C-9.09926819 40.67801034 -9.09926819 40.67801034 -6 41 C-3.41413203 38.41413203 -3.72560472 37.29278962 -3.65625 33.6953125 C-3.62660156 32.63699219 -3.59695312 31.57867187 -3.56640625 30.48828125 C-3.54449219 29.37839844 -3.52257812 28.26851562 -3.5 27.125 C-3.45655387 24.93991535 -3.40480378 22.75497607 -3.34375 20.5703125 C-3.32505859 19.59852051 -3.30636719 18.62672852 -3.28710938 17.62548828 C-2.99562498 14.95999242 -2.35621883 13.28946522 -1 11 C0.13429443 11.01571045 0.13429443 11.01571045 1.29150391 11.03173828 C4.73596845 11.07345416 8.1803797 11.09937583 11.625 11.125 C12.81480469 11.14175781 14.00460938 11.15851563 15.23046875 11.17578125 C16.38417969 11.18222656 17.53789062 11.18867188 18.7265625 11.1953125 C19.78439941 11.20578613 20.84223633 11.21625977 21.93212891 11.22705078 C25.23363888 10.98270857 27.91412763 10.16882977 31 9 C30.505 5.535 30.505 5.535 30 2 C15.15 1.505 15.15 1.505 0 1 C0 0.67 0 0.34 0 0 Z " fill="#417AA9" transform="translate(120,136)"/>
<path d="M0 0 C3.3125 0.1875 3.3125 0.1875 7 1 C10.75451458 5.74809806 10.77771294 10.8928857 11.375 16.72265625 C11.72816574 19.9677652 11.72816574 19.9677652 13.53515625 21.91015625 C16.10977305 25.58327622 15.43567312 30.27043156 15.43945312 34.625 C15.57329074 39.84928197 16.55265645 42.83741321 20 47 C20.66 47.33 21.32 47.66 22 48 C22 48.99 22 49.98 22 51 C22.83772949 50.99476318 23.67545898 50.98952637 24.53857422 50.98413086 C27.64338936 50.96709986 30.74818071 50.95455518 33.85302734 50.94506836 C35.85906551 50.93755964 37.86508202 50.9248553 39.87109375 50.91210938 C41.75634766 50.90727539 41.75634766 50.90727539 43.6796875 50.90234375 C45.42354736 50.89448853 45.42354736 50.89448853 47.20263672 50.88647461 C50 51 50 51 52 52 C52 52.99 52 53.98 52 55 C51.01 54.67 50.02 54.34 49 54 C47.40398811 53.96397463 45.80631275 53.98526627 44.2109375 54.04296875 C42.79748047 54.07487305 42.79748047 54.07487305 41.35546875 54.10742188 C39.39155678 54.16018753 37.42792603 54.22500159 35.46484375 54.30273438 C28.95464071 54.42198504 23.51845963 53.68367956 18 50 C12.86707665 43.89248225 12.77517156 37.03139062 12.5703125 29.40039062 C12.46201846 25.52409872 12.46201846 25.52409872 10.49609375 22.33203125 C10.00238281 21.89246094 9.50867188 21.45289063 9 21 C8.55859375 18.765625 8.55859375 18.765625 8.4375 16.25 C8.13012357 11.88269325 7.35488069 8.15496745 6 4 C4.68 3.67 3.36 3.34 2 3 C2 2.34 2 1.68 2 1 C1.34 0.67 0.68 0.34 0 0 Z " fill="#3A79AB" transform="translate(154,193)"/>
<path d="M0 0 C0.99 0.33 1.98 0.66 3 1 C3.94137255 3.82411765 4.11725382 5.52918032 4.09765625 8.44921875 C4.09443359 9.29677734 4.09121094 10.14433594 4.08789062 11.01757812 C4.07951172 11.89865234 4.07113281 12.77972656 4.0625 13.6875 C4.05798828 14.58017578 4.05347656 15.47285156 4.04882812 16.39257812 C4.03704983 18.59511987 4.02060164 20.79752599 4 23 C0.625 23.125 0.625 23.125 -3 23 C-5.43914492 20.56085508 -5.28662523 19.78553569 -5.4140625 16.4296875 C-5.45273438 15.53378906 -5.49140625 14.63789063 -5.53125 13.71484375 C-5.5621875 12.77769531 -5.593125 11.84054688 -5.625 10.875 C-5.66367188 9.93011719 -5.70234375 8.98523438 -5.7421875 8.01171875 C-5.83661346 5.67467625 -5.92218394 3.33764499 -6 1 C-4.02 1.66 -2.04 2.32 0 3 C0 2.01 0 1.02 0 0 Z " fill="#3180C3" transform="translate(213,244)"/>
<path d="M0 0 C0.66 0.33 1.32 0.66 2 1 C1 3 1 3 -1.20385742 4.11279297 C-4.22107553 5.07014655 -6.57992816 5.22909168 -9.73828125 5.1953125 C-11.33833008 5.18564453 -11.33833008 5.18564453 -12.97070312 5.17578125 C-14.07349609 5.15902344 -15.17628906 5.14226562 -16.3125 5.125 C-17.43462891 5.11597656 -18.55675781 5.10695312 -19.71289062 5.09765625 C-22.47547909 5.07414486 -25.23762932 5.04128155 -28 5 C-28.0093457 5.74161377 -28.01869141 6.48322754 -28.02832031 7.24731445 C-28.08195751 10.60305714 -28.16561793 13.95739562 -28.25 17.3125 C-28.27126953 19.06336914 -28.27126953 19.06336914 -28.29296875 20.84960938 C-28.32519531 21.96787109 -28.35742188 23.08613281 -28.390625 24.23828125 C-28.41157227 25.26993408 -28.43251953 26.30158691 -28.45410156 27.36450195 C-29 30 -29 30 -30.90429688 31.84179688 C-34.33140872 33.73581116 -37.14206119 33.19289694 -41 33 C-41 32.67 -41 32.34 -41 32 C-39.88625 31.87625 -38.7725 31.7525 -37.625 31.625 C-33.96896323 31.3534187 -33.96896323 31.3534187 -32 29 C-31.62760773 26.18597317 -31.62760773 26.18597317 -31.5859375 22.8984375 C-31.54726562 21.68671875 -31.50859375 20.475 -31.46875 19.2265625 C-31.42234375 17.32003906 -31.42234375 17.32003906 -31.375 15.375 C-31.33632812 14.09625 -31.29765625 12.8175 -31.2578125 11.5 C-31.16328951 8.33347983 -31.07773643 5.1669696 -31 2 C-30.13197754 1.97494385 -29.26395508 1.9498877 -28.36962891 1.92407227 C-25.15286837 1.82900516 -21.93627151 1.72976797 -18.71972656 1.62768555 C-17.3268741 1.58434154 -15.93396869 1.54266604 -14.54101562 1.50268555 C-12.54023349 1.44497068 -10.53964141 1.38078131 -8.5390625 1.31640625 C-7.33459473 1.27974854 -6.13012695 1.24309082 -4.88916016 1.20532227 C-2.06003633 1.18947013 -2.06003633 1.18947013 0 0 Z " fill="#C9E5F3" transform="translate(150,147)"/>
<path d="M0 0 C0.33 0 0.66 0 1 0 C1.74142185 9.29248716 0.10504709 15.71096261 -4 24 C-4.64628926 25.34353078 -5.29209704 26.68729324 -5.9375 28.03125 C-12.65814061 41.87031616 -12.65814061 41.87031616 -17 48 C-17.66 48 -18.32 48 -19 48 C-21.57996518 53.87094438 -21.22552426 59.59609985 -21.125 65.875 C-21.11597656 66.94492188 -21.10695313 68.01484375 -21.09765625 69.1171875 C-21.07419342 71.74502439 -21.04136459 74.37239406 -21 77 C-25.10676258 70.83985614 -24.60803437 63.17147387 -24 56 C-22.47182313 50.13275097 -20.02459723 45.5439001 -16 41 C-14.97695052 39.34738161 -13.97383946 37.68208635 -13 36 C-12.34 35.01 -11.68 34.02 -11 33 C-10.61500109 31.34450469 -10.27206865 29.6777567 -10 28 C-9.34 28 -8.68 28 -8 28 C-5.81240969 21.71103438 -3.96826581 15.38548226 -2.3125 8.9375 C-2.08755859 8.07189453 -1.86261719 7.20628906 -1.63085938 6.31445312 C-1.08448944 4.21034762 -0.54184597 2.10527504 0 0 Z " fill="#3F7BAD" transform="translate(299,160)"/>
<path d="M0 0 C0.66 0.33 1.32 0.66 2 1 C2 2.65 2 4.3 2 6 C1.34 6 0.68 6 0 6 C0 6.99 0 7.98 0 9 C1.32 9.33 2.64 9.66 4 10 C3.34 11.98 2.68 13.96 2 16 C1.67 15.34 1.34 14.68 1 14 C0.01 14.495 0.01 14.495 -1 15 C-3.2072923 15.07092842 -5.41667452 15.08415025 -7.625 15.0625 C-8.81351563 15.05347656 -10.00203125 15.04445312 -11.2265625 15.03515625 C-12.14179688 15.02355469 -13.05703125 15.01195312 -14 15 C-14.38063221 12.6739143 -14.71269945 10.33944736 -15 8 C-13.38109255 6.38109255 -11.4175608 6.88106702 -9.1875 6.8125 C-5.4651559 6.56245674 -5.4651559 6.56245674 -2.44921875 4.6015625 C-1.22177195 2.78232318 -1.22177195 2.78232318 0 0 Z " fill="#3280C4" transform="translate(254,183)"/>
<path d="M0 0 C1.07314453 0.00322266 2.14628906 0.00644531 3.25195312 0.00976562 C4.37150391 0.01814453 5.49105469 0.02652344 6.64453125 0.03515625 C8.34125977 0.04192383 8.34125977 0.04192383 10.07226562 0.04882812 C12.86724052 0.06062127 15.66210945 0.07707975 18.45703125 0.09765625 C19.53620351 3.33517303 19.57128726 5.67517396 19.5546875 9.078125 C19.55146484 10.24150391 19.54824219 11.40488281 19.54492188 12.60351562 C19.53235352 14.42592773 19.53235352 14.42592773 19.51953125 16.28515625 C19.51501953 17.51169922 19.51050781 18.73824219 19.50585938 20.00195312 C19.4940619 23.03390293 19.47760046 26.06575531 19.45703125 29.09765625 C20.77703125 29.75765625 22.09703125 30.41765625 23.45703125 31.09765625 C18.58203125 30.22265625 18.58203125 30.22265625 17.45703125 29.09765625 C17.36945122 27.09800643 17.35006549 25.09529515 17.359375 23.09375 C17.36259766 21.87880859 17.36582031 20.66386719 17.36914062 19.41210938 C17.38170898 17.49301758 17.38170898 17.49301758 17.39453125 15.53515625 C17.39904297 14.25189453 17.40355469 12.96863281 17.40820312 11.64648438 C17.4200358 8.46349603 17.43652057 5.28059863 17.45703125 2.09765625 C13.95613695 2.17939798 10.45687632 2.29215893 6.95703125 2.41015625 C5.48363281 2.44399414 5.48363281 2.44399414 3.98046875 2.47851562 C-6.30545653 2.85566622 -13.33316043 5.50838434 -20.54296875 13.09765625 C-20.21296875 11.11765625 -19.88296875 9.13765625 -19.54296875 7.09765625 C-18.88296875 7.09765625 -18.22296875 7.09765625 -17.54296875 7.09765625 C-17.54296875 6.43765625 -17.54296875 5.77765625 -17.54296875 5.09765625 C-16.10625307 4.45008 -14.66856459 3.80466172 -13.23046875 3.16015625 C-12.42996094 2.80050781 -11.62945312 2.44085938 -10.8046875 2.0703125 C-6.99073414 0.43011494 -4.12396064 -0.0218199 0 0 Z " fill="#407CAF" transform="translate(88.54296875,146.90234375)"/>
<path d="M0 0 C-0.33 1.32 -0.66 2.64 -1 4 C-1.99 4 -2.98 4 -4 4 C-4.33 8.62 -4.66 13.24 -5 18 C-3.07414062 17.98839844 -1.14828125 17.97679687 0.8359375 17.96484375 C3.34895737 17.95546681 5.86197828 17.94636651 8.375 17.9375 C9.64601562 17.92912109 10.91703125 17.92074219 12.2265625 17.91210938 C14.04414063 17.90727539 14.04414063 17.90727539 15.8984375 17.90234375 C17.57945557 17.89448853 17.57945557 17.89448853 19.29443359 17.88647461 C22 18 22 18 24 19 C24 19.66 24 20.32 24 21 C24.66 21.33 25.32 21.66 26 22 C25.01 22.495 25.01 22.495 24 23 C23.34 22.67 22.68 22.34 22 22 C19.82325217 21.84530633 17.6421652 21.74997894 15.4609375 21.68359375 C13.50800781 21.62075195 13.50800781 21.62075195 11.515625 21.55664062 C10.13541955 21.51682701 8.75521117 21.47711478 7.375 21.4375 C5.98696585 21.39430593 4.59894472 21.35069135 3.2109375 21.30664062 C-0.19258129 21.20028066 -3.596277 21.09961082 -7 21 C-7 14.4 -7 7.8 -7 1 C-2 0 -2 0 0 0 Z " fill="#F2FDFE" transform="translate(126,114)"/>
<path d="M0 0 C1.104646 -0.00960754 2.20929199 -0.01921509 3.34741211 -0.02911377 C4.53085205 -0.03336365 5.71429199 -0.03761353 6.93359375 -0.04199219 C8.15763916 -0.04769226 9.38168457 -0.05339233 10.64282227 -0.05926514 C13.2283441 -0.06870105 15.81387789 -0.07524351 18.39941406 -0.07910156 C22.35633167 -0.08883089 26.31273495 -0.11987813 30.26953125 -0.15136719 C32.782549 -0.15789523 35.29557046 -0.16314648 37.80859375 -0.16699219 C39.58375366 -0.18551239 39.58375366 -0.18551239 41.39477539 -0.20440674 C42.49942139 -0.20140564 43.60406738 -0.19840454 44.7421875 -0.1953125 C46.19516235 -0.20078094 46.19516235 -0.20078094 47.67749023 -0.20635986 C50.84351922 0.22558658 52.75966053 1.36475227 55.37109375 3.16113281 C51.94051466 4.20757282 48.80232502 4.281928 45.22558594 4.2746582 C43.98460144 4.27458267 42.74361694 4.27450714 41.46502686 4.27442932 C40.11600708 4.26932312 38.76698771 4.26410713 37.41796875 4.25878906 C36.03363089 4.25692306 34.64929237 4.25550001 33.26495361 4.25450134 C29.62848067 4.25069054 25.99204793 4.24087256 22.35559082 4.22979736 C18.64201399 4.21955231 14.92843065 4.2149971 11.21484375 4.20996094 C3.93357546 4.19924897 -3.34765975 4.18218985 -10.62890625 4.16113281 C-10.62890625 3.17113281 -10.62890625 2.18113281 -10.62890625 1.16113281 C-7.02978214 0.34029609 -3.68856844 0.02600068 0 0 Z " fill="#CAE6F7" transform="translate(194.62890625,71.8388671875)"/>
<path d="M0 0 C4.39561039 -0.11629782 8.79082429 -0.18728634 13.1875 -0.25 C14.43337891 -0.28351563 15.67925781 -0.31703125 16.96289062 -0.3515625 C18.7659668 -0.37089844 18.7659668 -0.37089844 20.60546875 -0.390625 C22.26292114 -0.4220459 22.26292114 -0.4220459 23.95385742 -0.45410156 C27.69280284 0.1032791 29.31666801 1.3939058 32 4 C33.57898053 7.15796107 33.81928171 10.60670636 33 14 C30.33806215 17.48021855 28.74548987 18.82815272 24.44140625 19.8203125 C22.52134766 19.97113281 22.52134766 19.97113281 20.5625 20.125 C15.2896051 20.56130412 11.6141536 21.37693183 7 24 C6.34 24.33 5.68 24.66 5 25 C5 24.01 5 23.02 5 22 C5.66 22 6.32 22 7 22 C7 21.34 7 20.68 7 20 C10.72597069 18.83563416 14.17287352 17.92223424 18.0625 17.5625 C22.00303321 16.99956668 24.54294481 15.89314927 28 14 C28.66 14 29.32 14 30 14 C29.87625 12.700625 29.7525 11.40125 29.625 10.0625 C29.55539063 9.33160156 29.48578125 8.60070312 29.4140625 7.84765625 C29.27742188 7.23792969 29.14078125 6.62820312 29 6 C28.34 5.67 27.68 5.34 27 5 C27 4.34 27 3.68 27 3 C25.35 3 23.7 3 22 3 C22 2.34 22 1.68 22 1 C14.74 1 7.48 1 0 1 C0 0.67 0 0.34 0 0 Z " fill="#E5F8FC" transform="translate(85,210)"/>
<path d="M0 0 C0.33 1.32 0.66 2.64 1 4 C0.34 4 -0.32 4 -1 4 C-1 4.99 -1 5.98 -1 7 C-1.99 6.34 -2.98 5.68 -4 5 C-4 5.66 -4 6.32 -4 7 C-3.34 7.33 -2.68 7.66 -2 8 C-3.99954746 8.04254356 -6.00041636 8.04080783 -8 8 C-8.33 7.67 -8.66 7.34 -9 7 C-10.51469448 6.76807135 -12.03754562 6.58784762 -13.5625 6.4375 C-14.38878906 6.35371094 -15.21507812 6.26992187 -16.06640625 6.18359375 C-16.70449219 6.12300781 -17.34257812 6.06242188 -18 6 C-18 4.02 -18 2.04 -18 0 C-11.53816611 -3.04086301 -6.5344529 -2.09102493 0 0 Z " fill="#327EC1" transform="translate(261,160)"/>
<path d="M0 0 C1.26108078 0.00007553 2.52216156 0.00015106 3.82145691 0.00022888 C5.19778482 0.0053355 6.57411234 0.0105515 7.95043945 0.01586914 C9.35862681 0.01773453 10.76681481 0.01915786 12.17500305 0.02015686 C15.878894 0.02397251 19.58274566 0.03379467 23.28662109 0.04486084 C27.06713326 0.05509542 30.84765179 0.05965887 34.62817383 0.06469727 C42.04420736 0.0754178 49.46020852 0.09248279 56.8762207 0.11352539 C56.8762207 1.10352539 56.8762207 2.09352539 56.8762207 3.11352539 C35.0962207 3.11352539 13.3162207 3.11352539 -9.1237793 3.11352539 C-9.1237793 2.45352539 -9.1237793 1.79352539 -9.1237793 1.11352539 C-5.84490181 0.02056623 -3.45110356 -0.00688843 0 0 Z " fill="#6595B8" transform="translate(193.123779296875,85.886474609375)"/>
<path d="M0 0 C2.31 0 4.62 0 7 0 C7.33 0.66 7.66 1.32 8 2 C8.78375 2.28875 9.5675 2.5775 10.375 2.875 C13.33617301 4.14407415 14.2820337 5.33715224 16 8 C16.33 8.33 16.66 8.66 17 9 C17.66 9 18.32 9 19 9 C20.77344722 13.54445851 21.08661284 17.14968078 21 22 C21.226875 22.969375 21.45375 23.93875 21.6875 24.9375 C22.11533758 29.13030831 21.18995662 32.39690156 19 36 C16.3125 37.5 16.3125 37.5 14 38 C14 37.34 14 36.68 14 36 C14.66 36 15.32 36 16 36 C17.38388104 28.60805007 19.0115524 19.00784739 15.5625 12 C12.74274569 8.69882422 9.9052142 6.60660318 6.21875 4.359375 C4.03710386 3.02273264 2.02333342 1.56348491 0 0 Z " fill="#D5ECF7" transform="translate(114,196)"/>
<path d="M0 0 C1.91015625 0.23046875 1.91015625 0.23046875 3.91015625 2.23046875 C4.3868989 5.88549573 4.34335896 7.6047315 2.22265625 10.66796875 C-0.08984375 12.23046875 -0.08984375 12.23046875 -2.65234375 12.16796875 C-6.64984375 10.63046875 -6.64984375 10.63046875 -8.08984375 8.23046875 C-7.58234025 0.87166801 -7.30478431 0.14583054 0 0 Z " fill="#5E8DB5" transform="translate(224.08984375,210.76953125)"/>
<path d="M0 0 C4.48750726 0.12128398 7.44656208 2.43821918 11 5 C10.01 5.33 9.02 5.66 8 6 C6.55802132 7.44197868 5.88213756 9.17691571 5 11 C3.35 11 1.7 11 0 11 C0.33 11.66 0.66 12.32 1 13 C-2.94139078 11.33248852 -5.7892812 8.77289351 -9 6 C-8.67 5.34 -8.34 4.68 -8 4 C-6.515 4.99 -6.515 4.99 -5 6 C-5.66 4.68 -6.32 3.36 -7 2 C-6.401875 2.226875 -5.80375 2.45375 -5.1875 2.6875 C-4.465625 2.790625 -3.74375 2.89375 -3 3 C-2.525625 2.505 -2.05125 2.01 -1.5625 1.5 C-1.046875 1.005 -0.53125 0.51 0 0 Z " fill="#3181C4" transform="translate(68,190)"/>
<path d="M0 0 C1.7325 0.1546875 1.7325 0.1546875 3.5 0.3125 C6.06687367 4.1628105 5.33288724 5.89819763 4.5 10.3125 C3.84 10.3125 3.18 10.3125 2.5 10.3125 C2.5 10.9725 2.5 11.6325 2.5 12.3125 C-0.3125 12.5625 -0.3125 12.5625 -3.5 12.3125 C-5.4375 10.6875 -5.4375 10.6875 -6.5 8.3125 C-6.18311055 3.03100922 -5.65446701 0.50486313 0 0 Z " fill="#3380C3" transform="translate(221.5,177.6875)"/>
<path d="M0 0 C7.26692328 -0.0462955 14.53381488 -0.08185493 21.80085564 -0.10362434 C25.17506994 -0.11407142 28.54918352 -0.12824725 31.92333984 -0.15087891 C35.80048318 -0.17504885 39.67748277 -0.18646511 43.5546875 -0.1953125 C44.76929657 -0.20563507 45.98390564 -0.21595764 47.23532104 -0.22659302 C48.35633209 -0.22674408 49.47734314 -0.22689514 50.63232422 -0.22705078 C51.62271698 -0.231492 52.61310974 -0.23593323 53.6335144 -0.24050903 C56 0 56 0 58 2 C38.2 2.33 18.4 2.66 -2 3 C-1.34 2.67 -0.68 2.34 0 2 C0 1.34 0 0.68 0 0 Z " fill="#2D70A6" transform="translate(186,75)"/>
<path d="M0 0 C1.77149666 0.0001133 1.77149666 0.0001133 3.57878113 0.00022888 C4.85385025 0.00539017 6.12891937 0.01055145 7.44262695 0.01586914 C9.40060966 0.01799156 9.40060966 0.01799156 11.39814758 0.02015686 C14.86530477 0.02397159 18.33241994 0.03379295 21.79956055 0.04486084 C25.33878003 0.05509741 28.87800631 0.05965929 32.41723633 0.06469727 C39.35931086 0.07541616 46.30135751 0.09248005 53.2434082 0.11352539 C53.2434082 0.44352539 53.2434082 0.77352539 53.2434082 1.11352539 C52.54041092 1.11939163 51.83741364 1.12525787 51.1131134 1.13130188 C44.47747333 1.18928388 37.84215321 1.26139176 31.20683765 1.3492403 C27.79579356 1.3939061 24.38486785 1.43317006 20.97363281 1.45996094 C17.04897671 1.49102345 13.12482219 1.54581157 9.20043945 1.60180664 C7.97944046 1.60819656 6.75844147 1.61458649 5.5004425 1.62117004 C4.3596373 1.6409642 3.21883209 1.66075836 2.04345703 1.68115234 C1.04196121 1.6922554 0.04046539 1.70335846 -0.99137878 1.71479797 C-4.18941733 2.17593628 -6.07318819 3.36652151 -8.7565918 5.11352539 C-9.4165918 5.11352539 -10.0765918 5.11352539 -10.7565918 5.11352539 C-10.8597168 5.71165039 -10.9628418 6.30977539 -11.0690918 6.92602539 C-11.7565918 9.11352539 -11.7565918 9.11352539 -13.2878418 10.45727539 C-15.2370778 12.65535004 -15.06967146 13.91269315 -14.9440918 16.80102539 C-14.91702148 17.60926758 -14.88995117 18.41750977 -14.86206055 19.25024414 C-14.82725586 19.86512695 -14.79245117 20.48000977 -14.7565918 21.11352539 C-14.0965918 21.11352539 -13.4365918 21.11352539 -12.7565918 21.11352539 C-13.0865918 22.43352539 -13.4165918 23.75352539 -13.7565918 25.11352539 C-16.83039693 20.11859205 -17.69208227 15.84982963 -16.7565918 10.11352539 C-12.85308685 2.58533727 -8.31351737 -0.01772605 0 0 Z " fill="#E2FAFD" transform="translate(192.756591796875,87.886474609375)"/>
<path d="M0 0 C3.375 -0.125 3.375 -0.125 7 0 C9 2 9 2 9.3125 5.5 C9.1578125 7.2325 9.1578125 7.2325 9 9 C6 11 6 11 2.375 10.75 C1.26125 10.5025 0.1475 10.255 -1 10 C-2.35439668 7.29120665 -2.06501451 4.99066732 -2 2 C-1.34 2 -0.68 2 0 2 C0 1.34 0 0.68 0 0 Z " fill="#4387BF" transform="translate(191,166)"/>
<path d="M0 0 C0.33 0 0.66 0 1 0 C1.50130606 5.26371362 0.31168629 7.9090934 -3 12 C-3.66 12 -4.32 12 -5 12 C-5.03738281 12.61488281 -5.07476562 13.22976562 -5.11328125 13.86328125 C-5.17902344 14.67152344 -5.24476563 15.47976562 -5.3125 16.3125 C-5.37050781 17.11300781 -5.42851562 17.91351563 -5.48828125 18.73828125 C-6.10494385 21.4638358 -7.01411722 22.08905619 -9 24 C-10.11840771 26.03272642 -11.17695993 28.09905051 -12.1875 30.1875 C-12.71730469 31.27417969 -13.24710937 32.36085937 -13.79296875 33.48046875 C-14.19128906 34.31191406 -14.58960938 35.14335937 -15 36 C-15.66 36 -16.32 36 -17 36 C-15.73425162 26.03591097 -9.95210435 17.74353318 -4.546875 9.4921875 C-2.63921933 6.41874225 -1.27604364 3.37776259 0 0 Z " fill="#3E7FB4" transform="translate(282,178)"/>
<path d="M0 0 C0.96164063 -0.00515625 1.92328125 -0.0103125 2.9140625 -0.015625 C5.375 0.25 5.375 0.25 7.375 2.25 C3.74776044 4.06361978 -0.55621957 3.66091321 -4.55859375 3.87109375 C-7.79292125 4.03804855 -7.79292125 4.03804855 -10.625 6.25 C-11.09951726 8.30687573 -11.09951726 8.30687573 -11.06640625 10.6796875 C-11.09283203 11.55753906 -11.11925781 12.43539062 -11.14648438 13.33984375 C-11.16001953 14.25894531 -11.17355469 15.17804688 -11.1875 16.125 C-11.22206298 17.93507587 -11.26473929 19.74501909 -11.31640625 21.5546875 C-11.32873291 22.35890137 -11.34105957 23.16311523 -11.35375977 23.99169922 C-11.65801886 26.52490947 -12.20392276 28.13121721 -13.625 30.25 C-16.75 31 -16.75 31 -19.625 31.25 C-19.955 30.59 -20.285 29.93 -20.625 29.25 C-18.645 28.59 -16.665 27.93 -14.625 27.25 C-14.6156543 26.63479492 -14.60630859 26.01958984 -14.59667969 25.38574219 C-14.54288915 22.58968914 -14.45926181 19.7952938 -14.375 17 C-14.36082031 16.03191406 -14.34664063 15.06382812 -14.33203125 14.06640625 C-14.08498187 6.90197431 -14.08498187 6.90197431 -11.828125 3.703125 C-7.66046182 0.95424077 -5.07766999 -0.02737288 0 0 Z " fill="#3574A9" transform="translate(109.625,239.75)"/>
<path d="M0 0 C1.8125 1.1875 1.8125 1.1875 3 3 C3.4334014 5.88934264 3.42525784 7.35092224 1.8125 9.8125 C-0.64907776 11.42525784 -2.11065736 11.4334014 -5 11 C-6.8125 9.875 -6.8125 9.875 -8 8 C-8.375 4.9375 -8.375 4.9375 -8 2 C-4.76746204 -0.15502531 -3.74849077 -0.46856135 0 0 Z " fill="#457BA8" transform="translate(204,195)"/>
<path d="M0 0 C1.47968324 0.14049518 2.95874516 0.28754826 4.4375 0.4375 C5.67306641 0.55931641 5.67306641 0.55931641 6.93359375 0.68359375 C9 1 9 1 10 2 C10.25017242 5.11727443 10.18522148 8.2488657 10.1875 11.375 C10.19974609 12.2515625 10.21199219 13.128125 10.22460938 14.03125 C10.22750977 15.29582031 10.22750977 15.29582031 10.23046875 16.5859375 C10.23457764 17.3598584 10.23868652 18.1337793 10.24291992 18.93115234 C10 21 10 21 8 24 C5.56982422 24.2487793 5.56982422 24.2487793 2.5546875 24.07421875 C1.47832031 24.01943359 0.40195313 23.96464844 -0.70703125 23.90820312 C-1.83496094 23.83537109 -2.96289062 23.76253906 -4.125 23.6875 C-5.82849609 23.5956543 -5.82849609 23.5956543 -7.56640625 23.50195312 C-10.37866961 23.3483421 -13.18935144 23.18044528 -16 23 C-16 22.67 -16 22.34 -16 22 C-8.41 22 -0.82 22 7 22 C6.505 12.595 6.505 12.595 6 3 C4.02 2.34 2.04 1.68 0 1 C0 0.67 0 0.34 0 0 Z " fill="#528AB6" transform="translate(98,113)"/>
<path d="M0 0 C5.62053461 -0.26576959 9.92571488 0.80336986 14.48046875 4.20703125 C18.79176155 8.81786797 20.55696556 12.74926288 20.359375 19.09765625 C20.26026777 20.55122898 20.15461339 22.0043677 20.04296875 23.45703125 C19.99076172 24.20210938 19.93855469 24.9471875 19.88476562 25.71484375 C19.75564705 27.54597986 19.61881761 29.37656938 19.48046875 31.20703125 C19.15046875 31.20703125 18.82046875 31.20703125 18.48046875 31.20703125 C18.42439453 29.57894531 18.42439453 29.57894531 18.3671875 27.91796875 C18.30149 26.47262386 18.23504399 25.02731286 18.16796875 23.58203125 C18.13413086 22.51275391 18.13413086 22.51275391 18.09960938 21.421875 C17.85886433 16.650746 16.85478375 13.44642478 14.48046875 9.20703125 C14.48046875 8.54703125 14.48046875 7.88703125 14.48046875 7.20703125 C13.15708243 6.52083094 11.82096927 5.85916664 10.48046875 5.20703125 C9.82046875 4.86671875 9.16046875 4.52640625 8.48046875 4.17578125 C4.08654205 2.75690909 -0.24036472 2.73779096 -4.83203125 2.58203125 C-5.76337891 2.54335937 -6.69472656 2.5046875 -7.65429688 2.46484375 C-9.94251532 2.37096812 -12.2307342 2.28528616 -14.51953125 2.20703125 C-14.51953125 1.87703125 -14.51953125 1.54703125 -14.51953125 1.20703125 C-9.68341613 0.74878684 -4.84107398 0.39779368 0 0 Z " fill="#4680AF" transform="translate(198.51953125,232.79296875)"/>
<path d="M0 0 C2.70623958 3.15727951 4.93018974 5.934721 6 10 C5.01 11.485 5.01 11.485 4 13 C3.50191301 15.21656867 3.50191301 15.21656867 3.25390625 17.67578125 C3.13853516 18.58650391 3.02316406 19.49722656 2.90429688 20.43554688 C2.67785934 22.34150397 2.45386918 24.24775354 2.23242188 26.15429688 C1.56404311 31.39423869 0.73326008 35.45471792 -2 40 C-3.03985555 36.78523532 -2.91039653 34.70281297 -2.125 31.4375 C-1.07879723 26.73656223 -0.62021187 22.15118123 -0.34375 17.34765625 C0 15 0 15 2 12 C2.16699232 8.87478167 2.16699232 8.87478167 2 6 C1.34 5.67 0.68 5.34 0 5 C0 3.35 0 1.7 0 0 Z " fill="#DCF3FC" transform="translate(168,118)"/>
<path d="M0 0 C0.66 0.33 1.32 0.66 2 1 C1.67515625 1.85658203 1.67515625 1.85658203 1.34375 2.73046875 C-2.06152119 12.64674457 -2.55184779 21.37842479 1.8125 31.0625 C3.60659541 34.64626096 5.49858275 37.86759462 8 41 C7.67 41.66 7.34 42.32 7 43 C2.65192773 40.01617188 1.0095534 37.50410288 -0.75 32.5625 C-1.15734375 31.45003906 -1.5646875 30.33757812 -1.984375 29.19140625 C-5.36959831 18.55399301 -4.34564686 10.20451003 0 0 Z " fill="#447EAE" transform="translate(56,155)"/>
<path d="M0 0 C2.5 1.8125 2.5 1.8125 5 4 C5 4.99 5 5.98 5 7 C6.25659424 6.99214478 6.25659424 6.99214478 7.53857422 6.98413086 C10.64338936 6.96709986 13.74818071 6.95455518 16.85302734 6.94506836 C18.85906551 6.93755964 20.86508202 6.9248553 22.87109375 6.91210938 C24.75634766 6.90727539 24.75634766 6.90727539 26.6796875 6.90234375 C28.42354736 6.89448853 28.42354736 6.89448853 30.20263672 6.88647461 C33 7 33 7 35 8 C35 8.99 35 9.98 35 11 C34.01 10.67 33.02 10.34 32 10 C30.40398811 9.96397463 28.80631275 9.98526627 27.2109375 10.04296875 C25.79748047 10.07487305 25.79748047 10.07487305 24.35546875 10.10742188 C22.39155678 10.16018753 20.42792603 10.22500159 18.46484375 10.30273438 C11.95081195 10.42205517 6.53805349 9.65773864 1 6 C-0.5625 3.25 -0.5625 3.25 -1 1 C-0.67 0.67 -0.34 0.34 0 0 Z " fill="#457FAD" transform="translate(171,237)"/>
<path d="M0 0 C2.51670208 0.41945035 4.65985893 0.82444332 6.9375 2 C11.37467623 4.15135817 16.41858588 4.14816882 21.2734375 4.31640625 C22.42714844 4.35830078 23.58085938 4.40019531 24.76953125 4.44335938 C25.95933594 4.48267578 27.14914063 4.52199219 28.375 4.5625 C30.19451172 4.62727539 30.19451172 4.62727539 32.05078125 4.69335938 C35.03375032 4.79905513 38.01679742 4.90115321 41 5 C41 5.99 41 6.98 41 8 C36.89508361 7.91800134 32.79153368 7.80526599 28.6875 7.6875 C27.53958984 7.66494141 26.39167969 7.64238281 25.20898438 7.61914062 C7.35232461 7.0627008 7.35232461 7.0627008 1.6940918 1.89331055 C1.1350415 1.26851807 0.57599121 0.64372559 0 0 Z " fill="#3A78AC" transform="translate(73,191)"/>
<path d="M0 0 C0.99 0.33 1.98 0.66 3 1 C3.31693169 6.28219483 2.72514976 9.45808374 0 14 C-0.37125 14.763125 -0.7425 15.52625 -1.125 16.3125 C-3.82164944 18.73948449 -6.40232098 18.62082305 -9.94140625 18.82421875 C-12.06333296 18.87771033 -12.06333296 18.87771033 -14 20 C-14.26932521 24.65052872 -14.26932521 24.65052872 -13 29 C-13.99 28.67 -14.98 28.34 -16 28 C-16 24.7 -16 21.4 -16 18 C-15.01 18 -14.02 18 -13 18 C-13.33 17.01 -13.66 16.02 -14 15 C-8.06 14.505 -8.06 14.505 -2 14 C-1.71125 12.948125 -1.4225 11.89625 -1.125 10.8125 C-0.22774807 7.77181289 0.76423419 4.91287656 2 2 C1.34 2 0.68 2 0 2 C0 1.34 0 0.68 0 0 Z " fill="#CBE5F2" transform="translate(252,170)"/>
<path d="M0 0 C0.33 0 0.66 0 1 0 C1.03738281 0.93199219 1.07476562 1.86398438 1.11328125 2.82421875 C1.50926906 10.50327645 2.35570851 17.61692756 4.28125 25.09765625 C5.01269767 28.05127374 5.53546899 30.99394838 6 34 C6.66 34 7.32 34 8 34 C8.680625 35.7015625 8.680625 35.7015625 9.375 37.4375 C10.57095806 41.04721692 10.57095806 41.04721692 13 42 C13 42.66 13 43.32 13 44 C14.32 44.33 15.64 44.66 17 45 C13.8125 45 13.8125 45 10 44 C-0.86833377 32.43978292 -0.28748561 14.66176622 0 0 Z " fill="#3A73A4" transform="translate(265,214)"/>
<path d="M0 0 C2.34375 1.52734375 2.34375 1.52734375 4 3 C0.25 4.125 0.25 4.125 -2 3 C-3.87862875 3.08744368 -5.75455181 3.24175542 -7.625 3.4375 C-9.12933594 3.59025391 -9.12933594 3.59025391 -10.6640625 3.74609375 C-11.82035156 3.87177734 -11.82035156 3.87177734 -13 4 C-13 5.98 -13 7.96 -13 10 C-10.03 10 -7.06 10 -4 10 C-3.34 11.65 -2.68 13.3 -2 15 C-2.99 14.34 -3.98 13.68 -5 13 C-7.24645876 12.58256635 -7.24645876 12.58256635 -9.625 12.4375 C-13.90158172 12.09841828 -13.90158172 12.09841828 -15 11 C-15.34683394 7.32356025 -15.45864266 4.85176495 -13.6875 1.5625 C-9.421267 -0.91786802 -4.81320322 -0.78568464 0 0 Z " fill="#467EAE" transform="translate(256,156)"/>
<path d="M0 0 C0 0.33 0 0.66 0 1 C-1.00160156 1.01417969 -2.00320312 1.02835938 -3.03515625 1.04296875 C-10.73965604 1.27327156 -16.09931477 1.61241783 -22 7 C-26.65517241 10 -26.65517241 10 -29 10 C-29.66 11.32 -30.32 12.64 -31 14 C-31.66 14 -32.32 14 -33 14 C-33.33 14.99 -33.66 15.98 -34 17 C-34.99 17.33 -35.98 17.66 -37 18 C-37 17.34 -37 16.68 -37 16 C-36.34 16 -35.68 16 -35 16 C-34.9175 15.4225 -34.835 14.845 -34.75 14.25 C-32.86256873 8.5877062 -26.02910661 4.24691686 -20.9375 1.5 C-14.39928801 -1.16198631 -6.91706714 -0.30553916 0 0 Z " fill="#5D91BD" transform="translate(120,46)"/>
<path d="M0 0 C0 0.99 0 1.98 0 3 C-3.3 3.33 -6.6 3.66 -10 4 C-10 6.31 -10 8.62 -10 11 C-5.05 10.67 -0.1 10.34 5 10 C4.67 10.99 4.34 11.98 4 13 C1.91731407 13.08126087 -0.16628658 13.13930839 -2.25 13.1875 C-3.41015625 13.22230469 -4.5703125 13.25710937 -5.765625 13.29296875 C-9.25652607 12.97676394 -10.61955611 12.53682341 -13 10 C-13.4375 6.4375 -13.4375 6.4375 -13 3 C-9.83759418 0.89172945 -8.49342531 0.66182535 -4.8125 0.375 C-3.46091797 0.26285156 -3.46091797 0.26285156 -2.08203125 0.1484375 C-1.39496094 0.09945312 -0.70789063 0.05046875 0 0 Z " fill="#3A77A6" transform="translate(250,187)"/>
<path d="M0 0 C2.54766084 3.58559674 2.10784693 6.03141504 1.6875 10.375 C1.0275 11.035 0.3675 11.695 -0.3125 12.375 C-0.41046875 11.68792969 -0.5084375 11.00085938 -0.609375 10.29296875 C-0.75890625 9.39191406 -0.9084375 8.49085938 -1.0625 7.5625 C-1.20171875 6.66917969 -1.3409375 5.77585938 -1.484375 4.85546875 C-2.53174998 1.71828425 -3.47351642 1.03460483 -6.3125 -0.625 C-9.40401231 -1.12817193 -9.40401231 -1.12817193 -12.828125 -1.13671875 C-14.07851562 -1.17216797 -15.32890625 -1.20761719 -16.6171875 -1.24414062 C-17.91914062 -1.26669922 -19.22109375 -1.28925781 -20.5625 -1.3125 C-21.87992188 -1.34666016 -23.19734375 -1.38082031 -24.5546875 -1.41601562 C-27.80720678 -1.49850706 -31.05945596 -1.5676567 -34.3125 -1.625 C-34.3125 -1.955 -34.3125 -2.285 -34.3125 -2.625 C-29.91739874 -2.85130724 -25.5215006 -3.05290777 -21.125 -3.25 C-19.87912109 -3.31445312 -18.63324219 -3.37890625 -17.34960938 -3.4453125 C-16.14755859 -3.496875 -14.94550781 -3.5484375 -13.70703125 -3.6015625 C-12.60206299 -3.65393066 -11.49709473 -3.70629883 -10.35864258 -3.76025391 C-6.16547717 -3.57407024 -3.40447991 -2.39233724 0 0 Z " fill="#689BC2" transform="translate(118.3125,211.625)"/>
<path d="M0 0 C0.33 0 0.66 0 1 0 C1.07420211 4.07502794 1.1286257 8.14979392 1.16479492 12.2253418 C1.17987397 13.61147919 1.2003405 14.99756894 1.22631836 16.38354492 C1.26273716 18.37658146 1.27813018 20.36996723 1.29296875 22.36328125 C1.31653442 24.16212769 1.31653442 24.16212769 1.34057617 25.99731445 C1 29 1 29 -0.2878418 30.90307617 C-3.06335636 32.68125768 -5.8043533 32.18088566 -9 32 C-9 31.67 -9 31.34 -9 31 C-7.5459375 30.5359375 -7.5459375 30.5359375 -6.0625 30.0625 C-3.15934208 29.30476658 -3.15934208 29.30476658 -2 28 C-1.85436063 26.26790498 -1.77274211 24.53033712 -1.71875 22.79296875 C-1.68136719 21.73142578 -1.64398438 20.66988281 -1.60546875 19.57617188 C-1.57066406 18.45791016 -1.53585938 17.33964844 -1.5 16.1875 C-1.43099395 13.99336311 -1.35822795 11.79934043 -1.28125 9.60546875 C-1.23581055 8.13823364 -1.23581055 8.13823364 -1.18945312 6.64135742 C-1.02116022 4.29501602 -0.65826324 2.2509538 0 0 Z " fill="#3372A6" transform="translate(118,147)"/>
<path d="M0 0 C0.99 0.33 1.98 0.66 3 1 C2.34515625 1.92941406 1.6903125 2.85882813 1.015625 3.81640625 C-1.78271543 8.713502 -1.44551497 13.43676146 -1.25 18.9375 C-1.23195312 19.90751953 -1.21390625 20.87753906 -1.1953125 21.87695312 C-1.14850667 24.25234894 -1.08296385 26.62563844 -1 29 C-4.8308694 25.46697299 -4.855902 22.42506395 -5.16015625 17.3046875 C-5.41416782 9.02170144 -5.41416782 9.02170144 -2 5 C-1.28837557 3.35202764 -0.60968047 1.68834592 0 0 Z " fill="#D5EBF7" transform="translate(167,85)"/>
<path d="M0 0 C0.90833969 2.72501908 1.18359985 4.62233971 1.31640625 7.44921875 C1.35830078 8.29677734 1.40019531 9.14433594 1.44335938 10.01757812 C1.48267578 10.89865234 1.52199219 11.77972656 1.5625 12.6875 C1.60568359 13.58017578 1.64886719 14.47285156 1.69335938 15.39257812 C1.79935353 17.59490108 1.90142051 19.79733473 2 22 C1.34 21.67 0.68 21.34 0 21 C-0.37890625 18.3125 -0.37890625 18.3125 -0.5625 15 C-0.45431019 11.18265388 -0.45431019 11.18265388 -2 8 C-2 5.69 -2 3.38 -2 1 C-8.6 0.67 -15.2 0.34 -22 0 C-22 -0.33 -22 -0.66 -22 -1 C-4.24203822 -2.82802548 -4.24203822 -2.82802548 0 0 Z " fill="#C3E3F5" transform="translate(206,248)"/>
<path d="M0 0 C1.33804688 0.04060547 1.33804688 0.04060547 2.703125 0.08203125 C3.37859375 0.11683594 4.0540625 0.15164062 4.75 0.1875 C1.99433749 2.94316251 -0.46539633 2.64684233 -4.25 3.1875 C-7.16651646 6.10401646 -6.63364367 9.27245177 -6.75 13.1875 C-6.97972973 20.91722973 -6.97972973 20.91722973 -9.25 23.1875 C-9.36608726 19.91696483 -9.43720711 16.6469582 -9.5 13.375 C-9.53351563 12.44623047 -9.56703125 11.51746094 -9.6015625 10.56054688 C-9.61445312 9.66787109 -9.62734375 8.77519531 -9.640625 7.85546875 C-9.66157227 7.03328857 -9.68251953 6.2111084 -9.70410156 5.36401367 C-9.25 3.1875 -9.25 3.1875 -7.38671875 1.4140625 C-4.73583578 -0.10765094 -3.03355006 -0.1197454 0 0 Z " fill="#C4E1F2" transform="translate(107.25,242.8125)"/>
<path d="M0 0 C6.75 -0.125 6.75 -0.125 9 1 C9.36666667 6.5 9.36666667 6.5 7.625 8.875 C6 10 6 10 4 10 C4 15.28 4 20.56 4 26 C3.34 26 2.68 26 2 26 C1.8918134 23.41554227 1.81262763 20.83562648 1.75 18.25 C1.71648437 17.52039063 1.68296875 16.79078125 1.6484375 16.0390625 C1.5823344 12.40339198 1.60582744 10.47550975 3.96875 7.625 C4.6390625 7.08875 5.309375 6.5525 6 6 C6.7872678 3.8618034 6.7872678 3.8618034 7 2 C4.69 1.67 2.38 1.34 0 1 C0 0.67 0 0.34 0 0 Z " fill="#3778AE" transform="translate(175,206)"/>
<path d="M0 0 C0.33 0 0.66 0 1 0 C1.125 7.75 1.125 7.75 0 10 C-0.99 10 -1.98 10 -3 10 C-3.0825 11.0725 -3.165 12.145 -3.25 13.25 C-4.0628159 17.31407952 -4.77094885 18.53072559 -8 21 C-8.99 21.33 -9.98 21.66 -11 22 C-7.33333333 14.66666667 -3.66666667 7.33333333 0 0 Z " fill="#C2E1F2" transform="translate(180,156)"/>
<path d="M0 0 C-3.14018291 2.09345527 -4.13884565 2.25245638 -7.75 2.4375 C-12.4953831 2.82375211 -15.7273239 3.9458288 -20 6 C-21.99263591 6.68836513 -23.99041337 7.36281399 -26 8 C-25.875 6.1875 -25.875 6.1875 -25 4 C-20.19279786 1.01234633 -15.75277106 0.29744549 -10.25 -0.25 C-9.48300781 -0.34023437 -8.71601562 -0.43046875 -7.92578125 -0.5234375 C-2.27773268 -1.13886634 -2.27773268 -1.13886634 0 0 Z " fill="#3C7AAB" transform="translate(117,229)"/>
<path d="M0 0 C0.99 0.33 1.98 0.66 3 1 C2.34 1 1.68 1 1 1 C1 6.94 1 12.88 1 19 C15.85 18.505 15.85 18.505 31 18 C31 18.66 31 19.32 31 20 C31.66 20.33 32.32 20.66 33 21 C32.01 21.495 32.01 21.495 31 22 C30.34 21.67 29.68 21.34 29 21 C26.82325217 20.84530633 24.6421652 20.74997894 22.4609375 20.68359375 C20.50800781 20.62075195 20.50800781 20.62075195 18.515625 20.55664062 C17.13541955 20.51682701 15.75521117 20.47711478 14.375 20.4375 C12.98696585 20.39430593 11.59894472 20.35069135 10.2109375 20.30664062 C6.80741871 20.20028066 3.403723 20.09961082 0 20 C0 13.4 0 6.8 0 0 Z " fill="#B5DAF4" transform="translate(119,115)"/>
<path d="M0 0 C0.33 0 0.66 0 1 0 C1.12117188 0.99 1.24234375 1.98 1.3671875 3 C2.21942941 9.77592337 3.11931754 16.4176114 5 23 C4.34 22.67 3.68 22.34 3 22 C3 21.34 3 20.68 3 20 C2.34 20 1.68 20 1 20 C0.31640625 16.97265625 0.31640625 16.97265625 -0.3671875 13.9453125 C-0.90474428 11.79280036 -0.90474428 11.79280036 -3 10 C-2.69903201 5.86169011 -2.32101984 3.48152976 0 0 Z " fill="#E4F7FE" transform="translate(51,166)"/>
<path d="M0 0 C0 3.41775006 -0.24982104 6.77881173 -0.5 10.1875 C-0.5928125 11.45980469 -0.685625 12.73210937 -0.78125 14.04296875 C-0.8534375 15.01878906 -0.925625 15.99460938 -1 17 C-1.66 17 -2.32 17 -3 17 C-3 19.64 -3 22.28 -3 25 C-3.99 25 -4.98 25 -6 25 C-5.58438851 21.20559627 -5.13883398 17.41530721 -4.6875 13.625 C-4.56955078 12.54476562 -4.45160156 11.46453125 -4.33007812 10.3515625 C-4.20439453 9.3203125 -4.07871094 8.2890625 -3.94921875 7.2265625 C-3.78425903 5.79691162 -3.78425903 5.79691162 -3.6159668 4.33837891 C-3 2 -3 2 0 0 Z " fill="#3977AA" transform="translate(174,129)"/>
<path d="M0 0 C0.33 0 0.66 0 1 0 C1.88865743 12.04624512 0.22211346 19.87358201 -7.078125 29.8359375 C-7.71234375 30.55007812 -8.3465625 31.26421875 -9 32 C-9.66 32 -10.32 32 -11 32 C-9.93650461 28.80951382 -8.58163284 26.33913228 -6.5625 23.6875 C-1.19191777 16.30492974 -0.43435058 8.98656379 0 0 Z " fill="#3976AC" transform="translate(145,76)"/>
<path d="M0 0 C1.06348719 3.29757539 0.85759784 5.66689053 0.3125 9.0625 C-0.28970491 14.60873286 0.84768562 18.49852635 2.9921875 23.58984375 C3.88599383 25.72735734 4.50752513 27.74195032 5 30 C5.66 30 6.32 30 7 30 C7 30.66 7 31.32 7 32 C2.44285985 30.149879 1.03788006 27.5331845 -1.01953125 23.203125 C-2.99605142 16.74596747 -3.58859826 7.82954866 -0.97265625 1.5234375 C-0.65167969 1.02070312 -0.33070313 0.51796875 0 0 Z " fill="#3B78AB" transform="translate(167,92)"/>
<path d="M0 0 C2.31 0 4.62 0 7 0 C7.33 1.98 7.66 3.96 8 6 C5 8 5 8 2.3125 7.625 C1.549375 7.41875 0.78625 7.2125 0 7 C0 4.69 0 2.38 0 0 Z " fill="#317CBC" transform="translate(219,212)"/>
<path d="M0 0 C1.32499512 0.00749268 1.32499512 0.00749268 2.67675781 0.01513672 C3.78889648 0.03334473 4.90103516 0.05155273 6.046875 0.0703125 C11.368125 0.1321875 11.368125 0.1321875 16.796875 0.1953125 C16.796875 9.1053125 16.796875 18.0153125 16.796875 27.1953125 C16.466875 27.1953125 16.136875 27.1953125 15.796875 27.1953125 C15.796875 18.6153125 15.796875 10.0353125 15.796875 1.1953125 C12.868125 1.3396875 9.939375 1.4840625 6.921875 1.6328125 C6.00035645 1.67591553 5.07883789 1.71901855 4.12939453 1.76342773 C3.40349121 1.80153564 2.67758789 1.83964355 1.9296875 1.87890625 C0.81424561 1.93389282 0.81424561 1.93389282 -0.32373047 1.98999023 C-2.29176812 2.09487115 -2.29176812 2.09487115 -4.203125 3.1953125 C-5.87967229 2.91588795 -7.54920654 2.58703003 -9.203125 2.1953125 C-6.00855149 0.31116608 -3.68809871 -0.04288487 0 0 Z " fill="#A7CBE5" transform="translate(89.203125,148.8046875)"/>
<path d="M0 0 C11.11962454 0.56540464 20.88175469 4.74238067 30 11 C28.12109375 11.58203125 28.12109375 11.58203125 26 12 C24.0625 10.6875 24.0625 10.6875 22 9 C18.23930047 7.28082307 14.28340211 6.08732687 10.359375 4.796875 C6.87153727 3.61886358 3.43904629 2.3130904 0 1 C0 0.67 0 0.34 0 0 Z " fill="#427BAE" transform="translate(242,75)"/>
<path d="M0 0 C0.66 0 1.32 0 2 0 C2.06058594 1.0621875 2.12117188 2.124375 2.18359375 3.21875 C2.79270238 13.63715103 2.79270238 13.63715103 4 24 C3.34 24 2.68 24 2 24 C-0.62848705 15.62448194 -1.27895987 8.69076345 0 0 Z " fill="#B9DAEE" transform="translate(263,216)"/>
<path d="M0 0 C0.66 0 1.32 0 2 0 C1.979375 1.03125 1.95875 2.0625 1.9375 3.125 C1.86091431 6.8738258 1.86091431 6.8738258 2.6875 9.9375 C3.11533758 14.13030831 2.18995662 17.39690156 0 21 C-2.6875 22.5 -2.6875 22.5 -5 23 C-5 22.34 -5 21.68 -5 21 C-4.34 21 -3.68 21 -3 21 C-2.67 19.02 -2.34 17.04 -2 15 C-1.34 15 -0.68 15 0 15 C0 10.05 0 5.1 0 0 Z " fill="#E4F4F9" transform="translate(133,211)"/>
<path d="M0 0 C3.375 -0.125 3.375 -0.125 7 0 C9 2 9 2 9.3125 5.5 C9.1578125 7.2325 9.1578125 7.2325 9 9 C5.77208445 11.1519437 4.71599191 11.20086443 1 11 C1 10.01 1 9.02 1 8 C2.65 8 4.3 8 6 8 C6 6.35 6 4.7 6 3 C4.35 2.67 2.7 2.34 1 2 C0.67 3.65 0.34 5.3 0 7 C-0.33 7 -0.66 7 -1 7 C-0.67 4.69 -0.34 2.38 0 0 Z " fill="#457DAC" transform="translate(191,166)"/>
<path d="M0 0 C4.67193639 4.02753137 6.77369715 8.42014751 7.3125 14.5625 C6.99993344 18.0007322 6.25157465 20.79283997 5 24 C4.67 24 4.34 24 4 24 C3.96261719 22.91460937 3.92523438 21.82921875 3.88671875 20.7109375 C3.82102125 19.26559261 3.75457524 17.82028161 3.6875 16.375 C3.66494141 15.66214844 3.64238281 14.94929688 3.61914062 14.21484375 C3.37839558 9.44371475 2.374315 6.23939353 0 2 C0 1.34 0 0.68 0 0 Z " fill="#D1EDF9" transform="translate(126,66)"/>
<path d="M0 0 C0.98120464 3.05263664 0.98120464 4.94736336 0 8 C0.66 8 1.32 8 2 8 C1 11 1 11 -0.3125 12.25 C-3.27913007 15.32650525 -5.09645907 19.19291814 -7 23 C-7.66 23 -8.32 23 -9 23 C-7.67686729 18.88971274 -6.18275455 14.91352066 -4.5 10.9375 C-2.96619466 7.30406479 -1.45315116 3.66651567 0 0 Z " fill="#B9DAEC" transform="translate(298,173)"/>
<path d="M0 0 C0.33 0 0.66 0 1 0 C1.37844941 5.42444152 1.37844941 5.42444152 -0.5 8.28125 C-2.37398404 11.67784608 -2.30417601 13.96219167 -2.1875 17.8125 C-2.16042969 18.97394531 -2.13335937 20.13539063 -2.10546875 21.33203125 C-2.05326172 22.65267578 -2.05326172 22.65267578 -2 24 C-2.66 24 -3.32 24 -4 24 C-5.47601221 21.04797558 -5.24810352 18.34672048 -5.3125 15.0625 C-5.34988281 13.81597656 -5.38726562 12.56945312 -5.42578125 11.28515625 C-5 8 -5 8 -3.02734375 6.2265625 C-2.02380859 5.61941406 -2.02380859 5.61941406 -1 5 C-0.1957792 2.40144267 -0.1957792 2.40144267 0 0 Z " fill="#BEDEEF" transform="translate(184,208)"/>
<path d="M0 0 C0.66 0 1.32 0 2 0 C2 1.32 2 2.64 2 4 C2.66 4.33 3.32 4.66 4 5 C-0.455 8.96 -0.455 8.96 -5 13 C-6 10 -6 10 -4.85546875 7.51953125 C-4.30503906 6.62621094 -3.75460938 5.73289062 -3.1875 4.8125 C-2.37345703 3.46091797 -2.37345703 3.46091797 -1.54296875 2.08203125 C-1.03378906 1.39496094 -0.52460938 0.70789063 0 0 Z " fill="#3E83BC" transform="translate(171,83)"/>
<path d="M0 0 C0.33 0.33 0.66 0.66 1 1 C3.34987262 1.23527773 5.70556039 1.41386417 8.0625 1.5625 C9.35285156 1.64628906 10.64320312 1.73007813 11.97265625 1.81640625 C13.47119141 1.90728516 13.47119141 1.90728516 15 2 C15 2.33 15 2.66 15 3 C5.76 3.33 -3.48 3.66 -13 4 C-12 2 -12 2 -8.75 0.875 C-5.61624524 0.14379056 -3.17992697 -0.28058179 0 0 Z " fill="#D6EFFE" transform="translate(90,132)"/>
<path d="M0 0 C0.66 0.66 1.32 1.32 2 2 C1.3125 4.4375 1.3125 4.4375 0 7 C-2.5625 7.875 -2.5625 7.875 -5 8 C-6 7 -6 7 -6.0625 4.4375 C-6.041875 3.633125 -6.02125 2.82875 -6 2 C-4.02 1.34 -2.04 0.68 0 0 Z " fill="#3B80BF" transform="translate(204,196)"/>
<path d="M0 0 C0.76570312 0.23009766 0.76570312 0.23009766 1.546875 0.46484375 C4.7749338 1.16905403 7.95418001 1.34888204 11.25 1.5625 C12.51328125 1.64628906 13.7765625 1.73007813 15.078125 1.81640625 C16.04234375 1.87699219 17.0065625 1.93757812 18 2 C19 5 19 5 18.0625 7.1875 C17.5365625 8.0846875 17.5365625 8.0846875 17 9 C17.99 9.33 18.98 9.66 20 10 C18.68 10 17.36 10 16 10 C16 9.34 16 8.68 16 8 C13.03 7.505 13.03 7.505 10 7 C10 6.67 10 6.34 10 6 C11.98 5.34 13.96 4.68 16 4 C14.51886719 3.90912109 14.51886719 3.90912109 13.0078125 3.81640625 C11.72648438 3.73261719 10.44515625 3.64882812 9.125 3.5625 C7.84882813 3.48128906 6.57265625 3.40007812 5.2578125 3.31640625 C2 3 2 3 0 2 C0 1.34 0 0.68 0 0 Z " fill="#3079B5" transform="translate(180,233)"/>
<path d="M0 0 C1.43861294 0.08746284 2.87597508 0.19565348 4.3125 0.3125 C5.11300781 0.37050781 5.91351563 0.42851562 6.73828125 0.48828125 C9.40458281 1.09153773 10.36184852 1.84014423 12 4 C12.3125 6.5625 12.3125 6.5625 12 9 C11.34 9.66 10.68 10.32 10 11 C9.75712511 13.44012949 9.75712511 13.44012949 9.875 16.125 C9.90207031 17.49011719 9.90207031 17.49011719 9.9296875 18.8828125 C9.95289063 19.58148438 9.97609375 20.28015625 10 21 C7.09827833 15.75855019 7.61414312 10.71665962 9 5 C6.05162229 3.19821362 3.10021321 1.52360906 0 0 Z " fill="#3974A9" transform="translate(164,186)"/>
<path d="M0 0 C0 0.66 0 1.32 0 2 C-1.56020867 2.65134925 -3.12328579 3.29582964 -4.6875 3.9375 C-5.55761719 4.29714844 -6.42773438 4.65679687 -7.32421875 5.02734375 C-9.88179265 5.9570312 -12.3221323 6.54162625 -15 7 C-15 7.66 -15 8.32 -15 9 C-15.66 8.67 -16.32 8.34 -17 8 C-13.2438856 3.39022324 -5.96911561 -1.9897052 0 0 Z " fill="#5388B7" transform="translate(80,137)"/>
<path d="M0 0 C0.66 0.33 1.32 0.66 2 1 C1.38511719 1.76183594 1.38511719 1.76183594 0.7578125 2.5390625 C-4.94286114 9.82174127 -6.31609132 15.89321602 -7 25 C-7.33 25 -7.66 25 -8 25 C-8.65004688 8.98958612 -8.65004688 8.98958612 -2.3125 2.0625 C-1.549375 1.381875 -0.78625 0.70125 0 0 Z " fill="#3C78AB" transform="translate(99,63)"/>
<path d="M0 0 C0.66 0.66 1.32 1.32 2 2 C-1.60409116 3.80204558 -5.85888879 3.41012164 -9.8359375 3.62109375 C-12.75706309 3.97090755 -14.51735686 4.48962351 -17 6 C-17 5.01 -17 4.02 -17 3 C-11.61485482 -0.49306714 -6.24463811 -0.78568159 0 0 Z " fill="#427FAF" transform="translate(115,240)"/>
<path d="M0 0 C1.670625 0.061875 1.670625 0.061875 3.375 0.125 C3.375 1.115 3.375 2.105 3.375 3.125 C3.045 2.795 2.715 2.465 2.375 2.125 C0.70882885 2.08436168 -0.95888095 2.082279 -2.625 2.125 C-2.955 4.435 -3.285 6.745 -3.625 9.125 C-1.645 9.785 0.335 10.445 2.375 11.125 C2.375 11.455 2.375 11.785 2.375 12.125 C-0.4375 12.375 -0.4375 12.375 -3.625 12.125 C-5.5625 10.5 -5.5625 10.5 -6.625 8.125 C-6.30382282 2.77204698 -5.79014421 0.19966015 0 0 Z " fill="#6696BA" transform="translate(221.625,177.875)"/>
<path d="M0 0 C0.33 0 0.66 0 1 0 C1 5.94 1 11.88 1 18 C-3.62 18 -8.24 18 -13 18 C-8.93274566 15.2884971 -5.8452389 15.42132512 -1 15 C-0.67 10.05 -0.34 5.1 0 0 Z " fill="#E9FCFE" transform="translate(104,116)"/>
<path d="M0 0 C0.66 0.33 1.32 0.66 2 1 C1.34 1.66 0.68 2.32 0 3 C-0.144375 3.639375 -0.28875 4.27875 -0.4375 4.9375 C-1 7 -1 7 -2.5234375 8.3359375 C-4.47903109 10.53986044 -4.31344482 11.79076903 -4.1875 14.6875 C-4.16042969 15.49574219 -4.13335937 16.30398437 -4.10546875 17.13671875 C-4.07066406 17.75160156 -4.03585938 18.36648437 -4 19 C-3.34 19 -2.68 19 -2 19 C-2.33 20.32 -2.66 21.64 -3 23 C-6.06677667 18.01648792 -6.95270381 13.726467 -6 8 C-4.26016146 4.81029602 -2.55304507 2.55304507 0 0 Z " fill="#B8D8EE" transform="translate(182,90)"/>
<path d="M0 0 C2.30854925 2.12333613 3.78412576 4.13612842 5.1875 6.9375 C5.53167969 7.60652344 5.87585938 8.27554688 6.23046875 8.96484375 C7 11 7 11 7 15 C6.01 15 5.02 15 4 15 C2.24265549 10.02638346 0.67415387 5.2584002 0 0 Z " fill="#4A87B6" transform="translate(289,105)"/>
<path d="M0 0 C0.66 0.33 1.32 0.66 2 1 C1.67 2.65 1.34 4.3 1 6 C0.34 6 -0.32 6 -1 6 C-1 6.66 -1 7.32 -1 8 C-1.639375 8.12375 -2.27875 8.2475 -2.9375 8.375 C-3.618125 8.58125 -4.29875 8.7875 -5 9 C-5.33 9.66 -5.66 10.32 -6 11 C-6.66 11 -7.32 11 -8 11 C-6.46457536 6.52167812 -4.39145948 2.19572974 0 0 Z " fill="#D1EAF4" transform="translate(102,63)"/>
<path d="M0 0 C0.74056641 0.00902344 1.48113281 0.01804688 2.24414062 0.02734375 C4.05873467 0.05075787 5.87316071 0.08662385 7.6875 0.125 C4.49075344 1.99352088 1.98924758 2.39256629 -1.6875 2.5625 C-6.21559172 2.8950034 -9.38681302 3.70919262 -13.3125 6.125 C-14.3025 6.62 -14.3025 6.62 -15.3125 7.125 C-15.3125 6.135 -15.3125 5.145 -15.3125 4.125 C-14.6525 4.125 -13.9925 4.125 -13.3125 4.125 C-13.3125 3.465 -13.3125 2.805 -13.3125 2.125 C-8.90220217 -0.08449832 -4.82309676 -0.1120648 0 0 Z " fill="#CAE7F6" transform="translate(105.3125,227.875)"/>
<path d="M0 0 C0.66 0 1.32 0 2 0 C1.835 0.78375 1.67 1.5675 1.5 2.375 C0.45048131 9.9840105 0.81945511 16.64066101 3 24 C2.01 24 1.02 24 0 24 C-2.60167141 16.19498578 -2.61791625 7.85374875 0 0 Z " fill="#4B85B7" transform="translate(66,160)"/>
<path d="M0 0 C0.61328125 1.875 0.61328125 1.875 1 4 C-0.8125 6 -0.8125 6 -3 8 C-4.23512079 10.13309192 -4.23512079 10.13309192 -5 12 C-5.66 12 -6.32 12 -7 12 C-7 12.66 -7 13.32 -7 14 C-7.66 14 -8.32 14 -9 14 C-7.64002446 7.95566426 -4.14348206 4.36505864 0 0 Z " fill="#4B83B2" transform="translate(159,168)"/>
<path d="M0 0 C0.33 0.66 0.66 1.32 1 2 C-1.4119613 7.89190546 -5.28356436 13.69850004 -10 18 C-10.66 18 -11.32 18 -12 18 C-10.55038946 14.8195112 -8.75253422 12.28002633 -6.5625 9.5625 C-4.12362586 6.4834214 -1.89415643 3.45404997 0 0 Z " fill="#3C77AA" transform="translate(175,164)"/>
<path d="M0 0 C-0.33 1.32 -0.66 2.64 -1 4 C-1.99 4 -2.98 4 -4 4 C-4 9.28 -4 14.56 -4 20 C-4.66 20 -5.32 20 -6 20 C-6 14.06 -6 8.12 -6 2 C-2 0 -2 0 0 0 Z " fill="#E1F9FD" transform="translate(126,114)"/>
<path d="M0 0 C-1.36090707 4.08272121 -3.91593092 5.61725803 -7.1875 8.28125 C-9.25078906 9.96771124 -9.25078906 9.96771124 -10 13 C-10.66 13 -11.32 13 -12 13 C-12.33 13.66 -12.66 14.32 -13 15 C-13 13.68 -13 12.36 -13 11 C-12.34 11 -11.68 11 -11 11 C-11 10.01 -11 9.02 -11 8 C-10.34 8 -9.68 8 -9 8 C-8.67 7.01 -8.34 6.02 -8 5 C-7.34 5 -6.68 5 -6 5 C-5.8453125 4.0409375 -5.8453125 4.0409375 -5.6875 3.0625 C-5.460625 2.381875 -5.23375 1.70125 -5 1 C-2 0 -2 0 0 0 Z " fill="#D9EFFA" transform="translate(95,49)"/>
<path d="M0 0 C3.71599191 -0.20086443 4.77208445 -0.1519437 8 2 C7.67 4.31 7.34 6.62 7 9 C4.69 9.33 2.38 9.66 0 10 C3.75 7 3.75 7 6 7 C5.67 5.35 5.34 3.7 5 2 C3.02 2.33 1.04 2.66 -1 3 C-0.67 2.01 -0.34 1.02 0 0 Z " fill="#417AA9" transform="translate(219,179)"/>
<path d="M0 0 C5.22289724 0.409639 8.34664603 1.13174285 12 5 C12.8125 7.75 12.8125 7.75 13 10 C5.18691589 4.85046729 5.18691589 4.85046729 3 3 C3 2.34 3 1.68 3 1 C2.01 0.67 1.02 0.34 0 0 Z " fill="#528AB9" transform="translate(197,144)"/>
<path d="M0 0 C0.33 0 0.66 0 1 0 C1.50130606 5.26371362 0.31168629 7.9090934 -3 12 C-3.66 12 -4.32 12 -5 12 C-5 13.65 -5 15.3 -5 17 C-5.99 17 -6.98 17 -8 17 C-6.72242351 12.42201756 -4.93910467 9.67388084 -2 6 C-0.74443113 2.82078213 -0.74443113 2.82078213 0 0 Z " fill="#5B90BD" transform="translate(282,178)"/>
<path d="M0 0 C0.66 0 1.32 0 2 0 C3.52814822 5.73055582 3.88136486 12.35590541 2 18 C1.01 17.67 0.02 17.34 -1 17 C-0.505 15.515 -0.505 15.515 0 14 C0.06970052 11.60509014 0.08448003 9.20832309 0.0625 6.8125 C0.05347656 5.54019531 0.04445313 4.26789063 0.03515625 2.95703125 C0.02355469 1.98121094 0.01195312 1.00539062 0 0 Z " fill="#E7FAFD" transform="translate(267,166)"/>
<path d="M0 0 C0.66 0.33 1.32 0.66 2 1 C2.25 4.3125 2.25 4.3125 2 8 C-0.14032 10.45740444 -1.4026425 10.92888601 -4.625 11.3125 C-7 11 -7 11 -9 9 C-8.67 8.01 -8.34 7.02 -8 6 C-7.2575 6.350625 -6.515 6.70125 -5.75 7.0625 C-2.8677274 8.04509293 -1.78823655 8.0326802 1 7 C0.67 4.69 0.34 2.38 0 0 Z " fill="#5487B4" transform="translate(221,148)"/>
<path d="M0 0 C0.33 0 0.66 0 1 0 C3.13391403 6.25948114 3.58955515 12.42208127 4 19 C1.47110531 16.80096114 0.47733276 15.32365031 0 12 C-0.06743348 9.91765408 -0.08514472 7.83331443 -0.0625 5.75 C-0.04896484 4.13351563 -0.04896484 4.13351563 -0.03515625 2.484375 C-0.02355469 1.66453125 -0.01195312 0.8446875 0 0 Z " fill="#C6E2F3" transform="translate(160,197)"/>
<path d="M0 0 C3.3125 0.1875 3.3125 0.1875 7 1 C9 3.25 9 3.25 10 6 C9.6875 8.8125 9.6875 8.8125 9 11 C8.34 10.67 7.68 10.34 7 10 C6.375 6.9375 6.375 6.9375 6 4 C4.68 3.67 3.36 3.34 2 3 C2 2.34 2 1.68 2 1 C1.34 0.67 0.68 0.34 0 0 Z " fill="#4680B4" transform="translate(154,193)"/>
<path d="M0 0 C1.18414294 3.55242882 0.69535532 4.69830562 -0.4375 8.1875 C-0.72496094 9.08855469 -1.01242187 9.98960937 -1.30859375 10.91796875 C-1.53675781 11.60503906 -1.76492188 12.29210937 -2 13 C-2.66 13 -3.32 13 -4 13 C-4.29543354 7.97762985 -4.00679573 5.0892422 -1 1 C-0.67 0.67 -0.34 0.34 0 0 Z " fill="#D5ECF6" transform="translate(286,165)"/>
<path d="M0 0 C0.66 0 1.32 0 2 0 C1.53093741 2.53293799 1.0137494 3.98185079 -0.5625 6.0625 C-2.7695693 10.57259813 -2.23340224 15.06397486 -2 20 C-2.66 20 -3.32 20 -4 20 C-4 15.38 -4 10.76 -4 6 C-3.34 6 -2.68 6 -2 6 C-1.855625 5.195625 -1.71125 4.39125 -1.5625 3.5625 C-1 1 -1 1 0 0 Z " fill="#C5E1EF" transform="translate(153,171)"/>
<path d="M0 0 C0.66 0 1.32 0 2 0 C4 3 4 3 3.625 5.6875 C3.41875 6.450625 3.2125 7.21375 3 8 C1.1875 8.625 1.1875 8.625 -1 9 C-1.99 8.34 -2.98 7.68 -4 7 C-4 6.34 -4 5.68 -4 5 C-2.35 5 -0.7 5 1 5 C0.67 3.35 0.34 1.7 0 0 Z " fill="#3481C7" transform="translate(217,148)"/>
<path d="M0 0 C4.00453651 1.37298395 6.91685133 3.08350802 10 6 C11.3125 8.75 11.3125 8.75 12 11 C4.18691589 5.85046729 4.18691589 5.85046729 2 4 C2 3.34 2 2.68 2 2 C1.34 2 0.68 2 0 2 C0 1.34 0 0.68 0 0 Z " fill="#4880B0" transform="translate(118,199)"/>
<path d="M0 0 C0.77772405 2.33317216 1.42415568 4.61435923 2 7 C4.31 7 6.62 7 9 7 C9.33 8.32 9.66 9.64 10 11 C6.7 10.34 3.4 9.68 0 9 C-0.87890625 2.84765625 -0.87890625 2.84765625 -1 1 C-0.67 0.67 -0.34 0.34 0 0 Z " fill="#BBDDF2" transform="translate(174,196)"/>
<path d="M0 0 C5.61 0 11.22 0 17 0 C16.67 0.99 16.34 1.98 16 3 C13.89646505 3.0810206 11.79204048 3.13919907 9.6875 3.1875 C8.51574219 3.22230469 7.34398437 3.25710937 6.13671875 3.29296875 C3 3 3 3 0 0 Z " fill="#4A80B0" transform="translate(238,197)"/>
<path d="M0 0 C0.66 0 1.32 0 2 0 C1.34314541 3.16878201 0.23765019 5.72615709 -1.3125 8.5625 C-1.72113281 9.32691406 -2.12976563 10.09132812 -2.55078125 10.87890625 C-4.11411624 13.16702188 -5.7080009 14.4703716 -8 16 C-7.67 14.68 -7.34 13.36 -7 12 C-6.34 12 -5.68 12 -5 12 C-4.9175 11.319375 -4.835 10.63875 -4.75 9.9375 C-3.77667472 6.1253093 -2.04192545 3.35929671 0 0 Z " fill="#3F7AAA" transform="translate(264,181)"/>
<path d="M0 0 C2.475 0.99 2.475 0.99 5 2 C4.01 2.66 3.02 3.32 2 4 C1.52878944 6.59297228 1.52878944 6.59297228 1.5 9.5 C1.40625 12.46875 1.40625 12.46875 1 15 C0.01 15.66 -0.98 16.32 -2 17 C-1.34 11.39 -0.68 5.78 0 0 Z " fill="#D0ECFA" transform="translate(183,139)"/>
<path d="M0 0 C6.98203593 0.95209581 6.98203593 0.95209581 10 3 C12.0683099 5.99904936 12.19927643 8.41302423 12 12 C8.12299465 7.18716578 8.12299465 7.18716578 6.5625 4.8125 C4.62296077 2.56263449 2.79243876 1.90565582 0 1 C0 0.67 0 0.34 0 0 Z " fill="#4C86B7" transform="translate(120,62)"/>
<path d="M0 0 C2.31 0 4.62 0 7 0 C7.33 0.66 7.66 1.32 8 2 C9.64363134 2.72159424 11.31050386 3.39351421 13 4 C12.34 5.32 11.68 6.64 11 8 C10.29875 7.401875 9.5975 6.80375 8.875 6.1875 C6.02969023 4.02259039 3.23367233 2.50403364 0 1 C0 0.67 0 0.34 0 0 Z " fill="#C9E4F2" transform="translate(114,196)"/>
<path d="M0 0 C1.1875 1.5625 1.1875 1.5625 2 4 C0.78961907 8.05833607 -0.19802613 10.37406917 -3.5625 13 C-4.7690625 13.495 -4.7690625 13.495 -6 14 C-6.66 13.67 -7.32 13.34 -8 13 C-7.236875 12.154375 -6.47375 11.30875 -5.6875 10.4375 C-2.9508582 7.17996332 -1.50585211 3.96276872 0 0 Z " fill="#C7E1F1" transform="translate(144,93)"/>
<path d="M0 0 C2.8125 2.5 2.8125 2.5 5 5 C4.13375 4.690625 3.2675 4.38125 2.375 4.0625 C-3.57013265 2.32696438 -9.85139382 2.32405969 -16 2 C-16 1.67 -16 1.34 -16 1 C-14.27111445 0.83044205 -12.54187557 0.66448486 -10.8125 0.5 C-9.84957031 0.4071875 -8.88664062 0.314375 -7.89453125 0.21875 C-2.4121071 -0.19557625 -2.4121071 -0.19557625 0 0 Z " fill="#D1ECFA" transform="translate(122,44)"/>
<path d="M0 0 C0.33 0 0.66 0 1 0 C1.309375 0.969375 1.61875 1.93875 1.9375 2.9375 C2.69523342 5.84065792 2.69523342 5.84065792 4 7 C7.72224599 7.29386153 8.77786243 7.14809171 12 5 C11.67 6.65 11.34 8.3 11 10 C4.72413793 10.48275862 4.72413793 10.48275862 1.5625 8.375 C-0.39644605 5.397402 -0.31785906 3.49644963 0 0 Z " fill="#BCD8E8" transform="translate(195,198)"/>
<path d="M0 0 C0 0.33 0 0.66 0 1 C-1.98 1.66 -3.96 2.32 -6 3 C-7.0089034 7.23646767 -7.0089034 7.23646767 -6.0625 11.375 C-5.711875 11.91125 -5.36125 12.4475 -5 13 C-6.32 13 -7.64 13 -9 13 C-9 9.04 -9 5.08 -9 1 C-5.8035914 -0.06546953 -3.34252724 -0.07427838 0 0 Z " fill="#DFF4FC" transform="translate(223,177)"/>
<path d="M0 0 C4.81033104 2.54664585 8.32442148 4.99027798 12 9 C10.68 9.33 9.36 9.66 8 10 C8 9.34 8 8.68 8 8 C7.34 8 6.68 8 6 8 C5.54625 7.38125 5.0925 6.7625 4.625 6.125 C2.89720611 3.86557722 1.59186772 3.07249699 -1 2 C-0.67 1.34 -0.34 0.68 0 0 Z " fill="#E0F6FB" transform="translate(258,93)"/>
<path d="M0 0 C0.99 0.33 1.98 0.66 3 1 C1.44632634 2.01365893 -0.11837836 3.01042256 -1.6875 4 C-2.99267578 4.8353125 -2.99267578 4.8353125 -4.32421875 5.6875 C-7.16973337 7.08325608 -8.8788594 7.26993648 -12 7 C-12 6.34 -12 5.68 -12 5 C-11.07767578 4.70996094 -11.07767578 4.70996094 -10.13671875 4.4140625 C-9.32847656 4.15367188 -8.52023438 3.89328125 -7.6875 3.625 C-6.88699219 3.36976562 -6.08648437 3.11453125 -5.26171875 2.8515625 C-2.77275472 2.01168189 -2.77275472 2.01168189 0 0 Z " fill="#427CAD" transform="translate(131,108)"/>
<path d="M0 0 C0.66 0 1.32 0 2 0 C4.09350689 3.4019487 4.17942163 6.05272412 4 10 C3.01 10 2.02 10 1 10 C0.67 6.7 0.34 3.4 0 0 Z " fill="#4881B0" transform="translate(281,246)"/>
<path d="M0 0 C0.33 0 0.66 0 1 0 C0.39675174 6.39443155 0.39675174 6.39443155 -1.1875 8.8125 C-3.6476231 10.42430479 -6.18757877 11.18752276 -9 12 C-7.71034824 10.62437146 -6.37310707 9.29233607 -5 8 C-4.34 8 -3.68 8 -3 8 C-2.87625 7.4225 -2.7525 6.845 -2.625 6.25 C-1.99351176 3.97664233 -1.11141809 2.0746471 0 0 Z " fill="#5A90BA" transform="translate(131,88)"/>
<path d="M0 0 C1.0725 0.309375 2.145 0.61875 3.25 0.9375 C8.75793783 2.33429718 14.34559961 2.64188798 20 3 C20 3.33 20 3.66 20 4 C6.3667426 4.18451025 6.3667426 4.18451025 0 3 C0 2.01 0 1.02 0 0 Z " fill="#E4F7FB" transform="translate(176,245)"/>
<path d="M0 0 C0.33 0.99 0.66 1.98 1 3 C-0.3125 5 -0.3125 5 -3 7 C-6.68855385 7.36089448 -10.3051649 7.22933459 -14 7 C-14 6.67 -14 6.34 -14 6 C-13.22914063 5.97421875 -12.45828125 5.9484375 -11.6640625 5.921875 C-10.66117188 5.86515625 -9.65828125 5.8084375 -8.625 5.75 C-7.62726563 5.70359375 -6.62953125 5.6571875 -5.6015625 5.609375 C-2.85860431 5.28350693 -2.85860431 5.28350693 -1.7109375 3.015625 C-1.35902344 2.01789063 -1.35902344 2.01789063 -1 1 C-0.67 0.67 -0.34 0.34 0 0 Z " fill="#BCDAEE" transform="translate(259,194)"/>
<path d="M0 0 C0.99 0 1.98 0 3 0 C2.4376049 3.26189156 1.5859495 4.91134848 -1 7 C-1.99 7.33 -2.98 7.66 -4 8 C-2.66666667 5.33333333 -1.33333333 2.66666667 0 0 Z " fill="#D9EDF5" transform="translate(173,170)"/>
<path d="M0 0 C0.99 1.485 0.99 1.485 2 3 C3.03425441 4.40133435 4.07635312 5.79690305 5.125 7.1875 C5.66382813 7.90292969 6.20265625 8.61835937 6.7578125 9.35546875 C7.16773438 9.89816406 7.57765625 10.44085938 8 11 C7.67 11.66 7.34 12.32 7 13 C4.09197539 10.78071806 2.04687238 9.07030857 0 6 C-0.125 2.8125 -0.125 2.8125 0 0 Z " fill="#548AB9" transform="translate(176,107)"/>
<path d="M0 0 C2.97 0 5.94 0 9 0 C9 0.66 9 1.32 9 2 C10.32 2.66 11.64 3.32 13 4 C11 5 11 5 8.3984375 4.22265625 C6.90183594 3.64837891 6.90183594 3.64837891 5.375 3.0625 C4.37210938 2.68222656 3.36921875 2.30195312 2.3359375 1.91015625 C1.56507813 1.60980469 0.79421875 1.30945313 0 1 C0 0.67 0 0.34 0 0 Z " fill="#C4E0F3" transform="translate(251,76)"/>
<path d="M0 0 C4 4 4 4 4.171875 7.453125 C3.96304688 9.33257812 3.96304688 9.33257812 3.75 11.25 C3.62109375 12.51328125 3.4921875 13.7765625 3.359375 15.078125 C3.24078125 16.04234375 3.1221875 17.0065625 3 18 C2.67 18 2.34 18 2 18 C1.34 12.06 0.68 6.12 0 0 Z " fill="#DAEEFA" transform="translate(145,68)"/>
<path d="M0 0 C2.91227269 3.28804981 4.49701212 5.59885603 5 10 C2 10 2 10 0 9 C0 6.03 0 3.06 0 0 Z " fill="#4987BC" transform="translate(140,60)"/>
<path d="M0 0 C1.52519276 0.08937803 3.04681929 0.24537146 4.5625 0.4375 C5.80193359 0.59025391 5.80193359 0.59025391 7.06640625 0.74609375 C7.70449219 0.82988281 8.34257812 0.91367187 9 1 C8.01 2.485 8.01 2.485 7 4 C5.35 3.67 3.7 3.34 2 3 C1.67 3.66 1.34 4.32 1 5 C0.34 3.68 -0.32 2.36 -1 1 C-0.67 0.67 -0.34 0.34 0 0 Z " fill="#3D7DBA" transform="translate(208,266)"/>
<path d="M0 0 C2.5 1.8125 2.5 1.8125 5 4 C5 4.99 5 5.98 5 7 C6.32 7 7.64 7 9 7 C9 7.66 9 8.32 9 9 C4.56909529 7.79157144 2.01887244 6.48331435 -1 3 C-0.67 2.01 -0.34 1.02 0 0 Z " fill="#5187B4" transform="translate(171,237)"/>
<path d="M0 0 C0.598125 0.495 1.19625 0.99 1.8125 1.5 C3.97029994 3.28276418 3.97029994 3.28276418 7 3 C8.6875 5.5 8.6875 5.5 10 8 C6.45595664 8 5.89732095 7.39010515 3.3125 5.125 C2.68988281 4.59132812 2.06726562 4.05765625 1.42578125 3.5078125 C0 2 0 2 0 0 Z " fill="#6C9FC8" transform="translate(59,194)"/>
<path d="M0 0 C3.55007718 3.9050849 4.81819916 6.97734643 6 12 C3 11 3 11 1.3125 7.6875 C0 4 0 4 0 0 Z " fill="#BCDCEE" transform="translate(279,113)"/>
<path d="M0 0 C0.97582031 0.10183594 1.95164063 0.20367187 2.95703125 0.30859375 C3.69308594 0.39238281 4.42914063 0.47617188 5.1875 0.5625 C5.1875 0.8925 5.1875 1.2225 5.1875 1.5625 C4.45144531 1.62308594 3.71539062 1.68367188 2.95703125 1.74609375 C1.98121094 1.82988281 1.00539062 1.91367188 0 2 C-0.96292969 2.08121094 -1.92585937 2.16242188 -2.91796875 2.24609375 C-5.59899602 2.53916151 -8.1787986 2.98953754 -10.8125 3.5625 C-10.8125 2.5725 -10.8125 1.5825 -10.8125 0.5625 C-7.01982808 -0.3735342 -3.87575435 -0.42026252 0 0 Z " fill="#E5F7FC" transform="translate(194.8125,72.4375)"/>
<path d="M0 0 C1.0169313 2.65498232 1.13022151 3.69155375 0.00390625 6.359375 C-0.47175781 7.14828125 -0.94742187 7.9371875 -1.4375 8.75 C-2.14712891 9.94882813 -2.14712891 9.94882813 -2.87109375 11.171875 C-3.24363281 11.77515625 -3.61617188 12.3784375 -4 13 C-5.33332095 10.3333581 -4.67102033 8.83319697 -4 6 C-3.34 6 -2.68 6 -2 6 C-1.34 4.02 -0.68 2.04 0 0 Z " fill="#3474A6" transform="translate(293,182)"/>
<path d="M0 0 C0.66 0 1.32 0 2 0 C2.185625 0.9590625 2.185625 0.9590625 2.375 1.9375 C2.684375 2.9584375 2.684375 2.9584375 3 4 C3.66 4.33 4.32 4.66 5 5 C4.67 7.97 4.34 10.94 4 14 C3.67 14 3.34 14 3 14 C2.01 9.38 1.02 4.76 0 0 Z " fill="#DDF2FB" transform="translate(298,122)"/>
<path d="M0 0 C2.74277578 3.19990508 4.6302836 6.00499382 6 10 C5.01 10.99 4.02 11.98 3 13 C2.87625 11.865625 2.7525 10.73125 2.625 9.5625 C2.41875 8.386875 2.2125 7.21125 2 6 C1.34 5.67 0.68 5.34 0 5 C0 3.35 0 1.7 0 0 Z " fill="#CAE8F6" transform="translate(168,118)"/>
<path d="M0 0 C0.66 0.33 1.32 0.66 2 1 C0.63312778 4.98671063 -1.15195093 7.88494633 -4 11 C-4.66 11 -5.32 11 -6 11 C-4.54955729 6.89041233 -2.48889248 3.56741255 0 0 Z " fill="#457EAE" transform="translate(140,97)"/>
<path d="M0 0 C0.66 0 1.32 0 2 0 C2.05399736 1.45792884 2.09279177 2.91642712 2.125 4.375 C2.14820312 5.18710938 2.17140625 5.99921875 2.1953125 6.8359375 C2 9 2 9 0 11 C-0.19406478 9.35492782 -0.38007935 7.70890406 -0.5625 6.0625 C-0.66691406 5.14597656 -0.77132812 4.22945313 -0.87890625 3.28515625 C-0.91886719 2.53105469 -0.95882812 1.77695313 -1 1 C-0.67 0.67 -0.34 0.34 0 0 Z " fill="#ECFCFC" transform="translate(76,76)"/>
<path d="M0 0 C4.99911924 0.47610659 7.97832683 2.03162219 12 5 C8.25 6.125 8.25 6.125 6 5 C6 4.34 6 3.68 6 3 C4.35 3 2.7 3 1 3 C0.67 2.01 0.34 1.02 0 0 Z " fill="#4580AF" transform="translate(122,48)"/>
<path d="M0 0 C0.66 0 1.32 0 2 0 C0.515 6.435 0.515 6.435 -1 13 C-1.33 13 -1.66 13 -2 13 C-2.05391993 11.20866022 -2.09275571 9.41686101 -2.125 7.625 C-2.14820313 6.62726563 -2.17140625 5.62953125 -2.1953125 4.6015625 C-2 2 -2 2 0 0 Z " fill="#D4EFFB" transform="translate(266,203)"/>
<path d="M0 0 C6.75 -0.125 6.75 -0.125 9 1 C9 2.98 9 4.96 9 7 C8.01 7.33 7.02 7.66 6 8 C6.33 6.02 6.66 4.04 7 2 C4.69 1.67 2.38 1.34 0 1 C0 0.67 0 0.34 0 0 Z " fill="#3572A5" transform="translate(175,206)"/>
<path d="M0 0 C1.98 0 3.96 0 6 0 C6.66 1.98 7.32 3.96 8 6 C7.01 5.34 6.02 4.68 5 4 C2.66800612 3.92094936 0.33167378 3.91201231 -2 4 C-1.34 2.68 -0.68 1.36 0 0 Z " fill="#CBE2F1" transform="translate(199,192)"/>
<path d="M0 0 C0.99 0 1.98 0 3 0 C3.3125 2.8125 3.3125 2.8125 3 6 C0.5 7.875 0.5 7.875 -2 9 C-1.34 6.03 -0.68 3.06 0 0 Z " fill="#4385B6" transform="translate(255,172)"/>
<path d="M0 0 C1.7492214 -0.08142927 3.49954542 -0.13938541 5.25 -0.1875 C6.22453125 -0.22230469 7.1990625 -0.25710937 8.203125 -0.29296875 C11.37468742 0.03924798 12.67040307 0.88672279 15 3 C11.25 4.125 11.25 4.125 9 3 C9 2.34 9 1.68 9 1 C5.7 1.33 2.4 1.66 -1 2 C-0.67 1.34 -0.34 0.68 0 0 Z " fill="#6595BE" transform="translate(245,156)"/>
<path d="M0 0 C0.99 0.33 1.98 0.66 3 1 C2.01 4.3 1.02 7.6 0 11 C-2 8 -2 8 -1.6875 6.0625 C-1.460625 5.381875 -1.23375 4.70125 -1 4 C-0.814375 3.2575 -0.62875 2.515 -0.4375 1.75 C-0.293125 1.1725 -0.14875 0.595 0 0 Z " fill="#C6E3F2" transform="translate(53,155)"/>
<path d="M0 0 C4.875 2.625 4.875 2.625 6 6 C3.36 5.67 0.72 5.34 -2 5 C-2 4.34 -2 3.68 -2 3 C-1.34 3 -0.68 3 0 3 C0 2.01 0 1.02 0 0 Z " fill="#4282B8" transform="translate(211,138)"/>
<path d="M0 0 C1.32 0.33 2.64 0.66 4 1 C4.33 1.99 4.66 2.98 5 4 C3.68 3.67 2.36 3.34 1 3 C1 6.63 1 10.26 1 14 C0.67 14 0.34 14 0 14 C0 9.38 0 4.76 0 0 Z " fill="#5C95C1" transform="translate(182,136)"/>
<path d="M0 0 C6.93 0.495 6.93 0.495 14 1 C14 1.33 14 1.66 14 2 C6.08 2.495 6.08 2.495 -2 3 C-1.34 2.67 -0.68 2.34 0 2 C0 1.34 0 0.68 0 0 Z " fill="#3B7AB1" transform="translate(186,75)"/>
<path d="M0 0 C2.24940295 -0.08119503 4.49964871 -0.13927819 6.75 -0.1875 C8.00296875 -0.22230469 9.2559375 -0.25710937 10.546875 -0.29296875 C14.14109357 0.01197061 15.44725126 0.54394629 18 3 C16.33388095 3.042721 14.66617115 3.04063832 13 3 C12.67 2.67 12.34 2.34 12 2 C9.98405418 1.76572222 7.961526 1.58663876 5.9375 1.4375 C4.83277344 1.35371094 3.72804688 1.26992187 2.58984375 1.18359375 C1.73519531 1.12300781 0.88054687 1.06242188 0 1 C0 0.67 0 0.34 0 0 Z " fill="#E5F7FC" transform="translate(96,193)"/>
<path d="M0 0 C0.33 0 0.66 0 1 0 C1.99 4.29 2.98 8.58 4 13 C3.34 12.67 2.68 12.34 2 12 C2 11.34 2 10.68 2 10 C1.34 10 0.68 10 0 10 C-1.2380014 6.42355152 -0.74926071 3.66305234 0 0 Z " fill="#C1E0F1" transform="translate(52,176)"/>
<path d="M0 0 C2.475 0.99 2.475 0.99 5 2 C5 2.66 5 3.32 5 4 C6.32 4.33 7.64 4.66 9 5 C7.375 5.75 7.375 5.75 5 6 C1.75 4.0625 1.75 4.0625 -1 2 C-0.67 1.34 -0.34 0.68 0 0 Z " fill="#5488B5" transform="translate(91,107)"/>
<path d="M0 0 C0.99 0.309375 1.98 0.61875 3 0.9375 C6.97731122 2.08433207 10.88767379 2.56712356 15 3 C15 3.33 15 3.66 15 4 C13.25034642 4.05429959 11.50020213 4.09292823 9.75 4.125 C8.77546875 4.14820312 7.8009375 4.17140625 6.796875 4.1953125 C3.9803502 3.99862781 2.39050964 3.44568916 0 2 C0 1.34 0 0.68 0 0 Z " fill="#3675AB" transform="translate(102,100)"/>
<path d="M0 0 C0 0.99 0 1.98 0 3 C0.99 3.33 1.98 3.66 3 4 C3 4.99 3 5.98 3 7 C-0.36591866 5.55746343 -2.51047079 3.66735273 -5 1 C-2 0 -2 0 0 0 Z " fill="#548CBB" transform="translate(266,93)"/>
<path d="M0 0 C1.63001953 0.01353516 1.63001953 0.01353516 3.29296875 0.02734375 C4.12441406 0.03894531 4.95585938 0.05054688 5.8125 0.0625 C5.8125 0.3925 5.8125 0.7225 5.8125 1.0625 C4.56533203 1.26166016 4.56533203 1.26166016 3.29296875 1.46484375 C2.20628906 1.64144531 1.11960937 1.81804688 0 2 C-1.07894531 2.17402344 -2.15789062 2.34804688 -3.26953125 2.52734375 C-6.23683356 3.00121921 -6.23683356 3.00121921 -9.1875 4.0625 C-9.1875 3.0725 -9.1875 2.0825 -9.1875 1.0625 C-5.90230525 -0.03256492 -3.45086585 -0.03710608 0 0 Z " fill="#578EBC" transform="translate(110.1875,59.9375)"/>
<path d="M0 0 C1.98 0.99 1.98 0.99 4 2 C3.67 4.97 3.34 7.94 3 11 C2.01 11.33 1.02 11.66 0 12 C0.08378906 11.38511719 0.16757813 10.77023438 0.25390625 10.13671875 C0.35574219 9.32847656 0.45757812 8.52023438 0.5625 7.6875 C0.66691406 6.88699219 0.77132812 6.08648437 0.87890625 5.26171875 C1.14755178 2.83182884 1.14755178 2.83182884 0 0 Z " fill="#E8F9FE" transform="translate(183,205)"/>
<path d="M0 0 C0.33 0 0.66 0 1 0 C1.12375 0.804375 1.2475 1.60875 1.375 2.4375 C1.58125 3.283125 1.7875 4.12875 2 5 C2.66 5.33 3.32 5.66 4 6 C4 7.32 4 8.64 4 10 C4.66 10.33 5.32 10.66 6 11 C4.125 10.6875 4.125 10.6875 2 10 C-0.4294516 6.3558226 -0.16179575 4.28758728 0 0 Z " fill="#3573A5" transform="translate(150,182)"/>
<path d="M0 0 C0.99 0.33 1.98 0.66 3 1 C3.49230769 7.4 3.49230769 7.4 1 10.4375 C0.01 11.2109375 0.01 11.2109375 -1 12 C-0.39009109 8.44219804 0.5783681 5.3171411 2 2 C1.34 2 0.68 2 0 2 C0 1.34 0 0.68 0 0 Z " fill="#D7F0FA" transform="translate(252,170)"/>
<path d="M0 0 C0.33 0 0.66 0 1 0 C1.1875 2.375 1.1875 2.375 1 5 C-2.22791555 7.1519437 -3.28400809 7.20086443 -7 7 C-7 6.01 -7 5.02 -7 4 C-5.35 4 -3.7 4 -2 4 C-1.34 2.68 -0.68 1.36 0 0 Z " fill="#4276A4" transform="translate(199,170)"/>
<path d="M0 0 C1.98 0 3.96 0 6 0 C6.66 1.65 7.32 3.3 8 5 C4.62496331 3.8141763 2.35277269 2.72426311 0 0 Z " fill="#D4EDF8" transform="translate(194,127)"/>
<path d="M0 0 C-1.1446875 0.6496875 -1.1446875 0.6496875 -2.3125 1.3125 C-4.58093768 2.73686785 -6.2199723 4.03260097 -8 6 C-8.99 5.34 -9.98 4.68 -11 4 C-9.73760288 3.13341385 -8.46472499 2.28207941 -7.1875 1.4375 C-6.47980469 0.96183594 -5.77210938 0.48617187 -5.04296875 -0.00390625 C-3 -1 -3 -1 0 0 Z " fill="#E5F7FA" transform="translate(144,105)"/>
<path d="M0 0 C1.65 0 3.3 0 5 0 C4.67 1.65 4.34 3.3 4 5 C2.68 4.67 1.36 4.34 0 4 C0 2.68 0 1.36 0 0 Z " fill="#307EC4" transform="translate(199,199)"/>
<path d="M0 0 C0.66 0.33 1.32 0.66 2 1 C2 1.66 2 2.32 2 3 C-1 5 -1 5 -5 5 C-5 5.66 -5 6.32 -5 7 C-5.66 6.67 -6.32 6.34 -7 6 C-4.74259377 3.66475218 -2.7194239 1.81294927 0 0 Z " fill="#6393C0" transform="translate(70,139)"/>
<path d="M0 0 C2.86477034 1.05041579 3.83913226 1.70124563 5.3125 4.4375 C6 7 6 7 5 10 C2 6.375 2 6.375 2 3 C1.34 3 0.68 3 0 3 C0 2.01 0 1.02 0 0 Z " fill="#3576AC" transform="translate(284,100)"/>
<path d="M0 0 C0.99 0.33 1.98 0.66 3 1 C1.35 3.64 -0.3 6.28 -2 9 C-3 5 -3 5 -1.5625 2.25 C-1.046875 1.5075 -0.53125 0.765 0 0 Z " fill="#DBF4FB" transform="translate(271,194)"/>
<path d="M0 0 C0.92538169 3.70152678 1.08174162 4.63458162 0 8 C0.66 8 1.32 8 2 8 C1.67 8.99 1.34 9.98 1 11 C0.01 11.33 -0.98 11.66 -2 12 C-1.34 8.04 -0.68 4.08 0 0 Z " fill="#D8EDF6" transform="translate(298,173)"/>
<path d="M0 0 C0.33 0 0.66 0 1 0 C1.33 2.31 1.66 4.62 2 7 C0.35 7 -1.3 7 -3 7 C-1.125 1.125 -1.125 1.125 0 0 Z " fill="#D8F2FB" transform="translate(168,178)"/>
<path d="M0 0 C5.625 -0.25 5.625 -0.25 9 2 C8.67 4.31 8.34 6.62 8 9 C7.67 9 7.34 9 7 9 C6.34 6.69 5.68 4.38 5 2 C3.35 1.67 1.7 1.34 0 1 C0 0.67 0 0.34 0 0 Z " fill="#C0DCEC" transform="translate(193,165)"/>
<path d="M0 0 C1.9375 0.75 1.9375 0.75 4 2 C4.75 4.125 4.75 4.125 5 6 C5.66 6 6.32 6 7 6 C6.67 6.66 6.34 7.32 6 8 C1.2 4.55384615 1.2 4.55384615 0.1875 1.75 C0.125625 1.1725 0.06375 0.595 0 0 Z " fill="#CCE7F3" transform="translate(183,117)"/>
<path d="M0 0 C2.95183101 2.95183101 3.08663988 5.95511947 4 10 C3.34 10 2.68 10 2 10 C2 9.34 2 8.68 2 8 C1.34 8 0.68 8 0 8 C0 5.36 0 2.72 0 0 Z " fill="#CEE9F5" transform="translate(78,88)"/>
<path d="M0 0 C0.99 0 1.98 0 3 0 C2.67 2.97 2.34 5.94 2 9 C1.01 8.01 0.02 7.02 -1 6 C-0.6875 2.8125 -0.6875 2.8125 0 0 Z " fill="#2E7CB9" transform="translate(170,192)"/>
<path d="M0 0 C0 3 0 3 -2 5.1875 C-2.66 5.785625 -3.32 6.38375 -4 7 C-4 6.34 -4 5.68 -4 5 C-4.66 4.67 -5.32 4.34 -6 4 C-3.94766315 1.7522025 -2.99332739 0.9977758 0 0 Z " fill="#E3F5FC" transform="translate(159,166)"/>
<path d="M0 0 C1 2 1 2 0.25 4.4375 C-0.93098981 6.85852911 -1.9831559 8.25818009 -4 10 C-3.5205537 5.78087253 -2.83374881 3.20336822 0 0 Z " fill="#BCDBF0" transform="translate(71,156)"/>
<path d="M0 0 C0.99 0 1.98 0 3 0 C2.44271087 3.34373475 1.64826111 6.03312999 0 9 C-1.10844919 5.67465243 -0.84454356 3.37817425 0 0 Z " fill="#C8E4F4" transform="translate(166,149)"/>
<path d="M0 0 C1.953125 0.7109375 1.953125 0.7109375 4 2 C4.609375 4.1640625 4.609375 4.1640625 4.75 6.625 C4.80671875 7.44226563 4.8634375 8.25953125 4.921875 9.1015625 C4.94765625 9.72804688 4.9734375 10.35453125 5 11 C2.77174356 8.77174356 2.30760631 7.34238372 1.375 4.375 C1.11460937 3.55773437 0.85421875 2.74046875 0.5859375 1.8984375 C0.39257812 1.27195312 0.19921875 0.64546875 0 0 Z " fill="#CCE8F6" transform="translate(293,111)"/>
<path d="M0 0 C3.65316671 1.24976756 4.78065836 1.67098753 7 5 C6.67 5.99 6.34 6.98 6 8 C1.125 3.375 1.125 3.375 0 0 Z " fill="#6396BE" transform="translate(83,100)"/>
<path d="M0 0 C0.33 0 0.66 0 1 0 C1 1.65 1 3.3 1 5 C0.01 5.33 -0.98 5.66 -2 6 C-2.73323796 8.01508358 -2.73323796 8.01508358 -3 10 C-4 7 -4 7 -3.22265625 5.17578125 C-2.1484375 3.45052083 -1.07421875 1.72526042 0 0 Z " fill="#5D94C0" transform="translate(169,86)"/>
<path d="M0 0 C1.45947705 0.06006078 2.91779272 0.1488689 4.375 0.25 C5.59316406 0.31960937 5.59316406 0.31960937 6.8359375 0.390625 C9 1 9 1 10.2890625 3.046875 C10.64097656 4.01367188 10.64097656 4.01367188 11 5 C9.53932801 4.54917531 8.08151968 4.08906463 6.625 3.625 C5.81289062 3.36976562 5.00078125 3.11453125 4.1640625 2.8515625 C2 2 2 2 0 0 Z " fill="#6395BF" transform="translate(250,89)"/>
<path d="M0 0 C2.625 -0.1875 2.625 -0.1875 5 0 C3.02 2.31 1.04 4.62 -1 7 C-1.33 5.68 -1.66 4.36 -2 3 C-1.34 2.01 -0.68 1.02 0 0 Z " fill="#4782B4" transform="translate(179,89)"/>
<path d="M0 0 C1.98 0.99 1.98 0.99 4 2 C4 4.64 4 7.28 4 10 C2.26337666 6.77484237 1.1094072 3.48670834 0 0 Z " fill="#D8F2FB" transform="translate(280,238)"/>
<path d="M0 0 C0.99 0.33 1.98 0.66 3 1 C-2.75 6 -2.75 6 -5 6 C-3.63016497 2.83884224 -3.0109362 2.0072908 0 0 Z " fill="#4981AF" transform="translate(123,235)"/>
<path d="M0 0 C0.33 0 0.66 0 1 0 C1 2.97 1 5.94 1 9 C0.34 9 -0.32 9 -1 9 C-1.80967438 6.08517222 -2.21845993 4.53886783 -1.0625 1.6875 C-0.711875 1.130625 -0.36125 0.57375 0 0 Z " fill="#E8FAFE" transform="translate(148,179)"/>
<path d="M0 0 C0 0.99 0 1.98 0 3 C-0.33 3.33 -0.66 3.66 -1 4 C-3.33944736 3.71269945 -5.6739143 3.38063221 -8 3 C-7.67 2.34 -7.34 1.68 -7 1 C-4.67843403 0.59270772 -2.3431213 0.25561323 0 0 Z " fill="#C7E0EF" transform="translate(199,175)"/>
<path d="M0 0 C0.99 0 1.98 0 3 0 C1.70700306 2.88437779 0.34058637 4.87219421 -2 7 C-2.66 6.67 -3.32 6.34 -4 6 C-2.1875 3 -2.1875 3 0 0 Z " fill="#5188B9" transform="translate(60,148)"/>
<path d="M0 0 C2.97 0.495 2.97 0.495 6 1 C6 1.66 6 2.32 6 3 C6.99 3.33 7.98 3.66 9 4 C8.01 4.33 7.02 4.66 6 5 C2.8125 3.125 2.8125 3.125 0 1 C0 0.67 0 0.34 0 0 Z " fill="#C7E5F3" transform="translate(194,144)"/>
<path d="M0 0 C2.475 0.495 2.475 0.495 5 1 C5.33 2.65 5.66 4.3 6 6 C3.96166576 4.7260411 1.96147874 3.38938077 0 2 C0 1.34 0 0.68 0 0 Z " fill="#D3EDF9" transform="translate(274,87)"/>
<path d="M0 0 C0.33 0 0.66 0 1 0 C1 2.64 1 5.28 1 8 C-0.98 8.99 -0.98 8.99 -3 10 C-3.33 9.34 -3.66 8.68 -4 8 C-3.34 8 -2.68 8 -2 8 C-1.34 5.36 -0.68 2.72 0 0 Z " fill="#DCEFF9" transform="translate(228,214)"/>
<path d="M0 0 C2.475 0.495 2.475 0.495 5 1 C5 2.32 5 3.64 5 5 C3.0625 4.1875 3.0625 4.1875 1 3 C0.67 2.01 0.34 1.02 0 0 Z " fill="#3382C5" transform="translate(193,168)"/>
<path d="M0 0 C0.33 0.99 0.66 1.98 1 3 C-3.625 5.125 -3.625 5.125 -7 4 C-2.25 0 -2.25 0 0 0 Z " fill="#CFEAF7" transform="translate(79,151)"/>
<path d="M0 0 C2.31 0.33 4.62 0.66 7 1 C7 1.99 7 2.98 7 4 C4.97954558 3.39816251 2.97888961 2.72693904 1 2 C0.67 1.34 0.34 0.68 0 0 Z " fill="#5991BD" transform="translate(187,140)"/>
</svg>
