<?xml version="1.0" encoding="UTF-8"?>
<svg version="1.1" xmlns="http://www.w3.org/2000/svg" width="328" height="275">
<path d="M0 0 C108.24 0 216.48 0 328 0 C328 90.75 328 181.5 328 275 C219.76 275 111.52 275 0 275 C0 184.25 0 93.5 0 0 Z " fill="#FDFEFE" transform="translate(0,0)"/>
<path d="M0 0 C6.33835114 -0.48756547 6.33835114 -0.48756547 9.20288086 1.62329102 C11.51767798 4.68463458 11.49754788 6.46425709 11.50390625 10.27734375 C11.53194336 12.13262695 11.53194336 12.13262695 11.56054688 14.02539062 C11.56119141 15.31638672 11.56183594 16.60738281 11.5625 17.9375 C11.59425927 26.78018817 12.08637077 34.81610477 14.35913086 43.39282227 C15 46 15 46 15 49 C15.66 49 16.32 49 17 49 C17.556875 50.093125 18.11375 51.18625 18.6875 52.3125 C20.60259832 55.71711923 22.51993847 57.16330086 26 59 C26 59.66 26 60.32 26 61 C26.66 61 27.32 61 28 61 C29.55078125 62.57421875 29.55078125 62.57421875 31.3125 64.6875 C33.3542821 67.09705651 35.36129161 69.35268943 37.625 71.5625 C48.01277742 82.22363998 48 91.71588132 48 107 C74.4 107 100.8 107 128 107 C128 85.11710809 127.39525582 66.97901968 113 50 C110.25688994 47.78208561 110.25688994 47.78208561 107 46 C106.30648437 45.5771875 105.61296875 45.154375 104.8984375 44.71875 C95.34097841 39.06966765 85.07753319 37.08144961 74.10546875 39.6875 C68.17054771 41.72524113 62.74477144 44.61165012 57.3125 47.73046875 C51.56373885 50.88646093 45.39013848 50.79404088 39 50 C35.7469422 48.50535182 33.47908192 46.55581541 31 44 C30.0925 43.113125 29.185 42.22625 28.25 41.3125 C22.24749799 33.25490408 21.60683455 24.82687512 21.5 15.0625 C21.48155029 14.04293213 21.46310059 13.02336426 21.4440918 11.97290039 C21.50480531 4.73957648 21.50480531 4.73957648 23.8046875 1.3046875 C26 0 26 0 29.625 0.0625 C33 1 33 1 35 4 C35.30297852 6.1730957 35.30297852 6.1730957 35.37890625 8.67578125 C35.41306641 9.58650391 35.44722656 10.49722656 35.48242188 11.43554688 C35.52206055 12.85963867 35.52206055 12.85963867 35.5625 14.3125 C35.80994951 22.7012546 35.80994951 22.7012546 37 31 C37.66 31 38.32 31 39 31 C39.556875 31.825 40.11375 32.65 40.6875 33.5 C42.80553897 36.25075756 42.80553897 36.25075756 46.0625 36.75 C49.75090644 36.49940763 52.10659411 34.78863222 55.125 32.75 C67.42747916 24.55388889 82.57751886 22.52782068 97.06835938 25.41162109 C110.91847824 29.19522838 124.55714143 39.82077689 132 52 C133.0908418 54.30607784 134.04375666 56.63215935 135 59 C135.66 59.99 136.32 60.98 137 62 C137.58864718 64.19123207 138.10032366 66.40364985 138.5625 68.625 C138.81128906 69.79289062 139.06007812 70.96078125 139.31640625 72.1640625 C140.83297794 80.67419621 141.18236963 88.98545919 141.1875 97.625 C141.19974609 98.718125 141.21199219 99.81125 141.22460938 100.9375 C141.2350663 106.69578119 140.92150852 111.51450538 139 117 C138.49086374 118.68423711 137.98885521 120.37063772 137.4921875 122.05859375 C136.95359746 123.85170448 136.41452669 125.64467088 135.875 127.4375 C135.59785156 128.35982422 135.32070312 129.28214844 135.03515625 130.23242188 C134.35719148 132.48840808 133.67879619 134.74426385 133 137 C132.34 137 131.68 137 131 137 C130.61134766 138.29744141 130.61134766 138.29744141 130.21484375 139.62109375 C127.05516502 148.40926772 121.20157814 156.08180975 115.25 163.1875 C114.79052979 163.73994385 114.33105957 164.2923877 113.85766602 164.86157227 C111.48052374 167.61839999 109.43458679 169.69196811 106 171 C106 171.66 106 172.32 106 173 C103.95198917 174.68445861 101.91516071 176.22857367 99.75 177.75 C99.11537842 178.19738525 98.48075684 178.64477051 97.8269043 179.10571289 C80.53032298 191.05635296 60.5728802 195.56614635 39.70996094 192.68359375 C31.51571871 191.17576535 23.95353657 188.69963161 17 184 C15.515 183.01 15.515 183.01 14 182 C14 181.34 14 180.68 14 180 C13.41734375 179.89300781 12.8346875 179.78601563 12.234375 179.67578125 C3.68243432 177.08926772 -1.85508031 167.26463318 -6 160 C-6 159.34 -6 158.68 -6 158 C-11.17332345 155.57500463 -16.3074876 155 -22 155 C-22 155.66 -22 156.32 -22 157 C-22.60457031 157.25007812 -23.20914063 157.50015625 -23.83203125 157.7578125 C-26.32786487 159.18785771 -27.22224043 160.42519693 -28.6875 162.875 C-29.10386719 163.55304688 -29.52023438 164.23109375 -29.94921875 164.9296875 C-31.99290131 168.95627396 -32.12041918 172.60496057 -32.140625 177.0859375 C-32.15996094 178.26414063 -32.17929688 179.44234375 -32.19921875 180.65625 C-32.23296401 183.127441 -32.25129376 185.59889248 -32.25390625 188.0703125 C-32.46303147 198.15234929 -32.46303147 198.15234929 -35.359375 201.7890625 C-39.10753934 204.92731844 -42.15035405 205.34255124 -47 205.2890625 C-50.16746226 204.83126522 -51.8193869 203.24474878 -54 201 C-56.43016733 197.35474901 -56.30612761 194.61843402 -56.30078125 190.40234375 C-56.30506638 189.65344376 -56.3093515 188.90454376 -56.31376648 188.13294983 C-56.31950979 186.54510507 -56.32001002 184.95723399 -56.31567383 183.36938477 C-56.31254293 180.9703911 -56.33586905 178.57266668 -56.36132812 176.17382812 C-56.41848692 162.64448183 -54.48220468 151.03644207 -44.890625 140.734375 C-35.8380714 132.30613544 -27.83209075 129.82560835 -15.6875 129.75 C-14.87087891 129.729375 -14.05425781 129.70875 -13.21289062 129.6875 C-8.17863526 129.65540913 -4.39420311 130.37050884 0.23803711 132.32324219 C2.58303926 133.22394136 4.62685431 133.33244705 7.125 133.25 C8.37796875 133.21132813 8.37796875 133.21132813 9.65625 133.171875 C12.48096049 132.96472956 15.22841431 132.58349172 18 132 C18 131.34 18 130.68 18 130 C18.61875 129.9175 19.2375 129.835 19.875 129.75 C22.18437567 129.18741541 22.18437567 129.18741541 23.25 126.9375 C23.62125 125.9784375 23.62125 125.9784375 24 125 C24.66 125 25.32 125 26 125 C26.185625 124.0409375 26.185625 124.0409375 26.375 123.0625 C26.58125 122.381875 26.7875 121.70125 27 121 C27.66 120.67 28.32 120.34 29 120 C29.73075648 117.6859378 30.40138258 115.35171131 31 113 C31.66 113 32.32 113 33 113 C33 104.42 33 95.84 33 87 C32.34 87 31.68 87 31 87 C29.7109375 85.3203125 29.7109375 85.3203125 28.375 83.125 C27.92898437 82.40570313 27.48296875 81.68640625 27.0234375 80.9453125 C26 79 26 79 26 77 C25.43925781 76.75378906 24.87851563 76.50757812 24.30078125 76.25390625 C13.39269272 70.3090906 4.34597141 58.50404197 0 47 C-3.73967723 33.04262543 -3.20759435 17.34707593 -3 3 C-2.34 3 -1.68 3 -1 3 C-0.67 2.01 -0.34 1.02 0 0 Z " fill="#337FC1" transform="translate(110,39)"/>
<path d="M0 0 C0.99 0.33 1.98 0.66 3 1 C3.9140625 3.84375 3.9140625 3.84375 4.625 7.5 C4.86476562 8.6859375 5.10453125 9.871875 5.3515625 11.09375 C6.77026169 19.64013069 7.18235528 27.96129382 7.1875 36.625 C7.19974609 37.718125 7.21199219 38.81125 7.22460938 39.9375 C7.2350663 45.69578119 6.92150852 50.51450538 5 56 C4.49086374 57.68423711 3.98885521 59.37063772 3.4921875 61.05859375 C2.95359746 62.85170448 2.41452669 64.64467088 1.875 66.4375 C1.59785156 67.35982422 1.32070312 68.28214844 1.03515625 69.23242188 C0.35719148 71.48840808 -0.32120381 73.74426385 -1 76 C-1.66 76 -2.32 76 -3 76 C-3.2475 76.84949219 -3.495 77.69898438 -3.75 78.57421875 C-5.10337175 82.28330321 -6.9083906 85.48941768 -9 88.8125 C-9.35578125 89.39708984 -9.7115625 89.98167969 -10.078125 90.58398438 C-12.74017857 94.87008929 -12.74017857 94.87008929 -15 96 C-15 92 -15 92 -13.6640625 90.5625 C-13.11492187 90.046875 -12.56578125 89.53125 -12 89 C-11.06897091 87.363972 -10.19660912 85.6936237 -9.375 84 C-8.94960937 83.13375 -8.52421875 82.2675 -8.0859375 81.375 C-6.91847577 78.93359488 -6.91847577 78.93359488 -6 76 C-5.34 76 -4.68 76 -4 76 C-3.71125 74.96875 -3.4225 73.9375 -3.125 72.875 C-2.17691202 69.54992003 -1.11743406 66.27248547 0 63 C0.66 63 1.32 63 2 63 C1.979375 61.741875 1.95875 60.48375 1.9375 59.1875 C1.89113917 56.35948913 2.08307039 54.75078884 3 52 C5.14787027 38.21120318 6.3085354 19.47257144 0.9296875 6.3984375 C0 4 0 4 0 0 Z " fill="#4982B3" transform="translate(244,100)"/>
<path d="M0 0 C3.375 0.9375 3.375 0.9375 5.375 3.9375 C5.60205078 6.57299805 5.60205078 6.57299805 5.5703125 9.69921875 C5.56064453 11.37661133 5.56064453 11.37661133 5.55078125 13.08789062 C5.53402344 14.25513672 5.51726562 15.42238281 5.5 16.625 C5.49097656 17.80384766 5.48195312 18.98269531 5.47265625 20.19726562 C5.44906423 23.11088026 5.4161454 26.02408892 5.375 28.9375 C3.54430097 25.80820822 3.13568819 23.56106854 3.1796875 19.953125 C3.18935547 18.55126953 3.18935547 18.55126953 3.19921875 17.12109375 C3.21597656 16.15300781 3.23273438 15.18492188 3.25 14.1875 C3.25902344 13.20394531 3.26804688 12.22039063 3.27734375 11.20703125 C3.30087215 8.78360593 3.33374632 6.36067778 3.375 3.9375 C2.715 3.9375 2.055 3.9375 1.375 3.9375 C1.375 3.2775 1.375 2.6175 1.375 1.9375 C-0.605 2.5975 -2.585 3.2575 -4.625 3.9375 C-4.68337668 7.64576651 -4.71872277 11.3539137 -4.75 15.0625 C-4.76675781 16.10921875 -4.78351563 17.1559375 -4.80078125 18.234375 C-4.84676283 25.49946389 -3.8536129 30.8288484 -0.5 37.3125 C-0.14679688 38.00085938 0.20640625 38.68921875 0.5703125 39.3984375 C0.96863281 40.16027344 0.96863281 40.16027344 1.375 40.9375 C0.385 40.9375 -0.605 40.9375 -1.625 40.9375 C-2.25532133 39.73193396 -2.8789497 38.52286811 -3.5 37.3125 C-3.84804687 36.63960937 -4.19609375 35.96671875 -4.5546875 35.2734375 C-7.64974136 28.51853894 -7.99079519 22.65793758 -8 15.3125 C-8.02449219 14.27609375 -8.04898438 13.2396875 -8.07421875 12.171875 C-8.07808594 11.17414062 -8.08195313 10.17640625 -8.0859375 9.1484375 C-8.09415527 8.24399902 -8.10237305 7.33956055 -8.11083984 6.40771484 C-7.16016501 1.57408271 -4.77392374 -0.08230903 0 0 Z " fill="#407AAC" transform="translate(139.625,39.0625)"/>
<path d="M0 0 C1.32 0.33 2.64 0.66 4 1 C2.04686767 2.48004028 0.09109715 3.93748596 -1.9296875 5.32421875 C-10.28209244 11.17761097 -16.0482133 19.13507598 -18.52783203 29.12695312 C-19.13088803 32.79642729 -19.23260907 36.43526253 -19.31640625 40.14453125 C-19.33718735 40.91431808 -19.35796844 41.68410492 -19.37937927 42.47721863 C-19.44446049 44.92222667 -19.50356591 47.36733683 -19.5625 49.8125 C-19.60572468 51.47592177 -19.64934021 53.13933344 -19.69335938 54.80273438 C-19.80009907 58.86838648 -19.90148171 62.93414071 -20 67 C-20.33 67 -20.66 67 -21 67 C-21.07464507 61.61062585 -21.12883434 56.22155848 -21.16479492 50.83178711 C-21.17979997 49.00165559 -21.20021059 47.17155954 -21.22631836 45.34155273 C-21.26306906 42.69766442 -21.27980937 40.05425508 -21.29296875 37.41015625 C-21.30845261 36.60353043 -21.32393646 35.7969046 -21.33988953 34.96583557 C-21.34157501 29.16294456 -20.12506144 24.38847872 -18 19 C-17.34 19 -16.68 19 -16 19 C-15.87625 18.236875 -15.7525 17.47375 -15.625 16.6875 C-15 14 -15 14 -13 11 C-12.34 11 -11.68 11 -11 11 C-10.67 10.01 -10.34 9.02 -10 8 C-9.34 8 -8.68 8 -8 8 C-7.67 7.01 -7.34 6.02 -7 5 C-6.01 5 -5.02 5 -4 5 C-3.67 4.01 -3.34 3.02 -3 2 C-2.01 2 -1.02 2 0 2 C0 1.34 0 0.68 0 0 Z " fill="#CEE8F9" transform="translate(74,170)"/>
<path d="M0 0 C2.31 0 4.62 0 7 0 C7.66 1.65 8.32 3.3 9 5 C8.34 5 7.68 5 7 5 C6.67 4.34 6.34 3.68 6 3 C4.35 3 2.7 3 1 3 C1 15.54 1 28.08 1 41 C0.34 41 -0.32 41 -1 41 C-1.91101835 36.16165045 -2.30677614 31.4054873 -2.5625 26.5 C-2.6049585 25.7177002 -2.64741699 24.93540039 -2.69116211 24.12939453 C-3.04705482 17.08171639 -3.10210465 10.05656598 -3 3 C-2.34 3 -1.68 3 -1 3 C-0.67 2.01 -0.34 1.02 0 0 Z " fill="#3978AC" transform="translate(110,39)"/>
<path d="M0 0 C0.66 0 1.32 0 2 0 C1.78851318 0.56090332 1.57702637 1.12180664 1.35913086 1.69970703 C-1.57226683 10.27449699 -1.434667 18.56029401 -1.43945312 27.5390625 C-1.45814453 28.69921875 -1.47683594 29.859375 -1.49609375 31.0546875 C-1.49794678 32.10124512 -1.4997998 33.14780273 -1.50170898 34.22607422 C-2.11549826 37.64296486 -3.3687379 38.82332653 -6 41 C-5.8438623 40.32130859 -5.68772461 39.64261719 -5.52685547 38.94335938 C-4.92517852 35.58199823 -4.73378296 32.3174222 -4.5703125 28.90625 C-4.49668881 27.53252006 -4.42245135 26.15882291 -4.34765625 24.78515625 C-4.23415135 22.63937307 -4.12470903 20.49368027 -4.02587891 18.34716797 C-3.92798791 16.2618509 -3.81297767 14.17803267 -3.6953125 12.09375 C-3.63359863 10.85302734 -3.57188477 9.61230469 -3.50830078 8.33398438 C-2.97430961 4.83149474 -2.15068317 2.79675132 0 0 Z " fill="#3B7AB0" transform="translate(79,200)"/>
<path d="M0 0 C3 1.5625 3 1.5625 5 3 C4.67 3.66 4.34 4.32 4 5 C3.01 4.649375 2.02 4.29875 1 3.9375 C-3.41056858 2.70539785 -6.53033412 2.91862922 -11 4 C-13.85554017 6.43727882 -13.85554017 6.43727882 -16 9 C-16.66 9 -17.32 9 -18 9 C-17.938125 9.78375 -17.87625 10.5675 -17.8125 11.375 C-17.874375 12.24125 -17.93625 13.1075 -18 14 C-18.99 14.66 -19.98 15.32 -21 16 C-20.44724451 11.43976724 -18.82590765 7.60675055 -16 4 C-13.25 2.5625 -13.25 2.5625 -11 2 C-11 1.34 -11 0.68 -11 0 C-7.1555631 -1.28147897 -3.88224709 -0.88370216 0 0 Z " fill="#D5EFFA" transform="translate(99,194)"/>
<path d="M0 0 C0.99 1.32 1.98 2.64 3 4 C2.57702637 4.58885986 2.15405273 5.17771973 1.71826172 5.78442383 C-3.91865455 14.62860814 -3.8962179 22.55701582 -3.875 32.6875 C-3.89316438 34.2754234 -3.91397867 35.86331879 -3.9375 37.45117188 C-3.98885241 41.30114036 -4.00446633 45.14970829 -4 49 C-4.33 49 -4.66 49 -5 49 C-5.07484195 44.19860134 -5.12892454 39.39755138 -5.16479492 34.59570312 C-5.17976766 32.96641109 -5.20015321 31.33715855 -5.22631836 29.70800781 C-5.39554245 18.89093825 -5.06184016 9.81032177 0 0 Z " fill="#588DBB" transform="translate(59,188)"/>
<path d="M0 0 C0.33 0 0.66 0 1 0 C1.14930394 4.14414141 1.25765166 8.28682373 1.32958984 12.43286133 C1.35960197 13.84036556 1.40042758 15.24768527 1.45263672 16.65454102 C1.92949712 29.84300355 1.92949712 29.84300355 -1.7734375 34.40234375 C-4.03228659 36.62422724 -5.89686173 37.41737168 -9 38 C-9.33 37.34 -9.66 36.68 -10 36 C-12.52733235 35.34444881 -12.52733235 35.34444881 -15 35 C-15 34.67 -15 34.34 -15 34 C-14.32453125 33.91363281 -13.6490625 33.82726562 -12.953125 33.73828125 C-12.06109375 33.59777344 -11.1690625 33.45726562 -10.25 33.3125 C-9.36828125 33.18488281 -8.4865625 33.05726563 -7.578125 32.92578125 C-4.10046137 31.67698385 -3.02496362 30.06589185 -1 27 C-0.36541756 23.92013103 -0.36541756 23.92013103 -0.390625 20.60546875 C-0.35839844 19.40341797 -0.32617188 18.20136719 -0.29296875 16.96289062 C-0.27878906 15.71701172 -0.26460937 14.47113281 -0.25 13.1875 C-0.20552734 11.28967773 -0.20552734 11.28967773 -0.16015625 9.35351562 C-0.08956223 6.23561324 -0.0368109 3.11845425 0 0 Z " fill="#B1D0E5" transform="translate(77,210)"/>
<path d="M0 0 C0.33 0 0.66 0 1 0 C2.06718778 4.33650906 2.14956928 8.56115005 2.125 13 C2.12886719 13.69867188 2.13273438 14.39734375 2.13671875 15.1171875 C2.12963657 18.87074298 1.89787023 22.35151145 1 26 C-0.32 26 -1.64 26 -3 26 C-3 25.34 -3 24.68 -3 24 C-2.34 24 -1.68 24 -1 24 C-1.01160156 22.68644531 -1.02320313 21.37289062 -1.03515625 20.01953125 C-1.04453828 18.28385559 -1.05363804 16.54817839 -1.0625 14.8125 C-1.07087891 13.94818359 -1.07925781 13.08386719 -1.08789062 12.19335938 C-1.10396812 7.99713231 -1.07559038 4.09063114 0 0 Z " fill="#CBE5F4" transform="translate(237,120)"/>
<path d="M0 0 C0.33 0 0.66 0 1 0 C1.02505615 0.98395752 1.0501123 1.96791504 1.07592773 2.98168945 C1.1701082 6.63270057 1.2703029 10.28352616 1.37231445 13.93432617 C1.41562305 15.51436015 1.45730106 17.09443969 1.49731445 18.67456055 C1.55511583 20.94594048 1.6187816 23.21709189 1.68359375 25.48828125 C1.70030624 26.19463211 1.71701874 26.90098297 1.73423767 27.6287384 C1.8259747 30.6664824 2.03207686 33.09623058 3 36 C6.55610043 38.56039231 10.76501798 38.5765018 15 39 C14.67 39.66 14.34 40.32 14 41 C6.76813075 41.49029622 6.76813075 41.49029622 3.0625 39.125 C-0.57667399 35.37554801 -0.13161421 32.1175637 -0.09765625 27.1484375 C-0.0962413 26.37440582 -0.09482635 25.60037415 -0.09336853 24.80288696 C-0.08776403 22.32688558 -0.07521083 19.85097412 -0.0625 17.375 C-0.05748558 15.69791797 -0.05292257 14.02083453 -0.04882812 12.34375 C-0.03779315 8.22913194 -0.02052554 4.11458122 0 0 Z " fill="#306FA5" transform="translate(55,203)"/>
<path d="M0 0 C0.33 0.99 0.66 1.98 1 3 C0.36835937 2.83757812 -0.26328125 2.67515625 -0.9140625 2.5078125 C-5.08374385 1.8216624 -9.15692447 1.85541141 -13.375 1.875 C-14.2 1.87113281 -15.025 1.86726562 -15.875 1.86328125 C-20.68897457 1.87092248 -25.25332792 2.19396135 -30 3 C-28 0 -28 0 -25.6015625 -0.765625 C-17.3898663 -2.10191152 -7.9924372 -2.99716395 0 0 Z " fill="#D1EAF7" transform="translate(108,168)"/>
<path d="M0 0 C0 2.64130136 -0.09087346 5.2492652 -0.21875 7.88671875 C-0.26386719 8.82451172 -0.30898437 9.76230469 -0.35546875 10.72851562 C-0.42701172 12.19321289 -0.42701172 12.19321289 -0.5 13.6875 C-0.54769531 14.67556641 -0.59539062 15.66363281 -0.64453125 16.68164062 C-0.76238076 19.12112547 -0.88089555 21.56057615 -1 24 C-1.66 24 -2.32 24 -3 24 C-4.21791109 20.34626672 -4.26104675 16.93254014 -4.3125 13.125 C-4.34150391 12.41730469 -4.37050781 11.70960937 -4.40039062 10.98046875 C-4.44665845 7.1580348 -4.13410243 5.19972702 -1.98046875 1.9921875 C-1.32691406 1.33476563 -0.67335937 0.67734375 0 0 Z " fill="#CAE1F2" transform="translate(133,40)"/>
<path d="M0 0 C2.91453032 0.44838928 4.19780844 1.15679937 6.5625 3.03125 C11.03994292 5.59560367 14.33009301 5.4591987 19.375 5.25 C20.20644531 5.23195313 21.03789062 5.21390625 21.89453125 5.1953125 C23.93019074 5.14851573 25.9652509 5.07678298 28 5 C22.13494196 8.91003869 15.85561661 8.8801675 9 8 C5.18927888 6.1376175 1.92437522 3.84875045 0 0 Z " fill="#437EAF" transform="translate(140,81)"/>
<path d="M0 0 C3.4671898 3.4671898 3.3829537 4.02894021 3.3984375 8.69140625 C3.40230469 9.80064453 3.40617187 10.90988281 3.41015625 12.05273438 C3.39855469 13.21095703 3.38695313 14.36917969 3.375 15.5625 C3.38660156 16.72458984 3.39820312 17.88667969 3.41015625 19.08398438 C3.40628906 20.19193359 3.40242188 21.29988281 3.3984375 22.44140625 C3.39505371 23.45920166 3.39166992 24.47699707 3.38818359 25.52563477 C3.26008301 26.34217529 3.13198242 27.15871582 3 28 C2.01 28.66 1.02 29.32 0 30 C0 20.1 0 10.2 0 0 Z " fill="#5991BB" transform="translate(118,40)"/>
<path d="M0 0 C-6.54016973 2.9384489 -11.88178015 3.37895557 -19 3.1875 C-19.96550781 3.17396484 -20.93101562 3.16042969 -21.92578125 3.14648438 C-24.28445425 3.11145458 -26.64191771 3.06234084 -29 3 C-29 2.34 -29 1.68 -29 1 C-27.081875 0.90912109 -27.081875 0.90912109 -25.125 0.81640625 C-23.4166589 0.73192784 -21.70832599 0.64728359 -20 0.5625 C-19.16082031 0.52318359 -18.32164062 0.48386719 -17.45703125 0.44335938 C-13.43882991 0.24089187 -9.48532966 -0.03643103 -5.5 -0.59765625 C-2 -1 -2 -1 0 0 Z " fill="#D9F2FC" transform="translate(181,231)"/>
<path d="M0 0 C1.03318359 -0.01611328 2.06636719 -0.03222656 3.13085938 -0.04882812 C8.82342981 -0.05247955 12.87184584 0.17113524 17.6875 3.3125 C17.6875 3.9725 17.6875 4.6325 17.6875 5.3125 C16.88570312 5.0959375 16.08390625 4.879375 15.2578125 4.65625 C5.24998159 2.20535263 -4.06392572 1.99876813 -14.3125 2.3125 C-9.77597354 -0.71185097 -5.33637099 -0.01646012 0 0 Z " fill="#2E73AE" transform="translate(196.3125,64.6875)"/>
<path d="M0 0 C0.33 0.66 0.66 1.32 1 2 C1.66 2 2.32 2 3 2 C4.22771614 6.35977003 4.18390489 10.49892431 4.1875 15 C4.19974609 15.80695313 4.21199219 16.61390625 4.22460938 17.4453125 C4.22654297 18.22648437 4.22847656 19.00765625 4.23046875 19.8125 C4.23457764 20.52019531 4.23868652 21.22789062 4.24291992 21.95703125 C4 24 4 24 2 28 C1.67 20.08 1.34 12.16 1 4 C0.34 3.67 -0.32 3.34 -1 3 C-0.67 2.01 -0.34 1.02 0 0 Z " fill="#CBE5F5" transform="translate(140,124)"/>
<path d="M0 0 C-1.18402722 3.55208165 -2.0423527 4.70782334 -5 7 C-11.74057663 9.556278 -18.90568462 9.21607052 -26 9 C-26 8.67 -26 8.34 -26 8 C-25.18917969 7.92523438 -24.37835938 7.85046875 -23.54296875 7.7734375 C-16.0760273 6.88679253 -10.56532475 5.17175072 -4.14453125 1.2421875 C-2 0 -2 0 0 0 Z " fill="#C5E0F1" transform="translate(178,81)"/>
<path d="M0 0 C0.66 0.33 1.32 0.66 2 1 C0.47142825 2.63732389 -1.07347985 4.25940527 -2.625 5.875 C-3.91277344 7.23238281 -3.91277344 7.23238281 -5.2265625 8.6171875 C-8.17624703 11.1514235 -10.21513322 12.19837942 -14 13 C-16.375 12.625 -16.375 12.625 -18 12 C-17.20335937 11.55269531 -16.40671875 11.10539063 -15.5859375 10.64453125 C-9.98671032 7.44983837 -4.75868075 4.36212402 0 0 Z " fill="#D5EEF8" transform="translate(214,212)"/>
<path d="M0 0 C1.08850398 2.73406587 1.09109244 3.77637834 -0.0390625 6.55078125 C-0.56242188 7.46214844 -1.08578125 8.37351563 -1.625 9.3125 C-2.17671875 10.27414063 -2.7284375 11.23578125 -3.296875 12.2265625 C-5.38166559 15.62151965 -7.59880554 18.8219485 -10 22 C-10.6875 20.1875 -10.6875 20.1875 -11 18 C-9.7265625 16.5625 -9.7265625 16.5625 -8 15 C-7.06897091 13.363972 -6.19660912 11.6936237 -5.375 10 C-4.94960937 9.13375 -4.52421875 8.2675 -4.0859375 7.375 C-2.91847577 4.93359488 -2.91847577 4.93359488 -2 2 C-1.34 2 -0.68 2 0 2 C0 1.34 0 0.68 0 0 Z " fill="#3C78AE" transform="translate(240,174)"/>
<path d="M0 0 C3.44228876 0.25498435 4.16359087 1.1881295 6.5 3.875 C6.91636719 4.41382812 7.33273438 4.95265625 7.76171875 5.5078125 C9.28326681 7.34134991 11.09386081 8.58804505 13 10 C13 10.66 13 11.32 13 12 C13.99 12.33 14.98 12.66 16 13 C15.67 13.99 15.34 14.98 15 16 C12.86823936 14.09042286 10.7446755 12.17291237 8.625 10.25 C8.02171875 9.71117188 7.4184375 9.17234375 6.796875 8.6171875 C6.21679688 8.08867188 5.63671875 7.56015625 5.0390625 7.015625 C4.50490723 6.53383789 3.97075195 6.05205078 3.42041016 5.55566406 C1.8449654 3.83020274 0.95002452 2.12452742 0 0 Z " fill="#3D7BAC" transform="translate(119,100)"/>
<path d="M0 0 C7.75 0.875 7.75 0.875 10 2 C15.40486458 2.3305133 20.69264005 2.11733894 26 1 C26 1.66 26 2.32 26 3 C20.17517379 5.98242303 15.74098289 6.28263164 9.57421875 4.42260742 C6.3547889 3.34648583 3.17246967 2.20837244 0 1 C0 0.67 0 0.34 0 0 Z " fill="#316FA1" transform="translate(102,170)"/>
<path d="M0 0 C3 1 3 1 4.4375 3.75 C4.953125 4.8225 5.46875 5.895 6 7 C8.51325945 10.56892209 8.51325945 10.56892209 12 13 C12 14.65 12 16.3 12 18 C7.20920913 13.64473557 3.28423917 8.58415305 0 3 C0 2.01 0 1.02 0 0 Z " fill="#3C7AAC" transform="translate(104,196)"/>
<path d="M0 0 C0.97453125 0.00902344 1.9490625 0.01804688 2.953125 0.02734375 C5.34400728 0.05078377 7.73437261 0.08359558 10.125 0.125 C10.125 0.455 10.125 0.785 10.125 1.125 C2.535 1.455 -5.055 1.785 -12.875 2.125 C-12.875 2.785 -12.875 3.445 -12.875 4.125 C-14.49818979 4.48737263 -16.1236358 4.83965157 -17.75 5.1875 C-18.65492188 5.38472656 -19.55984375 5.58195312 -20.4921875 5.78515625 C-22.875 6.125 -22.875 6.125 -24.875 5.125 C-19.2109375 2.9765625 -19.2109375 2.9765625 -16.875 2.125 C-15.59109375 1.58359375 -15.59109375 1.58359375 -14.28125 1.03125 C-9.49410205 -0.24239487 -4.92828503 -0.08681261 0 0 Z " fill="#669AC4" transform="translate(194.875,63.875)"/>
<path d="M0 0 C1.32 0.33 2.64 0.66 4 1 C2.02094433 2.48980137 0.03818343 3.97221643 -1.96484375 5.4296875 C-5.98328716 8.37389356 -9.58521219 11.37178795 -13 15 C-13 13.68 -13 12.36 -13 11 C-12.34 11 -11.68 11 -11 11 C-10.67 10.01 -10.34 9.02 -10 8 C-9.34 8 -8.68 8 -8 8 C-7.67 7.01 -7.34 6.02 -7 5 C-6.01 5 -5.02 5 -4 5 C-3.67 4.01 -3.34 3.02 -3 2 C-2.01 2 -1.02 2 0 2 C0 1.34 0 0.68 0 0 Z " fill="#DEF3FB" transform="translate(74,170)"/>
<path d="M0 0 C0.66 0.33 1.32 0.66 2 1 C0.88200014 2.33920838 -0.24461897 3.67122556 -1.375 5 C-2.31472656 6.11375 -2.31472656 6.11375 -3.2734375 7.25 C-4.12808594 8.11625 -4.12808594 8.11625 -5 9 C-5.66 9 -6.32 9 -7 9 C-7 9.66 -7 10.32 -7 11 C-11.47058824 15 -11.47058824 15 -14 15 C-12.40153531 10.75091664 -9.1869608 8.17774261 -5.875 5.25 C-5.31167969 4.74339844 -4.74835938 4.23679688 -4.16796875 3.71484375 C-2.78348469 2.47115468 -1.39238512 1.23483695 0 0 Z " fill="#467FAD" transform="translate(223,201)"/>
<path d="M0 0 C0.33 1.32 0.66 2.64 1 4 C0.34 4 -0.32 4 -1 4 C-1.33 5.65 -1.66 7.3 -2 9 C-2.99 9.33 -3.98 9.66 -5 10 C-5.061875 10.763125 -5.12375 11.52625 -5.1875 12.3125 C-6 15 -6 15 -8.5625 16.8125 C-9.366875 17.204375 -10.17125 17.59625 -11 18 C-9.16753428 14.01287679 -6.76144225 10.41915496 -4.375 6.75 C-3.95476562 6.1003125 -3.53453125 5.450625 -3.1015625 4.78125 C-2.06954327 3.18631119 -1.03501972 1.59299331 0 0 Z " fill="#B9D7ED" transform="translate(239,181)"/>
<path d="M0 0 C0.33 0 0.66 0 1 0 C1.20852314 6.40629424 1.1583195 11.92972642 -1 18 C-1.66 18 -2.32 18 -3 18 C-3 19.32 -3 20.64 -3 22 C-3.66 22 -4.32 22 -5 22 C-4.72285156 20.91460937 -4.44570312 19.82921875 -4.16015625 18.7109375 C-3.7941437 17.26565719 -3.4282654 15.82034288 -3.0625 14.375 C-2.88009766 13.66214844 -2.69769531 12.94929687 -2.50976562 12.21484375 C-1.48683201 8.16030687 -0.62042633 4.14052941 0 0 Z " fill="#C7E3F4" transform="translate(249,150)"/>
<path d="M0 0 C2.97 0 5.94 0 9 0 C9 0.66 9 1.32 9 2 C9.99 2 10.98 2 12 2 C12 2.66 12 3.32 12 4 C13.32 4.33 14.64 4.66 16 5 C16 5.66 16 6.32 16 7 C15.21625 6.731875 14.4325 6.46375 13.625 6.1875 C9.10760831 4.70766479 4.55729662 3.35097726 0 2 C0 1.34 0 0.68 0 0 Z " fill="#4380B1" transform="translate(200,76)"/>
<path d="M0 0 C2.31 0 4.62 0 7 0 C7.66 1.65 8.32 3.3 9 5 C8.34 5 7.68 5 7 5 C6.67 4.34 6.34 3.68 6 3 C2.95613276 2.91773332 0.92824652 3.02391783 -2 4 C-2 8.29 -2 12.58 -2 17 C-2.33 17 -2.66 17 -3 17 C-3 12.38 -3 7.76 -3 3 C-2.34 3 -1.68 3 -1 3 C-0.67 2.01 -0.34 1.02 0 0 Z " fill="#4F83AD" transform="translate(110,39)"/>
<path d="M0 0 C0.33 0 0.66 0 1 0 C1.06058594 1.27617188 1.12117187 2.55234375 1.18359375 3.8671875 C1.26799568 5.53647016 1.35264386 7.20574037 1.4375 8.875 C1.47681641 9.71675781 1.51613281 10.55851562 1.55664062 11.42578125 C1.59853516 12.23144531 1.64042969 13.03710938 1.68359375 13.8671875 C1.73858032 14.98262939 1.73858032 14.98262939 1.79467773 16.12060547 C1.89955865 18.08864312 1.89955865 18.08864312 3 20 C3.039992 21.99960012 3.04346799 24.00047242 3 26 C3.66 26 4.32 26 5 26 C4.67 26.99 4.34 27.98 4 29 C4 28.34 4 27.68 4 27 C3.34 27 2.68 27 2 27 C-0.40929552 21.36566322 -0.23079831 16.1310889 -0.125 10.125 C-0.11597656 9.15046875 -0.10695312 8.1759375 -0.09765625 7.171875 C-0.07421623 4.78099272 -0.04140442 2.39062739 0 0 Z " fill="#C8E7F9" transform="translate(145,43)"/>
<path d="M0 0 C0.33 0.99 0.66 1.98 1 3 C0.071875 3.886875 -0.85625 4.77375 -1.8125 5.6875 C-4.38358652 8.24643008 -6.29232337 10.77438858 -8 14 C-8.99 13.67 -9.98 13.34 -11 13 C-11 12.34 -11 11.68 -11 11 C-9.609375 9.66796875 -9.609375 9.66796875 -7.75 8.1875 C-4.74506767 5.70675465 -2.31906006 3.15392169 0 0 Z " fill="#D3EBF6" transform="translate(227,199)"/>
<path d="M0 0 C2.0625 0.4375 2.0625 0.4375 4 1 C2.37660195 2.70884005 0.70680947 4.37446717 -1 6 C-1.66 6 -2.32 6 -3 6 C-2.938125 6.78375 -2.87625 7.5675 -2.8125 8.375 C-2.874375 9.24125 -2.93625 10.1075 -3 11 C-3.99 11.66 -4.98 12.32 -6 13 C-5.42685824 8.2715805 -3.42313355 3.42313355 0 0 Z " fill="#C4DFEF" transform="translate(84,197)"/>
<path d="M0 0 C1.09765625 1.74609375 1.09765625 1.74609375 2 4 C0.95113737 8.23610412 -1.22741858 11.39297174 -4.625 14.0625 C-5.40875 14.371875 -6.1925 14.68125 -7 15 C-7.66 14.67 -8.32 14.34 -9 14 C-8.360625 13.7525 -7.72125 13.505 -7.0625 13.25 C-4.80939427 12.19851273 -4.80939427 12.19851273 -4.375 9.9375 C-4.189375 8.9784375 -4.189375 8.9784375 -4 8 C-3.34 7.67 -2.68 7.34 -2 7 C-1.26924352 4.6859378 -0.59861742 2.35171131 0 0 Z " fill="#558CBA" transform="translate(141,152)"/>
<path d="M0 0 C2.61432122 5.22864245 3.13200362 8.96147131 3.0625 14.6875 C3.05798828 15.38939453 3.05347656 16.09128906 3.04882812 16.81445312 C3.03706927 18.54300538 3.01913454 20.27151365 3 22 C2.67 22 2.34 22 2 22 C1.67 18.7 1.34 15.4 1 12 C0.67 12 0.34 12 0 12 C0 8.04 0 4.08 0 0 Z " fill="#6699C2" transform="translate(155,124)"/>
<path d="M0 0 C0.45375 0.61875 0.9075 1.2375 1.375 1.875 C5.18535123 4.95957005 9.23390116 5.30873376 14 6 C13.67 6.66 13.34 7.32 13 8 C5.79199579 8.48867825 5.79199579 8.48867825 2.0625 6.1875 C0 4 0 4 -1 1 C-0.67 0.67 -0.34 0.34 0 0 Z " fill="#3F79A8" transform="translate(56,236)"/>
<path d="M0 0 C0.33 0 0.66 0 1 0 C1.06058594 0.77085937 1.12117187 1.54171875 1.18359375 2.3359375 C1.26738281 3.33882812 1.35117188 4.34171875 1.4375 5.375 C1.55931641 6.87160156 1.55931641 6.87160156 1.68359375 8.3984375 C1.84965626 10.97927613 1.84965626 10.97927613 3 13 C1.68 13 0.36 13 -1 13 C-1.02686553 11.02090602 -1.04633375 9.04171029 -1.0625 7.0625 C-1.07410156 5.96035156 -1.08570313 4.85820312 -1.09765625 3.72265625 C-1 1 -1 1 0 0 Z " fill="#3377B1" transform="translate(156,135)"/>
<path d="M0 0 C2.6815279 3.07692746 3.42087807 5.19734663 3.6875 9.25 C3.75324219 10.14203125 3.81898438 11.0340625 3.88671875 11.953125 C3.92410156 12.62859375 3.96148437 13.3040625 4 14 C2.68 13.34 1.36 12.68 0 12 C0.185625 10.948125 0.37125 9.89625 0.5625 8.8125 C0.95079331 5.42880118 0.88247485 3.23574112 0 0 Z " fill="#CCE5F4" transform="translate(233,106)"/>
<path d="M0 0 C3.81287042 1.44626119 5.32707177 3.30194812 7 7 C6.6875 9.3125 6.6875 9.3125 6 11 C2.17179787 9.08589894 1.29482585 3.88447755 0 0 Z " fill="#558AB5" transform="translate(148,113)"/>
<path d="M0 0 C4.05606165 0.46800711 7.46588679 0.87953208 11 3 C11 3.66 11 4.32 11 5 C7.7 4.34 4.4 3.68 1 3 C0.67 2.01 0.34 1.02 0 0 Z " fill="#3E7DB0" transform="translate(203,65)"/>
<path d="M0 0 C2.33944736 0.28730055 4.6739143 0.61936779 7 1 C7 1.66 7 2.32 7 3 C4.03 3.66 1.06 4.32 -2 5 C-1 1 -1 1 0 0 Z " fill="#D1E7F2" transform="translate(134,36)"/>
<path d="M0 0 C2 1 4 2 6 3 C6 4.65 6 6.3 6 8 C1.125 3.375 1.125 3.375 0 0 Z " fill="#5186B4" transform="translate(110,206)"/>
<path d="M0 0 C0.99 0 1.98 0 3 0 C3.29296875 5.95703125 3.29296875 5.95703125 3 8 C2.01 8.99 1.02 9.98 0 11 C0 7.37 0 3.74 0 0 Z " fill="#4383BA" transform="translate(144,133)"/>
<path d="M0 0 C0.99 0.33 1.98 0.66 3 1 C4.1875 4.5625 4.1875 4.5625 5 8 C4.34 8.66 3.68 9.32 3 10 C2.01 6.7 1.02 3.4 0 0 Z " fill="#4683B5" transform="translate(231,99)"/>
<path d="M0 0 C2.72107452 2.3500189 3.96702492 4.55674975 5 8 C4.67 8.99 4.34 9.98 4 11 C0 4.5 0 4.5 0 0 Z " fill="#3F7CB2" transform="translate(114,89)"/>
<path d="M0 0 C0.33 1.32 0.66 2.64 1 4 C0.34 4 -0.32 4 -1 4 C-1.12375 4.804375 -1.2475 5.60875 -1.375 6.4375 C-1.58125 7.283125 -1.7875 8.12875 -2 9 C-2.99 9.495 -2.99 9.495 -4 10 C-3.43454163 6.04179141 -2.19097652 3.3340947 0 0 Z " fill="#C7E2F1" transform="translate(239,181)"/>
<path d="M0 0 C0.66 0.33 1.32 0.66 2 1 C0.8125 3.5 0.8125 3.5 -1 6 C-3.6875 6.3125 -3.6875 6.3125 -6 6 C-4 4 -2 2 0 0 Z " fill="#5086B2" transform="translate(72,174)"/>
<path d="M0 0 C2.475 0.495 2.475 0.495 5 1 C5 1.66 5 2.32 5 3 C5.99 3.33 6.98 3.66 8 4 C7.67 4.99 7.34 5.98 7 7 C5.83040013 6.02433888 4.66438823 5.044375 3.5 4.0625 C2.8503125 3.51722656 2.200625 2.97195312 1.53125 2.41015625 C1.0259375 1.94480469 0.520625 1.47945313 0 1 C0 0.67 0 0.34 0 0 Z " fill="#4783B2" transform="translate(127,109)"/>
<path d="M0 0 C3.08089673 2.77280706 4.68775452 5.06326356 6 9 C3.5625 7.875 3.5625 7.875 1 6 C0.1875 2.8125 0.1875 2.8125 0 0 Z " fill="#5689B8" transform="translate(236,84)"/>
<path d="M0 0 C2.31 1.98 4.62 3.96 7 6 C6.01 6.495 6.01 6.495 5 7 C2.375 6.0625 2.375 6.0625 0 5 C0 3.35 0 1.7 0 0 Z " fill="#C0DEEE" transform="translate(54,237)"/>
<path d="M0 0 C0.66 0.99 1.32 1.98 2 3 C0.33333333 4.66666667 -1.33333333 6.33333333 -3 8 C-3.66 8 -4.32 8 -5 8 C-3.62845496 5.04590299 -2.01136276 2.55991624 0 0 Z " fill="#5189B7" transform="translate(65,180)"/>
<path d="M0 0 C2.16874252 0.50603992 3.99967627 0.99983813 6 2 C6.625 5.0625 6.625 5.0625 7 8 C4.35247996 5.42215154 2.05567935 3.08351902 0 0 Z " fill="#D6ECF8" transform="translate(231,78)"/>
<path d="M0 0 C3.375 0.25 3.375 0.25 7 1 C8.4375 3.0625 8.4375 3.0625 9 5 C5.22454612 3.90931332 2.52956528 3.0916909 0 0 Z " fill="#5B93BD" transform="translate(127,222)"/>
<path d="M0 0 C1.65 0 3.3 0 5 0 C1.55384615 4.8 1.55384615 4.8 -1.25 5.8125 C-2.11625 5.9053125 -2.11625 5.9053125 -3 6 C-3 4 -3 4 -1 2 C-0.67 1.34 -0.34 0.68 0 0 Z " fill="#D9EFFB" transform="translate(131,163)"/>
<path d="M0 0 C0.66 0 1.32 0 2 0 C3.5078125 1.75 3.5078125 1.75 5.125 4 C5.66382813 4.7425 6.20265625 5.485 6.7578125 6.25 C7.16773438 6.8275 7.57765625 7.405 8 8 C4.74941413 7.28286044 3.08715849 6.68348949 1 4 C0.3125 1.8125 0.3125 1.8125 0 0 Z " fill="#4C85B6" transform="translate(136,100)"/>
<path d="M0 0 C0.99 0 1.98 0 3 0 C3.33 2.64 3.66 5.28 4 8 C0 3.375 0 3.375 0 0 Z " fill="#C4E3F2" transform="translate(242,92)"/>
<path d="M0 0 C0.66 0 1.32 0 2 0 C4.21747812 2.30276574 4.96760006 3.52480092 5.1875 6.75 C5.125625 7.4925 5.06375 8.235 5 9 C2 5.25 2 5.25 2 3 C1.34 3 0.68 3 0 3 C0 2.01 0 1.02 0 0 Z " fill="#CEE8F5" transform="translate(125,85)"/>
<path d="M0 0 C0.33 1.32 0.66 2.64 1 4 C-0.32 4.99 -1.64 5.98 -3 7 C-3.66 6.67 -4.32 6.34 -5 6 C-3.35 4.02 -1.7 2.04 0 0 Z " fill="#C0E0F0" transform="translate(77,236)"/>
<path d="M0 0 C1.485 0.99 1.485 0.99 3 2 C3.6875 5.625 3.6875 5.625 4 9 C1.47740939 7.02579865 1.0070192 6.03254358 0.3125 2.8125 C0.209375 1.884375 0.10625 0.95625 0 0 Z " fill="#3576A9" transform="translate(122,83)"/>
</svg>
