<?xml version="1.0" encoding="UTF-8"?>
<svg version="1.1" xmlns="http://www.w3.org/2000/svg" width="363" height="322">
<path d="M0 0 C119.79 0 239.58 0 363 0 C363 106.26 363 212.52 363 322 C243.21 322 123.42 322 0 322 C0 215.74 0 109.48 0 0 Z " fill="#FEFEFE" transform="translate(0,0)"/>
<path d="M0 0 C3.90989973 2.94899217 5.79754884 5.71780932 6.5625 10.5625 C5.93895565 14.37304879 5.17907304 16.80402621 3 20 C-1.34529935 22.9627041 -4.80026223 23.4814572 -10 23 C-12.4375 22 -12.4375 22 -14 21 C-14 20.34 -14 19.68 -14 19 C-18.01495037 21.11900159 -20.50823513 23.18906549 -23 27 C-24.58942869 37.24947768 -22.45613938 47.01318417 -19.61181641 56.82714844 C-18.94946276 59.17948181 -18.35072437 61.54233322 -17.76171875 63.9140625 C-15.09383403 74.78536964 -15.09383403 74.78536964 -10.9140625 85.140625 C-7 93.1025641 -7 93.1025641 -7 97 C-6.34 97 -5.68 97 -5 97 C-3.73828125 98.7578125 -3.73828125 98.7578125 -2.3125 101.125 C2.7371091 108.87584578 8.85372202 113.87102242 18 116 C29.78645851 117.28035641 38.38785616 115.61638357 47.8125 108.125 C57.67843223 98.97199062 62.72420604 85.55481835 66.95703125 73.05859375 C67.57934056 71.23361925 68.24189472 69.42048431 68.98461914 67.64111328 C70.75117428 63.04611605 71.60874392 58.24403676 72.625 53.4375 C72.85445313 52.41591797 73.08390625 51.39433594 73.3203125 50.34179688 C76.15517526 37.05405983 76.15517526 37.05405983 72.8125 24.3125 C71.07983782 21.9697455 70.17219951 21.08179477 67.5 19.8125 C64.89606302 19.81824767 64.89606302 19.81824767 62.625 21.4375 C59.16783022 23.49533916 56.96744969 23.4250839 53 23 C48.85201505 21.20882468 46.7585869 19.16507424 45 15 C44.36169122 9.97331838 44.40396767 8.03824986 46.9375 3.625 C50.26679743 0.17274556 54.28317842 -0.90017309 59 -1 C62.10726095 0.09329552 64.11247736 1.04321981 66.3515625 3.45703125 C68.39058336 5.36559343 70.47090658 6.32577806 73 7.5 C76.19105589 8.98156166 78.76291726 10.23308187 81 13 C81 13.66 81 14.32 81 15 C81.66 15 82.32 15 83 15 C83 15.66 83 16.32 83 17 C83.66 17 84.32 17 85 17 C87.3929493 22.6468539 88.49306615 27.1374876 88.375 33.25 C88.36702393 34.0128833 88.35904785 34.7757666 88.35083008 35.56176758 C88.20448891 41.65931619 87.55857248 47.65389373 86.6875 53.6875 C86.51130127 54.9245166 86.51130127 54.9245166 86.33154297 56.18652344 C85.52984163 61.19331722 84.12273213 65.36062668 82 70 C81.32254096 72.09419849 80.67586171 74.19863968 80.0625 76.3125 C74.2229349 95.56550224 65.17856313 113.55539417 48 125 C42.60969932 127.62786012 37.99327584 129.08929344 32 129 C32.04447841 134.22928022 32.11464669 139.4573901 32.20751953 144.68603516 C32.23555549 146.46067942 32.2568555 148.23544453 32.27099609 150.01025391 C32.29308437 163.99268821 32.29308437 163.99268821 37 177 C37.38808838 177.79100098 37.77617676 178.58200195 38.17602539 179.39697266 C43.75853497 190.65336274 52.26914674 198.11221725 63.9453125 202.421875 C78.02731237 206.3841107 90.89020744 204.47935322 103.55859375 197.61328125 C113.35079065 191.5860437 120.44236348 182.18013798 123.54615784 171.03967285 C124.82286375 165.58183676 125.3316992 160.40409218 125.4140625 154.80859375 C125.43342865 153.97787857 125.4527948 153.14716339 125.4727478 152.29127502 C125.53187615 149.67344998 125.57865804 147.05557934 125.625 144.4375 C125.66324143 142.64776873 125.7022966 140.85805464 125.7421875 139.06835938 C125.83752143 134.71238148 125.92179419 130.35631769 126 126 C124.00046285 125.78459676 122.0009257 125.56919352 120.00138855 125.35379028 C114.20617171 124.32935582 109.413978 118.87642445 106.0625 114.3125 C101.08751436 106.32237155 99.83821776 98.40815815 101 89 C104.00210794 79.71867393 109.50865427 72.52660588 118.12109375 67.84765625 C126.00215479 64.7096925 135.36663826 64.72643858 143.3125 67.5625 C151.38657789 71.27788869 157.82060764 77.41728117 161.078125 85.76171875 C163.72095355 95.04521394 162.66924321 104.59853858 158 113 C155.875 116.125 155.875 116.125 154 118 C153.34 118 152.68 118 152 118 C151.67 118.99 151.34 119.98 151 121 C146.50770385 123.9948641 143.35347049 125.16840178 138 126 C138.02094727 127.12792969 138.04189453 128.25585938 138.06347656 129.41796875 C138.13696148 133.68215776 138.18218568 137.94629341 138.21972656 142.2109375 C138.23959897 144.04176301 138.26670663 145.87252718 138.30175781 147.703125 C138.69828653 168.97572446 135.27358409 184.81230499 120.234375 200.78515625 C109.97159923 210.95822244 95.60577768 217.15043511 81.10009766 217.32983398 C64.468754 217.21034143 50.47853556 213.01232181 38.05859375 201.23046875 C34.26240719 197.11733303 31.07128219 192.67076832 28 188 C27.25556641 186.88818359 27.25556641 186.88818359 26.49609375 185.75390625 C18.5331459 172.79925974 18.83523708 156.56939481 18.9375 141.875 C18.94201172 140.63234375 18.94652344 139.3896875 18.95117188 138.109375 C18.96285076 135.07286498 18.9792286 132.03645912 19 129 C18.40904541 128.95246582 17.81809082 128.90493164 17.20922852 128.85595703 C5.53663085 127.76741971 -2.78322477 122.1531195 -10.28515625 113.3046875 C-28.11108439 90.5089263 -38.7281856 55.87086539 -37 27 C-35.85046717 19.47119156 -30.46349855 13.97423002 -25 9 C-22.12387118 7.19632599 -19.46437967 6 -16 6 C-15.690625 5.1028125 -15.690625 5.1028125 -15.375 4.1875 C-11.92567506 -1.3000624 -5.71654125 -2.22309937 0 0 Z " fill="#3380C2" transform="translate(104,63)"/>
<path d="M0 0 C6.73722208 5.59574062 11.17548624 11.78680321 12.08203125 20.68359375 C12.18757022 30.01323897 10.88839794 36.76568318 5.62109375 44.51171875 C5.00234375 45.13046875 4.38359375 45.74921875 3.74609375 46.38671875 C3.08609375 46.38671875 2.42609375 46.38671875 1.74609375 46.38671875 C1.41609375 47.37671875 1.08609375 48.36671875 0.74609375 49.38671875 C-3.7462024 52.38158285 -6.90043576 53.55512053 -12.25390625 54.38671875 C-12.22248535 56.07861328 -12.22248535 56.07861328 -12.19042969 57.8046875 C-12.11694477 62.06887651 -12.07172057 66.33301216 -12.03417969 70.59765625 C-12.01430728 72.42848176 -11.98719962 74.25924593 -11.95214844 76.08984375 C-11.55561972 97.36244321 -14.98032216 113.19902374 -30.01953125 129.171875 C-40.27974104 139.34239764 -54.65203132 145.54494315 -69.15649414 145.71508789 C-69.95176514 145.70985107 -70.74703613 145.70461426 -71.56640625 145.69921875 C-72.3958374 145.69720459 -73.22526855 145.69519043 -74.07983398 145.69311523 C-81.17663682 145.57747799 -87.84220125 144.59257125 -94.25390625 141.38671875 C-94.25390625 140.72671875 -94.25390625 140.06671875 -94.25390625 139.38671875 C-89.62890625 137.26171875 -89.62890625 137.26171875 -86.25390625 138.38671875 C-86.25390625 139.37671875 -86.25390625 140.36671875 -86.25390625 141.38671875 C-74.10961658 144.50518979 -59.58859731 143.49478676 -48.25390625 138.38671875 C-46.58883924 137.71606676 -44.92262006 137.04824458 -43.25390625 136.38671875 C-43.25390625 135.39671875 -43.25390625 134.40671875 -43.25390625 133.38671875 C-43.58390625 133.05671875 -43.91390625 132.72671875 -44.25390625 132.38671875 C-43.81628992 129.10459629 -42.72832754 127.53838944 -40.25390625 125.38671875 C-42.72890625 126.37671875 -42.72890625 126.37671875 -45.25390625 127.38671875 C-44.12718413 124.0065524 -43.36152696 123.49685057 -40.62890625 121.38671875 C-33.25357782 115.11040695 -28.55042213 106.74943733 -26.25390625 97.38671875 C-26.00048462 96.35744263 -26.00048462 96.35744263 -25.74194336 95.30737305 C-25.08842324 91.39638695 -25.01965509 87.54510003 -24.9375 83.5859375 C-24.90632835 82.33137505 -24.90632835 82.33137505 -24.87452698 81.0514679 C-24.80939591 78.39246454 -24.75031675 75.73336647 -24.69140625 73.07421875 C-24.64818633 71.26626644 -24.60457095 69.45832353 -24.56054688 67.65039062 C-24.45375209 63.22926253 -24.352383 58.80803963 -24.25390625 54.38671875 C-26.2534434 54.17131551 -28.25298055 53.95591227 -30.2525177 53.74050903 C-36.04773454 52.71607457 -40.83992825 47.2631432 -44.19140625 42.69921875 C-49.16639189 34.7090903 -50.41568849 26.7948769 -49.25390625 17.38671875 C-46.25179831 8.10539268 -40.74525198 0.91332463 -32.1328125 -3.765625 C-21.47254269 -8.0101728 -9.27056008 -6.63560019 0 0 Z " fill="#357EBE" transform="translate(254.25390625,134.61328125)"/>
<path d="M0 0 C6.98522116 4.99982035 11.6235464 10.65220325 14 19 C15.05292359 29.33334318 13.72256682 37.52563703 7.875 46.125 C7.25625 46.74375 6.6375 47.3625 6 48 C5.34 48 4.68 48 4 48 C3.67 48.99 3.34 49.98 3 51 C-1.49229615 53.9948641 -4.64652951 55.16840178 -10 56 C-9.98428955 57.15411377 -9.9685791 58.30822754 -9.95239258 59.49731445 C-9.89761658 63.82666903 -9.86347849 68.15599371 -9.83520508 72.4855957 C-9.82022611 74.35055716 -9.79983576 76.21548405 -9.77368164 78.08032227 C-9.50208535 97.96010558 -9.50208535 97.96010558 -13 107 C-15 104 -15 104 -14.625 101.3125 C-14.41875 100.549375 -14.2125 99.78625 -14 99 C-14.78375 99.350625 -15.5675 99.70125 -16.375 100.0625 C-17.24125 100.371875 -18.1075 100.68125 -19 101 C-19.66 100.67 -20.32 100.34 -21 100 C-21 84.82 -21 69.64 -21 54 C-23.64 53.67 -26.28 53.34 -29 53 C-31.5 50.9375 -31.5 50.9375 -33 49 C-32.34 49 -31.68 49 -31 49 C-31.33 47.68 -31.66 46.36 -32 45 C-31.01 45.33 -30.02 45.66 -29 46 C-29 45.34 -29 44.68 -29 44 C-29.99 44 -30.98 44 -32 44 C-32.66 42.02 -33.32 40.04 -34 38 C-34.66 38 -35.32 38 -36 38 C-36 37.34 -36 36.68 -36 36 C-32.27929177 37.24023608 -31.37478909 38.95730148 -29 42 C-25.36780895 44.4214607 -23.50841442 44.29869516 -19.1875 44.3125 C-17.98480469 44.32925781 -16.78210938 44.34601563 -15.54296875 44.36328125 C-11.71736796 43.97102009 -9.33595818 42.84573452 -6 41 C-5.34 41 -4.68 41 -4 41 C-3.31225595 39.67741528 -2.65288627 38.34013497 -2 37 C-1.46375 35.948125 -0.9275 34.89625 -0.375 33.8125 C1.75007088 28.67508638 2.12192438 23.77364639 0.015625 18.56640625 C-1.21549038 16.2523653 -2.45905563 14.12082607 -4 12 C-4.5053125 11.25878906 -5.010625 10.51757812 -5.53125 9.75390625 C-9.48475951 6.94516294 -13.53661584 7.57836416 -18.25 7.75 C-19.65378906 7.77707031 -19.65378906 7.77707031 -21.0859375 7.8046875 C-23.39167015 7.85174327 -25.69530945 7.91746287 -28 8 C-27.67 7.34 -27.34 6.68 -27 6 C-26.67 5.01 -26.34 4.02 -26 3 C-27.32 2.34 -28.64 1.68 -30 1 C-30 0.01 -30 -0.98 -30 -2 C-20.0984441 -5.68429987 -9.19398333 -5.35922789 0 0 Z " fill="#327EC0" transform="translate(252,133)"/>
<path d="M0 0 C5.76207966 2.64947962 9.17446974 6.4607173 11.71484375 12.2734375 C12.76224379 18.75270285 11.33888671 23.88443855 7.71484375 29.2734375 C4.71162542 32.81569502 2.24611274 35.11427567 -2.28515625 36.2734375 C-8.01396932 36.74301234 -13.3689515 36.53739199 -18.28515625 33.2734375 C-23.01240391 27.6745715 -25.60521461 22.88081679 -25.5 15.5859375 C-24.95448712 9.71423519 -21.55249449 6.03275929 -17.28515625 2.2734375 C-12.29610947 -1.86034412 -6.02140564 -1.9144982 0 0 Z " fill="#F6FBFC" transform="translate(242.28515625,141.7265625)"/>
<path d="M0 0 C0.33 0.99 0.66 1.98 1 3 C0.67 3.66 0.34 4.32 0 5 C0.99 5.33 1.98 5.66 3 6 C4.05848686 8.74976074 4.07734738 11.19890511 3.87890625 14.109375 C3.83056641 14.86347656 3.78222656 15.61757812 3.73242188 16.39453125 C3.64831055 17.56048828 3.64831055 17.56048828 3.5625 18.75 C3.51029297 19.54277344 3.45808594 20.33554688 3.40429688 21.15234375 C3.27510676 23.10193997 3.13830035 25.05102886 3 27 C2.67 27 2.34 27 2 27 C1.67 24.69 1.34 22.38 1 20 C0.34 20 -0.32 20 -1 20 C-1 18.35 -1 16.7 -1 15 C-2.32 15.33 -3.64 15.66 -5 16 C-5.33 15.34 -5.66 14.68 -6 14 C-7.14139106 17.64158099 -7.13317039 21.07576753 -7.125 24.875 C-7.12757812 26.06867188 -7.13015625 27.26234375 -7.1328125 28.4921875 C-7.09063144 31.97840144 -7.09063144 31.97840144 -6.3671875 35.2578125 C-6 38 -6 38 -8 41 C-10.34851754 30.72523574 -12.9045206 17.4879538 -7 8 C-4.80887616 5.18562316 -2.48363997 2.5584894 0 0 Z " fill="#3A81BF" transform="translate(77,74)"/>
<path d="M0 0 C3 2 3 2 4 5 C4.58092594 15.79181643 4.09060159 25.58761606 1 36 C0.67 36 0.34 36 0 36 C0 33.69 0 31.38 0 29 C-0.66 29 -1.32 29 -2 29 C-2.33 29.99 -2.66 30.98 -3 32 C-3.66 31.34 -4.32 30.68 -5 30 C-5.66 30.66 -6.32 31.32 -7 32 C-7.375 29.8125 -7.375 29.8125 -7 27 C-4.125 24.3125 -4.125 24.3125 -1 22 C1.42130331 19.57869669 1.52840504 18.19888623 2.125 14.875 C2.29257813 13.96492188 2.46015625 13.05484375 2.6328125 12.1171875 C2.75398437 11.41851562 2.87515625 10.71984375 3 10 C2.01 10 1.02 10 0 10 C0 6.7 0 3.4 0 0 Z " fill="#2E78B8" transform="translate(188,83)"/>
<path d="M0 0 C0.33 0.66 0.66 1.32 1 2 C1.66 2 2.32 2 3 2 C4.125 5.75 4.125 5.75 3 8 C2.63858045 10.32914823 2.30300475 12.66253478 2 15 C2.99 15 3.98 15 5 15 C4.67 19.29 4.34 23.58 4 28 C2.66666667 28 1.33333333 28 0 28 C0 24.7 0 21.4 0 18 C-1.32 18 -2.64 18 -4 18 C-4.33 15.36 -4.66 12.72 -5 10 C-4.01 10.33 -3.02 10.66 -2 11 C-1.34 10.34 -0.68 9.68 0 9 C-0.32248257 7.66400079 -0.65772583 6.33106622 -1 5 C-0.5625 2.25 -0.5625 2.25 0 0 Z " fill="#3483C7" transform="translate(186,78)"/>
<path d="M0 0 C1.52978795 2.33967568 2 3.80929694 2 6.625 C0.07265254 13.12979768 -3.28146161 19.19177595 -9 23 C-8.67 21.68 -8.34 20.36 -8 19 C-7.34 19 -6.68 19 -6 19 C-5.34 16.36 -4.68 13.72 -4 11 C-4.66 11 -5.32 11 -6 11 C-5.77139942 9.53815942 -5.51629608 8.08044581 -5.25 6.625 C-5.11078125 5.81289062 -4.9715625 5.00078125 -4.828125 4.1640625 C-4 2 -4 2 -1.921875 0.7109375 C-0.97054687 0.35902344 -0.97054687 0.35902344 0 0 Z " fill="#3181C6" transform="translate(234,236)"/>
<path d="M0 0 C0 0.99 0 1.98 0 3 C4.91502758 4.29235715 9.77290102 4.11135517 14.8125 4.0625 C16.13797852 4.05573242 16.13797852 4.05573242 17.49023438 4.04882812 C19.66018559 4.03709866 21.83010172 4.01916495 24 4 C24 4.99 24 5.98 24 7 C1.27183513 7.63591757 1.27183513 7.63591757 -8 3 C-8 2.34 -8 1.68 -8 1 C-3.375 -1.125 -3.375 -1.125 0 0 Z " fill="#3C7DB8" transform="translate(168,273)"/>
<path d="M0 0 C0.33 0 0.66 0 1 0 C1.33 1.65 1.66 3.3 2 5 C5.13349732 6.04449911 5.98968256 5.93423645 9 5 C9.22331199 6.58129029 9.42804644 8.16521089 9.625 9.75 C9.74101562 10.63171875 9.85703125 11.5134375 9.9765625 12.421875 C10.00207817 15.22859878 9.44843844 16.63384866 8 19 C7.67 19 7.34 19 7 19 C6.34 16.03 5.68 13.06 5 10 C4.34 10.66 3.68 11.32 3 12 C2.67 11.67 2.34 11.34 2 11 C1.34 12.65 0.68 14.3 0 16 C-1.58203125 14.91796875 -1.58203125 14.91796875 -3 13 C-2.63671875 9.86328125 -2.63671875 9.86328125 -1.6875 6.3125 C-1.38199219 5.13300781 -1.07648438 3.95351562 -0.76171875 2.73828125 C-0.51035156 1.83464844 -0.25898438 0.93101562 0 0 Z " fill="#3F84C0" transform="translate(229,227)"/>
<path d="M0 0 C0 0.99 0 1.98 0 3 C-4.34285714 7 -4.34285714 7 -7 7 C-7 7.66 -7 8.32 -7 9 C-9.43338652 10.53508028 -10.67124507 11.03088304 -13.578125 10.7578125 C-14.90070313 10.44457031 -14.90070313 10.44457031 -16.25 10.125 C-17.14203125 9.92132813 -18.0340625 9.71765625 -18.953125 9.5078125 C-19.96632812 9.25644531 -19.96632812 9.25644531 -21 9 C-18.56678254 7.37785503 -16.80961447 6.4610293 -14.125 5.5 C-11.76587157 4.64568327 -9.44541265 3.77093131 -7.125 2.8125 C-5 2 -5 2 -3 2 C-2.01 1.34 -1.02 0.68 0 0 Z " fill="#3C82BC" transform="translate(215,258)"/>
<path d="M0 0 C8.35927152 2.73178808 8.35927152 2.73178808 11.6875 4.125 C18.03799428 6.52788973 24.69354432 6.11853802 31.375 6.0625 C32.39722656 6.05798828 33.41945312 6.05347656 34.47265625 6.04882812 C36.98183194 6.037103 39.4908849 6.02069176 42 6 C37.14609595 8.82968384 32.35383931 8.3298381 26.875 8.3125 C25.38226563 8.33666992 25.38226563 8.33666992 23.859375 8.36132812 C17.08985996 8.36574687 11.35845127 7.31798437 5 5 C5 4.34 5 3.68 5 3 C4.360625 2.87625 3.72125 2.7525 3.0625 2.625 C2.381875 2.41875 1.70125 2.2125 1 2 C0.67 1.34 0.34 0.68 0 0 Z " fill="#3171AA" transform="translate(156,261)"/>
<path d="M0 0 C0.99 0.33 1.98 0.66 3 1 C-2.72998211 6.69714554 -8.49324403 10.07833646 -16 13 C-16.845625 13.33257812 -17.69125 13.66515625 -18.5625 14.0078125 C-22.61895619 15.48895275 -24.79210552 16.17472897 -29 15 C-28.16021606 14.7054895 -28.16021606 14.7054895 -27.3034668 14.4050293 C-24.76159771 13.50800757 -22.22459788 12.59792429 -19.6875 11.6875 C-18.80642578 11.37876953 -17.92535156 11.07003906 -17.01757812 10.75195312 C-16.17001953 10.44580078 -15.32246094 10.13964844 -14.44921875 9.82421875 C-13.27879028 9.40789185 -13.27879028 9.40789185 -12.0847168 8.9831543 C-9.86154878 7.93470628 -8.65724326 6.78839411 -7 5 C-2.44444444 2 -2.44444444 2 0 2 C0 1.34 0 0.68 0 0 Z " fill="#3474AB" transform="translate(221,263)"/>
<path d="M0 0 C-10.88497194 5.1657494 -23.53776718 6.04549394 -35 2 C-35.99 1.34 -36.98 0.68 -38 0 C-36.5629191 -0.05422947 -35.12524538 -0.09289723 -33.6875 -0.125 C-32.88699219 -0.14820313 -32.08648437 -0.17140625 -31.26171875 -0.1953125 C-29 0 -29 0 -26 2 C-18.93404685 2.75357118 -12.44939581 2.38601546 -5.90234375 -0.44140625 C-3.58863835 -1.12078997 -2.25521654 -0.75843585 0 0 Z " fill="#CFEAFA" transform="translate(203,264)"/>
<path d="M0 0 C0.49628906 0.38671875 0.99257812 0.7734375 1.50390625 1.171875 C11.60492215 8.91534829 20.23521442 12.12285379 33 13 C33 13.33 33 13.66 33 14 C21.62530067 14.52769224 13.38445102 12.9512662 3.8125 6.6953125 C1.63860277 4.66196897 0.9124683 2.80393905 0 0 Z " fill="#2B71AB" transform="translate(103,168)"/>
<path d="M0 0 C0.66 0 1.32 0 2 0 C3.55078125 1.828125 3.55078125 1.828125 5.3125 4.25 C7.93271108 7.74178757 10.50715048 10.35390188 14 13 C14 13.66 14 14.32 14 15 C14.969375 15.268125 15.93875 15.53625 16.9375 15.8125 C17.948125 16.204375 18.95875 16.59625 20 17 C20.33 17.99 20.66 18.98 21 20 C11.75946954 17.11233423 5.2779304 9.80459922 0 2 C0 1.34 0 0.68 0 0 Z " fill="#3676AE" transform="translate(90,169)"/>
<path d="M0 0 C1.47265625 1.01953125 1.47265625 1.01953125 3 3 C3.3291056 5.66545883 3.47396479 8.02557 3.4375 10.6875 C3.43427734 11.40486328 3.43105469 12.12222656 3.42773438 12.86132812 C3.27985036 18.47582139 2.15182124 22.27226814 -1 27 C-1.66 27 -2.32 27 -3 27 C-2.7834375 26.47535156 -2.566875 25.95070312 -2.34375 25.41015625 C0.6784719 17.00110365 0.27564917 8.80035498 0 0 Z " fill="#D7EFFC" transform="translate(265,149)"/>
<path d="M0 0 C1.50960093 4.74109041 1.02245072 9.57566441 0.9375 14.4921875 C0.89968013 17.97852681 0.89968013 17.97852681 1.625 21.2578125 C2 24 2 24 0 27 C-1.91958262 18.60182604 -2.22588024 10.59599799 -2 2 C-1.34 2 -0.68 2 0 2 C0 1.34 0 0.68 0 0 Z " fill="#4B85B7" transform="translate(69,88)"/>
<path d="M0 0 C0.61875 0.515625 1.2375 1.03125 1.875 1.5625 C5.35458749 3.9163386 9.02055656 2.70575599 13 2 C12.67 2.66 12.34 3.32 12 4 C7.74199462 5.41933513 3.77088462 5.72651677 -0.4375 4 C-0.953125 3.67 -1.46875 3.34 -2 3 C-2 2.34 -2 1.68 -2 1 C-5.98381075 3.16264012 -8.88983545 5.71211176 -12 9 C-11.66466723 5.98200506 -11.13434402 4.19118187 -9.375 1.6875 C-6.07601619 -0.65651481 -3.96268075 -0.49533509 0 0 Z " fill="#3475AC" transform="translate(92,81)"/>
<path d="M0 0 C0 12.54 0 25.08 0 38 C-0.33 38 -0.66 38 -1 38 C-1.02505615 36.9805127 -1.0501123 35.96102539 -1.07592773 34.91064453 C-1.16997004 31.13479646 -1.27019837 27.35913373 -1.37231445 23.58349609 C-1.41567538 21.94812347 -1.45734961 20.31270523 -1.49731445 18.67724609 C-1.55498912 16.32896159 -1.61869129 13.98090696 -1.68359375 11.6328125 C-1.70030624 10.89942657 -1.71701874 10.16604065 -1.73423767 9.41043091 C-1.78637962 5.57797692 -1.78637962 5.57797692 -3 2 C-5.02463255 1.34786708 -5.02463255 1.34786708 -7 1 C-4.50935112 0.31292445 -2.62113708 0 0 0 Z " fill="#E4F8FD" transform="translate(230,189)"/>
<path d="M0 0 C0.66 0 1.32 0 2 0 C-1.23468082 6.83383273 -6.33575743 14.14345284 -13 18 C-13.99 17.67 -14.98 17.34 -16 17 C-15.34 17 -14.68 17 -14 17 C-13.67 16.01 -13.34 15.02 -13 14 C-12.360625 13.855625 -11.72125 13.71125 -11.0625 13.5625 C-8.79688294 13.19895007 -8.79688294 13.19895007 -7.75 10.9375 C-7.5025 10.298125 -7.255 9.65875 -7 9 C-6.34 9 -5.68 9 -5 9 C-4.67 7.68 -4.34 6.36 -4 5 C-3.34 5 -2.68 5 -2 5 C-1.34 3.35 -0.68 1.7 0 0 Z " fill="#3B76AC" transform="translate(169,167)"/>
<path d="M0 0 C0 0.99 0 1.98 0 3 C-1.69270833 3.71614583 -3.38541667 4.43229167 -5.078125 5.1484375 C-7.02261319 5.96191791 -7.02261319 5.96191791 -8.8125 7.09375 C-11.85283047 8.35331548 -14.47533618 8.19049328 -17.75 8.125 C-18.92046875 8.10695312 -20.0909375 8.08890625 -21.296875 8.0703125 C-22.63492188 8.03550781 -22.63492188 8.03550781 -24 8 C-24 7.67 -24 7.34 -24 7 C-23.40574219 6.98582031 -22.81148437 6.97164062 -22.19921875 6.95703125 C-15.79100454 6.58828486 -10.97612303 4.92978896 -5.25 2.05859375 C-3 1 -3 1 -1 1 C-0.67 0.67 -0.34 0.34 0 0 Z " fill="#2E74B0" transform="translate(254,171)"/>
<path d="M0 0 C3.875 1.75 3.875 1.75 5 4 C5.66 3.01 6.32 2.02 7 1 C7.66 1 8.32 1 9 1 C8.3125 3.4375 8.3125 3.4375 7 6 C4.19031313 6.93656229 1.96200864 7 -1 7 C-1.625 5.1875 -1.625 5.1875 -2 3 C-1.34 2.01 -0.68 1.02 0 0 Z " fill="#3183C6" transform="translate(211,144)"/>
<path d="M0 0 C0 0.99 0 1.98 0 3 C0.66 3 1.32 3 2 3 C2 3.66 2 4.32 2 5 C2.66 5.33 3.32 5.66 4 6 C-4.57142857 5.14285714 -4.57142857 5.14285714 -8 3 C-8 2.34 -8 1.68 -8 1 C-3.375 -1.125 -3.375 -1.125 0 0 Z " fill="#4787C0" transform="translate(168,273)"/>
<path d="M0 0 C3.21373732 2.14249154 3.58276104 2.83117379 4.9375 6.25 C7.23795592 11.72016808 10.39079393 16.30803211 14 21 C7.21417763 18.1043258 3.83078883 11.10804428 0.6640625 4.76171875 C0 3 0 3 0 0 Z " fill="#3878AF" transform="translate(128,240)"/>
<path d="M0 0 C0.66 0 1.32 0 2 0 C2.763125 0.804375 3.52625 1.60875 4.3125 2.4375 C7.16006661 5.15262165 8.1242937 6 12 6 C14.4679302 5.18079144 16.65325081 4.15036725 19 3 C18 6 18 6 16.375 7.1875 C12.05528708 8.66529653 8.38783743 8.5859758 4.1875 6.8125 C1.67158069 4.72788114 0.92129863 3.09891358 0 0 Z " fill="#3C76AC" transform="translate(150,78)"/>
<path d="M0 0 C0.33 0 0.66 0 1 0 C1.144375 0.763125 1.28875 1.52625 1.4375 2.3125 C1.9632594 5.08172908 1.9632594 5.08172908 3 8 C2.54451823 10.73812607 1.74685247 13.3201176 1 16 C0 13 0 13 0 11 C-0.66 11.66 -1.32 12.32 -2 13 C-2.84454356 9.62182575 -3.10844919 7.32534757 -2 4 C-1.34 4 -0.68 4 0 4 C0 2.68 0 1.36 0 0 Z " fill="#448CC9" transform="translate(187,112)"/>
<path d="M0 0 C0.6875 1.75 0.6875 1.75 1 4 C-0.3125 6.25 -0.3125 6.25 -2 8 C-2.66 8 -3.32 8 -4 8 C-4 8.66 -4 9.32 -4 10 C-5.98 10.33 -7.96 10.66 -10 11 C-9.278125 10.29875 -8.55625 9.5975 -7.8125 8.875 C-5.00176187 6.07229255 -2.50483774 3.07737208 0 0 Z " fill="#4282B8" transform="translate(158,164)"/>
<path d="M0 0 C2.97992514 2.47769056 3.77388497 4.79474701 4.75 8.5 C5.01296875 9.4590625 5.2759375 10.418125 5.546875 11.40625 C6 14 6 14 5 17 C5 16.34 5 15.68 5 15 C4.34 15 3.68 15 3 15 C2.491217 13.44033782 1.99336531 11.87710759 1.5 10.3125 C1.2215625 9.44238281 0.943125 8.57226562 0.65625 7.67578125 C0.00149195 5.00608323 -0.11831495 2.73603316 0 0 Z " fill="#4B86BB" transform="translate(82,119)"/>
<path d="M0 0 C3.16115776 1.36983503 3.9927092 1.9890638 6 5 C6.33775739 9.5597248 5.99840383 12.8782921 4 17 C3.01 16.67 2.02 16.34 1 16 C1.33 15.484375 1.66 14.96875 2 14.4375 C3.72651677 10.22911538 3.41933513 6.25800538 2 2 C1.34 2 0.68 2 0 2 C0 1.34 0 0.68 0 0 Z " fill="#3576AD" transform="translate(104,65)"/>
<path d="M0 0 C-0.33 0.66 -0.66 1.32 -1 2 C-1.99 1.34 -2.98 0.68 -4 0 C-8.48746966 -0.2479265 -12.03728676 0.22513324 -15.5625 3.0625 C-16.036875 3.701875 -16.51125 4.34125 -17 5 C-17.33 4.01 -17.66 3.02 -18 2 C-11.98603006 -3.17869633 -7.05800503 -4.70533668 0 0 Z " fill="#3472A9" transform="translate(169,65)"/>
<path d="M0 0 C0.33 0 0.66 0 1 0 C1 7.41518833 -3.21250748 12.58592359 -8 18 C-8.66 18 -9.32 18 -10 18 C-8.18632198 14.15465381 -5.85991406 10.79862645 -3.4375 7.31640625 C-1.96699267 4.94681156 -0.95875204 2.61352118 0 0 Z " fill="#3576AC" transform="translate(235,243)"/>
<path d="M0 0 C0.66 0 1.32 0 2 0 C0.59308516 3.3287315 -1.00691581 5.13167372 -3.875 7.3125 C-4.55304688 7.84488281 -5.23109375 8.37726563 -5.9296875 8.92578125 C-8 10 -8 10 -10.2578125 9.66796875 C-10.83273438 9.44753906 -11.40765625 9.22710937 -12 9 C-12.33 9.99 -12.66 10.98 -13 12 C-13 10.68 -13 9.36 -13 8 C-12.39671875 7.75765625 -11.7934375 7.5153125 -11.171875 7.265625 C-6.6285352 5.36035347 -3.33413263 3.73422854 0 0 Z " fill="#E0F4FC" transform="translate(256,181)"/>
<path d="M0 0 C2.56428515 -0.13559675 5.12135216 -0.23433188 7.6875 -0.3125 C8.40873047 -0.35439453 9.12996094 -0.39628906 9.87304688 -0.43945312 C14.19577396 -0.53814552 15.54532962 -0.37938214 19.01953125 2.51953125 C19.67308594 3.33808594 20.32664063 4.15664062 21 5 C19.783125 4.505 18.56625 4.01 17.3125 3.5 C11.2661255 1.44268727 5.31264087 1.73656676 -1 2 C-0.67 1.34 -0.34 0.68 0 0 Z " fill="#3575AB" transform="translate(228,140)"/>
<path d="M0 0 C0.99 0.33 1.98 0.66 3 1 C7.17023918 1.1544533 10.94146318 0.98388771 15 0 C13.5625 2 13.5625 2 11 4 C6.30263837 4.72919332 2.99293937 4.66195958 -1 2 C-0.67 1.34 -0.34 0.68 0 0 Z " fill="#DBF3FB" transform="translate(91,84)"/>
<path d="M0 0 C0.99 0 1.98 0 3 0 C2.125 4.875 2.125 4.875 1 6 C1.66 6.66 2.32 7.32 3 8 C3 8.66 3 9.32 3 10 C3.66 10.66 4.32 11.32 5 12 C3.35 11.67 1.7 11.34 0 11 C0.33 10.01 0.66 9.02 1 8 C0.01 7.67 -0.98 7.34 -2 7 C-1.34 6.01 -0.68 5.02 0 4 C0 2.68 0 1.36 0 0 Z " fill="#2F79B8" transform="translate(147,175)"/>
<path d="M0 0 C-0.33 0.99 -0.66 1.98 -1 3 C-4.76300374 4.25433458 -8.27210909 4.10695422 -12.1875 4.0625 C-12.93708984 4.05798828 -13.68667969 4.05347656 -14.45898438 4.04882812 C-16.30602383 4.03706354 -18.15302213 4.01912865 -20 4 C-20 3.67 -20 3.34 -20 3 C-19.10796875 2.95101562 -18.2159375 2.90203125 -17.296875 2.8515625 C-15.54117188 2.73941406 -15.54117188 2.73941406 -13.75 2.625 C-12.00976562 2.52058594 -12.00976562 2.52058594 -10.234375 2.4140625 C-6.4083542 1.9242579 -3.81555576 0 0 0 Z " fill="#4986BB" transform="translate(145,177)"/>
<path d="M0 0 C0.66 0.33 1.32 0.66 2 1 C2.625 3.0625 2.625 3.0625 3 5 C-0.28804981 7.91227269 -2.59885603 9.49701212 -7 10 C-7 9.34 -7 8.68 -7 8 C-5.68 8 -4.36 8 -3 8 C-3.061875 7.236875 -3.12375 6.47375 -3.1875 5.6875 C-3 3 -3 3 -1.5 1.1875 C-1.005 0.795625 -0.51 0.40375 0 0 Z " fill="#4786BE" transform="translate(253,178)"/>
<path d="M0 0 C-1.25844278 3.88019859 -2.42416203 5.9411842 -6 8 C-6.99 8 -7.98 8 -9 8 C-7.13554727 3.64961029 -5.02378599 0 0 0 Z " fill="#D0E7F4" transform="translate(90,82)"/>
<path d="M0 0 C0.99 0.33 1.98 0.66 3 1 C-5.261959 8.66742597 -5.261959 8.66742597 -10 10 C-8.4972742 5.79236776 -5.76667005 4.1972242 -2 2 C-1.34 2 -0.68 2 0 2 C0 1.34 0 0.68 0 0 Z " fill="#3E7BB2" transform="translate(221,263)"/>
<path d="M0 0 C0.99 0.495 0.99 0.495 2 1 C2 1.99 2 2.98 2 4 C2.66 4 3.32 4 4 4 C4.33 7.63 4.66 11.26 5 15 C3.45204854 12.67807281 2.23880546 10.47761092 1 8 C0.67 7.67 0.34 7.34 0 7 C-0.04092937 4.66702567 -0.04241723 2.33294775 0 0 Z " fill="#2C76B8" transform="translate(132,220)"/>
<path d="M0 0 C0.33 0.99 0.66 1.98 1 3 C-0.375 4.5 -0.375 4.5 -2 6 C-2.66 6 -3.32 6 -4 6 C-4.66 7.32 -5.32 8.64 -6 10 C-7.32 9.67 -8.64 9.34 -10 9 C-6.7 6.03 -3.4 3.06 0 0 Z " fill="#D5EDF9" transform="translate(227,260)"/>
<path d="M0 0 C0.66 0.99 1.32 1.98 2 3 C-0.75 8.875 -0.75 8.875 -3 10 C-3.72159424 11.64363134 -4.39351421 13.31050386 -5 15 C-5.66 15 -6.32 15 -7 15 C-5.67605188 10.36618157 -3.72397536 6.95415778 -1 3 C-0.67 2.01 -0.34 1.02 0 0 Z " fill="#528BBB" transform="translate(166,149)"/>
<path d="M0 0 C6.13929569 0.36835774 8.81670353 1.71710123 13 6 C13.875 8.3125 13.875 8.3125 14 10 C13.4225 9.360625 12.845 8.72125 12.25 8.0625 C10.01937599 6.01776132 8.92563609 5.41794801 6 5 C6 4.01 6 3.02 6 2 C3.03 1.505 3.03 1.505 0 1 C0 0.67 0 0.34 0 0 Z " fill="#3274A9" transform="translate(172,70)"/>
<path d="M0 0 C1.5 1.375 1.5 1.375 3 3 C3 3.66 3 4.32 3 5 C3.66 5 4.32 5 5 5 C6.42944945 7.35438733 7.08661261 8.48032433 6.625 11.25 C6.41875 11.8275 6.2125 12.405 6 13 C5.01 12.67 4.02 12.34 3 12 C3.33 11.01 3.66 10.02 4 9 C3.25018692 7.18781988 3.25018692 7.18781988 2.0625 5.4375 C0 2.18644068 0 2.18644068 0 0 Z " fill="#3377B2" transform="translate(94,155)"/>
<path d="M0 0 C2.64465038 3.1254959 3.84414715 6.08788267 5 10 C5.66 10 6.32 10 7 10 C7 10.99 7 11.98 7 13 C4 12 4 12 2.83203125 10.29296875 C2.49558594 9.59816406 2.15914063 8.90335938 1.8125 8.1875 C1.46832031 7.50042969 1.12414062 6.81335938 0.76953125 6.10546875 C0 4 0 4 0 0 Z " fill="#3D7AB0" transform="translate(82,153)"/>
<path d="M0 0 C0.33 0 0.66 0 1 0 C1.16682272 4.92127034 1.24828052 8.50343896 -1 13 C-1.99 13 -2.98 13 -4 13 C-3.52140759 11.39566191 -3.04210442 9.79153584 -2.5625 8.1875 C-2.29566406 7.29417969 -2.02882812 6.40085938 -1.75390625 5.48046875 C-1.19612127 3.64526945 -0.60655425 1.81966274 0 0 Z " fill="#4D88B8" transform="translate(172,133)"/>
<path d="M0 0 C3.4599577 2.67360368 4.06972239 5.84953067 5 10 C5.125 12.9375 5.125 12.9375 5 15 C3.39282229 12.58923344 2.38457485 10.71900755 1.375 8.0625 C0.98441406 7.05896484 0.98441406 7.05896484 0.5859375 6.03515625 C0 4 0 4 0 0 Z " fill="#CDE9F7" transform="translate(88,134)"/>
<path d="M0 0 C0 0.99 0 1.98 0 3 C-4.34285714 7 -4.34285714 7 -7 7 C-7 6.34 -7 5.68 -7 5 C-7.99 4.67 -8.98 4.34 -10 4 C-5.25 2 -5.25 2 -3 2 C-2.01 1.34 -1.02 0.68 0 0 Z " fill="#4489C6" transform="translate(215,258)"/>
<path d="M0 0 C3.70293685 -0.33663062 5.39534381 -0.47736015 8.375 1.875 C10 4 10 4 10 6 C5.56909529 4.79157144 3.01887244 3.48331435 0 0 Z " fill="#C6E2F2" transform="translate(154,258)"/>
<path d="M0 0 C0.33 0 0.66 0 1 0 C1.35050464 5.841744 1.16727335 9.8531808 -2 15 C-3.10844919 11.67465243 -2.84454356 9.37817425 -2 6 C-1.34 6 -0.68 6 0 6 C0 4.02 0 2.04 0 0 Z " fill="#DDF1FC" transform="translate(243,223)"/>
<path d="M0 0 C0.226875 0.556875 0.45375 1.11375 0.6875 1.6875 C2.35896766 4.63246684 4.55276352 6.68156544 7 9 C6.67 9.99 6.34 10.98 6 12 C3.36 8.7 0.72 5.4 -2 2 C-1.34 1.34 -0.68 0.68 0 0 Z " fill="#4981B4" transform="translate(210,172)"/>
<path d="M0 0 C0.33 0 0.66 0 1 0 C1.02696365 1.79158489 1.04637917 3.58328473 1.0625 5.375 C1.07410156 6.37273437 1.08570312 7.37046875 1.09765625 8.3984375 C1 11 1 11 0 13 C-1.32 12.67 -2.64 12.34 -4 12 C-3.525625 11.13375 -3.05125 10.2675 -2.5625 9.375 C-1.06765105 6.14612626 -0.41781687 3.50966174 0 0 Z " fill="#D0E8F7" transform="translate(110,71)"/>
<path d="M0 0 C1.2077558 3.62326739 0.54311128 4.64146369 -1 8 C-0.34 8 0.32 8 1 8 C0.67 9.65 0.34 11.3 0 13 C-0.66 13 -1.32 13 -2 13 C-2.05416188 11.39620659 -2.09286638 9.79188594 -2.125 8.1875 C-2.14820313 7.29417969 -2.17140625 6.40085938 -2.1953125 5.48046875 C-2 3 -2 3 0 0 Z " fill="#3183C9" transform="translate(173,139)"/>
<path d="M0 0 C1.32 0 2.64 0 4 0 C4 0.66 4 1.32 4 2 C4.969375 2.268125 5.93875 2.53625 6.9375 2.8125 C8.4534375 3.4003125 8.4534375 3.4003125 10 4 C10.33 4.99 10.66 5.98 11 7 C6.89188572 5.55007731 3.53144334 3.54592427 0 1 C0 0.67 0 0.34 0 0 Z " fill="#4884B5" transform="translate(100,182)"/>
<path d="M0 0 C0.33 0.66 0.66 1.32 1 2 C1.99 2.33 2.98 2.66 4 3 C4 3.66 4 4.32 4 5 C2.68 4.67 1.36 4.34 0 4 C-0.66 5.65 -1.32 7.3 -2 9 C-2.66 9 -3.32 9 -4 9 C-2.94124926 5.59687262 -1.99097846 2.98646769 0 0 Z " fill="#4584BC" transform="translate(211,140)"/>
<path d="M0 0 C0.99 0 1.98 0 3 0 C1.66667905 3.99996286 -0.4957827 4.83782337 -4 7 C-4.66 6.67 -5.32 6.34 -6 6 C-4 4 -2 2 0 0 Z " fill="#3978B1" transform="translate(215,255)"/>
<path d="M0 0 C0.66 0 1.32 0 2 0 C2.69710731 1.28650706 3.38242876 2.57940665 4.0625 3.875 C4.63677734 4.95394531 4.63677734 4.95394531 5.22265625 6.0546875 C5.47917969 6.69664062 5.73570313 7.33859375 6 8 C5.67 8.66 5.34 9.32 5 10 C2.66063182 7.87330165 1.19346152 5.93775144 0 3 C0 2.01 0 1.02 0 0 Z " fill="#4884B7" transform="translate(90,146)"/>
<path d="M0 0 C3 1 3 1 4.1875 3.1875 C5.07334979 6.25390311 5.14770318 8.82438155 5 12 C3.5393715 9.35261084 3 8.10551666 3 5 C2.34 5 1.68 5 1 5 C0.67 3.35 0.34 1.7 0 0 Z " fill="#3775AD" transform="translate(260,143)"/>
<path d="M0 0 C0.33 0 0.66 0 1 0 C2.0070238 5.03511899 1.97387813 8.23947038 0 13 C-0.66 13 -1.32 13 -2 13 C-1.48041715 8.62065881 -0.94324258 4.31196609 0 0 Z " fill="#578EC0" transform="translate(177,113)"/>
<path d="M0 0 C1.98 0.66 3.96 1.32 6 2 C3 4 3 4 0 4 C0 5.98 0 7.96 0 10 C-0.33 10 -0.66 10 -1 10 C-1.125 2.25 -1.125 2.25 0 0 Z " fill="#4F8BC0" transform="translate(150,68)"/>
<path d="M0 0 C0.99 0.33 1.98 0.66 3 1 C0.525 4.465 0.525 4.465 -2 8 C-2.66 6.68 -3.32 5.36 -4 4 C-3.34 4 -2.68 4 -2 4 C-1.34 2.68 -0.68 1.36 0 0 Z " fill="#E3F6FC" transform="translate(221,244)"/>
<path d="M0 0 C0.99 0.33 1.98 0.66 3 1 C2.67 1.66 2.34 2.32 2 3 C3.32 3.33 4.64 3.66 6 4 C6 5.65 6 7.3 6 9 C4.5 7.625 4.5 7.625 3 6 C3 5.34 3 4.68 3 4 C2.34 4 1.68 4 1 4 C0.67 2.68 0.34 1.36 0 0 Z " fill="#C8E4F4" transform="translate(96,156)"/>
<path d="M0 0 C0.309375 0.639375 0.61875 1.27875 0.9375 1.9375 C1.8345163 3.93610821 1.8345163 3.93610821 3 5 C3.07179964 6.51928038 3.08392007 8.04167482 3.0625 9.5625 C3.05347656 10.38878906 3.04445313 11.21507813 3.03515625 12.06640625 C3.01775391 13.02353516 3.01775391 13.02353516 3 14 C2.67 14 2.34 14 2 14 C0.66416101 9.15758367 -0.25328119 5.06562383 0 0 Z " fill="#B9D8F3" transform="translate(81,106)"/>
<path d="M0 0 C3.3 0.33 6.6 0.66 10 1 C9.67 1.66 9.34 2.32 9 3 C2.84765625 2.4140625 2.84765625 2.4140625 1 2 C0.67 1.34 0.34 0.68 0 0 Z " fill="#4881B6" transform="translate(221,186)"/>
<path d="M0 0 C0.33 0 0.66 0 1 0 C1.33 4.29 1.66 8.58 2 13 C1.01 13 0.02 13 -1 13 C-0.67 8.71 -0.34 4.42 0 0 Z " fill="#DDF2FA" transform="translate(204,155)"/>
<path d="M0 0 C2.64 1.98 5.28 3.96 8 6 C6.68 6.33 5.36 6.66 4 7 C0 2.25 0 2.25 0 0 Z " fill="#3779B1" transform="translate(103,168)"/>
<path d="M0 0 C2.625 0.1875 2.625 0.1875 5 1 C5.33 1.66 5.66 2.32 6 3 C3.03 3 0.06 3 -3 3 C-2.01 2.01 -1.02 1.02 0 0 Z " fill="#D0ECF7" transform="translate(169,82)"/>
<path d="M0 0 C3.95820859 0.56545837 6.6659053 1.80902348 10 4 C9.67 4.66 9.34 5.32 9 6 C7.68397477 5.38245741 6.37226444 4.75571258 5.0625 4.125 C4.33160156 3.77695313 3.60070312 3.42890625 2.84765625 3.0703125 C1 2 1 2 0 0 Z " fill="#C3E4F6" transform="translate(170,66)"/>
</svg>
