<?xml version="1.0" encoding="UTF-8"?>
<svg version="1.1" xmlns="http://www.w3.org/2000/svg" width="419" height="318">
<path d="M0 0 C138.27 0 276.54 0 419 0 C419 104.94 419 209.88 419 318 C280.73 318 142.46 318 0 318 C0 213.06 0 108.12 0 0 Z " fill="#FDFEFE" transform="translate(0,0)"/>
<path d="M0 0 C0 0.66 0 1.32 0 2 C0.86496094 2.27070312 1.72992188 2.54140625 2.62109375 2.8203125 C5.91324907 3.96971239 8.93084994 5.34678644 12.0625 6.875 C26.75633028 13.64145909 41.22543646 16.9713776 57 12 C68.02212895 9.95386047 79.39229021 10.23374473 90 14 C90.66 14.66 91.32 15.32 92 16 C93.96488831 16.88778692 93.96488831 16.88778692 96.125 17.625 C96.84945313 17.88539062 97.57390625 18.14578125 98.3203125 18.4140625 C98.87460937 18.60742188 99.42890625 18.80078125 100 19 C100 19.66 100 20.32 100 21 C100.804375 21.268125 101.60875 21.53625 102.4375 21.8125 C103.283125 22.204375 104.12875 22.59625 105 23 C105.33 23.99 105.66 24.98 106 26 C106.99 26.33 107.98 26.66 109 27 C110.45544145 29.31960982 111.75049437 31.57566039 113 34 C113.8353125 35.546875 113.8353125 35.546875 114.6875 37.125 C118.36547324 45.18151282 118.40379209 57.32218305 116 65.8125 C113.59946155 71.76215989 109.3588056 79.03827125 103.74609375 82.31640625 C103.16988281 82.54199219 102.59367187 82.76757812 102 83 C102 83.66 102 84.32 102 85 C100.515 85.99 100.515 85.99 99 87 C98.52435514 90.07872101 98.52435514 90.07872101 98.5 93.625 C97.98470899 103.15302247 95.70641674 109.99179451 89 117 C86.125 118.5 86.125 118.5 84 119 C84 119.66 84 120.32 84 121 C79.36767968 122.80545404 75.17850566 123.35318759 70.25 123.3125 C69.54697754 123.30758545 68.84395508 123.3026709 68.11962891 123.29760742 C59.21117629 123.098256 52.46052374 121.30294999 46 115 C45.071875 114.1646875 45.071875 114.1646875 44.125 113.3125 C43 112 43 112 43 110 C42.34 110 41.68 110 41 110 C38.74437048 102.48729845 39.00335532 93.28230731 41.9140625 85.9921875 C45.49632657 79.42040809 51.13492536 75.61696559 58.00390625 72.921875 C64.2937246 71.16092827 71.06293815 71.38672772 77.54663086 71.36376953 C83.0800335 71.31309816 87.28429041 71.26709292 92 68 C96.51779101 61.07272045 95.55647327 52.60306044 94.59765625 44.671875 C94.3028573 41.8976386 94.3028573 41.8976386 92.1875 40.8125 C91.465625 40.544375 90.74375 40.27625 90 40 C89.319375 39.484375 88.63875 38.96875 87.9375 38.4375 C85.95818504 36.81311272 85.95818504 36.81311272 83 36 C83 35.34 83 34.68 83 34 C79.66674246 33.94125224 76.33362062 33.90615533 73 33.875 C72.06542969 33.85824219 71.13085938 33.84148437 70.16796875 33.82421875 C61.84816205 33.76603828 55.11943328 35.41797099 47.3125 38.375 C46.23613281 38.77460937 45.15976562 39.17421875 44.05078125 39.5859375 C39.24092736 41.81534481 36.17793268 44.17743478 34 49 C33.52949219 49.43828125 33.05898438 49.8765625 32.57421875 50.328125 C26.40440552 56.88068098 26.59477468 67.58683416 26.0625 76 C25.48365225 85.07255252 24.33403289 91.92925285 20 100 C19.66871094 100.845625 19.33742188 101.69125 18.99609375 102.5625 C18.04302879 104.89470603 16.98432064 106.7409453 15.5625 108.8125 C15.04300781 109.57433594 14.52351562 110.33617187 13.98828125 111.12109375 C13.00408203 112.54615234 13.00408203 112.54615234 12 114 C11.07651067 115.34483772 10.1533605 116.68990837 9.23046875 118.03515625 C6.87200533 121.47104302 4.50850997 124.90342203 2.14160156 128.33349609 C-3.65360923 136.79331407 -3.25486766 144.10048848 -2 154 C-1.74283203 155.26457031 -1.74283203 155.26457031 -1.48046875 156.5546875 C1.02753628 169.31900578 -2.98109051 181.68223851 -6 194 C-9.11526527 206.75621759 -10.66000382 218.88399447 -10.8581543 232.03320312 C-11 234 -11 234 -12 237 C-12.66 237 -13.32 237 -14 237 C-14 237.66 -14 238.32 -14 239 C-17.38583174 241.03149905 -20.10527698 241.29824602 -24.0234375 241.4140625 C-25.21066406 241.45273437 -26.39789063 241.49140625 -27.62109375 241.53125 C-28.85988281 241.5621875 -30.09867188 241.593125 -31.375 241.625 C-32.57511719 241.66367187 -33.77523437 241.70234375 -35.01171875 241.7421875 C-38.67435185 241.85234188 -42.33637024 241.93120399 -46 242 C-47.26231445 242.03061523 -48.52462891 242.06123047 -49.82519531 242.09277344 C-51.66355957 242.12032715 -51.66355957 242.12032715 -53.5390625 242.1484375 C-54.63686035 242.16825684 -55.7346582 242.18807617 -56.86572266 242.20849609 C-60.20671915 241.98624878 -62.88243344 241.18968263 -66 240 C-66 239.34 -66 238.68 -66 238 C-66.66 238 -67.32 238 -68 238 C-68.94907935 235.15276195 -69.12309442 233.36679569 -69.140625 230.4140625 C-69.39431271 215.76680016 -70.56109283 200.96047463 -76.6015625 187.40625 C-79.45278146 180.46138148 -79.15792375 173.14686958 -79.125 165.75 C-79.12886719 164.86570313 -79.13273437 163.98140625 -79.13671875 163.0703125 C-79.13542969 162.21695313 -79.13414062 161.36359375 -79.1328125 160.484375 C-79.13168457 159.71834961 -79.13055664 158.95232422 -79.12939453 158.16308594 C-78.9991309 155.98547129 -78.55790928 154.10313595 -78 152 C-77.33981369 144.3418388 -76.93693136 138.01297039 -81.7109375 131.71875 C-83 130 -83 130 -84.4375 126.5625 C-86.79229203 121.19357418 -90.17105637 116.58638493 -93.546875 111.8125 C-103.01600991 98.14570735 -106.14731033 84.28688598 -107.1784668 67.91674805 C-107.59926688 62.03966061 -108.73604478 57.43841416 -111 52 C-111 51.34 -111 50.68 -111 50 C-111.66 50 -112.32 50 -113 50 C-113.85248007 48.9693011 -114.65699587 47.89872088 -115.4375 46.8125 C-119.32443041 42.04349809 -124.37513193 40.17187966 -130 38 C-130 37.34 -130 36.68 -130 36 C-149.27195511 32.68377882 -149.27195511 32.68377882 -168 37 C-171.04473188 39.59432775 -173.21618981 42.43237962 -175 46 C-175.09800068 48.24825087 -175.12974764 50.49961924 -175.125 52.75 C-175.12757813 53.96171875 -175.13015625 55.1734375 -175.1328125 56.421875 C-175.01077361 59.70974633 -174.62341681 62.77406537 -174 66 C-172.515 66.495 -172.515 66.495 -171 67 C-169.97980427 67.9793879 -168.97850195 68.97895449 -168 70 C-165.71137661 71.1443117 -164.326843 71.1523996 -161.78125 71.2109375 C-148.5504556 71.61951331 -136.36400513 72.06348847 -126.2421875 81.66796875 C-120.84769223 87.57064111 -119.47952692 93.18864206 -119.609375 101.109375 C-120.41483316 107.06976539 -123.3325983 113.09589992 -128 117 C-128.66 117 -129.32 117 -130 117 C-130 117.66 -130 118.32 -130 119 C-138.45438519 123.65302772 -147.55741591 124.36743304 -157 123 C-160.75142027 121.81951576 -163.7825295 120.2418921 -167 118 C-168.423125 117.0409375 -168.423125 117.0409375 -169.875 116.0625 C-174.2616239 111.80489445 -177.065691 107.06214447 -178 101 C-178.00773437 99.99195313 -178.01546875 98.98390625 -178.0234375 97.9453125 C-177.94056242 91.37116611 -177.94056242 91.37116611 -180.8515625 85.734375 C-182.42178928 84.44248273 -184.02062693 83.18467462 -185.64453125 81.9609375 C-189.55450331 78.70586955 -191.7568059 74.50678087 -194 70 C-194.54011719 68.93394531 -195.08023438 67.86789063 -195.63671875 66.76953125 C-197.43431758 62.47442978 -197.49564898 58.35622978 -197.4375 53.75 C-197.42992676 52.91170654 -197.42235352 52.07341309 -197.41455078 51.2097168 C-197.11363349 39.84624512 -193.2559517 31.21524052 -185.19921875 23.2109375 C-182.18904839 20.49082638 -180.0521966 18.7697404 -176 18 C-176 17.34 -176 16.68 -176 16 C-174.12699975 15.34838988 -172.2514945 14.70397805 -170.375 14.0625 C-169.33085937 13.70285156 -168.28671875 13.34320313 -167.2109375 12.97265625 C-156.85556697 9.83581043 -141.9292673 9.03536635 -132 14 C-109.85142981 15.71314908 -89.63442651 7.91295141 -71.01171875 -3.75390625 C-50.19725282 -16.6467502 -20.44347551 -10.40591321 0 0 Z " fill="#026BB5" transform="translate(250,46)"/>
<path d="M0 0 C1.65 0 3.3 0 5 0 C5 0.66 5 1.32 5 2 C5.97517578 2.0424585 6.95035156 2.08491699 7.95507812 2.12866211 C17.6265547 2.60760807 26.9562587 3.87695214 36.5 5.5625 C58.76886311 9.27582705 78.88594405 8.40030733 101 4 C118.31902988 0.58851946 118.31902988 0.58851946 126 1 C124.50351676 5.45006858 121.52451567 6.6665118 117.5 8.75 C116.3346875 9.36359375 115.169375 9.9771875 113.96875 10.609375 C111 12 111 12 109 12 C109 12.66 109 13.32 109 14 C108.154375 14.53625 107.30875 15.0725 106.4375 15.625 C94.4480466 23.30618646 91.50442121 36.06375764 88 49 C85.17120436 59.35383404 82.06429701 69.16838794 77.140625 78.72265625 C75.10853586 82.77987532 73.25426299 86.92073067 71.3671875 91.046875 C70 94 70 94 68.83984375 95.84765625 C67.46422144 99.37308832 67.66071628 102.93854465 67.6875 106.6875 C67.69313965 107.49751465 67.6987793 108.3075293 67.70458984 109.14208984 C67.88908105 118.21138511 69.6772494 124.1505048 75.79296875 130.98046875 C77.50584368 133.84634688 77.4070769 135.71015402 77 139 C75.57421875 141.67578125 75.57421875 141.67578125 73.6875 144.3125 C67.24222214 153.35210354 66.32779364 162.71605701 65.3125 173.5625 C65.11817383 175.50479492 65.11817383 175.50479492 64.91992188 177.48632812 C64.60404821 180.65676379 64.29766185 183.82781155 64 187 C63.01 187 62.02 187 61 187 C60.9498877 186.45174561 60.89977539 185.90349121 60.84814453 185.33862305 C59.67458759 162.72476087 59.67458759 162.72476087 50 143 C50 142.34 50 141.68 50 141 C49.34 141 48.68 141 48 141 C47.63333333 133.66666667 47.63333333 133.66666667 49.375 130.5 C51 129 51 129 53 129 C53.20496094 128.38511719 53.40992188 127.77023438 53.62109375 127.13671875 C54.74739583 123.7578125 55.87369792 120.37890625 57 117 C58.16993192 105.50949141 57.23993838 96.31145017 52 86 C52 85.34 52 84.68 52 84 C51.34 84 50.68 84 50 84 C49.31640625 82.07942708 48.6328125 80.15885417 47.94921875 78.23828125 C47.03672528 75.92241422 47.03672528 75.92241422 45.54296875 73.67578125 C43.70644895 70.49093046 42.70076308 67.39108468 41.625 63.875 C41.41439941 63.18921875 41.20379883 62.5034375 40.98681641 61.796875 C39.07259519 55.46249139 37.39082363 49.06751658 35.78759766 42.64794922 C32.81102105 30.91554948 28.32613728 20.97057508 18 14 C14.79674649 12.17357559 11.53635 10.45950761 8.24243164 8.80273438 C1.8503013 5.56142456 1.8503013 5.56142456 0 3 C0 2.01 0 1.02 0 0 Z " fill="#FAFDFD" transform="translate(147,81)"/>
<path d="M0 0 C0 0.66 0 1.32 0 2 C0.86496094 2.27070312 1.72992188 2.54140625 2.62109375 2.8203125 C5.91324907 3.96971239 8.93084994 5.34678644 12.0625 6.875 C23.33074978 12.1002995 33.56625863 14.62717417 46 15 C46 15.33 46 15.66 46 16 C29.52474411 16.61462095 18.93081602 13.86487282 4.578125 5.90234375 C-0.39170235 3.19417743 -5.55368256 1.05188717 -10.9375 -0.6875 C-11.70964844 -0.93886719 -12.48179687 -1.19023438 -13.27734375 -1.44921875 C-13.84582031 -1.63097656 -14.41429687 -1.81273437 -15 -2 C-15 -2.66 -15 -3.32 -15 -4 C-16.32 -4 -17.64 -4 -19 -4 C-19 -4.66 -19 -5.32 -19 -6 C-31.57668519 -7.61535406 -48.91069728 -9.65164529 -61 -5 C-61.66 -4.01 -62.32 -3.02 -63 -2 C-65.3125 -1.05078125 -65.3125 -1.05078125 -68 -0.3125 C-69.3303125 0.06455078 -69.3303125 0.06455078 -70.6875 0.44921875 C-73 1 -73 1 -75 1 C-75.268125 1.61875 -75.53625 2.2375 -75.8125 2.875 C-77 5 -77 5 -80 7 C-82.015625 7.5625 -82.015625 7.5625 -84.25 8 C-88.23696984 8.82219018 -92.09926341 9.83807846 -96 11 C-96.33 10.34 -96.66 9.68 -97 9 C-95.81664062 8.49210937 -94.63328125 7.98421875 -93.4140625 7.4609375 C-85.66964877 4.1004634 -78.18055595 0.7372668 -71.01171875 -3.75390625 C-50.19725282 -16.6467502 -20.44347551 -10.40591321 0 0 Z " fill="#29679C" transform="translate(250,46)"/>
<path d="M0 0 C0.33 0 0.66 0 1 0 C1.06058594 0.65226562 1.12117188 1.30453125 1.18359375 1.9765625 C1.63519991 6.68716217 2.14195039 11.34201638 3 16 C3.99 16.33 4.98 16.66 6 17 C7.02019573 17.9793879 8.02149805 18.97895449 9 20 C11.28862339 21.1443117 12.673157 21.1523996 15.21875 21.2109375 C28.4495444 21.61951331 40.63599487 22.06348847 50.7578125 31.66796875 C56.15230777 37.57064111 57.52047308 43.18864206 57.390625 51.109375 C56.58516684 57.06976539 53.6674017 63.09589992 49 67 C48.34 67 47.68 67 47 67 C47 67.66 47 68.32 47 69 C38.54169444 73.65518537 29.44586652 74.36179862 20 73 C14.25962545 71.23319372 10.39322253 68.9937992 7 64 C9.31010989 64.86629121 11.52903227 65.70266616 13.62109375 67.0234375 C21.07571797 71.54430638 30.16675804 71.01280118 38.5 69.25 C45.67798306 66.68643462 48.693645 63.61271001 52 57 C52.61875 55.7934375 52.61875 55.7934375 53.25 54.5625 C53.4975 54.046875 53.745 53.53125 54 53 C54.66 53 55.32 53 56 53 C55.87625 51.741875 55.7525 50.48375 55.625 49.1875 C55.52058594 48.12595703 55.52058594 48.12595703 55.4140625 47.04296875 C55.07334609 44.70011858 55.07334609 44.70011858 53 42 C51.52455389 38.69500071 50.14465363 35.43396088 49 32 C46.90280128 30.97718482 46.90280128 30.97718482 44.4375 30.3125 C43.61121094 30.06113281 42.78492188 29.80976562 41.93359375 29.55078125 C41.29550781 29.36902344 40.65742187 29.18726562 40 29 C40 28.34 40 27.68 40 27 C38.02 27 36.04 27 34 27 C34 26.34 34 25.68 34 25 C33.00202393 24.970271 33.00202393 24.970271 31.98388672 24.93994141 C28.94721732 24.84423582 25.91119322 24.73474192 22.875 24.625 C21.82828125 24.5940625 20.7815625 24.563125 19.703125 24.53125 C14.45685228 24.33202445 9.90196491 24.06936882 5 22 C3.6078125 21.4740625 3.6078125 21.4740625 2.1875 20.9375 C-0.76405568 18.32326497 -0.78619428 16.39679404 -1.01953125 12.5625 C-0.98732677 8.33727248 -0.56776623 4.18400036 0 0 Z " fill="#23659F" transform="translate(73,96)"/>
<path d="M0 0 C0.51304687 0.74765625 1.02609375 1.4953125 1.5546875 2.265625 C4.38205222 5.42721495 7.36731731 6.967292 11.125 8.75 C20.73092742 13.59490082 30.63202123 20.58634837 34.78369141 30.95776367 C35.42928162 33.06340047 35.98032988 35.17237604 36.5 37.3125 C36.91516519 38.90239583 37.3305359 40.49223801 37.74609375 42.08203125 C37.95218262 42.89236816 38.15827148 43.70270508 38.37060547 44.53759766 C42.49064126 61.88363438 42.49064126 61.88363438 49.8125 78 C50.204375 78.66 50.59625 79.32 51 80 C50.67 80.66 50.34 81.32 50 82 C45.90649271 79.74151322 45.03299664 76.98833038 43.7109375 72.7421875 C43.13969468 70.79519666 43.13969468 70.79519666 41 70 C40.35580318 67.55027908 39.83063467 65.17256869 39.375 62.6875 C39.2409375 62.01009766 39.106875 61.33269531 38.96875 60.63476562 C38.33689469 57.33686777 38 54.37262326 38 51 C37.34 51 36.68 51 36 51 C35.91363281 50.27296875 35.82726562 49.5459375 35.73828125 48.796875 C34.42677427 39.41177919 31.28216148 31.40572439 27 23 C26.34 23 25.68 23 25 23 C23.84047268 21.84047268 22.68394715 20.67778416 21.54296875 19.5 C16.28867582 14.39202915 10.9528788 11.2348539 4 9 C4 8.34 4 7.68 4 7 C2.68 6.34 1.36 5.68 0 5 C0 3.35 0 1.7 0 0 Z " fill="#2167A0" transform="translate(146,81)"/>
<path d="M0 0 C0.33 0 0.66 0 1 0 C0.76603516 1.59521484 0.76603516 1.59521484 0.52734375 3.22265625 C-0.32338509 10.0180211 -0.35036332 16.8733974 -0.51757812 23.71289062 C-0.96604374 37.66609441 -0.96604374 37.66609441 -3 42 C-6.17114971 44.26549742 -9.20670221 44.30124404 -13.0234375 44.4140625 C-14.21066406 44.45273437 -15.39789063 44.49140625 -16.62109375 44.53125 C-17.85988281 44.5621875 -19.09867188 44.593125 -20.375 44.625 C-21.57511719 44.66367187 -22.77523437 44.70234375 -24.01171875 44.7421875 C-27.67435185 44.85234188 -31.33637024 44.93120399 -35 45 C-36.26231445 45.03061523 -37.52462891 45.06123047 -38.82519531 45.09277344 C-40.66355957 45.12032715 -40.66355957 45.12032715 -42.5390625 45.1484375 C-43.63686035 45.16825684 -44.7346582 45.18807617 -45.86572266 45.20849609 C-49.20671915 44.98624878 -51.88243344 44.18968263 -55 43 C-55 42.34 -55 41.68 -55 41 C-55.66 41 -56.32 41 -57 41 C-57.98183333 38.05450002 -58.17942063 35.93081754 -58.28125 32.8515625 C-58.31863281 31.84609375 -58.35601562 30.840625 -58.39453125 29.8046875 C-58.42933594 28.75539063 -58.46414062 27.70609375 -58.5 26.625 C-58.56918551 24.55455945 -58.64197887 22.48423565 -58.71875 20.4140625 C-58.74904297 19.4957666 -58.77933594 18.5774707 -58.81054688 17.63134766 C-58.99906224 15.01302475 -59.45868399 12.56536716 -60 10 C-60.06371368 8.39696373 -60.08644214 6.79162328 -60.0625 5.1875 C-60.05347656 4.39730469 -60.04445312 3.60710937 -60.03515625 2.79296875 C-60.02355469 2.20128906 -60.01195312 1.60960937 -60 1 C-55.07666086 9.73429203 -55.68337477 21.51102961 -55.51733398 31.28320312 C-55.49227783 32.11013672 -55.46722168 32.93707031 -55.44140625 33.7890625 C-55.42795166 34.52850098 -55.41449707 35.26793945 -55.40063477 36.02978516 C-54.86832749 38.64753028 -54.18514984 39.46314689 -52 41 C-47.36388778 42.16967876 -42.69014239 42.16060614 -37.93359375 42.16796875 C-37.17708023 42.17129715 -36.42056671 42.17462555 -35.64112854 42.17805481 C-34.0502279 42.18309304 -32.45931681 42.1854641 -30.8684082 42.18530273 C-28.44139248 42.18749648 -26.01482655 42.20570456 -23.58789062 42.22460938 C-22.03645988 42.22754255 -20.48502699 42.22952785 -18.93359375 42.23046875 C-18.21264023 42.23765427 -17.49168671 42.24483978 -16.74888611 42.25224304 C-12.73825586 42.23412331 -9.54125606 41.95112205 -6 40 C-3.63585478 36.45378218 -3.65109082 34.60904375 -3.4375 30.390625 C-3.36273438 29.07835937 -3.28796875 27.76609375 -3.2109375 26.4140625 C-3.13967561 25.02609009 -3.06937099 23.63806821 -3 22.25 C-2.86346781 19.5461522 -2.71590069 16.84365102 -2.5625 14.140625 C-2.47162109 12.33899902 -2.47162109 12.33899902 -2.37890625 10.50097656 C-1.97390328 6.75887442 -1.13096489 3.579481 0 0 Z " fill="#1A6099" transform="translate(239,243)"/>
<path d="M0 0 C0.33 0 0.66 0 1 0 C1.33 2.31 1.66 4.62 2 7 C2.66 6.01 3.32 5.02 4 4 C7.18552605 21.37818231 5.14857901 35.07295834 1 52 C-1.72211797 63.14637954 -3.47163922 73.72948498 -3.67285156 85.23657227 C-3.69057617 86.07631592 -3.70830078 86.91605957 -3.7265625 87.78125 C-3.73252441 88.52439453 -3.73848633 89.26753906 -3.74462891 90.03320312 C-4 92 -4 92 -6 95 C-5.76168224 45.76168224 -5.76168224 45.76168224 1 39 C3.45242238 28.81439173 3.37799272 20.94769138 0.66796875 10.921875 C-0.19567342 7.14407181 -0.22240874 3.85508484 0 0 Z " fill="#266BA5" transform="translate(243,188)"/>
<path d="M0 0 C29.12121212 -0.93939394 29.12121212 -0.93939394 39 4 C46.59811277 5.10460622 54.14346885 5.21720885 61.8125 5.25 C63.00681641 5.270625 64.20113281 5.29125 65.43164062 5.3125 C72.48924125 5.34323533 78.60770317 4.5788787 85.39916992 2.67236328 C88.57004855 1.85263177 91.48343597 1.695837 94.75 1.8125 C95.75546875 1.83957031 96.7609375 1.86664063 97.796875 1.89453125 C98.88742188 1.94673828 98.88742188 1.94673828 100 2 C78.31058651 13.90363848 46.83382275 8.29369896 23.71875 4.2890625 C15.84090549 2.92527672 7.93854146 1.92738744 0 1 C0 0.67 0 0.34 0 0 Z " fill="#2D6DA2" transform="translate(152,82)"/>
<path d="M0 0 C-1.72601379 0.81917642 -3.4559647 1.63006016 -5.1875 2.4375 C-6.15042969 2.88996094 -7.11335938 3.34242187 -8.10546875 3.80859375 C-16.31390302 7.18723404 -26.31766958 7.04852901 -34.875 5 C-39.44448629 3.92257932 -43.82874809 3.8083579 -48.5 3.8125 C-49.20753418 3.81185547 -49.91506836 3.81121094 -50.64404297 3.81054688 C-54.4488774 3.80032509 -54.4488774 3.80032509 -58 5 C-59.9972542 5.12199138 -61.99905981 5.17547512 -64 5.1875 C-65.0725 5.20167969 -66.145 5.21585938 -67.25 5.23046875 C-70 5 -70 5 -72 3 C-60.38419101 -0.46002821 -45.39013872 -2.69506936 -34 3 C-23.57575174 3.68227376 -14.558015 3.19181766 -4.625 -0.22265625 C-2 -1 -2 -1 0 0 Z " fill="#286BA1" transform="translate(152,57)"/>
<path d="M0 0 C0.33 0 0.66 0 1 0 C1.08164159 2.6881249 1.14079668 5.373723 1.1875 8.0625 C1.21263672 8.81466797 1.23777344 9.56683594 1.26367188 10.34179688 C1.35706129 17.53278198 -0.96179585 22.81888765 -5 28.75 C-5.495 29.48734375 -5.99 30.2246875 -6.5 30.984375 C-7.89415121 32.85776569 -9.22866733 34.47896434 -11 36 C-11.66 36 -12.32 36 -13 36 C-13 36.66 -13 37.32 -13 38 C-13.99 38.66 -14.98 39.32 -16 40 C-16.47564486 43.07872101 -16.47564486 43.07872101 -16.5 46.625 C-16.94715168 55.19979105 -18.96631752 61.05698968 -24 68 C-24.66 67.34 -25.32 66.68 -26 66 C-25.34 65.01 -24.68 64.02 -24 63 C-23.34 63 -22.68 63 -22 63 C-21.7834375 61.0509375 -21.7834375 61.0509375 -21.5625 59.0625 C-21.125 55.125 -21.125 55.125 -20 54 C-19.86437715 50.87690725 -19.75204253 47.76085197 -19.74609375 44.63476562 C-19.60477161 40.83022496 -19.27690016 39.28359935 -16.578125 36.51953125 C-14 35 -14 35 -12 35 C-11.7525 34.443125 -11.505 33.88625 -11.25 33.3125 C-10 31 -10 31 -8.08984375 28.73046875 C-1.68780845 20.36594039 -0.18485844 10.26804624 0 0 Z " fill="#1D639C" transform="translate(365,93)"/>
<path d="M0 0 C1.32 0.33 2.64 0.66 4 1 C3.21625 1.5775 2.4325 2.155 1.625 2.75 C-0.88032062 4.89741768 -1.68885883 6.09675884 -3 9 C-3.47050781 9.43828125 -3.94101562 9.8765625 -4.42578125 10.328125 C-11.17313808 17.49405235 -10.72014312 30.02780622 -11.14086914 39.1940918 C-11.53837374 46.14505061 -13.01399368 51.70681807 -16 58 C-18 55 -18 55 -17.59399414 52.94360352 C-17.30645264 52.15912842 -17.01891113 51.37465332 -16.72265625 50.56640625 C-14.80383962 44.74018122 -14.08674139 39.01885578 -13.4375 32.9375 C-11.16393703 12.29354826 -11.16393703 12.29354826 -6 6 C-5.34 6 -4.68 6 -4 6 C-3.34 4.68 -2.68 3.36 -2 2 C-1.34 2 -0.68 2 0 2 C0 1.34 0 0.68 0 0 Z " fill="#175E9B" transform="translate(287,86)"/>
<path d="M0 0 C1.03576172 0.00128906 2.07152344 0.00257812 3.13867188 0.00390625 C10.76464844 0.09309896 10.76464844 0.09309896 14.1875 2.375 C15.55177319 2.69552201 16.92935314 2.96193304 18.3125 3.1875 C24.80706956 4.52461726 30.65506112 7.4862373 35.1875 12.375 C34.8575 13.365 34.5275 14.355 34.1875 15.375 C33.2284375 14.50875 33.2284375 14.50875 32.25 13.625 C28.4672269 10.84581977 24.51231492 9.14638389 20.1875 7.375 C20.1875 6.715 20.1875 6.055 20.1875 5.375 C6.06712377 3.00396231 -5.92833228 2.55742197 -19.8125 6.375 C-19.8125 5.715 -19.8125 5.055 -19.8125 4.375 C-13.06448788 0.28578547 -7.80209594 -0.18800231 0 0 Z " fill="#125C9D" transform="translate(99.8125,76.625)"/>
<path d="M0 0 C-0.99 0 -1.98 0 -3 0 C-3.185625 1.1446875 -3.185625 1.1446875 -3.375 2.3125 C-5.69918362 6.15634215 -8.48246348 6.41326437 -12.6875 7.51953125 C-15 8 -15 8 -17 8 C-17.268125 8.61875 -17.53625 9.2375 -17.8125 9.875 C-19 12 -19 12 -22 14 C-24.015625 14.5625 -24.015625 14.5625 -26.25 15 C-30.23696984 15.82219018 -34.09926341 16.83807846 -38 18 C-38.33 17.34 -38.66 16.68 -39 16 C-37.81664062 15.49210937 -36.63328125 14.98421875 -35.4140625 14.4609375 C-27.68170423 11.10569453 -20.19052895 7.76040636 -13.04296875 3.2578125 C-4.52075636 -1.9891328 -4.52075636 -1.9891328 0 0 Z " fill="#256CA5" transform="translate(192,39)"/>
<path d="M0 0 C0.66 0 1.32 0 2 0 C0.63943739 6.39464425 -2.25386602 10.70830976 -6 16 C-7.42223202 18.06168517 -8.83822762 20.12758103 -10.25415039 22.19360352 C-12.11714933 24.91041362 -13.98744986 27.62215661 -15.85839844 30.33349609 C-18.50269058 34.19361973 -19.62793983 37.11008741 -20.625 41.6875 C-20.88539063 42.86699219 -21.14578125 44.04648438 -21.4140625 45.26171875 C-21.60742188 46.16535156 -21.80078125 47.06898438 -22 48 C-22.33 48 -22.66 48 -23 48 C-23.05441656 46.10448978 -23.09298035 44.2085208 -23.125 42.3125 C-23.14820313 41.25675781 -23.17140625 40.20101562 -23.1953125 39.11328125 C-22.99858729 35.97748141 -22.33057654 33.82354627 -21 31 C-20.34 31 -19.68 31 -19 31 C-19 30.01 -19 29.02 -19 28 C-18.34 28 -17.68 28 -17 28 C-16.773125 27.113125 -16.54625 26.22625 -16.3125 25.3125 C-14.80434332 21.5061998 -12.90822565 19.83898218 -10 17 C-8.51880975 14.72344392 -7.2729954 12.40454687 -6 10 C-5.34 10 -4.68 10 -4 10 C-3.896875 9.46375 -3.79375 8.9275 -3.6875 8.375 C-2.81907303 5.37497956 -1.44379704 2.7620465 0 0 Z " fill="#1D639D" transform="translate(268,144)"/>
<path d="M0 0 C6.09538518 0.07708359 10.34009016 1.23235217 15.66430664 4.33007812 C12.26662114 5.46263996 10.12672936 5.05614965 6.66430664 4.33007812 C-5.33531741 3.78636492 -14.74758985 5.22542581 -26.01538086 9.52539062 C-28.33569336 10.33007812 -28.33569336 10.33007812 -30.33569336 10.33007812 C-29.33569336 7.33007812 -29.33569336 7.33007812 -27.58569336 6.45458984 C-26.84319336 6.22529785 -26.10069336 5.99600586 -25.33569336 5.75976562 C-24.53131836 5.50324219 -23.72694336 5.24671875 -22.89819336 4.98242188 C-22.05256836 4.72589844 -21.20694336 4.469375 -20.33569336 4.20507812 C-18.66828361 3.68401258 -17.00157591 3.16069329 -15.33569336 2.63476562 C-14.59319336 2.40772949 -13.85069336 2.18069336 -13.08569336 1.94677734 C-8.63012095 0.37663561 -4.97278112 0.03742451 0 0 Z " fill="#0E5C9F" transform="translate(321.335693359375,75.669921875)"/>
<path d="M0 0 C8.36667081 -0.40053211 16.05107907 0.17774469 24 3 C24.66 3.66 25.32 4.32 26 5 C27.96488831 5.88778692 27.96488831 5.88778692 30.125 6.625 C30.84945313 6.88539062 31.57390625 7.14578125 32.3203125 7.4140625 C33.15175781 7.70410156 33.15175781 7.70410156 34 8 C34 8.66 34 9.32 34 10 C34.804375 10.268125 35.60875 10.53625 36.4375 10.8125 C37.283125 11.204375 38.12875 11.59625 39 12 C39.495 13.485 39.495 13.485 40 15 C40.99 15.33 41.98 15.66 43 16 C44.71054387 18.21593183 45.75321724 20.46190652 47 23 C46.67 23.66 46.34 24.32 46 25 C45.34 25 44.68 25 44 25 C44 23.68 44 22.36 44 21 C41.60201094 18.1909271 39.35597361 16.21358416 36.1875 14.3125 C35.465625 13.879375 34.74375 13.44625 34 13 C34 12.34 34 11.68 34 11 C24.77477769 6.32477421 16.32216554 4.13038124 6 3 C6 2.67 6 2.34 6 2 C3.03 1.505 3.03 1.505 0 1 C0 0.67 0 0.34 0 0 Z " fill="#1A609B" transform="translate(316,57)"/>
<path d="M0 0 C1 2 1 2 0.22265625 4.8203125 C-0.16019531 5.91085938 -0.54304687 7.00140625 -0.9375 8.125 C-1.31777344 9.22070312 -1.69804687 10.31640625 -2.08984375 11.4453125 C-2.54037109 12.70988281 -2.54037109 12.70988281 -3 14 C-3.66 14 -4.32 14 -5 14 C-5.92090592 30.03834845 -5.92090592 30.03834845 -1 45 C-0.67 45.99 -0.34 46.98 0 48 C0.66 48 1.32 48 2 48 C1.67 48.99 1.34 49.98 1 51 C-7.06520892 42.88258908 -8.5297991 35.03473447 -8.57128906 23.88891602 C-8.32624892 16.23141143 -5.84010145 10.62566727 -2 4 C-1.32451812 2.67111082 -0.6539386 1.33962179 0 0 Z " fill="#3470A4" transform="translate(222,162)"/>
<path d="M0 0 C0.33 1.32 0.66 2.64 1 4 C0.34 4 -0.32 4 -1 4 C-3.356152 19.58846995 -5.15280652 32.41430112 4 46 C4.33 46.66 4.66 47.32 5 48 C4.34 48.66 3.68 49.32 3 50 C2.05668855 48.48276443 1.12066889 46.9609947 0.1875 45.4375 C-0.33457031 44.59058594 -0.85664062 43.74367187 -1.39453125 42.87109375 C-5.07692251 36.28579551 -6.52856581 31.19649618 -6.4375 23.75 C-6.43282715 22.91533203 -6.4281543 22.08066406 -6.42333984 21.22070312 C-6.2331223 13.24703125 -4.44664637 6.66996955 0 0 Z " fill="#175F9B" transform="translate(59,76)"/>
<path d="M0 0 C0.33 0 0.66 0 1 0 C1.06058594 0.65226562 1.12117188 1.30453125 1.18359375 1.9765625 C1.63519991 6.68716217 2.14195039 11.34201638 3 16 C3.99 16.33 4.98 16.66 6 17 C7.02019573 17.9793879 8.02149805 18.97895449 9 20 C11.34938888 21.17469444 12.95073205 21.20034889 15.5703125 21.31640625 C16.46621094 21.35830078 17.36210938 21.40019531 18.28515625 21.44335938 C19.22230469 21.48267578 20.15945312 21.52199219 21.125 21.5625 C22.06988281 21.60568359 23.01476562 21.64886719 23.98828125 21.69335938 C26.32537092 21.79959072 28.6625683 21.90163176 31 22 C31.495 22.99 31.495 22.99 32 24 C28.62507371 24.05845196 25.25027913 24.09374742 21.875 24.125 C20.44800781 24.15013672 20.44800781 24.15013672 18.9921875 24.17578125 C13.90371727 24.21111785 9.76240305 24.01973588 5 22 C3.6078125 21.4740625 3.6078125 21.4740625 2.1875 20.9375 C-0.76405568 18.32326497 -0.78619428 16.39679404 -1.01953125 12.5625 C-0.98732677 8.33727248 -0.56776623 4.18400036 0 0 Z " fill="#2A6EA6" transform="translate(73,96)"/>
<path d="M0 0 C0.33 0 0.66 0 1 0 C0.76603516 1.59521484 0.76603516 1.59521484 0.52734375 3.22265625 C-0.32338509 10.0180211 -0.35036332 16.8733974 -0.51757812 23.71289062 C-0.96604374 37.66609441 -0.96604374 37.66609441 -3 42 C-6.46356667 44.63474161 -10.1864244 44.22867917 -14.390625 44.1953125 C-15.09523865 44.1924826 -15.79985229 44.18965271 -16.52581787 44.18673706 C-18.7673876 44.17557801 -21.00855186 44.15048193 -23.25 44.125 C-24.77343171 44.11496464 -26.29686971 44.10583976 -27.8203125 44.09765625 C-31.54700586 44.07565291 -35.27346333 44.04115272 -39 44 C-39 43.67 -39 43.34 -39 43 C-37.76697144 42.970271 -37.76697144 42.970271 -36.5090332 42.93994141 C-32.77653874 42.84455397 -29.0445933 42.73492911 -25.3125 42.625 C-24.01892578 42.5940625 -22.72535156 42.563125 -21.39257812 42.53125 C-20.14541016 42.49257813 -18.89824219 42.45390625 -17.61328125 42.4140625 C-16.46641846 42.3826416 -15.31955566 42.3512207 -14.13793945 42.31884766 C-11.00014229 42.00001446 -8.7856164 41.46307129 -6 40 C-3.63585478 36.45378218 -3.65109082 34.60904375 -3.4375 30.390625 C-3.36273438 29.07835937 -3.28796875 27.76609375 -3.2109375 26.4140625 C-3.13967561 25.02609009 -3.06937099 23.63806821 -3 22.25 C-2.86346781 19.5461522 -2.71590069 16.84365102 -2.5625 14.140625 C-2.47162109 12.33899902 -2.47162109 12.33899902 -2.37890625 10.50097656 C-1.97390328 6.75887442 -1.13096489 3.579481 0 0 Z " fill="#0E5894" transform="translate(239,243)"/>
<path d="M0 0 C0.49628906 0.39832031 0.99257813 0.79664063 1.50390625 1.20703125 C11.69489046 9.15483867 19.29328465 9.64299154 31.69140625 8.2890625 C34.47667564 7.94031473 37.23948436 7.50851604 40 7 C39.34 7.33 38.68 7.66 38 8 C38 8.66 38 9.32 38 10 C33.36767968 11.80545404 29.17850566 12.35318759 24.25 12.3125 C23.54697754 12.30758545 22.84395508 12.3026709 22.11962891 12.29760742 C13.34441693 12.10123763 6.25669844 10.41712661 0 4 C-0.33 3.01 -0.66 2.02 -1 1 C-0.67 0.67 -0.34 0.34 0 0 Z " fill="#1A5E92" transform="translate(296,157)"/>
<path d="M0 0 C0.33 0 0.66 0 1 0 C1.95038135 5.81350292 2.87858352 11.61139094 3.47265625 17.47265625 C3.55080566 18.22426025 3.62895508 18.97586426 3.70947266 19.75024414 C3.85881482 21.22367891 3.99819639 22.6981653 4.12646484 24.17358398 C4.57621756 28.55018224 5.621318 31.33998377 8 35 C7.6875 37.8125 7.6875 37.8125 7 40 C1.29365625 35.53274803 0.47524822 25.30859826 -0.51171875 18.4375 C-1.08490527 12.12500429 -0.95525876 6.26225186 0 0 Z " fill="#1B65A5" transform="translate(144,106)"/>
<path d="M0 0 C1.00546875 0.02707031 2.0109375 0.05414063 3.046875 0.08203125 C3.77390625 0.11683594 4.5009375 0.15164062 5.25 0.1875 C-6.38739373 6.57436371 -23.17834624 6.56053063 -36.125 6.5625 C-37.67525879 6.56467529 -37.67525879 6.56467529 -39.25683594 6.56689453 C-46.47914747 6.45835253 -46.47914747 6.45835253 -48.75 4.1875 C-47.90405273 4.17291748 -47.05810547 4.15833496 -46.18652344 4.14331055 C-42.98793341 4.08153052 -39.78992226 4.00725416 -36.59179688 3.92504883 C-35.21885756 3.89219956 -33.84579613 3.86404933 -32.47265625 3.84106445 C-24.39156459 3.70224453 -17.08347883 3.03071214 -9.29589844 0.84448242 C-6.14697613 0.03188653 -3.24309127 -0.11582469 0 0 Z " fill="#1B5B98" transform="translate(246.75,83.8125)"/>
<path d="M0 0 C3.16115776 1.36983503 3.9927092 1.9890638 6 5 C6.86496094 5.42023438 7.72992188 5.84046875 8.62109375 6.2734375 C9.40613281 6.84320313 10.19117187 7.41296875 11 8 C11.34765625 11.0390625 11.34765625 11.0390625 11.0625 14.625 C10.83772536 20.35083828 11.30045261 24.10907757 14.02734375 29.1328125 C15.03848475 31.07387835 15.54939197 32.86554092 16 35 C15.34 35 14.68 35 14 35 C10.04969053 29.93866599 8.06210487 25.27499666 7.94140625 18.91015625 C7.97929 12.32413895 7.97929 12.32413895 5.16015625 6.60546875 C3.17902611 4.89591708 1.21598864 3.38814778 -1 2 C-0.67 1.34 -0.34 0.68 0 0 Z " fill="#1F649D" transform="translate(64,125)"/>
<path d="M0 0 C0.86206055 -0.00128906 1.72412109 -0.00257812 2.61230469 -0.00390625 C10.96066257 0.13128983 18.56693255 1.8931465 26.5 4.375 C26.17 5.035 25.84 5.695 25.5 6.375 C24.18 6.375 22.86 6.375 21.5 6.375 C21.5 5.715 21.5 5.055 21.5 4.375 C7.73620317 2.60717288 -6.73620317 2.60717288 -20.5 4.375 C-14.28328199 0.23052133 -7.26524205 -0.01137416 0 0 Z " fill="#1A5D96" transform="translate(209.5,35.625)"/>
<path d="M0 0 C2.37473224 3.56209836 2.24056249 5.15894399 2.1875 9.375 C2.18105469 10.49648437 2.17460937 11.61796875 2.16796875 12.7734375 C2.01927314 15.62977637 1.65049095 18.22110266 1 21 C0.67 21 0.34 21 0 21 C0 25.29 0 29.58 0 34 C0.33 34 0.66 34 1 34 C1 38.62 1 43.24 1 48 C-3.12395652 43.87604348 -2.12834341 35.96078827 -2.13671875 30.3828125 C-2.13285156 29.51398438 -2.12898437 28.64515625 -2.125 27.75 C-2.12886719 26.86570313 -2.13273438 25.98140625 -2.13671875 25.0703125 C-2.13542969 24.21695313 -2.13414062 23.36359375 -2.1328125 22.484375 C-2.13168457 21.71834961 -2.13055664 20.95232422 -2.12939453 20.16308594 C-1.99907761 17.98458049 -1.55614682 16.10459762 -1 14 C-0.77882441 11.5861824 -0.59427758 9.16885403 -0.4375 6.75 C-0.35371094 5.48671875 -0.26992187 4.2234375 -0.18359375 2.921875 C-0.12300781 1.95765625 -0.06242188 0.9934375 0 0 Z " fill="#3E7BAE" transform="translate(173,184)"/>
<path d="M0 0 C0.33 0 0.66 0 1 0 C1.31453125 1.18335938 1.6290625 2.36671875 1.953125 3.5859375 C5.60781456 17.79129465 5.60781456 17.79129465 11.8125 31 C12.204375 31.66 12.59625 32.32 13 33 C12.67 33.66 12.34 34.32 12 35 C7.90649271 32.74151322 7.03299664 29.98833038 5.7109375 25.7421875 C5.13969468 23.79519666 5.13969468 23.79519666 3 23 C2.34882421 20.63127339 1.82484926 18.34541515 1.375 15.9375 C1.24311279 15.2580835 1.11122559 14.57866699 0.9753418 13.87866211 C0.10116181 9.15063109 -0.29307021 4.7868135 0 0 Z " fill="#286BA4" transform="translate(184,128)"/>
<path d="M0 0 C1.65 0 3.3 0 5 0 C5 0.66 5 1.32 5 2 C6.09699219 2.06058594 7.19398438 2.12117188 8.32421875 2.18359375 C9.77865654 2.26804498 11.23308305 2.35269066 12.6875 2.4375 C13.40873047 2.47681641 14.12996094 2.51613281 14.87304688 2.55664062 C18.66707282 2.78185678 22.28651492 3.12839305 26 4 C26 4.33 26 4.66 26 5 C21.05 5 16.1 5 11 5 C11.33 6.65 11.66 8.3 12 10 C7.88302072 8.54694849 4.45987796 6.67354206 1 4 C0.125 1.75 0.125 1.75 0 0 Z " fill="#D8EBF6" transform="translate(147,81)"/>
<path d="M0 0 C2.31010989 0.86629121 4.52903227 1.70266616 6.62109375 3.0234375 C15.0667676 8.14533003 25.61510478 6.50158324 35 5 C35 5.66 35 6.32 35 7 C27.72504443 10.55886824 17.46719005 10.35582189 9.76953125 8.01953125 C5.43175529 5.9371425 2.72445731 4.00957868 0 0 Z " fill="#1E5F94" transform="translate(80,160)"/>
<path d="M0 0 C3.41584095 1.37919938 4.63921957 2.58512986 6.125 5.9375 C7.29198825 8.51741203 8.41087273 10.61630909 10 13 C10 13.99 10 14.98 10 16 C11.32 16.66 12.64 17.32 14 18 C14 18.99 14 19.98 14 21 C14.66 21 15.32 21 16 21 C16.33 22.32 16.66 23.64 17 25 C18.32 25.33 19.64 25.66 21 26 C21 27.32 21 28.64 21 30 C16.7805092 28.4665056 15.13266888 25.71505244 12.6875 22.0625 C12.10645508 21.19830444 12.10645508 21.19830444 11.51367188 20.31665039 C10.33220245 18.5509938 9.16523513 16.77640021 8 15 C7.30519531 13.95585937 6.61039063 12.91171875 5.89453125 11.8359375 C0.72577915 3.92827965 0.72577915 3.92827965 0 0 Z " fill="#1D6097" transform="translate(151,147)"/>
<path d="M0 0 C1 2 2 4 3 6 C2.34 6 1.68 6 1 6 C0.34 10.29 -0.32 14.58 -1 19 C-0.34 19 0.32 19 1 19 C1 25.93 1 32.86 1 40 C0.67 40 0.34 40 0 40 C-0.60307377 34.7831191 -1.18477556 29.56462634 -1.74316406 24.34277344 C-1.96686237 22.3022706 -2.21204024 20.26414512 -2.4609375 18.2265625 C-3.18953165 11.41015942 -2.87209832 6.2796726 0 0 Z " fill="#BEDCF3" transform="translate(249,178)"/>
<path d="M0 0 C0.66 0 1.32 0 2 0 C1.68798326 2.04174058 1.37536431 4.08338913 1.0625 6.125 C0.88847656 7.26195312 0.71445313 8.39890625 0.53515625 9.5703125 C0.2122245 11.63990433 -0.13778158 13.70588099 -0.5390625 15.76171875 C-1.33131851 21.3276529 -1.36128693 26.94940592 -1.51757812 32.56445312 C-1.55173828 33.47517578 -1.58589844 34.38589844 -1.62109375 35.32421875 C-1.6461499 36.15010498 -1.67120605 36.97599121 -1.69702148 37.8269043 C-2 40 -2 40 -4 43 C-3.93032522 38.64359381 -3.84199355 34.2880518 -3.73754883 29.93237305 C-3.70462428 28.4555867 -3.67649527 26.97868431 -3.65356445 25.50170898 C-3.51239951 16.64435954 -2.93798532 8.45763022 0 0 Z " fill="#4780AF" transform="translate(241,240)"/>
<path d="M0 0 C2.47045803 3.81615468 2.43831912 7.84744248 2.625 12.25 C2.66367188 12.99507812 2.70234375 13.74015625 2.7421875 14.5078125 C2.83605108 16.3381524 2.91909718 18.16904143 3 20 C3.66 20 4.32 20 5 20 C5 23.96 5 27.92 5 32 C4.01 32 3.02 32 2 32 C1.41045963 26.16037526 0.82683596 20.32019226 0.24804688 14.47949219 C0.04052147 12.40505522 -0.17418184 10.33133798 -0.390625 8.2578125 C-0.48859375 7.28585938 -0.5865625 6.31390625 -0.6875 5.3125 C-0.77386719 4.48363281 -0.86023438 3.65476563 -0.94921875 2.80078125 C-0.96597656 2.20652344 -0.98273438 1.61226562 -1 1 C-0.67 0.67 -0.34 0.34 0 0 Z " fill="#C7E6F8" transform="translate(206,236)"/>
<path d="M0 0 C0.33 0 0.66 0 1 0 C1.98970409 8.41248481 2.00107527 15.74763174 0 24 C-3.875 23.125 -3.875 23.125 -5 22 C-5.07319621 19.30345146 -5.09242537 16.63308542 -5.0625 13.9375 C-5.05798828 13.17888672 -5.05347656 12.42027344 -5.04882812 11.63867188 C-5.0370068 9.75908129 -5.01907078 7.87953101 -5 6 C-4.67 6 -4.34 6 -4 6 C-4 10.62 -4 15.24 -4 20 C-3.01 20 -2.02 20 -1 20 C-1.01160156 19.2265625 -1.02320313 18.453125 -1.03515625 17.65625 C-1.08709845 11.66063636 -0.91184156 5.92697017 0 0 Z " fill="#3478B1" transform="translate(212,248)"/>
<path d="M0 0 C1.66682531 0.1440088 3.33345185 0.29031844 5 0.4375 C6.3921875 0.55931641 6.3921875 0.55931641 7.8125 0.68359375 C10.11927543 0.91257513 12.42131088 1.19110062 14.71875 1.5 C19.63233455 2.12648203 24.55417261 2.34324457 29.5 2.5625 C30.4178125 2.60568359 31.335625 2.64886719 32.28125 2.69335938 C34.52072061 2.79833456 36.76028092 2.90049248 39 3 C39 3.33 39 3.66 39 4 C32.25846717 5.25841946 25.86515862 6.26404456 19 6 C18.67 5.34 18.34 4.68 18 4 C15.15223946 3.5763662 12.36352229 3.24980647 9.5 3 C6.63647771 2.75019353 3.84776054 2.4236338 1 2 C0.67 1.34 0.34 0.68 0 0 Z " fill="#D4EDF7" transform="translate(181,87)"/>
<path d="M0 0 C0.33 0 0.66 0 1 0 C1.3133886 5.97759735 1.49675556 9.94913086 -2 15 C-2.79254494 17.35324883 -3.49088171 19.71721756 -4.15625 22.109375 C-4.4346875 22.73328125 -4.713125 23.3571875 -5 24 C-5.99 24.33 -6.98 24.66 -8 25 C-8.57891101 20.5134397 -7.01918845 17.50403124 -5.15625 13.55859375 C-3.1616245 9.14481098 -1.60483873 4.56696128 0 0 Z " fill="#3173A9" transform="translate(233,135)"/>
<path d="M0 0 C0.66 0 1.32 0 2 0 C1.49396008 2.16874252 1.00016187 3.99967627 0 6 C-0.66 6 -1.32 6 -2 6 C-1.96519531 6.845625 -1.93039062 7.69125 -1.89453125 8.5625 C-1.73041555 15.43972951 -1.79983609 20.83672135 -5 27 C-5.99 27.33 -6.98 27.66 -8 28 C-7.79503906 27.44054687 -7.59007812 26.88109375 -7.37890625 26.3046875 C-5.18523292 19.77614774 -4.61606879 13.7855524 -4.50390625 6.90625 C-4.33761719 5.9471875 -4.17132813 4.988125 -4 4 C-1.96484375 2.59375 -1.96484375 2.59375 0 2 C0 1.34 0 0.68 0 0 Z " fill="#BADAED" transform="translate(352,129)"/>
<path d="M0 0 C0.69416016 -0.00386719 1.38832031 -0.00773437 2.10351562 -0.01171875 C5.84083371 -0.00462033 9.30460894 0.23271097 12.9375 1.125 C12.9375 1.455 12.9375 1.785 12.9375 2.125 C8.73319584 2.74785988 4.74947403 3.17183467 0.5 3.0625 C-7.06814547 2.95557173 -14.57265057 4.15184091 -22.0625 5.125 C-15.12406075 0.49937383 -8.18465225 -0.04585239 0 0 Z " fill="#B6D7EE" transform="translate(320.0625,78.875)"/>
<path d="M0 0 C0.50789062 0.7425 1.01578125 1.485 1.5390625 2.25 C4.50260768 5.56164414 7.42638511 7.08787547 11.375 9 C16.51623453 11.51940975 20.7136882 14.17814923 25 18 C24.67 18.99 24.34 19.98 24 21 C23.39414063 20.46890625 22.78828125 19.9378125 22.1640625 19.390625 C16.42562276 14.55267888 11.1461788 11.31110463 4 9 C4 8.34 4 7.68 4 7 C2.68 6.34 1.36 5.68 0 5 C0 3.35 0 1.7 0 0 Z " fill="#1F5E98" transform="translate(146,81)"/>
<path d="M0 0 C3.19159375 1.5921618 5.68139757 3.26876494 8 6 C9.02333584 10.3380541 8.97791277 14.5604667 9 19 C9.1974109 20.40067733 9.41907302 21.79868215 9.6875 23.1875 C9.8421875 24.5796875 9.8421875 24.5796875 10 26 C9.34 26.66 8.68 27.32 8 28 C7.77213542 25.94921875 7.54427083 23.8984375 7.31640625 21.84765625 C7.18113386 19.98859771 7.18113386 19.98859771 6 19 C5.71681146 16.15912448 5.55149787 13.31834785 5.37890625 10.46875 C5.25386719 9.6540625 5.12882812 8.839375 5 8 C4.34 7.67 3.68 7.34 3 7 C3 6.34 3 5.68 3 5 C2.01 4.67 1.02 4.34 0 4 C0 2.68 0 1.36 0 0 Z " fill="#D8EDF8" transform="translate(64,128)"/>
<path d="M0 0 C0.33 0.66 0.66 1.32 1 2 C0.67 2.99 0.34 3.98 0 5 C0.66 5.33 1.32 5.66 2 6 C1.54753906 6.36996094 1.09507812 6.73992187 0.62890625 7.12109375 C-1.51041477 9.58875181 -2.12682089 11.94483237 -3.0625 15.0625 C-4.79166667 20.79166667 -4.79166667 20.79166667 -7 23 C-7.64253614 14.32576212 -4.80447021 7.20670532 0 0 Z " fill="#427EB2" transform="translate(220,225)"/>
<path d="M0 0 C1.17803639 3.53410916 0.52440372 4.87539361 -0.96875 8.1796875 C-2 10 -2 10 -4.625 12.9375 C-7.65832144 16.84888817 -7.74845037 19.13670719 -8 24 C-7.34 24 -6.68 24 -6 24 C-6 24.66 -6 25.32 -6 26 C-6.99 26 -7.98 26 -9 26 C-9.8814688 23.35559361 -10.16174818 21.71939248 -10.1875 19 C-10.20167969 18.319375 -10.21585938 17.63875 -10.23046875 16.9375 C-10 15 -10 15 -8 12 C-7.34 12 -6.68 12 -6 12 C-6 11.34 -6 10.68 -6 10 C-5.34 10 -4.68 10 -4 10 C-3.896875 8.906875 -3.79375 7.81375 -3.6875 6.6875 C-3.02692273 3.14440371 -2.7972908 2.06756277 0 0 Z " fill="#266BA1" transform="translate(203,198)"/>
<path d="M0 0 C0.33 1.32 0.66 2.64 1 4 C1.66 4 2.32 4 3 4 C3 4.66 3 5.32 3 6 C2.34 6 1.68 6 1 6 C1.14100857 8.27113803 1.28796755 10.54190725 1.4375 12.8125 C1.51871094 14.07707031 1.59992188 15.34164062 1.68359375 16.64453125 C1.87184547 19.99181893 1.87184547 19.99181893 3 23 C2.01 22.67 1.02 22.34 0 22 C0 21.34 0 20.68 0 20 C-0.66 20 -1.32 20 -2 20 C-2.3690205 6.3667426 -2.3690205 6.3667426 0 0 Z " fill="#286DA7" transform="translate(292,132)"/>
<path d="M0 0 C1.67642578 0.01353516 1.67642578 0.01353516 3.38671875 0.02734375 C6.13303462 0.05081654 8.87890472 0.08365272 11.625 0.125 C11.625 0.455 11.625 0.785 11.625 1.125 C11.03485107 1.14481934 10.44470215 1.16463867 9.83666992 1.18505859 C7.16149904 1.28034659 4.48710502 1.39000939 1.8125 1.5 C0.4193457 1.54640625 0.4193457 1.54640625 -1.00195312 1.59375 C-1.89462891 1.63242188 -2.78730469 1.67109375 -3.70703125 1.7109375 C-4.94030151 1.75806885 -4.94030151 1.75806885 -6.19848633 1.80615234 C-8.66452937 2.00873622 -8.66452937 2.00873622 -11.375 4.125 C-13.00142986 4.7413599 -14.6503815 5.30011761 -16.3125 5.8125 C-17.16714844 6.08449219 -18.02179688 6.35648437 -18.90234375 6.63671875 C-21.48010574 7.14575548 -22.91949337 6.97388744 -25.375 6.125 C-16.69496177 0.91697706 -10.10655133 -0.15475285 0 0 Z " fill="#3E7BAC" transform="translate(324.375,117.875)"/>
<path d="M0 0 C0.99 0 1.98 0 3 0 C0.94731334 9.92495839 -1.10651294 19.59764296 -5 29 C-5.33 29 -5.66 29 -6 29 C-5.66115302 23.29802327 -4.97370802 18.43141326 -2.765625 13.16015625 C-1.26233511 8.91873122 -0.69278046 4.43379498 0 0 Z " fill="#D5EEF9" transform="translate(235,117)"/>
<path d="M0 0 C2 2 2 2 2.23046875 5.1171875 C2.21628906 6.35726562 2.20210937 7.59734375 2.1875 8.875 C2.18105469 10.10992187 2.17460937 11.34484375 2.16796875 12.6171875 C2 16 2 16 1.50927734 17.94091797 C0.97333273 20.10781962 0.79497604 22.10047918 0.68359375 24.328125 C0.64169922 25.12734375 0.59980469 25.9265625 0.55664062 26.75 C0.51732422 27.575 0.47800781 28.4 0.4375 29.25 C0.39431641 30.09046875 0.35113281 30.9309375 0.30664062 31.796875 C0.20091457 33.86440671 0.09998705 35.93218281 0 38 C-0.33 38 -0.66 38 -1 38 C-1.33808686 35.93827387 -1.67027361 33.8755797 -2 31.8125 C-2.185625 30.66394531 -2.37125 29.51539063 -2.5625 28.33203125 C-2.93489477 25.49584607 -3.08596021 22.85280436 -3 20 C-2.01 19.67 -1.02 19.34 0 19 C0 12.73 0 6.46 0 0 Z " fill="#C0DFF3" transform="translate(171,182)"/>
<path d="M0 0 C7.29630989 0.30401291 13.17877214 3.45401388 18.5625 8.3125 C19.036875 8.869375 19.51125 9.42625 20 10 C19.67 10.99 19.34 11.98 19 13 C18.76539062 12.37609375 18.53078125 11.7521875 18.2890625 11.109375 C16.63176925 8.39744059 15.3858401 8.11024003 12.375 7.25 C11.55773437 7.00765625 10.74046875 6.7653125 9.8984375 6.515625 C9.27195312 6.34546875 8.64546875 6.1753125 8 6 C8 5.34 8 4.68 8 4 C6.02 4 4.04 4 2 4 C2 3.34 2 2.68 2 2 C1.01 1.67 0.02 1.34 -1 1 C-0.67 0.67 -0.34 0.34 0 0 Z " fill="#1A64A0" transform="translate(105,119)"/>
<path d="M0 0 C3.52347614 3.52347614 3.18204385 7.49327646 3.25 12.3125 C3.20131401 17.73490254 2.82189476 21.36403003 0 26 C-3.19354839 29 -3.19354839 29 -6 29 C-5.67 27.68 -5.34 26.36 -5 25 C-3.35 24.67 -1.7 24.34 0 24 C-0.020625 23.05125 -0.04125 22.1025 -0.0625 21.125 C0 18 0 18 1 16 C0.91075148 13.2764805 0.76646668 10.58986689 0.5625 7.875 C0.51029297 7.12089844 0.45808594 6.36679688 0.40429688 5.58984375 C0.27454996 3.7262063 0.13792512 1.86305004 0 0 Z " fill="#C5E1F2" transform="translate(343,88)"/>
<path d="M0 0 C0 0.33 0 0.66 0 1 C-1.37671875 1.14695312 -1.37671875 1.14695312 -2.78125 1.296875 C-9.22344222 2.081848 -14.6690782 2.84155611 -20.3125 6.11328125 C-22.77729636 7.40844045 -25.25586483 7.72558648 -28 8 C-25.70597233 3.95814172 -23.37558587 2.49525781 -19.0625 1.1875 C-12.71506988 -0.33931427 -6.49023051 -0.27859495 0 0 Z " fill="#B8D6EE" transform="translate(106,79)"/>
<path d="M0 0 C-1.25 1.5 -1.25 1.5 -3 3 C-4.32 3 -5.64 3 -7 3 C-7.33 3.99 -7.66 4.98 -8 6 C-9.33333333 6.66666667 -10.66666667 7.33333333 -12 8 C-12.33 8.99 -12.66 9.98 -13 11 C-14.65 11.33 -16.3 11.66 -18 12 C-16.57646476 8.66863403 -14.8664687 6.72335243 -12.125 4.375 C-11.44695312 3.78460938 -10.76890625 3.19421875 -10.0703125 2.5859375 C-6.50665841 -0.14395601 -4.38363355 -1.56558341 0 0 Z " fill="#2A6BA2" transform="translate(78,64)"/>
<path d="M0 0 C0.66 0.33 1.32 0.66 2 1 C1.01 1.33 0.02 1.66 -1 2 C-1 2.66 -1 3.32 -1 4 C-7.03554548 4.69260358 -12.92406438 5.11251733 -19 5 C-19 4.34 -19 3.68 -19 3 C-19.66 3 -20.32 3 -21 3 C-20.67 2.34 -20.34 1.68 -20 1 C-18.21142578 1.01740234 -18.21142578 1.01740234 -16.38671875 1.03515625 C-14.82031406 1.04453592 -13.25390769 1.05363593 -11.6875 1.0625 C-10.50897461 1.07506836 -10.50897461 1.07506836 -9.30664062 1.08789062 C-8.1706543 1.09272461 -8.1706543 1.09272461 -7.01171875 1.09765625 C-5.96697388 1.10551147 -5.96697388 1.10551147 -4.90112305 1.11352539 C-2.77502032 1.06895991 -2.77502032 1.06895991 0 0 Z " fill="#DAF0FA" transform="translate(113,167)"/>
<path d="M0 0 C0.33 1.32 0.66 2.64 1 4 C0.34 4 -0.32 4 -1 4 C-1.66 8.95 -2.32 13.9 -3 19 C-3.33 19 -3.66 19 -4 19 C-4 24.61 -4 30.22 -4 36 C-6.70882501 31.93676248 -6.3832741 28.7769155 -6.375 24 C-6.37483887 23.14728516 -6.37467773 22.29457031 -6.37451172 21.41601562 C-6.22893873 13.34361033 -4.50495861 6.75743791 0 0 Z " fill="#3E78AB" transform="translate(59,76)"/>
<path d="M0 0 C0.66 0.33 1.32 0.66 2 1 C-0.88330859 4.06351537 -3.74190573 6.57741459 -7.1875 9 C-10.37568514 11.31758845 -12.06582368 13.02975062 -13 17 C-13.99 17 -14.98 17 -16 17 C-14.67171574 13.08361547 -13.05991233 10.6516869 -10.125 7.75 C-9.44695312 7.06421875 -8.76890625 6.3784375 -8.0703125 5.671875 C-5.97194713 3.97734598 -4.63422173 3.40163022 -2 3 C-2 2.34 -2 1.68 -2 1 C-1.34 0.67 -0.68 0.34 0 0 Z " fill="#2F6A9E" transform="translate(258,92)"/>
<path d="M0 0 C0.33 0 0.66 0 1 0 C1.05401695 2.91691525 1.09368066 5.83282724 1.125 8.75 C1.15013672 9.9875 1.15013672 9.9875 1.17578125 11.25 C1.18222656 12.04921875 1.18867188 12.8484375 1.1953125 13.671875 C1.20578613 14.4050293 1.21625977 15.13818359 1.22705078 15.89355469 C0.96024185 18.36885304 0.3306993 19.90029251 -1 22 C-4.4352048 24.29013653 -5.985331 24.17842973 -10 24 C-8.3314814 22.88765426 -6.65243659 21.78935551 -4.9375 20.75 C-0.8076546 17.01981706 -0.69808532 11.40206015 -0.375 6.125 C-0.30023438 4.97257812 -0.22546875 3.82015625 -0.1484375 2.6328125 C-0.09945313 1.76398438 -0.05046875 0.89515625 0 0 Z " fill="#3976A8" transform="translate(346,94)"/>
<path d="M0 0 C-2.80167599 1.53610908 -5.21846878 2.36286291 -8.37109375 2.8515625 C-9.60375977 3.04492188 -9.60375977 3.04492188 -10.86132812 3.2421875 C-12.1365332 3.43167969 -12.1365332 3.43167969 -13.4375 3.625 C-14.7069043 3.82609375 -14.7069043 3.82609375 -16.00195312 4.03125 C-20.03195869 4.64979432 -23.90918185 5.18480082 -28 5 C-19.26269129 0.26042216 -9.75531065 -0.46700955 0 0 Z " fill="#266396" transform="translate(252,84)"/>
<path d="M0 0 C4.52525463 4.52525463 4.89608688 12.84327257 5.19140625 18.97265625 C5.18800051 22.32049508 5.13540151 25.65508121 5 29 C4.67 29 4.34 29 4 29 C4 25.37 4 21.74 4 18 C3.34 18 2.68 18 2 18 C1.34 12.06 0.68 6.12 0 0 Z " fill="#ADCEE8" transform="translate(176,243)"/>
<path d="M0 0 C4.20463662 3.73352888 5.74946028 8.83693606 6.1875 14.3671875 C6.1875 16.2458316 6.1023194 18.12414436 6 20 C5.01 20 4.02 20 3 20 C0.88838269 6.3667426 0.88838269 6.3667426 0 0 Z " fill="#3171AA" transform="translate(200,228)"/>
<path d="M0 0 C5.77378925 0.4811491 9.95859836 2.18467181 15 5 C15 5.33 15 5.66 15 6 C13.24929483 5.88529863 11.49942464 5.75780972 9.75 5.625 C8.77546875 5.55539063 7.8009375 5.48578125 6.796875 5.4140625 C4.10366811 5.01534751 2.33036721 4.36492937 0 3 C0 2.01 0 1.02 0 0 Z " fill="#3273AD" transform="translate(235,41)"/>
<path d="M0 0 C0.99 0.33 1.98 0.66 3 1 C2.52949219 1.67417969 2.05898437 2.34835938 1.57421875 3.04296875 C-0.2798463 6.52566663 -0.71292566 9.4063881 -1.1875 13.3125 C-1.34605469 14.56675781 -1.50460938 15.82101563 -1.66796875 17.11328125 C-1.77753906 18.06589844 -1.88710937 19.01851562 -2 20 C-2.66 19.67 -3.32 19.34 -4 19 C-4 14.71 -4 10.42 -4 6 C-3.34 6 -2.68 6 -2 6 C-1.7834375 5.071875 -1.7834375 5.071875 -1.5625 4.125 C-1 2 -1 2 0 0 Z " fill="#0860A6" transform="translate(75,86)"/>
<path d="M0 0 C1.32 0.33 2.64 0.66 4 1 C3.21625 1.5775 2.4325 2.155 1.625 2.75 C-0.88032062 4.89741768 -1.68885883 6.09675884 -3 9 C-3.495 9.45375 -3.99 9.9075 -4.5 10.375 C-6.59019379 12.6393766 -7.1554382 15.07651684 -8 18 C-9.15957207 14.52128379 -8.77456651 13.65780355 -7.5625 10.3125 C-7.27503906 9.50425781 -6.98757813 8.69601563 -6.69140625 7.86328125 C-6.46324219 7.24839844 -6.23507812 6.63351563 -6 6 C-5.34 6 -4.68 6 -4 6 C-3.34 4.68 -2.68 3.36 -2 2 C-1.34 2 -0.68 2 0 2 C0 1.34 0 0.68 0 0 Z " fill="#3373A5" transform="translate(287,86)"/>
<path d="M0 0 C0.96486328 0.44472656 0.96486328 0.44472656 1.94921875 0.8984375 C5.84925579 2.3066455 9.73071254 2.95439619 13.8125 3.625 C14.99489258 3.82609375 14.99489258 3.82609375 16.20117188 4.03125 C18.13328006 4.3591229 20.0665322 4.68024237 22 5 C22 5.33 22 5.66 22 6 C19.79194476 6.0544452 17.58349446 6.09299283 15.375 6.125 C14.14523438 6.14820313 12.91546875 6.17140625 11.6484375 6.1953125 C8.05683959 6.0030428 5.33338825 5.30258556 2 4 C2 3.34 2 2.68 2 2 C1.34 2 0.68 2 0 2 C0 1.34 0 0.68 0 0 Z " fill="#23669E" transform="translate(182,282)"/>
<path d="M0 0 C-3.75 2 -3.75 2 -6 2 C-6 2.66 -6 3.32 -6 4 C-7.58086048 4.36504603 -9.16483907 4.71660506 -10.75 5.0625 C-11.63171875 5.25972656 -12.5134375 5.45695312 -13.421875 5.66015625 C-15.98679028 5.99825872 -17.57091639 5.81158635 -20 5 C-13.82329655 1.51570575 -7.13853153 -0.46055042 0 0 Z " fill="#F3FCFC" transform="translate(310,82)"/>
<path d="M0 0 C-0.8125 1.9375 -0.8125 1.9375 -2 4 C-2.99 4.33 -3.98 4.66 -5 5 C-5.33 4.34 -5.66 3.68 -6 3 C-10.95 3 -15.9 3 -21 3 C-14.27490911 -0.36254544 -7.37658787 -0.15367891 0 0 Z " fill="#ACD2E8" transform="translate(273,82)"/>
<path d="M0 0 C0.33 0.99 0.66 1.98 1 3 C1.66 3 2.32 3 3 3 C3 8.94 3 14.88 3 21 C2.34 21 1.68 21 1 21 C0.67 14.07 0.34 7.14 0 0 Z " fill="#1663A3" transform="translate(204,245)"/>
<path d="M0 0 C1.50390625 1.30078125 1.50390625 1.30078125 3 3 C2.89320282 8.44665621 1.1504202 13.54595765 -2 18 C-2.99 18.33 -3.98 18.66 -5 19 C-3 14 -3 14 -1.9375 11.75 C-0.62438129 7.89818512 -0.33447835 4.04014639 0 0 Z " fill="#DCF0FB" transform="translate(130,141)"/>
<path d="M0 0 C2.87506421 -0.02712325 5.74986908 -0.04689851 8.625 -0.0625 C9.83736328 -0.07506836 9.83736328 -0.07506836 11.07421875 -0.08789062 C15.50341918 -0.1058955 19.63883424 0.10377338 24 1 C20.20225858 3.53182761 17.4672405 3.05130934 13.125 2.6875 C12.41730469 2.63916016 11.70960938 2.59082031 10.98046875 2.54101562 C7.25350738 2.26687228 3.6432462 1.83580354 0 1 C0 0.67 0 0.34 0 0 Z " fill="#3875AB" transform="translate(152,82)"/>
<path d="M0 0 C8.50922528 -0.40735653 15.8390222 0.56907044 24 3 C24 3.33 24 3.66 24 4 C18.06 3.67 12.12 3.34 6 3 C6 2.67 6 2.34 6 2 C3.03 1.505 3.03 1.505 0 1 C0 0.67 0 0.34 0 0 Z " fill="#3273A2" transform="translate(316,57)"/>
<path d="M0 0 C0.49628906 0.39832031 0.99257813 0.79664063 1.50390625 1.20703125 C5.85302633 4.59884975 9.8350929 7.06315984 15 9 C13.25 10.09765625 13.25 10.09765625 11 11 C5.72785548 9.67166671 1.98011805 6.47017708 -1 2 C-0.67 1.34 -0.34 0.68 0 0 Z " fill="#2F6CA0" transform="translate(296,157)"/>
<path d="M0 0 C2.6015625 -0.29296875 2.6015625 -0.29296875 5.625 -0.1875 C7.12933594 -0.14689453 7.12933594 -0.14689453 8.6640625 -0.10546875 C9.43492187 -0.07066406 10.20578125 -0.03585938 11 0 C11 0.33 11 0.66 11 1 C12.65 1.33 14.3 1.66 16 2 C16 2.33 16 2.66 16 3 C10.06 3 4.12 3 -2 3 C-1.34 2.01 -0.68 1.02 0 0 Z " fill="#E5F5FB" transform="translate(320,115)"/>
<path d="M0 0 C-0.78503906 0.29132813 -1.57007813 0.58265625 -2.37890625 0.8828125 C-9.00366802 3.46768887 -13.9083419 6.0240614 -19 11 C-19 10.01 -19 9.02 -19 8 C-18.34 8 -17.68 8 -17 8 C-16.67 7.01 -16.34 6.02 -16 5 C-15.34 5 -14.68 5 -14 5 C-14 4.34 -14 3.68 -14 3 C-9.57388612 -0.2544955 -5.31602679 -1.77200893 0 0 Z " fill="#D4EDFA" transform="translate(312,119)"/>
<path d="M0 0 C2.62994337 1.31497169 2.92315481 2.27199218 4 5 C4.35179197 7.3306218 4.68330179 9.66435067 5 12 C5.59287495 14.36230794 6.28667778 16.66981407 7 19 C6.34 19.66 5.68 20.32 5 21 C4.16267257 17.87605609 3.33082018 14.75068026 2.5 11.625 C2.26152344 10.73554688 2.02304688 9.84609375 1.77734375 8.9296875 C1.55175781 8.07890625 1.32617188 7.228125 1.09375 6.3515625 C0.88427734 5.56604004 0.67480469 4.78051758 0.45898438 3.97119141 C0 2 0 2 0 0 Z " fill="#D1EAF9" transform="translate(182,118)"/>
<path d="M0 0 C0.99 0.33 1.98 0.66 3 1 C2.60167969 1.54527344 2.20335937 2.09054688 1.79296875 2.65234375 C-1.89984877 7.90854387 -4.32856508 12.79809675 -6 19 C-7.76980203 13.69059392 -5.17970777 7.9821892 -3 3 C-2.34 3 -1.68 3 -1 3 C-0.67 2.01 -0.34 1.02 0 0 Z " fill="#C5E0F2" transform="translate(60,71)"/>
<path d="M0 0 C0 0.33 0 0.66 0 1 C6.93 1 13.86 1 21 1 C21 1.33 21 1.66 21 2 C16.34723058 3.17021364 11.82746796 3.18361023 7.0625 3.1875 C5.88397461 3.20586914 5.88397461 3.20586914 4.68164062 3.22460938 C0.05075091 3.23623504 -3.64207566 2.76975098 -8 1 C-8 0.67 -8 0.34 -8 0 C-4.71303767 -0.79953138 -3.28976808 -1.09658936 0 0 Z " fill="#D0ECFA" transform="translate(120,58)"/>
<path d="M0 0 C3.97662718 2.87200852 6.5890158 5.71380587 9 10 C9 11.32 9 12.64 9 14 C8.34 14 7.68 14 7 14 C5.7109375 12.3203125 5.7109375 12.3203125 4.375 10.125 C3.92898437 9.40570313 3.48296875 8.68640625 3.0234375 7.9453125 C2 6 2 6 2 4 C1.34 4 0.68 4 0 4 C0 2.68 0 1.36 0 0 Z " fill="#326EA5" transform="translate(171,100)"/>
<path d="M0 0 C2 1 2 1 3.1171875 3.10546875 C4.19172254 6.62861239 4.19373791 9.63502193 4.125 13.3125 C4.10695313 14.56675781 4.08890625 15.82101563 4.0703125 17.11328125 C4.04710937 18.06589844 4.02390625 19.01851562 4 20 C3.34 20 2.68 20 2 20 C1.34 13.4 0.68 6.8 0 0 Z " fill="#0D5FA1" transform="translate(345,87)"/>
<path d="M0 0 C-2.57146057 2.57146057 -4.6050417 2.80117997 -8.125 3.625 C-9.76855469 4.01558594 -9.76855469 4.01558594 -11.4453125 4.4140625 C-12.28835937 4.60742188 -13.13140625 4.80078125 -14 5 C-14 4.34 -14 3.68 -14 3 C-15.32 2.67 -16.64 2.34 -18 2 C-11.93184478 0.77100654 -6.20104812 -0.27560214 0 0 Z " fill="#D9F1F9" transform="translate(242,87)"/>
<path d="M0 0 C-3.68533353 2.45688902 -6.72250681 2.40647044 -11 2.5625 C-16.57912011 2.75044259 -16.57912011 2.75044259 -22 4 C-22 3.34 -22 2.68 -22 2 C-22.66 2 -23.32 2 -24 2 C-24 1.34 -24 0.68 -24 0 C-22.08574219 0.01740234 -22.08574219 0.01740234 -20.1328125 0.03515625 C-18.46354313 0.04453417 -16.79427217 0.05363437 -15.125 0.0625 C-14.28324219 0.07087891 -13.44148438 0.07925781 -12.57421875 0.08789062 C-11.76855469 0.09111328 -10.96289062 0.09433594 -10.1328125 0.09765625 C-9.38918457 0.10289307 -8.64555664 0.10812988 -7.87939453 0.11352539 C-1.00562284 -0.30168685 -1.00562284 -0.30168685 0 0 Z " fill="#D2EDF9" transform="translate(334,168)"/>
<path d="M0 0 C0 0.66 0 1.32 0 2 C-4.07723734 3.95031692 -7.31692422 4.21581971 -11.8125 4.125 C-12.97394531 4.10695312 -14.13539062 4.08890625 -15.33203125 4.0703125 C-16.21246094 4.04710937 -17.09289062 4.02390625 -18 4 C-14.61652517 1.74435011 -12.4314378 1.43727504 -8.4375 0.875 C-6.70306641 0.62363281 -6.70306641 0.62363281 -4.93359375 0.3671875 C-2 0 -2 0 0 0 Z " fill="#13558C" transform="translate(115,165)"/>
<path d="M0 0 C3.16242675 2.58744007 4.08288297 5.04934204 5 9 C5.15685891 12.67353451 5.11768011 16.32576557 5 20 C4.67 20 4.34 20 4 20 C3.92652344 19.07767578 3.92652344 19.07767578 3.8515625 18.13671875 C3.77679688 17.32847656 3.70203125 16.52023438 3.625 15.6875 C3.55539063 14.88699219 3.48578125 14.08648437 3.4140625 13.26171875 C3.10435574 10.72775559 3.10435574 10.72775559 1 8 C-0.35439668 5.29120665 -0.06501451 2.99066732 0 0 Z " fill="#3A77AC" transform="translate(125,130)"/>
<path d="M0 0 C5.02964252 -0.29586132 7.9338496 -0.0496128 12 3 C13.8125 4.6875 13.8125 4.6875 15 6 C14.67 6.99 14.34 7.98 14 9 C13.360625 8.4225 12.72125 7.845 12.0625 7.25 C8.2797269 4.47081977 4.32481492 2.77138389 0 1 C0 0.67 0 0.34 0 0 Z " fill="#3775A6" transform="translate(120,83)"/>
<path d="M0 0 C2.30465234 2.96213574 4.27590448 6.02152757 6.1875 9.25 C6.71730469 10.14203125 7.24710938 11.0340625 7.79296875 11.953125 C8.19128906 12.62859375 8.58960938 13.3040625 9 14 C7.02 13.34 5.04 12.68 3 12 C3 10.68 3 9.36 3 8 C2.34 8 1.68 8 1 8 C0.67 5.36 0.34 2.72 0 0 Z " fill="#C7E2F2" transform="translate(55,114)"/>
<path d="M0 0 C2.43934225 -0.13501894 4.87124104 -0.23403897 7.3125 -0.3125 C8.34793945 -0.3753418 8.34793945 -0.3753418 9.40429688 -0.43945312 C11.42578125 -0.48828125 11.42578125 -0.48828125 15 0 C15.99 1.65 16.98 3.3 18 5 C9.09 3.02 9.09 3.02 0 1 C0 0.67 0 0.34 0 0 Z " fill="#BDDAEC" transform="translate(220,36)"/>
<path d="M0 0 C0.33 0 0.66 0 1 0 C1.05429278 2.70860665 1.09381211 5.41610901 1.125 8.125 C1.15013672 9.26582031 1.15013672 9.26582031 1.17578125 10.4296875 C1.21546246 15.03270731 0.75907577 18.66464004 -1 23 C-2.125 21.375 -2.125 21.375 -3 19 C-2.33333333 17 -1.66666667 15 -1 13 C-0.72419137 10.71547193 -0.5156214 8.42181617 -0.375 6.125 C-0.30023438 4.97257812 -0.22546875 3.82015625 -0.1484375 2.6328125 C-0.09945313 1.76398438 -0.05046875 0.89515625 0 0 Z " fill="#1964A1" transform="translate(365,93)"/>
<path d="M0 0 C1.65 0 3.3 0 5 0 C5 0.66 5 1.32 5 2 C6.65 2 8.3 2 10 2 C8.02 2.99 8.02 2.99 6 4 C6.33 4.99 6.66 5.98 7 7 C4.08482708 5.92598892 2.22189824 5.22189824 0 3 C0 2.01 0 1.02 0 0 Z " fill="#BCDEF2" transform="translate(147,81)"/>
<path d="M0 0 C0.33 0 0.66 0 1 0 C1.33 2.31 1.66 4.62 2 7 C2.66 6.01 3.32 5.02 4 4 C4.33 7.63 4.66 11.26 5 15 C4.01 15.66 3.02 16.32 2 17 C0.4943096 11.19233704 -0.21824777 6.0018137 0 0 Z " fill="#216EB0" transform="translate(243,188)"/>
<path d="M0 0 C0.99 0.495 0.99 0.495 2 1 C3.38730913 5.49348553 3.11320772 10.15909157 3.0625 14.8125 C3.05798828 15.60076172 3.05347656 16.38902344 3.04882812 17.20117188 C3.03711312 19.13414761 3.01917998 21.06708393 3 23 C2.67 23 2.34 23 2 23 C1.93941406 22.09636719 1.87882813 21.19273437 1.81640625 20.26171875 C1.73261719 19.08222656 1.64882812 17.90273437 1.5625 16.6875 C1.48128906 15.51574219 1.40007812 14.34398437 1.31640625 13.13671875 C1.1132629 9.97409042 1.1132629 9.97409042 0 7 C-0.03954234 4.66700175 -0.04401732 2.33291811 0 0 Z " fill="#0D5893" transform="translate(201,174)"/>
<path d="M0 0 C1.32 0.66 2.64 1.32 4 2 C3.43410156 2.47050781 2.86820312 2.94101563 2.28515625 3.42578125 C1.55167969 4.04839844 0.81820313 4.67101562 0.0625 5.3125 C-1.03384766 6.23482422 -1.03384766 6.23482422 -2.15234375 7.17578125 C-4.23820366 8.95975519 -4.23820366 8.95975519 -5 12 C-5.66 12 -6.32 12 -7 12 C-5.44298069 7.32894208 -2.91552627 3.91294315 0 0 Z " fill="#C8E1F1" transform="translate(257,166)"/>
<path d="M0 0 C0.66 0 1.32 0 2 0 C0.70677932 5.7607103 -1.37988643 9.33195882 -5 14 C-5.33 12.68 -5.66 11.36 -6 10 C-5.34 10 -4.68 10 -4 10 C-3.896875 9.46375 -3.79375 8.9275 -3.6875 8.375 C-2.81907303 5.37497956 -1.44379704 2.7620465 0 0 Z " fill="#2B6EA5" transform="translate(268,144)"/>
<path d="M0 0 C0 4.8402768 -0.1990971 7.12096023 -3.5625 10.8125 C-4.366875 11.534375 -5.17125 12.25625 -6 13 C-6.99 12.67 -7.98 12.34 -9 12 C-8.60167969 11.55269531 -8.20335937 11.10539062 -7.79296875 10.64453125 C-4.82015875 7.25220061 -2.1717806 3.98159776 0 0 Z " fill="#C4DDED" transform="translate(363,116)"/>
<path d="M0 0 C0.33 0.66 0.66 1.32 1 2 C-1.18987342 8.56962025 -1.18987342 8.56962025 -4 10.0625 C-6 10 -6 10 -9 8 C-8.071875 7.4225 -7.14375 6.845 -6.1875 6.25 C-3.40184158 4.28365288 -1.81261304 2.81962028 0 0 Z " fill="#C6E1F0" transform="translate(343,157)"/>
<path d="M0 0 C2.31 0 4.62 0 7 0 C7 0.66 7 1.32 7 2 C5.08487728 2.50588147 3.16783078 3.00448391 1.25 3.5 C-0.35101563 3.91765625 -0.35101563 3.91765625 -1.984375 4.34375 C-5 5 -5 5 -9 5 C-9 4.34 -9 3.68 -9 3 C-6.03 2.34 -3.06 1.68 0 1 C0 0.67 0 0.34 0 0 Z " fill="#0A65AC" transform="translate(233,83)"/>
<path d="M0 0 C1.65 0 3.3 0 5 0 C1.84690341 2.64404244 -1.16847356 3.9568165 -5.0625 5.25 C-6.10535156 5.60578125 -7.14820313 5.9615625 -8.22265625 6.328125 C-11 7 -11 7 -14 6 C-9.22642128 3.28608722 -5.65611463 1.43438854 0 2 C0 1.34 0 0.68 0 0 Z " fill="#DDF4FC" transform="translate(155,52)"/>
<path d="M0 0 C1.11859272 3.35577815 0.6924604 5.61463931 0.19140625 9.05859375 C-0.02424597 11.24592346 0.22807691 12.94153842 1 15 C0.34 14.67 -0.32 14.34 -1 14 C-1 13.34 -1 12.68 -1 12 C-1.66 12 -2.32 12 -3 12 C-3.36923077 4.61538462 -3.36923077 4.61538462 -1.5 1.5 C-1.005 1.005 -0.51 0.51 0 0 Z " fill="#BCDAEF" transform="translate(198,210)"/>
<path d="M0 0 C0.66 0 1.32 0 2 0 C1.48517081 5.852795 0.54642808 11.3297637 -1 17 C-1.33 17 -1.66 17 -2 17 C-2.05441656 15.10448978 -2.09298035 13.2085208 -2.125 11.3125 C-2.14820313 10.25675781 -2.17140625 9.20101562 -2.1953125 8.11328125 C-1.99858729 4.97748141 -1.33057654 2.82354627 0 0 Z " fill="#2C72A9" transform="translate(247,175)"/>
<path d="M0 0 C-2.95746768 1.63241288 -5.62066088 2.45432765 -8.9375 3.0625 C-9.77152344 3.21847656 -10.60554687 3.37445313 -11.46484375 3.53515625 C-12.71974609 3.76525391 -12.71974609 3.76525391 -14 4 C-15.66719815 4.33066482 -17.33402464 4.66322859 -19 5 C-19 4.34 -19 3.68 -19 3 C-18.01 3 -17.02 3 -16 3 C-16 2.34 -16 1.68 -16 1 C-10.65097076 0.40801257 -5.39115154 -0.14187241 0 0 Z " fill="#CBE3F2" transform="translate(200,36)"/>
<path d="M0 0 C2 3.75 2 3.75 2 6 C0.68 6.33 -0.64 6.66 -2 7 C-2 10.96 -2 14.92 -2 19 C-2.33 19 -2.66 19 -3 19 C-3.0814222 16.77144426 -3.13938079 14.54202345 -3.1875 12.3125 C-3.22230469 11.07113281 -3.25710937 9.82976562 -3.29296875 8.55078125 C-2.9846829 4.81435679 -2.18088273 2.99370517 0 0 Z " fill="#B9D8ED" transform="translate(77,87)"/>
<path d="M0 0 C-3.61186839 2.74501997 -7.30395263 5.37012014 -11 8 C-11 6.35 -11 4.7 -11 3 C-7.14243493 0.84694043 -4.44870215 -0.39253254 0 0 Z " fill="#D1E8F6" transform="translate(74,63)"/>
<path d="M0 0 C0.33 0 0.66 0 1 0 C1.09728523 5.44797276 1.01750284 10.634985 0 16 C-0.99 16.66 -1.98 17.32 -3 18 C-2.41509121 11.85845775 -1.45933748 5.99320151 0 0 Z " fill="#C5E4F4" transform="translate(248,218)"/>
<path d="M0 0 C2.9719385 1.12451727 5.33440687 2.22293791 8 4 C7 7 7 7 5 10 C4.16121545 8.71186658 3.32913217 7.41936744 2.5 6.125 C2.0359375 5.40570313 1.571875 4.68640625 1.09375 3.9453125 C0 2 0 2 0 0 Z " fill="#4285B9" transform="translate(167,174)"/>
<path d="M0 0 C0.33 0.99 0.66 1.98 1 3 C1.66 3 2.32 3 3 3 C3.33 4.32 3.66 5.64 4 7 C5.32 7.33 6.64 7.66 8 8 C8 9.32 8 10.64 8 12 C3.78456242 10.49448658 2.13950875 7.82055134 0 4 C0 2.68 0 1.36 0 0 Z " fill="#155F9E" transform="translate(164,165)"/>
<path d="M0 0 C0.6875 1.625 0.6875 1.625 1 4 C-0.4375 7.25 -0.4375 7.25 -2 10 C-2.66 10 -3.32 10 -4 10 C-4.41176754 6.39703406 -4.1535853 5.21597933 -2 2.1875 C-1.34 1.465625 -0.68 0.74375 0 0 Z " fill="#276BA3" transform="translate(229,150)"/>
<path d="M0 0 C0.98598718 3.06751566 1.18945913 4.98060374 0 8 C-1.9375 10.75 -1.9375 10.75 -4 13 C-4.66 13 -5.32 13 -6 13 C-4.92598892 10.08482708 -4.22189824 8.22189824 -2 6 C-1.28591666 4.01643517 -0.61382258 2.01684563 0 0 Z " fill="#C7E0F1" transform="translate(270,144)"/>
<path d="M0 0 C0.66 0 1.32 0 2 0 C1.55005243 1.79379098 1.08975857 3.58498928 0.625 5.375 C0.36976563 6.37273437 0.11453125 7.37046875 -0.1484375 8.3984375 C-1 11 -1 11 -3 13 C-3 10.36 -3 7.72 -3 5 C-2.34 5 -1.68 5 -1 5 C-0.67 3.35 -0.34 1.7 0 0 Z " fill="#296DA7" transform="translate(216,235)"/>
<path d="M0 0 C4.875 3.75 4.875 3.75 6 6 C6.039992 7.99960012 6.04346799 10.00047242 6 12 C4 8.25 4 8.25 4 6 C2.68 5.67 1.36 5.34 0 5 C0 3.35 0 1.7 0 0 Z " fill="#C6E2F2" transform="translate(218,208)"/>
<path d="M0 0 C0.93423645 3.01031744 1.04449911 3.86650268 0 7 C-3.0625 8.1875 -3.0625 8.1875 -6 9 C-4.83857315 4.64464931 -3.92300495 2.35380297 0 0 Z " fill="#DDEFF6" transform="translate(289,88)"/>
<path d="M0 0 C0.33 0 0.66 0 1 0 C2.125 6.625 2.125 6.625 1 10 C0.34 10 -0.32 10 -1 10 C-1.33 10.66 -1.66 11.32 -2 12 C-2.66 12 -3.32 12 -4 12 C-2.66666667 8 -1.33333333 4 0 0 Z " fill="#D5EBF6" transform="translate(204,198)"/>
<path d="M0 0 C-2.85584773 1.90389849 -4.9311762 2.69462177 -8.1875 3.625 C-9.08855469 3.88539062 -9.98960937 4.14578125 -10.91796875 4.4140625 C-11.94857422 4.70410156 -11.94857422 4.70410156 -13 5 C-12.67 4.01 -12.34 3.02 -12 2 C-7.9083139 0.19204568 -4.44280672 -0.21156222 0 0 Z " fill="#276BA0" transform="translate(304,81)"/>
<path d="M0 0 C0.99 0 1.98 0 3 0 C1.43358249 4.30764815 -0.68336156 8.06171464 -3 12 C-3.93423645 8.98968256 -4.04449911 8.13349732 -3 5 C-2.34 5 -1.68 5 -1 5 C-0.67 3.35 -0.34 1.7 0 0 Z " fill="#0C60A8" transform="translate(61,75)"/>
<path d="M0 0 C1 2 2 4 3 6 C2.01 6 1.02 6 0 6 C-0.66 8.64 -1.32 11.28 -2 14 C-2.66 14 -3.32 14 -4 14 C-3.00956295 9.16371695 -2.04301154 4.52381127 0 0 Z " fill="#CBE4F4" transform="translate(275,130)"/>
<path d="M0 0 C2 2 2 2 2.125 5.125 C2.08375 6.07375 2.0425 7.0225 2 8 C2.66 8 3.32 8 4 8 C3.67 9.65 3.34 11.3 3 13 C1.33167423 10.49751135 0.37618326 8.58850813 -0.625 5.8125 C-0.88539063 5.09707031 -1.14578125 4.38164063 -1.4140625 3.64453125 C-1.60742188 3.10183594 -1.80078125 2.55914062 -2 2 C-1.34 2 -0.68 2 0 2 C0 1.34 0 0.68 0 0 Z " fill="#D7EEF6" transform="translate(179,104)"/>
<path d="M0 0 C1.485 0.99 1.485 0.99 3 2 C3 2.66 3 3.32 3 4 C3.66 4 4.32 4 5 4 C5.33 5.98 5.66 7.96 6 10 C3 9 3 9 1.3125 6.125 C0 3 0 3 0 0 Z " fill="#CDE7F6" transform="translate(134,92)"/>
<path d="M0 0 C0 0.33 0 0.66 0 1 C-0.59167969 1.06058594 -1.18335937 1.12117188 -1.79296875 1.18359375 C-6.83974773 1.70917803 -6.83974773 1.70917803 -11.8125 2.6875 C-14.50949198 3.07278457 -15.7311729 2.42852077 -18 1 C-12.03325384 -0.32594359 -6.07416385 -0.0884587 0 0 Z " fill="#417AA8" transform="translate(104,57)"/>
<path d="M0 0 C-0.33 0.66 -0.66 1.32 -1 2 C-3.06640625 2.6328125 -3.06640625 2.6328125 -5.5625 3.125 C-6.38878906 3.29257812 -7.21507812 3.46015625 -8.06640625 3.6328125 C-8.70449219 3.75398438 -9.34257812 3.87515625 -10 4 C-10 4.66 -10 5.32 -10 6 C-11.32 5.34 -12.64 4.68 -14 4 C-12.23494565 3.13395466 -10.46271926 2.28251358 -8.6875 1.4375 C-7.70136719 0.96183594 -6.71523437 0.48617187 -5.69921875 -0.00390625 C-3 -1 -3 -1 0 0 Z " fill="#0C5C9F" transform="translate(155,57)"/>
<path d="M0 0 C0.66 0 1.32 0 2 0 C2.33 2.31 2.66 4.62 3 7 C3.66 7 4.32 7 5 7 C7.1519437 10.22791555 7.20086443 11.28400809 7 15 C5.79371992 12.66785852 4.8345262 10.50357861 4 8 C3.34 8 2.68 8 2 8 C0.74335022 5.09399739 0 3.20395416 0 0 Z " fill="#CAE5F3" transform="translate(195,157)"/>
<path d="M0 0 C1.37095624 3.69037278 0.60010967 5.70883835 -0.9375 9.25 C-1.31777344 10.14203125 -1.69804687 11.0340625 -2.08984375 11.953125 C-2.39019531 12.62859375 -2.69054687 13.3040625 -3 14 C-3.66 13.01 -4.32 12.02 -5 11 C-3.84858407 7.12705551 -1.83737224 3.59122757 0 0 Z " fill="#3C79AC" transform="translate(274,130)"/>
<path d="M0 0 C0.66 0.33 1.32 0.66 2 1 C-0.6598561 4.44216672 -3.90288286 4.99504674 -8 6 C-8.33 5.34 -8.66 4.68 -9 4 C-7.54618103 3.30300448 -6.08677047 2.61766134 -4.625 1.9375 C-3.40683594 1.36322266 -3.40683594 1.36322266 -2.1640625 0.77734375 C-1.44992188 0.52082031 -0.73578125 0.26429687 0 0 Z " fill="#3270A4" transform="translate(162,51)"/>
<path d="M0 0 C2.31 0.33 4.62 0.66 7 1 C7 1.66 7 2.32 7 3 C8.65 3 10.3 3 12 3 C12 3.99 12 4.98 12 6 C7.76570244 4.68938409 3.92592596 3.05643741 0 1 C0 0.67 0 0.34 0 0 Z " fill="#C4DFF0" transform="translate(250,47)"/>
<path d="M0 0 C3.44216672 2.6598561 3.99504674 5.90288286 5 10 C2.5 8.9375 2.5 8.9375 0 7 C-0.3125 3.3125 -0.3125 3.3125 0 0 Z " fill="#3B78A9" transform="translate(198,165)"/>
<path d="M0 0 C0.33 0 0.66 0 1 0 C1.06058594 0.67546875 1.12117188 1.3509375 1.18359375 2.046875 C1.26738281 2.93890625 1.35117188 3.8309375 1.4375 4.75 C1.55931641 6.07257813 1.55931641 6.07257813 1.68359375 7.421875 C1.96238465 9.69350452 2.38790577 11.79851823 3 14 C1.68 13.67 0.36 13.34 -1 13 C-0.67 8.71 -0.34 4.42 0 0 Z " fill="#3C7CB2" transform="translate(73,96)"/>
<path d="M0 0 C3.96 0 7.92 0 12 0 C7.60171741 2.1991413 4.81449408 2.51855059 0 3 C0 2.01 0 1.02 0 0 Z " fill="#4580AD" transform="translate(240,84)"/>
<path d="M0 0 C-1.97420135 2.52259061 -2.96745642 2.9929808 -6.1875 3.6875 C-7.5796875 3.8421875 -7.5796875 3.8421875 -9 4 C-8 1 -8 1 -6.1875 -0.25 C-3.66056586 -1.11637742 -2.47778006 -0.88492145 0 0 Z " fill="#125F9F" transform="translate(78,64)"/>
<path d="M0 0 C-0.66 0 -1.32 0 -2 0 C-2.33 0.99 -2.66 1.98 -3 3 C-5.64 2.67 -8.28 2.34 -11 2 C-7.00042393 -0.06874624 -4.43559483 -1.37656391 0 0 Z " fill="#3876A9" transform="translate(311,59)"/>
<path d="M0 0 C0.66 0 1.32 0 2 0 C0.66666667 3.33333333 -0.66666667 6.66666667 -2 10 C-2.33 10 -2.66 10 -3 10 C-2.25 2.25 -2.25 2.25 0 0 Z " fill="#DDF2FB" transform="translate(217,226)"/>
<path d="M0 0 C0.33 0 0.66 0 1 0 C0.51171875 6.0546875 0.51171875 6.0546875 0 8 C-0.99 8.66 -1.98 9.32 -3 10 C-2.67 7.69 -2.34 5.38 -2 3 C-1.34 3 -0.68 3 0 3 C0 2.01 0 1.02 0 0 Z " fill="#DEF4FC" transform="translate(222,216)"/>
<path d="M0 0 C1.77706209 2.66559313 2.87548273 5.0280615 4 8 C4.66 8 5.32 8 6 8 C5.67 8.99 5.34 9.98 5 11 C0.07692308 6.81538462 0.07692308 6.81538462 -0.3125 2.6875 C-0.209375 1.800625 -0.10625 0.91375 0 0 Z " fill="#185E94" transform="translate(218,202)"/>
<path d="M0 0 C1 2 2 4 3 6 C2.34 6 1.68 6 1 6 C0.67 7.32 0.34 8.64 0 10 C-0.33 10 -0.66 10 -1 10 C-1.02689216 8.52093108 -1.04634621 7.04172517 -1.0625 5.5625 C-1.07410156 4.73878906 -1.08570313 3.91507813 -1.09765625 3.06640625 C-1 1 -1 1 0 0 Z " fill="#D6EAF5" transform="translate(249,178)"/>
<path d="M0 0 C0.66 0 1.32 0 2 0 C1.54738642 1.43931117 1.08767021 2.87638999 0.625 4.3125 C0.36976563 5.11300781 0.11453125 5.91351563 -0.1484375 6.73828125 C-1 9 -1 9 -3 12 C-2.67 8.7 -2.34 5.4 -2 2 C-1.34 2 -0.68 2 0 2 C0 1.34 0 0.68 0 0 Z " fill="#B8D7EC" transform="translate(218,166)"/>
<path d="M0 0 C2.64465038 3.1254959 3.84414715 6.08788267 5 10 C4.34 10 3.68 10 3 10 C3 9.34 3 8.68 3 8 C2.34 8 1.68 8 1 8 C0.67 5.36 0.34 2.72 0 0 Z " fill="#C1DDF0" transform="translate(147,140)"/>
<path d="M0 0 C1.13643966 3.40931897 0.86747764 4.00335456 -0.4375 7.1875 C-0.86869141 8.26064453 -0.86869141 8.26064453 -1.30859375 9.35546875 C-1.53675781 9.89816406 -1.76492187 10.44085938 -2 11 C-2.33 11 -2.66 11 -3 11 C-2.8864371 9.35333797 -2.75882619 7.70763918 -2.625 6.0625 C-2.55539063 5.14597656 -2.48578125 4.22945312 -2.4140625 3.28515625 C-2.27742187 2.53105469 -2.14078125 1.77695313 -2 1 C-1.34 0.67 -0.68 0.34 0 0 Z " fill="#CAE5F7" transform="translate(232,135)"/>
<path d="M0 0 C-1 3 -1 3 -4 5 C-7.1875 5.125 -7.1875 5.125 -10 5 C-9.01 4.34 -8.02 3.68 -7 3 C-6.34 2.46375 -5.68 1.9275 -5 1.375 C-3 0 -3 0 0 0 Z " fill="#286DA0" transform="translate(346,113)"/>
<path d="M0 0 C1.67299959 0.65061095 3.33859237 1.32033324 5 2 C5.7425 2.268125 6.485 2.53625 7.25 2.8125 C9 4 9 4 9.75 6.625 C9.87375 7.800625 9.87375 7.800625 10 9 C8.8944811 8.06409496 7.79064547 7.12620142 6.6875 6.1875 C6.07261719 5.66542969 5.45773438 5.14335938 4.82421875 4.60546875 C3.14575321 3.12827531 1.56117966 1.59960869 0 0 Z " fill="#C3DEF1" transform="translate(165,94)"/>
<path d="M0 0 C0.99 0.33 1.98 0.66 3 1 C2.54625 1.7425 2.0925 2.485 1.625 3.25 C0.31359204 5.46930578 -0.88280803 7.67967822 -2 10 C-2.6875 8.375 -2.6875 8.375 -3 6 C-1.5625 2.75 -1.5625 2.75 0 0 Z " fill="#1E689E" transform="translate(75,86)"/>
<path d="M0 0 C0.5775 0.763125 1.155 1.52625 1.75 2.3125 C3.71703093 4.66200917 5.48476744 6.29323505 8 8 C6.68 8.33 5.36 8.66 4 9 C4 8.34 4 7.68 4 7 C2.68 6.34 1.36 5.68 0 5 C0 3.35 0 1.7 0 0 Z " fill="#2168A4" transform="translate(146,81)"/>
<path d="M0 0 C3.53586014 3.17320782 5.58578031 5.16743695 6 10 C5.01 10 4.02 10 3 10 C3 8.68 3 7.36 3 6 C1.08333079 3.74934898 1.08333079 3.74934898 -1 2 C-0.67 1.34 -0.34 0.68 0 0 Z " fill="#4079AC" transform="translate(357,72)"/>
<path d="M0 0 C-0.99 0 -1.98 0 -3 0 C-3.33 0.99 -3.66 1.98 -4 3 C-5.875 3.8125 -5.875 3.8125 -8 4 C-8.99 3.34 -9.98 2.68 -11 2 C-3.57142857 -1.57142857 -3.57142857 -1.57142857 0 0 Z " fill="#3E79AA" transform="translate(192,39)"/>
<path d="M0 0 C0.33 0 0.66 0 1 0 C0.64766839 5.4611399 0.64766839 5.4611399 0 8 C-2.0625 9.5 -2.0625 9.5 -4 10 C-2.66666667 6.66666667 -1.33333333 3.33333333 0 0 Z " fill="#C3E0F1" transform="translate(129,150)"/>
<path d="M0 0 C1.485 0.99 1.485 0.99 3 2 C3.1875 5.625 3.1875 5.625 3 9 C2.34 9 1.68 9 1 9 C0.67 6.03 0.34 3.06 0 0 Z " fill="#DDF4F9" transform="translate(75,103)"/>
<path d="M0 0 C0 1.98 0 3.96 0 6 C-0.99 6.33 -1.98 6.66 -3 7 C-2.67 5.35 -2.34 3.7 -2 2 C-3.32 1.67 -4.64 1.34 -6 1 C-3.92446352 0.4465236 -2.15634036 0 0 0 Z " fill="#2271AD" transform="translate(275,80)"/>
<path d="M0 0 C0.33 0.66 0.66 1.32 1 2 C1.99 2.33 2.98 2.66 4 3 C6 6 6 6 6 9 C5.34 9 4.68 9 4 9 C0 3.70588235 0 3.70588235 0 0 Z " fill="#2F70A3" transform="translate(74,151)"/>
<path d="M0 0 C1.9375 0.5625 1.9375 0.5625 4 2 C4.75 5.625 4.75 5.625 5 9 C0.57142857 3.85714286 0.57142857 3.85714286 0 0 Z " fill="#2B6AA5" transform="translate(151,147)"/>
<path d="M0 0 C2.88437779 1.29299694 4.87219421 2.65941363 7 5 C6.67 5.99 6.34 6.98 6 8 C5.7525 7.38125 5.505 6.7625 5.25 6.125 C3.79371361 3.64931313 2.62187494 3.04874998 0 2 C0 1.34 0 0.68 0 0 Z " fill="#236296" transform="translate(118,124)"/>
<path d="M0 0 C1.32 0.33 2.64 0.66 4 1 C2.02 3.97 2.02 3.97 0 7 C-0.66 6.01 -1.32 5.02 -2 4 C-1.34 2.68 -0.68 1.36 0 0 Z " fill="#E4F5FB" transform="translate(242,102)"/>
<path d="M0 0 C4.875 1.75 4.875 1.75 6 4 C6.039992 5.99960012 6.04346799 8.00047242 6 10 C4 6.25 4 6.25 4 4 C3.34 4 2.68 4 2 4 C1.34 2.68 0.68 1.36 0 0 Z " fill="#3271A4" transform="translate(135,92)"/>
<path d="M0 0 C-1 2 -1 2 -4.0625 3.125 C-5.5165625 3.558125 -5.5165625 3.558125 -7 4 C-7.66 3.34 -8.32 2.68 -9 2 C-3.375 -1.125 -3.375 -1.125 0 0 Z " fill="#2A6BA2" transform="translate(269,89)"/>
<path d="M0 0 C0.99 0.33 1.98 0.66 3 1 C2.19152271 2.16945792 1.37810888 3.33550461 0.5625 4.5 C0.11003906 5.1496875 -0.34242187 5.799375 -0.80859375 6.46875 C-1.20175781 6.9740625 -1.59492187 7.479375 -2 8 C-2.33 8 -2.66 8 -3 8 C-3 6.35 -3 4.7 -3 3 C-2.34 3 -1.68 3 -1 3 C-0.67 2.01 -0.34 1.02 0 0 Z " fill="#D9EFFB" transform="translate(60,71)"/>
<path d="M0 0 C1.6875 1.5625 1.6875 1.5625 3 3 C-1.05606165 2.53199289 -4.46588679 2.12046792 -8 0 C-4.71303767 -0.79953138 -3.28976808 -1.09658936 0 0 Z " fill="#B8D6E9" transform="translate(120,58)"/>
<path d="M0 0 C0.33 0 0.66 0 1 0 C1 2.64 1 5.28 1 8 C-0.98 8.99 -0.98 8.99 -3 10 C-2.01 6.7 -1.02 3.4 0 0 Z " fill="#AFCFE7" transform="translate(347,147)"/>
<path d="M0 0 C-0.66 1.32 -1.32 2.64 -2 4 C-3.98 4 -5.96 4 -8 4 C-5.57415142 1.34311822 -3.76063134 0 0 0 Z " fill="#CDE6F5" transform="translate(298,84)"/>
<path d="M0 0 C2.97 0.495 2.97 0.495 6 1 C3.08235 2.9451 1.37462715 3.45276317 -2 4 C-1.34 2.68 -0.68 1.36 0 0 Z " fill="#0F61A5" transform="translate(181,42)"/>
<path d="M0 0 C0.99 0.33 1.98 0.66 3 1 C4.1875 4.0625 4.1875 4.0625 5 7 C2.5 5.75 2.5 5.75 0 4 C0 2.68 0 1.36 0 0 Z " fill="#3575AC" transform="translate(192,156)"/>
<path d="M0 0 C0.66 0.33 1.32 0.66 2 1 C0.70700306 3.88437779 -0.65941363 5.87219421 -3 8 C-2.45276317 4.62537285 -1.9451 2.91765 0 0 Z " fill="#EEFCFE" transform="translate(345,156)"/>
<path d="M0 0 C0.66 0 1.32 0 2 0 C3.60355101 3.50776784 4.22036864 6.14354879 4 10 C1.16625119 6.79663178 0.4794463 4.21912747 0 0 Z " fill="#BDDAED" transform="translate(190,146)"/>
<path d="M0 0 C0.99 0.33 1.98 0.66 3 1 C3 4.3 3 7.6 3 11 C2.67 11 2.34 11 2 11 C2 8.36 2 5.72 2 3 C1.01 2.67 0.02 2.34 -1 2 C-0.67 1.34 -0.34 0.68 0 0 Z " fill="#CCE7FA" transform="translate(69,133)"/>
<path d="M0 0 C0 3.20395416 -0.74335022 5.09399739 -2 8 C-2.99 8 -3.98 8 -5 8 C-3.8141763 4.62496331 -2.72426311 2.35277269 0 0 Z " fill="#4980AF" transform="translate(247,101)"/>
</svg>
