<?xml version="1.0" encoding="UTF-8"?>
<svg version="1.1" xmlns="http://www.w3.org/2000/svg" width="451" height="330">
<path d="M0 0 C148.83 0 297.66 0 451 0 C451 108.9 451 217.8 451 330 C302.17 330 153.34 330 0 330 C0 221.1 0 112.2 0 0 Z " fill="#FEFEFE" transform="translate(0,0)"/>
<path d="M0 0 C1.87239103 0.01005267 3.7447873 0.01917446 5.6171875 0.02734375 C10.1615899 0.04916962 14.70573575 0.08357263 19.25 0.125 C19.25 0.785 19.25 1.445 19.25 2.125 C24.53 2.455 29.81 2.785 35.25 3.125 C35.25 3.785 35.25 4.445 35.25 5.125 C36.301875 5.186875 37.35375 5.24875 38.4375 5.3125 C44.73595403 6.09561151 50.44558447 8.6687234 56.25 11.125 C57.35214844 11.5890625 57.35214844 11.5890625 58.4765625 12.0625 C66.6350624 15.82279625 74.16988107 21.55189845 80.25 28.125 C81.11818359 28.929375 81.11818359 28.929375 82.00390625 29.75 C94.31413081 41.31342033 105.52775063 58.99007832 107.25 76.125 C107.41048828 77.52298828 107.41048828 77.52298828 107.57421875 78.94921875 C107.83094956 81.33981607 108.05624926 83.72860927 108.25 86.125 C108.91 86.125 109.57 86.125 110.25 86.125 C111.21144722 139.6800754 111.21144722 139.6800754 97.33203125 159.5078125 C96.02482637 161.35439334 96.02482637 161.35439334 94.75 164.625 C92.66681062 169.48577523 89.99019322 173.92104971 86.7109375 178.07421875 C85.15948014 180.25206664 84.2969003 182.24536821 83.375 184.75 C81.65544016 189.23408296 79.63590555 193.45621111 77.3984375 197.703125 C73.58548033 205.74405508 73.85748292 213.62048069 73.875 222.3125 C73.87388214 223.086008 73.87276428 223.85951599 73.87161255 224.65646362 C73.88134869 238.38495358 75.20729038 251.55736242 77.76928711 265.06665039 C78.4494929 269.39419634 78.81410631 273.76606313 79.25 278.125 C37.67 278.125 -3.91 278.125 -46.75 278.125 C-48.07 271.855 -49.39 265.585 -50.75 259.125 C-52.89492012 254.83515975 -53.49750955 253.969411 -57.75 252.125 C-60.71747967 251.72841938 -63.6468016 251.75507717 -66.63671875 251.7890625 C-68.39779009 251.77654291 -70.15885782 251.76350548 -71.91992188 251.75 C-74.67355418 251.74608546 -77.42682281 251.74994298 -80.18041992 251.76464844 C-100.82857939 251.83146495 -100.82857939 251.83146495 -107.75 246.125 C-114.5366025 237.96133415 -115.073437 229.38143158 -115.22851562 219.17578125 C-115.36594893 214.5566814 -115.78655911 210.60085261 -117.2734375 206.2109375 C-119.16934676 200.45564062 -119.08658116 195.00911742 -118.9375 189 C-118.92396484 187.948125 -118.91042969 186.89625 -118.89648438 185.8125 C-118.86153356 183.24944046 -118.81247682 180.68751087 -118.75 178.125 C-119.87019531 178.13660156 -120.99039063 178.14820313 -122.14453125 178.16015625 C-123.61718583 178.16953622 -125.08984222 178.1786362 -126.5625 178.1875 C-127.66948242 178.20006836 -127.66948242 178.20006836 -128.79882812 178.21289062 C-136.30180558 178.24684075 -136.30180558 178.24684075 -139.4140625 175.8359375 C-141.5440547 173.10805275 -141.15508335 170.67957539 -141.046875 167.3359375 C-140.64954302 164.37685985 -139.48462226 162.52678467 -137.75 160.125 C-137.45738281 159.37734375 -137.16476563 158.6296875 -136.86328125 157.859375 C-135.60021444 154.75710565 -134.02081821 152.00526124 -132.3125 149.125 C-131.71566406 148.114375 -131.11882812 147.10375 -130.50390625 146.0625 C-129.44465047 144.28842351 -128.38289756 142.51583002 -127.31640625 140.74609375 C-126.79949219 139.88113281 -126.28257813 139.01617187 -125.75 138.125 C-125.39977783 137.55668457 -125.04955566 136.98836914 -124.6887207 136.40283203 C-117.42694153 124.37441676 -115.74829966 114.53563783 -115.7890625 100.61767578 C-115.70176323 95.04689112 -114.74115832 89.59856089 -113.75 84.125 C-113.61851563 83.33609375 -113.48703125 82.5471875 -113.3515625 81.734375 C-110.93256199 69.04603269 -104.62969372 57.49046256 -98.75 46.125 C-98.09 46.125 -97.43 46.125 -96.75 46.125 C-96.5025 45.40957031 -96.255 44.69414063 -96 43.95703125 C-94.61136405 40.81090294 -92.90536054 38.48689037 -90.75 35.8125 C-90.04875 34.92949219 -89.3475 34.04648437 -88.625 33.13671875 C-88.00625 32.47285156 -87.3875 31.80898438 -86.75 31.125 C-86.09 31.125 -85.43 31.125 -84.75 31.125 C-84.54117188 30.56167969 -84.33234375 29.99835937 -84.1171875 29.41796875 C-82.23690814 26.26447166 -79.81766639 24.61392196 -76.875 22.4375 C-75.82570313 21.64988281 -74.77640625 20.86226562 -73.6953125 20.05078125 C-71.20813646 18.42455076 -69.63914552 17.53673813 -66.75 17.125 C-66.75 16.465 -66.75 15.805 -66.75 15.125 C-58.56920917 10.63336689 -50.52972466 6.72032317 -41.5 4.25 C-40.45803467 3.96443237 -40.45803467 3.96443237 -39.39501953 3.6730957 C-37.18887634 3.10500228 -34.97689248 2.60524633 -32.75 2.125 C-31.92918945 1.93663574 -31.10837891 1.74827148 -30.26269531 1.55419922 C-20.24593121 -0.45517287 -10.16499602 -0.09548826 0 0 Z " fill="#026CB6" transform="translate(212.75,25.875)"/>
<path d="M0 0 C2.99313332 3.61240229 2.94860948 6.65483313 2.9375 11.1875 C2.94136719 12.7653125 2.94136719 12.7653125 2.9453125 14.375 C2.8125 17.1875 2.8125 17.1875 1.8125 20.1875 C0.74128906 20.17589844 -0.32992187 20.16429688 -1.43359375 20.15234375 C-2.83072743 20.14296701 -4.22786299 20.13386669 -5.625 20.125 C-6.68557617 20.11243164 -6.68557617 20.11243164 -7.76757812 20.09960938 C-9.57443559 20.09096412 -11.38137603 20.13529989 -13.1875 20.1875 C-14.4553956 21.23240735 -14.4553956 21.23240735 -14.3125 23.5625 C-14.30093738 26.29843048 -14.30093738 26.29843048 -13.1875 29.1875 C-12.31867188 29.22488281 -11.44984375 29.26226562 -10.5546875 29.30078125 C2.6808274 30.0558274 2.6808274 30.0558274 7.8125 35.1875 C8.1686799 39.28356885 7.66089114 41.60624217 5.8125 45.1875 C5.64499586 47.85459069 5.64499586 47.85459069 5.8125 50.1875 C8.1225 50.8475 10.4325 51.5075 12.8125 52.1875 C13.1425 51.1975 13.4725 50.2075 13.8125 49.1875 C14.4725 49.1875 15.1325 49.1875 15.8125 49.1875 C16.58229898 45.53095485 16.97296794 41.91510079 17.125 38.1875 C17.16238281 37.383125 17.19976562 36.57875 17.23828125 35.75 C16.97840055 32.98652932 16.97840055 32.98652932 14.828125 30.5 C12.08186203 25.98676163 12.18524355 22.36801571 12.25 17.1875 C12.21422852 15.87265625 12.21422852 15.87265625 12.17773438 14.53125 C12.18757819 10.17371944 12.39244773 7.10879984 15.16015625 3.625 C19.49253312 -0.35644796 23.40490746 -0.09051152 29.02734375 -0.03125 C35.77106015 0.49841075 42.18113444 4.19318747 46.625 9.25 C47.8125 11.1875 47.8125 11.1875 48.8125 14.1875 C49.5859375 14.11789063 50.359375 14.04828125 51.15625 13.9765625 C57.93277506 13.62431739 62.05862123 13.9646985 67.19921875 18.5625 C67.73160156 19.09875 68.26398438 19.635 68.8125 20.1875 C69.575625 20.909375 70.33875 21.63125 71.125 22.375 C72.87347292 25.28912153 73.32014445 27.38975911 74 30.6875 C74.93798767 34.78398706 74.93798767 34.78398706 77.7890625 37.66015625 C79.36004716 38.39310729 80.93844524 39.11035359 82.5234375 39.8125 C86.79340736 42.37739657 88.65665838 46.84047509 90.8125 51.1875 C91.18890625 51.80109375 91.5653125 52.4146875 91.953125 53.046875 C94.73404357 59.97389034 93.52812681 70.64386231 90.7890625 77.453125 C88.75656482 81.06284088 86.09692527 82.64115538 82.37890625 84.22265625 C76.32761277 85.85975317 70.10732964 85.98625055 63.87109375 86.3984375 C62.86691406 86.47320312 61.86273438 86.54796875 60.828125 86.625 C59.91321289 86.68558594 58.99830078 86.74617188 58.05566406 86.80859375 C55.61578443 86.99791118 55.61578443 86.99791118 53.8125 89.1875 C53.47916667 91.6875 53.47916667 91.6875 53.8125 94.1875 C55.60959564 96.40620993 55.60959564 96.40620993 58.05908203 96.41455078 C59.42589111 96.39884033 59.42589111 96.39884033 60.8203125 96.3828125 C61.80644531 96.37636719 62.79257812 96.36992187 63.80859375 96.36328125 C64.84113281 96.34652344 65.87367188 96.32976562 66.9375 96.3125 C67.97777344 96.30347656 69.01804687 96.29445313 70.08984375 96.28515625 C72.66429092 96.26153747 75.23828212 96.22860149 77.8125 96.1875 C77.83804637 97.60276879 77.85610141 99.01817381 77.87109375 100.43359375 C77.88197021 101.2217749 77.89284668 102.00995605 77.90405273 102.82202148 C77.70407485 107.98891669 76.28766251 111.63542026 72.71484375 115.39453125 C64.84414613 122.49735593 59.3448808 124.22104968 49 124.75 C48.21173828 124.79318359 47.42347656 124.83636719 46.61132812 124.88085938 C44.67855785 124.98628321 42.74554974 125.08733094 40.8125 125.1875 C40.80839111 125.86329102 40.80428223 126.53908203 40.80004883 127.23535156 C40.76711055 130.303618 40.6964674 133.36989926 40.625 136.4375 C40.61629883 138.03271484 40.61629883 138.03271484 40.60742188 139.66015625 C40.38457424 147.53410612 40.38457424 147.53410612 37.44921875 150.88671875 C34.17088644 152.50402936 32.42003755 152.86391329 28.8125 152.1875 C22.17334397 147.65344222 19.83388984 138.95387504 17.8125 131.5 C16.44452925 126.96859688 14.94035186 122.80762879 11.8125 119.1875 C9.53936402 118.30895214 7.49748084 118.00716189 5.08203125 117.71875 C2.3106026 117.07001627 1.14558607 115.97130349 -0.875 114 C-2.52219242 112.39543528 -2.52219242 112.39543528 -4.1875 111.1875 C-7.01187198 111.22451276 -7.01187198 111.22451276 -10.1875 112.1875 C-17.73193097 112.81709183 -23.89983478 112.69536207 -30.1875 108.1875 C-33.24925719 105.52510245 -35.92246155 103.09761885 -37.1875 99.1875 C-37.2652346 96.85546188 -37.27717728 94.51910941 -37.1875 92.1875 C-38.30125 92.6825 -38.30125 92.6825 -39.4375 93.1875 C-45.92842649 94.91841373 -53.13686979 95.4769526 -59.4375 92.75 C-65.09721274 89.42284669 -69.65579571 84.18431273 -72.625 78.375 C-73.51289137 73.34361558 -73.87415366 68.28350095 -74.1875 63.1875 C-74.8475 63.1875 -75.5075 63.1875 -76.1875 63.1875 C-79.03958561 57.0856276 -79.5198815 49.48500796 -77.51171875 43.0078125 C-76.6875 41.375 -76.6875 41.375 -75.1875 39.1875 C-74.5275 39.1875 -73.8675 39.1875 -73.1875 39.1875 C-73.0946875 38.589375 -73.001875 37.99125 -72.90625 37.375 C-71.81814676 34.06338146 -69.49018018 32.79279981 -66.78125 30.75 C-64.93391453 28.9388868 -64.57868346 27.70846011 -64.1875 25.1875 C-63.5275 25.1875 -62.8675 25.1875 -62.1875 25.1875 C-61.960625 24.61 -61.73375 24.0325 -61.5 23.4375 C-58.35488774 18.04587898 -52.99557282 15.74241713 -47.1875 14.1875 C-43.32253278 13.88436532 -39.95276539 14.3015552 -36.1875 15.1875 C-35.671875 13.99125 -35.15625 12.795 -34.625 11.5625 C-31.78545791 5.84285094 -27.40200639 2.66383759 -22.1875 -0.8125 C-15.14916767 -2.31001752 -6.3852626 -3.6308356 0 0 Z " fill="#F6FAFC" transform="translate(203.1875,54.8125)"/>
<path d="M0 0 C3.81067464 2.476003 7.09743624 4.84255037 9.44921875 8.80078125 C10.36016209 14.79335948 10.09983308 19.83594576 6.44921875 24.80078125 C6.07296049 26.45828498 5.73402257 28.12513938 5.44921875 29.80078125 C6.12984375 29.93613281 6.81046875 30.07148437 7.51171875 30.2109375 C25.4100312 34.18569572 52.31372204 44.54568979 63.07421875 60.11328125 C65.30425911 66.09384405 65.49568057 71.89394285 63.32421875 77.92578125 C60.84083797 80.40916203 58.88972741 80.57141401 55.44921875 80.80078125 C53.25531615 77.50992735 53.24431122 76.65132145 53.38671875 72.86328125 C53.49947537 69.61294911 53.38442591 66.92538813 52.44921875 63.80078125 C51.78921875 63.80078125 51.12921875 63.80078125 50.44921875 63.80078125 C48.20019867 61.66709553 46.04471572 59.52485143 44.07421875 57.12890625 C42.51318032 55.60266988 42.51318032 55.60266988 40.2578125 55.5859375 C39.47535156 55.67746094 38.69289063 55.76898438 37.88671875 55.86328125 C37.10167969 55.93675781 36.31664062 56.01023438 35.5078125 56.0859375 C33.28133248 56.60561056 33.28133248 56.60561056 32.359375 58.71875 C31.90884766 59.74935547 31.90884766 59.74935547 31.44921875 60.80078125 C26.11588542 64.80078125 26.11588542 64.80078125 23.44921875 64.80078125 C23.44921875 65.46078125 23.44921875 66.12078125 23.44921875 66.80078125 C17.07004485 69.2815711 11.17267905 71.38122071 4.3828125 69.109375 C-0.30724016 66.98238717 -4.64742477 64.13446775 -7.55078125 59.80078125 C-8.05078125 56.55078125 -8.05078125 56.55078125 -7.55078125 53.80078125 C-5.55078125 51.80078125 -5.55078125 51.80078125 -3.30078125 51.36328125 C0.72833239 52.0042766 2.44832551 54.06663407 5.44921875 56.80078125 C8.47051962 58.31143169 11.18396642 58.35492079 14.44921875 57.80078125 C17.13430089 56.67386041 19.65864199 55.38539684 22.21484375 53.9921875 C24.44921875 52.80078125 24.44921875 52.80078125 27.44921875 51.80078125 C27.44921875 50.48078125 27.44921875 49.16078125 27.44921875 47.80078125 C26.85496094 47.630625 26.26070312 47.46046875 25.6484375 47.28515625 C21.02508234 45.93338211 16.50827025 44.46822253 12.01171875 42.73828125 C2.66459521 39.31668343 -7.59960721 37.38702825 -17.55078125 38.80078125 C-19.93914736 40.23780656 -20.88518265 41.50340387 -22.55078125 43.80078125 C-23.21078125 43.80078125 -23.87078125 43.80078125 -24.55078125 43.80078125 C-24.55078125 44.46078125 -24.55078125 45.12078125 -24.55078125 45.80078125 C-27.06874278 47.38616443 -28.22943711 47.83814685 -31.23828125 47.48828125 C-33.55078125 46.80078125 -33.55078125 46.80078125 -34.55078125 45.80078125 C-34.59158908 43.80119761 -34.59332481 41.80032871 -34.55078125 39.80078125 C-33.89078125 39.80078125 -33.23078125 39.80078125 -32.55078125 39.80078125 C-32.26203125 39.22328125 -31.97328125 38.64578125 -31.67578125 38.05078125 C-30.11328125 34.92578125 -30.11328125 34.92578125 -28.55078125 31.80078125 C-29.52015625 31.12015625 -30.48953125 30.43953125 -31.48828125 29.73828125 C-34.22509548 27.47266381 -34.53841779 26.84858663 -35.48828125 23.17578125 C-35.55078125 19.80078125 -35.55078125 19.80078125 -34.55078125 16.80078125 C-31.86328125 16.48828125 -31.86328125 16.48828125 -28.55078125 16.80078125 C-25.98828125 19.11328125 -25.98828125 19.11328125 -23.55078125 21.80078125 C-19.48691572 24.80890947 -16.24172907 25.25447528 -11.23828125 25.48828125 C-9.98402344 25.55402344 -8.72976562 25.61976562 -7.4375 25.6875 C-6.48488281 25.72488281 -5.53226563 25.76226562 -4.55078125 25.80078125 C-4.33421875 24.90359375 -4.33421875 24.90359375 -4.11328125 23.98828125 C-3.66353735 22.23927721 -3.12185784 20.51401102 -2.55078125 18.80078125 C-1.89078125 18.80078125 -1.23078125 18.80078125 -0.55078125 18.80078125 C-0.83321714 13.88196251 -0.83321714 13.88196251 -3.30078125 9.80078125 C-6.19807664 8.51309441 -7.57342196 8.80832815 -10.55078125 9.80078125 C-11.54078125 10.46078125 -12.53078125 11.12078125 -13.55078125 11.80078125 C-18.09132179 11.26024071 -18.09132179 11.26024071 -19.55078125 9.80078125 C-19.95758228 6.13957197 -20.05093375 4.43890685 -17.73828125 1.48828125 C-12.73568894 -2.37086139 -5.6450082 -2.65393188 0 0 Z " fill="#0968B0" transform="translate(182.55078125,82.19921875)"/>
<path d="M0 0 C6.21131724 -0.43588191 10.04460692 0.12972949 15 4 C19.4893082 8.19652723 20.59526464 11.31703714 20.95703125 17.2421875 C20.97121094 17.82226562 20.98539062 18.40234375 21 19 C21.57234375 18.8453125 22.1446875 18.690625 22.734375 18.53125 C26.59445989 17.62612665 30.08374734 17.19371269 34 18 C37.63616601 20.33056278 41.04576834 23.09153667 43 27 C43.09584979 28.8521563 43.12983606 30.70787153 43.125 32.5625 C43.12886719 34.04943359 43.12886719 34.04943359 43.1328125 35.56640625 C43 38 43 38 42 39 C40.00041636 39.04080783 37.99954746 39.04254356 36 39 C34.35 35.7 32.7 32.4 31 29 C27.47403548 28.6720033 25.543928 28.660045 22.5 30.5625 C20.50560265 32.50703742 18.8559069 34.40115593 17.125 36.5625 C14.16976525 40.08459563 11.47125533 41.66646771 7 43 C3.1875 43.3125 3.1875 43.3125 0 43 C-2 41 -2 41 -2.125 38.6875 C-0.3978418 34.56151097 3.05828577 32.89427984 7 31 C7.66 31 8.32 31 9 31 C10.16903873 27.49288381 10.16839619 24.63217614 10.1875 20.9375 C10.20876953 19.06384766 10.20876953 19.06384766 10.23046875 17.15234375 C10.33812605 13.90234913 10.33812605 13.90234913 8 12 C4.87185486 11.75639927 4.87185486 11.75639927 1.375 11.875 C-0.40777344 11.90207031 -0.40777344 11.90207031 -2.2265625 11.9296875 C-3.14179688 11.95289062 -4.05703125 11.97609375 -5 12 C-6.34261242 5.53104925 -6.34261242 5.53104925 -4.75 3.0625 C-3 2 -3 2 0 2 C0 1.34 0 0.68 0 0 Z " fill="#0A6EB8" transform="translate(237,81)"/>
<path d="M0 0 C2.6875 -0.3125 2.6875 -0.3125 6 0 C8.5625 2.3125 8.5625 2.3125 11 5 C15.06386553 8.00812822 18.30905218 8.45369403 23.3125 8.6875 C24.56675781 8.75324219 25.82101563 8.81898437 27.11328125 8.88671875 C28.06589844 8.92410156 29.01851562 8.96148437 30 9 C30.12375 8.401875 30.2475 7.80375 30.375 7.1875 C31 5 31 5 33 2 C33.433125 2.495 33.86625 2.99 34.3125 3.5 C35.99740483 5.33218192 35.99740483 5.33218192 39 5 C39 7.97 39 10.94 39 14 C39.63808594 14.18175781 40.27617187 14.36351563 40.93359375 14.55078125 C41.75988281 14.80214844 42.58617187 15.05351563 43.4375 15.3125 C44.26121094 15.55613281 45.08492187 15.79976562 45.93359375 16.05078125 C46.61550781 16.36402344 47.29742187 16.67726563 48 17 C48.495 18.485 48.495 18.485 49 20 C46.63181426 21.4959868 45.40539342 22.04649908 42.58203125 21.72265625 C41.66808594 21.50480469 40.75414062 21.28695312 39.8125 21.0625 C34.41975136 20.02645469 29.50518668 19.95543912 24.0625 20.3125 C22.98029175 20.38319702 22.98029175 20.38319702 21.8762207 20.45532227 C18.1857118 20.73410327 14.60848836 21.17379034 11 22 C11 22.99 11 23.98 11 25 C9.02 25.33 7.04 25.66 5 26 C5 25.34 5 24.68 5 24 C4.34 24 3.68 24 3 24 C4 21 5 18 6 15 C5.030625 14.319375 4.06125 13.63875 3.0625 12.9375 C0.32568577 10.67188256 0.01236346 10.04780538 -0.9375 6.375 C-1 3 -1 3 0 0 Z " fill="#056BB5" transform="translate(148,99)"/>
<path d="M0 0 C6.21131724 -0.43588191 10.04460692 0.12972949 15 4 C19.4893082 8.19652723 20.59526464 11.31703714 20.95703125 17.2421875 C20.97121094 17.82226562 20.98539062 18.40234375 21 19 C21.57234375 18.8453125 22.1446875 18.690625 22.734375 18.53125 C26.59445989 17.62612665 30.08374734 17.19371269 34 18 C37.63616601 20.33056278 41.04576834 23.09153667 43 27 C43.09584979 28.8521563 43.12983606 30.70787153 43.125 32.5625 C43.12886719 34.04943359 43.12886719 34.04943359 43.1328125 35.56640625 C43 38 43 38 42 39 C39.0625 39.25 39.0625 39.25 36 39 C33.5705484 35.3558226 33.83820425 33.28758728 34 29 C34.99 29 35.98 29 37 29 C37 29.66 37 30.32 37 31 C37.99 31.33 38.98 31.66 40 32 C40.33 30.02 40.66 28.04 41 26 C40.38125 25.896875 39.7625 25.79375 39.125 25.6875 C37 25 37 25 35 22 C30.91951718 20.63983906 27.17901445 21.02791157 22.91015625 21.16015625 C20.01118017 21.00061528 18.44436373 20.50195844 16 19 C16.33 16.69 16.66 14.38 17 12 C16.34 12 15.68 12 15 12 C14.67 10.35 14.34 8.7 14 7 C12.68 8.65 11.36 10.3 10 12 C10.66 12 11.32 12 12 12 C13.75163456 15.77222089 14.22490027 18.666639 14.125 22.8125 C14.10695312 23.78832031 14.08890625 24.76414062 14.0703125 25.76953125 C14.04710937 26.50558594 14.02390625 27.24164063 14 28 C13.34 28.33 12.68 28.66 12 29 C11.96261719 28.19175781 11.92523438 27.38351563 11.88671875 26.55078125 C11.82097656 25.48214844 11.75523437 24.41351563 11.6875 23.3125 C11.62949219 22.25675781 11.57148438 21.20101562 11.51171875 20.11328125 C10.93658311 16.6141736 10.35443605 14.66836086 8 12 C4.80624623 11.39442058 4.80624623 11.39442058 1.3125 11.6875 C0.13300781 11.73261719 -1.04648438 11.77773437 -2.26171875 11.82421875 C-3.61716797 11.91123047 -3.61716797 11.91123047 -5 12 C-6.34261242 5.53104925 -6.34261242 5.53104925 -4.75 3.0625 C-3 2 -3 2 0 2 C0 1.34 0 0.68 0 0 Z " fill="#0966AE" transform="translate(237,81)"/>
<path d="M0 0 C1.890625 0.828125 1.890625 0.828125 4.453125 2.328125 C4.453125 2.658125 4.453125 2.988125 4.453125 3.328125 C2.5659375 3.080625 2.5659375 3.080625 0.640625 2.828125 C-9.16956872 1.59523118 -9.16956872 1.59523118 -18.609375 3.640625 C-20.91527698 5.64899124 -22.40537965 7.31447136 -22.83740234 10.40942383 C-22.88667104 12.98702447 -22.91818936 15.56251749 -22.921875 18.140625 C-22.94636719 19.03072266 -22.97085938 19.92082031 -22.99609375 20.83789062 C-23.02203355 26.67002153 -22.11774888 29.55068632 -18.546875 34.328125 C-17.44071333 40.47763395 -18.30099467 46.95930451 -21.796875 52.203125 C-24.42652709 53.89361563 -26.49987289 53.65227416 -29.546875 53.328125 C-31.546875 51.328125 -31.546875 51.328125 -31.55859375 49.41796875 C-30.65798611 43.43923611 -30.65798611 43.43923611 -29.546875 42.328125 C-29.12280401 37.66334415 -29.85367975 35.14348494 -32.546875 31.328125 C-30.566875 30.998125 -28.586875 30.668125 -26.546875 30.328125 C-26.216875 31.978125 -25.886875 33.628125 -25.546875 35.328125 C-25.5782959 34.51657959 -25.6097168 33.70503418 -25.64208984 32.86889648 C-25.76732586 29.16809307 -25.84501456 25.46773612 -25.921875 21.765625 C-25.97214844 20.48880859 -26.02242187 19.21199219 -26.07421875 17.89648438 C-26.23998326 7.25992823 -26.23998326 7.25992823 -22.6484375 2.98828125 C-16.99339445 -2.42705396 -7.2720586 -1.91839583 0 0 Z " fill="#046AB6" transform="translate(239.546875,53.671875)"/>
<path d="M0 0 C0.33 0 0.66 0 1 0 C1.34087334 1.54001707 1.67230953 3.08212406 2 4.625 C2.185625 5.48351562 2.37125 6.34203125 2.5625 7.2265625 C3 10 3 10 3 16 C-38.58 16 -80.16 16 -123 16 C-123 13.36 -123 10.72 -123 8 C-121 10 -121 10 -121 14 C-119.97303009 13.98747192 -118.94606018 13.97494385 -117.88796997 13.96203613 C-108.03876773 13.84215838 -98.18954085 13.72450895 -88.34028816 13.60884857 C-83.28104459 13.54937114 -78.22181152 13.48920288 -73.16259766 13.42724609 C-48.44046627 13.12505352 -23.72411966 12.9178884 1 13 C0.83701416 12.22116455 0.67402832 11.4423291 0.50610352 10.63989258 C-0.1857612 7.03104878 -0.06220444 3.67006206 0 0 Z " fill="#1F6AAB" transform="translate(289,288)"/>
<path d="M0 0 C3.58988244 0.40794119 5.09450463 1.94408521 7.75 4.3125 C10.75313748 5.81406874 13.54067522 5.40531204 16.875 5.375 C18.15632813 5.36597656 19.43765625 5.35695312 20.7578125 5.34765625 C22.23894531 5.33025391 22.23894531 5.33025391 23.75 5.3125 C24.08 6.3025 24.41 7.2925 24.75 8.3125 C23.76 8.9725 22.77 9.6325 21.75 10.3125 C22.41 10.3125 23.07 10.3125 23.75 10.3125 C23.75 10.9725 23.75 11.6325 23.75 12.3125 C18.7128416 15.29172195 13.42618764 15.02291147 7.75 14.3125 C2.96562543 12.52266203 -0.40105914 10.5859113 -3.25 6.3125 C-3.4375 3.6875 -3.4375 3.6875 -3.25 1.3125 C-2.25 0.3125 -2.25 0.3125 0 0 Z " fill="#0562AD" transform="translate(180.25,134.6875)"/>
<path d="M0 0 C5.72153733 0.84465577 9.40436566 3.66288743 14 7 C14.58523437 7.41636719 15.17046875 7.83273438 15.7734375 8.26171875 C19.5780956 11.16832303 22.49240124 14.43461618 24 19 C24.63682782 23.98013668 24.5822202 28.38272165 22.875 33.125 C20.39161922 35.60838078 18.44050866 35.77063276 15 36 C12.7499487 32.62492304 12.80928478 31.91875815 13.25 28.0625 C13.33765625 27.20785156 13.4253125 26.35320312 13.515625 25.47265625 C14.0036346 22.98144597 14.7642812 21.20259801 16 19 C16.37125 18.2575 16.7425 17.515 17.125 16.75 C17.41375 16.1725 17.7025 15.595 18 15 C17.175 14.21625 16.35 13.4325 15.5 12.625 C13 10 13 10 13 8 C12.34 7.773125 11.68 7.54625 11 7.3125 C7.09257775 5.60300277 3.47578462 3.47531064 0 1 C0 0.67 0 0.34 0 0 Z " fill="#186CAC" transform="translate(223,127)"/>
<path d="M0 0 C2.6875 -0.3125 2.6875 -0.3125 6 0 C8.5625 2.3125 8.5625 2.3125 11 5 C14.71316201 7.62105554 17.8338594 8.5476942 22.3125 9.1875 C23.38113281 9.34605469 24.44976562 9.50460938 25.55078125 9.66796875 C26.35902344 9.77753906 27.16726562 9.88710937 28 10 C28 10.33 28 10.66 28 11 C22.72 11.66 17.44 12.32 12 13 C12 13.66 12 14.32 12 15 C11.34 15 10.68 15 10 15 C9.34 16.98 8.68 18.96 8 21 C7.34 20.67 6.68 20.34 6 20 C6.185625 18.9171875 6.185625 18.9171875 6.375 17.8125 C6.28453178 14.67326053 6.28453178 14.67326053 3.0625 12.625 C2.5159375 12.21765625 1.969375 11.8103125 1.40625 11.390625 C-1.04593455 8.96568695 -0.93892003 6.2983182 -1 3 C-0.67 2.01 -0.34 1.02 0 0 Z " fill="#066BB6" transform="translate(148,99)"/>
<path d="M0 0 C0 0.66 0 1.32 0 2 C-0.99 2 -1.98 2 -3 2 C-3.33 2.99 -3.66 3.98 -4 5 C-6.0625 5.6875 -6.0625 5.6875 -8 6 C-8 6.66 -8 7.32 -8 8 C-5.36 8 -2.72 8 0 8 C0 8.33 0 8.66 0 9 C-3.81248426 9.02887236 -7.6249407 9.04675492 -11.4375 9.0625 C-12.52611328 9.07087891 -13.61472656 9.07925781 -14.73632812 9.08789062 C-15.77080078 9.09111328 -16.80527344 9.09433594 -17.87109375 9.09765625 C-19.30859985 9.10551147 -19.30859985 9.10551147 -20.77514648 9.11352539 C-23 9 -23 9 -24 8 C-24.04063832 6.33382885 -24.042721 4.66611905 -24 3 C-17.12880516 -1.02455698 -7.75926596 -0.14921665 0 0 Z " fill="#0563AC" transform="translate(280,141)"/>
<path d="M0 0 C1.87239103 0.01005267 3.7447873 0.01917446 5.6171875 0.02734375 C10.1615899 0.04916962 14.70573575 0.08357263 19.25 0.125 C19.25 0.455 19.25 0.785 19.25 1.125 C17.27 1.455 15.29 1.785 13.25 2.125 C13.25 2.455 13.25 2.785 13.25 3.125 C11.66469482 3.13901855 11.66469482 3.13901855 10.04736328 3.15332031 C6.03232413 3.19394543 2.01799465 3.25988123 -1.99658203 3.33251953 C-3.71653963 3.36031747 -5.43661521 3.38173085 -7.15673828 3.39599609 C-18.13940105 3.49239161 -28.2614561 4.50188894 -38.921875 7.203125 C-43.5571253 8.31936895 -48.00069139 8.81859299 -52.75 9.125 C-49.83423347 6.20923347 -46.2552117 5.67284768 -42.375 4.625 C-41.62605469 4.41230469 -40.87710938 4.19960938 -40.10546875 3.98046875 C-26.64949584 0.28177805 -13.85909565 -0.13019002 0 0 Z " fill="#397BB6" transform="translate(212.75,25.875)"/>
<path d="M0 0 C-0.33 0.66 -0.66 1.32 -1 2 C-1.66 2 -2.32 2 -3 2 C-3.33 2.99 -3.66 3.98 -4 5 C-2.02 4.34 -0.04 3.68 2 3 C0.60440273 6.3726934 -0.8921588 8.08045102 -4 10 C-7.57994639 11.3579107 -11.21335269 11.2103693 -15 11 C-17 9 -17 9 -17.125 6.6875 C-15.38396366 2.52835762 -11.91927416 0.98251222 -8 -1 C-4.37673261 -2.2077558 -3.35853631 -1.54311128 0 0 Z " fill="#0267B0" transform="translate(252,113)"/>
<path d="M0 0 C3.53599998 0.07072 6.1041863 0.19163015 8.80078125 2.625 C10.27675028 4.37220916 11.67266996 6.13784833 13 8 C12.68289062 8.59296875 12.36578125 9.1859375 12.0390625 9.796875 C10.76662181 12.49483195 10.40121626 15.05774741 10 18 C9.67 17.34 9.34 16.68 9 16 C8.01 15.67 7.02 15.34 6 15 C6 14.01 6 13.02 6 12 C5.34 12 4.68 12 4 12 C1.26602464 9.47107279 -0.93063422 7.10404867 -3 4 C-2.01 2.68 -1.02 1.36 0 0 Z " fill="#126EB3" transform="translate(229,134)"/>
<path d="M0 0 C0.66 0.99 1.32 1.98 2 3 C0.49373047 2.67515625 0.49373047 2.67515625 -1.04296875 2.34375 C-15.26805832 -1.33715072 -15.26805832 -1.33715072 -28.84375 1.125 C-30.35912502 2.60864907 -30.35912502 2.60864907 -32 5 C-32.66 5 -33.32 5 -34 5 C-34 5.66 -34 6.32 -34 7 C-36.51796153 8.58538318 -37.67865586 9.0373656 -40.6875 8.6875 C-43 8 -43 8 -44 7 C-44.04080783 5.00041636 -44.04254356 2.99954746 -44 1 C-43.34 1 -42.68 1 -42 1 C-41.67 0.01 -41.34 -0.98 -41 -2 C-40.67 -1.34 -40.34 -0.68 -40 0 C-40.33 0.66 -40.66 1.32 -41 2 C-40.34 2 -39.68 2 -39 2 C-39 2.66 -39 3.32 -39 4 C-37.02 3.67 -35.04 3.34 -33 3 C-33 2.01 -33 1.02 -33 0 C-22.86727639 -4.53014103 -10.30260201 -3.78462931 0 0 Z " fill="#1A61A4" transform="translate(192,121)"/>
<path d="M0 0 C1.875 0.25 1.875 0.25 4 1 C6.50267619 4.56521591 6.2997946 8.13139498 6.3125 12.375 C6.32925781 13.66148438 6.34601563 14.94796875 6.36328125 16.2734375 C5.98133229 20.19149454 4.97712676 22.63001614 3 26 C2.01 25.67 1.02 25.34 0 25 C0 24.34 0 23.68 0 23 C-3.96 23 -7.92 23 -12 23 C-11.34 24.65 -10.68 26.3 -10 28 C-7.60884625 29.03343734 -7.60884625 29.03343734 -4.875 29.3125 C-3.96492187 29.45300781 -3.05484375 29.59351562 -2.1171875 29.73828125 C-1.41851562 29.82464844 -0.71984375 29.91101563 0 30 C0 30.33 0 30.66 0 31 C-9.03448276 31.62068966 -9.03448276 31.62068966 -12.625 29.3125 C-14.24864748 26.58182014 -14.49334144 25.12449581 -14 22 C-12 20 -12 20 -9.5390625 19.76953125 C-8.57742187 19.78371094 -7.61578125 19.79789063 -6.625 19.8125 C-5.66851562 19.81894531 -4.71203125 19.82539062 -3.7265625 19.83203125 C-1.33405932 19.97942041 0.71041797 20.32180627 3 21 C3.0816082 18.62429457 3.14077222 16.25144159 3.1875 13.875 C3.21263672 13.20984375 3.23777344 12.5446875 3.26367188 11.859375 C3.33320714 7.13097708 2.40278375 4.04878521 0 0 Z " fill="#1D65A7" transform="translate(202,54)"/>
<path d="M0 0 C8.15754609 0.4078773 13.64173379 6.37382048 19 12 C19.96099609 12.91265625 19.96099609 12.91265625 20.94140625 13.84375 C25.22634781 17.94719312 28.34389023 21.68778046 31 27 C30.34 27.33 29.68 27.66 29 28 C27 26.6875 27 26.6875 25 25 C25 24.01 25 23.02 25 22 C24.195625 21.79375 23.39125 21.5875 22.5625 21.375 C21.2940625 20.694375 21.2940625 20.694375 20 20 C19.62633887 18.00714063 19.29259485 16.00636471 19 14 C17.31980946 12.82342532 17.31980946 12.82342532 15 12 C13.73065315 11.19644352 12.48167913 10.36018077 11.25 9.5 C10.63640625 9.0771875 10.0228125 8.654375 9.390625 8.21875 C8.93171875 7.8165625 8.4728125 7.414375 8 7 C8 6.34 8 5.68 8 5 C7.05125 4.9175 6.1025 4.835 5.125 4.75 C2 4 2 4 0.625 1.9375 C0.41875 1.298125 0.2125 0.65875 0 0 Z " fill="#1A64A6" transform="translate(274,42)"/>
<path d="M0 0 C0.66 0 1.32 0 2 0 C1.34 2.64 0.68 5.28 0 8 C0.70382813 8.14695312 1.40765625 8.29390625 2.1328125 8.4453125 C10.61012228 10.37096772 18.12099554 13.3985024 26 17 C22.31599416 18.23104155 19.08525024 17.90767252 15.25 17.5625 C14.07953125 17.46066406 12.9090625 17.35882813 11.703125 17.25390625 C10.81109375 17.17011719 9.9190625 17.08632812 9 17 C9.33 17.99 9.66 18.98 10 20 C8.35 19.67 6.7 19.34 5 19 C5 18.01 5 17.02 5 16 C5.99 15.34 6.98 14.68 8 14 C7.17798016 11.80882227 7.17798016 11.80882227 4.93359375 11.1484375 C4.10988281 10.89320312 3.28617188 10.63796875 2.4375 10.375 C1.61121094 10.11460938 0.78492188 9.85421875 -0.06640625 9.5859375 C-0.70449219 9.39257812 -1.34257812 9.19921875 -2 9 C-2.25 3.375 -2.25 3.375 0 0 Z " fill="#1566AE" transform="translate(188,104)"/>
<path d="M0 0 C3.58988244 0.40794119 5.09450463 1.94408521 7.75 4.3125 C10.27475462 5.57487731 12.06200466 5.41106404 14.875 5.375 C15.78507812 5.36597656 16.69515625 5.35695312 17.6328125 5.34765625 C18.33148438 5.33605469 19.03015625 5.32445312 19.75 5.3125 C17.75 7.3125 17.75 7.3125 15.1484375 7.5078125 C14.15070313 7.48460937 13.15296875 7.46140625 12.125 7.4375 C10.62066406 7.41042969 10.62066406 7.41042969 9.0859375 7.3828125 C8.31507813 7.35960937 7.54421875 7.33640625 6.75 7.3125 C6.75 8.3025 6.75 9.2925 6.75 10.3125 C6.09 10.3125 5.43 10.3125 4.75 10.3125 C4.42 10.9725 4.09 11.6325 3.75 12.3125 C0.48539027 10.50837357 -1.13929795 9.47855307 -3.25 6.3125 C-3.4375 3.6875 -3.4375 3.6875 -3.25 1.3125 C-2.25 0.3125 -2.25 0.3125 0 0 Z " fill="#0666AF" transform="translate(180.25,134.6875)"/>
<path d="M0 0 C1.890625 0.828125 1.890625 0.828125 4.453125 2.328125 C4.453125 2.658125 4.453125 2.988125 4.453125 3.328125 C2.5659375 3.080625 2.5659375 3.080625 0.640625 2.828125 C-9.16956872 1.59523118 -9.16956872 1.59523118 -18.609375 3.640625 C-21.71677708 6.34707198 -22.78380106 8.57145177 -23.1796875 12.55859375 C-23.26347656 13.36103516 -23.34726563 14.16347656 -23.43359375 14.99023438 C-23.51222656 15.82361328 -23.59085938 16.65699219 -23.671875 17.515625 C-23.75824219 18.36060547 -23.84460938 19.20558594 -23.93359375 20.07617188 C-24.1454489 22.15941423 -24.34714277 24.24368542 -24.546875 26.328125 C-24.876875 26.328125 -25.206875 26.328125 -25.546875 26.328125 C-25.7099557 23.30509205 -25.82823905 20.29095794 -25.921875 17.265625 C-25.97214844 16.41806641 -26.02242187 15.57050781 -26.07421875 14.69726562 C-26.18590245 9.87625237 -25.81015576 7.02995786 -22.6484375 3.26953125 C-17.10002561 -2.46854833 -7.40497254 -1.95345901 0 0 Z " fill="#0F5D9E" transform="translate(239.546875,53.671875)"/>
<path d="M0 0 C0.33 0.66 0.66 1.32 1 2 C1.99 2.33 2.98 2.66 4 3 C4 4.98 4 6.96 4 9 C3.01 9.495 3.01 9.495 2 10 C2 9.34 2 8.68 2 8 C1.34 8 0.68 8 0 8 C0 7.34 0 6.68 0 6 C-0.99 6 -1.98 6 -3 6 C-3.33 7.32 -3.66 8.64 -4 10 C-4.66 8.68 -5.32 7.36 -6 6 C-8.93727294 5.65032465 -11.13527757 5.42148852 -13.6640625 7.11328125 C-15.12525122 8.39092163 -16.56378463 9.69434966 -18 11 C-18.66 11 -19.32 11 -20 11 C-20 9 -20 9 -18.78515625 7.5625 C-14.67854161 3.83767946 -11.40049242 2.20179999 -5.91796875 1.32421875 C-3.69811246 0.94896809 -2.27488047 0 0 0 Z " fill="#026AB7" transform="translate(274,104)"/>
<path d="M0 0 C0.66 0.99 1.32 1.98 2 3 C2.66 2.34 3.32 1.68 4 1 C3.57713653 6.07436158 2.36026553 9.61273245 -0.015625 14.09765625 C-4.53661372 22.83464635 -4.21237098 32.90302102 -4.5625 42.5 C-4.60568359 43.60859375 -4.64886719 44.7171875 -4.69335938 45.859375 C-4.79862214 48.57281506 -4.90075846 51.28633417 -5 54 C-5.33 54 -5.66 54 -6 54 C-6.12547851 49.68083679 -6.21520018 45.36269433 -6.2746582 41.04223633 C-6.29949426 39.57883177 -6.33337629 38.11554704 -6.37719727 36.65258789 C-6.64487709 27.47274436 -6.04543083 20.30814396 -2.16210938 11.77148438 C-0.50418506 7.81754387 -0.21648833 4.25760383 0 0 Z " fill="#105DA0" transform="translate(290,210)"/>
<path d="M0 0 C0.66 0 1.32 0 2 0 C5.1155217 7.7066288 5.44849421 14.68750252 5.52734375 22.91601562 C5.67881956 29.31809622 5.99589631 35.77955327 10.60351562 40.71899414 C11.06435547 41.14172607 11.52519531 41.56445801 12 42 C11.67 42.66 11.34 43.32 11 44 C6.05539376 39.72358379 3.49881878 35.10312093 2.70141602 28.54394531 C2.55446939 25.9024228 2.47775398 23.27026161 2.4375 20.625 C2.29740039 13.52661967 1.61160702 6.9255293 0 0 Z " fill="#2D6EA8" transform="translate(95,227)"/>
<path d="M0 0 C0 0.33 0 0.66 0 1 C-1.918125 1.061875 -1.918125 1.061875 -3.875 1.125 C-10.97429826 1.91007248 -16.85671532 5.53522261 -21.5 10.875 C-21.995 11.57625 -22.49 12.2775 -23 13 C-23.66 13 -24.32 13 -25 13 C-25 13.70125 -25 14.4025 -25 15.125 C-26.55233238 19.58795558 -30.16489997 21.45782663 -34 24 C-33.39355239 20.45864542 -33.04735509 20.03929465 -30.0625 17.5625 C-26.90299686 15.32994388 -26.90299686 15.32994388 -26 12.5 C-24.51671375 8.79178436 -22.2111996 7.34149971 -19 5 C-18.34 5 -17.68 5 -17 5 C-16.67 4.01 -16.34 3.02 -16 2 C-15.34 2 -14.68 2 -14 2 C-14 1.34 -14 0.68 -14 0 C-8.97874074 -0.77916092 -5.02296004 -1.13016601 0 0 Z " fill="#2065A1" transform="translate(164,67)"/>
<path d="M0 0 C3 1 3 1 4.6875 3.9375 C6 7 6 7 6 9 C6.88042969 8.96519531 7.76085937 8.93039063 8.66796875 8.89453125 C9.82941406 8.86746094 10.99085938 8.84039062 12.1875 8.8125 C13.91033203 8.76029297 13.91033203 8.76029297 15.66796875 8.70703125 C20.12507643 9.09892231 22.56241985 10.60136107 25.73046875 13.68359375 C26.21128906 14.26238281 26.69210937 14.84117188 27.1875 15.4375 C27.67605469 16.01371094 28.16460937 16.58992188 28.66796875 17.18359375 C30.07414522 19.10110712 31.16201413 20.76966838 32 23 C31.625 25.25 31.625 25.25 31 27 C30.72027344 26.41992188 30.44054687 25.83984375 30.15234375 25.2421875 C26.97922468 19.05919663 23.33487549 14.16743774 17 11 C15.06168482 11.13456546 13.12426995 11.28227183 11.1875 11.4375 C5.58956865 11.51814247 5.58956865 11.51814247 3.09765625 9.328125 C1.04989759 6.07545328 0 3.88096066 0 0 Z " fill="#125A9D" transform="translate(247,59)"/>
<path d="M0 0 C0.33 0 0.66 0 1 0 C1.13277344 0.60328125 1.26554688 1.2065625 1.40234375 1.828125 C1.57894531 2.62734375 1.75554687 3.4265625 1.9375 4.25 C2.19853516 5.43335938 2.19853516 5.43335938 2.46484375 6.640625 C2.64144531 7.41921875 2.81804687 8.1978125 3 9 C3.10441406 9.71671875 3.20882812 10.4334375 3.31640625 11.171875 C3.84809208 13.16941956 3.84809208 13.16941956 5.8515625 14.12109375 C6.56054688 14.41113281 7.26953125 14.70117188 8 15 C9.11375 15.680625 10.2275 16.36125 11.375 17.0625 C17.17211825 20.02718595 23.6145043 19.82063214 30 20 C25.24977253 23.16681831 21.17163848 22.41843766 15.796875 21.3828125 C10.02148442 19.89281447 5.89100998 18.70891801 2.3125 13.75 C1.68794922 12.69039062 1.68794922 12.69039062 1.05078125 11.609375 C0.70402344 11.07828125 0.35726562 10.5471875 0 10 C-0.66 10 -1.32 10 -2 10 C-1.34 6.7 -0.68 3.4 0 0 Z " fill="#1863A4" transform="translate(165,147)"/>
<path d="M0 0 C-1.25682166 3.77046498 -2.74915196 4.7835127 -6 7 C-9.3826591 8.04701353 -10.59447761 8.13517413 -14 7 C-15.7022294 6.98432829 -17.4054661 7.03265431 -19.10546875 7.12109375 C-20.08837891 7.16943359 -21.07128906 7.21777344 -22.08398438 7.26757812 C-23.10814453 7.32365234 -24.13230469 7.37972656 -25.1875 7.4375 C-26.74114258 7.51581055 -26.74114258 7.51581055 -28.32617188 7.59570312 C-30.88442049 7.72538393 -33.44227938 7.86034978 -36 8 C-35.67 7.34 -35.34 6.68 -35 6 C-32.91796875 5.65283203 -32.91796875 5.65283203 -30.1875 5.5078125 C-28.69669922 5.40919922 -28.69669922 5.40919922 -27.17578125 5.30859375 C-25.09018121 5.18802401 -23.0042361 5.07325561 -20.91796875 4.96484375 C-14.90001841 4.55540682 -10.21120622 3.63740995 -4.83984375 0.83544922 C-3 0 -3 0 0 0 Z " fill="#4382BA" transform="translate(294,135)"/>
<path d="M0 0 C3.96454902 4.57437853 3.48109408 8.62363556 3.4375 14.4375 C3.45748047 15.37916016 3.47746094 16.32082031 3.49804688 17.29101562 C3.49492348 21.71686964 3.41908738 24.30381583 1.09765625 28.16015625 C-1 30 -1 30 -3 30 C-2.125 24.25 -2.125 24.25 -1 22 C-0.84777027 20.33434251 -0.75082785 18.66343504 -0.68359375 16.9921875 C-0.64169922 16.00605469 -0.59980469 15.01992187 -0.55664062 14.00390625 C-0.51732422 12.97136719 -0.47800781 11.93882812 -0.4375 10.875 C-0.39431641 9.83472656 -0.35113281 8.79445312 -0.30664062 7.72265625 C-0.2003712 5.14857472 -0.09833417 2.57439492 0 0 Z " fill="#2C77B5" transform="translate(97,124)"/>
<path d="M0 0 C0.33 0 0.66 0 1 0 C1.63706811 4.24712072 0.90262771 6.64037891 -1.5 10.0625 C-5.23084443 14.69940665 -9.74435314 17.37217657 -15 20 C-16.59447464 20.08400529 -18.19240545 20.10727467 -19.7890625 20.09765625 C-20.73007812 20.09443359 -21.67109375 20.09121094 -22.640625 20.08789062 C-24.11789063 20.07532227 -24.11789063 20.07532227 -25.625 20.0625 C-26.61757812 20.05798828 -27.61015625 20.05347656 -28.6328125 20.04882812 C-31.0886016 20.03702145 -33.54427104 20.020554 -36 20 C-36 19.67 -36 19.34 -36 19 C-34.84242188 18.95101562 -33.68484375 18.90203125 -32.4921875 18.8515625 C-30.9531033 18.77648522 -29.4140419 18.70093957 -27.875 18.625 C-26.73417969 18.57859375 -26.73417969 18.57859375 -25.5703125 18.53125 C-19.13775879 18.1985317 -13.99138689 17.12498014 -8.8125 13.0625 C-8.15894531 12.55847656 -7.50539063 12.05445313 -6.83203125 11.53515625 C-2.56719184 7.96142088 -1.36014285 5.54519777 0 0 Z " fill="#2666A1" transform="translate(280,160)"/>
<path d="M0 0 C5.39449293 -0.27429625 8.51925805 -0.36055646 13 3 C12.67 5.31 12.34 7.62 12 10 C9.03 9.505 9.03 9.505 6 9 C6 8.01 6 7.02 6 6 C4.68 5.34 3.36 4.68 2 4 C2 3.34 2 2.68 2 2 C1.34 1.34 0.68 0.68 0 0 Z " fill="#086CB7" transform="translate(172,83)"/>
<path d="M0 0 C0.33 1.32 0.66 2.64 1 4 C1.57234375 3.8453125 2.1446875 3.690625 2.734375 3.53125 C7.57464954 2.39628907 11.90321965 1.75107882 16.328125 4.38671875 C20.29918284 7.67926851 22.34667016 9.74613921 23 15 C22.01 15.495 22.01 15.495 21 16 C21 14.35 21 12.7 21 11 C20.38125 10.896875 19.7625 10.79375 19.125 10.6875 C17 10 17 10 15 7 C11.71480525 5.90493508 9.26336585 5.90039392 5.8125 5.9375 C4.72582031 5.94652344 3.63914062 5.95554687 2.51953125 5.96484375 C1.68808594 5.97644531 0.85664063 5.98804687 0 6 C-1 3 -1 3 0 0 Z " fill="#1E65A6" transform="translate(257,96)"/>
<path d="M0 0 C0.74056641 0.00902344 1.48113281 0.01804688 2.24414062 0.02734375 C4.05873467 0.05075787 5.87316071 0.08662385 7.6875 0.125 C7.6875 0.455 7.6875 0.785 7.6875 1.125 C6.43646484 1.16367187 6.43646484 1.16367187 5.16015625 1.203125 C-7.15468959 1.82380452 -14.8412445 5.18311919 -23.3125 14.125 C-22.5625 7.375 -22.5625 7.375 -20.3125 5.125 C-17.99995988 4.07781202 -15.6639852 3.08153635 -13.3125 2.125 C-12.58289063 1.76664063 -11.85328125 1.40828125 -11.1015625 1.0390625 C-7.38965048 -0.17744648 -3.85688231 -0.08961478 0 0 Z " fill="#1360A1" transform="translate(192.3125,50.875)"/>
<path d="M0 0 C1.21302679 3.74491493 0.51661227 5.49669379 -1.1640625 9.05078125 C-2.54338053 12.26704152 -3.22313306 15.59373728 -4 19 C-4.66 19 -5.32 19 -6 19 C-6.66 20.98 -7.32 22.96 -8 25 C-8.66 25 -9.32 25 -10 25 C-8.68231441 15.77620086 -4.29548519 8.14144286 0 0 Z " fill="#246BA9" transform="translate(113,74)"/>
<path d="M0 0 C0.33 0 0.66 0 1 0 C1.16682272 4.92127034 1.24828052 8.50343896 -1 13 C0.65 13 2.3 13 4 13 C5.32 10.36 6.64 7.72 8 5 C8.66 5 9.32 5 10 5 C8.44776119 12.28358209 8.44776119 12.28358209 6.75 15 C4.09923208 16.51472452 1.98482198 16.31753425 -1 16 C-1.66 15.34 -2.32 14.68 -3 14 C-2.66621509 8.99322638 -1.76961889 4.71898372 0 0 Z " fill="#27659C" transform="translate(211,91)"/>
<path d="M0 0 C0.33 0.66 0.66 1.32 1 2 C0.22265625 3.69921875 0.22265625 3.69921875 -0.9375 5.6875 C-2.98834424 9.61768931 -3.70370891 12.51385573 -3 17 C-0.14393481 20.05800919 2.59435088 20.400783 6.68359375 20.61914062 C7.36550781 20.64169922 8.04742187 20.66425781 8.75 20.6875 C9.79607422 20.73874023 9.79607422 20.73874023 10.86328125 20.79101562 C12.57497108 20.87308295 14.2874576 20.93822919 16 21 C16 21.33 16 21.66 16 22 C13.39576408 22.02697137 10.79180756 22.04682489 8.1875 22.0625 C7.44951172 22.07087891 6.71152344 22.07925781 5.95117188 22.08789062 C-1.5790694 22.12196411 -1.5790694 22.12196411 -4.65234375 19.6953125 C-6.77257619 17.02812155 -6.58547211 14.80766763 -6.50390625 11.49609375 C-5.58947044 6.96644658 -2.82881393 3.56127467 0 0 Z " fill="#3776AD" transform="translate(78,182)"/>
<path d="M0 0 C0 0.66 0 1.32 0 2 C-0.99 2.66 -1.98 3.32 -3 4 C-2.34 4 -1.68 4 -1 4 C-1 4.66 -1 5.32 -1 6 C-4.4766338 8.14336161 -7.21229195 8.21277626 -11.25 8.125 C-12.32765625 8.10695312 -13.4053125 8.08890625 -14.515625 8.0703125 C-15.33546875 8.04710937 -16.1553125 8.02390625 -17 8 C-17.33 7.01 -17.66 6.02 -18 5 C-12.375 4.75 -12.375 4.75 -9 7 C-9 6.34 -9 5.68 -9 5 C-9.66 4.34 -10.32 3.68 -11 3 C-9.73160474 2.49384702 -8.46016898 1.99530901 -7.1875 1.5 C-6.12595703 1.08234375 -6.12595703 1.08234375 -5.04296875 0.65625 C-3 0 -3 0 0 0 Z " fill="#046DBB" transform="translate(205,141)"/>
<path d="M0 0 C0.78375 0.04125 1.5675 0.0825 2.375 0.125 C0.395 1.115 0.395 1.115 -1.625 2.125 C-1.70726668 5.16886724 -1.60108217 7.19675348 -0.625 10.125 C1.02491582 10.83210678 2.6957762 11.49062656 4.375 12.125 C5.32375 12.805625 6.2725 13.48625 7.25 14.1875 C10.73073099 16.34555321 13.32993144 16.80139452 17.375 17.125 C17.375 17.455 17.375 17.785 17.375 18.125 C10.04501614 18.64857028 5.39824641 17.17239515 -0.4609375 12.734375 C-3.37401827 10.13585225 -4.51748565 8.82384329 -5.125 4.875 C-4.46208187 1.22895026 -3.77306025 0.17966954 0 0 Z " fill="#4278AE" transform="translate(179.625,133.875)"/>
<path d="M0 0 C0.33 0 0.66 0 1 0 C2.19088986 5.38027025 3.2919519 10.45291384 3 16 C2.32493408 15.84152588 1.64986816 15.68305176 0.9543457 15.51977539 C-2.47918448 14.91569426 -5.78427459 14.78399209 -9.26953125 14.68359375 C-10.29103523 14.6524221 -10.29103523 14.6524221 -11.33317566 14.62062073 C-13.49285508 14.55562122 -15.65264846 14.49647288 -17.8125 14.4375 C-19.28321456 14.3942675 -20.75391791 14.35065175 -22.22460938 14.30664062 C-25.81628717 14.19999141 -29.40809082 14.09858651 -33 14 C-33 13.67 -33 13.34 -33 13 C-21.78 13 -10.56 13 1 13 C0.505 10.525 0.505 10.525 0 8 C-0.11678799 5.32321927 -0.0454506 2.68158543 0 0 Z " fill="#0960A6" transform="translate(289,288)"/>
<path d="M0 0 C0.94746094 -0.01417969 1.89492187 -0.02835938 2.87109375 -0.04296875 C5.60751644 0.19135482 7.22678123 0.79048617 9.5625 2.1875 C8.52609375 2.21328125 7.4896875 2.2390625 6.421875 2.265625 C5.05204199 2.32191951 3.68225195 2.37926655 2.3125 2.4375 C1.28962891 2.45876953 1.28962891 2.45876953 0.24609375 2.48046875 C-3.27882523 2.65158132 -5.09261198 2.88829251 -7.796875 5.234375 C-8.33828125 5.87890625 -8.8796875 6.5234375 -9.4375 7.1875 C-10.0975 7.1875 -10.7575 7.1875 -11.4375 7.1875 C-11.7675 10.4875 -12.0975 13.7875 -12.4375 17.1875 C-12.7675 17.1875 -13.0975 17.1875 -13.4375 17.1875 C-14.29809267 7.51061348 -14.29809267 7.51061348 -11.125 3.625 C-7.42716585 0.27115042 -4.82562814 0.03273832 0 0 Z " fill="#BAD8EF" transform="translate(229.4375,54.8125)"/>
<path d="M0 0 C0.33 0 0.66 0 1 0 C1.49421473 9.23906988 -3.41496836 17.25287758 -8 25 C-8.70286303 26.65172812 -9.38655243 28.31301918 -10 30 C-11 28 -11 28 -10.546875 26.01171875 C-10.28390625 25.24472656 -10.0209375 24.47773438 -9.75 23.6875 C-9.49734375 22.92824219 -9.2446875 22.16898438 -8.984375 21.38671875 C-8 19 -8 19 -6.55859375 16.6640625 C-4.6781563 13.44988119 -3.52869038 10.20459111 -2.3125 6.6875 C-2.08755859 6.04232422 -1.86261719 5.39714844 -1.63085938 4.73242188 C-1.08226467 3.15667113 -0.54043041 1.57856946 0 0 Z " fill="#296BA7" transform="translate(317,162)"/>
<path d="M0 0 C0.99 0 1.98 0 3 0 C3.27429625 5.39449293 3.36055646 8.51925805 0 13 C-1.32 12.67 -2.64 12.34 -4 12 C-3.74438677 9.6568787 -3.40729228 7.32156597 -3 5 C-2.34 4.67 -1.68 4.34 -1 4 C-0.34786708 1.97536745 -0.34786708 1.97536745 0 0 Z " fill="#056ABA" transform="translate(242,148)"/>
<path d="M0 0 C2.6875 -0.3125 2.6875 -0.3125 6 0 C8.5625 2.3125 8.5625 2.3125 11 5 C14.71316201 7.62105554 17.8338594 8.5476942 22.3125 9.1875 C23.38113281 9.34605469 24.44976562 9.50460938 25.55078125 9.66796875 C26.35902344 9.77753906 27.16726562 9.88710937 28 10 C28 10.33 28 10.66 28 11 C14.3667426 11.738041 14.3667426 11.738041 8 7 C8 6.34 8 5.68 8 5 C6.68 4.34 5.36 3.68 4 3 C4 2.34 4 1.68 4 1 C2.68 0.67 1.36 0.34 0 0 Z " fill="#3675AF" transform="translate(148,99)"/>
<path d="M0 0 C2.27572807 2.27572807 2.45140427 3.24015141 3.0703125 6.32421875 C3.24433594 7.18853516 3.41835938 8.05285156 3.59765625 8.94335938 C3.77167969 9.84892578 3.94570313 10.75449219 4.125 11.6875 C4.30675781 12.57373047 4.48851562 13.45996094 4.67578125 14.37304688 C5.65451528 19.34398548 6.20784228 23.93557649 6 29 C5.34 29 4.68 29 4 29 C3.32295589 25.48108123 2.66025513 21.95960423 2 18.4375 C1.80921875 17.44685547 1.6184375 16.45621094 1.421875 15.43554688 C0.44768403 10.19927041 -0.23904737 5.32627422 0 0 Z " fill="#B7D3EA" transform="translate(288,275)"/>
<path d="M0 0 C3.3 0 6.6 0 10 0 C11.03159626 3.09478879 10.97482862 4.52631393 10.5625 7.6875 C10.46066406 8.49574219 10.35882813 9.30398437 10.25390625 10.13671875 C10.17011719 10.75160156 10.08632813 11.36648437 10 12 C9.67 12 9.34 12 9 12 C9 9.03 9 6.06 9 3 C-1.89 3.495 -1.89 3.495 -13 4 C-13.33 3.01 -13.66 2.02 -14 1 C-9.38 1 -4.76 1 0 1 C0 0.67 0 0.34 0 0 Z " fill="#3E7EB6" transform="translate(272,148)"/>
<path d="M0 0 C0.66 0 1.32 0 2 0 C1.34 2.64 0.68 5.28 0 8 C1.21236328 8.29003906 1.21236328 8.29003906 2.44921875 8.5859375 C3.51785156 8.84632812 4.58648437 9.10671875 5.6875 9.375 C6.74324219 9.63023438 7.79898438 9.88546875 8.88671875 10.1484375 C11.70406766 10.91905489 14.31668325 11.85498543 17 13 C17 13.66 17 14.32 17 15 C10.28460827 13.70024676 4.27980887 11.70071112 -2 9 C-2.25 3.375 -2.25 3.375 0 0 Z " fill="#1A61A2" transform="translate(188,104)"/>
<path d="M0 0 C0.66 0.33 1.32 0.66 2 1 C1.01 2.485 1.01 2.485 0 4 C-0.66 4 -1.32 4 -2 4 C-2 4.66 -2 5.32 -2 6 C-3.98600337 7.3540932 -5.98817543 8.68457624 -8 10 C-8.66 10.721875 -9.32 11.44375 -10 12.1875 C-12.5687145 14.51539751 -14.60588824 14.69144439 -18 15 C-6.90587849 3.19012872 -6.90587849 3.19012872 0 2 C0 1.34 0 0.68 0 0 Z " fill="#2167A4" transform="translate(146,41)"/>
<path d="M0 0 C0.33 0 0.66 0 1 0 C1.0825 1.19625 1.165 2.3925 1.25 3.625 C1.75911413 7.92587463 3.50743708 10.46216876 6 14 C6 15.32 6 16.64 6 18 C5.34 18 4.68 18 4 18 C4 16.68 4 15.36 4 14 C3.01 14.495 3.01 14.495 2 15 C1.67 15.99 1.34 16.98 1 18 C-1.49055871 14.23564408 -1.03090984 11.13382623 -0.625 6.75 C-0.51414063 5.48671875 -0.40328125 4.2234375 -0.2890625 2.921875 C-0.19367188 1.95765625 -0.09828125 0.9934375 0 0 Z " fill="#2471B1" transform="translate(215,74)"/>
<path d="M0 0 C0.99 1.485 0.99 1.485 2 3 C0.44152344 2.69255859 0.44152344 2.69255859 -1.1484375 2.37890625 C-8.74809307 0.90291748 -16.26388458 -0.46070349 -24 -1 C-24 -1.33 -24 -1.66 -24 -2 C-15.6831392 -3.36094086 -7.95559287 -2.92246269 0 0 Z " fill="#3876B2" transform="translate(192,121)"/>
<path d="M0 0 C1.20628008 2.33214148 2.1654738 4.49642139 3 7 C5.01508358 7.73323796 5.01508358 7.73323796 7 8 C7 8.66 7 9.32 7 10 C6.34 10 5.68 10 5 10 C4.67 11.32 4.34 12.64 4 14 C3.443125 13.2575 2.88625 12.515 2.3125 11.75 C0.06972822 9.08292005 -2.22074975 7.08443768 -5 5 C-3.68 4.67 -2.36 4.34 -1 4 C-0.67 2.68 -0.34 1.36 0 0 Z " fill="#D9EBF9" transform="translate(187,77)"/>
<path d="M0 0 C0.33 0 0.66 0 1 0 C1.96008383 4.80041914 2.39279434 9.12935018 2 14 C0.37109375 16.2265625 0.37109375 16.2265625 -2 18 C-5.015625 18.390625 -5.015625 18.390625 -8.25 18.25 C-9.32765625 18.21390625 -10.4053125 18.1778125 -11.515625 18.140625 C-12.74539062 18.07101563 -12.74539062 18.07101563 -14 18 C-14 17.67 -14 17.34 -14 17 C-13.39671875 16.96261719 -12.7934375 16.92523438 -12.171875 16.88671875 C-11.37265625 16.82097656 -10.5734375 16.75523437 -9.75 16.6875 C-8.96109375 16.62949219 -8.1721875 16.57148438 -7.359375 16.51171875 C-4.42530597 15.8753561 -3.05785552 15.2048452 -1 13 C-0.29875226 9.81403338 -0.29875226 9.81403338 -0.25 6.3125 C-0.19328125 5.13300781 -0.1365625 3.95351562 -0.078125 2.73828125 C-0.05234375 1.83464844 -0.0265625 0.93101562 0 0 Z " fill="#2A6DA8" transform="translate(243,190)"/>
<path d="M0 0 C0.66 0.33 1.32 0.66 2 1 C1.75 2.8125 1.75 2.8125 1 5 C0.360625 5.474375 -0.27875 5.94875 -0.9375 6.4375 C-3.22525407 7.8744 -3.22525407 7.8744 -3.9375 10.625 C-4.288125 11.40875 -4.63875 12.1925 -5 13 C-7.625 13.8125 -7.625 13.8125 -10 14 C-7.20307439 8.72887096 -4.01764453 4.40601683 0 0 Z " fill="#3172B0" transform="translate(126,57)"/>
<path d="M0 0 C1.65 0 3.3 0 5 0 C5.33 0.99 5.66 1.98 6 3 C6.66 3 7.32 3 8 3 C9.75163456 6.77222089 10.22490027 9.666639 10.125 13.8125 C10.10695312 14.78832031 10.08890625 15.76414062 10.0703125 16.76953125 C10.03550781 17.87361328 10.03550781 17.87361328 10 19 C9.34 19.33 8.68 19.66 8 20 C7.96261719 19.19175781 7.92523438 18.38351563 7.88671875 17.55078125 C7.78810547 15.94783203 7.78810547 15.94783203 7.6875 14.3125 C7.60048828 12.72888672 7.60048828 12.72888672 7.51171875 11.11328125 C6.79119892 6.72966058 5.22188467 4.01241872 1.8125 1.1875 C1.214375 0.795625 0.61625 0.40375 0 0 Z " fill="#0E5CA2" transform="translate(241,90)"/>
<path d="M0 0 C2.64 0 5.28 0 8 0 C8 0.33 8 0.66 8 1 C6.3603125 1.37125 6.3603125 1.37125 4.6875 1.75 C0.87478436 3.04244598 -0.20647966 3.51259934 -2 7 C-2.71433121 9.64934822 -2.71433121 9.64934822 -3 12 C-3.66 12 -4.32 12 -5 12 C-6.34261242 5.53104925 -6.34261242 5.53104925 -4.75 3.0625 C-3 2 -3 2 0 2 C0 1.34 0 0.68 0 0 Z " fill="#3773AD" transform="translate(237,81)"/>
<path d="M0 0 C3.3 0 6.6 0 10 0 C10 0.66 10 1.32 10 2 C8.75283203 2.16435547 8.75283203 2.16435547 7.48046875 2.33203125 C6.39378906 2.49058594 5.30710938 2.64914063 4.1875 2.8125 C3.10855469 2.96332031 2.02960938 3.11414063 0.91796875 3.26953125 C-2.10240575 4.02563571 -3.2193249 4.49742959 -5 7 C-5.7269226 10.10839021 -5.7269226 10.10839021 -6 13 C-6.33 13 -6.66 13 -7 13 C-7.36474164 5.58358663 -7.36474164 5.58358663 -5.75 3 C-4 2 -4 2 0 2 C0 1.34 0 0.68 0 0 Z " fill="#C6DEF2" transform="translate(169,79)"/>
<path d="M0 0 C0.99773437 0.02320312 1.99546875 0.04640625 3.0234375 0.0703125 C4.52777344 0.09738281 4.52777344 0.09738281 6.0625 0.125 C6.83335937 0.14820312 7.60421875 0.17140625 8.3984375 0.1953125 C8.3984375 0.5253125 8.3984375 0.8553125 8.3984375 1.1953125 C5.0984375 1.1953125 1.7984375 1.1953125 -1.6015625 1.1953125 C-1.8517782 4.11165379 -1.8517782 4.11165379 -1.6015625 7.1953125 C1.29936252 9.12926251 2.29518487 9.49663191 5.5859375 9.8203125 C6.8440625 9.9440625 8.1021875 10.0678125 9.3984375 10.1953125 C9.3984375 10.5253125 9.3984375 10.8553125 9.3984375 11.1953125 C0.36395474 11.81600216 0.36395474 11.81600216 -3.2265625 9.5078125 C-4.85020998 6.77713264 -5.09490394 5.31980831 -4.6015625 2.1953125 C-2.6015625 0.1953125 -2.6015625 0.1953125 0 0 Z " fill="#5F8EBD" transform="translate(192.6015625,73.8046875)"/>
<path d="M0 0 C-0.33 0.99 -0.66 1.98 -1 3 C-4.5625 4.6875 -4.5625 4.6875 -8 6 C-8 6.99 -8 7.98 -8 9 C-6.02 9.66 -4.04 10.32 -2 11 C-2 11.33 -2 11.66 -2 12 C-5.375 12.125 -5.375 12.125 -9 12 C-11 10 -11 10 -11.125 7.6875 C-9.40260207 3.57288272 -4.61577095 0 0 0 Z " fill="#2464A2" transform="translate(246,112)"/>
<path d="M0 0 C2 1.3125 2 1.3125 4 4 C4.46970575 7.69756739 4.50438177 11.30511027 4 15 C3.34 15.66 2.68 16.32 2 17 C1.86722656 16.32453125 1.73445312 15.6490625 1.59765625 14.953125 C1.42105469 14.06109375 1.24445313 13.1690625 1.0625 12.25 C0.88847656 11.36828125 0.71445313 10.4865625 0.53515625 9.578125 C0.04812709 7.05696283 0.04812709 7.05696283 -0.62890625 4.859375 C-1 3 -1 3 0 0 Z " fill="#1D6AAC" transform="translate(188,87)"/>
<path d="M0 0 C2 2 2 2 2.1953125 3.9453125 C2.13020833 5.96354167 2.06510417 7.98177083 2 10 C4.38564077 9.42415568 6.66682784 8.77772405 9 8 C8.375 9.9375 8.375 9.9375 7 12 C3.875 12.75 3.875 12.75 1 13 C-1.30143236 9.54785147 -1.13833854 8.76520676 -0.625 4.8125 C-0.51414063 3.91144531 -0.40328125 3.01039063 -0.2890625 2.08203125 C-0.19367188 1.39496094 -0.09828125 0.70789063 0 0 Z " fill="#2F6CA4" transform="translate(237,150)"/>
<path d="M0 0 C1.32 0.33 2.64 0.66 4 1 C4 2.32 4 3.64 4 5 C4.99 5.33 5.98 5.66 7 6 C3.7 6.33 0.4 6.66 -3 7 C-3 6.01 -3 5.02 -3 4 C-2.34 4 -1.68 4 -1 4 C-0.67 2.68 -0.34 1.36 0 0 Z " fill="#166CAF" transform="translate(237,86)"/>
<path d="M0 0 C3.52775489 0.30237899 5.03808865 1.02980851 7.875 3.25 C10 6 10 6 9.8125 8.8125 C9.544375 9.534375 9.27625 10.25625 9 11 C8.67 11 8.34 11 8 11 C8 9.35 8 7.7 8 6 C6.68 5.67 5.36 5.34 4 5 C4 4.01 4 3.02 4 2 C2.02 2.33 0.04 2.66 -2 3 C-1.34 2.01 -0.68 1.02 0 0 Z " fill="#B4D1EB" transform="translate(173,90)"/>
<path d="M0 0 C0.5534764 2.07553648 1 3.84365964 1 6 C1.66 6 2.32 6 3 6 C3.33 5.01 3.66 4.02 4 3 C4.66 3.33 5.32 3.66 6 4 C6 4.66 6 5.32 6 6 C6.66 6.33 7.32 6.66 8 7 C5 9 5 9 2.375 8.6875 C0 8 0 8 -1 7 C-1.125 4 -1.125 4 -1 1 C-0.67 0.67 -0.34 0.34 0 0 Z " fill="#2068A6" transform="translate(164,85)"/>
<path d="M0 0 C0.96846689 2.61486062 1.04559628 3.8442127 0.25 6.5625 C-0.96191588 8.92573596 -2.10997525 10.18872628 -4 12 C-5.17574711 14.09989652 -5.17574711 14.09989652 -6 16 C-6.66 16 -7.32 16 -8 16 C-7.07726681 13.44473886 -6.22261781 11.29037105 -4.5625 9.125 C-2.45746569 6.26215335 -1.32990117 3.2930886 0 0 Z " fill="#CCE3F5" transform="translate(310,184)"/>
<path d="M0 0 C1.35862973 3.90480249 0.89469712 7.7101776 0.5625 11.75 C0.51029297 12.44738281 0.45808594 13.14476563 0.40429688 13.86328125 C0.27525928 15.57596203 0.13840386 17.28805066 0 19 C-2.38081145 15.42878282 -2.26906871 13.73325367 -2.25 9.5 C-2.25773437 7.78296875 -2.25773437 7.78296875 -2.265625 6.03125 C-2 3 -2 3 0 0 Z " fill="#0F5F9F" transform="translate(125,96)"/>
<path d="M0 0 C0.66 0 1.32 0 2 0 C2 1.32 2 2.64 2 4 C2.66 4 3.32 4 4 4 C4.2236337 5.41433206 4.42826476 6.83167618 4.625 8.25 C4.74101562 9.03890625 4.85703125 9.8278125 4.9765625 10.640625 C5 13 5 13 3 17 C2.01 11.39 1.02 5.78 0 0 Z " fill="#3074AF" transform="translate(162,283)"/>
<path d="M0 0 C1.65 0 3.3 0 5 0 C3.54331217 2.96783129 1.98767914 5.86415313 0.375 8.75 C-0.29402344 9.94882813 -0.29402344 9.94882813 -0.9765625 11.171875 C-1.31429688 11.77515625 -1.65203125 12.3784375 -2 13 C-2.66 12.01 -3.32 11.02 -4 10 C-3.525625 9.46375 -3.05125 8.9275 -2.5625 8.375 C-0.71813924 5.57157164 -0.37543153 3.30379742 0 0 Z " fill="#2165A5" transform="translate(301,192)"/>
<path d="M0 0 C4.02396312 0.64017595 5.79025037 2.68424453 8.75 5.4375 C8.151875 5.581875 7.55375 5.72625 6.9375 5.875 C5.18849596 6.3247439 3.46322977 6.86642341 1.75 7.4375 C1.42 5.7875 1.09 4.1375 0.75 2.4375 C-0.9 2.4375 -2.55 2.4375 -4.25 2.4375 C-2.25 0.4375 -2.25 0.4375 0 0 Z " fill="#CEE5F4" transform="translate(222.25,136.5625)"/>
<path d="M0 0 C1.98 0.495 1.98 0.495 4 1 C3.01 1 2.02 1 1 1 C2.04491454 6.02242381 2.04491454 6.02242381 5.125 9.9375 C5.74375 10.288125 6.3625 10.63875 7 11 C6.34 11 5.68 11 5 11 C4.67 11.66 4.34 12.32 4 13 C0.38860104 9.38860104 0.38860104 9.38860104 -1 7 C-0.8125 3.125 -0.8125 3.125 0 0 Z " fill="#1860A2" transform="translate(148,100)"/>
<path d="M0 0 C2.61167103 2.61167103 3.07131482 4.9721059 4.125 8.5 C4.47820312 9.6653125 4.83140625 10.830625 5.1953125 12.03125 C6 15 6 15 6 17 C5.34 17 4.68 17 4 17 C1.36536213 11.15439723 -0.56131481 6.45512034 0 0 Z " fill="#296BA8" transform="translate(220,183)"/>
<path d="M0 0 C5.50366792 -0.32374517 9.43672206 -0.53286034 14 3 C13.67 3.66 13.34 4.32 13 5 C11.39402675 4.54803755 9.79027492 4.08817673 8.1875 3.625 C6.84751953 3.24214844 6.84751953 3.24214844 5.48046875 2.8515625 C3 2 3 2 0 0 Z " fill="#3676B0" transform="translate(194,124)"/>
<path d="M0 0 C0.66 0 1.32 0 2 0 C3.29729053 2.59458106 3.2042812 4.60447598 3.25 7.5 C3.27578125 8.4796875 3.3015625 9.459375 3.328125 10.46875 C3.21984375 11.3040625 3.1115625 12.139375 3 13 C2.01 13.66 1.02 14.32 0 15 C0 10.05 0 5.1 0 0 Z " fill="#1A5E9C" transform="translate(244,144)"/>
<path d="M0 0 C0.33 0.66 0.66 1.32 1 2 C0.67 2.66 0.34 3.32 0 4 C0.66 4 1.32 4 2 4 C2 4.66 2 5.32 2 6 C2.99 6 3.98 6 5 6 C4.67 6.99 4.34 7.98 4 9 C2.68 8.67 1.36 8.34 0 8 C0 7.01 0 6.02 0 5 C-0.66 5 -1.32 5 -2 5 C-2.33 6.32 -2.66 7.64 -3 9 C-3 7.02 -3 5.04 -3 3 C-2.34 3 -1.68 3 -1 3 C-0.67 2.01 -0.34 1.02 0 0 Z " fill="#2474B8" transform="translate(151,119)"/>
<path d="M0 0 C1.32 0.66 2.64 1.32 4 2 C3.67 3.98 3.34 5.96 3 8 C2.34 8 1.68 8 1 8 C1 8.99 1 9.98 1 11 C-0.65 11 -2.3 11 -4 11 C-2.71034824 9.62437146 -1.37310707 8.29233607 0 7 C0.66 7 1.32 7 2 7 C2 5.68 2 4.36 2 3 C1.01 2.67 0.02 2.34 -1 2 C-0.67 1.34 -0.34 0.68 0 0 Z " fill="#1A63A8" transform="translate(208,127)"/>
<path d="M0 0 C0.66 0.33 1.32 0.66 2 1 C1.01 2.485 1.01 2.485 0 4 C0 4.66 0 5.32 0 6 C-0.78375 6.45375 -1.5675 6.9075 -2.375 7.375 C-5.1235949 9.07651113 -5.87921032 10.04519084 -7 13 C-7.33 12.34 -7.66 11.68 -8 11 C-5.81389118 6.62778237 -3.67758005 3.28355362 0 0 Z " fill="#C7E0F3" transform="translate(176,57)"/>
<path d="M0 0 C0.33 0 0.66 0 1 0 C1.58173436 5.67191002 -0.20282563 10.15088384 -3 15 C-3.99 15.495 -3.99 15.495 -5 16 C-3.71291613 10.45563871 -2.08135307 5.29798964 0 0 Z " fill="#18629D" transform="translate(317,162)"/>
<path d="M0 0 C0.33 0 0.66 0 1 0 C1.16682272 4.92127034 1.24828052 8.50343896 -1 13 C-0.34 13 0.32 13 1 13 C0.67 13.66 0.34 14.32 0 15 C-0.99 14.67 -1.98 14.34 -3 14 C-2.48594831 9.03083364 -1.76615118 4.70973649 0 0 Z " fill="#3772A9" transform="translate(211,91)"/>
<path d="M0 0 C0 3.96 0 7.92 0 12 C-0.33 12 -0.66 12 -1 12 C-1.268125 11.113125 -1.53625 10.22625 -1.8125 9.3125 C-2.91710819 6.23122452 -4.22849144 3.73778595 -6 1 C-3.92446352 0.4465236 -2.15634036 0 0 0 Z " fill="#0A61A6" transform="translate(213,84)"/>
<path d="M0 0 C0 0.33 0 0.66 0 1 C-6 0.33333333 -12 -0.33333333 -18 -1 C-18 -1.33 -18 -1.66 -18 -2 C-10.69879068 -3.35836453 -6.66536791 -3.13664372 0 0 Z " fill="#1965A5" transform="translate(244,56)"/>
<path d="M0 0 C1.65 0 3.3 0 5 0 C4.79375 0.5775 4.5875 1.155 4.375 1.75 C3.91338739 4.51967567 4.57055055 5.64561267 6 8 C4.125 7.6875 4.125 7.6875 2 7 C0 4 0 4 0 0 Z " fill="#056ABB" transform="translate(177,137)"/>
<path d="M0 0 C0 0.33 0 0.66 0 1 C-0.95712891 1.09087891 -0.95712891 1.09087891 -1.93359375 1.18359375 C-3.17302734 1.30927734 -3.17302734 1.30927734 -4.4375 1.4375 C-5.67306641 1.55931641 -5.67306641 1.55931641 -6.93359375 1.68359375 C-8.98662025 1.78930815 -8.98662025 1.78930815 -10 3 C-11.99958364 3.04080783 -14.00045254 3.04254356 -16 3 C-15.34 2.67 -14.68 2.34 -14 2 C-14 1.34 -14 0.68 -14 0 C-8.97874074 -0.77916092 -5.02296004 -1.13016601 0 0 Z " fill="#0C5FA4" transform="translate(164,67)"/>
<path d="M0 0 C2.95867918 0.14046255 5.91682264 0.28712224 8.875 0.4375 C9.71675781 0.47681641 10.55851563 0.51613281 11.42578125 0.55664062 C12.23144531 0.59853516 13.03710938 0.64042969 13.8671875 0.68359375 C14.98262939 0.73858032 14.98262939 0.73858032 16.12060547 0.79467773 C18 1 18 1 20 2 C20 2.66 20 3.32 20 4 C18.68 4 17.36 4 16 4 C16 3.34 16 2.68 16 2 C15.14728516 2.01740234 15.14728516 2.01740234 14.27734375 2.03515625 C9.39329516 2.09223194 4.81496035 1.81956772 0 1 C0 0.67 0 0.34 0 0 Z " fill="#ABC9E5" transform="translate(232,27)"/>
<path d="M0 0 C0.99 0 1.98 0 3 0 C2.690625 0.639375 2.38125 1.27875 2.0625 1.9375 C0.68064597 5.92049104 0.3463457 9.81650849 0 14 C-2.30336754 9.98455084 -1.90698796 7.53493978 -1 3 C-0.67 2.01 -0.34 1.02 0 0 Z " fill="#D6EDF8" transform="translate(72,186)"/>
<path d="M0 0 C3.32997279 0.53709239 6.52786858 1.39345757 9.75 2.375 C10.52859375 2.60960938 11.3071875 2.84421875 12.109375 3.0859375 C12.73328125 3.38757813 13.3571875 3.68921875 14 4 C14.33 4.99 14.66 5.98 15 7 C9.80355921 5.40109514 4.93387858 3.25861997 0 1 C0 0.67 0 0.34 0 0 Z " fill="#BAD6EF" transform="translate(205,117)"/>
<path d="M0 0 C4.5073626 0.53027795 7.4539073 2.19611275 11 5 C11 5.99 11 6.98 11 8 C9.16399255 6.85845641 7.33125195 5.71165684 5.5 4.5625 C4.4790625 3.92441406 3.458125 3.28632813 2.40625 2.62890625 C1.6121875 2.09136719 0.818125 1.55382812 0 1 C0 0.67 0 0.34 0 0 Z " fill="#195D9C" transform="translate(223,127)"/>
<path d="M0 0 C-0.58523438 0.26554687 -1.17046875 0.53109375 -1.7734375 0.8046875 C-4.7283298 2.3909981 -6.94913088 4.50815875 -9.4140625 6.7578125 C-11 8 -11 8 -13 8 C-13 6 -13 6 -11.6796875 4.4921875 C-7.77512225 0.99329137 -5.50136717 -0.80507812 0 0 Z " fill="#1360A0" transform="translate(267,107)"/>
<path d="M0 0 C5.78461538 4.30769231 5.78461538 4.30769231 6.875 7.8125 C6.936875 8.8953125 6.936875 8.8953125 7 10 C6.01 10.495 6.01 10.495 5 11 C5 9.35 5 7.7 5 6 C3.68 5.67 2.36 5.34 1 5 C0.67 3.35 0.34 1.7 0 0 Z " fill="#2F6DA6" transform="translate(273,101)"/>
<path d="M0 0 C0.99 0.33 1.98 0.66 3 1 C2.67 1.66 2.34 2.32 2 3 C3.32 3.33 4.64 3.66 6 4 C3.69 4.33 1.38 4.66 -1 5 C-0.67 3.35 -0.34 1.7 0 0 Z M6 0 C6.99 0.33 7.98 0.66 9 1 C8.67 1.66 8.34 2.32 8 3 C7.34 3 6.68 3 6 3 C6 2.01 6 1.02 6 0 Z " fill="#0568B1" transform="translate(264,102)"/>
<path d="M0 0 C4.41889613 1.35021826 6.34345343 3.26115668 9 7 C8.67 7.66 8.34 8.32 8 9 C7.236875 8.21625 6.47375 7.4325 5.6875 6.625 C3.09108195 3.92742283 3.09108195 3.92742283 0 2 C0 1.34 0 0.68 0 0 Z " fill="#2061A6" transform="translate(248,84)"/>
<path d="M0 0 C1.62566606 0.47690204 3.25051311 0.95659666 4.875 1.4375 C5.77992188 1.70433594 6.68484375 1.97117187 7.6171875 2.24609375 C10 3 10 3 12 4 C12 5.32 12 6.64 12 8 C11.34 8 10.68 8 10 8 C9.67 6.68 9.34 5.36 9 4 C8.071875 3.896875 7.14375 3.79375 6.1875 3.6875 C2.85034764 2.96772204 2.16813468 2.42857128 0 0 Z " fill="#C9E2F6" transform="translate(198,126)"/>
<path d="M0 0 C0.33 0 0.66 0 1 0 C1.02703381 1.93742341 1.04641125 3.87495479 1.0625 5.8125 C1.07410156 6.89144531 1.08570313 7.97039062 1.09765625 9.08203125 C1 12 1 12 0 15 C-1.32 14.67 -2.64 14.34 -4 14 C-3.525625 13.360625 -3.05125 12.72125 -2.5625 12.0625 C-0.52968613 8.07818481 -0.2789471 4.41505926 0 0 Z " fill="#CBE6FA" transform="translate(205,60)"/>
<path d="M0 0 C0.70125 0.309375 1.4025 0.61875 2.125 0.9375 C5.08936657 2.03302678 7.87698108 2.56422992 11 3 C11.33 3.99 11.66 4.98 12 6 C11.34 6 10.68 6 10 6 C10 5.34 10 4.68 10 4 C6.7 4 3.4 4 0 4 C0 2.68 0 1.36 0 0 Z " fill="#175C9D" transform="translate(203,170)"/>
<path d="M0 0 C-1.3809002 3.33717549 -2.8201238 5.22301036 -6 7 C-8.25 6.6875 -8.25 6.6875 -10 6 C-8.68 5.67 -7.36 5.34 -6 5 C-6 4.34 -6 3.68 -6 3 C-2.53846154 0 -2.53846154 0 0 0 Z " fill="#1F65A1" transform="translate(254,116)"/>
<path d="M0 0 C0.61875 0.33 1.2375 0.66 1.875 1 C6.26211512 2.40387684 10.43151427 2.15967523 15 2 C13 4 13 4 10.3984375 4.1953125 C9.40070313 4.17210937 8.40296875 4.14890625 7.375 4.125 C5.87066406 4.09792969 5.87066406 4.09792969 4.3359375 4.0703125 C3.56507813 4.04710937 2.79421875 4.02390625 2 4 C1.34 2.68 0.68 1.36 0 0 Z " fill="#4A81B6" transform="translate(185,138)"/>
<path d="M0 0 C-0.639375 0.474375 -1.27875 0.94875 -1.9375 1.4375 C-3.88293306 2.83738726 -3.88293306 2.83738726 -5 4 C-4.34 4.66 -3.68 5.32 -3 6 C-4.65 5.67 -6.3 5.34 -8 5 C-7.625 3.0625 -7.625 3.0625 -7 1 C-4.53721199 -0.231394 -2.7204945 -0.07159196 0 0 Z " fill="#066CBC" transform="translate(245,116)"/>
<path d="M0 0 C1.79133978 -0.05391993 3.58313899 -0.09275571 5.375 -0.125 C6.37273437 -0.14820312 7.37046875 -0.17140625 8.3984375 -0.1953125 C11 0 11 0 13 2 C9.25 3.125 9.25 3.125 7 2 C5.62657169 1.9310528 4.24997898 1.91532292 2.875 1.9375 C0.956875 1.9684375 0.956875 1.9684375 -1 2 C-0.67 1.34 -0.34 0.68 0 0 Z " fill="#5588B6" transform="translate(155,68)"/>
<path d="M0 0 C0.66 0 1.32 0 2 0 C1.67 1.65 1.34 3.3 1 5 C-0.65 5.33 -2.3 5.66 -4 6 C-1.125 1.125 -1.125 1.125 0 0 Z " fill="#1A68A5" transform="translate(120,65)"/>
<path d="M0 0 C0.66 0.33 1.32 0.66 2 1 C0.375 3.9375 0.375 3.9375 -2 7 C-5.25 7.875 -5.25 7.875 -8 8 C-5.33333333 5.33333333 -2.66666667 2.66666667 0 0 Z " fill="#3C79B0" transform="translate(136,48)"/>
<path d="M0 0 C-8.42857143 3.28571429 -8.42857143 3.28571429 -13 4 C-11.27674725 1.03217582 -10.43481709 0.12026856 -7.0625 -0.8125 C-4.30033304 -0.98161226 -2.60594444 -0.73731905 0 0 Z " fill="#165DA2" transform="translate(168,35)"/>
<path d="M0 0 C0.66 0.33 1.32 0.66 2 1 C1.38125 1.9075 0.7625 2.815 0.125 3.75 C-1.45040384 6.15944116 -2.7575449 8.42554349 -4 11 C-3.91291331 9.54054712 -3.80473093 8.08234132 -3.6875 6.625 C-3.62949219 5.81289062 -3.57148437 5.00078125 -3.51171875 4.1640625 C-3 2 -3 2 0 0 Z " fill="#DAEDF8" transform="translate(79,175)"/>
<path d="M0 0 C6.4 -0.49230769 6.4 -0.49230769 9.4375 2 C10.2109375 2.99 10.2109375 2.99 11 4 C9.35232753 3.71890887 7.70686855 3.42481474 6.0625 3.125 C4.68771484 2.88136719 4.68771484 2.88136719 3.28515625 2.6328125 C2.53105469 2.42398438 1.77695313 2.21515625 1 2 C0.67 1.34 0.34 0.68 0 0 Z " fill="#296BA9" transform="translate(183,120)"/>
<path d="M0 0 C0.66 0 1.32 0 2 0 C2 0.66 2 1.32 2 2 C2.66 2.66 3.32 3.32 4 4 C3.34 4 2.68 4 2 4 C1.67 4.99 1.34 5.98 1 7 C0.01 6.67 -0.98 6.34 -2 6 C-1.34 4.02 -0.68 2.04 0 0 Z " fill="#0A63AA" transform="translate(153,117)"/>
<path d="M0 0 C4.71403788 0.47939368 8.66579301 0.96834048 13 3 C13 3.33 13 3.66 13 4 C3.40546697 3.40546697 3.40546697 3.40546697 0 0 Z " fill="#185D9E" transform="translate(256,34)"/>
<path d="M0 0 C-1.32 0.99 -2.64 1.98 -4 3 C-3.67 3.66 -3.34 4.32 -3 5 C-4.65 4.67 -6.3 4.34 -8 4 C-8 3.01 -8 2.02 -8 1 C-5.07175348 0.02391783 -3.04386724 -0.08226668 0 0 Z " fill="#0661AC" transform="translate(201,119)"/>
<path d="M0 0 C0 3.64478912 -0.85802506 5.09303401 -3 8 C-5.109375 8.6484375 -5.109375 8.6484375 -7 9 C-6.02180976 7.68677212 -5.0424189 6.37443848 -4.0625 5.0625 C-3.51722656 4.33160156 -2.97195312 3.60070312 -2.41015625 2.84765625 C-1 1 -1 1 0 0 Z " fill="#BFDDF2" transform="translate(258,112)"/>
<path d="M0 0 C1.32 0.33 2.64 0.66 4 1 C5.25 4.0625 5.25 4.0625 6 7 C5.34 7.66 4.68 8.32 4 9 C2.68 6.03 1.36 3.06 0 0 Z " fill="#2F6FA7" transform="translate(290,99)"/>
<path d="M0 0 C3.32604248 1.66302124 3.80042476 4.62976481 5 8 C4.6875 10.4375 4.6875 10.4375 4 12 C1.24331998 8.04476345 0.4682121 4.77576339 0 0 Z " fill="#487EB5" transform="translate(313,84)"/>
<path d="M0 0 C3.26954202 0.56371414 4.82575883 1.49962266 7 4 C6.67 4.99 6.34 5.98 6 7 C3.95880212 5.38405168 1.95927063 3.7143618 0 2 C0 1.34 0 0.68 0 0 Z " fill="#256CAA" transform="translate(266,69)"/>
<path d="M0 0 C0.99 0.33 1.98 0.66 3 1 C4.6875 4.5625 4.6875 4.5625 6 8 C5.34 8.66 4.68 9.32 4 10 C2.27735506 6.70450534 0.70554068 3.66881155 0 0 Z " fill="#1964A1" transform="translate(247,59)"/>
<path d="M0 0 C0.33 0 0.66 0 1 0 C1 2.31 1 4.62 1 7 C-0.98 7.99 -0.98 7.99 -3 9 C-2.01 6.03 -1.02 3.06 0 0 Z " fill="#B8D4EC" transform="translate(291,219)"/>
<path d="M0 0 C2.64 0.33 5.28 0.66 8 1 C8 1.66 8 2.32 8 3 C5.69 3 3.38 3 1 3 C0.67 2.01 0.34 1.02 0 0 Z " fill="#336FA4" transform="translate(258,149)"/>
<path d="M0 0 C0.66 0 1.32 0 2 0 C1.1875 3.4375 1.1875 3.4375 0 7 C-0.99 7.33 -1.98 7.66 -3 8 C-1.125 2.25 -1.125 2.25 0 0 Z " fill="#2A6EAA" transform="translate(97,144)"/>
<path d="M0 0 C0.99 0.99 1.98 1.98 3 3 C2.34 4.32 1.68 5.64 1 7 C0.34 6.67 -0.32 6.34 -1 6 C-1.042721 4.33388095 -1.04063832 2.66617115 -1 1 C-0.67 0.67 -0.34 0.34 0 0 Z " fill="#1865A7" transform="translate(257,143)"/>
<path d="M0 0 C0.8353125 0.37125 0.8353125 0.37125 1.6875 0.75 C-3.5859375 3.97265625 -3.5859375 3.97265625 -5.3125 4.75 C-5.9725 4.42 -6.6325 4.09 -7.3125 3.75 C-2.88173077 -0.31153846 -2.88173077 -0.31153846 0 0 Z " fill="#B0D1EC" transform="translate(167.3125,120.25)"/>
<path d="M0 0 C0.66 1.32 1.32 2.64 2 4 C1 5 1 5 -2.0625 5.0625 C-3.031875 5.041875 -4.00125 5.02125 -5 5 C-5.33 4.34 -5.66 3.68 -6 3 C-4.02 3 -2.04 3 0 3 C0 2.01 0 1.02 0 0 Z " fill="#376CA6" transform="translate(278,115)"/>
<path d="M0 0 C1.32087692 2.17556199 2.07112439 3.43100487 1.75 6 C0.96713323 8.08764473 0.05252193 10.03529239 -1 12 C-1.14285714 3.42857143 -1.14285714 3.42857143 0 0 Z " fill="#4683B8" transform="translate(99,110)"/>
<path d="M0 0 C0.86625 0.556875 0.86625 0.556875 1.75 1.125 C1.75 2.775 1.75 4.425 1.75 6.125 C1.1621875 5.1659375 1.1621875 5.1659375 0.5625 4.1875 C-1.63472296 1.68721181 -3.00791433 1.47549575 -6.25 1.125 C-2.80384615 -1.09038462 -2.80384615 -1.09038462 0 0 Z " fill="#3275B1" transform="translate(269.25,107.875)"/>
<path d="M0 0 C2.79872437 2.52788007 4.45773019 4.20411134 5 8 C3.0625 7.375 3.0625 7.375 1 6 C0.25 2.875 0.25 2.875 0 0 Z " fill="#3974AC" transform="translate(305,69)"/>
<path d="M0 0 C2.79872437 2.52788007 4.45773019 4.20411134 5 8 C3.68 7.67 2.36 7.34 1 7 C0.67 4.69 0.34 2.38 0 0 Z " fill="#C3E1F2" transform="translate(247,62)"/>
<path d="M0 0 C1.4783226 2.95664519 1.06032783 5.74229737 1 9 C0.01 9 -0.98 9 -2 9 C-2.90870687 6.45562075 -3.14745938 5.36864845 -2.125 2.8125 C-1 1 -1 1 0 0 Z " fill="#B4CFE4" transform="translate(147,100)"/>
<path d="M0 0 C0.66 0 1.32 0 2 0 C1.34 2.64 0.68 5.28 0 8 C-1.125 6.25 -1.125 6.25 -2 4 C-1.125 1.75 -1.125 1.75 0 0 Z " fill="#2B6CA9" transform="translate(219,96)"/>
<path d="M0 0 C1.32 0.33 2.64 0.66 4 1 C3.34 2.32 2.68 3.64 2 5 C0.02 4.34 -1.96 3.68 -4 3 C-2.68 2.67 -1.36 2.34 0 2 C0 1.34 0 0.68 0 0 Z " fill="#CFDFEE" transform="translate(270,34)"/>
</svg>
