<?xml version="1.0" encoding="UTF-8"?>
<svg version="1.1" xmlns="http://www.w3.org/2000/svg" width="392" height="259">
<path d="M0 0 C129.36 0 258.72 0 392 0 C392 85.47 392 170.94 392 259 C262.64 259 133.28 259 0 259 C0 173.53 0 88.06 0 0 Z " fill="#FEFEFE" transform="translate(0,0)"/>
<path d="M0 0 C0.82395264 0.20133545 1.64790527 0.4026709 2.49682617 0.61010742 C17.11944147 4.35726152 31.01058863 13.16771784 42.359375 22.8515625 C44.97687815 25.05799635 44.97687815 25.05799635 47.9296875 26.91015625 C51.40251064 29.27397353 54.33671122 31.92710399 57.375 34.8125 C58.51364756 35.87832613 59.65296916 36.94343262 60.79296875 38.0078125 C61.34001465 38.51989258 61.88706055 39.03197266 62.45068359 39.55957031 C67.81449754 44.84267012 67.81449754 44.84267012 74 49 C75.67692179 51.51538268 76.9403015 53.82886431 77.9375 56.6875 C78.76039939 59.12855471 78.76039939 59.12855471 80.85546875 59.88671875 C84.24758342 61.64765259 85.94287052 64.54167187 88.18359375 67.56640625 C89.33644156 69.11097439 90.53332478 70.62435176 91.78515625 72.08984375 C94.49882251 75.32956352 96.38778402 77.81421306 96.625 82.125 C95.92994905 86.43431591 94.71057958 88.7429326 92 92 C91.03320312 93.22009766 91.03320312 93.22009766 90.046875 94.46484375 C85.58637561 100.02487184 80.93272589 105.38023988 76.1328125 110.6484375 C73.60946925 113.43058519 71.15044878 116.26425028 68.703125 119.11328125 C59.99507674 128.76004113 49.22934955 138.41087754 38 145 C37.34 145 36.68 145 36 145 C36 145.66 36 146.32 36 147 C35.19949219 147.43699219 35.19949219 147.43699219 34.3828125 147.8828125 C30.23448519 150.16511022 26.15185231 152.50903046 22.125 155 C8.48603123 163.17497512 -4.66232418 166.54029622 -20.5625 166.3125 C-21.69107422 166.31572266 -22.81964844 166.31894531 -23.98242188 166.32226562 C-33.56880964 166.26162717 -43.26811085 165.65115156 -52.125 161.6875 C-53.10984375 161.24921875 -54.0946875 160.8109375 -55.109375 160.359375 C-56.06328125 159.91078125 -57.0171875 159.4621875 -58 159 C-58.91265625 158.57203125 -59.8253125 158.1440625 -60.765625 157.703125 C-65.41140869 155.44978081 -69.8883664 153.13782564 -74 150 C-74 149.34 -74 148.68 -74 148 C-76.97 147.01 -76.97 147.01 -80 146 C-80 145.34 -80 144.68 -80 144 C-80.86625 143.8453125 -80.86625 143.8453125 -81.75 143.6875 C-84.35661158 142.89103535 -85.9735311 141.80934723 -88 140 C-88 139.34 -88 138.68 -88 138 C-88.721875 137.7525 -89.44375 137.505 -90.1875 137.25 C-96.14068618 134.60413948 -100.89332011 129.7604771 -104.8125 124.625 C-106.6783279 122.38600652 -108.40040778 120.77869557 -110.625 118.9375 C-119.49097437 111.34044761 -126.29981011 101.47907049 -133 92 C-133.45632812 91.41476563 -133.91265625 90.82953125 -134.3828125 90.2265625 C-137.22351187 86.47207172 -137.5145568 83.63101116 -137 79 C-136 76.5625 -136 76.5625 -135 75 C-134.34 75 -133.68 75 -133 75 C-132.566875 74.13375 -132.566875 74.13375 -132.125 73.25 C-131.08333333 71.16666667 -130.04166667 69.08333333 -129 67 C-128.34 67 -127.68 67 -127 67 C-126.90525391 66.20335938 -126.90525391 66.20335938 -126.80859375 65.390625 C-125.64156605 61.94028225 -123.39083759 59.48000031 -121.0625 56.75 C-120.60681641 56.19570312 -120.15113281 55.64140625 -119.68164062 55.0703125 C-118.50402435 53.67027676 -117.25651038 52.32968486 -116 51 C-115.34 51 -114.68 51 -114 51 C-113.7525 50.4225 -113.505 49.845 -113.25 49.25 C-111.81700012 46.67060021 -110.21575324 44.93878408 -108 43 C-107.34 43 -106.68 43 -106 43 C-105.7525 42.4225 -105.505 41.845 -105.25 41.25 C-103.81700012 38.67060021 -102.21575324 36.93878408 -100 35 C-99.34 35 -98.68 35 -98 35 C-98 34.34 -98 33.68 -98 33 C-96.05453124 31.35522193 -94.10714874 29.82509552 -92.0625 28.3125 C-90.85123067 27.40278541 -89.64029363 26.49262821 -88.4296875 25.58203125 C-87.83639648 25.13811035 -87.24310547 24.69418945 -86.63183594 24.23681641 C-84.61105051 22.70520375 -82.65272692 21.10200405 -80.6875 19.5 C-56.46531275 0.88439497 -30.54745918 -7.49654139 0 0 Z " fill="#FAFDFD" transform="translate(218,61)"/>
<path d="M0 0 C2.81549939 1.73991536 4.91729394 3.80150077 7.0859375 6.2890625 C8.230625 7.371875 8.230625 7.371875 9.3984375 8.4765625 C11.0859375 10.2890625 11.0859375 10.2890625 11.0859375 12.2890625 C11.7459375 12.2890625 12.4059375 12.2890625 13.0859375 12.2890625 C21.40340294 26.20533963 24.96149853 40.70581193 21.13671875 56.7578125 C19.21127106 63.71892447 16.76264559 69.70299451 12.0859375 75.2890625 C11.5909375 76.7740625 11.5909375 76.7740625 11.0859375 78.2890625 C8.5234375 79.4765625 8.5234375 79.4765625 6.0859375 80.2890625 C6.0859375 80.9490625 6.0859375 81.6090625 6.0859375 82.2890625 C-4.20536809 92.56053899 -16.58123109 95.31078798 -30.7265625 95.7890625 C-42.69120069 95.39657172 -54.33794336 90.94425321 -62.86328125 82.31640625 C-64.25521242 80.67507337 -65.5904652 78.98598211 -66.9140625 77.2890625 C-67.5740625 76.9590625 -68.2340625 76.6290625 -68.9140625 76.2890625 C-68.9140625 75.6290625 -68.9140625 74.9690625 -68.9140625 74.2890625 C-69.5740625 74.2890625 -70.2340625 74.2890625 -70.9140625 74.2890625 C-71.32978516 73.2371875 -71.32978516 73.2371875 -71.75390625 72.1640625 C-73.37047568 68.1580184 -75.08703179 64.19527044 -76.79296875 60.2265625 C-80.82874639 49.65198136 -80.71297918 34.7449378 -76.9140625 24.1640625 C-73.63779816 16.97500247 -68.94799135 9.5048315 -62.9140625 4.2890625 C-62.2540625 4.2890625 -61.5940625 4.2890625 -60.9140625 4.2890625 C-60.9140625 3.6290625 -60.9140625 2.9690625 -60.9140625 2.2890625 C-41.85783678 -11.53604244 -20.32968701 -10.72407438 0 0 Z " fill="#327FC2" transform="translate(225.9140625,99.7109375)"/>
<path d="M0 0 C0.82395264 0.20133545 1.64790527 0.4026709 2.49682617 0.61010742 C17.11944147 4.35726152 31.01058863 13.16771784 42.359375 22.8515625 C44.97687815 25.05799635 44.97687815 25.05799635 47.9296875 26.91015625 C51.40251064 29.27397353 54.33671122 31.92710399 57.375 34.8125 C58.51364756 35.87832613 59.65296916 36.94343262 60.79296875 38.0078125 C61.34001465 38.51989258 61.88706055 39.03197266 62.45068359 39.55957031 C67.81449754 44.84267012 67.81449754 44.84267012 74 49 C75.67692179 51.51538268 76.9403015 53.82886431 77.9375 56.6875 C78.76039939 59.12855471 78.76039939 59.12855471 80.85546875 59.88671875 C84.24758342 61.64765259 85.94287052 64.54167187 88.18359375 67.56640625 C89.33644156 69.11097439 90.53332478 70.62435176 91.78515625 72.08984375 C94.49882251 75.32956352 96.38778402 77.81421306 96.625 82.125 C95.92994905 86.43431591 94.71057958 88.7429326 92 92 C91.03320312 93.22009766 91.03320312 93.22009766 90.046875 94.46484375 C85.58637561 100.02487184 80.93272589 105.38023988 76.1328125 110.6484375 C73.60946925 113.43058519 71.15044878 116.26425028 68.703125 119.11328125 C59.99507674 128.76004113 49.22934955 138.41087754 38 145 C37.34 145 36.68 145 36 145 C36 145.66 36 146.32 36 147 C35.19949219 147.43699219 35.19949219 147.43699219 34.3828125 147.8828125 C30.23448519 150.16511022 26.15185231 152.50903046 22.125 155 C8.48603123 163.17497512 -4.66232418 166.54029622 -20.5625 166.3125 C-21.69107422 166.31572266 -22.81964844 166.31894531 -23.98242188 166.32226562 C-33.56880964 166.26162717 -43.26811085 165.65115156 -52.125 161.6875 C-53.10984375 161.24921875 -54.0946875 160.8109375 -55.109375 160.359375 C-56.06328125 159.91078125 -57.0171875 159.4621875 -58 159 C-58.91265625 158.57203125 -59.8253125 158.1440625 -60.765625 157.703125 C-65.41140869 155.44978081 -69.8883664 153.13782564 -74 150 C-74 149.34 -74 148.68 -74 148 C-76.97 147.01 -76.97 147.01 -80 146 C-80 145.34 -80 144.68 -80 144 C-80.86625 143.8453125 -80.86625 143.8453125 -81.75 143.6875 C-84.35661158 142.89103535 -85.9735311 141.80934723 -88 140 C-88 139.34 -88 138.68 -88 138 C-88.721875 137.7525 -89.44375 137.505 -90.1875 137.25 C-96.14068618 134.60413948 -100.89332011 129.7604771 -104.8125 124.625 C-106.6783279 122.38600652 -108.40040778 120.77869557 -110.625 118.9375 C-119.49097437 111.34044761 -126.29981011 101.47907049 -133 92 C-133.45632812 91.41476563 -133.91265625 90.82953125 -134.3828125 90.2265625 C-137.22351187 86.47207172 -137.5145568 83.63101116 -137 79 C-136 76.5625 -136 76.5625 -135 75 C-134.34 75 -133.68 75 -133 75 C-132.566875 74.13375 -132.566875 74.13375 -132.125 73.25 C-131.08333333 71.16666667 -130.04166667 69.08333333 -129 67 C-128.34 67 -127.68 67 -127 67 C-126.90525391 66.20335938 -126.90525391 66.20335938 -126.80859375 65.390625 C-125.64156605 61.94028225 -123.39083759 59.48000031 -121.0625 56.75 C-120.60681641 56.19570312 -120.15113281 55.64140625 -119.68164062 55.0703125 C-118.50402435 53.67027676 -117.25651038 52.32968486 -116 51 C-115.34 51 -114.68 51 -114 51 C-113.7525 50.4225 -113.505 49.845 -113.25 49.25 C-111.81700012 46.67060021 -110.21575324 44.93878408 -108 43 C-107.34 43 -106.68 43 -106 43 C-105.7525 42.4225 -105.505 41.845 -105.25 41.25 C-103.81700012 38.67060021 -102.21575324 36.93878408 -100 35 C-99.34 35 -98.68 35 -98 35 C-98 34.34 -98 33.68 -98 33 C-96.05453124 31.35522193 -94.10714874 29.82509552 -92.0625 28.3125 C-90.85123067 27.40278541 -89.64029363 26.49262821 -88.4296875 25.58203125 C-87.83639648 25.13811035 -87.24310547 24.69418945 -86.63183594 24.23681641 C-84.61105051 22.70520375 -82.65272692 21.10200405 -80.6875 19.5 C-56.46531275 0.88439497 -30.54745918 -7.49654139 0 0 Z M-52 21 C-53.68411954 21.55208731 -55.37149304 22.09438292 -57.0625 22.625 C-67.16519047 26.27357768 -75.87092854 33.00828083 -84.375 39.4375 C-84.9407373 39.86240723 -85.50647461 40.28731445 -86.08935547 40.72509766 C-87.43318433 41.76674389 -88.72278833 42.87766616 -90 44 C-90 44.66 -90 45.32 -90 46 C-90.5775 46.268125 -91.155 46.53625 -91.75 46.8125 C-94.05550043 48.02929189 -96.02056192 49.30333879 -98 51 C-98 51.66 -98 52.32 -98 53 C-98.66 53 -99.32 53 -100 53 C-100.6496875 54.11375 -100.6496875 54.11375 -101.3125 55.25 C-103 58 -103 58 -105.3125 59.8125 C-108.86791279 62.70644064 -111.55800331 66.12301557 -114 70 C-114 70.66 -114 71.32 -114 72 C-115.485 72.495 -115.485 72.495 -117 73 C-118.45277946 74.75111391 -118.45277946 74.75111391 -119.6875 76.875 C-120.12449219 77.57367188 -120.56148437 78.27234375 -121.01171875 78.9921875 C-122.22080959 81.07562487 -122.22080959 81.07562487 -122 84 C-121.34 84 -120.68 84 -120 84 C-119.71125 84.7425 -119.4225 85.485 -119.125 86.25 C-118.17697356 88.56739797 -117.15154089 90.77917115 -116 93 C-115.34 93 -114.68 93 -114 93 C-113.74863281 93.55816406 -113.49726562 94.11632812 -113.23828125 94.69140625 C-109.74618121 101.20191453 -103.24019816 110.58660061 -96 113 C-95.5359375 113.9590625 -95.5359375 113.9590625 -95.0625 114.9375 C-94.17518809 117.15837204 -94.17518809 117.15837204 -92 118 C-90 119 -90 119 -89.11083984 120.8762207 C-87.80643111 123.37007818 -86.51750046 124.36993445 -84.2265625 125.98046875 C-83.1128125 126.76647461 -83.1128125 126.76647461 -81.9765625 127.56835938 C-81.20054687 128.10267578 -80.42453125 128.63699219 -79.625 129.1875 C-78.85671875 129.73341797 -78.0884375 130.27933594 -77.296875 130.84179688 C-73.82607152 133.26475398 -71.13465864 135.02496931 -67 136 C-66.54625 136.495 -66.0925 136.99 -65.625 137.5 C-63.30745317 139.63927399 -61.06440101 139.659511 -58 140 C-58 140.66 -58 141.32 -58 142 C-55.12682985 142.98482876 -52.25167255 143.9629993 -49.375 144.9375 C-48.56675781 145.21529297 -47.75851563 145.49308594 -46.92578125 145.77929688 C-38.58539362 148.5933301 -31.08679073 149.18208711 -22.3125 149.1875 C-21.28705078 149.19974609 -20.26160156 149.21199219 -19.20507812 149.22460938 C-9.27186995 149.24343415 -0.16099706 147.70062874 9.1875 144.375 C9.85330078 144.14554688 10.51910156 143.91609375 11.20507812 143.6796875 C12.80585787 143.12690025 14.40332893 142.56454497 16 142 C16 141.34 16 140.68 16 140 C16.56976563 139.87238281 17.13953125 139.74476563 17.7265625 139.61328125 C23.9628486 137.93098414 29.89089706 134.93007919 35 131 C35 130.34 35 129.68 35 129 C35.70125 128.7525 36.4025 128.505 37.125 128.25 C40.39514548 126.82819762 43.141122 125.12753712 46 123 C46 122.34 46 121.68 46 121 C46.66 121 47.32 121 48 121 C48 120.34 48 119.68 48 119 C48.85271484 118.63841797 48.85271484 118.63841797 49.72265625 118.26953125 C52.44788908 116.75031912 54.26690339 114.92581019 56.4375 112.6875 C57.17871094 111.92824219 57.91992188 111.16898437 58.68359375 110.38671875 C59.44800781 109.59910156 60.21242188 108.81148438 61 108 C61.82371094 107.19433594 62.64742187 106.38867188 63.49609375 105.55859375 C66.05293934 102.94590442 68.33913491 100.22643995 70.625 97.375 C72.98178982 94.43906729 75.32026566 91.64055694 78 89 C80.38058761 85.80351694 80.38058761 85.80351694 80.9375 82 C79.67405007 79.30464015 77.90422715 77.28507258 76 75 C75.443125 74.113125 74.88625 73.22625 74.3125 72.3125 C71.72219602 68.32900464 68.43197725 64.94767398 65.21875 61.46484375 C63.74242317 59.8247694 62.31886815 58.13558649 60.953125 56.40234375 C59.16966106 54.20868311 57.40090414 52.4470469 55.25 50.625 C51.10105202 47.09268466 51.10105202 47.09268466 49.16015625 45.3125 C43.22580294 39.89254095 36.66931513 35.44898204 30 31 C29.17242187 30.44441406 28.34484375 29.88882813 27.4921875 29.31640625 C23.57386255 26.6790371 23.57386255 26.6790371 19 26 C19 25.34 19 24.68 19 24 C-4.14686973 14.32904758 -28.2948034 10.45517968 -52 21 Z " fill="#3480C0" transform="translate(218,61)"/>
<path d="M0 0 C4.59457298 1.79787638 6.77864953 4.6395713 9 9 C10.02670432 14.60020537 9.04245489 17.61688401 6.125 22.5 C4.0367055 25.25756535 2.85722377 26.74485781 -0.48046875 27.73828125 C-5.54629899 27.88389513 -9.81183621 26.96235975 -14 24 C-15.8125 21.4375 -15.8125 21.4375 -17 19 C-17.33 18.34 -17.66 17.68 -18 17 C-18.12114921 15.35744209 -18.17540767 13.70947522 -18.1875 12.0625 C-18.20167969 11.18722656 -18.21585938 10.31195313 -18.23046875 9.41015625 C-18 7 -18 7 -16 4 C-15.34 4 -14.68 4 -14 4 C-14 3.34 -14 2.68 -14 2 C-9.43024831 -0.64897846 -5.15759225 -0.52833872 0 0 Z " fill="#F2F9FB" transform="translate(216,119)"/>
<path d="M0 0 C0.33 0 0.66 0 1 0 C1.375 2.75 1.375 2.75 1 6 C-0.95890881 7.39300182 -2.9639118 8.72245446 -5 10 C-6.88568694 13.10014929 -6.88568694 13.10014929 -8 16 C-8.66 16 -9.32 16 -10 16 C-10.2475 16.721875 -10.495 17.44375 -10.75 18.1875 C-14.00727238 25.51636285 -20.61782438 30.36941896 -26.8125 35.1875 C-29.04881196 36.88827335 -29.04881196 36.88827335 -30.5 39.0625 C-33.1995802 42.54945776 -36.71861068 44.20715013 -41 45 C-41.02320313 45.58394531 -41.04640625 46.16789062 -41.0703125 46.76953125 C-42.52644339 50.26302176 -45.60586015 51.18995989 -48.875 52.6875 C-49.51308594 52.99494141 -50.15117187 53.30238281 -50.80859375 53.61914062 C-53.50731671 54.90652726 -56.16140428 56.05380143 -59 57 C-61.1875 56.0625 -61.1875 56.0625 -63 55 C-55.71577045 51.27654767 -55.71577045 51.27654767 -52.25 49.9375 C-49.83592359 48.93163483 -48.07351259 47.57300955 -46 46 C-45.34 46 -44.68 46 -44 46 C-44 45.34 -44 44.68 -44 44 C-42.1015625 42.4921875 -42.1015625 42.4921875 -39.625 40.875 C-38.81289063 40.33617187 -38.00078125 39.79734375 -37.1640625 39.2421875 C-35 38 -35 38 -33 38 C-33 37.34 -33 36.68 -33 36 C-32.34 36 -31.68 36 -31 36 C-31 35.34 -31 34.68 -31 34 C-29.42578125 32.44921875 -29.42578125 32.44921875 -27.3125 30.6875 C-24.80197706 28.56355316 -22.39176579 26.44498656 -20.125 24.0625 C-18 22 -18 22 -16 22 C-15.76152344 21.45472656 -15.52304687 20.90945312 -15.27734375 20.34765625 C-13.67836648 17.40886317 -11.69644514 15.01295103 -9.5625 12.4375 C-8.78003906 11.48746094 -7.99757813 10.53742188 -7.19140625 9.55859375 C-5 7 -5 7 -3.2890625 5.296875 C-1.70990972 3.7081516 -0.91077774 2.03173495 0 0 Z " fill="#4B86B8" transform="translate(297,146)"/>
<path d="M0 0 C5.75 0.75 5.75 0.75 8 3 C9.31403276 3.70394612 10.65355981 4.36021799 12 5 C13.20435615 5.61085999 14.40734002 6.2244288 15.609375 6.83984375 C16.98952702 7.53917365 18.36973703 8.23838911 19.75 8.9375 C20.42804688 9.28490234 21.10609375 9.63230469 21.8046875 9.99023438 C27.81228493 13.02258631 33.91749931 15.65941948 40.5 17.1875 C41.655 17.455625 42.81 17.72375 44 18 C44 18.33 44 18.66 44 19 C30.57970567 20.34202943 14.44757207 12.12588938 4 4 C4 3.34 4 2.68 4 2 C2.68 1.34 1.36 0.68 0 0 Z " fill="#4F87B4" transform="translate(140,207)"/>
<path d="M0 0 C0.66 0.66 1.32 1.32 2 2 C1.154375 2.58007812 0.30875 3.16015625 -0.5625 3.7578125 C-11.66297753 11.1251649 -11.66297753 11.1251649 -21.75 19.75 C-23.79795274 21.79795274 -25.3469145 22.91911331 -28 24 C-28 24.66 -28 25.32 -28 26 C-28.66 26 -29.32 26 -30 26 C-30.28875 26.804375 -30.5775 27.60875 -30.875 28.4375 C-32 31 -32 31 -34 32 C-33.01 28.535 -33.01 28.535 -32 25 C-31.34 25 -30.68 25 -30 25 C-30 24.34 -30 23.68 -30 23 C-28.20703125 21.44921875 -28.20703125 21.44921875 -25.8125 19.6875 C-23.11026719 17.65238091 -20.7113512 15.7113512 -18.3125 13.3125 C-15.76285092 10.76285092 -12.99242084 8.99494723 -10 7 C-9.34 6.01 -8.68 5.02 -8 4 C-6.35448038 3.28272222 -4.68577711 2.61674772 -3 2 C-2.01 1.34 -1.02 0.68 0 0 Z " fill="#417DAE" transform="translate(148,88)"/>
<path d="M0 0 C1.22396484 -0.01224609 2.44792969 -0.02449219 3.70898438 -0.03710938 C19.15027725 -0.06202808 19.15027725 -0.06202808 25.5625 3.625 C27.0625 5.1875 27.0625 5.1875 28.0625 8.1875 C26.45833333 7.75 24.85416667 7.3125 23.25 6.875 C22.23292969 6.60429688 21.21585938 6.33359375 20.16796875 6.0546875 C18.28055971 5.52763743 16.40310418 4.95983923 14.55078125 4.3203125 C1.8171201 0.12240223 -12.79213939 1.86588385 -25.9375 3.1875 C-18.66597489 -1.35720319 -8.20125936 0.00430512 0 0 Z " fill="#598FBC" transform="translate(201.9375,74.8125)"/>
<path d="M0 0 C0 0.66 0 1.32 0 2 C-0.99 2.33 -1.98 2.66 -3 3 C-3.66 3.99 -4.32 4.98 -5 6 C-5.598125 5.79375 -6.19625 5.5875 -6.8125 5.375 C-9.28450846 4.69328085 -9.28450846 4.69328085 -12 7 C-22.87735588 8.87540619 -33.17396809 7.59751723 -44 6 C-44 5.67 -44 5.34 -44 5 C-43.25016846 4.98541748 -42.50033691 4.97083496 -41.7277832 4.95581055 C-38.25556277 4.88029849 -34.7841985 4.78398664 -31.3125 4.6875 C-30.13365234 4.66494141 -28.95480469 4.64238281 -27.74023438 4.61914062 C-18.39124674 4.33739031 -8.80592542 0 0 0 Z " fill="#D1EAF7" transform="translate(228,222)"/>
<path d="M0 0 C0.66 0 1.32 0 2 0 C2 0.66 2 1.32 2 2 C1.34 2 0.68 2 0 2 C-0.37313739 4.66526709 -0.6972231 7.3261261 -1 10 C-1.13019531 11.0415625 -1.26039063 12.083125 -1.39453125 13.15625 C-2.35287613 22.50801108 -2.39316426 32.91025361 3 41 C3.125 43.6875 3.125 43.6875 3 46 C0.11233713 44.55616857 -0.00718603 42.75142529 -1.0625 39.75 C-1.40410156 38.79609375 -1.74570313 37.8421875 -2.09765625 36.859375 C-4.01871941 30.77185018 -4.24617157 25.0240761 -4.3125 18.6875 C-4.34150391 17.77548828 -4.37050781 16.86347656 -4.40039062 15.92382812 C-4.46023582 9.50197855 -3.28506732 5.52694759 0 0 Z " fill="#3E76A6" transform="translate(151,123)"/>
<path d="M0 0 C4.29547558 4.29547558 3.35187799 10.91362987 3.39160156 16.64550781 C3.2166767 27.34152303 0.25545326 37.28513776 -6 46 C-6.66 45.01 -7.32 44.02 -8 43 C-7.34 42.01 -6.68 41.02 -6 40 C-5.34 40 -4.68 40 -4 40 C-3.87753906 39.15179688 -3.75507813 38.30359375 -3.62890625 37.4296875 C-2.97818084 33.88101106 -2.00750319 30.5689529 -0.9375 27.125 C0.62904044 21.69886718 1.45177149 17.60196651 1 12 C0.92136719 10.96101562 0.84273437 9.92203125 0.76171875 8.8515625 C0.53110939 5.89838594 0.27526772 2.94929702 0 0 Z " fill="#3573A4" transform="translate(245,128)"/>
<path d="M0 0 C0.33 0.66 0.66 1.32 1 2 C-2.61288197 5.81933237 -5.97774683 9.32838819 -11.25 10.5 C-11.8275 10.665 -12.405 10.83 -13 11 C-13.33 11.99 -13.66 12.98 -14 14 C-14.99 14.33 -15.98 14.66 -17 15 C-17.6837045 16.32467746 -18.34964186 17.65863633 -19 19 C-19.99 19.66 -20.98 20.32 -22 21 C-22.99 20.67 -23.98 20.34 -25 20 C-24.01 19.67 -23.02 19.34 -22 19 C-21.31513275 17.67592331 -20.65129797 16.34090759 -20 15 C-18 12.75 -18 12.75 -16 11 C-15.34 11 -14.68 11 -14 11 C-14 10.34 -14 9.68 -14 9 C-11.953125 7.08984375 -11.953125 7.08984375 -9.25 4.9375 C-8.36828125 4.22464844 -7.4865625 3.51179688 -6.578125 2.77734375 C-4.24798332 1.1709582 -2.75649249 0.4186262 0 0 Z " fill="#4682B6" transform="translate(134,85)"/>
<path d="M0 0 C14.19 0 28.38 0 43 0 C36.5615763 4.29228247 27.49947541 3.18285924 20 3.1875 C18.43765625 3.20586914 18.43765625 3.20586914 16.84375 3.22460938 C10.86448371 3.23593374 5.72617857 2.74125382 0 1 C0 0.67 0 0.34 0 0 Z " fill="#C8E3F4" transform="translate(176,207)"/>
<path d="M0 0 C0.66 0 1.32 0 2 0 C1.835 0.67804688 1.67 1.35609375 1.5 2.0546875 C0.67638729 6.70037792 0.2393467 9.71953806 2.71484375 13.88671875 C4.16623272 15.63399722 5.66546143 17.34290462 7.21484375 19.00390625 C9 21 9 21 9 23 C9.66 23 10.32 23 11 23 C13.3208055 26.2491277 14.43697042 29.05879291 15 33 C9.82076489 28.30631818 6.02167224 22.68407538 2 17 C1.53722656 16.40574219 1.07445313 15.81148437 0.59765625 15.19921875 C-2.23584795 11.45818652 -2.51243358 8.61190225 -2 4 C-1 1.5625 -1 1.5625 0 0 Z " fill="#467FB0" transform="translate(83,136)"/>
<path d="M0 0 C3.6116409 2.88931272 4.89690265 4.27831857 5.5625 8.9375 C5.24904949 13.1534094 3.65022469 15.80145296 1 19 C-0.05380859 20.35931641 -0.05380859 20.35931641 -1.12890625 21.74609375 C-7.98330455 30.42983723 -7.98330455 30.42983723 -12 32 C-10.7260411 29.96166576 -9.38938077 27.96147874 -8 26 C-7.34 26 -6.68 26 -6 26 C-5.8453125 25.13375 -5.8453125 25.13375 -5.6875 24.25 C-4.89103535 21.64338842 -3.80934723 20.0264689 -2 18 C-1.34 18 -0.68 18 0 18 C0.33 16.68 0.66 15.36 1 14 C1.66 14 2.32 14 3 14 C2.62590749 8.84001623 2.62590749 8.84001623 -0.0625 4.5625 C-1.0215625 3.7890625 -1.0215625 3.7890625 -2 3 C-1 1 -1 1 0 0 Z " fill="#4883B4" transform="translate(309,134)"/>
<path d="M0 0 C-0.66666667 1.33333333 -1.33333333 2.66666667 -2 4 C-2.226875 4.721875 -2.45375 5.44375 -2.6875 6.1875 C-3.3371875 7.0846875 -3.3371875 7.0846875 -4 8 C-5.0725 8.103125 -6.145 8.20625 -7.25 8.3125 C-11.90572793 9.16605012 -12.8736621 10.67679463 -15.65625 14.2734375 C-17.23075638 16.29649511 -18.74876282 17.75793811 -21 19 C-21.99 18.67 -22.98 18.34 -24 18 C-22.71034824 16.62437146 -21.37310707 15.29233607 -20 14 C-19.34 14 -18.68 14 -18 14 C-17.67 13.01 -17.34 12.02 -17 11 C-15.54125977 9.6496582 -15.54125977 9.6496582 -13.69140625 8.30078125 C-13.02689453 7.81416016 -12.36238281 7.32753906 -11.67773438 6.82617188 C-10.97970703 6.32666016 -10.28167969 5.82714844 -9.5625 5.3125 C-8.86833984 4.80138672 -8.17417969 4.29027344 -7.45898438 3.76367188 C-2.26823264 0 -2.26823264 0 0 0 Z " fill="#D7EBF5" transform="translate(146,93)"/>
<path d="M0 0 C1.485 0.99 1.485 0.99 3 2 C3.1875 4.625 3.1875 4.625 3 7 C3.66 7 4.32 7 5 7 C5.22587773 10.26987035 5.42766605 13.54079281 5.625 16.8125 C5.68945312 17.74126953 5.75390625 18.67003906 5.8203125 19.62695312 C5.871875 20.51962891 5.9234375 21.41230469 5.9765625 22.33203125 C6.02893066 23.15421143 6.08129883 23.9763916 6.13525391 24.82348633 C6 27 6 27 4 30 C3.61500109 31.65549531 3.27206865 33.3222433 3 35 C2.34 35 1.68 35 1 35 C1.16113281 33.86433594 1.32226562 32.72867188 1.48828125 31.55859375 C2.04876033 27.04996116 2.19137451 22.60246233 2.1875 18.0625 C2.18814453 17.27633301 2.18878906 16.49016602 2.18945312 15.68017578 C2.13944854 10.19671861 1.56492781 5.28163136 0 0 Z " fill="#CCE8F7" transform="translate(245,125)"/>
<path d="M0 0 C0.33 0.66 0.66 1.32 1 2 C0.67 2.66 0.34 3.32 0 4 C-0.66 4 -1.32 4 -2 4 C-1.938125 5.175625 -1.938125 5.175625 -1.875 6.375 C-2 9 -2 9 -4 11 C-4.39764263 12.98821313 -4.73775349 14.98944339 -5 17 C-4.01 17.33 -3.02 17.66 -2 18 C-1.05078125 20.06640625 -1.05078125 20.06640625 -0.3125 22.5625 C-0.06113281 23.38878906 0.19023438 24.21507812 0.44921875 25.06640625 C0.63097656 25.70449219 0.81273438 26.34257812 1 27 C0.34 26.67 -0.32 26.34 -1 26 C-1 25.34 -1 24.68 -1 24 C-1.66 24 -2.32 24 -3 24 C-7 17.25 -7 17.25 -7 15 C-7.66 15 -8.32 15 -9 15 C-8.36567062 11.83548038 -7.26817072 9.48312221 -5.5625 6.75 C-5.13066406 6.04359375 -4.69882813 5.3371875 -4.25390625 4.609375 C-3.84011719 4.07828125 -3.42632812 3.5471875 -3 3 C-2.34 3 -1.68 3 -1 3 C-0.67 2.01 -0.34 1.02 0 0 Z " fill="#CDE8F6" transform="translate(105,130)"/>
<path d="M0 0 C0.33 0.66 0.66 1.32 1 2 C0.67 2.66 0.34 3.32 0 4 C-0.66 4 -1.32 4 -2 4 C-2.268125 4.763125 -2.53625 5.52625 -2.8125 6.3125 C-3.95795247 8.90483979 -4.76415181 10.30075537 -7 12 C-7.99 12 -8.98 12 -10 12 C-10.226875 12.556875 -10.45375 13.11375 -10.6875 13.6875 C-12.36718835 16.6469509 -14.54133285 18.66126784 -17 21 C-17.474375 21.556875 -17.94875 22.11375 -18.4375 22.6875 C-20.70285245 24.59039606 -23.1895553 25.18809375 -26 26 C-22.97870291 21.66509548 -19.3353714 18.8434361 -15.17578125 15.69140625 C-11.39376738 12.75134879 -8.30496128 9.39988675 -5.3125 5.6875 C-4.549375 4.800625 -3.78625 3.91375 -3 3 C-2.34 3 -1.68 3 -1 3 C-0.67 2.01 -0.34 1.02 0 0 Z " fill="#C8E4F2" transform="translate(292,173)"/>
<path d="M0 0 C0.82113281 -0.01224609 1.64226562 -0.02449219 2.48828125 -0.03710938 C7.91309189 -0.05000512 12.53986647 0.66887813 17.75 2.1875 C17.75 2.5175 17.75 2.8475 17.75 3.1875 C17.03980713 3.18226318 16.32961426 3.17702637 15.59790039 3.17163086 C12.3361095 3.15066239 9.07433286 3.13777719 5.8125 3.125 C4.69552734 3.11662109 3.57855469 3.10824219 2.42773438 3.09960938 C-3.88992667 3.08108251 -9.98763227 3.34410583 -16.25 4.1875 C-11.86496563 -0.85528953 -6.21362122 0.00478707 0 0 Z " fill="#6796BC" transform="translate(195.25,91.8125)"/>
<path d="M0 0 C3.78611227 0.54087318 5.55400767 2.11722332 8 5 C8 5.66 8 6.32 8 7 C8.66 7 9.32 7 10 7 C11.70884005 8.62339805 13.37446717 10.29319053 15 12 C15.66 12.66 16.32 13.32 17 14 C16.625 16.125 16.625 16.125 16 18 C15.175 16.989375 14.35 15.97875 13.5 14.9375 C10.5356406 11.4508487 7.28199604 8.55650453 3.734375 5.67578125 C1.9031348 3.90640727 0.99373565 2.32716666 0 0 Z " fill="#5287B4" transform="translate(101,172)"/>
<path d="M0 0 C-3.08306399 2.05537599 -4.44014255 2.38089436 -8 3 C-13.26546489 3.9765044 -17.49553286 4.95286046 -22 8 C-25 9 -25 9 -27.1875 8.0625 C-27.785625 7.711875 -28.38375 7.36125 -29 7 C-28.34773437 6.81824219 -27.69546875 6.63648437 -27.0234375 6.44921875 C-22.04656307 5.01781681 -17.62119292 3.36433126 -13 1 C-8.67545193 -0.25184286 -4.46764491 -0.0757228 0 0 Z " fill="#D3ECF9" transform="translate(189,77)"/>
<path d="M0 0 C0.7239798 0.0028299 1.44795959 0.00565979 2.19387817 0.00857544 C4.4861974 0.01969163 6.77811313 0.04477938 9.0703125 0.0703125 C10.63280682 0.0803534 12.19530732 0.08947731 13.7578125 0.09765625 C17.57046588 0.11960277 21.38282098 0.15407237 25.1953125 0.1953125 C25.1953125 0.5253125 25.1953125 0.8553125 25.1953125 1.1953125 C23.93255493 1.2250415 23.93255493 1.2250415 22.64428711 1.25537109 C19.49251574 1.33391045 16.34109995 1.42061745 13.18969727 1.51269531 C11.83105987 1.55075329 10.47232965 1.58564471 9.11352539 1.6171875 C7.14968331 1.66334464 5.18615287 1.72219747 3.22265625 1.78125 C2.04437256 1.8126709 0.86608887 1.8440918 -0.34790039 1.87646484 C-4.03530715 2.21658443 -7.26527032 3.13430513 -10.8046875 4.1953125 C-14.2421875 4.3203125 -14.2421875 4.3203125 -16.8046875 4.1953125 C-11.3717348 0.57334403 -6.41489249 -0.09584794 0 0 Z " fill="#3C79AE" transform="translate(187.8046875,59.8046875)"/>
<path d="M0 0 C1.15822266 -0.01836914 1.15822266 -0.01836914 2.33984375 -0.03710938 C6.91969409 -0.04881257 10.56285804 0.44473336 14.875 2.1875 C14.875 2.5175 14.875 2.8475 14.875 3.1875 C4.315 2.8575 -6.245 2.5275 -17.125 2.1875 C-17.125 1.8575 -17.125 1.5275 -17.125 1.1875 C-11.38140216 0.3697896 -5.79882367 0.0048894 0 0 Z " fill="#C3E0F0" transform="translate(201.125,56.8125)"/>
<path d="M0 0 C0.96349722 2.60144251 1.0123938 3.94670665 0.375 6.6875 C-0.07875 7.450625 -0.5325 8.21375 -1 9 C-2.65821773 9.37309899 -4.32577014 9.70700977 -6 10 C-7.36020151 11.96758273 -7.36020151 11.96758273 -8 14 C-8.66 14 -9.32 14 -10 14 C-10.33 14.99 -10.66 15.98 -11 17 C-11.66 16.67 -12.32 16.34 -13 16 C-11.20994733 13.70705628 -9.41803862 11.41560683 -7.625 9.125 C-7.11710937 8.47402344 -6.60921875 7.82304687 -6.0859375 7.15234375 C-5.59609375 6.52714844 -5.10625 5.90195313 -4.6015625 5.2578125 C-4.15119629 4.6817627 -3.70083008 4.10571289 -3.23681641 3.51220703 C-2 2 -2 2 0 0 Z " fill="#D8EDF6" transform="translate(311,151)"/>
<path d="M0 0 C0.33 0.66 0.66 1.32 1 2 C0.0625 4.625 0.0625 4.625 -1 7 C-1.66 7 -2.32 7 -3 7 C-3 7.99 -3 8.98 -3 10 C-4.62339805 11.70884005 -6.29319053 13.37446717 -8 15 C-8.99 16.485 -8.99 16.485 -10 18 C-10.99 17.67 -11.98 17.34 -13 17 C-11.7260411 14.96166576 -10.38938077 12.96147874 -9 11 C-8.34 11 -7.68 11 -7 11 C-6.89816406 10.41734375 -6.79632813 9.8346875 -6.69140625 9.234375 C-5.88482847 6.62780725 -4.75842991 5.26464586 -2.9375 3.25 C-2.38964844 2.63640625 -1.84179688 2.0228125 -1.27734375 1.390625 C-0.85582031 0.93171875 -0.43429688 0.4728125 0 0 Z " fill="#4683B3" transform="translate(98,117)"/>
<path d="M0 0 C0.556875 0.226875 1.11375 0.45375 1.6875 0.6875 C-4.0625 4.6875 -4.0625 4.6875 -6.3125 4.6875 C-6.3125 5.3475 -6.3125 6.0075 -6.3125 6.6875 C-15.72252278 12.05879841 -15.72252278 12.05879841 -20.3125 13.6875 C-20.3125 13.0275 -20.3125 12.3675 -20.3125 11.6875 C-18.1953125 10.1796875 -18.1953125 10.1796875 -15.4375 8.5625 C-14.53257812 8.02367187 -13.62765625 7.48484375 -12.6953125 6.9296875 C-10.3125 5.6875 -10.3125 5.6875 -8.3125 5.6875 C-7.9825 4.6975 -7.6525 3.7075 -7.3125 2.6875 C-3.19128788 -0.43125512 -3.19128788 -0.43125512 0 0 Z " fill="#417CAF" transform="translate(260.3125,201.3125)"/>
<path d="M0 0 C1.9375 0.375 1.9375 0.375 4 1 C4.33 1.66 4.66 2.32 5 3 C6.88263881 3.90343684 6.88263881 3.90343684 9.0625 4.625 C9.79597656 4.88539063 10.52945313 5.14578125 11.28515625 5.4140625 C12.13400391 5.70410156 12.13400391 5.70410156 13 6 C13 7.32 13 8.64 13 10 C14.32 9.67 15.64 9.34 17 9 C17 10.65 17 12.3 17 14 C13.4776541 11.71047517 10.02492776 9.34327496 6.625 6.875 C5.59246094 6.12863281 5.59246094 6.12863281 4.5390625 5.3671875 C4.03117188 4.91601562 3.52328125 4.46484375 3 4 C3 3.34 3 2.68 3 2 C2.01 1.67 1.02 1.34 0 1 C0 0.67 0 0.34 0 0 Z " fill="#C6E1F1" transform="translate(125,178)"/>
<path d="M0 0 C0.66 0.33 1.32 0.66 2 1 C-3.24079214 6.73211641 -8.99534274 11.39965071 -17 12 C-13.84679051 8.55942906 -10.33207412 6.10325842 -6.375 3.6875 C-5.49714844 3.1296582 -5.49714844 3.1296582 -4.6015625 2.56054688 C-3.10691202 1.64010271 -1.55636473 0.81174279 0 0 Z " fill="#5C90BD" transform="translate(155,69)"/>
<path d="M0 0 C5.41062766 1.30601357 8.22655542 2.74278047 12 7 C13.3125 9.8125 13.3125 9.8125 14 12 C12.68 11.34 11.36 10.68 10 10 C10 9.34 10 8.68 10 8 C9.278125 7.7525 8.55625 7.505 7.8125 7.25 C4.72393418 5.87730408 2.48988582 4.27646704 0 2 C0 1.34 0 0.68 0 0 Z " fill="#5790BB" transform="translate(120,191)"/>
<path d="M0 0 C0.66 0.33 1.32 0.66 2 1 C-8.583878 13.291939 -8.583878 13.291939 -12 15 C-12 13.68 -12 12.36 -12 11 C-10.69855198 9.95884159 -9.36161311 8.96113866 -8 8 C-6.7483533 5.91665365 -6.7483533 5.91665365 -6 4 C-5.34 4 -4.68 4 -4 4 C-2.62689293 2.70766393 -1.28965176 1.37562854 0 0 Z " fill="#4381AE" transform="translate(288,175)"/>
<path d="M0 0 C10.59791211 2.0548914 10.59791211 2.0548914 15 4 C16.625 6.6875 16.625 6.6875 17 9 C15.02 8.34 13.04 7.68 11 7 C11 6.34 11 5.68 11 5 C10.113125 4.855625 9.22625 4.71125 8.3125 4.5625 C5.52882354 4.08980022 2.76516243 3.56929815 0 3 C0 2.01 0 1.02 0 0 Z " fill="#4984B7" transform="translate(213,60)"/>
<path d="M0 0 C0.66 0 1.32 0 2 0 C1.3027268 3.48636599 0.39231699 5.02949333 -2.5859375 7.10546875 C-7.46292046 10.05508508 -7.46292046 10.05508508 -10.4375 9.75 C-10.953125 9.5025 -11.46875 9.255 -12 9 C-11.34 9 -10.68 9 -10 9 C-10 8.34 -10 7.68 -10 7 C-8.06640625 5.52734375 -8.06640625 5.52734375 -5.5625 3.9375 C-2.6281857 2.16321108 -2.6281857 2.16321108 0 0 Z " fill="#D1E9F5" transform="translate(264,199)"/>
<path d="M0 0 C-5.32326783 4.4920599 -9.57550581 4.50219237 -16.375 4.25 C-17.76525391 4.22292969 -17.76525391 4.22292969 -19.18359375 4.1953125 C-21.45681435 4.14844197 -23.72785407 4.08285525 -26 4 C-26 3.67 -26 3.34 -26 3 C-24.9378125 2.87882813 -23.875625 2.75765625 -22.78125 2.6328125 C-13.87508508 1.6634658 -13.87508508 1.6634658 -5.125 -0.1875 C-2 -1 -2 -1 0 0 Z " fill="#CAE7F7" transform="translate(218,192)"/>
<path d="M0 0 C0.33 0.66 0.66 1.32 1 2 C-5.26074348 8.6290225 -9.94662846 11.59762793 -19 12 C-19 11.67 -19 11.34 -19 11 C-17.700625 10.5978125 -17.700625 10.5978125 -16.375 10.1875 C-12.96207798 9.06567182 -12.96207798 9.06567182 -9.75 7.375 C-7 6 -7 6 -5 6 C-4.731875 5.38125 -4.46375 4.7625 -4.1875 4.125 C-3 2 -3 2 0 0 Z " fill="#3C78AA" transform="translate(232,178)"/>
<path d="M0 0 C3.83923876 1.56413431 6.09936232 4.09936232 9 7 C9.9075 7.53625 10.815 8.0725 11.75 8.625 C14 10 14 10 15 13 C8.42963398 11.59206442 4.72604509 8.58906764 1 3 C0.67 2.01 0.34 1.02 0 0 Z " fill="#D8F0FA" transform="translate(116,189)"/>
<path d="M0 0 C0.33 0.66 0.66 1.32 1 2 C-0.58188018 5.08466635 -2.26317332 7.83334554 -5 10 C-5.99 10 -6.98 10 -8 10 C-8.66 11.32 -9.32 12.64 -10 14 C-11.32 13.67 -12.64 13.34 -14 13 C-8.25 8 -8.25 8 -6 8 C-6 7.34 -6 6.68 -6 6 C-5.195625 5.7525 -4.39125 5.505 -3.5625 5.25 C-0.828919 4.27761141 -0.828919 4.27761141 -0.1875 1.875 C-0.125625 1.25625 -0.06375 0.6375 0 0 Z " fill="#D5ECF7" transform="translate(238,174)"/>
<path d="M0 0 C0 0.66 0 1.32 0 2 C1.1446875 2.2165625 1.1446875 2.2165625 2.3125 2.4375 C5 3 5 3 8 4 C10.22574335 4.22451458 12.45581519 4.40782878 14.6875 4.5625 C16.45673828 4.68818359 16.45673828 4.68818359 18.26171875 4.81640625 C19.61716797 4.90728516 19.61716797 4.90728516 21 5 C21 5.33 21 5.66 21 6 C11.05815599 6.48894315 3.32221685 5.88859697 -6 2 C-2.25 0 -2.25 0 0 0 Z " fill="#6699C4" transform="translate(182,189)"/>
<path d="M0 0 C0.33 0 0.66 0 1 0 C1.375 2.75 1.375 2.75 1 6 C-0.95890881 7.39300182 -2.9639118 8.72245446 -5 10 C-6.88568694 13.10014929 -6.88568694 13.10014929 -8 16 C-9.32 15.67 -10.64 15.34 -12 15 C-11.30132812 14.25234375 -10.60265625 13.5046875 -9.8828125 12.734375 C-8.96330322 11.73980373 -8.04404559 10.74499977 -7.125 9.75 C-6.66480469 9.25886719 -6.20460938 8.76773438 -5.73046875 8.26171875 C-3.33815688 5.66137976 -1.35854595 3.27924885 0 0 Z " fill="#4583B4" transform="translate(297,146)"/>
<path d="M0 0 C0.33 0.66 0.66 1.32 1 2 C0.01 2.495 0.01 2.495 -1 3 C-2.11634152 4.65051288 -2.11634152 4.65051288 -3.125 6.5625 C-4.053125 8.2640625 -4.053125 8.2640625 -5 10 C-5.66 10 -6.32 10 -7 10 C-7.66 13.3 -8.32 16.6 -9 20 C-9.33 20 -9.66 20 -10 20 C-10 17.03 -10 14.06 -10 11 C-9.34 11 -8.68 11 -8 11 C-7.67 9.35 -7.34 7.7 -7 6 C-6.01 5.67 -5.02 5.34 -4 5 C-3.835 4.34 -3.67 3.68 -3.5 3 C-3.335 2.34 -3.17 1.68 -3 1 C-2.01 0.67 -1.02 0.34 0 0 Z " fill="#C6E3F2" transform="translate(90,126)"/>
<path d="M0 0 C4.68443012 0.58555377 9.12405031 2.30480319 13 5 C14.23828125 7.13671875 14.23828125 7.13671875 15 9 C14.236875 8.690625 13.47375 8.38125 12.6875 8.0625 C10.81210323 7.32106407 8.91315348 6.63771783 7 6 C7 5.34 7 4.68 7 4 C4.69 3.34 2.38 2.68 0 2 C0 1.34 0 0.68 0 0 Z " fill="#3C7AAD" transform="translate(230,81)"/>
<path d="M0 0 C0.66 0.33 1.32 0.66 2 1 C0.92173635 2.27513763 -0.16285519 3.54492569 -1.25 4.8125 C-1.85328125 5.52019531 -2.4565625 6.22789063 -3.078125 6.95703125 C-4.95707211 8.9543673 -6.64879512 10.58457466 -9 12 C-9.99 11.67 -10.98 11.34 -12 11 C-10.71034824 9.62437146 -9.37310707 8.29233607 -8 7 C-7.34 7 -6.68 7 -6 7 C-5.67 6.01 -5.34 5.02 -5 4 C-3.37667033 2.61423077 -1.71275535 1.27358732 0 0 Z " fill="#C9E3F2" transform="translate(134,100)"/>
<path d="M0 0 C0.66 0 1.32 0 2 0 C1.1875 2.4375 1.1875 2.4375 0 5 C-0.99 5.33 -1.98 5.66 -3 6 C-3.6837045 7.32467746 -4.34964186 8.65863633 -5 10 C-5.99 10.66 -6.98 11.32 -8 12 C-8.99 11.67 -9.98 11.34 -11 11 C-10.01 10.67 -9.02 10.34 -8 10 C-7.31513275 8.67592331 -6.65129797 7.34090759 -6 6 C-4 3.75 -4 3.75 -2 2 C-1.34 2 -0.68 2 0 2 C0 1.34 0 0.68 0 0 Z " fill="#5B8EB7" transform="translate(120,94)"/>
<path d="M0 0 C1.175625 0.4640625 1.175625 0.4640625 2.375 0.9375 C6.89851578 2.26335807 11.31431814 2.64811085 16 3 C13.39813892 5.60186108 12.17645645 5.29810177 8.5625 5.3125 C7.11037109 5.33763672 7.11037109 5.33763672 5.62890625 5.36328125 C3 5 3 5 1.15234375 3.60546875 C0 2 0 2 0 0 Z " fill="#3878AD" transform="translate(202,143)"/>
<path d="M0 0 C0.66 0.99 1.32 1.98 2 3 C-0.64 5.64 -3.28 8.28 -6 11 C-6.99 10.67 -7.98 10.34 -9 10 C-6.1310659 6.49352499 -3.2682346 3.14718888 0 0 Z " fill="#D2E9F6" transform="translate(117,116)"/>
<path d="M0 0 C3.69346852 4.9246247 3.56127156 6.1066486 3 12 C2.01 12.99 1.02 13.98 0 15 C0 10.05 0 5.1 0 0 Z " fill="#CCEBF8" transform="translate(222,124)"/>
<path d="M0 0 C1.32 0 2.64 0 4 0 C6.42322378 3.13593666 8.3407049 6.40486061 10 10 C9.01 10.495 9.01 10.495 8 11 C6.66375099 9.35653302 5.33107149 7.71016314 4 6.0625 C3.2575 5.14597656 2.515 4.22945313 1.75 3.28515625 C0 1 0 1 0 0 Z " fill="#4783B2" transform="translate(279,117)"/>
<path d="M0 0 C5.1272578 1.91015487 8.37164265 3.7313443 12 8 C12.33 8.99 12.66 9.98 13 11 C9.76306836 9.51516897 7.0674375 7.67292565 4.25 5.5 C3.45078125 4.8915625 2.6515625 4.283125 1.828125 3.65625 C1.22484375 3.1096875 0.6215625 2.563125 0 2 C0 1.34 0 0.68 0 0 Z " fill="#3777AA" transform="translate(121,177)"/>
<path d="M0 0 C0.66 0 1.32 0 2 0 C0.62815653 4.06498881 -1.22068459 6.67396561 -4.125 9.8125 C-4.84945313 10.60269531 -5.57390625 11.39289063 -6.3203125 12.20703125 C-6.87460937 12.79871094 -7.42890625 13.39039063 -8 14 C-8.66 13.67 -9.32 13.34 -10 13 C-8.71937515 11.2925002 -7.38232443 9.62626404 -6 8 C-5.34 8 -4.68 8 -4 8 C-3.896875 7.4225 -3.79375 6.845 -3.6875 6.25 C-2.89103535 3.64338842 -1.80934723 2.0264689 0 0 Z " fill="#3B7AAA" transform="translate(307,152)"/>
<path d="M0 0 C0.33 0.66 0.66 1.32 1 2 C0.70351562 2.68449219 0.40703125 3.36898437 0.1015625 4.07421875 C-1.3728382 7.99026883 -1.4579497 11.66060411 -1.625 15.8125 C-1.66367188 16.60076172 -1.70234375 17.38902344 -1.7421875 18.20117188 C-1.83588844 20.1337538 -1.91900779 22.06684376 -2 24 C-2.33 24 -2.66 24 -3 24 C-3.08703823 20.56265937 -3.14040272 17.12560163 -3.1875 13.6875 C-3.21263672 12.71103516 -3.23777344 11.73457031 -3.26367188 10.72851562 C-3.27333984 9.79072266 -3.28300781 8.85292969 -3.29296875 7.88671875 C-3.3086792 7.02264404 -3.32438965 6.15856934 -3.34057617 5.26831055 C-2.93240678 2.54981464 -2.10407096 1.69636171 0 0 Z " fill="#C6E4F6" transform="translate(149,124)"/>
<path d="M0 0 C1.051875 0.61875 2.10375 1.2375 3.1875 1.875 C6.05015677 3.51579108 8.89207246 4.86984453 12 6 C9.64561267 7.42944945 8.51967567 8.08661261 5.75 7.625 C5.1725 7.41875 4.595 7.2125 4 7 C4 6.34 4 5.68 4 5 C3.01 4.67 2.02 4.34 1 4 C1.33 3.34 1.66 2.68 2 2 C1.34 2 0.68 2 0 2 C0 1.34 0 0.68 0 0 Z " fill="#4A88BC" transform="translate(140,191)"/>
<path d="M0 0 C0.66 0.66 1.32 1.32 2 2 C1.67 2.99 1.34 3.98 1 5 C1.66 5 2.32 5 3 5 C7 11.75 7 11.75 7 14 C6.34 14 5.68 14 5 14 C2.02264918 10.44522357 0.10134974 7.13511711 -0.3125 2.5 C-0.209375 1.675 -0.10625 0.85 0 0 Z " fill="#4C85B5" transform="translate(95,140)"/>
<path d="M0 0 C-0.66 0 -1.32 0 -2 0 C-2 0.99 -2 1.98 -2 3 C-5.08809695 4.76462683 -6.23312136 5 -10 5 C-10 4.34 -10 3.68 -10 3 C-9.34 3 -8.68 3 -8 3 C-8 2.34 -8 1.68 -8 1 C-4.93251126 -0.86240388 -3.40254489 -1.2151946 0 0 Z " fill="#D3ECF9" transform="translate(210,120)"/>
<path d="M0 0 C0.66 0.33 1.32 0.66 2 1 C2 1.66 2 2.32 2 3 C2.66 3 3.32 3 4 3 C4.66 4.98 5.32 6.96 6 9 C5.34 9 4.68 9 4 9 C4 8.34 4 7.68 4 7 C2.68 7 1.36 7 0 7 C-0.66 7 -1.32 7 -2 7 C-1.34 4.69 -0.68 2.38 0 0 Z " fill="#4986BA" transform="translate(235,109)"/>
<path d="M0 0 C0.66 0.33 1.32 0.66 2 1 C1.1875 2.9375 1.1875 2.9375 0 5 C-0.99 5.33 -1.98 5.66 -3 6 C-3.33 6.66 -3.66 7.32 -4 8 C-5.65 8 -7.3 8 -9 8 C-8.67 7.34 -8.34 6.68 -8 6 C-7.34 6 -6.68 6 -6 6 C-6 5.34 -6 4.68 -6 4 C-4.03852126 2.61061923 -2.03833424 1.2739589 0 0 Z " fill="#5C92BE" transform="translate(171,98)"/>
<path d="M0 0 C1.65 0 3.3 0 5 0 C0.7045025 3.74123976 -3.99900452 6.34151874 -9 9 C-9 8.01 -9 7.02 -9 6 C-6.0936485 3.19744677 -5.21174952 3 -1 3 C-0.67 2.01 -0.34 1.02 0 0 Z " fill="#DFF2FD" transform="translate(149,70)"/>
<path d="M0 0 C0.66 0.33 1.32 0.66 2 1 C2 1.66 2 2.32 2 3 C2.5775 3.0825 3.155 3.165 3.75 3.25 C6.6159304 4.20531013 7.9990764 5.78469173 10 8 C6.36804504 8 5.25286089 7.04546845 2.3125 5 C1.50425781 4.443125 0.69601563 3.88625 -0.13671875 3.3125 C-0.75160156 2.879375 -1.36648437 2.44625 -2 2 C-1.34 1.34 -0.68 0.68 0 0 Z " fill="#5289B1" transform="translate(166,181)"/>
<path d="M0 0 C0.33 0 0.66 0 1 0 C1.3125 2.75 1.3125 2.75 1 6 C-1.375 8.375 -1.375 8.375 -4 10 C-4.66 10 -5.32 10 -6 10 C-4.34784004 6.42032008 -2.26875648 3.22017048 0 0 Z " fill="#4481B6" transform="translate(224,136)"/>
<path d="M0 0 C0.99 0.33 1.98 0.66 3 1 C1.02 1.99 1.02 1.99 -1 3 C-1 3.66 -1 4.32 -1 5 C-1.66 5 -2.32 5 -3 5 C-3.28875 5.804375 -3.5775 6.60875 -3.875 7.4375 C-5 10 -5 10 -7 11 C-6.34 8.69 -5.68 6.38 -5 4 C-4.34 4 -3.68 4 -3 4 C-3 3.34 -3 2.68 -3 2 C-2.01 1.34 -1.02 0.68 0 0 Z " fill="#4A84B8" transform="translate(121,109)"/>
<path d="M0 0 C-0.67097672 4.19360449 -2.8558394 7.40334352 -5 11 C-5.66 10.01 -6.32 9.02 -7 8 C-5.97267424 4.26426997 -4.35999462 0 0 0 Z " fill="#3F7CB4" transform="translate(103,130)"/>
<path d="M0 0 C1.14926266 0.95421808 2.29430541 1.91352045 3.4375 2.875 C4.07558594 3.40867187 4.71367187 3.94234375 5.37109375 4.4921875 C7 6 7 6 8 8 C7.01 8.33 6.02 8.66 5 9 C4.34 8.01 3.68 7.02 3 6 C0.94074861 5.27617533 0.94074861 5.27617533 -1 5 C-0.67 3.35 -0.34 1.7 0 0 Z " fill="#4482AF" transform="translate(280,101)"/>
<path d="M0 0 C-4.29 1.65 -8.58 3.3 -13 5 C-13 3 -13 3 -11.875 1.4375 C-8.05030686 -1.49476474 -4.49285 -1.1232125 0 0 Z " fill="#E3F6FD" transform="translate(170,63)"/>
<path d="M0 0 C-3.29334787 2.16420003 -6.02867481 3.67800066 -10 4 C-10.66 3.34 -11.32 2.68 -12 2 C-10.75579353 1.4654744 -9.50429064 0.94791389 -8.25 0.4375 C-7.55390625 0.14746094 -6.8578125 -0.14257812 -6.140625 -0.44140625 C-3.69987216 -1.07831803 -2.3596345 -0.80248831 0 0 Z " fill="#568CBA" transform="translate(231,205)"/>
<path d="M0 0 C0.99 0.33 1.98 0.66 3 1 C3 1.99 3 2.98 3 4 C6.465 3.505 6.465 3.505 10 3 C10 3.99 10 4.98 10 6 C1.42857143 5.28571429 1.42857143 5.28571429 -2 2 C-1.34 1.34 -0.68 0.68 0 0 Z " fill="#D4EAF5" transform="translate(166,201)"/>
<path d="M0 0 C2.77141717 -0.08089542 5.54047819 -0.14044062 8.3125 -0.1875 C9.09818359 -0.21263672 9.88386719 -0.23777344 10.69335938 -0.26367188 C11.45068359 -0.27333984 12.20800781 -0.28300781 12.98828125 -0.29296875 C14.03302612 -0.31653442 14.03302612 -0.31653442 15.09887695 -0.34057617 C17 0 17 0 20 3 C13.4 2.34 6.8 1.68 0 1 C0 0.67 0 0.34 0 0 Z " fill="#CCE6F7" transform="translate(192,91)"/>
<path d="M0 0 C3.89081843 1.29693948 6.48181674 2.70699112 9 6 C8.75 8.25 8.75 8.25 8 10 C7.38125 9.195625 6.7625 8.39125 6.125 7.5625 C4.25835959 4.96125481 4.25835959 4.96125481 2 4 C2 3.34 2 2.68 2 2 C1.34 2 0.68 2 0 2 C0 1.34 0 0.68 0 0 Z " fill="#558CB6" transform="translate(155,172)"/>
<path d="M0 0 C1.18974621 4.0003061 0.76327609 6.15285216 -1 10 C-3.625 12.375 -3.625 12.375 -6 14 C-5.71382812 13.44828125 -5.42765625 12.8965625 -5.1328125 12.328125 C-3.92260849 9.84094711 -2.8904694 7.32252247 -1.875 4.75 C-1.52179688 3.85796875 -1.16859375 2.9659375 -0.8046875 2.046875 C-0.53914062 1.37140625 -0.27359375 0.6959375 0 0 Z " fill="#C4E3F3" transform="translate(245,160)"/>
<path d="M0 0 C0.66 0 1.32 0 2 0 C1.7834375 1.051875 1.7834375 1.051875 1.5625 2.125 C0.98521625 5.07556141 0.48304859 8.03270151 0 11 C-0.66 11 -1.32 11 -2 11 C-2.28571429 3.57142857 -2.28571429 3.57142857 0 0 Z " fill="#4C84B4" transform="translate(83,136)"/>
<path d="M0 0 C0.36625971 4.51720311 0.36625971 4.51720311 -1.375 6.8125 C-3 8 -3 8 -5 8 C-5.25 5.6875 -5.25 5.6875 -5 3 C-1.79310345 0 -1.79310345 0 0 0 Z " fill="#E1F5FB" transform="translate(222,136)"/>
<path d="M0 0 C0.66 0 1.32 0 2 0 C2 0.66 2 1.32 2 2 C1.34 2 0.68 2 0 2 C-0.103125 3.27875 -0.20625 4.5575 -0.3125 5.875 C-0.48828125 8.0546875 -0.48828125 8.0546875 -1 10 C-1.99 10.66 -2.98 11.32 -4 12 C-3.53680089 7.27536912 -2.90108294 3.82942948 0 0 Z " fill="#4983B4" transform="translate(151,123)"/>
<path d="M0 0 C0 0.66 0 1.32 0 2 C-5.445 4.475 -5.445 4.475 -11 7 C-11.33 6.34 -11.66 5.68 -12 5 C-10.37750059 4.16180842 -8.75191503 3.3295884 -7.125 2.5 C-6.22007812 2.0359375 -5.31515625 1.571875 -4.3828125 1.09375 C-2 0 -2 0 0 0 Z " fill="#3E7BB0" transform="translate(162,82)"/>
<path d="M0 0 C1.32 0.33 2.64 0.66 4 1 C4 1.66 4 2.32 4 3 C4.721875 3.061875 5.44375 3.12375 6.1875 3.1875 C9.84657625 4.24456647 11.49211602 6.20550071 14 9 C2.96808511 4.78191489 2.96808511 4.78191489 0 0 Z " fill="#3775A8" transform="translate(250,79)"/>
<path d="M0 0 C4.83169556 0.59163619 9.40028099 1.37656976 14 3 C14.99 4.485 14.99 4.485 16 6 C10.63904723 4.41078475 5.29156027 2.81027062 0 1 C0 0.67 0 0.34 0 0 Z " fill="#C5E2F3" transform="translate(218,61)"/>
<path d="M0 0 C0.66 0.99 1.32 1.98 2 3 C0.3619751 6.51005335 -1.03134491 9.45543849 -4 12 C-4.33 11.01 -4.66 10.02 -5 9 C-4.34 8.01 -3.68 7.02 -3 6 C-2.34 6 -1.68 6 -1 6 C-0.67 4.02 -0.34 2.04 0 0 Z " fill="#4580AE" transform="translate(242,162)"/>
<path d="M0 0 C1 2 1 2 0.4375 3.875 C-1.8920157 7.31863191 -5.33038482 9.16519241 -9 11 C-8.1875 9.0625 -8.1875 9.0625 -7 7 C-6.01 6.67 -5.02 6.34 -4 6 C-2.90833725 4.06669397 -2.90833725 4.06669397 -2 2 C-1.34 1.34 -0.68 0.68 0 0 Z " fill="#6F9EC1" transform="translate(108,106)"/>
<path d="M0 0 C-1.28965176 1.37562854 -2.62689293 2.70766393 -4 4 C-4.66 4 -5.32 4 -6 4 C-6 4.66 -6 5.32 -6 6 C-6.66 6 -7.32 6 -8 6 C-7.625 3.5625 -7.625 3.5625 -7 1 C-4.53721199 -0.231394 -2.7204945 -0.07159196 0 0 Z " fill="#E2F7FD" transform="translate(171,98)"/>
<path d="M0 0 C0 0.66 0 1.32 0 2 C-5.47619048 7 -5.47619048 7 -8 7 C-7.8125 5.1875 -7.8125 5.1875 -7 3 C-2.82142857 0 -2.82142857 0 0 0 Z " fill="#4680AD" transform="translate(266,183)"/>
<path d="M0 0 C0.33 0.66 0.66 1.32 1 2 C0.0625 4.625 0.0625 4.625 -1 7 C-2.65 6.67 -4.3 6.34 -6 6 C-6.33 5.01 -6.66 4.02 -7 3 C-5.68 3 -4.36 3 -3 3 C-1.2488427 1.5833253 -1.2488427 1.5833253 0 0 Z " fill="#377EB6" transform="translate(283,110)"/>
<path d="M0 0 C3.36591866 1.44253657 5.51047079 3.33264727 8 6 C7.67 6.66 7.34 7.32 7 8 C5.82512964 7.24172908 4.66027408 6.46792245 3.5 5.6875 C2.52546875 5.04361328 2.52546875 5.04361328 1.53125 4.38671875 C1.0259375 3.92910156 0.520625 3.47148438 0 3 C0 2.01 0 1.02 0 0 Z " fill="#4C86B6" transform="translate(258,97)"/>
<path d="M0 0 C-0.99 0.33 -1.98 0.66 -3 1 C-3 1.66 -3 2.32 -3 3 C-5.70879335 4.35439668 -8.00933268 4.06501451 -11 4 C-9.71264403 1.42528807 -8.71510189 1.29583343 -6.0625 0.3125 C-5.35222656 0.04050781 -4.64195312 -0.23148437 -3.91015625 -0.51171875 C-2 -1 -2 -1 0 0 Z " fill="#6596BE" transform="translate(168,65)"/>
<path d="M0 0 C7.625 0.875 7.625 0.875 11 2 C11.33 2.99 11.66 3.98 12 5 C10.68 5 9.36 5 8 5 C8 4.34 8 3.68 8 3 C5.36 2.34 2.72 1.68 0 1 C0 0.67 0 0.34 0 0 Z " fill="#C5E2F3" transform="translate(152,198)"/>
<path d="M0 0 C0.99 0.66 1.98 1.32 3 2 C0.69 4.31 -1.62 6.62 -4 9 C-4.33 7.68 -4.66 6.36 -5 5 C-3.68 4.67 -2.36 4.34 -1 4 C-0.67 2.68 -0.34 1.36 0 0 Z " fill="#DFF1FB" transform="translate(272,171)"/>
<path d="M0 0 C0.33 0.99 0.66 1.98 1 3 C-0.3125 5.1875 -0.3125 5.1875 -2 7 C-2.66 7 -3.32 7 -4 7 C-4.33 7.99 -4.66 8.98 -5 10 C-5.66 9.67 -6.32 9.34 -7 9 C-4.69 6.03 -2.38 3.06 0 0 Z " fill="#C0DEEF" transform="translate(305,158)"/>
<path d="M0 0 C2.64752004 2.57784846 4.94432065 4.91648098 7 8 C5.68 8.33 4.36 8.66 3 9 C2.01 6.03 1.02 3.06 0 0 Z " fill="#D9EFF9" transform="translate(278,117)"/>
<path d="M0 0 C0.66 0 1.32 0 2 0 C2.8125 1.6875 2.8125 1.6875 3 4 C0.5625 6.75 0.5625 6.75 -2 9 C-2.25 3.375 -2.25 3.375 0 0 Z " fill="#3F80B9" transform="translate(107,121)"/>
<path d="M0 0 C0.99 0 1.98 0 3 0 C1.33333333 3.33333333 -0.33333333 6.66666667 -2 10 C-2.33 10 -2.66 10 -3 10 C-3.36265043 5.76907828 -2.60250805 3.37362154 0 0 Z " fill="#DDF3FC" transform="translate(153,112)"/>
<path d="M0 0 C2.25 -0.25 2.25 -0.25 5 0 C7.3125 1.875 7.3125 1.875 9 4 C9 4.66 9 5.32 9 6 C5.88802644 4.50164236 2.91164984 2.86022073 0 1 C0 0.67 0 0.34 0 0 Z " fill="#548DBC" transform="translate(245,90)"/>
<path d="M0 0 C4.875 4.625 4.875 4.625 6 8 C5.01 8 4.02 8 3 8 C3 6.68 3 5.36 3 4 C1.68 4.33 0.36 4.66 -1 5 C-0.67 3.35 -0.34 1.7 0 0 Z " fill="#C4E2F1" transform="translate(84,152)"/>
<path d="M0 0 C0.66 0 1.32 0 2 0 C2.33 2.64 2.66 5.28 3 8 C2.01 8 1.02 8 0 8 C0 5.36 0 2.72 0 0 Z " fill="#3475AA" transform="translate(225,128)"/>
<path d="M0 0 C0 0.33 0 0.66 0 1 C-1.76949612 1.50471197 -3.54065223 2.00360685 -5.3125 2.5 C-6.79169922 2.91765625 -6.79169922 2.91765625 -8.30078125 3.34375 C-11 4 -11 4 -14 4 C-13.67 3.01 -13.34 2.02 -13 1 C-8.60563789 0.14256349 -4.47427924 -0.08948558 0 0 Z " fill="#E5FAFF" transform="translate(184,58)"/>
<path d="M0 0 C-0.33 0.66 -0.66 1.32 -1 2 C-4.47325181 3.1577506 -7.36067448 3.06866652 -11 3 C-7.72430636 -0.27569364 -4.48909309 -0.12469703 0 0 Z " fill="#3A76B0" transform="translate(221,208)"/>
<path d="M0 0 C1.11375 0.1546875 1.11375 0.1546875 2.25 0.3125 C1.92 0.9725 1.59 1.6325 1.25 2.3125 C0.26 2.3125 -0.73 2.3125 -1.75 2.3125 C-1.75 2.9725 -1.75 3.6325 -1.75 4.3125 C-3.4 4.6425 -5.05 4.9725 -6.75 5.3125 C-3.42692308 0.38942308 -3.42692308 0.38942308 0 0 Z " fill="#CBE7F5" transform="translate(235.75,198.6875)"/>
<path d="M0 0 C0.33 0.66 0.66 1.32 1 2 C0.01 3.485 0.01 3.485 -1 5 C-1.45601261 7.50896686 -1.45601261 7.50896686 -1.625 10.1875 C-1.69976562 11.08855469 -1.77453125 11.98960937 -1.8515625 12.91796875 C-1.90054688 13.60503906 -1.94953125 14.29210937 -2 15 C-2.33 15 -2.66 15 -3 15 C-3.08107583 13.06318839 -3.13922475 11.1254066 -3.1875 9.1875 C-3.22230469 8.10855469 -3.25710937 7.02960938 -3.29296875 5.91796875 C-3 3 -3 3 -1.48828125 1.11328125 C-0.99714844 0.74589844 -0.50601563 0.37851563 0 0 Z " fill="#4B86B5" transform="translate(200,121)"/>
<path d="M0 0 C1.32 0.33 2.64 0.66 4 1 C1.36 2.98 -1.28 4.96 -4 7 C-2.73033708 1.92134831 -2.73033708 1.92134831 0 0 Z " fill="#DEF3FD" transform="translate(125,87)"/>
<path d="M0 0 C0 3.69418201 -1.28179295 5.77836178 -3 9 C-4.32 8.67 -5.64 8.34 -7 8 C-4.69 5.36 -2.38 2.72 0 0 Z " fill="#6D9AC2" transform="translate(292,153)"/>
<path d="M0 0 C0.66 1.32 1.32 2.64 2 4 C1.01 4.66 0.02 5.32 -1 6 C-1.99 5.67 -2.98 5.34 -4 5 C-2.68 3.35 -1.36 1.7 0 0 Z " fill="#4D8CC0" transform="translate(161,106)"/>
<path d="M0 0 C5.75 3.625 5.75 3.625 8 7 C6.35 6.67 4.7 6.34 3 6 C3 5.34 3 4.68 3 4 C2.34 4 1.68 4 1 4 C0.67 2.68 0.34 1.36 0 0 Z " fill="#D0EBF8" transform="translate(260,101)"/>
<path d="M0 0 C1.32 0.33 2.64 0.66 4 1 C2.02 3.31 0.04 5.62 -2 8 C-2.33 6.68 -2.66 5.36 -3 4 C-2.34 4 -1.68 4 -1 4 C-0.67 2.68 -0.34 1.36 0 0 Z " fill="#E1F6FD" transform="translate(106,104)"/>
<path d="M0 0 C5.875 2.75 5.875 2.75 7 5 C5.02 5 3.04 5 1 5 C0.67 3.35 0.34 1.7 0 0 Z " fill="#DBF1FA" transform="translate(251,95)"/>
<path d="M0 0 C0.66 0.33 1.32 0.66 2 1 C0.68 2.65 -0.64 4.3 -2 6 C-3.32 5.67 -4.64 5.34 -6 5 C-4.02 3.35 -2.04 1.7 0 0 Z " fill="#C2DFF1" transform="translate(230,182)"/>
<path d="M0 0 C0.66 0.99 1.32 1.98 2 3 C0.35 4.32 -1.3 5.64 -3 7 C-3.33 6.01 -3.66 5.02 -4 4 C-2.68 2.68 -1.36 1.36 0 0 Z " fill="#528BBC" transform="translate(276,171)"/>
<path d="M0 0 C0.33 0 0.66 0 1 0 C1.33 3.96 1.66 7.92 2 12 C1.67 11.34 1.34 10.68 1 10 C0.01 9.67 -0.98 9.34 -2 9 C-1.67 8.67 -1.34 8.34 -1 8 C-0.76924918 6.65252916 -0.58846937 5.29622435 -0.4375 3.9375 C-0.293125 2.638125 -0.14875 1.33875 0 0 Z " fill="#2D73B0" transform="translate(196,128)"/>
<path d="M0 0 C0.66 0 1.32 0 2 0 C2 0.66 2 1.32 2 2 C2.99 2.33 3.98 2.66 5 3 C5.33 4.65 5.66 6.3 6 8 C1.125 3.375 1.125 3.375 0 0 Z " fill="#6294C0" transform="translate(292,133)"/>
<path d="M0 0 C0.33 0.66 0.66 1.32 1 2 C0.0625 4.625 0.0625 4.625 -1 7 C-2.32 6.67 -3.64 6.34 -5 6 C-3.35 4.02 -1.7 2.04 0 0 Z " fill="#598FB8" transform="translate(98,117)"/>
<path d="M0 0 C3.96 0 7.92 0 12 0 C12 0.99 12 1.98 12 3 C6.06 2.01 6.06 2.01 0 1 C0 0.67 0 0.34 0 0 Z " fill="#6395C2" transform="translate(208,118)"/>
<path d="M0 0 C-0.75 1.9375 -0.75 1.9375 -2 4 C-4 4.8125 -4 4.8125 -6 5 C-6.66 4.67 -7.32 4.34 -8 4 C-2.25 0 -2.25 0 0 0 Z " fill="#C5E1F3" transform="translate(154,88)"/>
<path d="M0 0 C3.465 1.485 3.465 1.485 7 3 C7 3.66 7 4.32 7 5 C7.66 5.33 8.32 5.66 9 6 C8.01 6 7.02 6 6 6 C6 5.34 6 4.68 6 4 C4.35 4 2.7 4 1 4 C0.67 2.68 0.34 1.36 0 0 Z " fill="#D4EDF8" transform="translate(131,202)"/>
<path d="M0 0 C2.375 0.6875 2.375 0.6875 5 2 C6.3125 4.625 6.3125 4.625 7 7 C5.68 6.34 4.36 5.68 3 5 C3 4.34 3 3.68 3 3 C2.34 3 1.68 3 1 3 C0.67 2.01 0.34 1.02 0 0 Z " fill="#4D89B7" transform="translate(127,196)"/>
<path d="M0 0 C0 0.66 0 1.32 0 2 C-1.96147874 3.38938077 -3.96166576 4.7260411 -6 6 C-6 3 -6 3 -4.6875 1.3125 C-3 0 -3 0 0 0 Z " fill="#407FAF" transform="translate(272,192)"/>
<path d="M0 0 C1.32 0.33 2.64 0.66 4 1 C1.69 2.65 -0.62 4.3 -3 6 C-3.66 5.67 -4.32 5.34 -5 5 C-2.75 2.4375 -2.75 2.4375 0 0 Z " fill="#BEDBEF" transform="translate(249,191)"/>
<path d="M0 0 C3.57104439 1.87949705 5.54744301 3.17053157 7 7 C4.525 6.01 4.525 6.01 2 5 C2 4.34 2 3.68 2 3 C1.34 3 0.68 3 0 3 C0 2.01 0 1.02 0 0 Z " fill="#4E88B6" transform="translate(117,171)"/>
<path d="M0 0 C2.02045442 0.60183749 4.02111039 1.27306096 6 2 C6.33 2.66 6.66 3.32 7 4 C6.34 4.66 5.68 5.32 5 6 C3.35 4.02 1.7 2.04 0 0 Z " fill="#6096C3" transform="translate(270,109)"/>
<path d="M0 0 C2 0.8125 2 0.8125 3.25 2.875 C3.4975 3.514375 3.745 4.15375 4 4.8125 C1.0280615 3.68798273 -1.33440687 2.58956209 -4 0.8125 C-2 -0.1875 -2 -0.1875 0 0 Z " fill="#4D85B4" transform="translate(241,85.1875)"/>
</svg>
