<?xml version="1.0" encoding="UTF-8"?>
<svg version="1.1" xmlns="http://www.w3.org/2000/svg" width="314" height="233">
<path d="M0 0 C103.62 0 207.24 0 314 0 C314 76.89 314 153.78 314 233 C210.38 233 106.76 233 0 233 C0 156.11 0 79.22 0 0 Z " fill="#FEFEFE" transform="translate(0,0)"/>
<path d="M0 0 C4.45084315 1.54158866 7.98600268 4.40638781 11 8 C12.18681726 11.56045177 12.09689832 14.43808337 12.0625 18.1875 C12.05347656 19.45980469 12.04445312 20.73210938 12.03515625 22.04296875 C12.01775391 23.50669922 12.01775391 23.50669922 12 25 C11.34 25 10.68 25 10 25 C9.731875 25.5775 9.46375 26.155 9.1875 26.75 C7.97070811 29.05550043 6.69666121 31.02056192 5 33 C4.34 33 3.68 33 3 33 C3 33.66 3 34.32 3 35 C1.51339722 36.46412659 1.51339722 36.46412659 -0.53173828 38.15844727 C-4.73627099 41.73563169 -8.62592651 45.52846282 -12.4921875 49.46484375 C-13.86966444 50.85494379 -15.24727223 52.24491418 -16.625 53.63476562 C-18.76653766 55.80129119 -20.90642173 57.96940629 -23.04394531 60.13989258 C-25.1265556 62.25251779 -27.21518989 64.35903353 -29.3046875 66.46484375 C-30.26868973 67.44903542 -30.26868973 67.44903542 -31.25216675 68.45310974 C-31.84683746 69.05115921 -32.44150818 69.64920868 -33.05419922 70.26538086 C-33.57634003 70.7949791 -34.09848083 71.32457733 -34.63644409 71.870224 C-36 73 -36 73 -38 73 C-38.26643311 73.59240479 -38.53286621 74.18480957 -38.80737305 74.79516602 C-40.02445218 77.04520525 -41.26299628 78.49331612 -43.08203125 80.27734375 C-43.98598633 81.17163086 -43.98598633 81.17163086 -44.90820312 82.08398438 C-45.85083008 83.00147461 -45.85083008 83.00147461 -46.8125 83.9375 C-47.42931641 84.54529297 -48.04613281 85.15308594 -48.68164062 85.77929688 C-49.89335397 86.97298261 -51.10757596 88.16412791 -52.32446289 89.35253906 C-53.79092996 90.79443324 -55.23349966 92.26055009 -56.671875 93.73046875 C-58.83587061 95.84000138 -60.9769839 97.62662634 -63.4375 99.375 C-64.29988281 99.98859375 -65.16226563 100.6021875 -66.05078125 101.234375 C-69 103 -69 103 -72.48046875 104.265625 C-79.21308247 106.77682497 -82.65111538 108.55627799 -85.671875 115.11328125 C-87.75502358 120.31188052 -89.48062197 125.61120498 -91 131 C-91.66 131 -92.32 131 -93 131 C-93.2475 131.72703125 -93.495 132.4540625 -93.75 133.203125 C-99.25940848 145.53042646 -113.65917886 155.44039909 -125 162 C-125.56879883 162.33418945 -126.13759766 162.66837891 -126.72363281 163.01269531 C-135.60092539 168.18435097 -143.96854253 171.59042109 -154 174 C-154.78246094 174.22429687 -155.56492187 174.44859375 -156.37109375 174.6796875 C-161.74845418 176.21008637 -167.28490693 177.28966921 -172.5 174.8125 C-174 173 -174 173 -174.25 170.3125 C-174.12625 169.1678125 -174.12625 169.1678125 -174 168 C-173.0409375 167.5978125 -173.0409375 167.5978125 -172.0625 167.1875 C-169.66868314 166.11332248 -169.66868314 166.11332248 -169 163 C-167.01739574 161.31267723 -165.0167658 159.64633943 -163 158 C-162.34 157.01 -161.68 156.02 -161 155 C-160.34 155 -159.68 155 -159 155 C-158.731875 154.360625 -158.46375 153.72125 -158.1875 153.0625 C-157 151 -157 151 -154 150 C-153.67 149.01 -153.34 148.02 -153 147 C-152.34 147 -151.68 147 -151 147 C-150.731875 146.360625 -150.46375 145.72125 -150.1875 145.0625 C-149 143 -149 143 -146 142 C-145.67 141.01 -145.34 140.02 -145 139 C-144.34 139 -143.68 139 -143 139 C-142.731875 138.360625 -142.46375 137.72125 -142.1875 137.0625 C-141 135 -141 135 -138 134 C-137.67 133.01 -137.34 132.02 -137 131 C-136.34 131 -135.68 131 -135 131 C-134.61279785 130.12275269 -134.61279785 130.12275269 -134.21777344 129.2277832 C-132.90141717 126.81965351 -131.4790273 125.26568921 -129.515625 123.35546875 C-128.82726562 122.67806641 -128.13890625 122.00066406 -127.4296875 121.30273438 C-126.71039063 120.60470703 -125.99109375 119.90667969 -125.25 119.1875 C-120.73310876 114.78229013 -116.32809037 110.38458148 -112.29101562 105.53027344 C-110.31649572 103.1898251 -108.25849845 101.07029025 -106 99 C-105.34 99 -104.68 99 -104 99 C-103.75894531 98.43539062 -103.51789063 97.87078125 -103.26953125 97.2890625 C-101.74215369 94.53508327 -99.90755784 92.60625141 -97.6875 90.375 C-96.92824219 89.59898438 -96.16898437 88.82296875 -95.38671875 88.0234375 C-93 86 -93 86 -90.26953125 84.9765625 C-89.52058594 84.65429688 -88.77164063 84.33203125 -88 84 C-87.65901938 82.66860182 -87.32666725 81.33498217 -87 80 C-85.81665039 78.35253906 -85.81665039 78.35253906 -84.34765625 76.765625 C-83.81849609 76.19199219 -83.28933594 75.61835937 -82.74414062 75.02734375 C-82.18919922 74.44082031 -81.63425781 73.85429688 -81.0625 73.25 C-80.23588867 72.34701172 -80.23588867 72.34701172 -79.39257812 71.42578125 C-77.97454883 69.90609493 -76.49153798 68.44760769 -75 67 C-74.34 67 -73.68 67 -73 67 C-72.7628125 66.43410156 -72.525625 65.86820312 -72.28125 65.28515625 C-70.71901476 62.49885254 -68.80262557 60.64667486 -66.5 58.4375 C-63.97190847 56.0038015 -61.95327066 53.92990599 -60 51 C-59.34 51 -58.68 51 -58 51 C-57.74114014 50.41895508 -57.48228027 49.83791016 -57.21557617 49.23925781 C-55.90515824 46.82528848 -54.45153118 45.15002879 -52.55078125 43.171875 C-51.86693359 42.45386719 -51.18308594 41.73585937 -50.47851562 40.99609375 C-49.40633789 39.88427734 -49.40633789 39.88427734 -48.3125 38.75 C-42.02946153 32.19327959 -35.87407052 25.58551638 -30.1875 18.5 C-29.465625 17.675 -28.74375 16.85 -28 16 C-27.34 16 -26.68 16 -26 16 C-25.62875 15.1646875 -25.62875 15.1646875 -25.25 14.3125 C-23.77075182 11.57589087 -22.06532561 9.32349131 -20 7 C-19.34 7 -18.68 7 -18 7 C-17.7525 6.401875 -17.505 5.80375 -17.25 5.1875 C-13.41374141 -1.52595253 -6.89345153 -0.82215477 0 0 Z " fill="#337FC1" transform="translate(234,21)"/>
<path d="M0 0 C6.04491208 3.64523054 9.66759177 8.61692542 12.44140625 15.05859375 C12.77734375 18.57421875 12.77734375 18.57421875 12.81640625 22.30859375 C13.35286763 32.85212318 17.43033825 39.29910957 24.0859375 47.24609375 C25.44140625 49.05859375 25.44140625 49.05859375 25.44140625 51.05859375 C26.76140625 51.71859375 28.08140625 52.37859375 29.44140625 53.05859375 C28.96893983 57.3107915 26.66868248 59.431741 23.44140625 62.05859375 C20.67635152 61.89627272 19.58602014 61.19217524 17.546875 59.30859375 C-0.1115972 38.5931559 -0.1115972 38.5931559 -0.12109375 26.37109375 C-0.03398357 20.25771452 -0.03398357 20.25771452 -1.78125 14.515625 C-4.75628434 12.0767507 -7.4067377 12.39024757 -11.1171875 12.546875 C-14.23540884 13.20045419 -15.83224688 14.64157144 -17.61328125 17.26953125 C-18.56164717 19.06437255 -19.36048808 20.86459552 -20.12109375 22.74609375 C-21.64357606 26.25442255 -22.38752337 27.1269206 -25.55859375 29.05859375 C-27.9609375 29.6484375 -27.9609375 29.6484375 -30.49609375 29.99609375 C-34.8231867 30.79504001 -37.72041936 31.46357286 -40.55859375 35.05859375 C-41.26035585 39.89295486 -41.05042084 42.03710673 -38.93359375 46.43359375 C-35.56373611 50.15817324 -32.77026348 50.77734095 -27.85546875 51.40234375 C-17.15727234 52.82876994 -10.58303923 56.23330965 -3.74609375 64.68359375 C-3.05902344 65.60398437 -2.37195313 66.524375 -1.6640625 67.47265625 C0.48178114 70.1081822 2.78099824 71.96537933 5.44140625 74.05859375 C6.56640625 76.49609375 6.56640625 76.49609375 6.44140625 79.05859375 C4.25390625 81.87109375 4.25390625 81.87109375 1.44140625 84.05859375 C-2.55859375 84.05859375 -2.55859375 84.05859375 -4.1640625 82.58984375 C-4.68613281 81.91953125 -5.20820312 81.24921875 -5.74609375 80.55859375 C-9.09635904 76.46544354 -12.78770122 73.11533507 -16.8359375 69.72265625 C-17.40441406 69.17351562 -17.97289062 68.624375 -18.55859375 68.05859375 C-18.55859375 67.39859375 -18.55859375 66.73859375 -18.55859375 66.05859375 C-23.13280355 64.76400607 -27.30803284 63.95524368 -32.05859375 63.68359375 C-39.64059691 63.06572333 -45.48630672 59.91884446 -51.08203125 54.80859375 C-55.56444568 49.49610258 -56.17398282 42.42481676 -55.9765625 35.703125 C-55.28943092 31.35557289 -53.31972424 28.40703653 -50.55859375 25.05859375 C-49.79546875 24.13046875 -49.03234375 23.20234375 -48.24609375 22.24609375 C-43.21259522 18.14906006 -38.06359962 16.57071831 -31.55859375 17.05859375 C-31.31109375 16.19234375 -31.06359375 15.32609375 -30.80859375 14.43359375 C-28.43591912 8.02737225 -24.93091956 4.05926191 -19.55859375 0.05859375 C-13.55997257 -1.94094664 -5.96862045 -2.19608783 0 0 Z " fill="#3681C0" transform="translate(114.55859375,38.94140625)"/>
<path d="M0 0 C3.34760936 1.49761471 5.63188051 3.62417156 8.375 6.0625 C9.035 6.3925 9.695 6.7225 10.375 7.0625 C10.375 7.7225 10.375 8.3825 10.375 9.0625 C11.303125 9.5265625 11.303125 9.5265625 12.25 10 C13.625 10.6875 15 11.375 16.375 12.0625 C16.375 12.7225 16.375 13.3825 16.375 14.0625 C21.13963234 15.43691318 25.35019542 16.14094786 30.3125 16.3125 C36.46075277 16.72655006 40.89942405 18.80166128 45.375 23.0625 C45.375 23.7225 45.375 24.3825 45.375 25.0625 C46.035 25.0625 46.695 25.0625 47.375 25.0625 C50.6675349 32.47070353 51.76918609 39.36113846 49.3125 47.25 C47.33537096 51.77176735 44.45209981 55.27370311 40.375 58.0625 C37.8359375 58.8125 37.8359375 58.8125 35.1875 59.375 C31.38574248 60.28293719 31.38574248 60.28293719 29.0234375 63.25 C28.38137424 65.0039289 27.7796982 66.77315756 27.21875 68.5546875 C25.57697076 73.43442023 22.78604377 76.16183376 18.4375 78.9375 C11.93432228 81.34396224 3.41664575 81.35366235 -2.91015625 78.66796875 C-5.63943862 77.05396148 -7.5902277 75.48857467 -9.625 73.0625 C-9.625 72.4025 -9.625 71.7425 -9.625 71.0625 C-10.285 71.0625 -10.945 71.0625 -11.625 71.0625 C-13.64533901 65.68304313 -13.97562436 60.87927148 -14.18359375 55.18359375 C-14.6667832 51.76705946 -15.82121995 49.95335817 -17.625 47.0625 C-17.625 45.7425 -17.625 44.4225 -17.625 43.0625 C-18.285 43.0625 -18.945 43.0625 -19.625 43.0625 C-23.72089328 39.04739357 -27.51438508 35.23792666 -27.8125 29.375 C-26.54748188 25.84626525 -25.21796704 22.45621239 -23.625 19.0625 C-17.374257 21.48214245 -13.5948211 27.90595924 -9.625 33.0625 C-8.99335938 33.87203125 -8.36171875 34.6815625 -7.7109375 35.515625 C-3.75996087 41.23772909 -2.77840806 46.54076836 -2.38085938 53.35449219 C-2.03386547 58.29304635 -0.71476773 61.21486471 2.375 65.0625 C5.36163747 66.55581873 7.84586231 66.28763053 11.1171875 65.8984375 C14.83154191 64.5232267 15.84861694 61.81175496 17.453125 58.35546875 C17.75734375 57.59878906 18.0615625 56.84210938 18.375 56.0625 C18.766875 55.093125 19.15875 54.12375 19.5625 53.125 C19.830625 52.444375 20.09875 51.76375 20.375 51.0625 C22.71900368 48.71849632 24.07275873 48.51838328 27.25 47.75 C30.67609056 46.75980042 32.2724487 46.15284281 35 43.75 C36.63861418 40.5472541 36.75333242 38.61882475 36.375 35.0625 C36.313125 34.32 36.25125 33.5775 36.1875 32.8125 C35.49100912 30.83498416 35.49100912 30.83498416 33.1796875 29.97265625 C30.21147925 29.00943547 27.7980081 28.82890474 24.6875 28.75 C18.36336184 28.34249667 13.75985084 26.29102783 8.375 23.0625 C8.375 22.4025 8.375 21.7425 8.375 21.0625 C7.611875 20.77375 6.84875 20.485 6.0625 20.1875 C3.375 19.0625 3.375 19.0625 0.375 17.0625 C0.375 16.4025 0.375 15.7425 0.375 15.0625 C-0.20765625 14.8046875 -0.7903125 14.546875 -1.390625 14.28125 C-3.8052903 12.96415983 -5.44240177 11.51161616 -7.375 9.5625 C-7.98859375 8.9540625 -8.6021875 8.345625 -9.234375 7.71875 C-10.625 6.0625 -10.625 6.0625 -10.625 4.0625 C-3.75299744 0.08935708 -3.75299744 0.08935708 0 0 Z " fill="#3580C0" transform="translate(175.625,126.9375)"/>
<path d="M0 0 C2.4375 0.62890625 2.4375 0.62890625 4.7265625 2.58984375 C7.06780334 6.74848616 6.86377801 10.13179383 6.8125 14.81640625 C6.94978229 23.00966269 8.42086391 28.01606777 13.4375 34.62890625 C13.7675 35.61890625 14.0975 36.60890625 14.4375 37.62890625 C15.4275 37.95890625 16.4175 38.28890625 17.4375 38.62890625 C19.55109807 41.12876763 21.46010812 43.74435156 23.40234375 46.37890625 C25.23122262 48.70405606 25.23122262 48.70405606 27.51953125 49.5625 C30.6634801 49.67135363 32.2190939 47.66244518 34.4375 45.62890625 C34.1075 47.60890625 33.7775 49.58890625 33.4375 51.62890625 C32.4475 51.62890625 31.4575 51.62890625 30.4375 51.62890625 C30.4375 52.61890625 30.4375 53.60890625 30.4375 54.62890625 C33.40815509 54.28663053 33.40815509 54.28663053 36.4375 53.62890625 C36.9325 52.63890625 36.9325 52.63890625 37.4375 51.62890625 C37.4375 52.61890625 37.4375 53.60890625 37.4375 54.62890625 C35.93359375 55.98828125 35.93359375 55.98828125 33.875 57.37890625 C29.26607612 60.65927912 24.01759358 64.46871909 21.4375 69.62890625 C20.7775 69.62890625 20.1175 69.62890625 19.4375 69.62890625 C19.169375 70.26828125 18.90125 70.90765625 18.625 71.56640625 C17.4375 73.62890625 17.4375 73.62890625 14.4375 74.62890625 C14.1075 75.28890625 13.7775 75.94890625 13.4375 76.62890625 C13.1075 77.28890625 12.7775 77.94890625 12.4375 78.62890625 C11.4475 78.95890625 10.4575 79.28890625 9.4375 79.62890625 C9.1075 80.28890625 8.7775 80.94890625 8.4375 81.62890625 C8.7675 79.97890625 9.0975 78.32890625 9.4375 76.62890625 C10.0975 76.62890625 10.7575 76.62890625 11.4375 76.62890625 C11.4375 75.96890625 11.4375 75.30890625 11.4375 74.62890625 C10.4475 74.95890625 9.4575 75.28890625 8.4375 75.62890625 C8.4375 74.96890625 8.4375 74.30890625 8.4375 73.62890625 C7.4475 73.13390625 7.4475 73.13390625 6.4375 72.62890625 C7.7059375 71.54609375 7.7059375 71.54609375 9 70.44140625 C11.64167332 67.93735481 11.64167332 67.93735481 11.6875 65.19140625 C10.12419171 61.98662426 8.11707281 60.44541473 5.359375 58.24609375 C2.36158411 55.72356239 -0.30590986 52.83607465 -2.5625 49.62890625 C-2.5625 48.96890625 -2.5625 48.30890625 -2.5625 47.62890625 C-3.2225 47.38140625 -3.8825 47.13390625 -4.5625 46.87890625 C-7.5625 45.62890625 -7.5625 45.62890625 -9.21875 44.67578125 C-14.5292509 41.66049684 -19.45582156 40.89661197 -25.51171875 40.31640625 C-29.70453534 39.37154617 -32.3123094 37.29582705 -34.875 33.87890625 C-35.94224077 30.38611827 -36.32865917 27.1901276 -35.5625 23.62890625 C-31.40907611 18.43712639 -26.66395732 17.69154549 -20.26953125 16.59765625 C-17.37852812 15.84674569 -17.37852812 15.84674569 -15.7890625 13.2265625 C-14.89870985 11.34094303 -14.01103976 9.45405616 -13.125 7.56640625 C-9.69232131 1.11297031 -7.08781902 0.18367824 0 0 Z " fill="#F8FCFD" transform="translate(108.5625,50.37109375)"/>
<path d="M0 0 C0.66 0.33 1.32 0.66 2 1 C0.02 3.31 -1.96 5.62 -4 8 C-2.35 8 -0.7 8 1 8 C1.33 7.34 1.66 6.68 2 6 C4.475 6.99 4.475 6.99 7 8 C5 9 5 9 2.5625 9.4375 C-0.22313472 9.88629903 -0.22313472 9.88629903 -3 12 C-3.99 12 -4.98 12 -6 12 C-4.92173635 13.27513763 -3.83714481 14.54492569 -2.75 15.8125 C-2.14671875 16.52019531 -1.5434375 17.22789062 -0.921875 17.95703125 C0.93917218 20.05997556 0.93917218 20.05997556 3.234375 21.63671875 C4.10835937 22.31154297 4.10835937 22.31154297 5 23 C5 23.66 5 24.32 5 25 C5.5775 25.28875 6.155 25.5775 6.75 25.875 C8.83333333 26.91666667 10.91666667 27.95833333 13 29 C13 29.66 13 30.32 13 31 C14.36125 31.433125 14.36125 31.433125 15.75 31.875 C19 33 19 33 20.83203125 34.04296875 C24.41777745 35.62586572 28.1543193 35.40680645 32.02734375 35.55859375 C35.35779088 36.05312795 37.27936973 37.05117974 40 39 C42.32849047 42.21553446 42.54457007 45.11021377 42 49 C39.22174566 53.72303238 37.06554707 55.23718326 31.8125 56.75 C30.95269531 56.95109375 30.09289062 57.1521875 29.20703125 57.359375 C26.81811838 57.86057169 26.81811838 57.86057169 25 60 C23.93844995 62.46692199 23.02651163 64.97262027 22.09765625 67.4921875 C20.97037989 70.067673 19.9283949 71.95251183 18 74 C15.00731499 75.12646009 12.17395484 75.34026581 9 75 C5.8548173 72.59092389 4.18732006 70.28098008 2 67 C1.83271481 65.25486435 1.67259574 63.50829046 1.57177734 61.75805664 C0.67211495 47.88526256 -7.14556619 37.52358951 -17 28 C-17.66 27.67 -18.32 27.34 -19 27 C-19.1546875 28.2375 -19.1546875 28.2375 -19.3125 29.5 C-20.11646056 33.59289012 -21.46352158 37.12540225 -23 41 C-23.66 41 -24.32 41 -25 41 C-25.33 39.02 -25.66 37.04 -26 35 C-26.99 35.66 -27.98 36.32 -29 37 C-30.485 37.495 -30.485 37.495 -32 38 C-31.34 36.35 -30.68 34.7 -30 33 C-29.34 33 -28.68 33 -28 33 C-27.88785156 32.16597656 -27.77570313 31.33195312 -27.66015625 30.47265625 C-26.3787509 23.73200918 -24.03346232 15.24289958 -19.24609375 10.125 C-17.21622486 8.83673248 -15.22130769 7.92156732 -13 7 C-10.85051815 5.92392399 -8.7048381 4.840229 -6.5625 3.75 C-5.01755859 2.99976562 -5.01755859 2.99976562 -3.44140625 2.234375 C-1.11206208 1.21605676 -1.11206208 1.21605676 0 0 Z " fill="#F8FCFC" transform="translate(171,119)"/>
<path d="M0 0 C0.33 0.99 0.66 1.98 1 3 C1.99 3.33 2.98 3.66 4 4 C7.40860559 8.67400767 8.68206331 13.25118066 8 19 C6.77030262 25.55523295 5.66341664 30.91707172 0 35 C-2.96680367 36.2361682 -5.57140532 36.94155527 -8.75 37.375 C-11.18363423 37.78069951 -11.18363423 37.78069951 -12.3125 40.0625 C-12.539375 40.701875 -12.76625 41.34125 -13 42 C-14.65 41.67 -16.3 41.34 -18 41 C-18.33 41.99 -18.66 42.98 -19 44 C-20.38545753 40.15150687 -19.91355473 36.93531268 -19 33 C-16.11805973 28.8987773 -12.79242062 28.02694728 -8 27 C-6.68 27 -5.36 27 -4 27 C-4 26.01 -4 25.02 -4 24 C-3.01 24 -2.02 24 -1 24 C-1.30947671 22.06201479 -1.62268834 20.12462574 -1.9375 18.1875 C-2.11152344 17.10855469 -2.28554687 16.02960938 -2.46484375 14.91796875 C-2.93871921 11.95066644 -2.93871921 11.95066644 -4 9 C-4.66 8.67 -5.32 8.34 -6 8 C-6 7.34 -6 6.68 -6 6 C-6.66 6 -7.32 6 -8 6 C-8 4.02 -8 2.04 -8 0 C-5.13822943 -1.43088528 -3.06624227 -0.59991697 0 0 Z " fill="#3180C3" transform="translate(216,148)"/>
<path d="M0 0 C0.99 0.495 0.99 0.495 2 1 C-1.39323475 3.66611302 -4.19045277 5.717377 -8.30078125 7.15234375 C-14.90997846 9.6015092 -18.64067549 11.51069707 -21.68359375 18.12109375 C-23.75910076 23.31759417 -25.48189832 28.61573185 -27 34 C-27.66 34 -28.32 34 -29 34 C-29.37125 35.09054688 -29.37125 35.09054688 -29.75 36.203125 C-35.25940848 48.53042646 -49.65917886 58.44039909 -61 65 C-61.56879883 65.33418945 -62.13759766 65.66837891 -62.72363281 66.01269531 C-71.58390083 71.17443294 -79.97242477 74.63033269 -90 77 C-91.00740234 77.29390625 -91.00740234 77.29390625 -92.03515625 77.59375 C-94.63424315 78.13113576 -97.09910456 78.09405828 -99.75 78.0625 C-100.73484375 78.05347656 -101.7196875 78.04445313 -102.734375 78.03515625 C-103.48203125 78.02355469 -104.2296875 78.01195312 -105 78 C-105 77.67 -105 77.34 -105 77 C-103.80761719 76.80664062 -102.61523438 76.61328125 -101.38671875 76.4140625 C-99.82024888 76.15142084 -98.25384605 75.88837912 -96.6875 75.625 C-95.90181641 75.49867188 -95.11613281 75.37234375 -94.30664062 75.2421875 C-93.1706543 75.04882812 -93.1706543 75.04882812 -92.01171875 74.8515625 C-91.31522217 74.73635254 -90.61872559 74.62114258 -89.90112305 74.50244141 C-87.69171241 74.02824879 -87.69171241 74.02824879 -85 72 C-83.63264746 71.6659863 -82.2509897 71.38789288 -80.86328125 71.15234375 C-75.798689 70.10127935 -71.6830321 68.06271057 -67.1875 65.5625 C-66.45080078 65.16740234 -65.71410156 64.77230469 -64.95507812 64.36523438 C-61.42001984 62.44602025 -58.2157903 60.42157574 -55 58 C-54.34 58 -53.68 58 -53 58 C-52.67 57.01 -52.34 56.02 -52 55 C-50.44140625 53.61328125 -50.44140625 53.61328125 -48.5625 52.3125 C-47.94503906 51.87550781 -47.32757813 51.43851563 -46.69140625 50.98828125 C-45 50 -45 50 -43 50 C-42.7525 49.443125 -42.505 48.88625 -42.25 48.3125 C-40.76129471 45.55839521 -39.11590028 43.30825486 -37 41 C-36.01 41 -35.02 41 -34 41 C-33.86948242 40.41226807 -33.73896484 39.82453613 -33.60449219 39.21899414 C-32.45364095 34.99440332 -30.14398019 31.16037612 -28.13330078 27.28540039 C-26.04819956 23.22665409 -24.37421864 19.25524967 -22.875 14.9375 C-19.76613081 7.83303948 -12.74372292 5.79155234 -6 3 C-4.90558594 2.4225 -3.81117188 1.845 -2.68359375 1.25 C-1.79800781 0.8375 -0.91242188 0.425 0 0 Z " fill="#3D79AA" transform="translate(170,118)"/>
<path d="M0 0 C0.99 0 1.98 0 3 0 C2.25 2.4375 2.25 2.4375 1 5 C-1.125 5.8125 -1.125 5.8125 -3 6 C-3 6.66 -3 7.32 -3 8 C-3.66 8 -4.32 8 -5 8 C-4.505 9.485 -4.505 9.485 -4 11 C-5.8125 13 -5.8125 13 -8 15 C-8.99 15 -9.98 15 -11 15 C-11 15.66 -11 16.32 -11 17 C-13.375 19.625 -13.375 19.625 -16 22 C-16.66 22 -17.32 22 -18 22 C-18 23.32 -18 24.64 -18 26 C-18.639375 26.103125 -19.27875 26.20625 -19.9375 26.3125 C-20.618125 26.539375 -21.29875 26.76625 -22 27 C-22.33 27.99 -22.66 28.98 -23 30 C-23.99 30.33 -24.98 30.66 -26 31 C-27.58558381 32.63502936 -27.58558381 32.63502936 -29.0625 34.5625 C-30.59765625 36.50390625 -30.59765625 36.50390625 -32 38 C-32.66 38 -33.32 38 -34 38 C-34.28875 38.598125 -34.5775 39.19625 -34.875 39.8125 C-36 42 -36 42 -38 45 C-38.66 45 -39.32 45 -40 45 C-40.33 45.99 -40.66 46.98 -41 48 C-42.87617698 49.84499398 -44.92737609 51.3683599 -47 53 C-47.66 52.34 -48.32 51.68 -49 51 C-45.61402512 46.66171968 -42.00103076 43.13278849 -37.76953125 39.61328125 C-35.77730559 37.92720578 -35.77730559 37.92720578 -34 35 C-33.34 35 -32.68 35 -32 35 C-31.75894531 34.43539062 -31.51789063 33.87078125 -31.26953125 33.2890625 C-29.74215369 30.53508327 -27.90755784 28.60625141 -25.6875 26.375 C-24.92824219 25.59898438 -24.16898438 24.82296875 -23.38671875 24.0234375 C-21 22 -21 22 -18.26953125 20.9765625 C-17.52058594 20.65429688 -16.77164063 20.33203125 -16 20 C-15.65901938 18.66860182 -15.32666725 17.33498217 -15 16 C-13.81665039 14.35253906 -13.81665039 14.35253906 -12.34765625 12.765625 C-11.55391602 11.90517578 -11.55391602 11.90517578 -10.74414062 11.02734375 C-10.18919922 10.44082031 -9.63425781 9.85429688 -9.0625 9.25 C-8.51142578 8.64800781 -7.96035156 8.04601562 -7.39257812 7.42578125 C-5.97454883 5.90609493 -4.49153798 4.44760769 -3 3 C-2.34 3 -1.68 3 -1 3 C-0.67 2.01 -0.34 1.02 0 0 Z " fill="#4881B1" transform="translate(162,85)"/>
<path d="M0 0 C4.4927751 -0.39642133 7.08432963 0.87901188 11 3 C12.65910004 3.68528045 14.32332564 4.35891863 16 5 C15.01 5.495 15.01 5.495 14 6 C14.825 6.9075 15.65 7.815 16.5 8.75 C19.03294997 11.53624497 19 11.87258261 19 16 C17.1875 17.8125 17.1875 17.8125 15 19 C11.23448565 17.74482855 10.31687021 16.13098435 7.9375 13 C5.4236329 9.45831012 5.4236329 9.45831012 2 7 C1.26924352 4.6859378 0.59861742 2.35171131 0 0 Z " fill="#3480C2" transform="translate(122,80)"/>
<path d="M0 0 C2.375 1.625 2.375 1.625 3.375 4.625 C1.875 6.6640625 1.875 6.6640625 -0.625 8.625 C-3.50440193 8.64299626 -5.82856668 8.47113822 -8.625 8 C-9.3365625 7.90332031 -10.048125 7.80664062 -10.78125 7.70703125 C-14.38353315 7.17609773 -17.49709464 6.53106733 -20.625 4.625 C-20.625 3.965 -20.625 3.305 -20.625 2.625 C-19.965 2.625 -19.305 2.625 -18.625 2.625 C-18.521875 1.985625 -18.41875 1.34625 -18.3125 0.6875 C-18.085625 0.006875 -17.85875 -0.67375 -17.625 -1.375 C-11.87341473 -3.29219509 -5.57613789 -2.11508679 0 0 Z " fill="#3280C4" transform="translate(94.625,93.375)"/>
<path d="M0 0 C1.24546405 2.49092811 0.7767578 3.41080733 0 6 C-0.66 6 -1.32 6 -2 6 C-2 6.99 -2 7.98 -2 9 C-4.1953125 11.0859375 -4.1953125 11.0859375 -7.125 13.375 C-8.13046875 14.17164062 -9.1359375 14.96828125 -10.171875 15.7890625 C-11.10515625 16.51867187 -12.0384375 17.24828125 -13 18 C-15.96211505 20.38682825 -18.80635894 22.80635894 -21.5 25.5 C-23.37680358 27.37680358 -25.18648273 28.98401246 -27.25 30.625 C-30.20737266 32.76996366 -30.20737266 32.76996366 -31 36 C-32.63671875 37.6484375 -32.63671875 37.6484375 -34.6875 39.375 C-35.40292969 39.98214844 -36.11835938 40.58929688 -36.85546875 41.21484375 C-37.56316406 41.80394531 -38.27085937 42.39304688 -39 43 C-39.92232422 43.77537109 -39.92232422 43.77537109 -40.86328125 44.56640625 C-42.23698821 45.7171727 -43.61768397 46.85958928 -45 48 C-45.66 47.67 -46.32 47.34 -47 47 C-43.71920635 42.79648314 -40.23633957 39.38095774 -36.18359375 35.92578125 C-32.26987093 32.47414377 -28.65853186 28.71764638 -25 25 C-23.33411832 23.33254871 -21.66735312 21.66597993 -20 20 C-19.20682373 19.20682373 -18.41364746 18.41364746 -17.59643555 17.59643555 C-11.73095703 11.73095703 -5.86547852 5.86547852 0 0 Z " fill="#DBF0F8" transform="translate(220,71)"/>
<path d="M0 0 C7.90192868 -0.72200364 12.97578672 -0.26245443 19.453125 4.4921875 C19.96359375 4.98976562 20.4740625 5.48734375 21 6 C21 6.66 21 7.32 21 8 C21.66 8 22.32 8 23 8 C26.2925349 15.40820353 27.39418609 22.29863846 24.9375 30.1875 C22.96037096 34.70926735 20.07709981 38.21120311 16 41 C13.4609375 41.75 13.4609375 41.75 10.8125 42.3125 C7.45215812 43.10016004 6.3561579 43.44071369 4.47265625 46.3984375 C3.48233689 48.91476499 2.65899644 51.37876788 2 54 C1.34 54 0.68 54 0 54 C0.42683239 52.41375765 0.86696158 50.8310902 1.3125 49.25 C1.67794922 47.92742187 1.67794922 47.92742187 2.05078125 46.578125 C3.06002854 43.83695952 3.92683134 42.06370214 6 40 C8.61930725 39.49057233 11.05843651 39.50004774 13.72265625 39.46875 C14.47417969 39.3140625 15.22570312 39.159375 16 39 C17.15367909 37.05725004 17.15367909 37.05725004 18 35 C19.485 34.505 19.485 34.505 21 34 C23.70479732 21.60643161 23.70479732 21.60643161 20.20703125 9.79296875 C17.65726017 6.00544472 14.12132809 3.77899054 10 2 C7.41467299 1.54935368 7.41467299 1.54935368 4.75 1.375 C3.85796875 1.30023438 2.9659375 1.22546875 2.046875 1.1484375 C1.03367188 1.07496094 1.03367188 1.07496094 0 1 C0 0.67 0 0.34 0 0 Z " fill="#3B75A5" transform="translate(200,144)"/>
<path d="M0 0 C0.33 1.65 0.66 3.3 1 5 C1.5775 4.79375 2.155 4.5875 2.75 4.375 C5.53879535 3.91020077 6.56469167 4.70116889 9 6 C9.66 5.67 10.32 5.34 11 5 C11 5.66 11 6.32 11 7 C11.99 7.33 12.98 7.66 14 8 C13.01 8.33 12.02 8.66 11 9 C14.465 11.475 14.465 11.475 18 14 C16.68 14.33 15.36 14.66 14 15 C14.99 15.66 15.98 16.32 17 17 C16.67 17.66 16.34 18.32 16 19 C14.02 18.01 12.04 17.02 10 16 C10.33 15.34 10.66 14.68 11 14 C11.66 14 12.32 14 13 14 C13 13.34 13 12.68 13 12 C11.02 13.32 9.04 14.64 7 16 C6.38125 15.3503125 6.38125 15.3503125 5.75 14.6875 C4.00719127 12.92450726 4.00719127 12.92450726 1.8125 11.4375 C0.9153125 10.7259375 0.9153125 10.7259375 0 10 C0 9.34 0 8.68 0 8 C-0.99 8 -1.98 8 -3 8 C-3 6.68 -3 5.36 -3 4 C-3.66 3.34 -4.32 2.68 -5 2 C-2 0 -2 0 0 0 Z " fill="#3783C4" transform="translate(175,129)"/>
<path d="M0 0 C3.42266527 1.53119236 5.65180226 3.46308398 8.375 6.0625 C8.705 7.0525 9.035 8.0425 9.375 9.0625 C8.281875 8.7325 7.18875 8.4025 6.0625 8.0625 C2.52921116 6.93163351 2.52921116 6.93163351 -0.625 7.0625 C-1.285 6.0725 -1.945 5.0825 -2.625 4.0625 C-1.965 4.0625 -1.305 4.0625 -0.625 4.0625 C-0.625 3.4025 -0.625 2.7425 -0.625 2.0625 C-1.615 3.0525 -2.605 4.0425 -3.625 5.0625 C-2.635 6.5475 -2.635 6.5475 -1.625 8.0625 C-2.285 8.0625 -2.945 8.0625 -3.625 8.0625 C-3.625 8.7225 -3.625 9.3825 -3.625 10.0625 C-2.635 10.0625 -1.645 10.0625 -0.625 10.0625 C1.06211423 11.7084651 2.7295622 13.37487149 4.375 15.0625 C5.035 15.0625 5.695 15.0625 6.375 15.0625 C6.045 16.7125 5.715 18.3625 5.375 20.0625 C2.875 18.6875 2.875 18.6875 0.375 17.0625 C0.375 16.4025 0.375 15.7425 0.375 15.0625 C-0.49898437 14.67578125 -0.49898437 14.67578125 -1.390625 14.28125 C-3.8052903 12.96415983 -5.44240177 11.51161616 -7.375 9.5625 C-8.29539063 8.64984375 -8.29539063 8.64984375 -9.234375 7.71875 C-10.625 6.0625 -10.625 6.0625 -10.625 4.0625 C-3.75299744 0.08935708 -3.75299744 0.08935708 0 0 Z " fill="#3D7DB5" transform="translate(175.625,126.9375)"/>
<path d="M0 0 C4.77699207 3.18466138 7.11376521 6.67496173 9 12 C9.43627844 15.19403845 9.3861615 18.28449389 9.25 21.5 C9.23195313 22.32242188 9.21390625 23.14484375 9.1953125 23.9921875 C9.1487283 25.99530804 9.07700699 27.99781821 9 30 C8.01 29.34 7.02 28.68 6 28 C6 26.68 6 25.36 6 24 C5.34 24 4.68 24 4 24 C3.67 25.98 3.34 27.96 3 30 C2.34 30 1.68 30 1 30 C1 30.99 1 31.98 1 33 C0.01 33 -0.98 33 -2 33 C-2 27.72 -2 22.44 -2 17 C-1.67 17 -1.34 17 -1 17 C-0.67 18.98 -0.34 20.96 0 23 C1.98 22.34 3.96 21.68 6 21 C6.7004025 13.7625075 5.37518167 10.07578956 1.3125 4.06640625 C0 2 0 2 0 0 Z " fill="#317ABA" transform="translate(118,42)"/>
<path d="M0 0 C1.32 0.33 2.64 0.66 4 1 C3.566875 1.66 3.13375 2.32 2.6875 3 C1.31310997 5.44336005 0.56037571 7.31510405 -0.25 9.9375 C-1.88776203 14.52846058 -4.8385807 17.50314842 -9 20 C-9.99 20 -10.98 20 -12 20 C-12.58910156 20.32484375 -13.17820313 20.6496875 -13.78515625 20.984375 C-16.75287359 22.34523304 -19.1844269 22.26504311 -22.4375 22.25 C-23.54996094 22.25515625 -24.66242188 22.2603125 -25.80859375 22.265625 C-28.947009 22.00441051 -31.16835425 21.33378454 -34 20 C-33.67 19.34 -33.34 18.68 -33 18 C-32.01 18.33 -31.02 18.66 -30 19 C-19.45908643 19.86306895 -19.45908643 19.86306895 -9.6796875 16.53515625 C-4.88642601 12.15433819 -2.28179233 5.96038277 0 0 Z " fill="#D3EBF5" transform="translate(206,187)"/>
<path d="M0 0 C0.99 0.33 1.98 0.66 3 1 C-1.94093773 5.99149467 -6.88957943 10.97525242 -11.84375 15.95361328 C-13.52947126 17.64941505 -15.21339624 19.34700434 -16.89550781 21.04638672 C-19.3084885 23.48352564 -21.72777821 25.91424067 -24.1484375 28.34375 C-24.9036972 29.10933228 -25.65895691 29.87491455 -26.43710327 30.66369629 C-27.13767853 31.36442261 -27.83825378 32.06514893 -28.56005859 32.78710938 C-29.17738861 33.40888062 -29.79471863 34.03065186 -30.43075562 34.67126465 C-32 36 -32 36 -34 36 C-34.33 36.99 -34.66 37.98 -35 39 C-35.66 38.34 -36.32 37.68 -37 37 C-32.48746518 32.2367688 -32.48746518 32.2367688 -29.8125 30.9375 C-27.82107843 30.13297839 -27.82107843 30.13297839 -27 28 C-25.75491604 25.50983207 -24.53283204 25.01313282 -22 24 C-22 23.34 -22 22.68 -22 22 C-21.34 22 -20.68 22 -20 22 C-19.7525 21.38125 -19.505 20.7625 -19.25 20.125 C-17.79371361 17.64931313 -16.62187494 17.04874998 -14 16 C-14 15.34 -14 14.68 -14 14 C-13.34 14 -12.68 14 -12 14 C-11.7525 13.4225 -11.505 12.845 -11.25 12.25 C-9.81700012 9.67060021 -8.21575324 7.93878408 -6 6 C-5.34 6 -4.68 6 -4 6 C-3.566875 5.071875 -3.566875 5.071875 -3.125 4.125 C-2 2 -2 2 0 0 Z " fill="#427BAB" transform="translate(230,58)"/>
<path d="M0 0 C1.20269531 -0.02578125 2.40539062 -0.0515625 3.64453125 -0.078125 C7.47738045 0.2768467 9.88465027 1.32797413 13.1875 3.25 C10.1875 4.25 10.1875 4.25 7.1875 3.25 C0.28176388 2.72500252 -5.81479788 2.54929018 -11.8125 6.25 C-13.6749438 8.65858714 -13.6749438 8.65858714 -14.8125 11.25 C-15.8025 12.735 -15.8025 12.735 -16.8125 14.25 C-17.8025 14.25 -18.7925 14.25 -19.8125 14.25 C-18.59334942 8.0018533 -14.78702989 4.82575119 -9.8125 1.25 C-6.38258462 0.10669487 -3.6138584 0.04618349 0 0 Z " fill="#447EAE" transform="translate(104.8125,37.75)"/>
<path d="M0 0 C0.66 0 1.32 0 2 0 C2.33 1.65 2.66 3.3 3 5 C4.65 5.33 6.3 5.66 8 6 C7.1875 7.9375 7.1875 7.9375 6 10 C5.01 10.33 4.02 10.66 3 11 C2.67 11.66 2.34 12.32 2 13 C1.67 13.66 1.34 14.32 1 15 C0.01 15.33 -0.98 15.66 -2 16 C-2.33 16.66 -2.66 17.32 -3 18 C-2.67 16.35 -2.34 14.7 -2 13 C-1.34 13 -0.68 13 0 13 C0 12.34 0 11.68 0 11 C-0.99 11.33 -1.98 11.66 -3 12 C-3 11.34 -3 10.68 -3 10 C-3.66 9.67 -4.32 9.34 -5 9 C-4.175 8.2575 -3.35 7.515 -2.5 6.75 C0.44844853 4.12612615 0.44844853 4.12612615 0 0 Z " fill="#E7F4F8" transform="translate(120,114)"/>
<path d="M0 0 C3.82637422 1.229906 5.23685635 3.55922698 7.12597656 6.98754883 C8.81573078 10.87823153 8.86366892 14.9433537 9.1328125 19.12695312 C9.57281146 24.10563703 10.78222269 27.17175784 14 31 C16.06299454 32.30788057 16.06299454 32.30788057 18.25 32.875 C19.4875 33.24625 20.725 33.6175 22 34 C22 34.33 22 34.66 22 35 C18.05272412 35.17942163 15.4019487 35.09350689 12 33 C12 32.34 12 31.68 12 31 C11.01 30.67 10.02 30.34 9 30 C7.23344786 25.44415501 7.02262375 22.093848 7.1953125 17.19140625 C6.87042596 13.54617932 5.35313699 10.41710589 3.875 7.1015625 C3 5 3 5 3 3 C2.01 2.67 1.02 2.34 0 2 C0 1.34 0 0.68 0 0 Z " fill="#3773A6" transform="translate(164,161)"/>
<path d="M0 0 C0.66 0 1.32 0 2 0 C2 0.99 2 1.98 2 3 C4.80411371 4.71309552 4.80411371 4.71309552 8 4.6875 C8.66 4.460625 9.32 4.23375 10 4 C11.33333333 3.66666667 12.66666667 3.33333333 14 3 C13 6 13 6 10.8828125 7.17578125 C7.4362096 8.16119211 4.45684453 8.22932621 0.875 8.1875 C-0.34445313 8.18105469 -1.56390625 8.17460937 -2.8203125 8.16796875 C-6 8 -6 8 -9 7 C-9.33 6.01 -9.66 5.02 -10 4 C-4.25 4.875 -4.25 4.875 -2 6 C-1.34 4.02 -0.68 2.04 0 0 Z " fill="#317EC2" transform="translate(182,199)"/>
<path d="M0 0 C0.93423645 3.01031744 1.04449911 3.86650268 0 7 C-2.36328125 7.7734375 -2.36328125 7.7734375 -5.3125 8.375 C-9.0378862 9.30152092 -10.70260099 9.72436189 -13.5625 12.375 C-14.9313075 14.87456152 -16.07580732 17.30443802 -17 20 C-17.99 19.67 -18.98 19.34 -20 19 C-19.38080922 17.53919067 -18.75443308 16.08142545 -18.125 14.625 C-17.77695313 13.81289062 -17.42890625 13.00078125 -17.0703125 12.1640625 C-16 10 -16 10 -14 8 C-12.38872802 7.51437273 -10.76071021 7.08307977 -9.125 6.6875 C-4.64764747 5.43228845 -2.45017241 4.12074451 0 0 Z " fill="#4E84B1" transform="translate(212,168)"/>
<path d="M0 0 C0.99 0 1.98 0 3 0 C3.12375 0.928125 3.12375 0.928125 3.25 1.875 C3.81258459 4.18437567 3.81258459 4.18437567 6.0625 5.25 C6.701875 5.4975 7.34125 5.745 8 6 C7.52753358 10.25219775 5.22727623 12.37314725 2 15 C-0.7657247 14.82644238 -1.88106329 14.10587979 -3.95703125 12.2578125 C-4.56933594 11.55398437 -5.18164062 10.85015625 -5.8125 10.125 C-6.75029297 9.07699219 -6.75029297 9.07699219 -7.70703125 8.0078125 C-8.13371094 7.34523438 -8.56039062 6.68265625 -9 6 C-8.67 5.01 -8.34 4.02 -8 3 C-4.535 7.455 -4.535 7.455 -1 12 C0.98 11.34 2.96 10.68 5 10 C3.79367548 6.56661484 2.61522816 4.49635415 0 2 C0 1.34 0 0.68 0 0 Z " fill="#497DAC" transform="translate(136,86)"/>
<path d="M0 0 C0.66 1.32 1.32 2.64 2 4 C1.38125 4.226875 0.7625 4.45375 0.125 4.6875 C-2.24389129 5.84804335 -2.24389129 5.84804335 -2.9375 8.5625 C-3.288125 9.366875 -3.63875 10.17125 -4 11 C-5.65821773 11.37309899 -7.32577014 11.70700977 -9 12 C-9.309375 12.639375 -9.61875 13.27875 -9.9375 13.9375 C-11 16 -11 16 -14.125 17.25 C-15.07375 17.4975 -16.0225 17.745 -17 18 C-16.2575 17.278125 -15.515 16.55625 -14.75 15.8125 C-11.98732731 13.09288953 -11.98732731 13.09288953 -9.8125 10.1875 C-9.214375 9.465625 -8.61625 8.74375 -8 8 C-7.34 8 -6.68 8 -6 8 C-5.731875 7.360625 -5.46375 6.72125 -5.1875 6.0625 C-4 4 -4 4 -1 3 C-0.67 2.01 -0.34 1.02 0 0 Z " fill="#4A83B2" transform="translate(81,168)"/>
<path d="M0 0 C3.42266527 1.53119236 5.65180226 3.46308398 8.375 6.0625 C8.705 7.0525 9.035 8.0425 9.375 9.0625 C8.281875 8.7325 7.18875 8.4025 6.0625 8.0625 C2.52921116 6.93163351 2.52921116 6.93163351 -0.625 7.0625 C-1.285 6.0725 -1.945 5.0825 -2.625 4.0625 C-1.965 4.0625 -1.305 4.0625 -0.625 4.0625 C-0.625 3.4025 -0.625 2.7425 -0.625 2.0625 C-2.2646875 3.0525 -2.2646875 3.0525 -3.9375 4.0625 C-6.56207538 5.64714929 -7.4506378 6.0625 -10.625 6.0625 C-10.625 5.4025 -10.625 4.7425 -10.625 4.0625 C-3.75299744 0.08935708 -3.75299744 0.08935708 0 0 Z " fill="#3678B3" transform="translate(175.625,126.9375)"/>
<path d="M0 0 C3.6354473 2.58308097 6.10081591 4.50407955 7 9 C5.625 11.3125 5.625 11.3125 4 13 C1.03 12.505 1.03 12.505 -2 12 C-2.1875 9.625 -2.1875 9.625 -2 7 C-1.01 6.34 -0.02 5.68 1 5 C0.01 4.67 -0.98 4.34 -2 4 C-1.34 2.68 -0.68 1.36 0 0 Z " fill="#3582C4" transform="translate(111,108)"/>
<path d="M0 0 C1.65 0 3.3 0 5 0 C5 0.99 5 1.98 5 3 C6.32 3.66 7.64 4.32 9 5 C9 5.99 9 6.98 9 8 C9.8971875 8.1546875 9.8971875 8.1546875 10.8125 8.3125 C13.36316765 9.1141384 14.36691995 9.90032564 16 12 C16.6875 14.1875 16.6875 14.1875 17 16 C12.62706609 15.58109745 10.47464215 12.67920548 7.75 9.5625 C7.29109375 9.05912109 6.8321875 8.55574219 6.359375 8.03710938 C3 4.27280971 3 4.27280971 3 2 C2.01 1.67 1.02 1.34 0 1 C0 0.67 0 0.34 0 0 Z " fill="#D9EEF7" transform="translate(103,96)"/>
<path d="M0 0 C0 2 0 2 -1.8125 4.125 C-4 6 -4 6 -7 6 C-7.04125 6.886875 -7.0825 7.77375 -7.125 8.6875 C-8.32128554 13.21629527 -10.26271887 14.29643492 -14 17 C-12.50211652 10.72837405 -11.28526781 6.12508707 -6 2 C-3.75361682 0.65217009 -2.60554166 0 0 0 Z " fill="#D2EBF6" transform="translate(160,126)"/>
<path d="M0 0 C6.27 0.66 12.54 1.32 19 2 C19.33 2.99 19.66 3.98 20 5 C20.99 5 21.98 5 23 5 C23.33 4.34 23.66 3.68 24 3 C24 3.99 24 4.98 24 6 C24.66 6 25.32 6 26 6 C26 6.99 26 7.98 26 9 C21 7 21 7 18.73828125 5.98828125 C14.58051814 4.48769057 10.33346393 4.17545399 5.9609375 3.66015625 C3 3 3 3 0 0 Z " fill="#C9E6F3" transform="translate(77,87)"/>
<path d="M0 0 C0.64453125 1.796875 0.64453125 1.796875 1 4 C-1.3125 7.25 -1.3125 7.25 -4 10 C-4.66 10 -5.32 10 -6 10 C-6.226875 10.639375 -6.45375 11.27875 -6.6875 11.9375 C-8 14 -8 14 -10.625 14.75 C-11.40875 14.8325 -12.1925 14.915 -13 15 C-9.09489511 9.49280079 -4.90282356 4.64172645 0 0 Z " fill="#4884B5" transform="translate(194,51)"/>
<path d="M0 0 C2 1 2 1 2.81640625 2.96875 C4.49917222 8.6778199 5.52139593 14.06530949 6 20 C6.33 20 6.66 20 7 20 C7.33 22.31 7.66 24.62 8 27 C6.0625 26.1875 6.0625 26.1875 4 25 C2.94069495 21.82208484 2.75585234 19.21328732 2.5625 15.875 C2.18133651 10.38501625 1.3544509 5.32750688 0 0 Z " fill="#3773A6" transform="translate(159,170)"/>
<path d="M0 0 C0 0.66 0 1.32 0 2 C-0.80824219 2.17015625 -1.61648437 2.3403125 -2.44921875 2.515625 C-10.6995156 4.04238753 -10.6995156 4.04238753 -17 9 C-17.68281738 12.33530029 -17.92863235 15.60030452 -18 19 C-20.28993179 14.96830542 -20.05482631 12.54386718 -19 8 C-17.42038115 4.65492479 -15.50598911 3.63609585 -12.1875 2.3125 C-8.19590072 0.95991387 -4.23719996 0 0 0 Z " fill="#3873A3" transform="translate(91,65)"/>
<path d="M0 0 C0.66 0.33 1.32 0.66 2 1 C0.29231534 2.70768466 -1.41559272 4.41513286 -3.125 6.12109375 C-4.65534608 7.65462805 -6.17326752 9.20055281 -7.6875 10.75 C-9.69974483 12.70785984 -11.70789225 14.38703529 -14 16 C-14 14.68 -14 13.36 -14 12 C-12.59065783 10.72175943 -11.16805371 9.45212123 -9.65625 8.296875 C-7.74916368 6.85738207 -7.74916368 6.85738207 -5.3125 4.3125 C-3 2 -3 2 0 0 Z " fill="#DCF3FC" transform="translate(167,78)"/>
<path d="M0 0 C8.60646088 -0.61231737 15.29670423 -1.08031324 22.36328125 4.4921875 C23.60201137 5.63335654 24.80905099 6.80905099 26 8 C25.67 8.99 25.34 9.98 25 11 C22.95880212 9.38405168 20.95927063 7.7143618 19 6 C19 5.34 19 4.68 19 4 C12.6753842 2.2100144 6.5508985 1.45759953 0 1 C0 0.67 0 0.34 0 0 Z " fill="#5489B4" transform="translate(77,101)"/>
<path d="M0 0 C4.38635744 2.19317872 5.51256905 3.91350629 8 8 C6.68 7.67 5.36 7.34 4 7 C4 6.34 4 5.68 4 5 C3.01 5 2.02 5 1 5 C1 6.65 1 8.3 1 10 C-0.65 10.33 -2.3 10.66 -4 11 C-2.68 7.37 -1.36 3.74 0 0 Z " fill="#487FAA" transform="translate(152,146)"/>
<path d="M0 0 C0.66 0.99 1.32 1.98 2 3 C-0.68841859 5.25245881 -2.64641875 6.88213958 -6 8 C-6.70151152 9.3153341 -7.36525925 10.65117592 -8 12 C-9.625 13.75 -9.625 13.75 -11 15 C-11.66 14.67 -12.32 14.34 -13 14 C-13 13.01 -13 12.02 -13 11 C-10.6640625 8.80859375 -10.6640625 8.80859375 -7.625 6.4375 C-3.67969922 3.36808795 -3.67969922 3.36808795 0 0 Z " fill="#D7EEF9" transform="translate(131,165)"/>
<path d="M0 0 C2.96175123 0.61277612 4.38058783 1.25372522 7 3 C7 4.32 7 5.64 7 7 C7.99 7.33 8.98 7.66 10 8 C10.33 10.64 10.66 13.28 11 16 C10.34 15.67 9.68 15.34 9 15 C8.855625 14.38125 8.71125 13.7625 8.5625 13.125 C7.87306278 10.52045941 6.96609854 9.82566293 5 8 C0 2.46268657 0 2.46268657 0 0 Z " fill="#DDF2FA" transform="translate(134,80)"/>
<path d="M0 0 C0.99 0 1.98 0 3 0 C2.67 5.28 2.34 10.56 2 16 C1.34 16 0.68 16 0 16 C-1.03354508 12.89936477 -1.13364996 10.68555932 -1.125 7.4375 C-1.12757812 6.46683594 -1.13015625 5.49617188 -1.1328125 4.49609375 C-1 2 -1 2 0 0 Z " fill="#5489B1" transform="translate(60,70)"/>
<path d="M0 0 C0.33 0.66 0.66 1.32 1 2 C-0.32 2 -1.64 2 -3 2 C-3.33 2.66 -3.66 3.32 -4 4 C-4 3.34 -4 2.68 -4 2 C-8.95 4.475 -8.95 4.475 -14 7 C-14 4 -14 4 -12.625 1.8125 C-8.63221187 -0.94442514 -4.71015531 -0.32359846 0 0 Z " fill="#CCE8F3" transform="translate(111,51)"/>
<path d="M0 0 C3.38186376 1.9427728 4.70264591 2.99357079 5.8125 6.75 C5.874375 7.4925 5.93625 8.235 6 9 C2.125 5.25 2.125 5.25 1 3 C-0.58246707 2.91846067 -2.16616273 2.86056443 -3.75 2.8125 C-4.63171875 2.77769531 -5.5134375 2.74289063 -6.421875 2.70703125 C-9.44671583 3.05076316 -10.75583602 4.00227459 -13 6 C-13 5.01 -13 4.02 -13 3 C-9.03820119 -0.34276774 -4.9787727 -0.9052314 0 0 Z " fill="#3A77A6" transform="translate(110,49)"/>
<path d="M0 0 C4.75199944 3.16799963 7.51167187 6.51026509 9 12 C9.32088385 17.02718036 9.23571064 21.97150626 9 27 C8.67 27 8.34 27 8 27 C7.98582031 26.16597656 7.97164063 25.33195312 7.95703125 24.47265625 C7.62248099 16.57907846 6.24136182 11.58095172 2 5 C1.29289322 3.35008418 0.60028404 1.69170958 0 0 Z " fill="#4279A4" transform="translate(118,42)"/>
<path d="M0 0 C1.61648437 0.04060547 1.61648437 0.04060547 3.265625 0.08203125 C4.08546875 0.11683594 4.9053125 0.15164062 5.75 0.1875 C5.75 0.5175 5.75 0.8475 5.75 1.1875 C5.00234375 1.20167969 4.2546875 1.21585938 3.484375 1.23046875 C-2.72872759 1.34849205 -2.72872759 1.34849205 -7.75 4.5625 C-8.245 5.42875 -8.74 6.295 -9.25 7.1875 C-11.43740495 9.73947244 -12.92421255 10.61408837 -16.25 11.1875 C-15.59 9.8675 -14.93 8.5475 -14.25 7.1875 C-13.59 7.1875 -12.93 7.1875 -12.25 7.1875 C-12.0025 6.589375 -11.755 5.99125 -11.5 5.375 C-8.6661541 0.41576968 -5.48931145 -0.17899929 0 0 Z " fill="#5E8FB9" transform="translate(228.25,20.8125)"/>
<path d="M0 0 C2.31502149 3.47253223 2.34128598 5.26136054 2.5625 9.375 C2.78636865 13.34981071 3.11947828 17.11406118 4 21 C2.68 20.34 1.36 19.68 0 19 C0 12.73 0 6.46 0 0 Z " fill="#C5E1F0" transform="translate(160,176)"/>
<path d="M0 0 C2.23208256 1.78085293 2.94700502 2.76383445 3.58203125 5.59375 C3.65808594 6.5528125 3.73414063 7.511875 3.8125 8.5 C3.90144531 9.4590625 3.99039063 10.418125 4.08203125 11.40625 C4 14 4 14 2 17 C1.67 17.66 1.34 18.32 1 19 C0.34 19 -0.32 19 -1 19 C-0.83628906 18.15179688 -0.67257813 17.30359375 -0.50390625 16.4296875 C0.00948445 12.9354469 0.09850739 9.65372426 0.0625 6.125 C0.05347656 4.97257813 0.04445312 3.82015625 0.03515625 2.6328125 C0.02355469 1.76398438 0.01195312 0.89515625 0 0 Z " fill="#DDF2FA" transform="translate(225,157)"/>
<path d="M0 0 C0 0.66 0 1.32 0 2 C2.97 2.33 5.94 2.66 9 3 C9 3.33 9 3.66 9 4 C1.87399867 4.35368021 -3.47059106 3.95671348 -10 1 C-10 0.67 -10 0.34 -10 0 C-6.30458414 -0.95024979 -3.69541586 -0.95024979 0 0 Z " fill="#BAD9EB" transform="translate(202,140)"/>
<path d="M0 0 C1.5625 1.25 1.5625 1.25 3 3 C3 6.29017692 1.7074789 7.31392508 -0.5625 9.75 C-1.7690625 10.86375 -1.7690625 10.86375 -3 12 C-6 11 -6 11 -7.1875 8.9375 C-7.455625 8.298125 -7.72375 7.65875 -8 7 C-7.401875 7.185625 -6.80375 7.37125 -6.1875 7.5625 C-3.83591238 8.22093687 -3.83591238 8.22093687 -1 7 C-0.67 4.69 -0.34 2.38 0 0 Z " fill="#467AA6" transform="translate(118,112)"/>
<path d="M0 0 C2.83870446 2.3810991 3.51350282 4.19354849 4.125 7.8125 C4.35703125 9.13314453 4.35703125 9.13314453 4.59375 10.48046875 C4.7278125 11.31191406 4.861875 12.14335937 5 13 C5.20625 14.19625 5.4125 15.3925 5.625 16.625 C5.74875 17.40875 5.8725 18.1925 6 19 C1.54659881 14.69025692 0.86280481 12.57229872 0.4375 6.375 C0.35371094 5.18648437 0.26992187 3.99796875 0.18359375 2.7734375 C0.12300781 1.85820312 0.06242188 0.94296875 0 0 Z " fill="#C9E5F6" transform="translate(172,173)"/>
<path d="M0 0 C0.99 0.33 1.98 0.66 3 1 C-1 5 -5 9 -9 13 C-8.58286812 8.1334614 -6.54534674 6.20769467 -3 3 C-2.401875 2.401875 -1.80375 1.80375 -1.1875 1.1875 C-0.795625 0.795625 -0.40375 0.40375 0 0 Z " fill="#E0F6FB" transform="translate(191,51)"/>
<path d="M0 0 C0.33 0.99 0.66 1.98 1 3 C0.01 3.33 -0.98 3.66 -2 4 C-2.73323796 6.01508358 -2.73323796 6.01508358 -3 8 C-3.66 8 -4.32 8 -5 8 C-5.226875 8.639375 -5.45375 9.27875 -5.6875 9.9375 C-7 12 -7 12 -9.625 12.75 C-10.40875 12.8325 -11.1925 12.915 -12 13 C-10.71937515 11.2925002 -9.38232443 9.62626404 -8 8 C-7.34 8 -6.68 8 -6 8 C-6 7.34 -6 6.68 -6 6 C-4.37550757 4.29220027 -2.70779973 2.62449243 -1 1 C-0.67 0.67 -0.34 0.34 0 0 Z " fill="#CFEBF4" transform="translate(243,48)"/>
<path d="M0 0 C2.97 0.495 2.97 0.495 6 1 C5.67 1.66 5.34 2.32 5 3 C4.04867187 3.15275391 4.04867187 3.15275391 3.078125 3.30859375 C0.76374509 3.81812661 0.76374509 3.81812661 -0.265625 6.28515625 C-0.75289062 7.65994141 -0.75289062 7.65994141 -1.25 9.0625 C-1.58515625 9.98160156 -1.9203125 10.90070313 -2.265625 11.84765625 C-2.50796875 12.55792969 -2.7503125 13.26820313 -3 14 C-3.66 14 -4.32 14 -5 14 C-4.54636829 12.41531323 -4.08688548 10.83230076 -3.625 9.25 C-3.36976563 8.36828125 -3.11453125 7.4865625 -2.8515625 6.578125 C-2.0790066 4.23919428 -1.16374324 2.16557438 0 0 Z " fill="#3976A9" transform="translate(205,184)"/>
<path d="M0 0 C5.68281938 1.85022026 5.68281938 1.85022026 8.25 3.0625 C12.40274098 4.47820715 16.64265518 4.67848718 21 5 C21 5.33 21 5.66 21 6 C7.03316327 6.68877551 7.03316327 6.68877551 3.1875 4.125 C1 2 1 2 0 0 Z " fill="#3776AA" transform="translate(67,95)"/>
<path d="M0 0 C-3.18824568 1.59412284 -6.62896662 1.10174735 -10.125 1.0625 C-10.87910156 1.05798828 -11.63320312 1.05347656 -12.41015625 1.04882812 C-14.27347127 1.03703499 -16.13674555 1.01909942 -18 1 C-18 0.34 -18 -0.32 -18 -1 C-12.63033947 -4.80350954 -5.61583493 -2.1059381 0 0 Z " fill="#D2EAF6" transform="translate(114,38)"/>
<path d="M0 0 C0.33 1.32 0.66 2.64 1 4 C0.34 4 -0.32 4 -1 4 C-0.67 5.32 -0.34 6.64 0 8 C-0.66 8 -1.32 8 -2 8 C-2.33 8.66 -2.66 9.32 -3 10 C-4.65 9.67 -6.3 9.34 -8 9 C-7.04270084 7.87411986 -6.08412105 6.7493285 -5.125 5.625 C-4.59132813 4.99851563 -4.05765625 4.37203125 -3.5078125 3.7265625 C-2.38567993 2.44163349 -1.20628025 1.20628025 0 0 Z " fill="#4784B7" transform="translate(112,137)"/>
<path d="M0 0 C0 0.99 0 1.98 0 3 C-0.66 3 -1.32 3 -2 3 C-2 3.66 -2 4.32 -2 5 C-4.375 7.625 -4.375 7.625 -7 10 C-7.66 10 -8.32 10 -9 10 C-9 10.66 -9 11.32 -9 12 C-9.66 11.67 -10.32 11.34 -11 11 C-10.34 10.01 -9.68 9.02 -9 8 C-8.34 8 -7.68 8 -7 8 C-6.8453125 7.1028125 -6.8453125 7.1028125 -6.6875 6.1875 C-5.89363064 3.66155205 -5.04427591 2.65114593 -3 1 C-2.01 0.67 -1.02 0.34 0 0 Z " fill="#3C78AA" transform="translate(153,97)"/>
<path d="M0 0 C0.33 0 0.66 0 1 0 C1.375 2.1875 1.375 2.1875 1 5 C-3.37677039 9.81444743 -6.59458665 10.66868552 -13 11 C-10 9 -10 9 -7.625 7.75 C-4.3457508 5.56383386 -2.45678772 3.07098466 0 0 Z " fill="#CBE6F3" transform="translate(223,176)"/>
<path d="M0 0 C0.99 0.33 1.98 0.66 3 1 C5.34551123 5.93791838 5.2134222 10.66444505 5 16 C4.34 16 3.68 16 3 16 C2.95101562 15.34773437 2.90203125 14.69546875 2.8515625 14.0234375 C2.42757771 9.06720147 1.84334427 4.66980549 0 0 Z " fill="#3A79AF" transform="translate(210,156)"/>
<path d="M0 0 C-0.33 0.99 -0.66 1.98 -1 3 C-1.93972656 2.98259766 -1.93972656 2.98259766 -2.8984375 2.96484375 C-4.12433594 2.95130859 -4.12433594 2.95130859 -5.375 2.9375 C-6.59316406 2.92009766 -6.59316406 2.92009766 -7.8359375 2.90234375 C-10.04937142 2.85533666 -10.04937142 2.85533666 -12 4 C-12.66 3.34 -13.32 2.68 -14 2 C-9.77220439 0.07827472 -4.39544329 -2.19772165 0 0 Z " fill="#C9E3F0" transform="translate(91,68)"/>
<path d="M0 0 C0 0.33 0 0.66 0 1 C-0.66386719 1.02578125 -1.32773438 1.0515625 -2.01171875 1.078125 C-7.56100642 1.4345756 -10.96228622 1.83610767 -15 6 C-15.66 6.66 -16.32 7.32 -17 8 C-16.73217366 4.78608396 -16.14043499 3.17788433 -14.125 0.625 C-9.39928016 -1.83237431 -5.1319254 -0.82686013 0 0 Z " fill="#D8EFFA" transform="translate(232,20)"/>
<path d="M0 0 C3.55780196 0.60990891 6.6828589 1.5783681 10 3 C9.67 4.65 9.34 6.3 9 8 C6.5 6.625 6.5 6.625 4 5 C4 4.34 4 3.68 4 3 C2.68 2.34 1.36 1.68 0 1 C0 0.67 0 0.34 0 0 Z " fill="#5086B7" transform="translate(172,139)"/>
<path d="M0 0 C0.66 0.33 1.32 0.66 2 1 C0.5625 3.4375 0.5625 3.4375 -2 6 C-4.99304558 6.73151889 -7.92553213 6.92773687 -11 7 C-8.93787834 4.93787834 -7.02964284 3.7456905 -4.5 2.3125 C-3.7059375 1.85488281 -2.911875 1.39726563 -2.09375 0.92578125 C-1.4028125 0.62027344 -0.711875 0.31476563 0 0 Z " fill="#CBE6F3" transform="translate(171,119)"/>
<path d="M0 0 C0.66 0 1.32 0 2 0 C0.55218207 3.44428265 -1.27694609 5.36130962 -4.125 7.75 C-5.21167969 8.67039062 -5.21167969 8.67039062 -6.3203125 9.609375 C-6.87460938 10.06828125 -7.42890625 10.5271875 -8 11 C-8 7.78465943 -7.73523928 6.64417414 -6 4 C-3.4375 2.3125 -3.4375 2.3125 -1 1 C-0.67 0.67 -0.34 0.34 0 0 Z " fill="#427BAA" transform="translate(184,104)"/>
<path d="M0 0 C2.8125 0.5625 2.8125 0.5625 6 2 C7.44088563 4.28536073 8.13569208 6.40707624 9 9 C6.13302508 7.71480435 4.02392288 6.42870746 2 4 C2 3.34 2 2.68 2 2 C1.34 2 0.68 2 0 2 C0 1.34 0 0.68 0 0 Z " fill="#548BB9" transform="translate(164,196)"/>
<path d="M0 0 C4.66666667 2.33333333 9.33333333 4.66666667 14 7 C14 7.33 14 7.66 14 8 C9.94393835 7.53199289 6.53411321 7.12046792 3 5 C3 4.34 3 3.68 3 3 C2.01 2.67 1.02 2.34 0 2 C0 1.34 0 0.68 0 0 Z " fill="#427BA8" transform="translate(181,145)"/>
<path d="M0 0 C0.81791016 0.30744141 0.81791016 0.30744141 1.65234375 0.62109375 C6.53354257 2.36497504 10.97297808 3.38996169 16.15234375 3.69140625 C18 4 18 4 20 6 C6.3667426 5.40546697 6.3667426 5.40546697 0 2 C0 1.34 0 0.68 0 0 Z " fill="#2E6B9C" transform="translate(75,87)"/>
<path d="M0 0 C3 1 3 1 4.1875 2.6875 C5.21330202 5.60709035 5.26725573 7.9265591 5 11 C4.34 11.66 3.68 12.32 3 13 C1.89155081 9.67465243 2.15545644 7.37817425 3 4 C2.01 4 1.02 4 0 4 C0 2.68 0 1.36 0 0 Z " fill="#CFE8F7" transform="translate(208,157)"/>
<path d="M0 0 C0.33 0.66 0.66 1.32 1 2 C0.113125 1.938125 -0.77375 1.87625 -1.6875 1.8125 C-5.38455101 2.02176704 -6.94885591 3.02087951 -10 5 C-10.99 5 -11.98 5 -13 5 C-13 4.34 -13 3.68 -13 3 C-4.50528843 -1.91133448 -4.50528843 -1.91133448 0 0 Z " fill="#41769E" transform="translate(178,128)"/>
<path d="M0 0 C1.0470501 2.72233025 0.96834915 4.15508914 0.375 7.0625 C-1.2295793 10.49046486 -2.6338694 11.40551709 -6 13 C-5.34 11.35 -4.68 9.7 -4 8 C-3.34 8 -2.68 8 -2 8 C-1.7834375 6.576875 -1.7834375 6.576875 -1.5625 5.125 C-1 2 -1 2 0 0 Z " fill="#C2DEEF" transform="translate(145,144)"/>
<path d="M0 0 C1.65 0 3.3 0 5 0 C5 0.99 5 1.98 5 3 C6.32 3.66 7.64 4.32 9 5 C8.67 6.32 8.34 7.64 8 9 C6.29115995 7.37660195 4.62553283 5.70680947 3 4 C3 3.34 3 2.68 3 2 C2.01 1.67 1.02 1.34 0 1 C0 0.67 0 0.34 0 0 Z " fill="#E1F6FC" transform="translate(103,96)"/>
<path d="M0 0 C-1 3 -1 3 -3.19921875 4.1796875 C-6.2240827 5.06563092 -8.66890834 5.2007492 -11.8125 5.125 C-13.27623047 5.09792969 -13.27623047 5.09792969 -14.76953125 5.0703125 C-15.50558594 5.04710937 -16.24164063 5.02390625 -17 5 C-17 4.67 -17 4.34 -17 4 C-16.41992188 3.96261719 -15.83984375 3.92523438 -15.2421875 3.88671875 C-9.91330745 3.43824865 -4.86128323 0 0 0 Z " fill="#346E9E" transform="translate(196,202)"/>
<path d="M0 0 C0 3.61029169 -0.96092582 6.55806676 -2 10 C-2.66 10 -3.32 10 -4 10 C-4.33 8.02 -4.66 6.04 -5 4 C-3.35 2.68 -1.7 1.36 0 0 Z " fill="#D7ECF6" transform="translate(150,150)"/>
<path d="M0 0 C1.36207958 2.72415916 0.86166193 4.12779357 0 7 C-0.99 7.66 -1.98 8.32 -3 9 C-3.99 8.34 -4.98 7.68 -6 7 C-4.02 4.69 -2.04 2.38 0 0 Z M-3 5 C-2 7 -2 7 -2 7 Z " fill="#4F89B7" transform="translate(157,90)"/>
<path d="M0 0 C0.99 0.33 1.98 0.66 3 1 C1.79618552 3.49361571 0.54571278 5.68143083 -1 8 C-1.99 8 -2.98 8 -4 8 C-2.25 2.25 -2.25 2.25 0 0 Z " fill="#4D88B9" transform="translate(89,44)"/>
<path d="M0 0 C0.33 0.99 0.66 1.98 1 3 C-0.07421875 4.7890625 -0.07421875 4.7890625 -1.6875 6.625 C-2.20699219 7.23601563 -2.72648438 7.84703125 -3.26171875 8.4765625 C-5.181038 10.15866252 -6.50835704 10.59829721 -9 11 C-8.04956626 9.66102417 -7.08940853 8.32894573 -6.125 7 C-5.59132812 6.2575 -5.05765625 5.515 -4.5078125 4.75 C-4.01023438 4.1725 -3.51265625 3.595 -3 3 C-2.34 3 -1.68 3 -1 3 C-0.67 2.01 -0.34 1.02 0 0 Z " fill="#4C81AD" transform="translate(209,34)"/>
<path d="M0 0 C0 0.99 0 1.98 0 3 C-0.66 3 -1.32 3 -2 3 C-2 3.66 -2 4.32 -2 5 C-3.98 5.33 -5.96 5.66 -8 6 C-8 5.01 -8 4.02 -8 3 C-2.25 0 -2.25 0 0 0 Z " fill="#D8EDF4" transform="translate(104,186)"/>
<path d="M0 0 C1.24546405 2.49092811 0.7767578 3.41080733 0 6 C-2.31 6.33 -4.62 6.66 -7 7 C-7 6.01 -7 5.02 -7 4 C-6.401875 3.896875 -5.80375 3.79375 -5.1875 3.6875 C-2.71756736 2.91123545 -1.67748765 1.92911079 0 0 Z " fill="#CDE3F0" transform="translate(142,96)"/>
<path d="M0 0 C1.66666667 1.66666667 3.33333333 3.33333333 5 5 C5.928125 5.886875 6.85625 6.77375 7.8125 7.6875 C10 10 10 10 10 12 C6.88175879 10.63746417 4.95262649 9.14891747 2.75 6.5625 C2.22921875 5.96566406 1.7084375 5.36882812 1.171875 4.75390625 C0 3 0 3 0 0 Z " fill="#3D73A2" transform="translate(127,89)"/>
<path d="M0 0 C0 3 0 3 -1 6 C-2.32467746 6.6837045 -3.65863633 7.34964186 -5 8 C-5.99 9.485 -5.99 9.485 -7 11 C-7.66 10.34 -8.32 9.68 -9 9 C-6.03 6.03 -3.06 3.06 0 0 Z " fill="#C7E7F2" transform="translate(230,61)"/>
<path d="M0 0 C3.27723056 1.05339554 4.60460094 2.63763259 6.3125 5.5 C7.1478125 7.2325 7.1478125 7.2325 8 9 C7.67 9.66 7.34 10.32 7 11 C6.34 11 5.68 11 5 11 C4.89042969 10.43410156 4.78085938 9.86820313 4.66796875 9.28515625 C4.50941406 8.55167969 4.35085937 7.81820312 4.1875 7.0625 C4.03667969 6.33160156 3.88585937 5.60070312 3.73046875 4.84765625 C3.48941406 4.23792969 3.24835938 3.62820312 3 3 C2.01 2.67 1.02 2.34 0 2 C0 1.34 0 0.68 0 0 Z " fill="#447DA8" transform="translate(164,161)"/>
<path d="M0 0 C0.99 0.495 0.99 0.495 2 1 C2 1.66 2 2.32 2 3 C2.66 3 3.32 3 4 3 C4.66 4.98 5.32 6.96 6 9 C5.34 9.66 4.68 10.32 4 11 C3.32591692 9.73308493 2.66099503 8.46129251 2 7.1875 C1.62875 6.47980469 1.2575 5.77210938 0.875 5.04296875 C0 3 0 3 0 0 Z " fill="#4881AE" transform="translate(219,149)"/>
<path d="M0 0 C2.9248012 1.80466457 3.84398447 2.64130497 4.9375 5.8125 C2.91704558 5.21066251 0.91638961 4.53943904 -1.0625 3.8125 C-1.3925 3.1525 -1.7225 2.4925 -2.0625 1.8125 C-4.07919827 0.67899466 -4.07919827 0.67899466 -6.0625 -0.1875 C-3.0625 -1.1875 -3.0625 -1.1875 0 0 Z " fill="#3B78AE" transform="translate(98.0625,93.1875)"/>
<path d="M0 0 C0.33 0.66 0.66 1.32 1 2 C1.99 2.33 2.98 2.66 4 3 C4 3.66 4 4.32 4 5 C4.66 5 5.32 5 6 5 C5.67 6.65 5.34 8.3 5 10 C2.66063182 7.87330165 1.19346152 5.93775144 0 3 C0 2.01 0 1.02 0 0 Z " fill="#E0F5FB" transform="translate(128,69)"/>
<path d="M0 0 C0.33 0 0.66 0 1 0 C1.33 5.28 1.66 10.56 2 16 C1.01 15.34 0.02 14.68 -1 14 C-0.67 9.38 -0.34 4.76 0 0 Z " fill="#3477AD" transform="translate(125,56)"/>
<path d="M0 0 C0.99 0.33 1.98 0.66 3 1 C2.67 1.66 2.34 2.32 2 3 C-0.50390625 3.6328125 -0.50390625 3.6328125 -3.5625 4.125 C-5.08037109 4.37636719 -5.08037109 4.37636719 -6.62890625 4.6328125 C-7.80259766 4.81457031 -7.80259766 4.81457031 -9 5 C-8.67 4.01 -8.34 3.02 -8 2 C-6.865625 1.855625 -5.73125 1.71125 -4.5625 1.5625 C-1.19222799 1.38828522 -1.19222799 1.38828522 0 0 Z " fill="#E6FBFE" transform="translate(81,53)"/>
<path d="M0 0 C2.7972908 2.06756277 3.02692273 3.14440371 3.6875 6.6875 C3.790625 7.780625 3.89375 8.87375 4 10 C2.0625 9.375 2.0625 9.375 0 8 C-1.40540541 2.81081081 -1.40540541 2.81081081 0 0 Z " fill="#3E7CAE" transform="translate(163,187)"/>
<path d="M0 0 C5.28 0 10.56 0 16 0 C15.67 1.32 15.34 2.64 15 4 C14.01 3.34 13.02 2.68 12 2 C9.03157342 1.54084493 9.03157342 1.54084493 5.8125 1.375 C4.72582031 1.30023438 3.63914063 1.22546875 2.51953125 1.1484375 C1.68808594 1.09945312 0.85664063 1.05046875 0 1 C0 0.67 0 0.34 0 0 Z " fill="#548BB9" transform="translate(194,154)"/>
<path d="M0 0 C3.37503669 1.1858237 5.64722731 2.27573689 8 5 C7.67 5.99 7.34 6.98 7 8 C1.125 3.375 1.125 3.375 0 0 Z " fill="#4C82AD" transform="translate(95,104)"/>
<path d="M0 0 C0.33 0 0.66 0 1 0 C1.66 4.29 2.32 8.58 3 13 C2.01 13 1.02 13 0 13 C-1.0161692 8.37078475 -0.83796731 4.65537393 0 0 Z " fill="#DBF3FA" transform="translate(58,75)"/>
<path d="M0 0 C0.33 1.32 0.66 2.64 1 4 C-0.625 5.5625 -0.625 5.5625 -3 7 C-6.25 6.6875 -6.25 6.6875 -9 6 C-6.66785852 4.79371992 -4.50357861 3.8345262 -2 3 C-1.34 2.01 -0.68 1.02 0 0 Z " fill="#5088B8" transform="translate(191,189)"/>
<path d="M0 0 C0.53625 0.226875 1.0725 0.45375 1.625 0.6875 C-1.32683101 3.63933101 -4.33011947 3.77413988 -8.375 4.6875 C-8.375 4.0275 -8.375 3.3675 -8.375 2.6875 C-2.95961538 -0.38942308 -2.95961538 -0.38942308 0 0 Z " fill="#D7EFFA" transform="translate(208.375,171.3125)"/>
<path d="M0 0 C5.28 0.66 10.56 1.32 16 2 C16 2.33 16 2.66 16 3 C10.72 3 5.44 3 0 3 C0 2.01 0 1.02 0 0 Z " fill="#CCE7F8" transform="translate(190,153)"/>
<path d="M0 0 C0.33 0.99 0.66 1.98 1 3 C-1.97 5.475 -1.97 5.475 -5 8 C-5 6.68 -5 5.36 -5 4 C-2.5 1.75 -2.5 1.75 0 0 Z " fill="#EAFAFC" transform="translate(158,86)"/>
<path d="M0 0 C0 0.33 0 0.66 0 1 C-0.75925781 1.19335938 -1.51851562 1.38671875 -2.30078125 1.5859375 C-3.79158203 1.97652344 -3.79158203 1.97652344 -5.3125 2.375 C-6.29863281 2.63023438 -7.28476563 2.88546875 -8.30078125 3.1484375 C-11.1805816 3.91913174 -11.1805816 3.91913174 -14 6 C-13.08486681 3.71216703 -12.34515354 2.26550272 -10.375 0.75 C-6.86146845 -0.35953628 -3.67700382 -0.12256679 0 0 Z " fill="#3473A7" transform="translate(83,57)"/>
<path d="M0 0 C0.99 0.33 1.98 0.66 3 1 C1.35830472 3.02054804 -0.30911778 5.02043058 -2 7 C-2.33 7 -2.66 7 -3 7 C-3.1875 4.625 -3.1875 4.625 -3 2 C-2.01 1.34 -1.02 0.68 0 0 Z " fill="#D8EDF5" transform="translate(70,176)"/>
<path d="M0 0 C0.33 0 0.66 0 1 0 C1.3125 2.3125 1.3125 2.3125 1 5 C-1.375 6.875 -1.375 6.875 -4 8 C-4.66 7.67 -5.32 7.34 -6 7 C-5.02433888 5.83040013 -4.044375 4.66438823 -3.0625 3.5 C-2.51722656 2.8503125 -1.97195312 2.200625 -1.41015625 1.53125 C-0.71212891 0.77328125 -0.71212891 0.77328125 0 0 Z " fill="#D0E8F5" transform="translate(138,157)"/>
<path d="M0 0 C0.66 0 1.32 0 2 0 C2.125 2.875 2.125 2.875 2 6 C1.34 6.66 0.68 7.32 0 8 C-0.99 8 -1.98 8 -3 8 C-3 8.66 -3 9.32 -3 10 C-3.66 9.67 -4.32 9.34 -5 9 C-4.175 8.2575 -3.35 7.515 -2.5 6.75 C0.44844853 4.12612615 0.44844853 4.12612615 0 0 Z " fill="#CDE5F4" transform="translate(120,114)"/>
<path d="M0 0 C0.33 0.99 0.66 1.98 1 3 C-1.64 4.65 -4.28 6.3 -7 8 C-7.33 7.01 -7.66 6.02 -8 5 C-7.01 5 -6.02 5 -5 5 C-4.67 4.01 -4.34 3.02 -4 2 C-2.68 2 -1.36 2 0 2 C0 1.34 0 0.68 0 0 Z " fill="#C3E0F0" transform="translate(145,102)"/>
<path d="M0 0 C3.36591866 1.44253657 5.51047079 3.33264727 8 6 C7.67 6.99 7.34 7.98 7 9 C6.67 8.01 6.34 7.02 6 6 C5.01 5.67 4.02 5.34 3 5 C1.3125 3.5625 1.3125 3.5625 0 2 C0 1.34 0 0.68 0 0 Z " fill="#3370A6" transform="translate(110,106)"/>
<path d="M0 0 C0.99 0 1.98 0 3 0 C1.50902342 3.7952131 -0.75700849 5.61042731 -4 8 C-4 7.01 -4 6.02 -4 5 C-3.34 5 -2.68 5 -2 5 C-1.34 3.35 -0.68 1.7 0 0 Z " fill="#D5EEF8" transform="translate(150,94)"/>
<path d="M0 0 C0.33 0.66 0.66 1.32 1 2 C-0.65 3.98 -2.3 5.96 -4 8 C-4.99 7.67 -5.98 7.34 -7 7 C-4.69 4.69 -2.38 2.38 0 0 Z " fill="#C9E8F4" transform="translate(214,77)"/>
<path d="M0 0 C1.24546405 2.49092811 0.7767578 3.41080733 0 6 C-0.66 6 -1.32 6 -2 6 C-2.33 6.99 -2.66 7.98 -3 9 C-3.66 7.68 -4.32 6.36 -5 5 C-3.35 3.35 -1.7 1.7 0 0 Z " fill="#D6ECF5" transform="translate(220,71)"/>
<path d="M0 0 C1.65 0.33 3.3 0.66 5 1 C3.35 2.98 1.7 4.96 0 7 C-0.66 5.68 -1.32 4.36 -2 3 C-1.34 2.01 -0.68 1.02 0 0 Z " fill="#E1F2FA" transform="translate(91,153)"/>
<path d="M0 0 C2.125 0.375 2.125 0.375 4 1 C2.35830472 3.02054804 0.69088222 5.02043058 -1 7 C-1.33 7 -1.66 7 -2 7 C-2.125 4.625 -2.125 4.625 -2 2 C-1.34 1.34 -0.68 0.68 0 0 Z " fill="#E1F5FB" transform="translate(100,145)"/>
<path d="M0 0 C2.31 0.66 4.62 1.32 7 2 C7 2.66 7 3.32 7 4 C7.99 4.33 8.98 4.66 10 5 C9.01 5.33 8.02 5.66 7 6 C5.17578125 5.0390625 5.17578125 5.0390625 3.3125 3.625 C2.68988281 3.16351563 2.06726563 2.70203125 1.42578125 2.2265625 C0.95527344 1.82179687 0.48476562 1.41703125 0 1 C0 0.67 0 0.34 0 0 Z " fill="#3976AC" transform="translate(185,137)"/>
<path d="M0 0 C0.66 0.33 1.32 0.66 2 1 C0.68 3.31 -0.64 5.62 -2 8 C-2.99 7.34 -3.98 6.68 -5 6 C-3.35 4.02 -1.7 2.04 0 0 Z " fill="#4F86B2" transform="translate(118,130)"/>
<path d="M0 0 C1.5625 1.25 1.5625 1.25 3 3 C2.6875 5.1875 2.6875 5.1875 2 7 C1.01 7 0.02 7 -1 7 C-0.67 4.69 -0.34 2.38 0 0 Z " fill="#5486B3" transform="translate(118,112)"/>
<path d="M0 0 C0.99 0.33 1.98 0.66 3 1 C3.94921875 3.06640625 3.94921875 3.06640625 4.6875 5.5625 C4.93886719 6.38878906 5.19023438 7.21507813 5.44921875 8.06640625 C5.63097656 8.70449219 5.81273438 9.34257813 6 10 C3.44765282 7.54774487 1.68581342 5.13079636 0 2 C0 1.34 0 0.68 0 0 Z " fill="#4C83AD" transform="translate(116,75)"/>
<path d="M0 0 C0.66 0.99 1.32 1.98 2 3 C0.35 4.65 -1.3 6.3 -3 8 C-3.33 7.01 -3.66 6.02 -4 5 C-2.0625 2.3125 -2.0625 2.3125 0 0 Z " fill="#DEF2FA" transform="translate(172,70)"/>
<path d="M0 0 C0.99 0.33 1.98 0.66 3 1 C2.01 2.98 1.02 4.96 0 7 C-0.99 7 -1.98 7 -3 7 C-1.125 1.125 -1.125 1.125 0 0 Z " fill="#E9F7FD" transform="translate(85,45)"/>
<path d="M0 0 C5.75 0.75 5.75 0.75 8 3 C4.98968256 3.93423645 4.13349732 4.04449911 1 3 C0.67 2.01 0.34 1.02 0 0 Z " fill="#427DAC" transform="translate(172,203)"/>
<path d="M0 0 C0.66 1.32 1.32 2.64 2 4 C0.02 4.99 0.02 4.99 -2 6 C-2.66 5.34 -3.32 4.68 -4 4 C-3.01 3.67 -2.02 3.34 -1 3 C-0.67 2.01 -0.34 1.02 0 0 Z " fill="#508CBB" transform="translate(81,168)"/>
<path d="M0 0 C0.33 0.99 0.66 1.98 1 3 C-0.4375 5.1875 -0.4375 5.1875 -2 7 C-3.32 6.67 -4.64 6.34 -6 6 C-4.625 4.5 -4.625 4.5 -3 3 C-2.34 3 -1.68 3 -1 3 C-0.67 2.01 -0.34 1.02 0 0 Z " fill="#5A8FB7" transform="translate(89,160)"/>
<path d="M0 0 C0.66 0 1.32 0 2 0 C2 0.66 2 1.32 2 2 C2.66 2 3.32 2 4 2 C4.66 3.32 5.32 4.64 6 6 C5.01 7.485 5.01 7.485 4 9 C2.68 6.03 1.36 3.06 0 0 Z " fill="#BCDBED" transform="translate(122,45)"/>
<path d="M0 0 C0.99 0.33 1.98 0.66 3 1 C-0.465 3.97 -0.465 3.97 -4 7 C-3.04065919 3.16263678 -2.76390737 2.40339772 0 0 Z " fill="#D7EEF9" transform="translate(202,39)"/>
<path d="M0 0 C0.99 0.33 1.98 0.66 3 1 C2.67 1.66 2.34 2.32 2 3 C1.34 3 0.68 3 0 3 C-0.33 3.99 -0.66 4.98 -1 6 C-1.66 6 -2.32 6 -3 6 C-1.125 1.125 -1.125 1.125 0 0 Z " fill="#3B79AE" transform="translate(122,127)"/>
<path d="M0 0 C3.24271506 0.5590888 4.93057424 1.4132178 7 4 C7 4.66 7 5.32 7 6 C3.63279613 4.60667426 2.0140476 3.0210714 0 0 Z " fill="#3F79AC" transform="translate(103,112)"/>
<path d="M0 0 C0.66 0 1.32 0 2 0 C1.34 2.31 0.68 4.62 0 7 C-0.66 7 -1.32 7 -2 7 C-2.125 4.625 -2.125 4.625 -2 2 C-1.34 1.34 -0.68 0.68 0 0 Z " fill="#E9FBFE" transform="translate(59,68)"/>
<path d="M0 0 C2.475 0.495 2.475 0.495 5 1 C5 1.66 5 2.32 5 3 C4.34 3 3.68 3 3 3 C2.34 4.32 1.68 5.64 1 7 C0.67 7 0.34 7 0 7 C0 4.69 0 2.38 0 0 Z " fill="#417DB2" transform="translate(241,43)"/>
</svg>
