<?xml version="1.0" encoding="UTF-8"?>
<svg version="1.1" xmlns="http://www.w3.org/2000/svg" width="415" height="294">
<path d="M0 0 C136.95 0 273.9 0 415 0 C415 97.02 415 194.04 415 294 C278.05 294 141.1 294 0 294 C0 196.98 0 99.96 0 0 Z " fill="#FEFEFE" transform="translate(0,0)"/>
<path d="M0 0 C3.34271722 1.89595654 5.61117578 1.20989193 9.23828125 0.26953125 C15.96413477 -0.27287629 20.35585068 0.99467025 26.23828125 4.26953125 C26.96660156 4.67042969 27.69492188 5.07132813 28.4453125 5.484375 C34.50874419 9.36542126 36.70552245 14.34186483 38.23828125 21.26953125 C38.33203125 24.109375 38.33203125 24.109375 38.23828125 26.26953125 C39.30369141 26.52476563 39.30369141 26.52476563 40.390625 26.78515625 C41.30972656 27.0275 42.22882813 27.26984375 43.17578125 27.51953125 C44.09230469 27.7515625 45.00882812 27.98359375 45.953125 28.22265625 C48.23828125 29.26953125 48.23828125 29.26953125 49.0546875 31.37890625 C49.11527344 32.0028125 49.17585938 32.62671875 49.23828125 33.26953125 C49.89828125 33.26953125 50.55828125 33.26953125 51.23828125 33.26953125 C56.83395589 41.583105 57.2858064 49.61234697 56.23828125 59.26953125 C54.58704535 66.57189127 50.2336495 71.0109165 44.23828125 75.26953125 C43.26890625 75.68203125 42.29953125 76.09453125 41.30078125 76.51953125 C39.01549015 78.08203997 39.01549015 78.08203997 38.8203125 80.609375 C38.67974854 82.54279255 38.56203152 84.4779798 38.46484375 86.4140625 C38.01704023 92.05793102 36.33760786 95.98251473 32.67578125 100.26953125 C30.23828125 102.26953125 30.23828125 102.26953125 28.23828125 102.26953125 C28.23828125 102.92953125 28.23828125 103.58953125 28.23828125 104.26953125 C22.94180528 107.61467397 18.32143945 107.99159718 12.23828125 107.26953125 C7.38879348 105.59425366 5.50787969 103.80872813 3.23828125 99.26953125 C2.70203125 98.54765625 2.16578125 97.82578125 1.61328125 97.08203125 C-0.40225886 92.95933558 -0.50624185 88.80644863 -0.76171875 84.26953125 C-1.65632813 84.3159375 -2.5509375 84.36234375 -3.47265625 84.41015625 C-12.08723921 84.66730798 -19.88336564 84.55841669 -26.63671875 78.62109375 C-29.71481245 75.23223097 -31.00535942 72.66042958 -32.76171875 68.26953125 C-36.39171875 68.26953125 -40.02171875 68.26953125 -43.76171875 68.26953125 C-43.76171875 67.60953125 -43.76171875 66.94953125 -43.76171875 66.26953125 C-44.35339844 66.1715625 -44.94507813 66.07359375 -45.5546875 65.97265625 C-46.34488281 65.823125 -47.13507813 65.67359375 -47.94921875 65.51953125 C-48.72652344 65.3803125 -49.50382812 65.24109375 -50.3046875 65.09765625 C-55.74189953 63.2650824 -58.59437981 59.45093418 -61.51171875 54.70703125 C-62.1046875 53.75699219 -62.69765625 52.80695313 -63.30859375 51.828125 C-67.12053468 45.11623977 -66.82954916 35.98294826 -65.1484375 28.5625 C-62.35221962 21.52884181 -56.98850649 16.46649312 -50.82421875 12.26953125 C-46.73938556 10.93570817 -43.01888182 11.01410147 -38.76171875 11.26953125 C-38.53484375 10.40328125 -38.30796875 9.53703125 -38.07421875 8.64453125 C-35.98676084 3.27678233 -33.39589569 0.11580145 -28.26171875 -2.54296875 C-17.80915575 -6.08937405 -9.23074806 -6.28633081 0 0 Z " fill="#3580C0" transform="translate(211.76171875,70.73046875)"/>
<path d="M0 0 C2.01852937 0.01079952 4.03618364 0.00000583 6.0546875 -0.01269531 C7.34375 -0.01011719 8.6328125 -0.00753906 9.9609375 -0.00488281 C11.12270508 -0.00262695 12.28447266 -0.00037109 13.48144531 0.00195312 C16.89708425 0.27174279 19.55602925 1.07267439 22.7578125 2.26074219 C24.44563043 2.752399 26.13704785 3.23188709 27.83203125 3.69824219 C28.74662109 3.95347656 29.66121094 4.20871094 30.60351562 4.47167969 C32.50892921 5.00074298 34.41519342 5.52675162 36.32226562 6.04980469 C37.23298828 6.30503906 38.14371094 6.56027344 39.08203125 6.82324219 C39.90791748 7.05140625 40.73380371 7.27957031 41.5847168 7.51464844 C43.7578125 8.26074219 43.7578125 8.26074219 46.7578125 10.26074219 C46.7578125 10.92074219 46.7578125 11.58074219 46.7578125 12.26074219 C47.5828125 12.48761719 48.4078125 12.71449219 49.2578125 12.94824219 C55.22571282 15.18620481 60.10207246 17.95991912 63.7578125 23.26074219 C64.67626953 23.69386719 64.67626953 23.69386719 65.61328125 24.13574219 C70.85685763 26.88647078 75.15404183 33.05320085 77.7578125 38.26074219 C77.7578125 38.92074219 77.7578125 39.58074219 77.7578125 40.26074219 C78.4178125 40.26074219 79.0778125 40.26074219 79.7578125 40.26074219 C91.04785045 58.9493582 93.00254459 83.06170212 88.36499023 104.10327148 C85.07230241 116.81990459 79.29288488 129.22197219 70.7578125 139.26074219 C69.35343562 140.92021621 67.95806955 142.58734479 66.5703125 144.26074219 C65.91675781 145.02386719 65.26320313 145.78699219 64.58984375 146.57324219 C60.43634483 152.66622141 59.20041456 158.65947981 59.2578125 165.94824219 C59.25990723 166.75624268 59.26200195 167.56424316 59.26416016 168.39672852 C59.49338892 177.54050648 61.71949299 186.17097049 64.12573242 194.95092773 C67.44080472 207.06521857 67.44080472 207.06521857 66.7578125 211.26074219 C64.6328125 213.19824219 64.6328125 213.19824219 61.7578125 214.26074219 C58.4453125 213.94824219 58.4453125 213.94824219 55.7578125 213.26074219 C48.39487938 194.20359983 40.14818395 168.68067993 47.69921875 148.44824219 C49.74835187 144.21387116 51.89585381 140.00759618 54.7578125 136.26074219 C55.4178125 136.26074219 56.0778125 136.26074219 56.7578125 136.26074219 C57.01949219 135.69613281 57.28117188 135.13152344 57.55078125 134.54980469 C58.86471873 132.05800092 60.40302892 129.90561384 62.0703125 127.63574219 C67.67054829 119.69528313 71.37231157 111.66856147 73.7578125 102.26074219 C73.9640625 101.54015625 74.1703125 100.81957031 74.3828125 100.07714844 C78.66527844 82.91754535 76.33639236 63.21568169 67.54296875 48.01855469 C65.48868913 44.84498486 63.26986713 42.07728829 60.7578125 39.26074219 C60.7578125 38.60074219 60.7578125 37.94074219 60.7578125 37.26074219 C60.21125 37.01839844 59.6646875 36.77605469 59.1015625 36.52636719 C56.22045672 34.97057007 53.82676791 33.04104566 51.2578125 31.01074219 C36.64928863 19.77167661 20.94145437 14.85999154 2.6953125 14.94824219 C1.4995459 14.95315674 0.3037793 14.95807129 -0.92822266 14.96313477 C-18.61558785 15.19658787 -34.30448376 18.7471506 -49.09765625 28.90527344 C-51.2421875 30.26074219 -51.2421875 30.26074219 -53.2421875 30.26074219 C-53.2421875 30.92074219 -53.2421875 31.58074219 -53.2421875 32.26074219 C-54.89221578 33.61461154 -56.5596262 34.94752361 -58.2421875 36.26074219 C-58.7371875 37.25074219 -58.7371875 37.25074219 -59.2421875 38.26074219 C-59.9021875 38.26074219 -60.5621875 38.26074219 -61.2421875 38.26074219 C-61.67337891 39.12505859 -61.67337891 39.12505859 -62.11328125 40.00683594 C-62.83042423 41.43864044 -63.55134757 42.86856255 -64.27734375 44.29589844 C-64.61636719 44.96492188 -64.95539063 45.63394531 -65.3046875 46.32324219 C-65.64628906 46.99484375 -65.98789063 47.66644531 -66.33984375 48.35839844 C-67.35709131 50.40402533 -67.35709131 50.40402533 -68.2421875 53.26074219 C-68.9021875 53.26074219 -69.5621875 53.26074219 -70.2421875 53.26074219 C-71.03083617 58.75012165 -71.34826441 63.98442105 -71.234375 69.52246094 C-71.21687537 71.06867852 -71.19996551 72.61490287 -71.18359375 74.16113281 C-71.15256258 76.56407825 -71.1168343 78.96667723 -71.07080078 81.36938477 C-71.02840048 83.71212062 -71.00502273 86.05444596 -70.984375 88.39746094 C-70.96575409 89.11214035 -70.94713318 89.82681976 -70.927948 90.56315613 C-70.90492331 95.0592471 -71.60102396 97.64276195 -74.2421875 101.26074219 C-75.0609436 102.49425415 -75.0609436 102.49425415 -75.89624023 103.75268555 C-76.48348877 104.60999268 -77.0707373 105.4672998 -77.67578125 106.35058594 C-78.32482422 107.29998047 -78.97386719 108.249375 -79.64257812 109.22753906 C-80.31482422 110.20787109 -80.98707031 111.18820313 -81.6796875 112.19824219 C-83.64180602 115.0647895 -85.60333326 117.93165975 -87.55810547 120.80322266 C-88.54889707 122.24904873 -89.54913374 123.6886169 -90.57080078 125.11279297 C-92.70262813 128.12237496 -93.80934811 130.58160733 -94.2421875 134.26074219 C-93.32695313 134.38191406 -92.41171875 134.50308594 -91.46875 134.62792969 C-89.68597656 134.87929688 -89.68597656 134.87929688 -87.8671875 135.13574219 C-86.68382813 135.29816406 -85.50046875 135.46058594 -84.28125 135.62792969 C-81.2421875 136.26074219 -81.2421875 136.26074219 -79.2421875 138.26074219 C-78.88850927 141.97436363 -79.3931986 144.87944427 -80.4921875 148.38574219 C-80.7396875 149.66449219 -80.9871875 150.94324219 -81.2421875 152.26074219 C-80.28119141 153.18113281 -80.28119141 153.18113281 -79.30078125 154.12011719 C-77.2421875 156.26074219 -77.2421875 156.26074219 -76.88671875 159.20605469 C-76.94214844 160.25535156 -76.99757813 161.30464844 -77.0546875 162.38574219 C-77.4005688 166.47776686 -77.4005688 166.47776686 -76.2421875 170.26074219 C-76.19607926 173.12233471 -76.19549204 175.96314548 -76.2421875 178.82324219 C-76.28797764 181.64162548 -76.28923133 184.44105257 -76.2421875 187.26074219 C-75.09502275 188.63759949 -75.09502275 188.63759949 -71.99511719 188.3425293 C-70.55138394 188.32875468 -69.10769128 188.31025281 -67.6640625 188.28808594 C-66.09505435 188.27543198 -64.52604381 188.26307159 -62.95703125 188.25097656 C-60.47730111 188.22621359 -57.99769419 188.19831663 -55.51806641 188.16479492 C-53.12922399 188.13448693 -50.74053658 188.11677849 -48.3515625 188.10058594 C-47.61492371 188.08712631 -46.87828491 188.07366669 -46.11932373 188.05979919 C-42.03545003 188.04000578 -38.91508743 188.43643925 -35.2421875 190.26074219 C-35.2421875 190.92074219 -35.2421875 191.58074219 -35.2421875 192.26074219 C-34.6646875 192.28136719 -34.0871875 192.30199219 -33.4921875 192.32324219 C-29.97865719 193.78721315 -28.65359571 196.89456674 -27.2421875 200.26074219 C-26.34295662 203.84003374 -26.05252355 207.2627153 -25.9921875 210.94824219 C-25.96640625 211.90085938 -25.940625 212.85347656 -25.9140625 213.83496094 C-26.02234375 214.63546875 -26.130625 215.43597656 -26.2421875 216.26074219 C-29.71217479 218.57406705 -31.16727998 218.60031781 -35.2421875 218.26074219 C-38.2421875 216.26074219 -38.2421875 216.26074219 -38.90234375 213.51074219 C-39.03511719 212.43824219 -39.16789062 211.36574219 -39.3046875 210.26074219 C-39.69265441 205.75159772 -39.69265441 205.75159772 -42.2421875 202.26074219 C-45.49962523 202.0481211 -45.49962523 202.0481211 -49.33984375 202.20605469 C-50.7962139 202.23137962 -52.25259467 202.25609909 -53.70898438 202.28027344 C-55.99765421 202.32958664 -58.28576497 202.38518438 -60.57397461 202.45263672 C-79.16357004 202.966262 -79.16357004 202.966262 -85.84399414 196.77661133 C-90.13157171 191.93652245 -90.32184052 187.97674491 -90.1796875 181.82324219 C-89.91026056 169.46972416 -89.91026056 169.46972416 -94.2421875 158.26074219 C-94.4375 155.56152344 -94.4375 155.56152344 -94.3671875 152.57324219 C-94.34914063 151.579375 -94.33109375 150.58550781 -94.3125 149.56152344 C-94.28929688 148.80226562 -94.26609375 148.04300781 -94.2421875 147.26074219 C-95.386875 147.07511719 -95.386875 147.07511719 -96.5546875 146.88574219 C-99.2421875 146.26074219 -99.2421875 146.26074219 -102.2421875 144.26074219 C-102.2421875 143.60074219 -102.2421875 142.94074219 -102.2421875 142.26074219 C-102.8815625 141.97199219 -103.5209375 141.68324219 -104.1796875 141.38574219 C-106.2421875 140.26074219 -106.2421875 140.26074219 -107.2421875 138.26074219 C-108.58488331 127.67214102 -105.4084918 120.77496847 -99.1171875 112.44824219 C-98.1890625 111.36542969 -98.1890625 111.36542969 -97.2421875 110.26074219 C-96.5409375 109.16761719 -95.8396875 108.07449219 -95.1171875 106.94824219 C-94.4984375 106.06136719 -93.8796875 105.17449219 -93.2421875 104.26074219 C-92.5821875 104.26074219 -91.9221875 104.26074219 -91.2421875 104.26074219 C-91.1596875 103.72449219 -91.0771875 103.18824219 -90.9921875 102.63574219 C-90.2421875 100.26074219 -90.2421875 100.26074219 -88.21313477 97.52832031 C-85.95518716 93.78493238 -85.80490501 91.92157153 -85.95703125 87.60449219 C-85.98345703 86.33347656 -86.00988281 85.06246094 -86.03710938 83.75292969 C-86.08416016 82.43550781 -86.13121094 81.11808594 -86.1796875 79.76074219 C-86.616466 66.74865439 -86.05399643 54.45209964 -79.8046875 42.76074219 C-78.94037109 41.10558594 -78.94037109 41.10558594 -78.05859375 39.41699219 C-76.2277885 36.23572198 -74.41266966 33.22008542 -72.2421875 30.26074219 C-71.5821875 30.26074219 -70.9221875 30.26074219 -70.2421875 30.26074219 C-70.0153125 29.70386719 -69.7884375 29.14699219 -69.5546875 28.57324219 C-67.86668714 25.59914631 -65.77542233 23.54065354 -63.2421875 21.26074219 C-62.5821875 21.26074219 -61.9221875 21.26074219 -61.2421875 21.26074219 C-61.2421875 20.60074219 -61.2421875 19.94074219 -61.2421875 19.26074219 C-60.65050781 18.93460938 -60.05882812 18.60847656 -59.44921875 18.27246094 C-56.03082886 16.38202998 -52.62974633 14.49987423 -49.3046875 12.44824219 C-47.2421875 11.26074219 -47.2421875 11.26074219 -45.2421875 11.26074219 C-45.2421875 10.60074219 -45.2421875 9.94074219 -45.2421875 9.26074219 C-42.8886564 8.46714483 -40.53439867 7.67582435 -38.1796875 6.88574219 C-37.52291016 6.66402344 -36.86613281 6.44230469 -36.18945312 6.21386719 C-23.95937014 2.11709062 -12.94858648 -0.0825155 0 0 Z " fill="#357FC0" transform="translate(203.2421875,39.7392578125)"/>
<path d="M0 0 C3.64413886 1.41303343 4.60530964 2.19182449 6.3125 5.6875 C6.6528125 6.8321875 6.6528125 6.8321875 7 8 C12.52727696 8.43831322 12.52727696 8.43831322 17.5 6.5 C21.00228175 4.39863095 24.00793044 4.38831192 28 5 C31 6.375 31 6.375 33 8 C33 8.66 33 9.32 33 10 C33.66 10 34.32 10 35 10 C36.50156874 13.00313748 36.09281204 15.79067522 36.0625 19.125 C36.05347656 20.40632813 36.04445313 21.68765625 36.03515625 23.0078125 C36.02355469 23.99523437 36.01195312 24.98265625 36 26 C41.445 27.485 41.445 27.485 47 29 C47 29.66 47 30.32 47 31 C47.78375 31.2475 48.5675 31.495 49.375 31.75 C52.46471531 33.22129301 52.80780182 33.88194321 54 37 C54.63272906 41.40912251 55.02376136 46.00195274 52.94921875 50.05078125 C51.625 51.6875 51.625 51.6875 49 54 C48.34 54 47.68 54 47 54 C47 54.66 47 55.32 47 56 C45.27473958 56.84635417 43.54947917 57.69270833 41.82421875 58.5390625 C38.18626923 61.45253813 37.11151211 65.02748576 36.59375 69.54296875 C36.53104917 71.98046359 36.46855045 74.41796364 36.40625 76.85546875 C36 80 36 80 34.59375 81.92578125 C33 83 33 83 31 83 C31 83.66 31 84.32 31 85 C29.02 85 27.04 85 25 85 C24.76925781 83.90300781 24.53851563 82.80601562 24.30078125 81.67578125 C23.97231325 80.22113727 23.64283235 78.76672174 23.3125 77.3125 C23.16361328 76.59126953 23.01472656 75.87003906 22.86132812 75.12695312 C21.68688506 70.08375643 20.06861366 67.43761703 16 64 C15.67 63.67 15.34 63.34 15 63 C12.64796402 62.83983614 10.29296721 62.72246761 7.9375 62.625 C-4.54980153 61.84518737 -4.54980153 61.84518737 -8 59 C-10.38377532 55.4925949 -12.19747706 51.82958162 -14 48 C-16.15961679 45.84038321 -21.77517219 46.69995215 -24.83398438 46.65820312 C-31.09168412 46.40974413 -34.57973697 44.09320046 -39.3125 40 C-42.58500366 36.12147714 -42.33232991 31.36578009 -42.2890625 26.4765625 C-41.86493593 22.84282946 -40.37640298 20.71588912 -38 18 C-34.3558226 15.5705484 -32.28758728 15.83820425 -28 16 C-26.68 18.31 -25.36 20.62 -24 23 C-22.00045254 23.04254356 -19.99958364 23.04080783 -18 23 C-17.67 22.67 -17.34 22.34 -17 22 C-17.10973946 18.47320095 -17.22626487 14.95323368 -17.47851562 11.43359375 C-17.65449245 5.92599478 -17.65449245 5.92599478 -15.83764648 3.35546875 C-10.94436554 -1.08908337 -6.18643577 -0.85817935 0 0 Z " fill="#F7FCFC" transform="translate(201,80)"/>
<path d="M0 0 C2.4375 0.875 2.4375 0.875 3.5625 2.875 C3.85125 3.535 4.14 4.195 4.4375 4.875 C5.4275 5.205 6.4175 5.535 7.4375 5.875 C8.65704873 8.25475201 9.66596714 10.51835448 10.625 13 C10.89763672 13.65226562 11.17027344 14.30453125 11.45117188 14.9765625 C13.19658521 19.38602776 13.89932031 23.06487162 13.4375 27.875 C11.4375 29.875 11.4375 29.875 8.125 30.4375 C4.4375 29.875 4.4375 29.875 2.8671875 28.37890625 C-0.5625 23.66553571 -0.5625 23.66553571 -0.5625 20.875 C-1.33440674 20.86041748 -2.10631348 20.84583496 -2.90161133 20.83081055 C-6.39325093 20.75641967 -9.8839249 20.6597291 -13.375 20.5625 C-14.58994141 20.53994141 -15.80488281 20.51738281 -17.05664062 20.49414062 C-18.80170898 20.4409668 -18.80170898 20.4409668 -20.58203125 20.38671875 C-21.65557861 20.36053467 -22.72912598 20.33435059 -23.83520508 20.30737305 C-26.5625 19.875 -26.5625 19.875 -28.42285156 18.47998047 C-29.98715802 16.27694905 -29.81037071 14.96595098 -29.5 12.3125 C-29.42652344 11.52746094 -29.35304687 10.74242188 -29.27734375 9.93359375 C-28.5625 7.875 -28.5625 7.875 -26.78833008 6.75854492 C-24.40807949 5.81370266 -22.78153539 5.64329949 -20.234375 5.6796875 C-19.03554687 5.68935547 -19.03554687 5.68935547 -17.8125 5.69921875 C-16.9875 5.71597656 -16.1625 5.73273438 -15.3125 5.75 C-14.47203125 5.75902344 -13.6315625 5.76804687 -12.765625 5.77734375 C-10.69779396 5.80084183 -8.63011005 5.83671092 -6.5625 5.875 C-6.459375 5.25625 -6.35625 4.6375 -6.25 4 C-5.16374056 0.64247081 -3.42435763 -0.16704184 0 0 Z " fill="#3581C1" transform="translate(220.5625,101.125)"/>
<path d="M0 0 C7.33813334 -0.5644718 13.16088115 1.44672896 20 4 C20 5.32 20 6.64 20 8 C20.66 8 21.32 8 22 8 C22 8.66 22 9.32 22 10 C21.34 10 20.68 10 20 10 C20 10.99 20 11.98 20 13 C18.02006459 12.69240822 16.04106401 12.3787932 14.0625 12.0625 C12.40927734 11.80146484 12.40927734 11.80146484 10.72265625 11.53515625 C8 11 8 11 7 10 C5.51730105 9.70420295 4.02368615 9.4625458 2.52734375 9.24609375 C1.62822266 9.11396484 0.72910156 8.98183594 -0.19726562 8.84570312 C-1.14279297 8.71099609 -2.08832031 8.57628906 -3.0625 8.4375 C-4.01189453 8.29892578 -4.96128906 8.16035156 -5.93945312 8.01757812 C-8.2924565 7.67467814 -10.64595483 7.33566063 -13 7 C-12.67 5.02 -12.34 3.04 -12 1 C-8.04 1 -4.08 1 0 1 C0 0.67 0 0.34 0 0 Z " fill="#3180C3" transform="translate(220,44)"/>
<path d="M0 0 C0.98608749 0.00212242 0.98608749 0.00212242 1.99209595 0.00428772 C4.07029981 0.00983863 6.14839177 0.0223816 8.2265625 0.03515625 C9.64452968 0.04017761 11.06249857 0.0447394 12.48046875 0.04882812 C15.93753572 0.05979188 19.39453817 0.07702204 22.8515625 0.09765625 C23.3465625 1.08765625 23.3465625 1.08765625 23.8515625 2.09765625 C24.8415625 2.75765625 25.8315625 3.41765625 26.8515625 4.09765625 C23.55013806 6.29860588 22.65786295 6.30175969 18.8515625 6.16015625 C15.7174474 6.05288743 13.86795578 6.09219182 10.8515625 7.09765625 C10.8515625 8.08765625 10.8515625 9.07765625 10.8515625 10.09765625 C13.3265625 10.59265625 13.3265625 10.59265625 15.8515625 11.09765625 C15.8515625 11.42765625 15.8515625 11.75765625 15.8515625 12.09765625 C9.2515625 12.09765625 2.6515625 12.09765625 -4.1484375 12.09765625 C-4.1484375 10.11765625 -4.1484375 8.13765625 -4.1484375 6.09765625 C-5.4684375 5.76765625 -6.7884375 5.43765625 -8.1484375 5.09765625 C-2.4538033 1.30123345 4.5819712 2.0037092 11.2265625 1.97265625 C11.94094482 1.9679834 12.65532715 1.96331055 13.39135742 1.95849609 C18.60559397 1.97467199 18.60559397 1.97467199 20.8515625 3.09765625 C20.8515625 2.43765625 20.8515625 1.77765625 20.8515625 1.09765625 C9.6315625 1.42765625 -1.5884375 1.75765625 -13.1484375 2.09765625 C-13.1484375 1.76765625 -13.1484375 1.43765625 -13.1484375 1.09765625 C-8.70696181 0.23849529 -4.52073926 -0.0193194 0 0 Z " fill="#3F87C4" transform="translate(197.1484375,39.90234375)"/>
<path d="M0 0 C1.32 0.33 2.64 0.66 4 1 C4 1.66 4 2.32 4 3 C4.86625 3.0309375 4.86625 3.0309375 5.75 3.0625 C9.26353031 4.52647096 10.58859179 7.63382456 12 11 C12.89923088 14.57929155 13.18966395 18.00197311 13.25 21.6875 C13.27578125 22.64011719 13.3015625 23.59273437 13.328125 24.57421875 C13.21984375 25.37472656 13.1115625 26.17523438 13 27 C9.53001271 29.31332486 8.07490752 29.33957563 4 29 C1 27 1 27 0.33984375 24.25 C0.14068359 22.64125 0.14068359 22.64125 -0.0625 21 C-0.45046691 16.49085553 -0.45046691 16.49085553 -3 13 C-5.50920846 12.82504394 -7.90624941 12.76830431 -10.4140625 12.8046875 C-11.50852188 12.80893234 -11.50852188 12.80893234 -12.62509155 12.81326294 C-14.95856028 12.82446998 -17.29164703 12.8495749 -19.625 12.875 C-21.20572363 12.88502915 -22.78645327 12.89415511 -24.3671875 12.90234375 C-28.24493914 12.92441095 -32.12240478 12.95894385 -36 13 C-36 12.67 -36 12.34 -36 12 C-30.06 11.67 -24.12 11.34 -18 11 C-18 10.67 -18 10.34 -18 10 C-15.75006641 9.97292861 -13.50003905 9.95357171 -11.25 9.9375 C-9.99703125 9.92589844 -8.7440625 9.91429687 -7.453125 9.90234375 C-2.0722208 10.05451864 -2.0722208 10.05451864 0 11 C1.01171875 12.8203125 1.01171875 12.8203125 1.6875 15.125 C1.9246875 15.93066406 2.161875 16.73632812 2.40625 17.56640625 C3.17391737 20.71283239 3.65746029 23.78012668 4 27 C5.98 27 7.96 27 10 27 C10 26.01 10 25.02 10 24 C10.66 24 11.32 24 12 24 C11.45904614 21.59743956 10.89347685 19.2054123 10.3125 16.8125 C10.08916992 15.80219727 10.08916992 15.80219727 9.86132812 14.77148438 C8.65655686 9.92877637 6.97741477 7.24425076 3 4 C2.01 3.67 1.02 3.34 0 3 C0 2.01 0 1.02 0 0 Z " fill="#3D77A7" transform="translate(164,229)"/>
<path d="M0 0 C0.99 0 1.98 0 3 0 C3.79096885 2.98810455 4.01333106 4.92890099 3.4375 8 C2.92602909 11.50722911 3.6836865 12.77077047 5 16 C5.53283523 18.81810634 5.93918913 21.63697149 6.33984375 24.4765625 C6.7794184 27.03791457 6.7794184 27.03791457 8.515625 28.48828125 C10.66546147 30.67771997 10.57605831 32.55287781 10.8125 35.5625 C10.90144531 36.53316406 10.99039063 37.50382812 11.08203125 38.50390625 C11 41 11 41 9 43 C9.09254344 47.16445467 9.75812188 48.72862455 12.5625 51.875 C13.7690625 52.926875 13.7690625 52.926875 15 54 C9.49856734 52.53295129 9.49856734 52.53295129 7.1875 50.0625 C4.78426617 45.8884623 4.9550372 42.21433669 5.0625 37.5625 C5.33192694 25.20898197 5.33192694 25.20898197 1 14 C0.83984375 11.15234375 0.83984375 11.15234375 0.9375 7.9375 C1.19473141 3.81295508 1.19473141 3.81295508 0 0 Z " fill="#3780BB" transform="translate(108,184)"/>
<path d="M0 0 C1.18464844 -0.00386719 2.36929688 -0.00773437 3.58984375 -0.01171875 C15.64186678 0.00171717 15.64186678 0.00171717 21.5 1.125 C21.995 2.115 21.995 2.115 22.5 3.125 C21.49324219 3.10928955 20.48648438 3.0935791 19.44921875 3.07739258 C15.63224632 3.02215448 11.81530726 2.98831727 7.99804688 2.96020508 C6.36126726 2.94532817 4.72452593 2.9250202 3.08789062 2.89868164 C-13.18052056 2.64386316 -27.42430665 4.68221427 -42.5 11.125 C-44.16525284 11.79519043 -45.83144672 12.46306936 -47.5 13.125 C-47.5 12.465 -47.5 11.805 -47.5 11.125 C-38.71674463 5.61929328 -32.08646559 3.0037148 -21.5 3.125 C-21.5 2.465 -21.5 1.805 -21.5 1.125 C-14.32271492 0.0057699 -7.25428571 -0.02368102 0 0 Z " fill="#417FB2" transform="translate(205.5,51.875)"/>
<path d="M0 0 C-2.74953946 2.74953946 -5.2350197 3.17042807 -9 4 C-11.9375 3.625 -11.9375 3.625 -14 3 C-14.06703125 3.6290625 -14.1340625 4.258125 -14.203125 4.90625 C-14.46609375 5.5971875 -14.7290625 6.288125 -15 7 C-17.109375 7.90625 -17.109375 7.90625 -19.75 8.5 C-24.06024005 9.62360959 -26.66779541 10.96181347 -30 14 C-32.0625 15.125 -32.0625 15.125 -34 16 C-34.680625 16.391875 -35.36125 16.78375 -36.0625 17.1875 C-38 18 -38 18 -41 17 C-40.01 16.67 -39.02 16.34 -38 16 C-38 15.34 -38 14.68 -38 14 C-27.29389127 6.27034136 -13.59433495 -1.38717704 0 0 Z " fill="#D2EAF5" transform="translate(188,56)"/>
<path d="M0 0 C-0.969375 0.433125 -1.93875 0.86625 -2.9375 1.3125 C-5.31650248 2.87441518 -5.91669723 3.60683615 -6.515625 6.43359375 C-6.63244721 8.34788495 -6.72939014 10.26347117 -6.80859375 12.1796875 C-7.19069378 17.80981443 -8.91871909 21.73411016 -12.5625 26 C-15 28 -15 28 -17 28 C-17 28.66 -17 29.32 -17 30 C-22.37330889 33.39366878 -26.86946489 33.32712342 -33 33 C-30.50488298 31.67650314 -28.54319951 30.8945845 -25.75 30.25 C-19.68887155 28.22962385 -14.76486239 24.96304523 -11.5625 19.3125 C-9.7158577 15.1455115 -9.48080654 11.03321045 -9.37109375 6.515625 C-8.9290159 3.51880249 -8.08147253 2.17452659 -6 0 C-3 -1 -3 -1 0 0 Z " fill="#457FB3" transform="translate(257,145)"/>
<path d="M0 0 C0.33 0 0.66 0 1 0 C2.07534683 8.55314323 2.17265056 16.66977018 0.3125 25.125 C-0.07079693 28.65133175 0.65926075 31.39637989 1.51953125 34.80859375 C2.12498533 37.57005504 2.14438409 40.1845102 2 43 C0.68 43.66 -0.64 44.32 -2 45 C-2.04972917 39.87713 -2.08587445 34.75440298 -2.10986328 29.63134766 C-2.11987218 27.89141388 -2.13348343 26.1514967 -2.15087891 24.41162109 C-2.17535354 21.89937215 -2.1865344 19.38734712 -2.1953125 16.875 C-2.20563507 16.10696045 -2.21595764 15.3389209 -2.22659302 14.54760742 C-2.22764695 9.38361275 -1.42419558 4.96743649 0 0 Z " fill="#E7F6FB" transform="translate(133,93)"/>
<path d="M0 0 C0.96679688 0.04511719 1.93359375 0.09023437 2.9296875 0.13671875 C3.65414062 0.19472656 4.37859375 0.25273438 5.125 0.3125 C5.455 0.9725 5.785 1.6325 6.125 2.3125 C5.11179688 2.24289063 5.11179688 2.24289063 4.078125 2.171875 C3.18609375 2.13578125 2.2940625 2.0996875 1.375 2.0625 C0.49328125 2.01609375 -0.3884375 1.9696875 -1.296875 1.921875 C-3.96291632 2.14818278 -3.96291632 2.14818278 -6.203125 3.79296875 C-8.64579098 7.47408922 -8.1650899 10.57804331 -7.875 14.875 C-7.34987752 22.69276086 -7.34987752 22.69276086 -9.609375 25.359375 C-13.33170873 26.92532229 -15.95508485 26.03115111 -19.875 25.3125 C-19.875 24.3225 -19.875 23.3325 -19.875 22.3125 C-19.545 22.6425 -19.215 22.9725 -18.875 23.3125 C-15.875 23.47916667 -15.875 23.47916667 -12.875 23.3125 C-12.545 22.9825 -12.215 22.6525 -11.875 22.3125 C-11.98473946 18.78570095 -12.10126487 15.26573368 -12.35351562 11.74609375 C-12.52910802 6.25052641 -12.52910802 6.25052641 -10.72363281 3.66137695 C-7.31036196 0.53180509 -4.5214019 -0.27569524 0 0 Z " fill="#CFE9F5" transform="translate(195.875,79.6875)"/>
<path d="M0 0 C2 2 2 2 2.16015625 5.87890625 C2.13752765 7.44027953 2.10455065 9.00152905 2.0625 10.5625 C2.00071835 13.37928565 1.97942761 16.18158323 2 19 C3.15668501 20.38421065 3.15668501 20.38421065 6.32641602 20.11352539 C7.80225556 20.11336629 9.27810069 20.10767314 10.75390625 20.09765625 C11.52935287 20.0962413 12.3047995 20.09482635 13.10374451 20.09336853 C15.59003494 20.08775345 18.0762366 20.07519846 20.5625 20.0625 C22.24413933 20.05748694 23.92578006 20.0529237 25.60742188 20.04882812 C29.73831566 20.03777913 33.86914276 20.02050445 38 20 C38 20.33 38 20.66 38 21 C34.04 21.33 30.08 21.66 26 22 C26 22.33 26 22.66 26 23 C22.04172765 23.05785647 18.0835633 23.09354717 14.125 23.125 C12.99707031 23.14175781 11.86914062 23.15851563 10.70703125 23.17578125 C9.09248047 23.18544922 9.09248047 23.18544922 7.4453125 23.1953125 C5.95281982 23.21102295 5.95281982 23.21102295 4.43017578 23.22705078 C2 23 2 23 0 21 C-0.22705078 18.84521484 -0.22705078 18.84521484 -0.1953125 16.2109375 C-0.18886719 15.26992187 -0.18242188 14.32890625 -0.17578125 13.359375 C-0.15902344 12.37453125 -0.14226562 11.3896875 -0.125 10.375 C-0.11597656 9.38242188 -0.10695313 8.38984375 -0.09765625 7.3671875 C-0.07404116 4.91121866 -0.04110799 2.45572832 0 0 Z " fill="#5288B8" transform="translate(125,208)"/>
<path d="M0 0 C2.24993359 -0.02707139 4.49996095 -0.04642829 6.75 -0.0625 C8.00296875 -0.07410156 9.2559375 -0.08570313 10.546875 -0.09765625 C15.91733078 0.05422316 15.91733078 0.05422316 18 1 C21.07670124 6.17596671 21.3378088 11.28390786 20 17 C17.63538283 13.45307425 17.61566673 11.19852591 17.34375 7.05859375 C17.1683252 4.78100001 17.1683252 4.78100001 15 3 C12.49079154 2.82504394 10.09375059 2.76830431 7.5859375 2.8046875 C6.49147812 2.80893234 6.49147812 2.80893234 5.37490845 2.81326294 C3.04143972 2.82446998 0.70835297 2.8495749 -1.625 2.875 C-3.20572363 2.88502915 -4.78645327 2.89415511 -6.3671875 2.90234375 C-10.24493914 2.92441095 -14.12240478 2.95894385 -18 3 C-18 2.67 -18 2.34 -18 2 C-12.06 1.67 -6.12 1.34 0 1 C0 0.67 0 0.34 0 0 Z " fill="#4B87B8" transform="translate(146,239)"/>
<path d="M0 0 C0.33 0 0.66 0 1 0 C1.01981934 0.59312988 1.03963867 1.18625977 1.06005859 1.79736328 C1.46366472 13.31909178 2.00090304 24.62649693 4 36 C4.66 36 5.32 36 6 36 C6.5625 37.9375 6.5625 37.9375 7 40 C6.505 40.495 6.505 40.495 6 41 C5.95936168 42.66617115 5.957279 44.33388095 6 46 C-1.81059937 34.28410095 -2.00115453 16.58709723 -1 3 C-0.67 2.01 -0.34 1.02 0 0 Z " fill="#E2F7FC" transform="translate(263,194)"/>
<path d="M0 0 C1.76633789 -0.02416992 1.76633789 -0.02416992 3.56835938 -0.04882812 C11.15515273 -0.05302668 17.74273906 0.88980244 24.9375 3.3125 C23.3125 4.4375 23.3125 4.4375 20.9375 5.3125 C18.9215239 4.69582763 16.9229819 4.02123555 14.9375 3.3125 C12.41486383 3.09022481 9.8832433 2.95919784 7.3515625 2.8984375 C6.64977875 2.87907135 5.947995 2.8597052 5.22494507 2.8397522 C3.00425001 2.78042431 0.78350177 2.73376083 -1.4375 2.6875 C-2.95184434 2.64927698 -4.46616794 2.61022278 -5.98046875 2.5703125 C-9.67428831 2.47476266 -13.3682647 2.39056063 -17.0625 2.3125 C-11.81556344 -0.84477475 -5.93702792 -0.0158829 0 0 Z " fill="#C2E0F0" transform="translate(205.0625,53.6875)"/>
<path d="M0 0 C0.99 0.33 1.98 0.66 3 1 C2.67 1.66 2.34 2.32 2 3 C1.34 3 0.68 3 0 3 C-0.22558594 3.56589844 -0.45117188 4.13179687 -0.68359375 4.71484375 C-2.3707949 7.64366474 -4.49236058 9.37695698 -7.0625 11.5625 C-10.89995516 14.68074344 -10.89995516 14.68074344 -13 19 C-14.32 18.67 -15.64 18.34 -17 18 C-15.625 15.5 -15.625 15.5 -14 13 C-13.34 13 -12.68 13 -12 13 C-11.773125 12.443125 -11.54625 11.88625 -11.3125 11.3125 C-9.62449964 8.33840412 -7.53323483 6.27991135 -5 4 C-4.34 4 -3.68 4 -3 4 C-3 3.34 -3 2.68 -3 2 C-2.01 1.34 -1.02 0.68 0 0 Z " fill="#4A86B8" transform="translate(145,57)"/>
<path d="M0 0 C-0.33 1.32 -0.66 2.64 -1 4 C-1.66 4 -2.32 4 -3 4 C-3 3.01 -3 2.02 -3 1 C-4.1446875 2.2065625 -4.1446875 2.2065625 -5.3125 3.4375 C-8 6 -8 6 -11 7 C-11 7.99 -11 8.98 -11 10 C-11.66 10 -12.32 10 -13 10 C-12.69964844 10.83144531 -12.39929688 11.66289063 -12.08984375 12.51953125 C-11.70957031 13.60621094 -11.32929688 14.69289063 -10.9375 15.8125 C-10.55464844 16.89144531 -10.17179688 17.97039062 -9.77734375 19.08203125 C-9 22 -9 22 -10 25 C-13.25798001 22.1669739 -13.81345948 19.85317306 -14.23828125 15.6328125 C-14.40877449 9.87193552 -13.95505849 6.52006684 -10 2 C-6.3558226 -0.4294516 -4.28758728 -0.16179575 0 0 Z " fill="#D3EBF7" transform="translate(173,96)"/>
<path d="M0 0 C0.99 0.33 1.98 0.66 3 1 C5.05991997 6.20400835 5.78961535 11.43113382 5 17 C3.625 20.125 3.625 20.125 1 22 C-2.42261164 22.10192731 -5.64449178 21.64676781 -9 21 C-8.67 19.68 -8.34 18.36 -8 17 C-7.67 17.33 -7.34 17.66 -7 18 C-2.85723125 18.24733137 -2.85723125 18.24733137 1 17 C1.15873088 8.45175534 1.15873088 8.45175534 0 0 Z " fill="#E2F3FB" transform="translate(175,239)"/>
<path d="M0 0 C0.33 0 0.66 0 1 0 C1.97986353 3.58314315 2.95876946 7.16654723 3.9375 10.75 C4.21529297 11.76578125 4.49308594 12.7815625 4.77929688 13.828125 C5.04677734 14.8078125 5.31425781 15.7875 5.58984375 16.796875 C5.83597412 17.69760742 6.08210449 18.59833984 6.33569336 19.52636719 C6.91384559 21.67919278 7.46769804 23.83545262 8 26 C10.31 25.34 12.62 24.68 15 24 C15.33 22.35 15.66 20.7 16 19 C16.33 19 16.66 19 17 19 C17.3125 21.8125 17.3125 21.8125 17 25 C14.875 26.9375 14.875 26.9375 12 28 C8.6875 27.6875 8.6875 27.6875 6 27 C2.55050193 17.89064588 -0.35136228 9.83814376 0 0 Z " fill="#588DB7" transform="translate(253,226)"/>
<path d="M0 0 C2.475 0.99 2.475 0.99 5 2 C5 2.99 5 3.98 5 5 C5.66 5 6.32 5 7 5 C12.73261543 13.51702863 12.54992842 21.15017092 12 31 C11.67 31 11.34 31 11 31 C11 26.38 11 21.76 11 17 C10.34 17 9.68 17 9 17 C5.71428571 9.57142857 5.71428571 9.57142857 5 6 C3.68 5.67 2.36 5.34 1 5 C0.67 5.66 0.34 6.32 0 7 C-0.66 6.34 -1.32 5.68 -2 5 C-1.34 3.35 -0.68 1.7 0 0 Z " fill="#518DBE" transform="translate(256,99)"/>
<path d="M0 0 C4.51567507 1.83971947 7.92959781 4.65955712 9.984375 9.15234375 C11.39192777 13.14262307 12.41389462 16.72308888 12 21 C13.98 21.66 15.96 22.32 18 23 C18 23.99 18 24.98 18 26 C14.98815134 25.06142391 12.46834221 23.98782477 10 22 C8.72128906 18.73157075 8.42546476 15.4652985 8 12 C6.99228211 9.05215472 6.99228211 9.05215472 6 7 C5.34 7 4.68 7 4 7 C4 6.34 4 5.68 4 5 C3.34 5 2.68 5 2 5 C1.34 3.35 0.68 1.7 0 0 Z " fill="#4B86B3" transform="translate(238,76)"/>
<path d="M0 0 C0 3 0 3 -2.3125 5.625 C-5 8 -5 8 -8 9 C-8.66 10.98 -9.32 12.96 -10 15 C-14.62 15.33 -19.24 15.66 -24 16 C-19.5 12.625 -19.5 12.625 -15.25 12.8125 C-14.45078125 12.83957031 -13.6515625 12.86664063 -12.828125 12.89453125 C-12.22484375 12.92933594 -11.6215625 12.96414062 -11 13 C-10.773125 12.13375 -10.54625 11.2675 -10.3125 10.375 C-8.54823811 5.83832656 -5.51153988 0 0 0 Z " fill="#538CBA" transform="translate(184,69)"/>
<path d="M0 0 C0.598125 0.226875 1.19625 0.45375 1.8125 0.6875 C0.8225 1.1825 0.8225 1.1825 -0.1875 1.6875 C0.1425 2.3475 0.4725 3.0075 0.8125 3.6875 C-0.1775 4.1825 -0.1775 4.1825 -1.1875 4.6875 C-1.5175 6.0075 -1.8475 7.3275 -2.1875 8.6875 C6.0625 9.0175 14.3125 9.3475 22.8125 9.6875 C23.1425 10.3475 23.4725 11.0075 23.8125 11.6875 C19.35364074 11.57805285 14.89565844 11.44732334 10.4375 11.3125 C9.16648438 11.2815625 7.89546875 11.250625 6.5859375 11.21875 C5.37421875 11.18007812 4.1625 11.14140625 2.9140625 11.1015625 C1.79338379 11.0701416 0.67270508 11.0387207 -0.48193359 11.00634766 C-3.1875 10.6875 -3.1875 10.6875 -5.1875 8.6875 C-5.5278296 5.48840176 -5.70898335 3.4957992 -3.9375 0.75 C-2.1875 -0.3125 -2.1875 -0.3125 0 0 Z " fill="#3776AA" transform="translate(196.1875,109.3125)"/>
<path d="M0 0 C0.66 0 1.32 0 2 0 C2.05790353 3.29159316 2.09356261 6.58305603 2.125 9.875 C2.14175781 10.81214844 2.15851563 11.74929687 2.17578125 12.71484375 C2.18222656 13.61074219 2.18867188 14.50664063 2.1953125 15.4296875 C2.20578613 16.25710449 2.21625977 17.08452148 2.22705078 17.93701172 C2 20 2 20 0 22 C-2.9375 22.375 -2.9375 22.375 -6 22 C-7.9375 20.25 -7.9375 20.25 -9 18 C-8.6875 15.75 -8.6875 15.75 -8 14 C-6.68 14.66 -5.36 15.32 -4 16 C-4 16.99 -4 17.98 -4 19 C-2.68 18.67 -1.36 18.34 0 18 C0 12.06 0 6.12 0 0 Z M-7 16 C-6.67 16.66 -6.34 17.32 -6 18 C-5.67 17.34 -5.34 16.68 -5 16 C-5.66 16 -6.32 16 -7 16 Z " fill="#3D78A9" transform="translate(183,82)"/>
<path d="M0 0 C2.64 0 5.28 0 8 0 C7.401875 0.28875 6.80375 0.5775 6.1875 0.875 C2.02297418 2.95202506 2.02297418 2.95202506 0 7 C-1.26457031 7.06058594 -2.52914062 7.12117188 -3.83203125 7.18359375 C-5.49219871 7.26800904 -7.15235437 7.35265655 -8.8125 7.4375 C-9.64587891 7.47681641 -10.47925781 7.51613281 -11.33789062 7.55664062 C-12.14033203 7.59853516 -12.94277344 7.64042969 -13.76953125 7.68359375 C-14.50792236 7.72025146 -15.24631348 7.75690918 -16.00708008 7.79467773 C-18.207495 7.94842141 -18.207495 7.94842141 -21 9 C-21.80212628 10.87387216 -21.80212628 10.87387216 -22.1875 13.0625 C-22.34605469 13.79597656 -22.50460938 14.52945313 -22.66796875 15.28515625 C-22.83232422 16.13400391 -22.83232422 16.13400391 -23 17 C-23.33 17 -23.66 17 -24 17 C-23.85957123 15.35369672 -23.71250671 13.70795821 -23.5625 12.0625 C-23.48128906 11.14597656 -23.40007812 10.22945312 -23.31640625 9.28515625 C-23 7 -23 7 -22 6 C-18.23327172 5.76198206 -14.47306893 5.60390481 -10.70117188 5.48242188 C-9.90646484 5.44826172 -9.11175781 5.41410156 -8.29296875 5.37890625 C-7.5661792 5.3538501 -6.83938965 5.32879395 -6.09057617 5.30297852 C-3.73516255 4.96161821 -2.06243899 4.16279339 0 3 C0 2.01 0 1.02 0 0 Z " fill="#C0DEEF" transform="translate(214,100)"/>
<path d="M0 0 C0.33 0 0.66 0 1 0 C1.03738281 1.22074219 1.07476562 2.44148437 1.11328125 3.69921875 C1.44648812 12.56938417 2.03726639 20.84011157 4.37890625 29.43359375 C5 32 5 32 5 36 C4.01 35.67 3.02 35.34 2 35 C-0.64930578 27.84161087 -0.22854026 20.54250968 -0.125 13 C-0.11146484 11.12248047 -0.11146484 11.12248047 -0.09765625 9.20703125 C-0.07422716 6.1378199 -0.04142147 3.06901244 0 0 Z " fill="#C3E1F3" transform="translate(248,197)"/>
<path d="M0 0 C0.66 0 1.32 0 2 0 C1.7834375 0.80050781 1.7834375 0.80050781 1.5625 1.6171875 C-0.8592702 11.33790401 -0.02323324 19.96703278 1.5625 29.80078125 C1.94415952 32.59166646 2.08434552 35.19023992 2 38 C-2.60717117 31.08924324 -2.2020809 22.7371824 -2.25 14.6875 C-2.26377686 13.37954468 -2.26377686 13.37954468 -2.27783203 12.04516602 C-2.25637655 7.59229548 -2.10114543 4.04387116 0 0 Z " fill="#306A98" transform="translate(251,191)"/>
<path d="M0 0 C2.64 0.33 5.28 0.66 8 1 C8 1.66 8 2.32 8 3 C8.78375 3.2475 9.5675 3.495 10.375 3.75 C13.46646455 5.22212598 13.82087606 5.87182188 15 9 C15.30078125 11.69140625 15.30078125 11.69140625 15.3125 14.5625 C15.32925781 15.51253906 15.34601563 16.46257812 15.36328125 17.44140625 C15 20 15 20 12 23 C12 17.72 12 12.44 12 7 C10.02 6.01 8.04 5.02 6 4 C6 3.34 6 2.68 6 2 C3.03 1.505 3.03 1.505 0 1 C0 0.67 0 0.34 0 0 Z " fill="#C5E2F1" transform="translate(240,108)"/>
<path d="M0 0 C0.33 0 0.66 0 1 0 C1.02578125 0.969375 1.0515625 1.93875 1.078125 2.9375 C1.39658671 11.20917864 2.38688355 18.80880196 4.71582031 26.76953125 C5.78475092 30.52138139 5.98028198 32.07887207 5 36 C4.34 33.36 3.68 30.72 3 28 C2.34 28 1.68 28 1 28 C0.0178006 24.72373625 -0.11580914 21.77211881 -0.09765625 18.359375 C-0.09443359 17.28945312 -0.09121094 16.21953125 -0.08789062 15.1171875 C-0.07951172 14.00601563 -0.07113281 12.89484375 -0.0625 11.75 C-0.05798828 10.62335938 -0.05347656 9.49671875 -0.04882812 8.3359375 C-0.03705397 5.55723783 -0.0206084 2.77864591 0 0 Z " fill="#6B9DC6" transform="translate(261,200)"/>
<path d="M0 0 C2.52259061 1.97420135 2.9929808 2.96745642 3.6875 6.1875 C3.790625 7.115625 3.89375 8.04375 4 9 C4.99 9 5.98 9 7 9 C7.27599507 10.76696843 7.51996915 12.53896215 7.75 14.3125 C7.88921875 15.29863281 8.0284375 16.28476563 8.171875 17.30078125 C8 20 8 20 6.25 21.875 C2.96751286 23.51624357 0.50133627 22.74066729 -3 22 C-3 21.67 -3 21.34 -3 21 C-0.69 20.34 1.62 19.68 4 19 C4.49776367 13.27571784 3.18511283 9.37457874 0.875 4.13671875 C0 2 0 2 0 0 Z " fill="#CBE4F2" transform="translate(229,110)"/>
<path d="M0 0 C0.33 0 0.66 0 1 0 C1 2.64 1 5.28 1 8 C1.66386719 8.08636719 2.32773438 8.17273438 3.01171875 8.26171875 C8.85889686 9.19214563 12.2139497 10.1147738 16 15 C17.32229189 17.64458379 17.09677194 19.67761301 17.0625 22.625 C17.05347656 23.62789062 17.04445313 24.63078125 17.03515625 25.6640625 C17.02355469 26.43492188 17.01195312 27.20578125 17 28 C16.67 28 16.34 28 16 28 C15.91363281 27.16855469 15.82726562 26.33710937 15.73828125 25.48046875 C15.52751953 23.85044922 15.52751953 23.85044922 15.3125 22.1875 C15.18488281 21.10855469 15.05726563 20.02960938 14.92578125 18.91796875 C14.26391508 15.79099202 14.26391508 15.79099202 11.41796875 14.23828125 C10.62003906 13.82964844 9.82210937 13.42101562 9 13 C9 12.34 9 11.68 9 11 C7.700625 10.855625 6.40125 10.71125 5.0625 10.5625 C1.125 10.125 1.125 10.125 0 9 C-0.07179964 7.48071962 -0.08392007 5.95832518 -0.0625 4.4375 C-0.05347656 3.61121094 -0.04445312 2.78492187 -0.03515625 1.93359375 C-0.02355469 1.29550781 -0.01195312 0.65742187 0 0 Z " fill="#407EB1" transform="translate(239,98)"/>
<path d="M0 0 C2.75 -0.375 2.75 -0.375 6 0 C9.86593725 4.47344167 10.53852717 8.14884544 10.25 13.875 C10.23195312 14.56335938 10.21390625 15.25171875 10.1953125 15.9609375 C10.14863748 17.6412381 10.07690939 19.32081163 10 21 C9.34 21 8.68 21 8 21 C7.67 15.72 7.34 10.44 7 5 C6.34 5 5.68 5 5 5 C5 4.34 5 3.68 5 3 C2.525 2.01 2.525 2.01 0 1 C0 0.67 0 0.34 0 0 Z " fill="#598EBD" transform="translate(229,85)"/>
<path d="M0 0 C0.99 0 1.98 0 3 0 C3.79096885 2.98810455 4.01333106 4.92890099 3.4375 8 C2.92640429 11.50465632 3.66403773 12.78132933 5 16 C6.53956612 22.35783788 7.24639633 28.47049715 7 35 C6.67 35 6.34 35 6 35 C4.69681603 29.64808914 3.73794919 24.44439124 3.34375 18.9453125 C3.07806291 16.68218837 3.07806291 16.68218837 1 14 C0.83984375 11.15234375 0.83984375 11.15234375 0.9375 7.9375 C1.19473141 3.81295508 1.19473141 3.81295508 0 0 Z " fill="#3271A6" transform="translate(108,184)"/>
<path d="M0 0 C3.63 0 7.26 0 11 0 C13 9.75 13 9.75 13 12 C12.01 11.67 11.02 11.34 10 11 C9.67 9.02 9.34 7.04 9 5 C6.03 4.01 3.06 3.02 0 2 C0 1.34 0 0.68 0 0 Z " fill="#D5EDF7" transform="translate(200,155)"/>
<path d="M0 0 C0.6703125 0.15855469 1.340625 0.31710938 2.03125 0.48046875 C6.78516927 1.31240462 11.58853291 1.28606745 16.40625 1.42578125 C20.42081694 2.06723923 22.1096505 3.21525942 25 6 C24.67 6.66 24.34 7.32 24 8 C22.68 7.34 21.36 6.68 20 6 C20 5.34 20 4.68 20 4 C14.06 4 8.12 4 2 4 C1.34 2.68 0.68 1.36 0 0 Z " fill="#598FBD" transform="translate(196,140)"/>
<path d="M0 0 C0.99 0.495 0.99 0.495 2 1 C4.04097237 8.0212324 4.3055898 14.65986817 4.25 21.9375 C4.25773437 22.97712891 4.26546875 24.01675781 4.2734375 25.08789062 C4.27085937 26.07853516 4.26828125 27.06917969 4.265625 28.08984375 C4.26336914 28.98566162 4.26111328 29.88147949 4.25878906 30.80444336 C4 33 4 33 2 35 C2.02320313 33.74445313 2.04640625 32.48890625 2.0703125 31.1953125 C2.26982861 19.48539582 2.26982861 19.48539582 0.4453125 7.95703125 C-0.16202135 5.2879588 -0.1432915 2.72253859 0 0 Z " fill="#3C77A7" transform="translate(289,99)"/>
<path d="M0 0 C0.66 0.33 1.32 0.66 2 1 C1.34773438 1.97839844 0.69546875 2.95679688 0.0234375 3.96484375 C-0.39744141 4.59640381 -0.81832031 5.22796387 -1.25195312 5.87866211 C-2.16902115 7.25377495 -3.08699363 8.62828503 -4.00585938 10.00219727 C-6.00181925 12.98870532 -7.98637422 15.9788166 -9.9296875 19 C-10.70699219 20.2065625 -10.70699219 20.2065625 -11.5 21.4375 C-11.9434375 22.13746094 -12.386875 22.83742187 -12.84375 23.55859375 C-13.2253125 24.03425781 -13.606875 24.50992188 -14 25 C-14.66 25 -15.32 25 -16 25 C-12.98321023 18.73435971 -9.0684853 13.28932108 -4.9375 7.71875 C-3.14955862 5.20986451 -1.54433598 2.66397956 0 0 Z " fill="#3E79AC" transform="translate(122,147)"/>
<path d="M0 0 C5.56467591 -0.27641527 9.92605985 0.6162463 15.1875 2.375 C15.88552734 2.59671875 16.58355469 2.8184375 17.30273438 3.046875 C20.67192854 4.13681412 23.89659485 5.28390516 27 7 C26.67 7.99 26.34 8.98 26 10 C24.35 9.34 22.7 8.68 21 8 C21 7.34 21 6.68 21 6 C19.75863281 5.81630859 19.75863281 5.81630859 18.4921875 5.62890625 C14.6403979 4.93523944 10.89555126 3.97147869 7.125 2.9375 C6.43664062 2.75123047 5.74828125 2.56496094 5.0390625 2.37304688 C3.35867486 1.91794189 1.67923678 1.45933322 0 1 C0 0.67 0 0.34 0 0 Z " fill="#3E7CAE" transform="translate(219,42)"/>
<path d="M0 0 C1.28222999 2.06271781 2.35291063 4.14332127 3.4375 6.3125 C4.4275 6.9725 5.4175 7.6325 6.4375 8.3125 C6.4375 9.3025 6.4375 10.2925 6.4375 11.3125 C7.7575 11.3125 9.0775 11.3125 10.4375 11.3125 C10.4375 11.9725 10.4375 12.6325 10.4375 13.3125 C7.65032111 13.23052415 5.91997233 12.75014605 3.83984375 10.86328125 C0.7300359 7.34086991 -0.757211 4.82572251 -2.5625 0.3125 C-6.1925 0.3125 -9.8225 0.3125 -13.5625 0.3125 C-13.5625 -0.0175 -13.5625 -0.3475 -13.5625 -0.6875 C-3.47398621 -2.28774702 -3.47398621 -2.28774702 0 0 Z " fill="#4F88B6" transform="translate(181.5625,138.6875)"/>
<path d="M0 0 C-0.969375 0.433125 -1.93875 0.86625 -2.9375 1.3125 C-5.42818289 2.9203352 -5.93290035 3.69715691 -6.5859375 6.64453125 C-6.73507081 8.6064057 -6.83916682 10.57230708 -6.89453125 12.5390625 C-7 15 -7 15 -8 17 C-8.66 17 -9.32 17 -10 17 C-9.91266027 14.91589342 -9.80447722 12.83265331 -9.6875 10.75 C-9.62949219 9.58984375 -9.57148438 8.4296875 -9.51171875 7.234375 C-8.9762459 3.84985961 -8.40115858 2.39545512 -6 0 C-3 -1 -3 -1 0 0 Z " fill="#3D7AAB" transform="translate(257,145)"/>
<path d="M0 0 C3.67176747 1.43288487 4.69898762 3.6057453 6.5625 7 C7.3125 9.375 7.3125 9.375 7.5625 11 C6.9025 11 6.2425 11 5.5625 11 C3.64437166 9.08187166 2.06607997 7.25536995 0.5625 5 C0.5625 4.01 0.5625 3.02 0.5625 2 C-1.0875 2.33 -2.7375 2.66 -4.4375 3 C-4.7675 3.99 -5.0975 4.98 -5.4375 6 C-5.4375 4.68 -5.4375 3.36 -5.4375 2 C-2.4375 0 -2.4375 0 0 0 Z M1.5625 3 C2.5625 5 2.5625 5 2.5625 5 Z " fill="#3777AC" transform="translate(220.4375,101)"/>
<path d="M0 0 C0.66 0.66 1.32 1.32 2 2 C-1.80304814 7.19210472 -5.76158542 12.15609762 -10 17 C-10.33 16.01 -10.66 15.02 -11 14 C-9.9609375 12.421875 -9.9609375 12.421875 -8.375 10.75 C-5.26338711 7.34031204 -2.63088153 3.79156456 0 0 Z " fill="#427DB0" transform="translate(278,169)"/>
<path d="M0 0 C3.70826651 -0.05837668 7.4164137 -0.09372277 11.125 -0.125 C12.69507813 -0.15013672 12.69507813 -0.15013672 14.296875 -0.17578125 C24.35666321 -0.2394508 24.35666321 -0.2394508 29 2 C29.9375 4 29.9375 4 30 6 C29.67 6.66 29.34 7.32 29 8 C26 4.25 26 4.25 26 2 C13.13 1.505 13.13 1.505 0 1 C0 0.67 0 0.34 0 0 Z " fill="#73A3C9" transform="translate(194,120)"/>
<path d="M0 0 C0 0.33 0 0.66 0 1 C-5.94 1.495 -5.94 1.495 -12 2 C-12 2.33 -12 2.66 -12 3 C-18.27 2.67 -24.54 2.34 -31 2 C-31 1.67 -31 1.34 -31 1 C-20.66192051 -0.1555538 -10.38437692 -0.09776087 0 0 Z " fill="#6799C3" transform="translate(163,228)"/>
<path d="M0 0 C0.97674523 3.09748658 1.05539128 3.84921262 -0.125 7.0625 C-2.12690348 10.19881545 -3.69432714 11.39183483 -7 13 C-7 8.40848794 -6.31497074 7.66817876 -3.5 4.25 C-2.8503125 3.45078125 -2.200625 2.6515625 -1.53125 1.828125 C-1.0259375 1.22484375 -0.520625 0.6215625 0 0 Z " fill="#4481B8" transform="translate(268,164)"/>
<path d="M0 0 C0.33 0 0.66 0 1 0 C1.08144943 2.70894767 1.14070614 5.41541263 1.1875 8.125 C1.22520508 9.26582031 1.22520508 9.26582031 1.26367188 10.4296875 C1.32751414 15.36682257 0.78621995 18.7418148 -2 23 C-4.6875 24.375 -4.6875 24.375 -7 25 C-6.34 23.35 -5.68 21.7 -5 20 C-4.34 20 -3.68 20 -3 20 C-2.7834375 19.071875 -2.7834375 19.071875 -2.5625 18.125 C-2 16 -2 16 -1 14 C-0.76970044 11.62876754 -0.58880058 9.25258057 -0.4375 6.875 C-0.35371094 5.59367187 -0.26992188 4.31234375 -0.18359375 2.9921875 C-0.09271484 1.51105469 -0.09271484 1.51105469 0 0 Z " fill="#3A78AA" transform="translate(266,116)"/>
<path d="M0 0 C-1.423125 0.86625 -1.423125 0.86625 -2.875 1.75 C-5.95364407 3.96662373 -6.7027975 4.63688241 -8 8 C-8.45064632 10.58532701 -8.45064632 10.58532701 -8.625 13.25 C-8.69976562 14.14203125 -8.77453125 15.0340625 -8.8515625 15.953125 C-8.90054688 16.62859375 -8.94953125 17.3040625 -9 18 C-9.66 17.67 -10.32 17.34 -11 17 C-11.47574085 11.74570657 -11.79885377 7.40890662 -8.6875 2.9375 C-5.52124693 -0.52328824 -4.51020264 -1.50340088 0 0 Z " fill="#3677AB" transform="translate(168,96)"/>
<path d="M0 0 C1.32 0.33 2.64 0.66 4 1 C4 1.66 4 2.32 4 3 C4.86625 3.0309375 4.86625 3.0309375 5.75 3.0625 C8.87398497 4.36416041 9.76874004 6.2842224 11.31640625 9.2109375 C12 11 12 11 11.75 13.4375 C11.5025 13.953125 11.255 14.46875 11 15 C10.73058594 14.41605469 10.46117187 13.83210937 10.18359375 13.23046875 C8.99689769 10.99415374 7.70202394 9.23570747 6.0625 7.3125 C5.55847656 6.71050781 5.05445313 6.10851562 4.53515625 5.48828125 C2.95966074 3.74583445 2.95966074 3.74583445 0 3 C0 2.01 0 1.02 0 0 Z " fill="#4D83B0" transform="translate(164,229)"/>
<path d="M0 0 C2.4375 0.75 2.4375 0.75 5 2 C6.62484302 5.37467396 6.07068911 9.32416633 6 13 C4.35 12.67 2.7 12.34 1 12 C1 11.34 1 10.68 1 10 C1.66 10 2.32 10 3 10 C2.01 6.7 1.02 3.4 0 0 Z " fill="#4584B8" transform="translate(218,147)"/>
<path d="M0 0 C0.33 0 0.66 0 1 0 C1.02701408 2.10409639 1.04640223 4.20829178 1.0625 6.3125 C1.07410156 7.48425781 1.08570313 8.65601563 1.09765625 9.86328125 C1 13 1 13 0 16 C-0.66 16 -1.32 16 -2 16 C-2 16.66 -2 17.32 -2 18 C-2.66 18 -3.32 18 -4 18 C-2.68 12.06 -1.36 6.12 0 0 Z " fill="#D2E9F6" transform="translate(292,136)"/>
<path d="M0 0 C0 0.99 0 1.98 0 3 C1.32 3.33 2.64 3.66 4 4 C3.01 4.495 3.01 4.495 2 5 C1.01 4.67 0.02 4.34 -1 4 C-3.56634861 3.77281504 -6.11678107 3.58391816 -8.6875 3.4375 C-9.38939453 3.39431641 -10.09128906 3.35113281 -10.81445312 3.30664062 C-12.54275206 3.2008264 -14.2713511 3.09993419 -16 3 C-13.29256154 1.5133262 -11.06963542 0.69875061 -8 0.375 C-7.01 0.26285156 -7.01 0.26285156 -6 0.1484375 C-4.00487549 0.00036185 -2.00061195 0 0 0 Z " fill="#DDF4FD" transform="translate(164,225)"/>
<path d="M0 0 C3.02918748 2.89748368 3.95493664 4.15881734 4.1875 8.5 C4 12 4 12 2 14 C-1.125 14.125 -1.125 14.125 -4 14 C-3.67 13.01 -3.34 12.02 -3 11 C-1.35 11.33 0.3 11.66 2 12 C1.44687265 7.97007218 0.8441938 3.97977076 0 0 Z " fill="#3A75A9" transform="translate(230,117)"/>
<path d="M0 0 C1 2 1 2 0.3984375 4.09375 C-2.39204048 10.65456845 -2.39204048 10.65456845 -5.75 12.5625 C-6.4925 12.706875 -7.235 12.85125 -8 13 C-6.40956621 7.91061189 -3.2553049 4.12543357 0 0 Z " fill="#CDE6F5" transform="translate(129,140)"/>
<path d="M0 0 C0.66 0 1.32 0 2 0 C1.125 6.875 1.125 6.875 0 8 C-0.23427778 10.01594582 -0.41336124 12.038474 -0.5625 14.0625 C-0.68818359 15.71958984 -0.68818359 15.71958984 -0.81640625 17.41015625 C-0.87699219 18.26480469 -0.93757812 19.11945313 -1 20 C-3.54005385 16.18991922 -3.3610332 14.54901828 -3 10 C-2.14628637 6.61475404 -1.11774975 3.30667633 0 0 Z " fill="#E2F6FD" transform="translate(147,94)"/>
<path d="M0 0 C-5.27094078 2.7292223 -10.36244519 5.12081506 -16 7 C-16.33 7.66 -16.66 8.32 -17 9 C-17.33 8.01 -17.66 7.02 -18 6 C-16.25318707 5.01515892 -14.5024149 4.03733813 -12.75 3.0625 C-11.28820312 2.24458984 -11.28820312 2.24458984 -9.796875 1.41015625 C-5.91287172 -0.54811915 -4.17924041 -1.39308014 0 0 Z " fill="#3D7BB0" transform="translate(165,50)"/>
<path d="M0 0 C0.721875 0.61875 1.44375 1.2375 2.1875 1.875 C4.8011253 3.84973911 6.97217205 4.85433537 10 6 C10.66 6.66 11.32 7.32 12 8 C11.625 10.125 11.625 10.125 11 12 C11 11.01 11 10.02 11 9 C10.236875 8.87625 9.47375 8.7525 8.6875 8.625 C6 8 6 8 3 6 C3 5.34 3 4.68 3 4 C2.01 3.67 1.02 3.34 0 3 C0 2.01 0 1.02 0 0 Z " fill="#548CB8" transform="translate(98,178)"/>
<path d="M0 0 C0.6875 1.8125 0.6875 1.8125 1 4 C0.0625 5.6875 0.0625 5.6875 -2 7 C-4.68028532 7.54871983 -7.26229906 7.77559828 -10 8 C-7.6875 5.5 -7.6875 5.5 -5 3 C-4.01 3 -3.02 3 -2 3 C-2 2.34 -2 1.68 -2 1 C-1.34 0.67 -0.68 0.34 0 0 Z " fill="#4B89BC" transform="translate(250,133)"/>
<path d="M0 0 C-2.62424658 1.74949772 -4.55727216 2.65389981 -7.5 3.625 C-8.66015625 4.01558594 -8.66015625 4.01558594 -9.84375 4.4140625 C-12 5 -12 5 -15 5 C-15 5.66 -15 6.32 -15 7 C-16.32 7.33 -17.64 7.66 -19 8 C-19 6.68 -19 5.36 -19 4 C-18.31292969 3.87882812 -17.62585938 3.75765625 -16.91796875 3.6328125 C-15.56638672 3.38144531 -15.56638672 3.38144531 -14.1875 3.125 C-13.29417969 2.96257813 -12.40085938 2.80015625 -11.48046875 2.6328125 C-0.98831776 -0.04392523 -0.98831776 -0.04392523 0 0 Z " fill="#CAE4F3" transform="translate(173,44)"/>
<path d="M0 0 C1.38871991 5.55487964 -0.60902732 8.64139416 -3.4375 13.4375 C-3.953125 13.953125 -4.46875 14.46875 -5 15 C-6.32 15 -7.64 15 -9 15 C-9 13 -9 13 -6.625 10.375 C-4 8 -4 8 -2 8 C-1.34 5.36 -0.68 2.72 0 0 Z " fill="#CAE5F4" transform="translate(249,160)"/>
<path d="M0 0 C4.33056298 5.51162561 5.2866966 9.20997891 5.125 16.25 C5.11597656 16.99507812 5.10695313 17.74015625 5.09765625 18.5078125 C5.07418358 20.33868059 5.03831525 22.16938238 5 24 C4.67 24 4.34 24 4 24 C4 19.38 4 14.76 4 10 C3.34 10 2.68 10 2 10 C0.68373308 6.38026598 0 3.90432869 0 0 Z " fill="#5488B4" transform="translate(263,106)"/>
<path d="M0 0 C0.99 0.33 1.98 0.66 3 1 C3.33 3.97 3.66 6.94 4 10 C5.98 10.66 7.96 11.32 10 12 C10 12.99 10 13.98 10 15 C6.93110951 14.10788067 4.45206595 13.07674974 2 11 C0.69703625 7.37776077 0.26403513 3.82850938 0 0 Z " fill="#3D7AAC" transform="translate(246,87)"/>
<path d="M0 0 C0.66 0 1.32 0 2 0 C2.19335938 0.61488281 2.38671875 1.22976562 2.5859375 1.86328125 C2.84632813 2.67152344 3.10671875 3.47976562 3.375 4.3125 C3.63023437 5.11300781 3.88546875 5.91351563 4.1484375 6.73828125 C4.98831811 9.22724528 4.98831811 9.22724528 7 12 C7.68177416 13.32567199 8.35191436 14.65753688 9 16 C6.1171875 15.4453125 6.1171875 15.4453125 3 14 C1.7578125 10.7421875 1.7578125 10.7421875 1.125 6.875 C0.90070313 5.59367187 0.67640625 4.31234375 0.4453125 2.9921875 C0.29835937 2.00476563 0.15140625 1.01734375 0 0 Z " fill="#CEECF6" transform="translate(247,83)"/>
<path d="M0 0 C1 2 1 2 0.5078125 4.078125 C-1 6 -1 6 -4.2578125 6.609375 C-5.53398437 6.65578125 -6.81015625 6.7021875 -8.125 6.75 C-9.40632812 6.80671875 -10.68765625 6.8634375 -12.0078125 6.921875 C-13.48894531 6.96054688 -13.48894531 6.96054688 -15 7 C-11.99754796 4.37629764 -10.22853212 3.63697652 -6.25 3.8125 C-5.45078125 3.83957031 -4.6515625 3.86664063 -3.828125 3.89453125 C-3.22484375 3.92933594 -2.6215625 3.96414062 -2 4 C-1.34 2.68 -0.68 1.36 0 0 Z " fill="#6597BD" transform="translate(175,78)"/>
<path d="M0 0 C1 4 1 4 -0.3125 6.25 C-1.1478125 7.11625 -1.1478125 7.11625 -2 8 C-2.66 8 -3.32 8 -4 8 C-4.103125 8.598125 -4.20625 9.19625 -4.3125 9.8125 C-5.08876455 12.28243264 -6.07088921 13.32251235 -8 15 C-8.33 14.34 -8.66 13.68 -9 13 C-6.03 8.71 -3.06 4.42 0 0 Z " fill="#CAE6F4" transform="translate(120,153)"/>
<path d="M0 0 C-3.19373157 3.19373157 -7.06829832 3.90188182 -11.4609375 4.125 C-13.64439214 4.125 -15.81849415 4.08904106 -18 4 C-12.23759526 0.15839684 -6.70842135 -0.23538321 0 0 Z " fill="#BEDCEE" transform="translate(188,56)"/>
<path d="M0 0 C0.33 0 0.66 0 1 0 C1.15855469 0.59167969 1.31710938 1.18335938 1.48046875 1.79296875 C3.06073909 7.14493403 4.68436288 10.25220987 9 14 C9.33 14.66 9.66 15.32 10 16 C4.49856734 14.53295129 4.49856734 14.53295129 2.1875 12.0625 C-0.15465201 7.99455177 -0.08690201 4.60580658 0 0 Z " fill="#3A73A4" transform="translate(113,222)"/>
<path d="M0 0 C0.33 0.99 0.66 1.98 1 3 C0.05125 3.7425 -0.8975 4.485 -1.875 5.25 C-4.32532401 7.27845219 -5.87325363 8.9577848 -7 12 C-7.4375 8.8125 -7.4375 8.8125 -7 5 C-4.91454966 2.88841619 -2.58793807 1.43260857 0 0 Z " fill="#CCE7F5" transform="translate(257,144)"/>
<path d="M0 0 C2.475 0.99 2.475 0.99 5 2 C5 2.99 5 3.98 5 5 C6.32 5.33 7.64 5.66 9 6 C9 6.66 9 7.32 9 8 C6.1875 8.25 6.1875 8.25 3 8 C1.125 6.25 1.125 6.25 0 4 C0 2.68 0 1.36 0 0 Z M2 2 C2.33 2.66 2.66 3.32 3 4 C3.33 3.34 3.66 2.68 4 2 C3.34 2 2.68 2 2 2 Z " fill="#3F7FB5" transform="translate(174,96)"/>
<path d="M0 0 C0.33 0.66 0.66 1.32 1 2 C4.96 1.34 8.92 0.68 13 0 C9.05285412 3.94714588 9.05285412 3.94714588 6.0546875 4.09765625 C4.03645833 4.06510417 2.01822917 4.03255208 0 4 C0 2.68 0 1.36 0 0 Z " fill="#548CBA" transform="translate(208,85)"/>
<path d="M0 0 C-2.28929053 1.17154293 -4.58118362 2.33738074 -6.875 3.5 C-7.52597656 3.83386719 -8.17695313 4.16773438 -8.84765625 4.51171875 C-13.7734375 7 -13.7734375 7 -16 7 C-16 6.34 -16 5.68 -16 5 C-14.09118566 3.96455826 -12.17260796 2.94709915 -10.25 1.9375 C-8.64898437 1.08478516 -8.64898437 1.08478516 -7.015625 0.21484375 C-3.97406463 -1.01044806 -2.95106435 -1.25348607 0 0 Z " fill="#3D79AA" transform="translate(174,58)"/>
<path d="M0 0 C0.33 0 0.66 0 1 0 C1.4375 2.625 1.4375 2.625 1 6 C-1.0949488 8.33122122 -3.46073827 10.17328621 -6 12 C-6 9 -6 9 -4 6 C-3.34 6 -2.68 6 -2 6 C-1.855625 5.38125 -1.71125 4.7625 -1.5625 4.125 C-1 2 -1 2 0 0 Z " fill="#4985B5" transform="translate(114,138)"/>
<path d="M0 0 C0.33 0 0.66 0 1 0 C1.48066535 1.89545392 1.95946743 3.79138039 2.4375 5.6875 C2.83775391 7.27111328 2.83775391 7.27111328 3.24609375 8.88671875 C3.89897932 11.5828317 4.47941193 14.2757576 5 17 C1.19019751 14.54206291 1.19019751 14.54206291 0.375 12.21875 C-0.05256366 9.68899834 -0.09624507 7.31462502 -0.0625 4.75 C-0.05347656 3.85796875 -0.04445312 2.9659375 -0.03515625 2.046875 C-0.02355469 1.37140625 -0.01195312 0.6959375 0 0 Z " fill="#BFE1F5" transform="translate(159,104)"/>
<path d="M0 0 C1.0209375 0.14888672 1.0209375 0.14888672 2.0625 0.30078125 C4 0.6875 4 0.6875 7 1.6875 C8.1875 3.75 8.1875 3.75 9 5.6875 C8.43152344 5.48253906 7.86304688 5.27757813 7.27734375 5.06640625 C2.4915546 3.39657331 -1.95943201 2.22373064 -7 1.6875 C-3.80545772 -0.44219485 -3.50853075 -0.5515304 0 0 Z " fill="#D8EEF9" transform="translate(229,69.3125)"/>
<path d="M0 0 C0.350625 0.61875 0.70125 1.2375 1.0625 1.875 C3.68887702 4.75554253 6.26627537 5.15462838 10 6 C10 6.66 10 7.32 10 8 C6.37 7.34 2.74 6.68 -1 6 C-1 1 -1 1 0 0 Z " fill="#B9DAED" transform="translate(110,168)"/>
<path d="M0 0 C1.32 0.99 2.64 1.98 4 3 C3.67 4.98 3.34 6.96 3 9 C3.66 9 4.32 9 5 9 C4.67 11.31 4.34 13.62 4 16 C3.67 16 3.34 16 3 16 C2.49595192 13.89679937 1.99689492 11.79240209 1.5 9.6875 C1.08234375 7.92986328 1.08234375 7.92986328 0.65625 6.13671875 C0 3 0 3 0 0 Z " fill="#D8EDF9" transform="translate(289,93)"/>
<path d="M0 0 C0.99 0.33 1.98 0.66 3 1 C1.99088542 2.7578125 0.98177083 4.515625 -0.02734375 6.2734375 C-0.71719051 7.49798475 -1.37144538 8.74289077 -2 10 C-3.32 10 -4.64 10 -6 10 C-4.52307692 5.32307692 -4.52307692 5.32307692 -1.875 3.6875 C-1.25625 3.460625 -0.6375 3.23375 0 3 C0 2.01 0 1.02 0 0 Z " fill="#E0F6FC" transform="translate(175,72)"/>
<path d="M0 0 C0.66 0.33 1.32 0.66 2 1 C2.484375 2.99609375 2.484375 2.99609375 2.75 5.4375 C2.84796875 6.24058594 2.9459375 7.04367188 3.046875 7.87109375 C3 10 3 10 1 12 C-2.125 12.125 -2.125 12.125 -5 12 C-4.360625 11.690625 -3.72125 11.38125 -3.0625 11.0625 C-1.06389179 10.1654837 -1.06389179 10.1654837 0 9 C0.07179964 7.48071962 0.08392007 5.95832518 0.0625 4.4375 C0.05347656 3.61121094 0.04445313 2.78492188 0.03515625 1.93359375 C0.02355469 1.29550781 0.01195312 0.65742188 0 0 Z " fill="#3373A6" transform="translate(266,240)"/>
<path d="M0 0 C0.66 0 1.32 0 2 0 C1.84660156 0.63292969 1.69320312 1.26585937 1.53515625 1.91796875 C0.81937036 6.04026849 0.63849837 10.13766507 0.4375 14.3125 C0.39431641 15.14845703 0.35113281 15.98441406 0.30664062 16.84570312 C0.20114693 18.89696935 0.10012685 20.9484648 0 23 C-0.33 23 -0.66 23 -1 23 C-1.02902429 19.72918529 -1.04680684 16.4584037 -1.0625 13.1875 C-1.07087891 12.25873047 -1.07925781 11.32996094 -1.08789062 10.37304688 C-1.09111328 9.48037109 -1.09433594 8.58769531 -1.09765625 7.66796875 C-1.10289307 6.84578857 -1.10812988 6.0236084 -1.11352539 5.17651367 C-1 3 -1 3 0 0 Z " fill="#E4F9FD" transform="translate(248,192)"/>
<path d="M0 0 C3.76428019 3.31087949 4.80132193 7.24690847 6 12 C6.1875 15.0625 6.1875 15.0625 6 17 C4.22702858 14.34054286 3.06931028 12.004042 1.875 9.0625 C1.52179688 8.20785156 1.16859375 7.35320312 0.8046875 6.47265625 C0 4 0 4 0 0 Z " fill="#3776AC" transform="translate(274,90)"/>
<path d="M0 0 C0.66 0 1.32 0 2 0 C2 0.99 2 1.98 2 3 C3.98 3 5.96 3 8 3 C7.01 3.495 7.01 3.495 6 4 C6 4.66 6 5.32 6 6 C4.02 6 2.04 6 0 6 C-0.38218767 4.34385343 -0.71395102 2.67542976 -1 1 C-0.67 0.67 -0.34 0.34 0 0 Z " fill="#D3ECF8" transform="translate(226,159)"/>
<path d="M0 0 C1 2 1 2 0.375 5.3125 C-1.11939091 9.32018472 -2.80390733 11.22444584 -6 14 C-4.7023817 8.70139194 -2.84984298 4.65474354 0 0 Z " fill="#548AB9" transform="translate(127,76)"/>
<path d="M0 0 C2.97 0.495 2.97 0.495 6 1 C6 1.66 6 2.32 6 3 C7.32 3.66 8.64 4.32 10 5 C9.01 6.485 9.01 6.485 8 8 C6.66372225 6.85760183 5.33104612 5.71098945 4 4.5625 C3.2575 3.92441406 2.515 3.28632812 1.75 2.62890625 C1.1725 2.09136719 0.595 1.55382812 0 1 C0 0.67 0 0.34 0 0 Z " fill="#4D87BA" transform="translate(254,69)"/>
<path d="M0 0 C1.2065625 0.0309375 1.2065625 0.0309375 2.4375 0.0625 C1.7775 2.3725 1.1175 4.6825 0.4375 7.0625 C0.1075 6.4025 -0.2225 5.7425 -0.5625 5.0625 C-2.2125 5.0625 -3.8625 5.0625 -5.5625 5.0625 C-4.5725 4.7325 -3.5825 4.4025 -2.5625 4.0625 C-2.8925 3.0725 -3.2225 2.0825 -3.5625 1.0625 C-2.5625 0.0625 -2.5625 0.0625 0 0 Z " fill="#3F85C1" transform="translate(173.5625,90.9375)"/>
<path d="M0 0 C3.3 0.33 6.6 0.66 10 1 C10 1.66 10 2.32 10 3 C11.32 3.33 12.64 3.66 14 4 C14 4.66 14 5.32 14 6 C9.27775484 4.46527032 4.64144669 2.76054874 0 1 C0 0.67 0 0.34 0 0 Z " fill="#5D91BA" transform="translate(230,57)"/>
<path d="M0 0 C0.33 0 0.66 0 1 0 C1.20413361 5.73842251 1.27141454 10.60539047 -1 16 C-1.33 16 -1.66 16 -2 16 C-2.20674944 10.21101581 -1.59162079 5.57067277 0 0 Z " fill="#C7E5F2" transform="translate(133,93)"/>
<path d="M0 0 C5.31027254 1.46032495 9.46330032 3.98320986 14 7 C12.68 7.33 11.36 7.66 10 8 C9.67 7.01 9.34 6.02 9 5 C6.03 4.505 6.03 4.505 3 4 C3 3.34 3 2.68 3 2 C2.01 1.67 1.02 1.34 0 1 C0 0.67 0 0.34 0 0 Z " fill="#DCF4FE" transform="translate(238,61)"/>
<path d="M0 0 C4.8274799 1.41292095 8.7162359 3.42974154 13 6 C13 6.33 13 6.66 13 7 C11.35 7 9.7 7 8 7 C8 6.34 8 5.68 8 5 C7.13375 4.814375 7.13375 4.814375 6.25 4.625 C3.97664233 3.99351176 2.0746471 3.11141809 0 2 C0 1.34 0 0.68 0 0 Z " fill="#437FAE" transform="translate(248,51)"/>
<path d="M0 0 C0.66 0 1.32 0 2 0 C0.66666667 4 -0.66666667 8 -2 12 C-3.125 10.3125 -3.125 10.3125 -4 8 C-3.08326247 4.86781344 -1.81982071 2.72973106 0 0 Z " fill="#D9F0FB" transform="translate(253,180)"/>
<path d="M0 0 C2.27024968 -0.08097324 4.54132075 -0.13917704 6.8125 -0.1875 C8.07707031 -0.22230469 9.34164062 -0.25710937 10.64453125 -0.29296875 C14 0 14 0 15.94921875 1.38671875 C17 3 17 3 17 5 C16.01 5.33 15.02 5.66 14 6 C13.67 4.68 13.34 3.36 13 2 C8.71 1.67 4.42 1.34 0 1 C0 0.67 0 0.34 0 0 Z " fill="#6798C2" transform="translate(172,126)"/>
<path d="M0 0 C-1.65 0.66 -3.3 1.32 -5 2 C-5 2.66 -5 3.32 -5 4 C-7.5 5.625 -7.5 5.625 -10 7 C-9.4376049 3.73810844 -8.5859495 2.08865152 -6 0 C-3 -1 -3 -1 0 0 Z " fill="#4681B7" transform="translate(155,68)"/>
<path d="M0 0 C0 0.66 0 1.32 0 2 C-4.37934119 1.48041715 -8.68803391 0.94324258 -13 0 C-13 -0.33 -13 -0.66 -13 -1 C-8.08295331 -2.26438344 -4.75035002 -1.58345001 0 0 Z " fill="#BCDCEC" transform="translate(234,42)"/>
<path d="M0 0 C2.22023926 2.22023926 2.99988963 3.98529101 4.1875 6.875 C4.55230469 7.73867187 4.91710937 8.60234375 5.29296875 9.4921875 C6.04664008 12.16543056 5.9388856 13.42852989 5 16 C0.59225513 5.62642369 0.59225513 5.62642369 0 0 Z " fill="#4B84B4" transform="translate(263,228)"/>
<path d="M0 0 C2.05078125 0.03255208 4.1015625 0.06510417 6.15234375 0.09765625 C3.82020227 1.30393633 1.65592236 2.26313005 -0.84765625 3.09765625 C-1.64978253 4.97152841 -1.64978253 4.97152841 -2.03515625 7.16015625 C-2.19371094 7.89363281 -2.35226563 8.62710938 -2.515625 9.3828125 C-2.67998047 10.23166016 -2.67998047 10.23166016 -2.84765625 11.09765625 C-3.17765625 11.09765625 -3.50765625 11.09765625 -3.84765625 11.09765625 C-3.70722748 9.45135297 -3.56016296 7.80561446 -3.41015625 6.16015625 C-3.32894531 5.24363281 -3.24773437 4.32710938 -3.1640625 3.3828125 C-2.71554616 0.14352781 -2.71554616 0.14352781 0 0 Z " fill="#CCE6F4" transform="translate(193.84765625,105.90234375)"/>
<path d="M0 0 C1.16306443 3.54950034 0.92365049 6.55823948 0.5625 10.25 C0.40974609 11.86648437 0.40974609 11.86648437 0.25390625 13.515625 C0.17011719 14.33546875 0.08632812 15.1553125 0 16 C-1.84647218 12.89424795 -2.18809488 11.00197682 -1.6875 7.4375 C-1.58824219 6.67308594 -1.48898438 5.90867187 -1.38671875 5.12109375 C-1 3 -1 3 0 0 Z " fill="#4C86B3" transform="translate(120,90)"/>
<path d="M0 0 C0.33 0.66 0.66 1.32 1 2 C-0.1875 5.5625 -0.1875 5.5625 -2 9 C-3.32 9.33 -4.64 9.66 -6 10 C-4.02 6.7 -2.04 3.4 0 0 Z " fill="#C7E3F3" transform="translate(281,168)"/>
<path d="M0 0 C1.15227823 0.76116551 2.2966386 1.53432693 3.4375 2.3125 C4.07558594 2.74175781 4.71367187 3.17101562 5.37109375 3.61328125 C7 5 7 5 8 8 C4.00499382 6.6302836 1.19990508 4.74277578 -2 2 C-1.34 2 -0.68 2 0 2 C0 1.34 0 0.68 0 0 Z " fill="#578FBF" transform="translate(246,61)"/>
<path d="M0 0 C0.99 0.495 0.99 0.495 2 1 C3.37342831 1.0689472 4.75002102 1.08467708 6.125 1.0625 C7.40375 1.041875 8.6825 1.02125 10 1 C9.01 2.485 9.01 2.485 8 4 C6.0546875 4.29296875 6.0546875 4.29296875 3.875 4.1875 C2.59625 4.125625 1.3175 4.06375 0 4 C0 2.68 0 1.36 0 0 Z " fill="#BED9EA" transform="translate(166,256)"/>
<path d="M0 0 C0.33 0 0.66 0 1 0 C1.08075665 2.29109597 1.13907731 4.58299267 1.1875 6.875 C1.22230469 8.15117187 1.25710937 9.42734375 1.29296875 10.7421875 C1.19628906 11.81726563 1.09960938 12.89234375 1 14 C0.01 14.66 -0.98 15.32 -2 16 C-1.34 10.72 -0.68 5.44 0 0 Z " fill="#E6F8FD" transform="translate(116,122)"/>
<path d="M0 0 C0.66 0.33 1.32 0.66 2 1 C1.37755401 2.27208622 0.75193233 3.54261882 0.125 4.8125 C-0.22304687 5.52019531 -0.57109375 6.22789063 -0.9296875 6.95703125 C-2 9 -2 9 -4 12 C-4.33292585 7.75519536 -4.43885872 5.64457375 -2 2.0625 C-1.34 1.381875 -0.68 0.70125 0 0 Z " fill="#4882AF" transform="translate(138,81)"/>
<path d="M0 0 C0.33 0 0.66 0 1 0 C1.76173392 4.3164922 2.16063604 7.74433453 1 12 C-1.44576827 8.33134759 -1.23607254 6.32799657 -1 2 C-0.67 1.34 -0.34 0.68 0 0 Z " fill="#5A91BC" transform="translate(165,244)"/>
<path d="M0 0 C2.67455183 1.33727591 2.98881385 2.73288323 4.1875 5.4375 C4.55230469 6.24058594 4.91710937 7.04367188 5.29296875 7.87109375 C6 10 6 10 5 12 C2.2289312 9.65408148 1.47940716 7.85223799 0.8125 4.3125 C0.65394531 3.50425781 0.49539062 2.69601563 0.33203125 1.86328125 C0.22246094 1.24839844 0.11289063 0.63351563 0 0 Z " fill="#5A90B6" transform="translate(226,106)"/>
<path d="M0 0 C2.92509086 3.90012114 3.47535095 5.38308839 4 10 C3.01 10 2.02 10 1 10 C0.67 6.7 0.34 3.4 0 0 Z " fill="#B6D5EA" transform="translate(274,94)"/>
<path d="M0 0 C0.99386719 0.00902344 1.98773438 0.01804687 3.01171875 0.02734375 C4.15060547 0.04474609 4.15060547 0.04474609 5.3125 0.0625 C5.3125 0.3925 5.3125 0.7225 5.3125 1.0625 C4.64863281 1.09988281 3.98476562 1.13726562 3.30078125 1.17578125 C-1.75786379 1.5524103 -5.52930819 1.87455295 -9.6875 5.0625 C-9.375 3.125 -9.375 3.125 -8.6875 1.0625 C-5.53819107 0.01273036 -3.29935544 -0.03881595 0 0 Z " fill="#558EBB" transform="translate(194.6875,78.9375)"/>
<path d="M0 0 C2.97 0 5.94 0 9 0 C9.66 1.65 10.32 3.3 11 5 C10.01 5 9.02 5 8 5 C7.67 3.68 7.34 2.36 7 1 C4.69 1 2.38 1 0 1 C0 0.67 0 0.34 0 0 Z " fill="#C3E6F6" transform="translate(170,139)"/>
<path d="M0 0 C2.475 0.495 2.475 0.495 5 1 C5.33 3.64 5.66 6.28 6 9 C3.80421527 6.32687076 2.80350799 4.32881882 2 1 C1.34 0.67 0.68 0.34 0 0 Z " fill="#CDE9F6" transform="translate(261,103)"/>
<path d="M0 0 C2.05078125 0.03255208 4.1015625 0.06510417 6.15234375 0.09765625 C6.48234375 0.75765625 6.81234375 1.41765625 7.15234375 2.09765625 C1.09765625 3.07421875 1.09765625 3.07421875 -0.84765625 3.09765625 C-1.50765625 2.43765625 -2.16765625 1.77765625 -2.84765625 1.09765625 C-1.84765625 0.09765625 -1.84765625 0.09765625 0 0 Z " fill="#CFEAF9" transform="translate(222.84765625,84.90234375)"/>
<path d="M0 0 C0.33 0 0.66 0 1 0 C2.28571429 8.42857143 2.28571429 8.42857143 1 13 C0.34 12.34 -0.32 11.68 -1 11 C-0.9765625 8.3984375 -0.9765625 8.3984375 -0.625 5.375 C-0.51414062 4.37210938 -0.40328125 3.36921875 -0.2890625 2.3359375 C-0.19367188 1.56507813 -0.09828125 0.79421875 0 0 Z " fill="#D9F0FC" transform="translate(126,197)"/>
<path d="M0 0 C0.66 0 1.32 0 2 0 C1.34 2.97 0.68 5.94 0 9 C-0.66 9 -1.32 9 -2 9 C-1.125 1.125 -1.125 1.125 0 0 Z " fill="#3C75A4" transform="translate(251,191)"/>
<path d="M0 0 C0.625 1.8125 0.625 1.8125 1 4 C0.01 5.485 0.01 5.485 -1 7 C-1.99 7 -2.98 7 -4 7 C-2.92598892 4.08482708 -2.22189824 2.22189824 0 0 Z " fill="#568CBC" transform="translate(268,164)"/>
<path d="M0 0 C0.33 0 0.66 0 1 0 C1.50423019 5.29441695 0.18923033 7.81413519 -3 12 C-3.33 11.01 -3.66 10.02 -4 9 C-3.01439389 7.65599167 -2.01241685 6.32392972 -1 5 C-0.28566879 2.35065178 -0.28566879 2.35065178 0 0 Z " fill="#3474A6" transform="translate(119,128)"/>
<path d="M0 0 C0.99 0 1.98 0 3 0 C3.33 2.31 3.66 4.62 4 7 C2.68 6.67 1.36 6.34 0 6 C0 4.02 0 2.04 0 0 Z " fill="#2D7EC2" transform="translate(271,72)"/>
<path d="M0 0 C2.64 1.98 5.28 3.96 8 6 C6.68 6.33 5.36 6.66 4 7 C0 2.25 0 2.25 0 0 Z " fill="#D8ECF9" transform="translate(253,69)"/>
<path d="M0 0 C6.0546875 -0.1953125 6.0546875 -0.1953125 8 0 C8.66 0.66 9.32 1.32 10 2 C4.58461538 3.23076923 4.58461538 3.23076923 1.625 2.0625 C1.08875 1.711875 0.5525 1.36125 0 1 C0 0.67 0 0.34 0 0 Z " fill="#D4ECF6" transform="translate(220,56)"/>
<path d="M0 0 C0.99 0.33 1.98 0.66 3 1 C2.01 3.97 1.02 6.94 0 10 C-0.33 10 -0.66 10 -1 10 C-0.67 6.7 -0.34 3.4 0 0 Z " fill="#548BB6" transform="translate(263,187)"/>
<path d="M0 0 C0.33 0.66 0.66 1.32 1 2 C-0.98 4.97 -0.98 4.97 -3 8 C-3.99 7.67 -4.98 7.34 -6 7 C-4.02 4.69 -2.04 2.38 0 0 Z " fill="#CBE6F6" transform="translate(274,178)"/>
<path d="M0 0 C0.33 0 0.66 0 1 0 C1.36923077 4.55384615 1.36923077 4.55384615 -0.5 6.8125 C-0.995 7.204375 -1.49 7.59625 -2 8 C-2.66 7.67 -3.32 7.34 -4 7 C-2.79618552 4.50638429 -1.54571278 2.31856917 0 0 Z " fill="#4D89BC" transform="translate(106,150)"/>
<path d="M0 0 C1 3 1 3 -0.4375 6.1875 C-1.2109375 7.5796875 -1.2109375 7.5796875 -2 9 C-2.33 9 -2.66 9 -3 9 C-2.4140625 2.84765625 -2.4140625 2.84765625 -2 1 C-1.34 0.67 -0.68 0.34 0 0 Z " fill="#D9F1FB" transform="translate(274,149)"/>
<path d="M0 0 C3.3 1.65 6.6 3.3 10 5 C6 6 6 6 2.75 4.1875 C1.8425 3.465625 0.935 2.74375 0 2 C0 1.34 0 0.68 0 0 Z " fill="#3C78AD" transform="translate(190,137)"/>
<path d="M0 0 C0.99 0.33 1.98 0.66 3 1 C3 2.65 3 4.3 3 6 C2.01 6.33 1.02 6.66 0 7 C0 4.69 0 2.38 0 0 Z " fill="#E8F7FB" transform="translate(116,92)"/>
<path d="M0 0 C3 1 3 1 4.75 3.375 C6 6 6 6 5 9 C4.16094435 7.87926138 3.32892169 6.75325453 2.5 5.625 C2.0359375 4.99851562 1.571875 4.37203125 1.09375 3.7265625 C0 2 0 2 0 0 Z " fill="#3A75A6" transform="translate(266,79)"/>
<path d="M0 0 C2.64 0.33 5.28 0.66 8 1 C8.33 2.32 8.66 3.64 9 5 C5.54074837 3.7508258 2.85306797 2.32472205 0 0 Z " fill="#BFDDED" transform="translate(250,51)"/>
<path d="M0 0 C0.33 0.99 0.66 1.98 1 3 C2.98 3 4.96 3 7 3 C7 2.34 7 1.68 7 1 C7.66 1 8.32 1 9 1 C8.67 2.32 8.34 3.64 8 5 C5.36 4.67 2.72 4.34 0 4 C0 2.68 0 1.36 0 0 Z " fill="#548EBD" transform="translate(225,162)"/>
<path d="M0 0 C-0.60183749 2.02045442 -1.27306096 4.02111039 -2 6 C-2.99 6.495 -2.99 6.495 -4 7 C-4.33 5.02 -4.66 3.04 -5 1 C-2 0 -2 0 0 0 Z " fill="#DDF4FB" transform="translate(271,158)"/>
<path d="M0 0 C0.66 0.99 1.32 1.98 2 3 C0.6875 4.5 0.6875 4.5 -1 6 C-1.99 6 -2.98 6 -4 6 C-4 5.34 -4 4.68 -4 4 C-3.34 4 -2.68 4 -2 4 C-1.34 2.68 -0.68 1.36 0 0 Z " fill="#CFE6F2" transform="translate(146,74)"/>
<path d="M0 0 C3 1 3 1 6 3 C3 5 3 5 -1 5 C-0.67 3.35 -0.34 1.7 0 0 Z " fill="#387EB9" transform="translate(218,41)"/>
</svg>
